999
FreeCAD v0.21 33576 (Git)
  0
SECTION
  2
HEADER
  9
$ACADVER
  1
AC1014
  9
$ACADMAINTVER
 70
     9
  9
$DWGCODEPAGE
  3
ANSI_1252
  9
$TEXTSTYLE
  7
STANDARD
  9
$DIMSTYLE
  2
STANDARD
  9
$DIMTXSTY
  7
STANDARD
  9
$CMLSTYLE
  2
STANDARD
  9
$LUNITS
 70
2
  9
$INSUNITS
 70
4
  9
$PEXTMAX
 10
50
 20
50
 30
50
  9
$PEXTMIN
 10
0
 20
0
 30
0
  9
$HANDSEED
  5
FFFF
  0
ENDSEC
  0
SECTION
  2
CLASSES
  0
CLASS
  1
ACDBDICTIONARYWDFLT
  2
AcDbDictionaryWithDefault
  3
ObjectDBX Classes
 90
        0
280
     0
281
     0
  0
CLASS
  1
XRECORD
  2
AcDbXrecord
  3
ObjectDBX Classes
 90
        0
280
     0
281
     0
  0
CLASS
  1
LWPOLYLINE
  2
AcDbPolyline
  3
ObjectDBX Classes
 90
        0
280
     0
281
     1
  0
ENDSEC
  0
SECTION
  2
TABLES
  0
TABLE
  2
VPORT
  5
20
330
0
100
AcDbSymbolTable
 70
     1
  0
VPORT
  5
21
330
20
100
AcDbSymbolTableRecord
100
AcDbViewportTableRecord
  2
*ACTIVE
 70
     0
  0
ENDTAB
  0
TABLE
  2
LTYPE
  5
22
330
0
100
AcDbSymbolTable
 70
     1
  0
LTYPE
  5
23
330
21
100
AcDbSymbolTableRecord
100
AcDbLinetypeTableRecord
  2
BYBLOCK
 70
     0
  3

 72
    65
 73
     0
 40
0.0
  0
LTYPE
  5
24
330
21
100
AcDbSymbolTableRecord
100
AcDbLinetypeTableRecord
  2
BYLAYER
 70
     0
  3

 72
    65
 73
     0
 40
0.0
  0
LTYPE
  5
25
330
21
100
AcDbSymbolTableRecord
100
AcDbLinetypeTableRecord
  2
CONTINUOUS
 70
     0
  3
Solid line
 72
    65
 73
     0
 40
0.0
  0
ENDTAB
  0
TABLE
  2
LAYER
  5
C0C
330
0
100
AcDbSymbolTable
 70
16
  0
LAYER
  5
C0D
330
C0C
100
AcDbSymbolTableRecord
100
AcDbLayerTableRecord
  2
0
 70
   0
 62
   7
  6
CONTINUOUS
  0
LAYER
  5
C0E
330
C0C
100
AcDbSymbolTableRecord
100
AcDbLayerTableRecord
  2
none
 70
    0
 62
    7
  6
CONTINUOUS
  0
LAYER
  5
C0F
330
C0C
100
AcDbSymbolTableRecord
100
AcDbLayerTableRecord
  2
Shape2DView
 70
    0
 62
    7
  6
CONTINUOUS
  0
LAYER
  5
C10
330
C0C
100
AcDbSymbolTableRecord
100
AcDbLayerTableRecord
  2
Shape2DView001
 70
    0
 62
    7
  6
CONTINUOUS
  0
LAYER
  5
C11
330
C0C
100
AcDbSymbolTableRecord
100
AcDbLayerTableRecord
  2
Shape2DView002
 70
    0
 62
    7
  6
CONTINUOUS
  0
LAYER
  5
C12
330
C0C
100
AcDbSymbolTableRecord
100
AcDbLayerTableRecord
  2
Shape2DView003
 70
    0
 62
    7
  6
CONTINUOUS
  0
LAYER
  5
C13
330
C0C
100
AcDbSymbolTableRecord
100
AcDbLayerTableRecord
  2
Shape2DView004
 70
    0
 62
    7
  6
CONTINUOUS
  0
LAYER
  5
C14
330
C0C
100
AcDbSymbolTableRecord
100
AcDbLayerTableRecord
  2
Shape2DView005
 70
    0
 62
    7
  6
CONTINUOUS
  0
LAYER
  5
C15
330
C0C
100
AcDbSymbolTableRecord
100
AcDbLayerTableRecord
  2
Shape2DView006
 70
    0
 62
    7
  6
CONTINUOUS
  0
LAYER
  5
C16
330
C0C
100
AcDbSymbolTableRecord
100
AcDbLayerTableRecord
  2
Shape2DView007
 70
    0
 62
    7
  6
CONTINUOUS
  0
LAYER
  5
C17
330
C0C
100
AcDbSymbolTableRecord
100
AcDbLayerTableRecord
  2
Shape2DView008
 70
    0
 62
    7
  6
CONTINUOUS
  0
LAYER
  5
C18
330
C0C
100
AcDbSymbolTableRecord
100
AcDbLayerTableRecord
  2
Shape2DView009
 70
    0
 62
    7
  6
CONTINUOUS
  0
LAYER
  5
C19
330
C0C
100
AcDbSymbolTableRecord
100
AcDbLayerTableRecord
  2
Shape2DView010
 70
    0
 62
    7
  6
CONTINUOUS
  0
LAYER
  5
C1A
330
C0C
100
AcDbSymbolTableRecord
100
AcDbLayerTableRecord
  2
Shape2DView011
 70
    0
 62
    7
  6
CONTINUOUS
  0
LAYER
  5
C1B
330
C0C
100
AcDbSymbolTableRecord
100
AcDbLayerTableRecord
  2
Shape2DView012
 70
    0
 62
    7
  6
CONTINUOUS
  0
LAYER
  5
C1C
330
C0C
100
AcDbSymbolTableRecord
100
AcDbLayerTableRecord
  2
Shape2DView013
 70
    0
 62
    7
  6
CONTINUOUS
  0
ENDTAB
  0
TABLE
  2
STYLE
  5
70
330
0
100
AcDbSymbolTable
 70
     2
  0
STYLE
  5
71
330
70
100
AcDbSymbolTableRecord
100
AcDbTextStyleTableRecord
  2
STANDARD
 70
     0
 40
0.0
 41
1.0
 50
0.0
 71
     0
 42
2.5
  3
arial.ttf
  4

  0
STYLE
  5
72
330
70
100
AcDbSymbolTableRecord
100
AcDbTextStyleTableRecord
  2
ANNOTATIVE
 70
     0
 40
0.0
 41
1.0
 50
0.0
 71
     0
 42
2.5
  3
arial.ttf
  4

  0
ENDTAB
  0
TABLE
  2
VIEW
  5
73
330
0
100
AcDbSymbolTable
 70
     0
  0
ENDTAB
  0
TABLE
  2
UCS
  5
74
330
0
100
AcDbSymbolTable
 70
     0
  0
ENDTAB
  0
TABLE
  2
APPID
  5
75
330
0
100
AcDbSymbolTable
 70
     2
  0
APPID
  5
76
330
75
100
AcDbSymbolTableRecord
100
AcDbRegAppTableRecord
  2
ACAD
 70
     0
  0
APPID
  5
77
330
75
100
AcDbSymbolTableRecord
100
AcDbRegAppTableRecord
  2
ACADANNOTATIVE
 70
     0
  0
ENDTAB
  0
TABLE
  2
DIMSTYLE
  5
78
330
0
100
AcDbSymbolTable
 70
     2
  0
DIMSTYLE
105
79
330
78
100
AcDbSymbolTableRecord
100
AcDbDimStyleTableRecord
  2
STANDARD
 70
     0
  3

  4

  5

  6

  7

 40
0.0
 41
2.5
 42
0.625
 43
3.75
 44
1.25
 45
0.0
 46
0.0
 47
0.0
 48
0.0
140
2.5
141
2.5
142
0.0
143
0.03937007874016
144
1.0
145
0.0
146
1.0
147
0.625
 71
     0
 72
     0
 73
     0
 74
     0
 75
     0
 76
     0
 77
     1
 78
     8
170
     0
171
     3
172
     1
173
     0
174
     0
175
     0
176
     0
177
     0
178
     0
270
     2
271
     2
272
     2
273
     2
274
     3
340
71
275
     0
280
     0
281
     0
282
     0
283
     0
284
     8
285
     0
286
     0
287
     3
288
     0
  0
ENDTAB
  0
TABLE
  2
BLOCK_RECORD
  5
A01
330
0
100
AcDbSymbolTable
  70
5
  0
BLOCK_RECORD
  5
A02
330
A01
100
AcDbSymbolTableRecord
100
AcDbBlockTableRecord
  2
*MODEL_SPACE
  0
BLOCK_RECORD
  5
A03
330
A01
100
AcDbSymbolTableRecord
100
AcDbBlockTableRecord
  2
*PAPER_SPACE
  0
ENDTAB
  0
ENDSEC
  0
SECTION
  2
BLOCKS
  0
BLOCK
  5
A04
330
A02
100
AcDbEntity
  8
0
100
AcDbBlockBegin
  2
*MODEL_SPACE
 70
   0
 10
0
 20
0
 30
0
  3
*MODEL_SPACE
  1
 
  0
ENDBLK
  5
A05
330
A02
100
AcDbEntity
  8
0
100
AcDbBlockEnd
  0
BLOCK
  5
A06
330
A03
100
AcDbEntity
 67
1
  8
0
100
AcDbBlockBegin
  2
*PAPER_SPACE
 70
   0
 10
0
 20
0
 30
0
  3
*PAPER_SPACE
  1
 
  0
ENDBLK
  5
A07
330
A03
100
AcDbEntity
 67
    1
  8
0
100
AcDbBlockEnd
  0
ENDSEC
  0
SECTION
  2
ENTITIES
  0
LINE
  5
A08
330
A02
100
AcDbEntity
  8
Shape2DView
100
AcDbLine
 10
12.9244
 20
31.8113
 30
0
 11
13.6144
 21
31.8113
 31
0
  0
ARC
  5
A09
330
A02
100
AcDbEntity
  8
Shape2DView
100
AcDbCircle
 10
12.9244
 20
29.3113
 30
0
 40
2.5
100
AcDbArc
 50
90
 51
180
  0
LINE
  5
A0A
330
A02
100
AcDbEntity
  8
Shape2DView
100
AcDbLine
 10
10.4244
 20
13.0103
 30
0
 11
10.4244
 21
29.3113
 31
0
  0
ARC
  5
A0B
330
A02
100
AcDbEntity
  8
Shape2DView
100
AcDbCircle
 10
12.9244
 20
13.0103
 30
0
 40
2.5
100
AcDbArc
 50
180
 51
-90
  0
LINE
  5
A0C
330
A02
100
AcDbEntity
  8
Shape2DView
100
AcDbLine
 10
13.7144
 20
10.5103
 30
0
 11
12.9244
 21
10.5103
 31
0
  0
LINE
  5
A0D
330
A02
100
AcDbEntity
  8
Shape2DView
100
AcDbLine
 10
13.7144
 20
10.4103
 30
0
 11
13.7144
 21
10.5103
 31
0
  0
ARC
  5
A0E
330
A02
100
AcDbEntity
  8
Shape2DView
100
AcDbCircle
 10
8.61445
 20
10.4103
 30
0
 40
5.1
100
AcDbArc
 50
-28.0725
 51
-1.99564e-14
  0
LINE
  5
A0F
330
A02
100
AcDbEntity
  8
Shape2DView
100
AcDbLine
 10
13.1144
 20
8.0103
 30
0
 11
12.6439
 21
7.12795
 31
0
  0
ARC
  5
A10
330
A02
100
AcDbEntity
  8
Shape2DView
100
AcDbCircle
 10
16.6144
 20
5.0103
 30
0
 40
4.5
100
AcDbArc
 50
151.928
 51
180
  0
LINE
  5
A11
330
A02
100
AcDbEntity
  8
Shape2DView
100
AcDbLine
 10
12.1144
 20
5.0103
 30
0
 11
12.1144
 21
0.993603
 31
0
  0
ARC
  5
A12
330
A02
100
AcDbEntity
  8
Shape2DView
100
AcDbCircle
 10
11.1144
 20
0.993603
 30
0
 40
1
100
AcDbArc
 50
-153.112
 51
-1.27222e-14
  0
ARC
  5
A13
330
A02
100
AcDbEntity
  8
Shape2DView
100
AcDbCircle
 10
2.86445
 20
-3.1897
 30
0
 40
8.25
100
AcDbArc
 50
26.888
 51
59.4898
  0
ARC
  5
A14
330
A02
100
AcDbEntity
  8
Shape2DView
100
AcDbCircle
 10
11.1144
 20
10.8103
 30
0
 40
8
100
AcDbArc
 50
180
 51
-120.51
  0
ARC
  5
A15
330
A02
100
AcDbEntity
  8
Shape2DView
100
AcDbCircle
 10
-2.88555
 20
10.8103
 30
0
 40
6
100
AcDbArc
 50
0
 51
42.5998
  0
ARC
  5
A16
330
A02
100
AcDbEntity
  8
Shape2DView
100
AcDbCircle
 10
5.81445
 20
18.8103
 30
0
 40
5.81905
100
AcDbArc
 50
141.958
 51
-137.4
  0
ARC
  5
A17
330
A02
100
AcDbEntity
  8
Shape2DView
100
AcDbCircle
 10
-8.21914
 20
29.7911
 30
0
 40
12
100
AcDbArc
 50
-38.0418
 51
-6.94591
  0
ARC
  5
A18
330
A02
100
AcDbEntity
  8
Shape2DView
100
AcDbCircle
 10
81.9153
 20
18.8103
 30
0
 40
78.8008
100
AcDbArc
 50
161.689
 51
173.054
  0
ARC
  5
A19
330
A02
100
AcDbEntity
  8
Shape2DView
100
AcDbCircle
 10
10.9018
 20
42.3103
 30
0
 40
4
100
AcDbArc
 50
90
 51
161.689
  0
LINE
  5
A1A
330
A02
100
AcDbEntity
  8
Shape2DView
100
AcDbLine
 10
10.9018
 20
46.3103
 30
0
 11
13.6144
 21
46.3103
 31
0
  0
LINE
  5
A1B
330
A02
100
AcDbEntity
  8
Shape2DView
100
AcDbLine
 10
13.6144
 20
31.8113
 30
0
 11
13.6144
 21
46.3103
 31
0
  0
CIRCLE
  5
A1C
330
A02
100
AcDbEntity
  8
Shape2DView
100
AcDbCircle
 10
5.81445
 20
18.8103
 40
2.85
  0
CIRCLE
  5
A1D
330
A02
100
AcDbEntity
  8
Shape2DView
100
AcDbCircle
 10
7.61445
 20
13.8103
 40
1.5
  0
CIRCLE
  5
A1E
330
A02
100
AcDbEntity
  8
Shape2DView
100
AcDbCircle
 10
7.61445
 20
23.8103
 40
1.5
  0
CIRCLE
  5
A1F
330
A02
100
AcDbEntity
  8
Shape2DView
100
AcDbCircle
 10
10.1144
 20
37.8103
 40
1.5
  0
LINE
  5
A20
330
A02
100
AcDbEntity
  8
Shape2DView001
100
AcDbLine
 10
36.6389
 20
31.8113
 30
0
 11
37.3289
 21
31.8113
 31
0
  0
ARC
  5
A21
330
A02
100
AcDbEntity
  8
Shape2DView001
100
AcDbCircle
 10
36.6389
 20
29.3113
 30
0
 40
2.5
100
AcDbArc
 50
90
 51
180
  0
LINE
  5
A22
330
A02
100
AcDbEntity
  8
Shape2DView001
100
AcDbLine
 10
34.1389
 20
13.0103
 30
0
 11
34.1389
 21
29.3113
 31
0
  0
ARC
  5
A23
330
A02
100
AcDbEntity
  8
Shape2DView001
100
AcDbCircle
 10
36.6389
 20
13.0103
 30
0
 40
2.5
100
AcDbArc
 50
180
 51
-90
  0
LINE
  5
A24
330
A02
100
AcDbEntity
  8
Shape2DView001
100
AcDbLine
 10
37.4289
 20
10.5103
 30
0
 11
36.6389
 21
10.5103
 31
0
  0
LINE
  5
A25
330
A02
100
AcDbEntity
  8
Shape2DView001
100
AcDbLine
 10
37.4289
 20
10.4103
 30
0
 11
37.4289
 21
10.5103
 31
0
  0
ARC
  5
A26
330
A02
100
AcDbEntity
  8
Shape2DView001
100
AcDbCircle
 10
32.3289
 20
10.4103
 30
0
 40
5.1
100
AcDbArc
 50
-28.0725
 51
-1.99564e-14
  0
LINE
  5
A27
330
A02
100
AcDbEntity
  8
Shape2DView001
100
AcDbLine
 10
36.8289
 20
8.0103
 30
0
 11
36.3583
 21
7.12795
 31
0
  0
ARC
  5
A28
330
A02
100
AcDbEntity
  8
Shape2DView001
100
AcDbCircle
 10
40.3289
 20
5.0103
 30
0
 40
4.5
100
AcDbArc
 50
151.928
 51
180
  0
LINE
  5
A29
330
A02
100
AcDbEntity
  8
Shape2DView001
100
AcDbLine
 10
35.8289
 20
5.0103
 30
0
 11
35.8289
 21
0.993603
 31
0
  0
ARC
  5
A2A
330
A02
100
AcDbEntity
  8
Shape2DView001
100
AcDbCircle
 10
34.8289
 20
0.993603
 30
0
 40
1
100
AcDbArc
 50
-153.112
 51
-1.27222e-14
  0
ARC
  5
A2B
330
A02
100
AcDbEntity
  8
Shape2DView001
100
AcDbCircle
 10
26.5789
 20
-3.1897
 30
0
 40
8.25
100
AcDbArc
 50
26.888
 51
59.4898
  0
ARC
  5
A2C
330
A02
100
AcDbEntity
  8
Shape2DView001
100
AcDbCircle
 10
34.8289
 20
10.8103
 30
0
 40
8
100
AcDbArc
 50
180
 51
-120.51
  0
ARC
  5
A2D
330
A02
100
AcDbEntity
  8
Shape2DView001
100
AcDbCircle
 10
20.8289
 20
10.8103
 30
0
 40
6
100
AcDbArc
 50
0
 51
42.5998
  0
ARC
  5
A2E
330
A02
100
AcDbEntity
  8
Shape2DView001
100
AcDbCircle
 10
29.5289
 20
18.8103
 30
0
 40
5.81905
100
AcDbArc
 50
141.958
 51
-137.4
  0
ARC
  5
A2F
330
A02
100
AcDbEntity
  8
Shape2DView001
100
AcDbCircle
 10
15.4953
 20
29.7911
 30
0
 40
12
100
AcDbArc
 50
-38.0418
 51
-6.94591
  0
ARC
  5
A30
330
A02
100
AcDbEntity
  8
Shape2DView001
100
AcDbCircle
 10
105.63
 20
18.8103
 30
0
 40
78.8008
100
AcDbArc
 50
161.689
 51
173.054
  0
ARC
  5
A31
330
A02
100
AcDbEntity
  8
Shape2DView001
100
AcDbCircle
 10
34.6163
 20
42.3103
 30
0
 40
4
100
AcDbArc
 50
90
 51
161.689
  0
LINE
  5
A32
330
A02
100
AcDbEntity
  8
Shape2DView001
100
AcDbLine
 10
34.6163
 20
46.3103
 30
0
 11
37.3289
 21
46.3103
 31
0
  0
LINE
  5
A33
330
A02
100
AcDbEntity
  8
Shape2DView001
100
AcDbLine
 10
37.3289
 20
31.8113
 30
0
 11
37.3289
 21
46.3103
 31
0
  0
CIRCLE
  5
A34
330
A02
100
AcDbEntity
  8
Shape2DView001
100
AcDbCircle
 10
29.5289
 20
18.8103
 40
2.85
  0
CIRCLE
  5
A35
330
A02
100
AcDbEntity
  8
Shape2DView001
100
AcDbCircle
 10
31.3289
 20
13.8103
 40
1.5
  0
CIRCLE
  5
A36
330
A02
100
AcDbEntity
  8
Shape2DView001
100
AcDbCircle
 10
31.3289
 20
23.8103
 40
1.5
  0
CIRCLE
  5
A37
330
A02
100
AcDbEntity
  8
Shape2DView001
100
AcDbCircle
 10
33.8289
 20
37.8103
 40
1.5
  0
LINE
  5
A38
330
A02
100
AcDbEntity
  8
Shape2DView002
100
AcDbLine
 10
77.0433
 20
380.5
 30
0
 11
77.0433
 21
355.397
 31
0
  0
ARC
  5
A39
330
A02
100
AcDbEntity
  8
Shape2DView002
100
AcDbCircle
 10
75.5433
 20
380.5
 30
0
 40
1.5
100
AcDbArc
 50
0
 51
90
  0
ARC
  5
A3A
330
A02
100
AcDbEntity
  8
Shape2DView002
100
AcDbCircle
 10
75.5433
 20
355.397
 30
0
 40
1.5
100
AcDbArc
 50
-68.6763
 51
0
  0
ARC
  5
A3B
330
A02
100
AcDbEntity
  8
Shape2DView002
100
AcDbCircle
 10
75.5433
 20
384
 30
0
 40
2
100
AcDbArc
 50
180
 51
-90
  0
ARC
  5
A3C
330
A02
100
AcDbEntity
  8
Shape2DView002
100
AcDbCircle
 10
77.5433
 20
350.274
 30
0
 40
4
100
AcDbArc
 50
111.324
 51
180
  0
ARC
  5
A3D
330
A02
100
AcDbEntity
  8
Shape2DView002
100
AcDbCircle
 10
67.0433
 20
384
 30
0
 40
6.5
100
AcDbArc
 50
-0.000154396
 51
-180
  0
LINE
  5
A3E
330
A02
100
AcDbEntity
  8
Shape2DView002
100
AcDbLine
 10
73.5433
 20
350.274
 30
0
 11
73.5433
 21
157.563
 31
0
  0
ARC
  5
A3F
330
A02
100
AcDbEntity
  8
Shape2DView002
100
AcDbCircle
 10
58.5433
 20
384
 30
0
 40
2
100
AcDbArc
 50
-90
 51
0.000154396
  0
ARC
  5
A40
330
A02
100
AcDbEntity
  8
Shape2DView002
100
AcDbCircle
 10
103.543
 20
157.563
 30
0
 40
30
100
AcDbArc
 50
-180
 51
-155.243
  0
ARC
  5
A41
330
A02
100
AcDbEntity
  8
Shape2DView002
100
AcDbCircle
 10
58.5433
 20
380.5
 30
0
 40
1.5
100
AcDbArc
 50
90
 51
180
  0
ARC
  5
A42
330
A02
100
AcDbEntity
  8
Shape2DView002
100
AcDbCircle
 10
4.74253
 20
112
 30
0
 40
78.8008
100
AcDbArc
 50
6.94591
 51
24.7574
  0
LINE
  5
A43
330
A02
100
AcDbEntity
  8
Shape2DView002
100
AcDbLine
 10
57.0433
 20
355.397
 30
0
 11
57.0433
 21
380.5
 31
0
  0
ARC
  5
A44
330
A02
100
AcDbEntity
  8
Shape2DView002
100
AcDbCircle
 10
94.8769
 20
122.981
 30
0
 40
12
100
AcDbArc
 50
-173.054
 51
-141.958
  0
ARC
  5
A45
330
A02
100
AcDbEntity
  8
Shape2DView002
100
AcDbCircle
 10
58.5433
 20
355.397
 30
0
 40
1.5
100
AcDbArc
 50
180
 51
-111.324
  0
ARC
  5
A46
330
A02
100
AcDbEntity
  8
Shape2DView002
100
AcDbCircle
 10
80.8433
 20
112
 30
0
 40
5.81905
100
AcDbArc
 50
-42.5998
 51
38.0418
  0
ARC
  5
A47
330
A02
100
AcDbEntity
  8
Shape2DView002
100
AcDbCircle
 10
56.5433
 20
350.274
 30
0
 40
4
100
AcDbArc
 50
0
 51
68.6763
  0
ARC
  5
A48
330
A02
100
AcDbEntity
  8
Shape2DView002
100
AcDbCircle
 10
89.5433
 20
104
 30
0
 40
6
100
AcDbArc
 50
137.4
 51
180
  0
LINE
  5
A49
330
A02
100
AcDbEntity
  8
Shape2DView002
100
AcDbLine
 10
60.5433
 20
157.563
 30
0
 11
60.5433
 21
350.274
 31
0
  0
ARC
  5
A4A
330
A02
100
AcDbEntity
  8
Shape2DView002
100
AcDbCircle
 10
75.5433
 20
104
 30
0
 40
8
100
AcDbArc
 50
-59.4898
 51
0
  0
ARC
  5
A4B
330
A02
100
AcDbEntity
  8
Shape2DView002
100
AcDbCircle
 10
30.5433
 20
157.563
 30
0
 40
30
100
AcDbArc
 50
-24.7574
 51
0
  0
ARC
  5
A4C
330
A02
100
AcDbEntity
  8
Shape2DView002
100
AcDbCircle
 10
83.7933
 20
90
 30
0
 40
8.25
100
AcDbArc
 50
120.51
 51
180
  0
ARC
  5
A4D
330
A02
100
AcDbEntity
  8
Shape2DView002
100
AcDbCircle
 10
129.344
 20
112
 30
0
 40
78.8008
100
AcDbArc
 50
155.243
 51
173.054
  0
LINE
  5
A4E
330
A02
100
AcDbEntity
  8
Shape2DView002
100
AcDbLine
 10
75.5433
 20
0
 30
0
 11
75.5433
 21
90
 31
0
  0
ARC
  5
A4F
330
A02
100
AcDbEntity
  8
Shape2DView002
100
AcDbCircle
 10
39.2098
 20
122.981
 30
0
 40
12
100
AcDbArc
 50
-38.0418
 51
-6.94591
  0
LINE
  5
A50
330
A02
100
AcDbEntity
  8
Shape2DView002
100
AcDbLine
 10
58.5433
 20
0
 30
0
 11
75.5433
 21
0
 31
0
  0
ARC
  5
A51
330
A02
100
AcDbEntity
  8
Shape2DView002
100
AcDbCircle
 10
53.2433
 20
112
 30
0
 40
5.81905
100
AcDbArc
 50
141.958
 51
-137.4
  0
LINE
  5
A52
330
A02
100
AcDbEntity
  8
Shape2DView002
100
AcDbLine
 10
58.5433
 20
90
 30
0
 11
58.5433
 21
0
 31
0
  0
ARC
  5
A53
330
A02
100
AcDbEntity
  8
Shape2DView002
100
AcDbCircle
 10
44.5433
 20
104
 30
0
 40
6
100
AcDbArc
 50
0
 51
42.5998
  0
ARC
  5
A54
330
A02
100
AcDbEntity
  8
Shape2DView002
100
AcDbCircle
 10
50.2933
 20
90
 30
0
 40
8.25
100
AcDbArc
 50
0
 51
59.4898
  0
ARC
  5
A55
330
A02
100
AcDbEntity
  8
Shape2DView002
100
AcDbCircle
 10
58.5433
 20
104
 30
0
 40
8
100
AcDbArc
 50
180
 51
-120.51
  0
CIRCLE
  5
A56
330
A02
100
AcDbEntity
  8
Shape2DView002
100
AcDbCircle
 10
53.2433
 20
112
 40
1.7
  0
CIRCLE
  5
A57
330
A02
100
AcDbEntity
  8
Shape2DView002
100
AcDbCircle
 10
55.0433
 20
107
 40
1.5
  0
CIRCLE
  5
A58
330
A02
100
AcDbEntity
  8
Shape2DView002
100
AcDbCircle
 10
55.0433
 20
117
 40
1.5
  0
CIRCLE
  5
A59
330
A02
100
AcDbEntity
  8
Shape2DView002
100
AcDbCircle
 10
57.5433
 20
131
 40
1.5
  0
CIRCLE
  5
A5A
330
A02
100
AcDbEntity
  8
Shape2DView002
100
AcDbCircle
 10
67.0433
 20
8
 40
1.5
  0
CIRCLE
  5
A5B
330
A02
100
AcDbEntity
  8
Shape2DView002
100
AcDbCircle
 10
67.0433
 20
56
 40
1.5
  0
LINE
  5
A5C
330
A02
100
AcDbEntity
  8
Shape2DView002
100
AcDbLine
 10
60.7433
 20
105.3
 30
0
 11
58.0433
 21
105.3
 31
0
  0
LINE
  5
A5D
330
A02
100
AcDbEntity
  8
Shape2DView002
100
AcDbLine
 10
60.7433
 20
105.3
 30
0
 11
60.7433
 21
104
 31
0
  0
LINE
  5
A5E
330
A02
100
AcDbEntity
  8
Shape2DView002
100
AcDbLine
 10
58.0433
 20
105.3
 30
0
 11
58.0433
 21
123.5
 31
0
  0
LINE
  5
A5F
330
A02
100
AcDbEntity
  8
Shape2DView002
100
AcDbLine
 10
73.3433
 20
104
 30
0
 11
60.7433
 21
104
 31
0
  0
LINE
  5
A60
330
A02
100
AcDbEntity
  8
Shape2DView002
100
AcDbLine
 10
58.0433
 20
123.5
 30
0
 11
60.7433
 21
123.5
 31
0
  0
LINE
  5
A61
330
A02
100
AcDbEntity
  8
Shape2DView002
100
AcDbLine
 10
73.3433
 20
104
 30
0
 11
73.3433
 21
105.3
 31
0
  0
LINE
  5
A62
330
A02
100
AcDbEntity
  8
Shape2DView002
100
AcDbLine
 10
60.7433
 20
124.8
 30
0
 11
60.7433
 21
123.5
 31
0
  0
LINE
  5
A63
330
A02
100
AcDbEntity
  8
Shape2DView002
100
AcDbLine
 10
76.0433
 20
105.3
 30
0
 11
73.3433
 21
105.3
 31
0
  0
LINE
  5
A64
330
A02
100
AcDbEntity
  8
Shape2DView002
100
AcDbLine
 10
61.2433
 20
124.8
 30
0
 11
60.7433
 21
124.8
 31
0
  0
LINE
  5
A65
330
A02
100
AcDbEntity
  8
Shape2DView002
100
AcDbLine
 10
76.0433
 20
123.5
 30
0
 11
76.0433
 21
105.3
 31
0
  0
LINE
  5
A66
330
A02
100
AcDbEntity
  8
Shape2DView002
100
AcDbLine
 10
61.2433
 20
124.8
 30
0
 11
61.2433
 21
129.7
 31
0
  0
LINE
  5
A67
330
A02
100
AcDbEntity
  8
Shape2DView002
100
AcDbLine
 10
73.3433
 20
123.5
 30
0
 11
76.0433
 21
123.5
 31
0
  0
LINE
  5
A68
330
A02
100
AcDbEntity
  8
Shape2DView002
100
AcDbLine
 10
61.2433
 20
129.7
 30
0
 11
68.2433
 21
129.7
 31
0
  0
LINE
  5
A69
330
A02
100
AcDbEntity
  8
Shape2DView002
100
AcDbLine
 10
73.3433
 20
123.5
 30
0
 11
73.3433
 21
124.8
 31
0
  0
LINE
  5
A6A
330
A02
100
AcDbEntity
  8
Shape2DView002
100
AcDbLine
 10
68.2433
 20
129.7
 30
0
 11
68.2433
 21
127.8
 31
0
  0
LINE
  5
A6B
330
A02
100
AcDbEntity
  8
Shape2DView002
100
AcDbLine
 10
72.8433
 20
124.8
 30
0
 11
73.3433
 21
124.8
 31
0
  0
LINE
  5
A6C
330
A02
100
AcDbEntity
  8
Shape2DView002
100
AcDbLine
 10
68.2433
 20
127.8
 30
0
 11
72.8433
 21
127.8
 31
0
  0
LINE
  5
A6D
330
A02
100
AcDbEntity
  8
Shape2DView002
100
AcDbLine
 10
72.8433
 20
127.8
 30
0
 11
72.8433
 21
124.8
 31
0
  0
CIRCLE
  5
A6E
330
A02
100
AcDbEntity
  8
Shape2DView002
100
AcDbCircle
 10
67.0433
 20
142
 40
1.5
  0
CIRCLE
  5
A6F
330
A02
100
AcDbEntity
  8
Shape2DView002
100
AcDbCircle
 10
67.0433
 20
182
 40
1.5
  0
CIRCLE
  5
A70
330
A02
100
AcDbEntity
  8
Shape2DView002
100
AcDbCircle
 10
76.5433
 20
131
 40
1.5
  0
CIRCLE
  5
A71
330
A02
100
AcDbEntity
  8
Shape2DView002
100
AcDbCircle
 10
79.0433
 20
107
 40
1.5
  0
CIRCLE
  5
A72
330
A02
100
AcDbEntity
  8
Shape2DView002
100
AcDbCircle
 10
79.0433
 20
117
 40
1.5
  0
CIRCLE
  5
A73
330
A02
100
AcDbEntity
  8
Shape2DView002
100
AcDbCircle
 10
80.8433
 20
112
 40
1.7
  0
CIRCLE
  5
A74
330
A02
100
AcDbEntity
  8
Shape2DView002
100
AcDbCircle
 10
67.0433
 20
222
 40
1.5
  0
CIRCLE
  5
A75
330
A02
100
AcDbEntity
  8
Shape2DView002
100
AcDbCircle
 10
67.0433
 20
262
 40
1.5
  0
CIRCLE
  5
A76
330
A02
100
AcDbEntity
  8
Shape2DView002
100
AcDbCircle
 10
67.0433
 20
302
 40
1.5
  0
CIRCLE
  5
A77
330
A02
100
AcDbEntity
  8
Shape2DView002
100
AcDbCircle
 10
67.0433
 20
342
 40
1.5
  0
CIRCLE
  5
A78
330
A02
100
AcDbEntity
  8
Shape2DView002
100
AcDbCircle
 10
67.0433
 20
382
 40
1.5
  0
LINE
  5
A79
330
A02
100
AcDbEntity
  8
Shape2DView003
100
AcDbLine
 10
29.6144
 20
790.453
 30
0
 11
29.6144
 21
765.35
 31
0
  0
ARC
  5
A7A
330
A02
100
AcDbEntity
  8
Shape2DView003
100
AcDbCircle
 10
28.1144
 20
790.453
 30
0
 40
1.5
100
AcDbArc
 50
0
 51
90
  0
ARC
  5
A7B
330
A02
100
AcDbEntity
  8
Shape2DView003
100
AcDbCircle
 10
28.1144
 20
765.35
 30
0
 40
1.5
100
AcDbArc
 50
-68.6763
 51
0
  0
ARC
  5
A7C
330
A02
100
AcDbEntity
  8
Shape2DView003
100
AcDbCircle
 10
28.1144
 20
793.953
 30
0
 40
2
100
AcDbArc
 50
180
 51
-90
  0
ARC
  5
A7D
330
A02
100
AcDbEntity
  8
Shape2DView003
100
AcDbCircle
 10
30.1144
 20
760.226
 30
0
 40
4
100
AcDbArc
 50
111.324
 51
180
  0
ARC
  5
A7E
330
A02
100
AcDbEntity
  8
Shape2DView003
100
AcDbCircle
 10
19.6144
 20
793.953
 30
0
 40
6.5
100
AcDbArc
 50
-0.000154396
 51
-180
  0
LINE
  5
A7F
330
A02
100
AcDbEntity
  8
Shape2DView003
100
AcDbLine
 10
26.1144
 20
760.226
 30
0
 11
26.1144
 21
567.516
 31
0
  0
ARC
  5
A80
330
A02
100
AcDbEntity
  8
Shape2DView003
100
AcDbCircle
 10
11.1144
 20
793.953
 30
0
 40
2
100
AcDbArc
 50
-90
 51
0.000154396
  0
ARC
  5
A81
330
A02
100
AcDbEntity
  8
Shape2DView003
100
AcDbCircle
 10
56.1144
 20
567.516
 30
0
 40
30
100
AcDbArc
 50
180
 51
-155.243
  0
ARC
  5
A82
330
A02
100
AcDbEntity
  8
Shape2DView003
100
AcDbCircle
 10
11.1144
 20
790.453
 30
0
 40
1.5
100
AcDbArc
 50
90
 51
180
  0
ARC
  5
A83
330
A02
100
AcDbEntity
  8
Shape2DView003
100
AcDbCircle
 10
-42.6864
 20
521.953
 30
0
 40
78.8008
100
AcDbArc
 50
6.94591
 51
24.7574
  0
LINE
  5
A84
330
A02
100
AcDbEntity
  8
Shape2DView003
100
AcDbLine
 10
9.61445
 20
765.35
 30
0
 11
9.61445
 21
790.453
 31
0
  0
ARC
  5
A85
330
A02
100
AcDbEntity
  8
Shape2DView003
100
AcDbCircle
 10
47.448
 20
532.933
 30
0
 40
12
100
AcDbArc
 50
-173.054
 51
-141.958
  0
ARC
  5
A86
330
A02
100
AcDbEntity
  8
Shape2DView003
100
AcDbCircle
 10
11.1144
 20
765.35
 30
0
 40
1.5
100
AcDbArc
 50
180
 51
-111.324
  0
ARC
  5
A87
330
A02
100
AcDbEntity
  8
Shape2DView003
100
AcDbCircle
 10
33.4144
 20
521.953
 30
0
 40
5.81905
100
AcDbArc
 50
-42.5998
 51
38.0418
  0
ARC
  5
A88
330
A02
100
AcDbEntity
  8
Shape2DView003
100
AcDbCircle
 10
9.11445
 20
760.226
 30
0
 40
4
100
AcDbArc
 50
0
 51
68.6763
  0
ARC
  5
A89
330
A02
100
AcDbEntity
  8
Shape2DView003
100
AcDbCircle
 10
42.1144
 20
513.953
 30
0
 40
6
100
AcDbArc
 50
137.4
 51
180
  0
LINE
  5
A8A
330
A02
100
AcDbEntity
  8
Shape2DView003
100
AcDbLine
 10
13.1144
 20
567.516
 30
0
 11
13.1144
 21
760.226
 31
0
  0
LINE
  5
A8B
330
A02
100
AcDbEntity
  8
Shape2DView003
100
AcDbLine
 10
36.1144
 20
502.453
 30
0
 11
36.1144
 21
513.953
 31
0
  0
ARC
  5
A8C
330
A02
100
AcDbEntity
  8
Shape2DView003
100
AcDbCircle
 10
-16.8856
 20
567.516
 30
0
 40
30
100
AcDbArc
 50
-24.7574
 51
0
  0
ARC
  5
A8D
330
A02
100
AcDbEntity
  8
Shape2DView003
100
AcDbCircle
 10
81.9153
 20
521.953
 30
0
 40
78.8008
100
AcDbArc
 50
155.243
 51
173.054
  0
LINE
  5
A8E
330
A02
100
AcDbEntity
  8
Shape2DView003
100
AcDbLine
 10
36.1144
 20
502.453
 30
0
 11
32.3144
 21
502.453
 31
0
  0
ARC
  5
A8F
330
A02
100
AcDbEntity
  8
Shape2DView003
100
AcDbCircle
 10
-8.21914
 20
532.933
 30
0
 40
12
100
AcDbArc
 50
-38.0418
 51
-6.94591
  0
ARC
  5
A90
330
A02
100
AcDbEntity
  8
Shape2DView003
100
AcDbCircle
 10
32.1144
 20
502.453
 30
0
 40
0.2
100
AcDbArc
 50
-2.9312e-10
 51
-90
  0
ARC
  5
A91
330
A02
100
AcDbEntity
  8
Shape2DView003
100
AcDbCircle
 10
5.81445
 20
521.953
 30
0
 40
5.81905
100
AcDbArc
 50
141.958
 51
-137.4
  0
LINE
  5
A92
330
A02
100
AcDbEntity
  8
Shape2DView003
100
AcDbLine
 10
32.1144
 20
502.253
 30
0
 11
32.1144
 21
485.653
 31
0
  0
ARC
  5
A93
330
A02
100
AcDbEntity
  8
Shape2DView003
100
AcDbCircle
 10
-2.88555
 20
513.953
 30
0
 40
6
100
AcDbArc
 50
0
 51
42.5998
  0
ARC
  5
A94
330
A02
100
AcDbEntity
  8
Shape2DView003
100
AcDbCircle
 10
32.1144
 20
485.453
 30
0
 40
0.2
100
AcDbArc
 50
90
 51
2.9312e-10
  0
LINE
  5
A95
330
A02
100
AcDbEntity
  8
Shape2DView003
100
AcDbLine
 10
3.11445
 20
513.953
 30
0
 11
3.11445
 21
502.453
 31
0
  0
LINE
  5
A96
330
A02
100
AcDbEntity
  8
Shape2DView003
100
AcDbLine
 10
32.3144
 20
485.453
 30
0
 11
35.9144
 21
485.453
 31
0
  0
LINE
  5
A97
330
A02
100
AcDbEntity
  8
Shape2DView003
100
AcDbLine
 10
6.91445
 20
502.453
 30
0
 11
3.11445
 21
502.453
 31
0
  0
LINE
  5
A98
330
A02
100
AcDbEntity
  8
Shape2DView003
100
AcDbLine
 10
36.1144
 20
485.453
 30
0
 11
35.9144
 21
485.453
 31
0
  0
LINE
  5
A99
330
A02
100
AcDbEntity
  8
Shape2DView003
100
AcDbLine
 10
36.1144
 20
468.453
 30
0
 11
36.1144
 21
485.453
 31
0
  0
ARC
  5
A9A
330
A02
100
AcDbEntity
  8
Shape2DView003
100
AcDbCircle
 10
7.11445
 20
502.453
 30
0
 40
0.2
100
AcDbArc
 50
-90
 51
-180
  0
LINE
  5
A9B
330
A02
100
AcDbEntity
  8
Shape2DView003
100
AcDbLine
 10
7.11445
 20
502.253
 30
0
 11
7.11445
 21
485.653
 31
0
  0
LINE
  5
A9C
330
A02
100
AcDbEntity
  8
Shape2DView003
100
AcDbLine
 10
36.1144
 20
468.453
 30
0
 11
32.3144
 21
468.453
 31
0
  0
ARC
  5
A9D
330
A02
100
AcDbEntity
  8
Shape2DView003
100
AcDbCircle
 10
7.11445
 20
485.453
 30
0
 40
0.2
100
AcDbArc
 50
180
 51
90
  0
ARC
  5
A9E
330
A02
100
AcDbEntity
  8
Shape2DView003
100
AcDbCircle
 10
32.1144
 20
468.453
 30
0
 40
0.2
100
AcDbArc
 50
-2.9312e-10
 51
-90
  0
LINE
  5
A9F
330
A02
100
AcDbEntity
  8
Shape2DView003
100
AcDbLine
 10
6.91445
 20
485.453
 30
0
 11
3.31445
 21
485.453
 31
0
  0
LINE
  5
AA0
330
A02
100
AcDbEntity
  8
Shape2DView003
100
AcDbLine
 10
32.1144
 20
468.253
 30
0
 11
32.1144
 21
451.653
 31
0
  0
LINE
  5
AA1
330
A02
100
AcDbEntity
  8
Shape2DView003
100
AcDbLine
 10
3.11445
 20
485.453
 30
0
 11
3.31445
 21
485.453
 31
0
  0
ARC
  5
AA2
330
A02
100
AcDbEntity
  8
Shape2DView003
100
AcDbCircle
 10
32.1144
 20
451.453
 30
0
 40
0.2
100
AcDbArc
 50
90
 51
2.9312e-10
  0
LINE
  5
AA3
330
A02
100
AcDbEntity
  8
Shape2DView003
100
AcDbLine
 10
3.11445
 20
485.453
 30
0
 11
3.11445
 21
468.453
 31
0
  0
LINE
  5
AA4
330
A02
100
AcDbEntity
  8
Shape2DView003
100
AcDbLine
 10
32.3144
 20
451.453
 30
0
 11
35.9144
 21
451.453
 31
0
  0
LINE
  5
AA5
330
A02
100
AcDbEntity
  8
Shape2DView003
100
AcDbLine
 10
6.91445
 20
468.453
 30
0
 11
3.11445
 21
468.453
 31
0
  0
LINE
  5
AA6
330
A02
100
AcDbEntity
  8
Shape2DView003
100
AcDbLine
 10
36.1144
 20
451.453
 30
0
 11
35.9144
 21
451.453
 31
0
  0
LINE
  5
AA7
330
A02
100
AcDbEntity
  8
Shape2DView003
100
AcDbLine
 10
36.1144
 20
434.453
 30
0
 11
36.1144
 21
451.453
 31
0
  0
ARC
  5
AA8
330
A02
100
AcDbEntity
  8
Shape2DView003
100
AcDbCircle
 10
7.11445
 20
468.453
 30
0
 40
0.2
100
AcDbArc
 50
-90
 51
-180
  0
LINE
  5
AA9
330
A02
100
AcDbEntity
  8
Shape2DView003
100
AcDbLine
 10
7.11445
 20
468.253
 30
0
 11
7.11445
 21
451.653
 31
0
  0
LINE
  5
AAA
330
A02
100
AcDbEntity
  8
Shape2DView003
100
AcDbLine
 10
36.1144
 20
434.453
 30
0
 11
32.3144
 21
434.453
 31
0
  0
ARC
  5
AAB
330
A02
100
AcDbEntity
  8
Shape2DView003
100
AcDbCircle
 10
7.11445
 20
451.453
 30
0
 40
0.2
100
AcDbArc
 50
180
 51
90
  0
ARC
  5
AAC
330
A02
100
AcDbEntity
  8
Shape2DView003
100
AcDbCircle
 10
32.1144
 20
434.453
 30
0
 40
0.2
100
AcDbArc
 50
-2.9312e-10
 51
-90
  0
LINE
  5
AAD
330
A02
100
AcDbEntity
  8
Shape2DView003
100
AcDbLine
 10
6.91445
 20
451.453
 30
0
 11
3.31445
 21
451.453
 31
0
  0
LINE
  5
AAE
330
A02
100
AcDbEntity
  8
Shape2DView003
100
AcDbLine
 10
32.1144
 20
434.253
 30
0
 11
32.1144
 21
417.653
 31
0
  0
LINE
  5
AAF
330
A02
100
AcDbEntity
  8
Shape2DView003
100
AcDbLine
 10
3.11445
 20
451.453
 30
0
 11
3.31445
 21
451.453
 31
0
  0
ARC
  5
AB0
330
A02
100
AcDbEntity
  8
Shape2DView003
100
AcDbCircle
 10
32.1144
 20
417.453
 30
0
 40
0.2
100
AcDbArc
 50
90
 51
2.9312e-10
  0
LINE
  5
AB1
330
A02
100
AcDbEntity
  8
Shape2DView003
100
AcDbLine
 10
3.11445
 20
451.453
 30
0
 11
3.11445
 21
434.453
 31
0
  0
LINE
  5
AB2
330
A02
100
AcDbEntity
  8
Shape2DView003
100
AcDbLine
 10
32.3144
 20
417.453
 30
0
 11
35.9144
 21
417.453
 31
0
  0
LINE
  5
AB3
330
A02
100
AcDbEntity
  8
Shape2DView003
100
AcDbLine
 10
6.91445
 20
434.453
 30
0
 11
3.11445
 21
434.453
 31
0
  0
LINE
  5
AB4
330
A02
100
AcDbEntity
  8
Shape2DView003
100
AcDbLine
 10
36.1144
 20
417.453
 30
0
 11
35.9144
 21
417.453
 31
0
  0
LINE
  5
AB5
330
A02
100
AcDbEntity
  8
Shape2DView003
100
AcDbLine
 10
36.1144
 20
405.953
 30
0
 11
36.1144
 21
417.453
 31
0
  0
ARC
  5
AB6
330
A02
100
AcDbEntity
  8
Shape2DView003
100
AcDbCircle
 10
7.11445
 20
434.453
 30
0
 40
0.2
100
AcDbArc
 50
-90
 51
-180
  0
ARC
  5
AB7
330
A02
100
AcDbEntity
  8
Shape2DView003
100
AcDbCircle
 10
34.1144
 20
405.953
 30
0
 40
2
100
AcDbArc
 50
-84.4002
 51
-1.66184e-06
  0
LINE
  5
AB8
330
A02
100
AcDbEntity
  8
Shape2DView003
100
AcDbLine
 10
7.11445
 20
434.253
 30
0
 11
7.11445
 21
417.653
 31
0
  0
ARC
  5
AB9
330
A02
100
AcDbEntity
  8
Shape2DView003
100
AcDbCircle
 10
36.7491
 20
379.081
 30
0
 40
25
100
AcDbArc
 50
95.5998
 51
113.915
  0
ARC
  5
ABA
330
A02
100
AcDbEntity
  8
Shape2DView003
100
AcDbCircle
 10
7.11445
 20
417.453
 30
0
 40
0.2
100
AcDbArc
 50
180
 51
90
  0
ARC
  5
ABB
330
A02
100
AcDbEntity
  8
Shape2DView003
100
AcDbCircle
 10
19.6144
 20
417.72
 30
0
 40
17.2675
100
AcDbArc
 50
-113.915
 51
-66.0847
  0
LINE
  5
ABC
330
A02
100
AcDbEntity
  8
Shape2DView003
100
AcDbLine
 10
6.91445
 20
417.453
 30
0
 11
3.31445
 21
417.453
 31
0
  0
ARC
  5
ABD
330
A02
100
AcDbEntity
  8
Shape2DView003
100
AcDbCircle
 10
2.4798
 20
379.081
 30
0
 40
25
100
AcDbArc
 50
66.0847
 51
84.4002
  0
LINE
  5
ABE
330
A02
100
AcDbEntity
  8
Shape2DView003
100
AcDbLine
 10
3.11445
 20
417.453
 30
0
 11
3.31445
 21
417.453
 31
0
  0
ARC
  5
ABF
330
A02
100
AcDbEntity
  8
Shape2DView003
100
AcDbCircle
 10
5.11445
 20
405.953
 30
0
 40
2
100
AcDbArc
 50
180
 51
-95.5998
  0
LINE
  5
AC0
330
A02
100
AcDbEntity
  8
Shape2DView003
100
AcDbLine
 10
3.11445
 20
417.453
 30
0
 11
3.11445
 21
405.953
 31
0
  0
CIRCLE
  5
AC1
330
A02
100
AcDbEntity
  8
Shape2DView003
100
AcDbCircle
 10
5.81445
 20
521.953
 40
1.7
  0
CIRCLE
  5
AC2
330
A02
100
AcDbEntity
  8
Shape2DView003
100
AcDbCircle
 10
7.61445
 20
516.953
 40
1.5
  0
CIRCLE
  5
AC3
330
A02
100
AcDbEntity
  8
Shape2DView003
100
AcDbCircle
 10
7.61445
 20
526.953
 40
1.5
  0
CIRCLE
  5
AC4
330
A02
100
AcDbEntity
  8
Shape2DView003
100
AcDbCircle
 10
10.1144
 20
540.953
 40
1.5
  0
LINE
  5
AC5
330
A02
100
AcDbEntity
  8
Shape2DView003
100
AcDbLine
 10
13.6144
 20
405.953
 30
0
 11
13.6144
 21
409.953
 31
0
  0
LINE
  5
AC6
330
A02
100
AcDbEntity
  8
Shape2DView003
100
AcDbLine
 10
25.6144
 20
405.953
 30
0
 11
13.6144
 21
405.953
 31
0
  0
LINE
  5
AC7
330
A02
100
AcDbEntity
  8
Shape2DView003
100
AcDbLine
 10
13.6144
 20
409.953
 30
0
 11
25.6144
 21
409.953
 31
0
  0
LINE
  5
AC8
330
A02
100
AcDbEntity
  8
Shape2DView003
100
AcDbLine
 10
25.6144
 20
409.953
 30
0
 11
25.6144
 21
405.953
 31
0
  0
CIRCLE
  5
AC9
330
A02
100
AcDbEntity
  8
Shape2DView003
100
AcDbCircle
 10
19.6144
 20
417.953
 40
1.5
  0
CIRCLE
  5
ACA
330
A02
100
AcDbEntity
  8
Shape2DView003
100
AcDbCircle
 10
19.6144
 20
465.953
 40
1.5
  0
LINE
  5
ACB
330
A02
100
AcDbEntity
  8
Shape2DView003
100
AcDbLine
 10
11.6144
 20
515.253
 30
0
 11
10.6144
 21
515.253
 31
0
  0
LINE
  5
ACC
330
A02
100
AcDbEntity
  8
Shape2DView003
100
AcDbLine
 10
11.6144
 20
515.253
 30
0
 11
11.6144
 21
514.953
 31
0
  0
LINE
  5
ACD
330
A02
100
AcDbEntity
  8
Shape2DView003
100
AcDbLine
 10
10.6144
 20
515.253
 30
0
 11
10.6144
 21
533.453
 31
0
  0
LINE
  5
ACE
330
A02
100
AcDbEntity
  8
Shape2DView003
100
AcDbLine
 10
11.6144
 20
514.953
 30
0
 11
27.6144
 21
514.953
 31
0
  0
LINE
  5
ACF
330
A02
100
AcDbEntity
  8
Shape2DView003
100
AcDbLine
 10
10.6144
 20
533.453
 30
0
 11
11.6144
 21
533.453
 31
0
  0
LINE
  5
AD0
330
A02
100
AcDbEntity
  8
Shape2DView003
100
AcDbLine
 10
27.6144
 20
514.953
 30
0
 11
27.6144
 21
515.253
 31
0
  0
LINE
  5
AD1
330
A02
100
AcDbEntity
  8
Shape2DView003
100
AcDbLine
 10
11.6144
 20
534.953
 30
0
 11
11.6144
 21
533.453
 31
0
  0
LINE
  5
AD2
330
A02
100
AcDbEntity
  8
Shape2DView003
100
AcDbLine
 10
28.6144
 20
515.253
 30
0
 11
27.6144
 21
515.253
 31
0
  0
ARC
  5
AD3
330
A02
100
AcDbEntity
  8
Shape2DView003
100
AcDbCircle
 10
19.6144
 20
534.953
 30
0
 40
8
100
AcDbArc
 50
116.744
 51
180
  0
LINE
  5
AD4
330
A02
100
AcDbEntity
  8
Shape2DView003
100
AcDbLine
 10
28.6144
 20
533.453
 30
0
 11
28.6144
 21
515.253
 31
0
  0
ARC
  5
AD5
330
A02
100
AcDbEntity
  8
Shape2DView003
100
AcDbCircle
 10
15.1144
 20
543.883
 30
0
 40
2
100
AcDbArc
 50
-63.2563
 51
0
  0
LINE
  5
AD6
330
A02
100
AcDbEntity
  8
Shape2DView003
100
AcDbLine
 10
27.6144
 20
533.453
 30
0
 11
28.6144
 21
533.453
 31
0
  0
LINE
  5
AD7
330
A02
100
AcDbEntity
  8
Shape2DView003
100
AcDbLine
 10
17.1144
 20
543.883
 30
0
 11
17.1144
 21
546.953
 31
0
  0
LINE
  5
AD8
330
A02
100
AcDbEntity
  8
Shape2DView003
100
AcDbLine
 10
27.6144
 20
533.453
 30
0
 11
27.6144
 21
534.953
 31
0
  0
ARC
  5
AD9
330
A02
100
AcDbEntity
  8
Shape2DView003
100
AcDbCircle
 10
18.1144
 20
546.953
 30
0
 40
1
100
AcDbArc
 50
90
 51
180
  0
ARC
  5
ADA
330
A02
100
AcDbEntity
  8
Shape2DView003
100
AcDbCircle
 10
19.6144
 20
534.953
 30
0
 40
8
100
AcDbArc
 50
0
 51
63.2563
  0
LINE
  5
ADB
330
A02
100
AcDbEntity
  8
Shape2DView003
100
AcDbLine
 10
18.1144
 20
547.953
 30
0
 11
21.1144
 21
547.953
 31
0
  0
ARC
  5
ADC
330
A02
100
AcDbEntity
  8
Shape2DView003
100
AcDbCircle
 10
24.1144
 20
543.883
 30
0
 40
2
100
AcDbArc
 50
180
 51
-116.744
  0
ARC
  5
ADD
330
A02
100
AcDbEntity
  8
Shape2DView003
100
AcDbCircle
 10
21.1144
 20
546.953
 30
0
 40
1
100
AcDbArc
 50
0
 51
90
  0
LINE
  5
ADE
330
A02
100
AcDbEntity
  8
Shape2DView003
100
AcDbLine
 10
22.1144
 20
546.953
 30
0
 11
22.1144
 21
543.883
 31
0
  0
CIRCLE
  5
ADF
330
A02
100
AcDbEntity
  8
Shape2DView003
100
AcDbCircle
 10
19.6144
 20
551.953
 40
1.5
  0
CIRCLE
  5
AE0
330
A02
100
AcDbEntity
  8
Shape2DView003
100
AcDbCircle
 10
19.6144
 20
591.953
 40
1.5
  0
CIRCLE
  5
AE1
330
A02
100
AcDbEntity
  8
Shape2DView003
100
AcDbCircle
 10
29.1144
 20
540.953
 40
1.5
  0
CIRCLE
  5
AE2
330
A02
100
AcDbEntity
  8
Shape2DView003
100
AcDbCircle
 10
31.6144
 20
516.953
 40
1.5
  0
CIRCLE
  5
AE3
330
A02
100
AcDbEntity
  8
Shape2DView003
100
AcDbCircle
 10
31.6144
 20
526.953
 40
1.5
  0
CIRCLE
  5
AE4
330
A02
100
AcDbEntity
  8
Shape2DView003
100
AcDbCircle
 10
33.4144
 20
521.953
 40
1.7
  0
CIRCLE
  5
AE5
330
A02
100
AcDbEntity
  8
Shape2DView003
100
AcDbCircle
 10
19.6144
 20
631.953
 40
1.5
  0
CIRCLE
  5
AE6
330
A02
100
AcDbEntity
  8
Shape2DView003
100
AcDbCircle
 10
19.6144
 20
671.953
 40
1.5
  0
CIRCLE
  5
AE7
330
A02
100
AcDbEntity
  8
Shape2DView003
100
AcDbCircle
 10
19.6144
 20
711.953
 40
1.5
  0
CIRCLE
  5
AE8
330
A02
100
AcDbEntity
  8
Shape2DView003
100
AcDbCircle
 10
19.6144
 20
751.953
 40
1.5
  0
CIRCLE
  5
AE9
330
A02
100
AcDbEntity
  8
Shape2DView003
100
AcDbCircle
 10
19.6144
 20
791.953
 40
1.5
  0
ARC
  5
AEA
330
A02
100
AcDbEntity
  8
Shape2DView004
100
AcDbCircle
 10
96.6769
 20
420.433
 30
0
 40
12
100
AcDbArc
 50
-173.054
 51
-141.958
  0
ARC
  5
AEB
330
A02
100
AcDbEntity
  8
Shape2DView004
100
AcDbCircle
 10
82.6433
 20
409.453
 30
0
 40
5.81905
100
AcDbArc
 50
-42.5998
 51
38.0418
  0
ARC
  5
AEC
330
A02
100
AcDbEntity
  8
Shape2DView004
100
AcDbCircle
 10
91.3433
 20
401.453
 30
0
 40
6
100
AcDbArc
 50
137.4
 51
180
  0
LINE
  5
AED
330
A02
100
AcDbEntity
  8
Shape2DView004
100
AcDbLine
 10
85.3433
 20
400.453
 30
0
 11
85.3433
 21
401.453
 31
0
  0
LINE
  5
AEE
330
A02
100
AcDbEntity
  8
Shape2DView004
100
AcDbLine
 10
52.3433
 20
400.453
 30
0
 11
85.3433
 21
400.453
 31
0
  0
LINE
  5
AEF
330
A02
100
AcDbEntity
  8
Shape2DView004
100
AcDbLine
 10
52.3433
 20
401.453
 30
0
 11
52.3433
 21
400.453
 31
0
  0
ARC
  5
AF0
330
A02
100
AcDbEntity
  8
Shape2DView004
100
AcDbCircle
 10
46.3433
 20
401.453
 30
0
 40
6
100
AcDbArc
 50
0
 51
42.5998
  0
ARC
  5
AF1
330
A02
100
AcDbEntity
  8
Shape2DView004
100
AcDbCircle
 10
55.0433
 20
409.453
 30
0
 40
5.81905
100
AcDbArc
 50
141.958
 51
-137.4
  0
ARC
  5
AF2
330
A02
100
AcDbEntity
  8
Shape2DView004
100
AcDbCircle
 10
41.0098
 20
420.433
 30
0
 40
12
100
AcDbArc
 50
-38.0418
 51
-6.94591
  0
ARC
  5
AF3
330
A02
100
AcDbEntity
  8
Shape2DView004
100
AcDbCircle
 10
131.144
 20
409.453
 30
0
 40
78.8008
100
AcDbArc
 50
161.689
 51
173.054
  0
ARC
  5
AF4
330
A02
100
AcDbEntity
  8
Shape2DView004
100
AcDbCircle
 10
60.1307
 20
432.953
 30
0
 40
4
100
AcDbArc
 50
90
 51
161.689
  0
LINE
  5
AF5
330
A02
100
AcDbEntity
  8
Shape2DView004
100
AcDbLine
 10
60.1307
 20
436.953
 30
0
 11
62.3433
 21
436.953
 31
0
  0
ARC
  5
AF6
330
A02
100
AcDbEntity
  8
Shape2DView004
100
AcDbCircle
 10
62.3433
 20
433.453
 30
0
 40
3.5
100
AcDbArc
 50
0
 51
90
  0
LINE
  5
AF7
330
A02
100
AcDbEntity
  8
Shape2DView004
100
AcDbLine
 10
62.3433
 20
433.453
 30
0
 11
65.8433
 21
433.453
 31
0
  0
LINE
  5
AF8
330
A02
100
AcDbEntity
  8
Shape2DView004
100
AcDbLine
 10
62.3433
 20
433.453
 30
0
 11
62.3433
 21
427.116
 31
0
  0
ARC
  5
AF9
330
A02
100
AcDbEntity
  8
Shape2DView004
100
AcDbCircle
 10
68.8433
 20
422.453
 30
0
 40
8
100
AcDbArc
 50
144.341
 51
180
  0
LINE
  5
AFA
330
A02
100
AcDbEntity
  8
Shape2DView004
100
AcDbLine
 10
60.8433
 20
422.453
 30
0
 11
60.8433
 21
420.953
 31
0
  0
LINE
  5
AFB
330
A02
100
AcDbEntity
  8
Shape2DView004
100
AcDbLine
 10
59.8433
 20
420.953
 30
0
 11
60.8433
 21
420.953
 31
0
  0
LINE
  5
AFC
330
A02
100
AcDbEntity
  8
Shape2DView004
100
AcDbLine
 10
59.8433
 20
402.753
 30
0
 11
59.8433
 21
420.953
 31
0
  0
LINE
  5
AFD
330
A02
100
AcDbEntity
  8
Shape2DView004
100
AcDbLine
 10
60.8433
 20
402.753
 30
0
 11
59.8433
 21
402.753
 31
0
  0
LINE
  5
AFE
330
A02
100
AcDbEntity
  8
Shape2DView004
100
AcDbLine
 10
60.8433
 20
402.753
 30
0
 11
60.8433
 21
402.453
 31
0
  0
LINE
  5
AFF
330
A02
100
AcDbEntity
  8
Shape2DView004
100
AcDbLine
 10
60.8433
 20
402.453
 30
0
 11
76.8433
 21
402.453
 31
0
  0
LINE
  5
B00
330
A02
100
AcDbEntity
  8
Shape2DView004
100
AcDbLine
 10
76.8433
 20
402.453
 30
0
 11
76.8433
 21
402.753
 31
0
  0
LINE
  5
B01
330
A02
100
AcDbEntity
  8
Shape2DView004
100
AcDbLine
 10
77.8433
 20
402.753
 30
0
 11
76.8433
 21
402.753
 31
0
  0
LINE
  5
B02
330
A02
100
AcDbEntity
  8
Shape2DView004
100
AcDbLine
 10
77.8433
 20
420.953
 30
0
 11
77.8433
 21
402.753
 31
0
  0
LINE
  5
B03
330
A02
100
AcDbEntity
  8
Shape2DView004
100
AcDbLine
 10
76.8433
 20
420.953
 30
0
 11
77.8433
 21
420.953
 31
0
  0
LINE
  5
B04
330
A02
100
AcDbEntity
  8
Shape2DView004
100
AcDbLine
 10
76.8433
 20
420.953
 30
0
 11
76.8433
 21
422.453
 31
0
  0
ARC
  5
B05
330
A02
100
AcDbEntity
  8
Shape2DView004
100
AcDbCircle
 10
68.8433
 20
422.453
 30
0
 40
8
100
AcDbArc
 50
0
 51
35.6591
  0
LINE
  5
B06
330
A02
100
AcDbEntity
  8
Shape2DView004
100
AcDbLine
 10
75.3433
 20
427.116
 30
0
 11
75.3433
 21
433.453
 31
0
  0
LINE
  5
B07
330
A02
100
AcDbEntity
  8
Shape2DView004
100
AcDbLine
 10
71.8433
 20
433.453
 30
0
 11
75.3433
 21
433.453
 31
0
  0
ARC
  5
B08
330
A02
100
AcDbEntity
  8
Shape2DView004
100
AcDbCircle
 10
75.3433
 20
433.453
 30
0
 40
3.5
100
AcDbArc
 50
90
 51
180
  0
LINE
  5
B09
330
A02
100
AcDbEntity
  8
Shape2DView004
100
AcDbLine
 10
75.3433
 20
436.953
 30
0
 11
77.556
 21
436.953
 31
0
  0
ARC
  5
B0A
330
A02
100
AcDbEntity
  8
Shape2DView004
100
AcDbCircle
 10
77.556
 20
432.953
 30
0
 40
4
100
AcDbArc
 50
18.3106
 51
90
  0
ARC
  5
B0B
330
A02
100
AcDbEntity
  8
Shape2DView004
100
AcDbCircle
 10
6.54253
 20
409.453
 30
0
 40
78.8008
100
AcDbArc
 50
6.94591
 51
18.3106
  0
CIRCLE
  5
B0C
330
A02
100
AcDbEntity
  8
Shape2DView004
100
AcDbCircle
 10
56.8433
 20
404.453
 40
1.5
  0
CIRCLE
  5
B0D
330
A02
100
AcDbEntity
  8
Shape2DView004
100
AcDbCircle
 10
55.0433
 20
409.453
 40
1.7
  0
CIRCLE
  5
B0E
330
A02
100
AcDbEntity
  8
Shape2DView004
100
AcDbCircle
 10
56.8433
 20
414.453
 40
1.5
  0
CIRCLE
  5
B0F
330
A02
100
AcDbEntity
  8
Shape2DView004
100
AcDbCircle
 10
80.8433
 20
404.453
 40
1.5
  0
CIRCLE
  5
B10
330
A02
100
AcDbEntity
  8
Shape2DView004
100
AcDbCircle
 10
82.6433
 20
409.453
 40
1.7
  0
CIRCLE
  5
B11
330
A02
100
AcDbEntity
  8
Shape2DView004
100
AcDbCircle
 10
80.8433
 20
414.453
 40
1.5
  0
CIRCLE
  5
B12
330
A02
100
AcDbEntity
  8
Shape2DView004
100
AcDbCircle
 10
59.3433
 20
428.453
 40
1.5
  0
CIRCLE
  5
B13
330
A02
100
AcDbEntity
  8
Shape2DView004
100
AcDbCircle
 10
78.3433
 20
428.453
 40
1.5
  0
ARC
  5
B14
330
A02
100
AcDbEntity
  8
Shape2DView005
100
AcDbCircle
 10
145.906
 20
420.433
 30
0
 40
12
100
AcDbArc
 50
-173.054
 51
-141.958
  0
ARC
  5
B15
330
A02
100
AcDbEntity
  8
Shape2DView005
100
AcDbCircle
 10
131.872
 20
409.453
 30
0
 40
5.81905
100
AcDbArc
 50
-42.5998
 51
38.0418
  0
ARC
  5
B16
330
A02
100
AcDbEntity
  8
Shape2DView005
100
AcDbCircle
 10
140.572
 20
401.453
 30
0
 40
6
100
AcDbArc
 50
137.4
 51
180
  0
LINE
  5
B17
330
A02
100
AcDbEntity
  8
Shape2DView005
100
AcDbLine
 10
134.572
 20
400.453
 30
0
 11
134.572
 21
401.453
 31
0
  0
LINE
  5
B18
330
A02
100
AcDbEntity
  8
Shape2DView005
100
AcDbLine
 10
101.572
 20
400.453
 30
0
 11
134.572
 21
400.453
 31
0
  0
LINE
  5
B19
330
A02
100
AcDbEntity
  8
Shape2DView005
100
AcDbLine
 10
101.572
 20
401.453
 30
0
 11
101.572
 21
400.453
 31
0
  0
ARC
  5
B1A
330
A02
100
AcDbEntity
  8
Shape2DView005
100
AcDbCircle
 10
95.5722
 20
401.453
 30
0
 40
6
100
AcDbArc
 50
0
 51
42.5998
  0
ARC
  5
B1B
330
A02
100
AcDbEntity
  8
Shape2DView005
100
AcDbCircle
 10
104.272
 20
409.453
 30
0
 40
5.81905
100
AcDbArc
 50
141.958
 51
-137.4
  0
ARC
  5
B1C
330
A02
100
AcDbEntity
  8
Shape2DView005
100
AcDbCircle
 10
90.2387
 20
420.433
 30
0
 40
12
100
AcDbArc
 50
-38.0418
 51
-6.94591
  0
ARC
  5
B1D
330
A02
100
AcDbEntity
  8
Shape2DView005
100
AcDbCircle
 10
180.373
 20
409.453
 30
0
 40
78.8008
100
AcDbArc
 50
161.689
 51
173.054
  0
ARC
  5
B1E
330
A02
100
AcDbEntity
  8
Shape2DView005
100
AcDbCircle
 10
109.36
 20
432.953
 30
0
 40
4
100
AcDbArc
 50
90
 51
161.689
  0
LINE
  5
B1F
330
A02
100
AcDbEntity
  8
Shape2DView005
100
AcDbLine
 10
109.36
 20
436.953
 30
0
 11
111.572
 21
436.953
 31
0
  0
ARC
  5
B20
330
A02
100
AcDbEntity
  8
Shape2DView005
100
AcDbCircle
 10
111.572
 20
433.453
 30
0
 40
3.5
100
AcDbArc
 50
0
 51
90
  0
LINE
  5
B21
330
A02
100
AcDbEntity
  8
Shape2DView005
100
AcDbLine
 10
111.572
 20
433.453
 30
0
 11
115.072
 21
433.453
 31
0
  0
LINE
  5
B22
330
A02
100
AcDbEntity
  8
Shape2DView005
100
AcDbLine
 10
111.572
 20
433.453
 30
0
 11
111.572
 21
426.953
 31
0
  0
LINE
  5
B23
330
A02
100
AcDbEntity
  8
Shape2DView005
100
AcDbLine
 10
111.572
 20
426.953
 30
0
 11
112.672
 21
425.853
 31
0
  0
LINE
  5
B24
330
A02
100
AcDbEntity
  8
Shape2DView005
100
AcDbLine
 10
112.672
 20
425.853
 30
0
 11
112.672
 21
422.953
 31
0
  0
LINE
  5
B25
330
A02
100
AcDbEntity
  8
Shape2DView005
100
AcDbLine
 10
112.672
 20
422.953
 30
0
 11
116.072
 21
422.953
 31
0
  0
LINE
  5
B26
330
A02
100
AcDbEntity
  8
Shape2DView005
100
AcDbLine
 10
116.072
 20
422.953
 30
0
 11
116.072
 21
411.453
 31
0
  0
ARC
  5
B27
330
A02
100
AcDbEntity
  8
Shape2DView005
100
AcDbCircle
 10
118.072
 20
411.453
 30
0
 40
2
100
AcDbArc
 50
180
 51
1.93785e-10
  0
LINE
  5
B28
330
A02
100
AcDbEntity
  8
Shape2DView005
100
AcDbLine
 10
120.072
 20
411.453
 30
0
 11
120.072
 21
422.953
 31
0
  0
LINE
  5
B29
330
A02
100
AcDbEntity
  8
Shape2DView005
100
AcDbLine
 10
120.072
 20
422.953
 30
0
 11
123.472
 21
422.953
 31
0
  0
LINE
  5
B2A
330
A02
100
AcDbEntity
  8
Shape2DView005
100
AcDbLine
 10
123.472
 20
422.953
 30
0
 11
123.472
 21
425.853
 31
0
  0
LINE
  5
B2B
330
A02
100
AcDbEntity
  8
Shape2DView005
100
AcDbLine
 10
123.472
 20
425.853
 30
0
 11
124.572
 21
426.953
 31
0
  0
LINE
  5
B2C
330
A02
100
AcDbEntity
  8
Shape2DView005
100
AcDbLine
 10
124.572
 20
426.953
 30
0
 11
124.572
 21
433.453
 31
0
  0
LINE
  5
B2D
330
A02
100
AcDbEntity
  8
Shape2DView005
100
AcDbLine
 10
121.072
 20
433.453
 30
0
 11
124.572
 21
433.453
 31
0
  0
ARC
  5
B2E
330
A02
100
AcDbEntity
  8
Shape2DView005
100
AcDbCircle
 10
124.572
 20
433.453
 30
0
 40
3.5
100
AcDbArc
 50
90
 51
180
  0
LINE
  5
B2F
330
A02
100
AcDbEntity
  8
Shape2DView005
100
AcDbLine
 10
124.572
 20
436.953
 30
0
 11
126.785
 21
436.953
 31
0
  0
ARC
  5
B30
330
A02
100
AcDbEntity
  8
Shape2DView005
100
AcDbCircle
 10
126.785
 20
432.953
 30
0
 40
4
100
AcDbArc
 50
18.3106
 51
90
  0
ARC
  5
B31
330
A02
100
AcDbEntity
  8
Shape2DView005
100
AcDbCircle
 10
55.7714
 20
409.453
 30
0
 40
78.8008
100
AcDbArc
 50
6.94591
 51
18.3106
  0
CIRCLE
  5
B32
330
A02
100
AcDbEntity
  8
Shape2DView005
100
AcDbCircle
 10
106.072
 20
404.453
 40
1.5
  0
CIRCLE
  5
B33
330
A02
100
AcDbEntity
  8
Shape2DView005
100
AcDbCircle
 10
104.272
 20
409.453
 40
1.7
  0
CIRCLE
  5
B34
330
A02
100
AcDbEntity
  8
Shape2DView005
100
AcDbCircle
 10
106.072
 20
414.453
 40
1.5
  0
LINE
  5
B35
330
A02
100
AcDbEntity
  8
Shape2DView005
100
AcDbLine
 10
109.072
 20
402.753
 30
0
 11
109.072
 21
420.953
 31
0
  0
LINE
  5
B36
330
A02
100
AcDbEntity
  8
Shape2DView005
100
AcDbLine
 10
111.822
 20
402.753
 30
0
 11
109.072
 21
402.753
 31
0
  0
LINE
  5
B37
330
A02
100
AcDbEntity
  8
Shape2DView005
100
AcDbLine
 10
109.072
 20
420.953
 30
0
 11
111.822
 21
420.953
 31
0
  0
LINE
  5
B38
330
A02
100
AcDbEntity
  8
Shape2DView005
100
AcDbLine
 10
111.822
 20
420.953
 30
0
 11
111.822
 21
402.753
 31
0
  0
CIRCLE
  5
B39
330
A02
100
AcDbEntity
  8
Shape2DView005
100
AcDbCircle
 10
130.072
 20
404.453
 40
1.5
  0
CIRCLE
  5
B3A
330
A02
100
AcDbEntity
  8
Shape2DView005
100
AcDbCircle
 10
131.872
 20
409.453
 40
1.7
  0
LINE
  5
B3B
330
A02
100
AcDbEntity
  8
Shape2DView005
100
AcDbLine
 10
124.322
 20
402.753
 30
0
 11
124.322
 21
420.953
 31
0
  0
LINE
  5
B3C
330
A02
100
AcDbEntity
  8
Shape2DView005
100
AcDbLine
 10
127.072
 20
402.753
 30
0
 11
124.322
 21
402.753
 31
0
  0
LINE
  5
B3D
330
A02
100
AcDbEntity
  8
Shape2DView005
100
AcDbLine
 10
124.322
 20
420.953
 30
0
 11
127.072
 21
420.953
 31
0
  0
LINE
  5
B3E
330
A02
100
AcDbEntity
  8
Shape2DView005
100
AcDbLine
 10
127.072
 20
420.953
 30
0
 11
127.072
 21
402.753
 31
0
  0
CIRCLE
  5
B3F
330
A02
100
AcDbEntity
  8
Shape2DView005
100
AcDbCircle
 10
130.072
 20
414.453
 40
1.5
  0
CIRCLE
  5
B40
330
A02
100
AcDbEntity
  8
Shape2DView005
100
AcDbCircle
 10
108.572
 20
428.453
 40
1.5
  0
CIRCLE
  5
B41
330
A02
100
AcDbEntity
  8
Shape2DView005
100
AcDbCircle
 10
127.572
 20
428.453
 40
1.5
  0
ARC
  5
B42
330
A02
100
AcDbEntity
  8
Shape2DView006
100
AcDbCircle
 10
-42.6864
 20
819.405
 30
0
 40
78.8008
100
AcDbArc
 50
6.94591
 51
18.3106
  0
ARC
  5
B43
330
A02
100
AcDbEntity
  8
Shape2DView006
100
AcDbCircle
 10
47.448
 20
830.386
 30
0
 40
12
100
AcDbArc
 50
-173.054
 51
-141.958
  0
ARC
  5
B44
330
A02
100
AcDbEntity
  8
Shape2DView006
100
AcDbCircle
 10
33.4144
 20
819.405
 30
0
 40
5.81905
100
AcDbArc
 50
-42.5998
 51
38.0418
  0
ARC
  5
B45
330
A02
100
AcDbEntity
  8
Shape2DView006
100
AcDbCircle
 10
42.1144
 20
811.405
 30
0
 40
6
100
AcDbArc
 50
137.4
 51
180
  0
LINE
  5
B46
330
A02
100
AcDbEntity
  8
Shape2DView006
100
AcDbLine
 10
36.1144
 20
810.405
 30
0
 11
36.1144
 21
811.405
 31
0
  0
LINE
  5
B47
330
A02
100
AcDbEntity
  8
Shape2DView006
100
AcDbLine
 10
26.1144
 20
810.405
 30
0
 11
36.1144
 21
810.405
 31
0
  0
LINE
  5
B48
330
A02
100
AcDbEntity
  8
Shape2DView006
100
AcDbLine
 10
26.1144
 20
812.705
 30
0
 11
26.1144
 21
810.405
 31
0
  0
LINE
  5
B49
330
A02
100
AcDbEntity
  8
Shape2DView006
100
AcDbLine
 10
28.6144
 20
812.705
 30
0
 11
26.1144
 21
812.705
 31
0
  0
LINE
  5
B4A
330
A02
100
AcDbEntity
  8
Shape2DView006
100
AcDbLine
 10
28.6144
 20
830.905
 30
0
 11
28.6144
 21
812.705
 31
0
  0
LINE
  5
B4B
330
A02
100
AcDbEntity
  8
Shape2DView006
100
AcDbLine
 10
25.8644
 20
830.905
 30
0
 11
28.6144
 21
830.905
 31
0
  0
LINE
  5
B4C
330
A02
100
AcDbEntity
  8
Shape2DView006
100
AcDbLine
 10
25.8644
 20
825.405
 30
0
 11
25.8644
 21
830.905
 31
0
  0
LINE
  5
B4D
330
A02
100
AcDbEntity
  8
Shape2DView006
100
AcDbLine
 10
13.3644
 20
825.405
 30
0
 11
25.8644
 21
825.405
 31
0
  0
LINE
  5
B4E
330
A02
100
AcDbEntity
  8
Shape2DView006
100
AcDbLine
 10
13.3644
 20
830.905
 30
0
 11
13.3644
 21
825.405
 31
0
  0
LINE
  5
B4F
330
A02
100
AcDbEntity
  8
Shape2DView006
100
AcDbLine
 10
10.6144
 20
830.905
 30
0
 11
13.3644
 21
830.905
 31
0
  0
LINE
  5
B50
330
A02
100
AcDbEntity
  8
Shape2DView006
100
AcDbLine
 10
10.6144
 20
812.705
 30
0
 11
10.6144
 21
830.905
 31
0
  0
LINE
  5
B51
330
A02
100
AcDbEntity
  8
Shape2DView006
100
AcDbLine
 10
13.1144
 20
812.705
 30
0
 11
10.6144
 21
812.705
 31
0
  0
LINE
  5
B52
330
A02
100
AcDbEntity
  8
Shape2DView006
100
AcDbLine
 10
13.1144
 20
810.405
 30
0
 11
13.1144
 21
812.705
 31
0
  0
LINE
  5
B53
330
A02
100
AcDbEntity
  8
Shape2DView006
100
AcDbLine
 10
3.11445
 20
810.405
 30
0
 11
13.1144
 21
810.405
 31
0
  0
LINE
  5
B54
330
A02
100
AcDbEntity
  8
Shape2DView006
100
AcDbLine
 10
3.11445
 20
811.405
 30
0
 11
3.11445
 21
810.405
 31
0
  0
ARC
  5
B55
330
A02
100
AcDbEntity
  8
Shape2DView006
100
AcDbCircle
 10
-2.88555
 20
811.405
 30
0
 40
6
100
AcDbArc
 50
0
 51
42.5998
  0
ARC
  5
B56
330
A02
100
AcDbEntity
  8
Shape2DView006
100
AcDbCircle
 10
5.81445
 20
819.405
 30
0
 40
5.81905
100
AcDbArc
 50
141.958
 51
-137.4
  0
ARC
  5
B57
330
A02
100
AcDbEntity
  8
Shape2DView006
100
AcDbCircle
 10
-8.21914
 20
830.386
 30
0
 40
12
100
AcDbArc
 50
-38.0418
 51
-6.94591
  0
ARC
  5
B58
330
A02
100
AcDbEntity
  8
Shape2DView006
100
AcDbCircle
 10
81.9153
 20
819.405
 30
0
 40
78.8008
100
AcDbArc
 50
161.689
 51
173.054
  0
ARC
  5
B59
330
A02
100
AcDbEntity
  8
Shape2DView006
100
AcDbCircle
 10
10.9018
 20
842.905
 30
0
 40
4
100
AcDbArc
 50
90
 51
161.689
  0
LINE
  5
B5A
330
A02
100
AcDbEntity
  8
Shape2DView006
100
AcDbLine
 10
10.9018
 20
846.905
 30
0
 11
28.3271
 21
846.905
 31
0
  0
ARC
  5
B5B
330
A02
100
AcDbEntity
  8
Shape2DView006
100
AcDbCircle
 10
28.3271
 20
842.905
 30
0
 40
4
100
AcDbArc
 50
18.3106
 51
90
  0
CIRCLE
  5
B5C
330
A02
100
AcDbEntity
  8
Shape2DView006
100
AcDbCircle
 10
7.61445
 20
814.405
 40
1.5
  0
CIRCLE
  5
B5D
330
A02
100
AcDbEntity
  8
Shape2DView006
100
AcDbCircle
 10
5.81445
 20
819.405
 40
1.7
  0
CIRCLE
  5
B5E
330
A02
100
AcDbEntity
  8
Shape2DView006
100
AcDbCircle
 10
7.61445
 20
824.405
 40
1.5
  0
CIRCLE
  5
B5F
330
A02
100
AcDbEntity
  8
Shape2DView006
100
AcDbCircle
 10
31.6144
 20
814.405
 40
1.5
  0
CIRCLE
  5
B60
330
A02
100
AcDbEntity
  8
Shape2DView006
100
AcDbCircle
 10
33.4144
 20
819.405
 40
1.7
  0
CIRCLE
  5
B61
330
A02
100
AcDbEntity
  8
Shape2DView006
100
AcDbCircle
 10
31.6144
 20
824.405
 40
1.5
  0
CIRCLE
  5
B62
330
A02
100
AcDbEntity
  8
Shape2DView006
100
AcDbCircle
 10
10.1144
 20
838.405
 40
1.5
  0
CIRCLE
  5
B63
330
A02
100
AcDbEntity
  8
Shape2DView006
100
AcDbCircle
 10
29.1144
 20
838.405
 40
1.5
  0
LINE
  5
B64
330
A02
100
AcDbEntity
  8
Shape2DView007
100
AcDbLine
 10
68.8433
 20
810.405
 30
0
 11
68.8433
 21
846.905
 31
0
  0
LINE
  5
B65
330
A02
100
AcDbEntity
  8
Shape2DView007
100
AcDbLine
 10
52.3433
 20
810.405
 30
0
 11
68.8433
 21
810.405
 31
0
  0
LINE
  5
B66
330
A02
100
AcDbEntity
  8
Shape2DView007
100
AcDbLine
 10
52.3433
 20
811.405
 30
0
 11
52.3433
 21
810.405
 31
0
  0
ARC
  5
B67
330
A02
100
AcDbEntity
  8
Shape2DView007
100
AcDbCircle
 10
46.3433
 20
811.405
 30
0
 40
6
100
AcDbArc
 50
0
 51
42.5998
  0
ARC
  5
B68
330
A02
100
AcDbEntity
  8
Shape2DView007
100
AcDbCircle
 10
55.0433
 20
819.405
 30
0
 40
5.81905
100
AcDbArc
 50
141.958
 51
-137.4
  0
ARC
  5
B69
330
A02
100
AcDbEntity
  8
Shape2DView007
100
AcDbCircle
 10
41.0098
 20
830.386
 30
0
 40
12
100
AcDbArc
 50
-38.0418
 51
-6.94591
  0
ARC
  5
B6A
330
A02
100
AcDbEntity
  8
Shape2DView007
100
AcDbCircle
 10
131.144
 20
819.405
 30
0
 40
78.8008
100
AcDbArc
 50
161.689
 51
173.054
  0
ARC
  5
B6B
330
A02
100
AcDbEntity
  8
Shape2DView007
100
AcDbCircle
 10
60.1307
 20
842.905
 30
0
 40
4
100
AcDbArc
 50
90
 51
161.689
  0
LINE
  5
B6C
330
A02
100
AcDbEntity
  8
Shape2DView007
100
AcDbLine
 10
60.1307
 20
846.905
 30
0
 11
68.8433
 21
846.905
 31
0
  0
CIRCLE
  5
B6D
330
A02
100
AcDbEntity
  8
Shape2DView007
100
AcDbCircle
 10
56.8433
 20
814.405
 40
1.5
  0
CIRCLE
  5
B6E
330
A02
100
AcDbEntity
  8
Shape2DView007
100
AcDbCircle
 10
55.0433
 20
819.405
 40
1.7
  0
CIRCLE
  5
B6F
330
A02
100
AcDbEntity
  8
Shape2DView007
100
AcDbCircle
 10
56.8433
 20
824.405
 40
1.5
  0
CIRCLE
  5
B70
330
A02
100
AcDbEntity
  8
Shape2DView007
100
AcDbCircle
 10
59.3433
 20
838.405
 40
1.5
  0
LINE
  5
B71
330
A02
100
AcDbEntity
  8
Shape2DView008
100
AcDbLine
 10
98.4578
 20
810.405
 30
0
 11
98.4578
 21
846.905
 31
0
  0
LINE
  5
B72
330
A02
100
AcDbEntity
  8
Shape2DView008
100
AcDbLine
 10
81.9578
 20
810.405
 30
0
 11
98.4578
 21
810.405
 31
0
  0
LINE
  5
B73
330
A02
100
AcDbEntity
  8
Shape2DView008
100
AcDbLine
 10
81.9578
 20
811.405
 30
0
 11
81.9578
 21
810.405
 31
0
  0
ARC
  5
B74
330
A02
100
AcDbEntity
  8
Shape2DView008
100
AcDbCircle
 10
75.9578
 20
811.405
 30
0
 40
6
100
AcDbArc
 50
0
 51
42.5998
  0
ARC
  5
B75
330
A02
100
AcDbEntity
  8
Shape2DView008
100
AcDbCircle
 10
84.6578
 20
819.405
 30
0
 40
5.81905
100
AcDbArc
 50
141.958
 51
-137.4
  0
ARC
  5
B76
330
A02
100
AcDbEntity
  8
Shape2DView008
100
AcDbCircle
 10
70.6242
 20
830.386
 30
0
 40
12
100
AcDbArc
 50
-38.0418
 51
-6.94591
  0
ARC
  5
B77
330
A02
100
AcDbEntity
  8
Shape2DView008
100
AcDbCircle
 10
160.759
 20
819.405
 30
0
 40
78.8008
100
AcDbArc
 50
161.689
 51
173.054
  0
ARC
  5
B78
330
A02
100
AcDbEntity
  8
Shape2DView008
100
AcDbCircle
 10
89.7452
 20
842.905
 30
0
 40
4
100
AcDbArc
 50
90
 51
161.689
  0
LINE
  5
B79
330
A02
100
AcDbEntity
  8
Shape2DView008
100
AcDbLine
 10
89.7452
 20
846.905
 30
0
 11
98.4578
 21
846.905
 31
0
  0
CIRCLE
  5
B7A
330
A02
100
AcDbEntity
  8
Shape2DView008
100
AcDbCircle
 10
86.4578
 20
814.405
 40
1.5
  0
CIRCLE
  5
B7B
330
A02
100
AcDbEntity
  8
Shape2DView008
100
AcDbCircle
 10
84.6578
 20
819.405
 40
1.7
  0
CIRCLE
  5
B7C
330
A02
100
AcDbEntity
  8
Shape2DView008
100
AcDbCircle
 10
86.4578
 20
824.405
 40
1.5
  0
CIRCLE
  5
B7D
330
A02
100
AcDbEntity
  8
Shape2DView008
100
AcDbCircle
 10
88.9578
 20
838.405
 40
1.5
  0
LINE
  5
B7E
330
A02
100
AcDbEntity
  8
Shape2DView009
100
AcDbLine
 10
3.10832
 20
856.905
 30
0
 11
13.6083
 21
856.905
 31
0
  0
LINE
  5
B7F
330
A02
100
AcDbEntity
  8
Shape2DView009
100
AcDbLine
 10
3.10832
 20
857.905
 30
0
 11
3.10832
 21
856.905
 31
0
  0
ARC
  5
B80
330
A02
100
AcDbEntity
  8
Shape2DView009
100
AcDbCircle
 10
-2.89168
 20
857.905
 30
0
 40
6
100
AcDbArc
 50
0
 51
42.5998
  0
ARC
  5
B81
330
A02
100
AcDbEntity
  8
Shape2DView009
100
AcDbCircle
 10
5.80832
 20
865.905
 30
0
 40
5.81905
100
AcDbArc
 50
141.958
 51
-137.4
  0
ARC
  5
B82
330
A02
100
AcDbEntity
  8
Shape2DView009
100
AcDbCircle
 10
-8.22528
 20
876.886
 30
0
 40
12
100
AcDbArc
 50
-38.0418
 51
-6.94591
  0
ARC
  5
B83
330
A02
100
AcDbEntity
  8
Shape2DView009
100
AcDbCircle
 10
7.6573
 20
874.951
 30
0
 40
4
100
AcDbArc
 50
90
 51
173.054
  0
LINE
  5
B84
330
A02
100
AcDbEntity
  8
Shape2DView009
100
AcDbLine
 10
10.6083
 20
878.951
 30
0
 11
7.6573
 21
878.951
 31
0
  0
ARC
  5
B85
330
A02
100
AcDbEntity
  8
Shape2DView009
100
AcDbCircle
 10
10.6083
 20
875.951
 30
0
 40
3
100
AcDbArc
 50
0
 51
90
  0
LINE
  5
B86
330
A02
100
AcDbEntity
  8
Shape2DView009
100
AcDbLine
 10
13.6083
 20
875.951
 30
0
 11
13.6083
 21
856.905
 31
0
  0
CIRCLE
  5
B87
330
A02
100
AcDbEntity
  8
Shape2DView009
100
AcDbCircle
 10
5.80832
 20
865.905
 40
1.7
  0
CIRCLE
  5
B88
330
A02
100
AcDbEntity
  8
Shape2DView009
100
AcDbCircle
 10
7.60832
 20
860.905
 40
1.5
  0
CIRCLE
  5
B89
330
A02
100
AcDbEntity
  8
Shape2DView009
100
AcDbCircle
 10
7.60832
 20
870.905
 40
1.5
  0
LINE
  5
B8A
330
A02
100
AcDbEntity
  8
Shape2DView010
100
AcDbLine
 10
26.7166
 20
856.905
 30
0
 11
37.2166
 21
856.905
 31
0
  0
LINE
  5
B8B
330
A02
100
AcDbEntity
  8
Shape2DView010
100
AcDbLine
 10
26.7166
 20
857.905
 30
0
 11
26.7166
 21
856.905
 31
0
  0
ARC
  5
B8C
330
A02
100
AcDbEntity
  8
Shape2DView010
100
AcDbCircle
 10
20.7166
 20
857.905
 30
0
 40
6
100
AcDbArc
 50
0
 51
42.5998
  0
ARC
  5
B8D
330
A02
100
AcDbEntity
  8
Shape2DView010
100
AcDbCircle
 10
29.4166
 20
865.905
 30
0
 40
5.81905
100
AcDbArc
 50
141.958
 51
-137.4
  0
ARC
  5
B8E
330
A02
100
AcDbEntity
  8
Shape2DView010
100
AcDbCircle
 10
15.383
 20
876.886
 30
0
 40
12
100
AcDbArc
 50
-38.0418
 51
-6.94591
  0
ARC
  5
B8F
330
A02
100
AcDbEntity
  8
Shape2DView010
100
AcDbCircle
 10
31.2656
 20
874.951
 30
0
 40
4
100
AcDbArc
 50
90
 51
173.054
  0
LINE
  5
B90
330
A02
100
AcDbEntity
  8
Shape2DView010
100
AcDbLine
 10
34.2166
 20
878.951
 30
0
 11
31.2656
 21
878.951
 31
0
  0
ARC
  5
B91
330
A02
100
AcDbEntity
  8
Shape2DView010
100
AcDbCircle
 10
34.2166
 20
875.951
 30
0
 40
3
100
AcDbArc
 50
0
 51
90
  0
LINE
  5
B92
330
A02
100
AcDbEntity
  8
Shape2DView010
100
AcDbLine
 10
37.2166
 20
875.951
 30
0
 11
37.2166
 21
856.905
 31
0
  0
CIRCLE
  5
B93
330
A02
100
AcDbEntity
  8
Shape2DView010
100
AcDbCircle
 10
29.4166
 20
865.905
 40
1.7
  0
CIRCLE
  5
B94
330
A02
100
AcDbEntity
  8
Shape2DView010
100
AcDbCircle
 10
31.2166
 20
860.905
 40
1.5
  0
CIRCLE
  5
B95
330
A02
100
AcDbEntity
  8
Shape2DView010
100
AcDbCircle
 10
31.2166
 20
870.905
 40
1.5
  0
ARC
  5
B96
330
A02
100
AcDbEntity
  8
Shape2DView011
100
AcDbCircle
 10
94.6647
 20
876.886
 30
0
 40
12
100
AcDbArc
 50
-173.054
 51
-141.958
  0
ARC
  5
B97
330
A02
100
AcDbEntity
  8
Shape2DView011
100
AcDbCircle
 10
80.6311
 20
865.905
 30
0
 40
5.81905
100
AcDbArc
 50
-42.5998
 51
38.0418
  0
ARC
  5
B98
330
A02
100
AcDbEntity
  8
Shape2DView011
100
AcDbCircle
 10
89.3311
 20
857.905
 30
0
 40
6
100
AcDbArc
 50
137.4
 51
180
  0
LINE
  5
B99
330
A02
100
AcDbEntity
  8
Shape2DView011
100
AcDbLine
 10
83.3311
 20
856.905
 30
0
 11
83.3311
 21
857.905
 31
0
  0
LINE
  5
B9A
330
A02
100
AcDbEntity
  8
Shape2DView011
100
AcDbLine
 10
50.3311
 20
856.905
 30
0
 11
83.3311
 21
856.905
 31
0
  0
LINE
  5
B9B
330
A02
100
AcDbEntity
  8
Shape2DView011
100
AcDbLine
 10
50.3311
 20
857.905
 30
0
 11
50.3311
 21
856.905
 31
0
  0
ARC
  5
B9C
330
A02
100
AcDbEntity
  8
Shape2DView011
100
AcDbCircle
 10
44.3311
 20
857.905
 30
0
 40
6
100
AcDbArc
 50
0
 51
42.5998
  0
ARC
  5
B9D
330
A02
100
AcDbEntity
  8
Shape2DView011
100
AcDbCircle
 10
53.0311
 20
865.905
 30
0
 40
5.81905
100
AcDbArc
 50
141.958
 51
-137.4
  0
ARC
  5
B9E
330
A02
100
AcDbEntity
  8
Shape2DView011
100
AcDbCircle
 10
38.9975
 20
876.886
 30
0
 40
12
100
AcDbArc
 50
-38.0418
 51
-6.94591
  0
ARC
  5
B9F
330
A02
100
AcDbEntity
  8
Shape2DView011
100
AcDbCircle
 10
129.132
 20
865.905
 30
0
 40
78.8008
100
AcDbArc
 50
161.689
 51
173.054
  0
ARC
  5
BA0
330
A02
100
AcDbEntity
  8
Shape2DView011
100
AcDbCircle
 10
58.1184
 20
889.405
 30
0
 40
4
100
AcDbArc
 50
90
 51
161.689
  0
LINE
  5
BA1
330
A02
100
AcDbEntity
  8
Shape2DView011
100
AcDbLine
 10
58.1184
 20
893.405
 30
0
 11
75.5437
 21
893.405
 31
0
  0
ARC
  5
BA2
330
A02
100
AcDbEntity
  8
Shape2DView011
100
AcDbCircle
 10
75.5437
 20
889.405
 30
0
 40
4
100
AcDbArc
 50
18.3106
 51
90
  0
ARC
  5
BA3
330
A02
100
AcDbEntity
  8
Shape2DView011
100
AcDbCircle
 10
4.53027
 20
865.905
 30
0
 40
78.8008
100
AcDbArc
 50
6.94591
 51
18.3106
  0
CIRCLE
  5
BA4
330
A02
100
AcDbEntity
  8
Shape2DView011
100
AcDbCircle
 10
54.8311
 20
860.905
 40
1.5
  0
CIRCLE
  5
BA5
330
A02
100
AcDbEntity
  8
Shape2DView011
100
AcDbCircle
 10
53.0311
 20
865.905
 40
1.7
  0
CIRCLE
  5
BA6
330
A02
100
AcDbEntity
  8
Shape2DView011
100
AcDbCircle
 10
54.8311
 20
870.905
 40
1.5
  0
CIRCLE
  5
BA7
330
A02
100
AcDbEntity
  8
Shape2DView011
100
AcDbCircle
 10
78.8311
 20
860.905
 40
1.5
  0
CIRCLE
  5
BA8
330
A02
100
AcDbEntity
  8
Shape2DView011
100
AcDbCircle
 10
80.6311
 20
865.905
 40
1.7
  0
CIRCLE
  5
BA9
330
A02
100
AcDbEntity
  8
Shape2DView011
100
AcDbCircle
 10
78.8311
 20
870.905
 40
1.5
  0
CIRCLE
  5
BAA
330
A02
100
AcDbEntity
  8
Shape2DView011
100
AcDbCircle
 10
57.3311
 20
884.905
 40
1.5
  0
CIRCLE
  5
BAB
330
A02
100
AcDbEntity
  8
Shape2DView011
100
AcDbCircle
 10
76.3311
 20
884.905
 40
1.5
  0
ARC
  5
BAC
330
A02
100
AcDbEntity
  8
Shape2DView012
100
AcDbCircle
 10
47.448
 20
923.386
 30
0
 40
12
100
AcDbArc
 50
-154.132
 51
-141.958
  0
ARC
  5
BAD
330
A02
100
AcDbEntity
  8
Shape2DView012
100
AcDbCircle
 10
33.0512
 20
916.405
 30
0
 40
4
100
AcDbArc
 50
25.8679
 51
90
  0
ARC
  5
BAE
330
A02
100
AcDbEntity
  8
Shape2DView012
100
AcDbCircle
 10
33.4144
 20
912.405
 30
0
 40
5.81905
100
AcDbArc
 50
-42.5998
 51
38.0418
  0
LINE
  5
BAF
330
A02
100
AcDbEntity
  8
Shape2DView012
100
AcDbLine
 10
6.1777
 20
920.405
 30
0
 11
33.0512
 21
920.405
 31
0
  0
ARC
  5
BB0
330
A02
100
AcDbEntity
  8
Shape2DView012
100
AcDbCircle
 10
42.1144
 20
904.405
 30
0
 40
6
100
AcDbArc
 50
137.4
 51
180
  0
LINE
  5
BB1
330
A02
100
AcDbEntity
  8
Shape2DView012
100
AcDbLine
 10
36.1144
 20
903.405
 30
0
 11
36.1144
 21
904.405
 31
0
  0
ARC
  5
BB2
330
A02
100
AcDbEntity
  8
Shape2DView012
100
AcDbCircle
 10
6.1777
 20
916.405
 30
0
 40
4
100
AcDbArc
 50
90
 51
154.132
  0
LINE
  5
BB3
330
A02
100
AcDbEntity
  8
Shape2DView012
100
AcDbLine
 10
3.11445
 20
903.405
 30
0
 11
36.1144
 21
903.405
 31
0
  0
ARC
  5
BB4
330
A02
100
AcDbEntity
  8
Shape2DView012
100
AcDbCircle
 10
-8.21914
 20
923.386
 30
0
 40
12
100
AcDbArc
 50
-38.0418
 51
-25.8679
  0
LINE
  5
BB5
330
A02
100
AcDbEntity
  8
Shape2DView012
100
AcDbLine
 10
3.11445
 20
904.405
 30
0
 11
3.11445
 21
903.405
 31
0
  0
ARC
  5
BB6
330
A02
100
AcDbEntity
  8
Shape2DView012
100
AcDbCircle
 10
5.81445
 20
912.405
 30
0
 40
5.81905
100
AcDbArc
 50
141.958
 51
-137.4
  0
ARC
  5
BB7
330
A02
100
AcDbEntity
  8
Shape2DView012
100
AcDbCircle
 10
-2.88555
 20
904.405
 30
0
 40
6
100
AcDbArc
 50
0
 51
42.5998
  0
CIRCLE
  5
BB8
330
A02
100
AcDbEntity
  8
Shape2DView012
100
AcDbCircle
 10
7.61445
 20
907.405
 40
1.5
  0
CIRCLE
  5
BB9
330
A02
100
AcDbEntity
  8
Shape2DView012
100
AcDbCircle
 10
31.6144
 20
907.405
 40
1.5
  0
LINE
  5
BBA
330
A02
100
AcDbEntity
  8
Shape2DView012
100
AcDbLine
 10
8.61445
 20
910.789
 30
0
 11
8.61445
 21
914.022
 31
0
  0
LINE
  5
BBB
330
A02
100
AcDbEntity
  8
Shape2DView012
100
AcDbLine
 10
8.61445
 20
914.022
 30
0
 11
5.81445
 21
915.638
 31
0
  0
LINE
  5
BBC
330
A02
100
AcDbEntity
  8
Shape2DView012
100
AcDbLine
 10
5.81445
 20
915.638
 30
0
 11
3.01445
 21
914.022
 31
0
  0
LINE
  5
BBD
330
A02
100
AcDbEntity
  8
Shape2DView012
100
AcDbLine
 10
3.01445
 20
914.022
 30
0
 11
3.01445
 21
910.789
 31
0
  0
LINE
  5
BBE
330
A02
100
AcDbEntity
  8
Shape2DView012
100
AcDbLine
 10
3.01445
 20
910.789
 30
0
 11
5.81445
 21
909.172
 31
0
  0
LINE
  5
BBF
330
A02
100
AcDbEntity
  8
Shape2DView012
100
AcDbLine
 10
5.81445
 20
909.172
 30
0
 11
8.61445
 21
910.789
 31
0
  0
CIRCLE
  5
BC0
330
A02
100
AcDbEntity
  8
Shape2DView012
100
AcDbCircle
 10
7.61445
 20
917.405
 40
1.5
  0
LINE
  5
BC1
330
A02
100
AcDbEntity
  8
Shape2DView012
100
AcDbLine
 10
36.2144
 20
910.789
 30
0
 11
36.2144
 21
914.022
 31
0
  0
LINE
  5
BC2
330
A02
100
AcDbEntity
  8
Shape2DView012
100
AcDbLine
 10
36.2144
 20
914.022
 30
0
 11
33.4144
 21
915.638
 31
0
  0
LINE
  5
BC3
330
A02
100
AcDbEntity
  8
Shape2DView012
100
AcDbLine
 10
33.4144
 20
915.638
 30
0
 11
30.6144
 21
914.022
 31
0
  0
LINE
  5
BC4
330
A02
100
AcDbEntity
  8
Shape2DView012
100
AcDbLine
 10
30.6144
 20
914.022
 30
0
 11
30.6144
 21
910.789
 31
0
  0
LINE
  5
BC5
330
A02
100
AcDbEntity
  8
Shape2DView012
100
AcDbLine
 10
30.6144
 20
910.789
 30
0
 11
33.4144
 21
909.172
 31
0
  0
LINE
  5
BC6
330
A02
100
AcDbEntity
  8
Shape2DView012
100
AcDbLine
 10
33.4144
 20
909.172
 30
0
 11
36.2144
 21
910.789
 31
0
  0
CIRCLE
  5
BC7
330
A02
100
AcDbEntity
  8
Shape2DView012
100
AcDbCircle
 10
31.6144
 20
917.405
 40
1.5
  0
ARC
  5
BC8
330
A02
100
AcDbEntity
  8
Shape2DView013
100
AcDbCircle
 10
96.6769
 20
1035.89
 30
0
 40
12
100
AcDbArc
 50
-154.132
 51
-141.958
  0
ARC
  5
BC9
330
A02
100
AcDbEntity
  8
Shape2DView013
100
AcDbCircle
 10
82.6433
 20
1024.91
 30
0
 40
5.81905
100
AcDbArc
 50
-42.5998
 51
38.0418
  0
ARC
  5
BCA
330
A02
100
AcDbEntity
  8
Shape2DView013
100
AcDbCircle
 10
91.3433
 20
1016.91
 30
0
 40
6
100
AcDbArc
 50
137.4
 51
180
  0
LINE
  5
BCB
330
A02
100
AcDbEntity
  8
Shape2DView013
100
AcDbLine
 10
85.3433
 20
1005.41
 30
0
 11
85.3433
 21
1016.91
 31
0
  0
LINE
  5
BCC
330
A02
100
AcDbEntity
  8
Shape2DView013
100
AcDbLine
 10
85.3433
 20
1005.41
 30
0
 11
81.5433
 21
1005.41
 31
0
  0
ARC
  5
BCD
330
A02
100
AcDbEntity
  8
Shape2DView013
100
AcDbCircle
 10
81.3433
 20
1005.41
 30
0
 40
0.2
100
AcDbArc
 50
-2.9312e-10
 51
-90
  0
LINE
  5
BCE
330
A02
100
AcDbEntity
  8
Shape2DView013
100
AcDbLine
 10
81.3433
 20
1005.21
 30
0
 11
81.3433
 21
988.605
 31
0
  0
ARC
  5
BCF
330
A02
100
AcDbEntity
  8
Shape2DView013
100
AcDbCircle
 10
81.3433
 20
988.405
 30
0
 40
0.2
100
AcDbArc
 50
90
 51
2.9312e-10
  0
LINE
  5
BD0
330
A02
100
AcDbEntity
  8
Shape2DView013
100
AcDbLine
 10
81.5433
 20
988.405
 30
0
 11
85.1433
 21
988.405
 31
0
  0
LINE
  5
BD1
330
A02
100
AcDbEntity
  8
Shape2DView013
100
AcDbLine
 10
85.3433
 20
988.405
 30
0
 11
85.1433
 21
988.405
 31
0
  0
LINE
  5
BD2
330
A02
100
AcDbEntity
  8
Shape2DView013
100
AcDbLine
 10
85.3433
 20
971.405
 30
0
 11
85.3433
 21
988.405
 31
0
  0
LINE
  5
BD3
330
A02
100
AcDbEntity
  8
Shape2DView013
100
AcDbLine
 10
85.3433
 20
971.405
 30
0
 11
81.5433
 21
971.405
 31
0
  0
ARC
  5
BD4
330
A02
100
AcDbEntity
  8
Shape2DView013
100
AcDbCircle
 10
81.3433
 20
971.405
 30
0
 40
0.2
100
AcDbArc
 50
-2.9312e-10
 51
-90
  0
LINE
  5
BD5
330
A02
100
AcDbEntity
  8
Shape2DView013
100
AcDbLine
 10
81.3433
 20
971.205
 30
0
 11
81.3433
 21
954.605
 31
0
  0
ARC
  5
BD6
330
A02
100
AcDbEntity
  8
Shape2DView013
100
AcDbCircle
 10
81.3433
 20
954.405
 30
0
 40
0.2
100
AcDbArc
 50
90
 51
2.9312e-10
  0
LINE
  5
BD7
330
A02
100
AcDbEntity
  8
Shape2DView013
100
AcDbLine
 10
81.5433
 20
954.405
 30
0
 11
85.1433
 21
954.405
 31
0
  0
LINE
  5
BD8
330
A02
100
AcDbEntity
  8
Shape2DView013
100
AcDbLine
 10
85.3433
 20
954.405
 30
0
 11
85.1433
 21
954.405
 31
0
  0
LINE
  5
BD9
330
A02
100
AcDbEntity
  8
Shape2DView013
100
AcDbLine
 10
85.3433
 20
937.405
 30
0
 11
85.3433
 21
954.405
 31
0
  0
LINE
  5
BDA
330
A02
100
AcDbEntity
  8
Shape2DView013
100
AcDbLine
 10
85.3433
 20
937.405
 30
0
 11
81.5433
 21
937.405
 31
0
  0
ARC
  5
BDB
330
A02
100
AcDbEntity
  8
Shape2DView013
100
AcDbCircle
 10
81.3433
 20
937.405
 30
0
 40
0.2
100
AcDbArc
 50
-2.9312e-10
 51
-90
  0
LINE
  5
BDC
330
A02
100
AcDbEntity
  8
Shape2DView013
100
AcDbLine
 10
81.3433
 20
937.205
 30
0
 11
81.3433
 21
920.605
 31
0
  0
ARC
  5
BDD
330
A02
100
AcDbEntity
  8
Shape2DView013
100
AcDbCircle
 10
81.3433
 20
920.405
 30
0
 40
0.2
100
AcDbArc
 50
90
 51
2.9312e-10
  0
LINE
  5
BDE
330
A02
100
AcDbEntity
  8
Shape2DView013
100
AcDbLine
 10
81.5433
 20
920.405
 30
0
 11
85.1433
 21
920.405
 31
0
  0
LINE
  5
BDF
330
A02
100
AcDbEntity
  8
Shape2DView013
100
AcDbLine
 10
85.3433
 20
920.405
 30
0
 11
85.1433
 21
920.405
 31
0
  0
LINE
  5
BE0
330
A02
100
AcDbEntity
  8
Shape2DView013
100
AcDbLine
 10
85.3433
 20
908.905
 30
0
 11
85.3433
 21
920.405
 31
0
  0
ARC
  5
BE1
330
A02
100
AcDbEntity
  8
Shape2DView013
100
AcDbCircle
 10
83.3433
 20
908.905
 30
0
 40
2
100
AcDbArc
 50
-84.4002
 51
-1.66184e-06
  0
ARC
  5
BE2
330
A02
100
AcDbEntity
  8
Shape2DView013
100
AcDbCircle
 10
85.978
 20
882.034
 30
0
 40
25
100
AcDbArc
 50
95.5998
 51
113.915
  0
ARC
  5
BE3
330
A02
100
AcDbEntity
  8
Shape2DView013
100
AcDbCircle
 10
68.8433
 20
920.673
 30
0
 40
17.2675
100
AcDbArc
 50
-113.915
 51
-66.0847
  0
ARC
  5
BE4
330
A02
100
AcDbEntity
  8
Shape2DView013
100
AcDbCircle
 10
51.7087
 20
882.034
 30
0
 40
25
100
AcDbArc
 50
66.0847
 51
84.4002
  0
ARC
  5
BE5
330
A02
100
AcDbEntity
  8
Shape2DView013
100
AcDbCircle
 10
54.3433
 20
908.905
 30
0
 40
2
100
AcDbArc
 50
180
 51
-95.5998
  0
LINE
  5
BE6
330
A02
100
AcDbEntity
  8
Shape2DView013
100
AcDbLine
 10
52.3433
 20
920.405
 30
0
 11
52.3433
 21
908.905
 31
0
  0
LINE
  5
BE7
330
A02
100
AcDbEntity
  8
Shape2DView013
100
AcDbLine
 10
52.3433
 20
920.405
 30
0
 11
52.5433
 21
920.405
 31
0
  0
LINE
  5
BE8
330
A02
100
AcDbEntity
  8
Shape2DView013
100
AcDbLine
 10
56.1433
 20
920.405
 30
0
 11
52.5433
 21
920.405
 31
0
  0
ARC
  5
BE9
330
A02
100
AcDbEntity
  8
Shape2DView013
100
AcDbCircle
 10
56.3433
 20
920.405
 30
0
 40
0.2
100
AcDbArc
 50
180
 51
90
  0
LINE
  5
BEA
330
A02
100
AcDbEntity
  8
Shape2DView013
100
AcDbLine
 10
56.3433
 20
937.205
 30
0
 11
56.3433
 21
920.605
 31
0
  0
ARC
  5
BEB
330
A02
100
AcDbEntity
  8
Shape2DView013
100
AcDbCircle
 10
56.3433
 20
937.405
 30
0
 40
0.2
100
AcDbArc
 50
-90
 51
-180
  0
LINE
  5
BEC
330
A02
100
AcDbEntity
  8
Shape2DView013
100
AcDbLine
 10
56.1433
 20
937.405
 30
0
 11
52.3433
 21
937.405
 31
0
  0
LINE
  5
BED
330
A02
100
AcDbEntity
  8
Shape2DView013
100
AcDbLine
 10
52.3433
 20
954.405
 30
0
 11
52.3433
 21
937.405
 31
0
  0
LINE
  5
BEE
330
A02
100
AcDbEntity
  8
Shape2DView013
100
AcDbLine
 10
52.3433
 20
954.405
 30
0
 11
52.5433
 21
954.405
 31
0
  0
LINE
  5
BEF
330
A02
100
AcDbEntity
  8
Shape2DView013
100
AcDbLine
 10
56.1433
 20
954.405
 30
0
 11
52.5433
 21
954.405
 31
0
  0
ARC
  5
BF0
330
A02
100
AcDbEntity
  8
Shape2DView013
100
AcDbCircle
 10
56.3433
 20
954.405
 30
0
 40
0.2
100
AcDbArc
 50
180
 51
90
  0
LINE
  5
BF1
330
A02
100
AcDbEntity
  8
Shape2DView013
100
AcDbLine
 10
56.3433
 20
971.205
 30
0
 11
56.3433
 21
954.605
 31
0
  0
ARC
  5
BF2
330
A02
100
AcDbEntity
  8
Shape2DView013
100
AcDbCircle
 10
56.3433
 20
971.405
 30
0
 40
0.2
100
AcDbArc
 50
-90
 51
-180
  0
LINE
  5
BF3
330
A02
100
AcDbEntity
  8
Shape2DView013
100
AcDbLine
 10
56.1433
 20
971.405
 30
0
 11
52.3433
 21
971.405
 31
0
  0
LINE
  5
BF4
330
A02
100
AcDbEntity
  8
Shape2DView013
100
AcDbLine
 10
52.3433
 20
988.405
 30
0
 11
52.3433
 21
971.405
 31
0
  0
LINE
  5
BF5
330
A02
100
AcDbEntity
  8
Shape2DView013
100
AcDbLine
 10
52.3433
 20
988.405
 30
0
 11
52.5433
 21
988.405
 31
0
  0
LINE
  5
BF6
330
A02
100
AcDbEntity
  8
Shape2DView013
100
AcDbLine
 10
56.1433
 20
988.405
 30
0
 11
52.5433
 21
988.405
 31
0
  0
ARC
  5
BF7
330
A02
100
AcDbEntity
  8
Shape2DView013
100
AcDbCircle
 10
56.3433
 20
988.405
 30
0
 40
0.2
100
AcDbArc
 50
180
 51
90
  0
LINE
  5
BF8
330
A02
100
AcDbEntity
  8
Shape2DView013
100
AcDbLine
 10
56.3433
 20
1005.21
 30
0
 11
56.3433
 21
988.605
 31
0
  0
ARC
  5
BF9
330
A02
100
AcDbEntity
  8
Shape2DView013
100
AcDbCircle
 10
56.3433
 20
1005.41
 30
0
 40
0.2
100
AcDbArc
 50
-90
 51
-180
  0
LINE
  5
BFA
330
A02
100
AcDbEntity
  8
Shape2DView013
100
AcDbLine
 10
56.1433
 20
1005.41
 30
0
 11
52.3433
 21
1005.41
 31
0
  0
LINE
  5
BFB
330
A02
100
AcDbEntity
  8
Shape2DView013
100
AcDbLine
 10
52.3433
 20
1016.91
 30
0
 11
52.3433
 21
1005.41
 31
0
  0
ARC
  5
BFC
330
A02
100
AcDbEntity
  8
Shape2DView013
100
AcDbCircle
 10
46.3433
 20
1016.91
 30
0
 40
6
100
AcDbArc
 50
0
 51
42.5998
  0
ARC
  5
BFD
330
A02
100
AcDbEntity
  8
Shape2DView013
100
AcDbCircle
 10
55.0433
 20
1024.91
 30
0
 40
5.81905
100
AcDbArc
 50
141.958
 51
-137.4
  0
ARC
  5
BFE
330
A02
100
AcDbEntity
  8
Shape2DView013
100
AcDbCircle
 10
41.0098
 20
1035.89
 30
0
 40
12
100
AcDbArc
 50
-38.0418
 51
-25.8679
  0
ARC
  5
BFF
330
A02
100
AcDbEntity
  8
Shape2DView013
100
AcDbCircle
 10
55.4066
 20
1028.91
 30
0
 40
4
100
AcDbArc
 50
90
 51
154.132
  0
LINE
  5
C00
330
A02
100
AcDbEntity
  8
Shape2DView013
100
AcDbLine
 10
55.4066
 20
1032.91
 30
0
 11
82.2801
 21
1032.91
 31
0
  0
ARC
  5
C01
330
A02
100
AcDbEntity
  8
Shape2DView013
100
AcDbCircle
 10
82.2801
 20
1028.91
 30
0
 40
4
100
AcDbArc
 50
25.8679
 51
90
  0
LINE
  5
C02
330
A02
100
AcDbEntity
  8
Shape2DView013
100
AcDbLine
 10
62.8433
 20
908.905
 30
0
 11
62.8433
 21
912.905
 31
0
  0
LINE
  5
C03
330
A02
100
AcDbEntity
  8
Shape2DView013
100
AcDbLine
 10
74.8433
 20
908.905
 30
0
 11
62.8433
 21
908.905
 31
0
  0
LINE
  5
C04
330
A02
100
AcDbEntity
  8
Shape2DView013
100
AcDbLine
 10
62.8433
 20
912.905
 30
0
 11
74.8433
 21
912.905
 31
0
  0
LINE
  5
C05
330
A02
100
AcDbEntity
  8
Shape2DView013
100
AcDbLine
 10
74.8433
 20
912.905
 30
0
 11
74.8433
 21
908.905
 31
0
  0
CIRCLE
  5
C06
330
A02
100
AcDbEntity
  8
Shape2DView013
100
AcDbCircle
 10
56.8433
 20
1019.91
 40
1.5
  0
CIRCLE
  5
C07
330
A02
100
AcDbEntity
  8
Shape2DView013
100
AcDbCircle
 10
55.0433
 20
1024.91
 40
1.7
  0
CIRCLE
  5
C08
330
A02
100
AcDbEntity
  8
Shape2DView013
100
AcDbCircle
 10
56.8433
 20
1029.91
 40
1.5
  0
CIRCLE
  5
C09
330
A02
100
AcDbEntity
  8
Shape2DView013
100
AcDbCircle
 10
80.8433
 20
1019.91
 40
1.5
  0
CIRCLE
  5
C0A
330
A02
100
AcDbEntity
  8
Shape2DView013
100
AcDbCircle
 10
80.8433
 20
1029.91
 40
1.5
  0
CIRCLE
  5
C0B
330
A02
100
AcDbEntity
  8
Shape2DView013
100
AcDbCircle
 10
82.6433
 20
1024.91
 40
1.7
  0
ENDSEC
  0
SECTION
  2
OBJECTS
  0
DICTIONARY
  5
F000
330
0
100
AcDbDictionary
  3
ACAD_GROUP
350
F001
  0
DICTIONARY
  5
F001
330
F000
100
AcDbDictionary
  0
ENDSEC
  0
EOF