999
FreeCAD v0.21 33771 (Git)
  0
SECTION
  2
HEADER
  9
$ACADVER
  1
AC1014
  9
$ACADMAINTVER
 70
     9
  9
$DWGCODEPAGE
  3
ANSI_1252
  9
$TEXTSTYLE
  7
STANDARD
  9
$DIMSTYLE
  2
STANDARD
  9
$DIMTXSTY
  7
STANDARD
  9
$CMLSTYLE
  2
STANDARD
  9
$LUNITS
 70
2
  9
$INSUNITS
 70
4
  9
$PEXTMAX
 10
50
 20
50
 30
50
  9
$PEXTMIN
 10
0
 20
0
 30
0
  9
$HANDSEED
  5
FFFF
  0
ENDSEC
  0
SECTION
  2
CLASSES
  0
CLASS
  1
ACDBDICTIONARYWDFLT
  2
AcDbDictionaryWithDefault
  3
ObjectDBX Classes
 90
        0
280
     0
281
     0
  0
CLASS
  1
XRECORD
  2
AcDbXrecord
  3
ObjectDBX Classes
 90
        0
280
     0
281
     0
  0
CLASS
  1
LWPOLYLINE
  2
AcDbPolyline
  3
ObjectDBX Classes
 90
        0
280
     0
281
     1
  0
ENDSEC
  0
SECTION
  2
TABLES
  0
TABLE
  2
VPORT
  5
20
330
0
100
AcDbSymbolTable
 70
     1
  0
VPORT
  5
21
330
20
100
AcDbSymbolTableRecord
100
AcDbViewportTableRecord
  2
*ACTIVE
 70
     0
  0
ENDTAB
  0
TABLE
  2
LTYPE
  5
22
330
0
100
AcDbSymbolTable
 70
     1
  0
LTYPE
  5
23
330
21
100
AcDbSymbolTableRecord
100
AcDbLinetypeTableRecord
  2
BYBLOCK
 70
     0
  3

 72
    65
 73
     0
 40
0.0
  0
LTYPE
  5
24
330
21
100
AcDbSymbolTableRecord
100
AcDbLinetypeTableRecord
  2
BYLAYER
 70
     0
  3

 72
    65
 73
     0
 40
0.0
  0
LTYPE
  5
25
330
21
100
AcDbSymbolTableRecord
100
AcDbLinetypeTableRecord
  2
CONTINUOUS
 70
     0
  3
Solid line
 72
    65
 73
     0
 40
0.0
  0
ENDTAB
  0
TABLE
  2
LAYER
  5
A72
330
0
100
AcDbSymbolTable
 70
5
  0
LAYER
  5
A73
330
A72
100
AcDbSymbolTableRecord
100
AcDbLayerTableRecord
  2
0
 70
   0
 62
   7
  6
CONTINUOUS
  0
LAYER
  5
A74
330
A72
100
AcDbSymbolTableRecord
100
AcDbLayerTableRecord
  2
View034
 70
    0
 62
    7
  6
CONTINUOUS
  0
LAYER
  5
A75
330
A72
100
AcDbSymbolTableRecord
100
AcDbLayerTableRecord
  2
View035
 70
    0
 62
    7
  6
CONTINUOUS
  0
LAYER
  5
A76
330
A72
100
AcDbSymbolTableRecord
100
AcDbLayerTableRecord
  2
View036
 70
    0
 62
    7
  6
CONTINUOUS
  0
LAYER
  5
A77
330
A72
100
AcDbSymbolTableRecord
100
AcDbLayerTableRecord
  2
View037
 70
    0
 62
    7
  6
CONTINUOUS
  0
ENDTAB
  0
TABLE
  2
STYLE
  5
70
330
0
100
AcDbSymbolTable
 70
     2
  0
STYLE
  5
71
330
70
100
AcDbSymbolTableRecord
100
AcDbTextStyleTableRecord
  2
STANDARD
 70
     0
 40
0.0
 41
1.0
 50
0.0
 71
     0
 42
2.5
  3
arial.ttf
  4

  0
STYLE
  5
72
330
70
100
AcDbSymbolTableRecord
100
AcDbTextStyleTableRecord
  2
ANNOTATIVE
 70
     0
 40
0.0
 41
1.0
 50
0.0
 71
     0
 42
2.5
  3
arial.ttf
  4

  0
ENDTAB
  0
TABLE
  2
VIEW
  5
73
330
0
100
AcDbSymbolTable
 70
     0
  0
ENDTAB
  0
TABLE
  2
UCS
  5
74
330
0
100
AcDbSymbolTable
 70
     0
  0
ENDTAB
  0
TABLE
  2
APPID
  5
75
330
0
100
AcDbSymbolTable
 70
     2
  0
APPID
  5
76
330
75
100
AcDbSymbolTableRecord
100
AcDbRegAppTableRecord
  2
ACAD
 70
     0
  0
APPID
  5
77
330
75
100
AcDbSymbolTableRecord
100
AcDbRegAppTableRecord
  2
ACADANNOTATIVE
 70
     0
  0
ENDTAB
  0
TABLE
  2
DIMSTYLE
  5
78
330
0
100
AcDbSymbolTable
 70
     2
  0
DIMSTYLE
105
79
330
78
100
AcDbSymbolTableRecord
100
AcDbDimStyleTableRecord
  2
STANDARD
 70
     0
  3

  4

  5

  6

  7

 40
0.0
 41
2.5
 42
0.625
 43
3.75
 44
1.25
 45
0.0
 46
0.0
 47
0.0
 48
0.0
140
2.5
141
2.5
142
0.0
143
0.03937007874016
144
1.0
145
0.0
146
1.0
147
0.625
 71
     0
 72
     0
 73
     0
 74
     0
 75
     0
 76
     0
 77
     1
 78
     8
170
     0
171
     3
172
     1
173
     0
174
     0
175
     0
176
     0
177
     0
178
     0
270
     2
271
     2
272
     2
273
     2
274
     3
340
71
275
     0
280
     0
281
     0
282
     0
283
     0
284
     8
285
     0
286
     0
287
     3
288
     0
  0
ENDTAB
  0
TABLE
  2
BLOCK_RECORD
  5
A01
330
0
100
AcDbSymbolTable
  70
5
  0
BLOCK_RECORD
  5
A02
330
A01
100
AcDbSymbolTableRecord
100
AcDbBlockTableRecord
  2
*MODEL_SPACE
  0
BLOCK_RECORD
  5
A03
330
A01
100
AcDbSymbolTableRecord
100
AcDbBlockTableRecord
  2
*PAPER_SPACE
  0
ENDTAB
  0
ENDSEC
  0
SECTION
  2
BLOCKS
  0
BLOCK
  5
A04
330
A02
100
AcDbEntity
  8
0
100
AcDbBlockBegin
  2
*MODEL_SPACE
 70
   0
 10
0
 20
0
 30
0
  3
*MODEL_SPACE
  1
 
  0
ENDBLK
  5
A05
330
A02
100
AcDbEntity
  8
0
100
AcDbBlockEnd
  0
BLOCK
  5
A06
330
A03
100
AcDbEntity
 67
1
  8
0
100
AcDbBlockBegin
  2
*PAPER_SPACE
 70
   0
 10
0
 20
0
 30
0
  3
*PAPER_SPACE
  1
 
  0
ENDBLK
  5
A07
330
A03
100
AcDbEntity
 67
    1
  8
0
100
AcDbBlockEnd
  0
ENDSEC
  0
SECTION
  2
ENTITIES
  0
ARC
  5
A08
330
A02
100
AcDbEntity
  8
View034
100
AcDbCircle
 10
127.756
 20
355.979
 30
0
 40
4
100
AcDbArc
 50
-164.546
 51
-90
  0
LINE
  5
A09
330
A02
100
AcDbEntity
  8
View034
100
AcDbLine
 10
146.244
 20
351.979
 30
0
 11
127.756
 21
351.979
 31
0
  0
ARC
  5
A0A
330
A02
100
AcDbEntity
  8
View034
100
AcDbCircle
 10
146.244
 20
355.979
 30
0
 40
4
100
AcDbArc
 50
-90
 51
-15.4536
  0
ARC
  5
A0B
330
A02
100
AcDbEntity
  8
View034
100
AcDbCircle
 10
59.4296
 20
379.979
 30
0
 40
94.0704
100
AcDbArc
 50
-15.4536
 51
-5.89583
  0
ARC
  5
A0C
330
A02
100
AcDbEntity
  8
View034
100
AcDbCircle
 10
164.939
 20
369.083
 30
0
 40
12
100
AcDbArc
 50
142.382
 51
174.104
  0
ARC
  5
A0D
330
A02
100
AcDbEntity
  8
View034
100
AcDbCircle
 10
150.8
 20
379.979
 30
0
 40
5.85
100
AcDbArc
 50
-37.6182
 51
42.7635
  0
ARC
  5
A0E
330
A02
100
AcDbEntity
  8
View034
100
AcDbCircle
 10
159.5
 20
388.025
 30
0
 40
6
100
AcDbArc
 50
-179.562
 51
-137.236
  0
LINE
  5
A0F
330
A02
100
AcDbEntity
  8
View034
100
AcDbLine
 10
153.5
 20
387.979
 30
0
 11
153.5
 21
388.853
 31
0
  0
ARC
  5
A10
330
A02
100
AcDbEntity
  8
View034
100
AcDbCircle
 10
145.512
 20
388.416
 30
0
 40
8
100
AcDbArc
 50
3.13187
 51
57.9605
  0
ARC
  5
A11
330
A02
100
AcDbEntity
  8
View034
100
AcDbCircle
 10
154
 20
401.979
 30
0
 40
8
100
AcDbArc
 50
-160.812
 51
-122.039
  0
ARC
  5
A12
330
A02
100
AcDbEntity
  8
View034
100
AcDbCircle
 10
145.5
 20
399.021
 30
0
 40
1
100
AcDbArc
 50
19.1881
 51
180
  0
LINE
  5
A13
330
A02
100
AcDbEntity
  8
View034
100
AcDbLine
 10
144.5
 20
393.629
 30
0
 11
144.5
 21
399.021
 31
0
  0
ARC
  5
A14
330
A02
100
AcDbEntity
  8
View034
100
AcDbCircle
 10
140
 20
393.629
 30
0
 40
4.5
100
AcDbArc
 50
-28.0725
 51
0
  0
LINE
  5
A15
330
A02
100
AcDbEntity
  8
View034
100
AcDbLine
 10
143.5
 20
390.629
 30
0
 11
143.971
 21
391.511
 31
0
  0
ARC
  5
A16
330
A02
100
AcDbEntity
  8
View034
100
AcDbCircle
 10
148
 20
388.229
 30
0
 40
5.1
100
AcDbArc
 50
151.928
 51
180
  0
LINE
  5
A17
330
A02
100
AcDbEntity
  8
View034
100
AcDbLine
 10
142.9
 20
388.229
 30
0
 11
142.9
 21
388.129
 31
0
  0
LINE
  5
A18
330
A02
100
AcDbEntity
  8
View034
100
AcDbLine
 10
142.9
 20
388.129
 30
0
 11
141.7
 21
388.129
 31
0
  0
LINE
  5
A19
330
A02
100
AcDbEntity
  8
View034
100
AcDbLine
 10
141.7
 20
388.129
 30
0
 11
141.7
 21
381.479
 31
0
  0
LINE
  5
A1A
330
A02
100
AcDbEntity
  8
View034
100
AcDbLine
 10
141.7
 20
381.479
 30
0
 11
132.3
 21
381.479
 31
0
  0
LINE
  5
A1B
330
A02
100
AcDbEntity
  8
View034
100
AcDbLine
 10
132.3
 20
381.479
 30
0
 11
132.3
 21
388.129
 31
0
  0
LINE
  5
A1C
330
A02
100
AcDbEntity
  8
View034
100
AcDbLine
 10
132.3
 20
388.129
 30
0
 11
131.1
 21
388.129
 31
0
  0
LINE
  5
A1D
330
A02
100
AcDbEntity
  8
View034
100
AcDbLine
 10
131.1
 20
388.129
 30
0
 11
131.1
 21
388.229
 31
0
  0
ARC
  5
A1E
330
A02
100
AcDbEntity
  8
View034
100
AcDbCircle
 10
126
 20
388.229
 30
0
 40
5.1
100
AcDbArc
 50
0
 51
28.0725
  0
LINE
  5
A1F
330
A02
100
AcDbEntity
  8
View034
100
AcDbLine
 10
130.5
 20
390.629
 30
0
 11
130.029
 21
391.511
 31
0
  0
ARC
  5
A20
330
A02
100
AcDbEntity
  8
View034
100
AcDbCircle
 10
134
 20
393.629
 30
0
 40
4.5
100
AcDbArc
 50
180
 51
-151.928
  0
LINE
  5
A21
330
A02
100
AcDbEntity
  8
View034
100
AcDbLine
 10
129.5
 20
393.629
 30
0
 11
129.5
 21
399.021
 31
0
  0
ARC
  5
A22
330
A02
100
AcDbEntity
  8
View034
100
AcDbCircle
 10
128.5
 20
399.021
 30
0
 40
1
100
AcDbArc
 50
0
 51
160.812
  0
ARC
  5
A23
330
A02
100
AcDbEntity
  8
View034
100
AcDbCircle
 10
120
 20
401.979
 30
0
 40
8
100
AcDbArc
 50
-57.9605
 51
-19.1881
  0
ARC
  5
A24
330
A02
100
AcDbEntity
  8
View034
100
AcDbCircle
 10
128.488
 20
388.416
 30
0
 40
8
100
AcDbArc
 50
122.039
 51
176.868
  0
LINE
  5
A25
330
A02
100
AcDbEntity
  8
View034
100
AcDbLine
 10
120.5
 20
388.853
 30
0
 11
120.5
 21
387.979
 31
0
  0
ARC
  5
A26
330
A02
100
AcDbEntity
  8
View034
100
AcDbCircle
 10
114.5
 20
388.025
 30
0
 40
6
100
AcDbArc
 50
-42.7635
 51
-0.437747
  0
ARC
  5
A27
330
A02
100
AcDbEntity
  8
View034
100
AcDbCircle
 10
123.2
 20
379.979
 30
0
 40
5.85
100
AcDbArc
 50
137.236
 51
-142.382
  0
ARC
  5
A28
330
A02
100
AcDbEntity
  8
View034
100
AcDbCircle
 10
109.061
 20
369.083
 30
0
 40
12
100
AcDbArc
 50
5.89583
 51
37.6182
  0
ARC
  5
A29
330
A02
100
AcDbEntity
  8
View034
100
AcDbCircle
 10
214.57
 20
379.979
 30
0
 40
94.0704
100
AcDbArc
 50
-174.104
 51
-164.546
  0
CIRCLE
  5
A2A
330
A02
100
AcDbEntity
  8
View034
100
AcDbCircle
 10
123.2
 20
379.979
 40
2.85
  0
LINE
  5
A2B
330
A02
100
AcDbEntity
  8
View034
100
AcDbLine
 10
130.2
 20
377.579
 30
0
 11
130.2
 21
379.579
 31
0
  0
LINE
  5
A2C
330
A02
100
AcDbEntity
  8
View034
100
AcDbLine
 10
130.2
 20
379.579
 30
0
 11
138.2
 21
379.579
 31
0
  0
LINE
  5
A2D
330
A02
100
AcDbEntity
  8
View034
100
AcDbLine
 10
138.2
 20
377.579
 30
0
 11
130.2
 21
377.579
 31
0
  0
LINE
  5
A2E
330
A02
100
AcDbEntity
  8
View034
100
AcDbLine
 10
138.2
 20
379.579
 30
0
 11
138.2
 21
377.579
 31
0
  0
LINE
  5
A2F
330
A02
100
AcDbEntity
  8
View034
100
AcDbLine
 10
130.2
 20
373.379
 30
0
 11
130.2
 21
375.379
 31
0
  0
LINE
  5
A30
330
A02
100
AcDbEntity
  8
View034
100
AcDbLine
 10
130.2
 20
375.379
 30
0
 11
138.2
 21
375.379
 31
0
  0
LINE
  5
A31
330
A02
100
AcDbEntity
  8
View034
100
AcDbLine
 10
138.2
 20
373.379
 30
0
 11
130.2
 21
373.379
 31
0
  0
LINE
  5
A32
330
A02
100
AcDbEntity
  8
View034
100
AcDbLine
 10
138.2
 20
375.379
 30
0
 11
138.2
 21
373.379
 31
0
  0
CIRCLE
  5
A33
330
A02
100
AcDbEntity
  8
View034
100
AcDbCircle
 10
150.8
 20
379.979
 40
2.85
  0
CIRCLE
  5
A34
330
A02
100
AcDbEntity
  8
View034
100
AcDbCircle
 10
141.2
 20
374.179
 40
1
  0
LINE
  5
A35
330
A02
100
AcDbEntity
  8
View034
100
AcDbLine
 10
135.2
 20
364.779
 30
0
 11
135.2
 21
371.779
 31
0
  0
LINE
  5
A36
330
A02
100
AcDbEntity
  8
View034
100
AcDbLine
 10
135.2
 20
371.779
 30
0
 11
143.2
 21
371.779
 31
0
  0
LINE
  5
A37
330
A02
100
AcDbEntity
  8
View034
100
AcDbLine
 10
143.2
 20
371.779
 30
0
 11
143.2
 21
364.779
 31
0
  0
LINE
  5
A38
330
A02
100
AcDbEntity
  8
View034
100
AcDbLine
 10
143.2
 20
364.779
 30
0
 11
135.2
 21
364.779
 31
0
  0
ARC
  5
A39
330
A02
100
AcDbEntity
  8
View035
100
AcDbCircle
 10
108.244
 20
396.021
 30
0
 40
4
100
AcDbArc
 50
15.4536
 51
90
  0
ARC
  5
A3A
330
A02
100
AcDbEntity
  8
View035
100
AcDbCircle
 10
21.4296
 20
372.021
 30
0
 40
94.0704
100
AcDbArc
 50
5.89583
 51
15.4536
  0
LINE
  5
A3B
330
A02
100
AcDbEntity
  8
View035
100
AcDbLine
 10
89.7564
 20
400.021
 30
0
 11
108.244
 21
400.021
 31
0
  0
ARC
  5
A3C
330
A02
100
AcDbEntity
  8
View035
100
AcDbCircle
 10
126.939
 20
382.917
 30
0
 40
12
100
AcDbArc
 50
-174.104
 51
-142.382
  0
ARC
  5
A3D
330
A02
100
AcDbEntity
  8
View035
100
AcDbCircle
 10
89.7564
 20
396.021
 30
0
 40
4
100
AcDbArc
 50
90
 51
164.546
  0
ARC
  5
A3E
330
A02
100
AcDbEntity
  8
View035
100
AcDbCircle
 10
112.8
 20
372.021
 30
0
 40
5.85
100
AcDbArc
 50
-42.7635
 51
37.6182
  0
ARC
  5
A3F
330
A02
100
AcDbEntity
  8
View035
100
AcDbCircle
 10
176.57
 20
372.021
 30
0
 40
94.0704
100
AcDbArc
 50
164.546
 51
174.104
  0
ARC
  5
A40
330
A02
100
AcDbEntity
  8
View035
100
AcDbCircle
 10
121.5
 20
363.975
 30
0
 40
6
100
AcDbArc
 50
137.236
 51
179.562
  0
ARC
  5
A41
330
A02
100
AcDbEntity
  8
View035
100
AcDbCircle
 10
71.0611
 20
382.917
 30
0
 40
12
100
AcDbArc
 50
-37.6182
 51
-5.89583
  0
LINE
  5
A42
330
A02
100
AcDbEntity
  8
View035
100
AcDbLine
 10
115.5
 20
363.147
 30
0
 11
115.5
 21
364.021
 31
0
  0
ARC
  5
A43
330
A02
100
AcDbEntity
  8
View035
100
AcDbCircle
 10
85.2
 20
372.021
 30
0
 40
5.85
100
AcDbArc
 50
142.382
 51
-137.236
  0
ARC
  5
A44
330
A02
100
AcDbEntity
  8
View035
100
AcDbCircle
 10
107.512
 20
363.584
 30
0
 40
8
100
AcDbArc
 50
-57.9605
 51
-3.13187
  0
ARC
  5
A45
330
A02
100
AcDbEntity
  8
View035
100
AcDbCircle
 10
76.5002
 20
363.975
 30
0
 40
6
100
AcDbArc
 50
0.437747
 51
42.7635
  0
ARC
  5
A46
330
A02
100
AcDbEntity
  8
View035
100
AcDbCircle
 10
116
 20
350.021
 30
0
 40
8
100
AcDbArc
 50
122.039
 51
160.812
  0
LINE
  5
A47
330
A02
100
AcDbEntity
  8
View035
100
AcDbLine
 10
82.5
 20
364.021
 30
0
 11
82.5
 21
363.147
 31
0
  0
ARC
  5
A48
330
A02
100
AcDbEntity
  8
View035
100
AcDbCircle
 10
107.5
 20
352.979
 30
0
 40
1
100
AcDbArc
 50
180
 51
-19.1881
  0
ARC
  5
A49
330
A02
100
AcDbEntity
  8
View035
100
AcDbCircle
 10
90.4881
 20
363.584
 30
0
 40
8
100
AcDbArc
 50
-176.868
 51
-122.039
  0
LINE
  5
A4A
330
A02
100
AcDbEntity
  8
View035
100
AcDbLine
 10
106.5
 20
358.371
 30
0
 11
106.5
 21
352.979
 31
0
  0
ARC
  5
A4B
330
A02
100
AcDbEntity
  8
View035
100
AcDbCircle
 10
82
 20
350.021
 30
0
 40
8
100
AcDbArc
 50
19.1881
 51
57.9605
  0
ARC
  5
A4C
330
A02
100
AcDbEntity
  8
View035
100
AcDbCircle
 10
102
 20
358.371
 30
0
 40
4.5
100
AcDbArc
 50
0
 51
28.0725
  0
ARC
  5
A4D
330
A02
100
AcDbEntity
  8
View035
100
AcDbCircle
 10
90.5
 20
352.979
 30
0
 40
1
100
AcDbArc
 50
-160.812
 51
0
  0
LINE
  5
A4E
330
A02
100
AcDbEntity
  8
View035
100
AcDbLine
 10
105.5
 20
361.371
 30
0
 11
105.971
 21
360.489
 31
0
  0
LINE
  5
A4F
330
A02
100
AcDbEntity
  8
View035
100
AcDbLine
 10
91.5
 20
358.371
 30
0
 11
91.5
 21
352.979
 31
0
  0
ARC
  5
A50
330
A02
100
AcDbEntity
  8
View035
100
AcDbCircle
 10
110
 20
363.771
 30
0
 40
5.1
100
AcDbArc
 50
180
 51
-151.928
  0
ARC
  5
A51
330
A02
100
AcDbEntity
  8
View035
100
AcDbCircle
 10
96
 20
358.371
 30
0
 40
4.5
100
AcDbArc
 50
151.928
 51
180
  0
LINE
  5
A52
330
A02
100
AcDbEntity
  8
View035
100
AcDbLine
 10
104.9
 20
363.871
 30
0
 11
104.9
 21
363.771
 31
0
  0
LINE
  5
A53
330
A02
100
AcDbEntity
  8
View035
100
AcDbLine
 10
92.5
 20
361.371
 30
0
 11
92.0294
 21
360.489
 31
0
  0
LINE
  5
A54
330
A02
100
AcDbEntity
  8
View035
100
AcDbLine
 10
93.1
 20
363.871
 30
0
 11
104.9
 21
363.871
 31
0
  0
ARC
  5
A55
330
A02
100
AcDbEntity
  8
View035
100
AcDbCircle
 10
88
 20
363.771
 30
0
 40
5.1
100
AcDbArc
 50
-28.0725
 51
0
  0
LINE
  5
A56
330
A02
100
AcDbEntity
  8
View035
100
AcDbLine
 10
93.1
 20
363.771
 30
0
 11
93.1
 21
363.871
 31
0
  0
CIRCLE
  5
A57
330
A02
100
AcDbEntity
  8
View035
100
AcDbCircle
 10
112.8
 20
372.021
 40
2.85
  0
LINE
  5
A58
330
A02
100
AcDbEntity
  8
View035
100
AcDbLine
 10
103.8
 20
374.421
 30
0
 11
103.8
 21
372.421
 31
0
  0
LINE
  5
A59
330
A02
100
AcDbEntity
  8
View035
100
AcDbLine
 10
103.8
 20
372.421
 30
0
 11
99.8
 21
372.421
 31
0
  0
LINE
  5
A5A
330
A02
100
AcDbEntity
  8
View035
100
AcDbLine
 10
99.8
 20
372.421
 30
0
 11
99.8
 21
374.421
 31
0
  0
LINE
  5
A5B
330
A02
100
AcDbEntity
  8
View035
100
AcDbLine
 10
99.8
 20
374.421
 30
0
 11
103.8
 21
374.421
 31
0
  0
CIRCLE
  5
A5C
330
A02
100
AcDbEntity
  8
View035
100
AcDbCircle
 10
85.2
 20
372.021
 40
2.85
  0
LINE
  5
A5D
330
A02
100
AcDbEntity
  8
View035
100
AcDbLine
 10
103.8
 20
378.621
 30
0
 11
103.8
 21
376.621
 31
0
  0
LINE
  5
A5E
330
A02
100
AcDbEntity
  8
View035
100
AcDbLine
 10
103.8
 20
376.621
 30
0
 11
99.8
 21
376.621
 31
0
  0
LINE
  5
A5F
330
A02
100
AcDbEntity
  8
View035
100
AcDbLine
 10
99.8
 20
376.621
 30
0
 11
99.8
 21
378.621
 31
0
  0
LINE
  5
A60
330
A02
100
AcDbEntity
  8
View035
100
AcDbLine
 10
99.8
 20
378.621
 30
0
 11
103.8
 21
378.621
 31
0
  0
CIRCLE
  5
A61
330
A02
100
AcDbEntity
  8
View035
100
AcDbCircle
 10
94.8
 20
377.821
 40
1
  0
SPLINE
  5
A62
330
A02
100
AcDbEntity
  8
View036
100
AcDbSpline
210
0
220
0
230
1
 70
8
 71
1
 72
4
 73
2
 74
0
 40
0
 40
0
 40
2.4
 40
2.4
 10
97
 20
357.35
 30
0
 10
97
 20
354.95
 30
0
  0
SPLINE
  5
A63
330
A02
100
AcDbEntity
  8
View036
100
AcDbSpline
210
0
220
0
230
1
 70
8
 71
1
 72
4
 73
2
 74
0
 40
0
 40
0
 40
2
 40
2
 10
97
 20
354.95
 30
0
 10
95
 20
354.95
 30
0
  0
SPLINE
  5
A64
330
A02
100
AcDbEntity
  8
View036
100
AcDbSpline
210
0
220
0
230
1
 70
8
 71
1
 72
4
 73
2
 74
0
 40
0
 40
0
 40
2.3
 40
2.3
 10
95
 20
354.95
 30
0
 10
95
 20
352.65
 30
0
  0
SPLINE
  5
A65
330
A02
100
AcDbEntity
  8
View036
100
AcDbSpline
210
0
220
0
230
1
 70
8
 71
1
 72
4
 73
2
 74
0
 40
0
 40
0
 40
8
 40
8
 10
95
 20
352.65
 30
0
 10
103
 20
352.65
 30
0
  0
SPLINE
  5
A66
330
A02
100
AcDbEntity
  8
View036
100
AcDbSpline
210
0
220
0
230
1
 70
8
 71
1
 72
4
 73
2
 74
0
 40
0
 40
0
 40
2.3
 40
2.3
 10
103
 20
352.65
 30
0
 10
103
 20
354.95
 30
0
  0
SPLINE
  5
A67
330
A02
100
AcDbEntity
  8
View036
100
AcDbSpline
210
0
220
0
230
1
 70
8
 71
1
 72
4
 73
2
 74
0
 40
0
 40
0
 40
2
 40
2
 10
103
 20
354.95
 30
0
 10
101
 20
354.95
 30
0
  0
SPLINE
  5
A68
330
A02
100
AcDbEntity
  8
View036
100
AcDbSpline
210
0
220
0
230
1
 70
8
 71
1
 72
4
 73
2
 74
0
 40
0
 40
0
 40
2.4
 40
2.4
 10
101
 20
354.95
 30
0
 10
101
 20
357.35
 30
0
  0
SPLINE
  5
A69
330
A02
100
AcDbEntity
  8
View036
100
AcDbSpline
210
0
220
0
230
1
 70
8
 71
1
 72
4
 73
2
 74
0
 40
0
 40
0
 40
4
 40
4
 10
101
 20
357.35
 30
0
 10
97
 20
357.35
 30
0
  0
SPLINE
  5
A6A
330
A02
100
AcDbEntity
  8
View037
100
AcDbSpline
210
0
220
0
230
1
 70
8
 71
1
 72
4
 73
2
 74
0
 40
0
 40
0
 40
2.4
 40
2.4
 10
135
 20
398.35
 30
0
 10
135
 20
395.95
 30
0
  0
SPLINE
  5
A6B
330
A02
100
AcDbEntity
  8
View037
100
AcDbSpline
210
0
220
0
230
1
 70
8
 71
1
 72
4
 73
2
 74
0
 40
0
 40
0
 40
2
 40
2
 10
135
 20
395.95
 30
0
 10
133
 20
395.95
 30
0
  0
SPLINE
  5
A6C
330
A02
100
AcDbEntity
  8
View037
100
AcDbSpline
210
0
220
0
230
1
 70
8
 71
1
 72
4
 73
2
 74
0
 40
0
 40
0
 40
2.3
 40
2.3
 10
133
 20
395.95
 30
0
 10
133
 20
393.65
 30
0
  0
SPLINE
  5
A6D
330
A02
100
AcDbEntity
  8
View037
100
AcDbSpline
210
0
220
0
230
1
 70
8
 71
1
 72
4
 73
2
 74
0
 40
0
 40
0
 40
8
 40
8
 10
133
 20
393.65
 30
0
 10
141
 20
393.65
 30
0
  0
SPLINE
  5
A6E
330
A02
100
AcDbEntity
  8
View037
100
AcDbSpline
210
0
220
0
230
1
 70
8
 71
1
 72
4
 73
2
 74
0
 40
0
 40
0
 40
2.3
 40
2.3
 10
141
 20
393.65
 30
0
 10
141
 20
395.95
 30
0
  0
SPLINE
  5
A6F
330
A02
100
AcDbEntity
  8
View037
100
AcDbSpline
210
0
220
0
230
1
 70
8
 71
1
 72
4
 73
2
 74
0
 40
0
 40
0
 40
2
 40
2
 10
141
 20
395.95
 30
0
 10
139
 20
395.95
 30
0
  0
SPLINE
  5
A70
330
A02
100
AcDbEntity
  8
View037
100
AcDbSpline
210
0
220
0
230
1
 70
8
 71
1
 72
4
 73
2
 74
0
 40
0
 40
0
 40
2.4
 40
2.4
 10
139
 20
395.95
 30
0
 10
139
 20
398.35
 30
0
  0
SPLINE
  5
A71
330
A02
100
AcDbEntity
  8
View037
100
AcDbSpline
210
0
220
0
230
1
 70
8
 71
1
 72
4
 73
2
 74
0
 40
0
 40
0
 40
4
 40
4
 10
139
 20
398.35
 30
0
 10
135
 20
398.35
 30
0
  0
ENDSEC
  0
SECTION
  2
OBJECTS
  0
DICTIONARY
  5
F000
330
0
100
AcDbDictionary
  3
ACAD_GROUP
350
F001
  0
DICTIONARY
  5
F001
330
F000
100
AcDbDictionary
  0
ENDSEC
  0
EOF