999
FreeCAD v0.21 33771 (Git)
  0
SECTION
  2
HEADER
  9
$ACADVER
  1
AC1014
  9
$ACADMAINTVER
 70
     9
  9
$DWGCODEPAGE
  3
ANSI_1252
  9
$TEXTSTYLE
  7
STANDARD
  9
$DIMSTYLE
  2
STANDARD
  9
$DIMTXSTY
  7
STANDARD
  9
$CMLSTYLE
  2
STANDARD
  9
$LUNITS
 70
2
  9
$INSUNITS
 70
4
  9
$PEXTMAX
 10
50
 20
50
 30
50
  9
$PEXTMIN
 10
0
 20
0
 30
0
  9
$HANDSEED
  5
FFFF
  0
ENDSEC
  0
SECTION
  2
CLASSES
  0
CLASS
  1
ACDBDICTIONARYWDFLT
  2
AcDbDictionaryWithDefault
  3
ObjectDBX Classes
 90
        0
280
     0
281
     0
  0
CLASS
  1
XRECORD
  2
AcDbXrecord
  3
ObjectDBX Classes
 90
        0
280
     0
281
     0
  0
CLASS
  1
LWPOLYLINE
  2
AcDbPolyline
  3
ObjectDBX Classes
 90
        0
280
     0
281
     1
  0
ENDSEC
  0
SECTION
  2
TABLES
  0
TABLE
  2
VPORT
  5
20
330
0
100
AcDbSymbolTable
 70
     1
  0
VPORT
  5
21
330
20
100
AcDbSymbolTableRecord
100
AcDbViewportTableRecord
  2
*ACTIVE
 70
     0
  0
ENDTAB
  0
TABLE
  2
LTYPE
  5
22
330
0
100
AcDbSymbolTable
 70
     1
  0
LTYPE
  5
23
330
21
100
AcDbSymbolTableRecord
100
AcDbLinetypeTableRecord
  2
BYBLOCK
 70
     0
  3

 72
    65
 73
     0
 40
0.0
  0
LTYPE
  5
24
330
21
100
AcDbSymbolTableRecord
100
AcDbLinetypeTableRecord
  2
BYLAYER
 70
     0
  3

 72
    65
 73
     0
 40
0.0
  0
LTYPE
  5
25
330
21
100
AcDbSymbolTableRecord
100
AcDbLinetypeTableRecord
  2
CONTINUOUS
 70
     0
  3
Solid line
 72
    65
 73
     0
 40
0.0
  0
ENDTAB
  0
TABLE
  2
LAYER
  5
D39
330
0
100
AcDbSymbolTable
 70
22
  0
LAYER
  5
D3A
330
D39
100
AcDbSymbolTableRecord
100
AcDbLayerTableRecord
  2
0
 70
   0
 62
   7
  6
CONTINUOUS
  0
LAYER
  5
D3B
330
D39
100
AcDbSymbolTableRecord
100
AcDbLayerTableRecord
  2
View
 70
    0
 62
    7
  6
CONTINUOUS
  0
LAYER
  5
D3C
330
D39
100
AcDbSymbolTableRecord
100
AcDbLayerTableRecord
  2
View002
 70
    0
 62
    7
  6
CONTINUOUS
  0
LAYER
  5
D3D
330
D39
100
AcDbSymbolTableRecord
100
AcDbLayerTableRecord
  2
View003
 70
    0
 62
    7
  6
CONTINUOUS
  0
LAYER
  5
D3E
330
D39
100
AcDbSymbolTableRecord
100
AcDbLayerTableRecord
  2
View004
 70
    0
 62
    7
  6
CONTINUOUS
  0
LAYER
  5
D3F
330
D39
100
AcDbSymbolTableRecord
100
AcDbLayerTableRecord
  2
View005
 70
    0
 62
    7
  6
CONTINUOUS
  0
LAYER
  5
D40
330
D39
100
AcDbSymbolTableRecord
100
AcDbLayerTableRecord
  2
View006
 70
    0
 62
    7
  6
CONTINUOUS
  0
LAYER
  5
D41
330
D39
100
AcDbSymbolTableRecord
100
AcDbLayerTableRecord
  2
View007
 70
    0
 62
    7
  6
CONTINUOUS
  0
LAYER
  5
D42
330
D39
100
AcDbSymbolTableRecord
100
AcDbLayerTableRecord
  2
View008
 70
    0
 62
    7
  6
CONTINUOUS
  0
LAYER
  5
D43
330
D39
100
AcDbSymbolTableRecord
100
AcDbLayerTableRecord
  2
View009
 70
    0
 62
    7
  6
CONTINUOUS
  0
LAYER
  5
D44
330
D39
100
AcDbSymbolTableRecord
100
AcDbLayerTableRecord
  2
View010
 70
    0
 62
    7
  6
CONTINUOUS
  0
LAYER
  5
D45
330
D39
100
AcDbSymbolTableRecord
100
AcDbLayerTableRecord
  2
View011
 70
    0
 62
    7
  6
CONTINUOUS
  0
LAYER
  5
D46
330
D39
100
AcDbSymbolTableRecord
100
AcDbLayerTableRecord
  2
View012
 70
    0
 62
    7
  6
CONTINUOUS
  0
LAYER
  5
D47
330
D39
100
AcDbSymbolTableRecord
100
AcDbLayerTableRecord
  2
View013
 70
    0
 62
    7
  6
CONTINUOUS
  0
LAYER
  5
D48
330
D39
100
AcDbSymbolTableRecord
100
AcDbLayerTableRecord
  2
View014
 70
    0
 62
    7
  6
CONTINUOUS
  0
LAYER
  5
D49
330
D39
100
AcDbSymbolTableRecord
100
AcDbLayerTableRecord
  2
View015
 70
    0
 62
    7
  6
CONTINUOUS
  0
LAYER
  5
D4A
330
D39
100
AcDbSymbolTableRecord
100
AcDbLayerTableRecord
  2
View017
 70
    0
 62
    7
  6
CONTINUOUS
  0
LAYER
  5
D4B
330
D39
100
AcDbSymbolTableRecord
100
AcDbLayerTableRecord
  2
View018
 70
    0
 62
    7
  6
CONTINUOUS
  0
LAYER
  5
D4C
330
D39
100
AcDbSymbolTableRecord
100
AcDbLayerTableRecord
  2
View019
 70
    0
 62
    7
  6
CONTINUOUS
  0
LAYER
  5
D4D
330
D39
100
AcDbSymbolTableRecord
100
AcDbLayerTableRecord
  2
View022
 70
    0
 62
    7
  6
CONTINUOUS
  0
LAYER
  5
D4E
330
D39
100
AcDbSymbolTableRecord
100
AcDbLayerTableRecord
  2
View023
 70
    0
 62
    7
  6
CONTINUOUS
  0
LAYER
  5
D4F
330
D39
100
AcDbSymbolTableRecord
100
AcDbLayerTableRecord
  2
View026
 70
    0
 62
    7
  6
CONTINUOUS
  0
ENDTAB
  0
TABLE
  2
STYLE
  5
70
330
0
100
AcDbSymbolTable
 70
     2
  0
STYLE
  5
71
330
70
100
AcDbSymbolTableRecord
100
AcDbTextStyleTableRecord
  2
STANDARD
 70
     0
 40
0.0
 41
1.0
 50
0.0
 71
     0
 42
2.5
  3
arial.ttf
  4

  0
STYLE
  5
72
330
70
100
AcDbSymbolTableRecord
100
AcDbTextStyleTableRecord
  2
ANNOTATIVE
 70
     0
 40
0.0
 41
1.0
 50
0.0
 71
     0
 42
2.5
  3
arial.ttf
  4

  0
ENDTAB
  0
TABLE
  2
VIEW
  5
73
330
0
100
AcDbSymbolTable
 70
     0
  0
ENDTAB
  0
TABLE
  2
UCS
  5
74
330
0
100
AcDbSymbolTable
 70
     0
  0
ENDTAB
  0
TABLE
  2
APPID
  5
75
330
0
100
AcDbSymbolTable
 70
     2
  0
APPID
  5
76
330
75
100
AcDbSymbolTableRecord
100
AcDbRegAppTableRecord
  2
ACAD
 70
     0
  0
APPID
  5
77
330
75
100
AcDbSymbolTableRecord
100
AcDbRegAppTableRecord
  2
ACADANNOTATIVE
 70
     0
  0
ENDTAB
  0
TABLE
  2
DIMSTYLE
  5
78
330
0
100
AcDbSymbolTable
 70
     2
  0
DIMSTYLE
105
79
330
78
100
AcDbSymbolTableRecord
100
AcDbDimStyleTableRecord
  2
STANDARD
 70
     0
  3

  4

  5

  6

  7

 40
0.0
 41
2.5
 42
0.625
 43
3.75
 44
1.25
 45
0.0
 46
0.0
 47
0.0
 48
0.0
140
2.5
141
2.5
142
0.0
143
0.03937007874016
144
1.0
145
0.0
146
1.0
147
0.625
 71
     0
 72
     0
 73
     0
 74
     0
 75
     0
 76
     0
 77
     1
 78
     8
170
     0
171
     3
172
     1
173
     0
174
     0
175
     0
176
     0
177
     0
178
     0
270
     2
271
     2
272
     2
273
     2
274
     3
340
71
275
     0
280
     0
281
     0
282
     0
283
     0
284
     8
285
     0
286
     0
287
     3
288
     0
  0
ENDTAB
  0
TABLE
  2
BLOCK_RECORD
  5
A01
330
0
100
AcDbSymbolTable
  70
5
  0
BLOCK_RECORD
  5
A02
330
A01
100
AcDbSymbolTableRecord
100
AcDbBlockTableRecord
  2
*MODEL_SPACE
  0
BLOCK_RECORD
  5
A03
330
A01
100
AcDbSymbolTableRecord
100
AcDbBlockTableRecord
  2
*PAPER_SPACE
  0
ENDTAB
  0
ENDSEC
  0
SECTION
  2
BLOCKS
  0
BLOCK
  5
A04
330
A02
100
AcDbEntity
  8
0
100
AcDbBlockBegin
  2
*MODEL_SPACE
 70
   0
 10
0
 20
0
 30
0
  3
*MODEL_SPACE
  1
 
  0
ENDBLK
  5
A05
330
A02
100
AcDbEntity
  8
0
100
AcDbBlockEnd
  0
BLOCK
  5
A06
330
A03
100
AcDbEntity
 67
1
  8
0
100
AcDbBlockBegin
  2
*PAPER_SPACE
 70
   0
 10
0
 20
0
 30
0
  3
*PAPER_SPACE
  1
 
  0
ENDBLK
  5
A07
330
A03
100
AcDbEntity
 67
    1
  8
0
100
AcDbBlockEnd
  0
ENDSEC
  0
SECTION
  2
ENTITIES
  0
ARC
  5
A08
330
A02
100
AcDbEntity
  8
View
100
AcDbCircle
 10
143.939
 20
421.396
 30
0
 40
12
100
AcDbArc
 50
-174.104
 51
-142.382
  0
ARC
  5
A09
330
A02
100
AcDbEntity
  8
View
100
AcDbCircle
 10
38.4296
 20
410.5
 30
0
 40
94.0704
100
AcDbArc
 50
5.89583
 51
15.4536
  0
ARC
  5
A0A
330
A02
100
AcDbEntity
  8
View
100
AcDbCircle
 10
129.8
 20
410.5
 30
0
 40
5.85
100
AcDbArc
 50
-42.7635
 51
37.6182
  0
ARC
  5
A0B
330
A02
100
AcDbEntity
  8
View
100
AcDbCircle
 10
125.244
 20
434.5
 30
0
 40
4
100
AcDbArc
 50
15.4536
 51
90
  0
ARC
  5
A0C
330
A02
100
AcDbEntity
  8
View
100
AcDbCircle
 10
138.5
 20
402.454
 30
0
 40
6
100
AcDbArc
 50
137.236
 51
179.562
  0
LINE
  5
A0D
330
A02
100
AcDbEntity
  8
View
100
AcDbLine
 10
122
 20
438.5
 30
0
 11
125.244
 21
438.5
 31
0
  0
LINE
  5
A0E
330
A02
100
AcDbEntity
  8
View
100
AcDbLine
 10
132.5
 20
401.626
 30
0
 11
132.5
 21
402.5
 31
0
  0
LINE
  5
A0F
330
A02
100
AcDbEntity
  8
View
100
AcDbLine
 10
122
 20
438.5
 30
0
 11
122
 21
423.351
 31
0
  0
ARC
  5
A10
330
A02
100
AcDbEntity
  8
View
100
AcDbCircle
 10
124.512
 20
402.063
 30
0
 40
8
100
AcDbArc
 50
-57.9605
 51
-3.13187
  0
LINE
  5
A11
330
A02
100
AcDbEntity
  8
View
100
AcDbLine
 10
122
 20
423.351
 30
0
 11
121.8
 21
423.351
 31
0
  0
ARC
  5
A12
330
A02
100
AcDbEntity
  8
View
100
AcDbCircle
 10
133
 20
388.5
 30
0
 40
8
100
AcDbArc
 50
122.039
 51
180
  0
LINE
  5
A13
330
A02
100
AcDbEntity
  8
View
100
AcDbLine
 10
121.8
 20
423.351
 30
0
 11
121.8
 21
423.3
 31
0
  0
LINE
  5
A14
330
A02
100
AcDbEntity
  8
View
100
AcDbLine
 10
125
 20
388.5
 30
0
 11
125
 21
358.5
 31
0
  0
LINE
  5
A15
330
A02
100
AcDbEntity
  8
View
100
AcDbLine
 10
121.8
 20
423.3
 30
0
 11
122.3
 21
423.3
 31
0
  0
ARC
  5
A16
330
A02
100
AcDbEntity
  8
View
100
AcDbCircle
 10
116
 20
358.5
 30
0
 40
9
100
AcDbArc
 50
180
 51
0
  0
LINE
  5
A17
330
A02
100
AcDbEntity
  8
View
100
AcDbLine
 10
122.3
 20
422
 30
0
 11
122.3
 21
423.3
 31
0
  0
LINE
  5
A18
330
A02
100
AcDbEntity
  8
View
100
AcDbLine
 10
107
 20
388.5
 30
0
 11
107
 21
358.5
 31
0
  0
LINE
  5
A19
330
A02
100
AcDbEntity
  8
View
100
AcDbLine
 10
122.3
 20
422
 30
0
 11
125
 21
422
 31
0
  0
ARC
  5
A1A
330
A02
100
AcDbEntity
  8
View
100
AcDbCircle
 10
99
 20
388.5
 30
0
 40
8
100
AcDbArc
 50
0
 51
57.9605
  0
LINE
  5
A1B
330
A02
100
AcDbEntity
  8
View
100
AcDbLine
 10
125
 20
422
 30
0
 11
125
 21
403.8
 31
0
  0
ARC
  5
A1C
330
A02
100
AcDbEntity
  8
View
100
AcDbCircle
 10
107.488
 20
402.063
 30
0
 40
8
100
AcDbArc
 50
-176.868
 51
-122.039
  0
LINE
  5
A1D
330
A02
100
AcDbEntity
  8
View
100
AcDbLine
 10
125
 20
403.8
 30
0
 11
122.3
 21
403.8
 31
0
  0
LINE
  5
A1E
330
A02
100
AcDbEntity
  8
View
100
AcDbLine
 10
99.5
 20
402.5
 30
0
 11
99.5
 21
401.626
 31
0
  0
LINE
  5
A1F
330
A02
100
AcDbEntity
  8
View
100
AcDbLine
 10
122.3
 20
402.5
 30
0
 11
122.3
 21
403.8
 31
0
  0
ARC
  5
A20
330
A02
100
AcDbEntity
  8
View
100
AcDbCircle
 10
93.5002
 20
402.454
 30
0
 40
6
100
AcDbArc
 50
0.437747
 51
42.7635
  0
LINE
  5
A21
330
A02
100
AcDbEntity
  8
View
100
AcDbLine
 10
122.3
 20
402.5
 30
0
 11
109.7
 21
402.5
 31
0
  0
ARC
  5
A22
330
A02
100
AcDbEntity
  8
View
100
AcDbCircle
 10
102.2
 20
410.5
 30
0
 40
5.85
100
AcDbArc
 50
142.382
 51
-137.236
  0
LINE
  5
A23
330
A02
100
AcDbEntity
  8
View
100
AcDbLine
 10
109.7
 20
403.8
 30
0
 11
109.7
 21
402.5
 31
0
  0
ARC
  5
A24
330
A02
100
AcDbEntity
  8
View
100
AcDbCircle
 10
88.0611
 20
421.396
 30
0
 40
12
100
AcDbArc
 50
-37.6182
 51
-5.89583
  0
LINE
  5
A25
330
A02
100
AcDbEntity
  8
View
100
AcDbLine
 10
109.7
 20
403.8
 30
0
 11
107
 21
403.8
 31
0
  0
ARC
  5
A26
330
A02
100
AcDbEntity
  8
View
100
AcDbCircle
 10
193.57
 20
410.5
 30
0
 40
94.0704
100
AcDbArc
 50
164.546
 51
174.104
  0
LINE
  5
A27
330
A02
100
AcDbEntity
  8
View
100
AcDbLine
 10
107
 20
403.8
 30
0
 11
107
 21
422
 31
0
  0
ARC
  5
A28
330
A02
100
AcDbEntity
  8
View
100
AcDbCircle
 10
106.756
 20
434.5
 30
0
 40
4
100
AcDbArc
 50
90
 51
164.546
  0
LINE
  5
A29
330
A02
100
AcDbEntity
  8
View
100
AcDbLine
 10
107
 20
422
 30
0
 11
109.7
 21
422
 31
0
  0
LINE
  5
A2A
330
A02
100
AcDbEntity
  8
View
100
AcDbLine
 10
106.756
 20
438.5
 30
0
 11
110
 21
438.5
 31
0
  0
LINE
  5
A2B
330
A02
100
AcDbEntity
  8
View
100
AcDbLine
 10
109.7
 20
423.3
 30
0
 11
109.7
 21
422
 31
0
  0
LINE
  5
A2C
330
A02
100
AcDbEntity
  8
View
100
AcDbLine
 10
110
 20
423.351
 30
0
 11
110
 21
438.5
 31
0
  0
LINE
  5
A2D
330
A02
100
AcDbEntity
  8
View
100
AcDbLine
 10
110.2
 20
423.3
 30
0
 11
109.7
 21
423.3
 31
0
  0
LINE
  5
A2E
330
A02
100
AcDbEntity
  8
View
100
AcDbLine
 10
110.2
 20
423.351
 30
0
 11
110
 21
423.351
 31
0
  0
LINE
  5
A2F
330
A02
100
AcDbEntity
  8
View
100
AcDbLine
 10
110.2
 20
423.3
 30
0
 11
110.2
 21
423.351
 31
0
  0
CIRCLE
  5
A30
330
A02
100
AcDbEntity
  8
View
100
AcDbCircle
 10
116
 20
368.5
 40
2
  0
CIRCLE
  5
A31
330
A02
100
AcDbEntity
  8
View
100
AcDbCircle
 10
116
 20
378.5
 40
2
  0
CIRCLE
  5
A32
330
A02
100
AcDbEntity
  8
View
100
AcDbCircle
 10
116
 20
358.5
 40
1.475
  0
CIRCLE
  5
A33
330
A02
100
AcDbEntity
  8
View
100
AcDbCircle
 10
116
 20
388.5
 40
2
  0
CIRCLE
  5
A34
330
A02
100
AcDbEntity
  8
View
100
AcDbCircle
 10
104
 20
405.5
 40
1.475
  0
CIRCLE
  5
A35
330
A02
100
AcDbEntity
  8
View
100
AcDbCircle
 10
102.2
 20
410.5
 40
1.7
  0
CIRCLE
  5
A36
330
A02
100
AcDbEntity
  8
View
100
AcDbCircle
 10
104
 20
415.5
 40
1.475
  0
CIRCLE
  5
A37
330
A02
100
AcDbEntity
  8
View
100
AcDbCircle
 10
106.5
 20
429.5
 40
1.475
  0
CIRCLE
  5
A38
330
A02
100
AcDbEntity
  8
View
100
AcDbCircle
 10
128
 20
405.5
 40
1.475
  0
CIRCLE
  5
A39
330
A02
100
AcDbEntity
  8
View
100
AcDbCircle
 10
129.8
 20
410.5
 40
1.7
  0
CIRCLE
  5
A3A
330
A02
100
AcDbEntity
  8
View
100
AcDbCircle
 10
128
 20
415.5
 40
1.475
  0
CIRCLE
  5
A3B
330
A02
100
AcDbEntity
  8
View
100
AcDbCircle
 10
125.5
 20
429.5
 40
1.475
  0
LINE
  5
A3C
330
A02
100
AcDbEntity
  8
View002
100
AcDbLine
 10
136
 20
483.5
 30
0
 11
136
 21
395.5
 31
0
  0
ARC
  5
A3D
330
A02
100
AcDbEntity
  8
View002
100
AcDbCircle
 10
138
 20
483.5
 30
0
 40
2
100
AcDbArc
 50
90
 51
180
  0
ARC
  5
A3E
330
A02
100
AcDbEntity
  8
View002
100
AcDbCircle
 10
128
 20
395.5
 30
0
 40
8
100
AcDbArc
 50
-57.9605
 51
0
  0
LINE
  5
A3F
330
A02
100
AcDbEntity
  8
View002
100
AcDbLine
 10
152
 20
485.5
 30
0
 11
138
 21
485.5
 31
0
  0
ARC
  5
A40
330
A02
100
AcDbEntity
  8
View002
100
AcDbCircle
 10
136.488
 20
381.937
 30
0
 40
8
100
AcDbArc
 50
122.039
 51
176.868
  0
ARC
  5
A41
330
A02
100
AcDbEntity
  8
View002
100
AcDbCircle
 10
152
 20
483.5
 30
0
 40
2
100
AcDbArc
 50
0
 51
90
  0
LINE
  5
A42
330
A02
100
AcDbEntity
  8
View002
100
AcDbLine
 10
128.5
 20
382.374
 30
0
 11
128.5
 21
381.5
 31
0
  0
LINE
  5
A43
330
A02
100
AcDbEntity
  8
View002
100
AcDbLine
 10
154
 20
395.5
 30
0
 11
154
 21
483.5
 31
0
  0
ARC
  5
A44
330
A02
100
AcDbEntity
  8
View002
100
AcDbCircle
 10
122.5
 20
381.546
 30
0
 40
6
100
AcDbArc
 50
-42.7635
 51
-0.437747
  0
ARC
  5
A45
330
A02
100
AcDbEntity
  8
View002
100
AcDbCircle
 10
162
 20
395.5
 30
0
 40
8
100
AcDbArc
 50
180
 51
-122.039
  0
ARC
  5
A46
330
A02
100
AcDbEntity
  8
View002
100
AcDbCircle
 10
131.2
 20
373.5
 30
0
 40
5.85
100
AcDbArc
 50
137.236
 51
-142.382
  0
ARC
  5
A47
330
A02
100
AcDbEntity
  8
View002
100
AcDbCircle
 10
153.512
 20
381.937
 30
0
 40
8
100
AcDbArc
 50
3.13187
 51
57.9605
  0
ARC
  5
A48
330
A02
100
AcDbEntity
  8
View002
100
AcDbCircle
 10
117.061
 20
362.604
 30
0
 40
12
100
AcDbArc
 50
5.89583
 51
37.6182
  0
LINE
  5
A49
330
A02
100
AcDbEntity
  8
View002
100
AcDbLine
 10
161.5
 20
381.5
 30
0
 11
161.5
 21
382.374
 31
0
  0
ARC
  5
A4A
330
A02
100
AcDbEntity
  8
View002
100
AcDbCircle
 10
222.57
 20
373.5
 30
0
 40
94.0704
100
AcDbArc
 50
-174.104
 51
-156.839
  0
ARC
  5
A4B
330
A02
100
AcDbEntity
  8
View002
100
AcDbCircle
 10
167.5
 20
381.546
 30
0
 40
6
100
AcDbArc
 50
-179.562
 51
-137.236
  0
ARC
  5
A4C
330
A02
100
AcDbEntity
  8
View002
100
AcDbCircle
 10
108.5
 20
324.7
 30
0
 40
30
100
AcDbArc
 50
0
 51
23.1614
  0
ARC
  5
A4D
330
A02
100
AcDbEntity
  8
View002
100
AcDbCircle
 10
158.8
 20
373.5
 30
0
 40
5.85
100
AcDbArc
 50
-37.6182
 51
42.7635
  0
LINE
  5
A4E
330
A02
100
AcDbEntity
  8
View002
100
AcDbLine
 10
138.5
 20
99.475
 30
0
 11
138.5
 21
324.7
 31
0
  0
ARC
  5
A4F
330
A02
100
AcDbEntity
  8
View002
100
AcDbCircle
 10
172.939
 20
362.604
 30
0
 40
12
100
AcDbArc
 50
142.382
 51
174.104
  0
LINE
  5
A50
330
A02
100
AcDbEntity
  8
View002
100
AcDbLine
 10
136.467
 20
99.475
 30
0
 11
138.5
 21
99.475
 31
0
  0
ARC
  5
A51
330
A02
100
AcDbEntity
  8
View002
100
AcDbCircle
 10
67.4296
 20
373.5
 30
0
 40
94.0704
100
AcDbArc
 50
-23.1614
 51
-5.89583
  0
ARC
  5
A52
330
A02
100
AcDbEntity
  8
View002
100
AcDbCircle
 10
137
 20
100.877
 30
0
 40
1.5
100
AcDbArc
 50
-110.834
 51
-90
  0
ARC
  5
A53
330
A02
100
AcDbEntity
  8
View002
100
AcDbCircle
 10
181.5
 20
324.7
 30
0
 40
30
100
AcDbArc
 50
156.839
 51
180
  0
ARC
  5
A54
330
A02
100
AcDbEntity
  8
View002
100
AcDbCircle
 10
137
 20
96.3769
 30
0
 40
3
100
AcDbArc
 50
27.266
 51
90
  0
LINE
  5
A55
330
A02
100
AcDbEntity
  8
View002
100
AcDbLine
 10
151.5
 20
324.7
 30
0
 11
151.5
 21
99.475
 31
0
  0
ARC
  5
A56
330
A02
100
AcDbEntity
  8
View002
100
AcDbCircle
 10
145
 20
100.5
 30
0
 40
6
100
AcDbArc
 50
-152.734
 51
-27.266
  0
LINE
  5
A57
330
A02
100
AcDbEntity
  8
View002
100
AcDbLine
 10
151.5
 20
99.475
 30
0
 11
153.533
 21
99.475
 31
0
  0
ARC
  5
A58
330
A02
100
AcDbEntity
  8
View002
100
AcDbCircle
 10
153
 20
96.3769
 30
0
 40
3
100
AcDbArc
 50
90
 51
152.734
  0
ARC
  5
A59
330
A02
100
AcDbEntity
  8
View002
100
AcDbCircle
 10
153
 20
100.877
 30
0
 40
1.5
100
AcDbArc
 50
-90
 51
-69.1662
  0
CIRCLE
  5
A5A
330
A02
100
AcDbEntity
  8
View002
100
AcDbCircle
 10
158.8
 20
373.5
 40
1.7
  0
CIRCLE
  5
A5B
330
A02
100
AcDbEntity
  8
View002
100
AcDbCircle
 10
157
 20
378.5
 40
1.475
  0
CIRCLE
  5
A5C
330
A02
100
AcDbEntity
  8
View002
100
AcDbCircle
 10
157
 20
368.5
 40
1.475
  0
CIRCLE
  5
A5D
330
A02
100
AcDbEntity
  8
View002
100
AcDbCircle
 10
154.5
 20
354.5
 40
1.475
  0
CIRCLE
  5
A5E
330
A02
100
AcDbEntity
  8
View002
100
AcDbCircle
 10
145
 20
477.5
 40
1.475
  0
CIRCLE
  5
A5F
330
A02
100
AcDbEntity
  8
View002
100
AcDbCircle
 10
145
 20
425.5
 40
1.475
  0
LINE
  5
A60
330
A02
100
AcDbEntity
  8
View002
100
AcDbLine
 10
148.05
 20
398.755
 30
0
 11
147.75
 21
398.755
 31
0
  0
LINE
  5
A61
330
A02
100
AcDbEntity
  8
View002
100
AcDbLine
 10
147.75
 20
398.755
 30
0
 11
147.75
 21
399.255
 31
0
  0
LINE
  5
A62
330
A02
100
AcDbEntity
  8
View002
100
AcDbLine
 10
147.75
 20
402.255
 30
0
 11
147.75
 21
399.255
 31
0
  0
LINE
  5
A63
330
A02
100
AcDbEntity
  8
View002
100
AcDbLine
 10
148.05
 20
402.255
 30
0
 11
147.75
 21
402.255
 31
0
  0
LINE
  5
A64
330
A02
100
AcDbEntity
  8
View002
100
AcDbLine
 10
148.05
 20
408.755
 30
0
 11
148.05
 21
402.255
 31
0
  0
LINE
  5
A65
330
A02
100
AcDbEntity
  8
View002
100
AcDbLine
 10
148.05
 20
408.755
 30
0
 11
147.75
 21
408.755
 31
0
  0
LINE
  5
A66
330
A02
100
AcDbEntity
  8
View002
100
AcDbLine
 10
147.75
 20
409.255
 30
0
 11
147.75
 21
408.755
 31
0
  0
LINE
  5
A67
330
A02
100
AcDbEntity
  8
View002
100
AcDbLine
 10
147.75
 20
412.255
 30
0
 11
147.75
 21
409.255
 31
0
  0
LINE
  5
A68
330
A02
100
AcDbEntity
  8
View002
100
AcDbLine
 10
148.05
 20
412.255
 30
0
 11
147.75
 21
412.255
 31
0
  0
LINE
  5
A69
330
A02
100
AcDbEntity
  8
View002
100
AcDbLine
 10
148.05
 20
418.755
 30
0
 11
148.05
 21
412.255
 31
0
  0
LINE
  5
A6A
330
A02
100
AcDbEntity
  8
View002
100
AcDbLine
 10
148.05
 20
418.755
 30
0
 11
147.75
 21
418.755
 31
0
  0
LINE
  5
A6B
330
A02
100
AcDbEntity
  8
View002
100
AcDbLine
 10
147.75
 20
418.755
 30
0
 11
147.75
 21
419.255
 31
0
  0
LINE
  5
A6C
330
A02
100
AcDbEntity
  8
View002
100
AcDbLine
 10
147.75
 20
419.255
 30
0
 11
142.25
 21
419.255
 31
0
  0
LINE
  5
A6D
330
A02
100
AcDbEntity
  8
View002
100
AcDbLine
 10
142.25
 20
419.255
 30
0
 11
142.25
 21
418.745
 31
0
  0
LINE
  5
A6E
330
A02
100
AcDbEntity
  8
View002
100
AcDbLine
 10
142.25
 20
418.745
 30
0
 11
141.95
 21
418.745
 31
0
  0
LINE
  5
A6F
330
A02
100
AcDbEntity
  8
View002
100
AcDbLine
 10
141.95
 20
412.255
 30
0
 11
141.95
 21
418.745
 31
0
  0
LINE
  5
A70
330
A02
100
AcDbEntity
  8
View002
100
AcDbLine
 10
142.25
 20
412.255
 30
0
 11
141.95
 21
412.255
 31
0
  0
LINE
  5
A71
330
A02
100
AcDbEntity
  8
View002
100
AcDbLine
 10
142.25
 20
409.255
 30
0
 11
142.25
 21
412.255
 31
0
  0
LINE
  5
A72
330
A02
100
AcDbEntity
  8
View002
100
AcDbLine
 10
142.25
 20
408.755
 30
0
 11
142.25
 21
409.255
 31
0
  0
LINE
  5
A73
330
A02
100
AcDbEntity
  8
View002
100
AcDbLine
 10
142.25
 20
408.755
 30
0
 11
142.25
 21
408.745
 31
0
  0
LINE
  5
A74
330
A02
100
AcDbEntity
  8
View002
100
AcDbLine
 10
142.25
 20
408.745
 30
0
 11
141.95
 21
408.745
 31
0
  0
LINE
  5
A75
330
A02
100
AcDbEntity
  8
View002
100
AcDbLine
 10
141.95
 20
402.255
 30
0
 11
141.95
 21
408.745
 31
0
  0
LINE
  5
A76
330
A02
100
AcDbEntity
  8
View002
100
AcDbLine
 10
142.25
 20
402.255
 30
0
 11
141.95
 21
402.255
 31
0
  0
LINE
  5
A77
330
A02
100
AcDbEntity
  8
View002
100
AcDbLine
 10
142.25
 20
399.255
 30
0
 11
142.25
 21
402.255
 31
0
  0
LINE
  5
A78
330
A02
100
AcDbEntity
  8
View002
100
AcDbLine
 10
142.25
 20
399.255
 30
0
 11
142.25
 21
398.755
 31
0
  0
LINE
  5
A79
330
A02
100
AcDbEntity
  8
View002
100
AcDbLine
 10
142.25
 20
398.755
 30
0
 11
142.25
 21
398.745
 31
0
  0
LINE
  5
A7A
330
A02
100
AcDbEntity
  8
View002
100
AcDbLine
 10
142.25
 20
398.745
 30
0
 11
141.95
 21
398.745
 31
0
  0
LINE
  5
A7B
330
A02
100
AcDbEntity
  8
View002
100
AcDbLine
 10
141.95
 20
392.255
 30
0
 11
141.95
 21
398.745
 31
0
  0
LINE
  5
A7C
330
A02
100
AcDbEntity
  8
View002
100
AcDbLine
 10
142.25
 20
392.255
 30
0
 11
141.95
 21
392.255
 31
0
  0
LINE
  5
A7D
330
A02
100
AcDbEntity
  8
View002
100
AcDbLine
 10
142.25
 20
388.755
 30
0
 11
142.25
 21
392.255
 31
0
  0
LINE
  5
A7E
330
A02
100
AcDbEntity
  8
View002
100
AcDbLine
 10
144.5
 20
388.755
 30
0
 11
142.25
 21
388.755
 31
0
  0
LINE
  5
A7F
330
A02
100
AcDbEntity
  8
View002
100
AcDbLine
 10
144.5
 20
380.5
 30
0
 11
144.5
 21
388.755
 31
0
  0
LINE
  5
A80
330
A02
100
AcDbEntity
  8
View002
100
AcDbLine
 10
144.5
 20
380.5
 30
0
 11
141.75
 21
380.5
 31
0
  0
ARC
  5
A81
330
A02
100
AcDbEntity
  8
View002
100
AcDbCircle
 10
141.75
 20
379
 30
0
 40
1.5
100
AcDbArc
 50
90
 51
180
  0
ARC
  5
A82
330
A02
100
AcDbEntity
  8
View002
100
AcDbCircle
 10
139.75
 20
379
 30
0
 40
0.5
100
AcDbArc
 50
-90
 51
0
  0
LINE
  5
A83
330
A02
100
AcDbEntity
  8
View002
100
AcDbLine
 10
139.75
 20
378.5
 30
0
 11
138.75
 21
378.5
 31
0
  0
LINE
  5
A84
330
A02
100
AcDbEntity
  8
View002
100
AcDbLine
 10
138.75
 20
380.2
 30
0
 11
138.75
 21
378.5
 31
0
  0
LINE
  5
A85
330
A02
100
AcDbEntity
  8
View002
100
AcDbLine
 10
136
 20
380.2
 30
0
 11
138.75
 21
380.2
 31
0
  0
LINE
  5
A86
330
A02
100
AcDbEntity
  8
View002
100
AcDbLine
 10
136
 20
362
 30
0
 11
136
 21
380.2
 31
0
  0
LINE
  5
A87
330
A02
100
AcDbEntity
  8
View002
100
AcDbLine
 10
137
 20
362
 30
0
 11
136
 21
362
 31
0
  0
LINE
  5
A88
330
A02
100
AcDbEntity
  8
View002
100
AcDbLine
 10
137
 20
362
 30
0
 11
137
 21
360.5
 31
0
  0
ARC
  5
A89
330
A02
100
AcDbEntity
  8
View002
100
AcDbCircle
 10
145
 20
360.5
 30
0
 40
8
100
AcDbArc
 50
180
 51
-116.744
  0
ARC
  5
A8A
330
A02
100
AcDbEntity
  8
View002
100
AcDbCircle
 10
140.5
 20
351.57
 30
0
 40
2
100
AcDbArc
 50
0
 51
63.2563
  0
LINE
  5
A8B
330
A02
100
AcDbEntity
  8
View002
100
AcDbLine
 10
142.5
 20
344.5
 30
0
 11
142.5
 21
351.57
 31
0
  0
ARC
  5
A8C
330
A02
100
AcDbEntity
  8
View002
100
AcDbCircle
 10
143.5
 20
344.5
 30
0
 40
1
100
AcDbArc
 50
180
 51
-90
  0
LINE
  5
A8D
330
A02
100
AcDbEntity
  8
View002
100
AcDbLine
 10
146.5
 20
343.5
 30
0
 11
143.5
 21
343.5
 31
0
  0
ARC
  5
A8E
330
A02
100
AcDbEntity
  8
View002
100
AcDbCircle
 10
146.5
 20
344.5
 30
0
 40
1
100
AcDbArc
 50
-90
 51
0
  0
LINE
  5
A8F
330
A02
100
AcDbEntity
  8
View002
100
AcDbLine
 10
147.5
 20
351.57
 30
0
 11
147.5
 21
344.5
 31
0
  0
ARC
  5
A90
330
A02
100
AcDbEntity
  8
View002
100
AcDbCircle
 10
149.5
 20
351.57
 30
0
 40
2
100
AcDbArc
 50
116.744
 51
180
  0
ARC
  5
A91
330
A02
100
AcDbEntity
  8
View002
100
AcDbCircle
 10
145
 20
360.5
 30
0
 40
8
100
AcDbArc
 50
-63.2563
 51
0
  0
LINE
  5
A92
330
A02
100
AcDbEntity
  8
View002
100
AcDbLine
 10
153
 20
360.5
 30
0
 11
153
 21
362
 31
0
  0
LINE
  5
A93
330
A02
100
AcDbEntity
  8
View002
100
AcDbLine
 10
154
 20
362
 30
0
 11
153
 21
362
 31
0
  0
LINE
  5
A94
330
A02
100
AcDbEntity
  8
View002
100
AcDbLine
 10
154
 20
380.2
 30
0
 11
154
 21
362
 31
0
  0
LINE
  5
A95
330
A02
100
AcDbEntity
  8
View002
100
AcDbLine
 10
151.25
 20
380.2
 30
0
 11
154
 21
380.2
 31
0
  0
LINE
  5
A96
330
A02
100
AcDbEntity
  8
View002
100
AcDbLine
 10
151.25
 20
378.5
 30
0
 11
151.25
 21
380.2
 31
0
  0
LINE
  5
A97
330
A02
100
AcDbEntity
  8
View002
100
AcDbLine
 10
151.25
 20
378.5
 30
0
 11
150.25
 21
378.5
 31
0
  0
ARC
  5
A98
330
A02
100
AcDbEntity
  8
View002
100
AcDbCircle
 10
150.25
 20
379
 30
0
 40
0.5
100
AcDbArc
 50
180
 51
-90
  0
ARC
  5
A99
330
A02
100
AcDbEntity
  8
View002
100
AcDbCircle
 10
148.25
 20
379
 30
0
 40
1.5
100
AcDbArc
 50
0
 51
90
  0
LINE
  5
A9A
330
A02
100
AcDbEntity
  8
View002
100
AcDbLine
 10
148.25
 20
380.5
 30
0
 11
145.5
 21
380.5
 31
0
  0
LINE
  5
A9B
330
A02
100
AcDbEntity
  8
View002
100
AcDbLine
 10
145.5
 20
388.755
 30
0
 11
145.5
 21
380.5
 31
0
  0
LINE
  5
A9C
330
A02
100
AcDbEntity
  8
View002
100
AcDbLine
 10
147.75
 20
388.755
 30
0
 11
145.5
 21
388.755
 31
0
  0
LINE
  5
A9D
330
A02
100
AcDbEntity
  8
View002
100
AcDbLine
 10
147.75
 20
392.255
 30
0
 11
147.75
 21
388.755
 31
0
  0
LINE
  5
A9E
330
A02
100
AcDbEntity
  8
View002
100
AcDbLine
 10
148.05
 20
392.255
 30
0
 11
147.75
 21
392.255
 31
0
  0
LINE
  5
A9F
330
A02
100
AcDbEntity
  8
View002
100
AcDbLine
 10
148.05
 20
398.755
 30
0
 11
148.05
 21
392.255
 31
0
  0
CIRCLE
  5
AA0
330
A02
100
AcDbEntity
  8
View002
100
AcDbCircle
 10
145
 20
338.5
 40
1.475
  0
CIRCLE
  5
AA1
330
A02
100
AcDbEntity
  8
View002
100
AcDbCircle
 10
145
 20
300.5
 40
1.475
  0
CIRCLE
  5
AA2
330
A02
100
AcDbEntity
  8
View002
100
AcDbCircle
 10
135.5
 20
354.5
 40
1.475
  0
CIRCLE
  5
AA3
330
A02
100
AcDbEntity
  8
View002
100
AcDbCircle
 10
133
 20
378.5
 40
1.475
  0
CIRCLE
  5
AA4
330
A02
100
AcDbEntity
  8
View002
100
AcDbCircle
 10
133
 20
368.5
 40
1.475
  0
CIRCLE
  5
AA5
330
A02
100
AcDbEntity
  8
View002
100
AcDbCircle
 10
131.2
 20
373.5
 40
1.7
  0
CIRCLE
  5
AA6
330
A02
100
AcDbEntity
  8
View002
100
AcDbCircle
 10
145
 20
262.5
 40
1.475
  0
CIRCLE
  5
AA7
330
A02
100
AcDbEntity
  8
View002
100
AcDbCircle
 10
145
 20
224.5
 40
1.475
  0
CIRCLE
  5
AA8
330
A02
100
AcDbEntity
  8
View002
100
AcDbCircle
 10
145
 20
186.5
 40
1.475
  0
CIRCLE
  5
AA9
330
A02
100
AcDbEntity
  8
View002
100
AcDbCircle
 10
145
 20
148.5
 40
1.475
  0
CIRCLE
  5
AAA
330
A02
100
AcDbEntity
  8
View002
100
AcDbCircle
 10
145
 20
110.5
 40
1.475
  0
LINE
  5
AAB
330
A02
100
AcDbEntity
  8
View003
100
AcDbLine
 10
181.5
 20
487.623
 30
0
 11
181.5
 21
464.459
 31
0
  0
ARC
  5
AAC
330
A02
100
AcDbEntity
  8
View003
100
AcDbCircle
 10
180
 20
487.623
 30
0
 40
1.5
100
AcDbArc
 50
0
 51
90
  0
ARC
  5
AAD
330
A02
100
AcDbEntity
  8
View003
100
AcDbCircle
 10
180
 20
464.459
 30
0
 40
1.5
100
AcDbArc
 50
-62.9643
 51
0
  0
ARC
  5
AAE
330
A02
100
AcDbEntity
  8
View003
100
AcDbCircle
 10
180
 20
492.123
 30
0
 40
3
100
AcDbArc
 50
-152.734
 51
-90
  0
ARC
  5
AAF
330
A02
100
AcDbEntity
  8
View003
100
AcDbCircle
 10
182.5
 20
459.56
 30
0
 40
4
100
AcDbArc
 50
117.036
 51
180
  0
ARC
  5
AB0
330
A02
100
AcDbEntity
  8
View003
100
AcDbCircle
 10
172
 20
488
 30
0
 40
6
100
AcDbArc
 50
27.266
 51
152.734
  0
LINE
  5
AB1
330
A02
100
AcDbEntity
  8
View003
100
AcDbLine
 10
178.5
 20
459.56
 30
0
 11
178.5
 21
263.8
 31
0
  0
ARC
  5
AB2
330
A02
100
AcDbEntity
  8
View003
100
AcDbCircle
 10
164
 20
492.123
 30
0
 40
3
100
AcDbArc
 50
-90
 51
-27.266
  0
ARC
  5
AB3
330
A02
100
AcDbEntity
  8
View003
100
AcDbCircle
 10
208.5
 20
263.8
 30
0
 40
30
100
AcDbArc
 50
180
 51
-156.839
  0
ARC
  5
AB4
330
A02
100
AcDbEntity
  8
View003
100
AcDbCircle
 10
164
 20
487.623
 30
0
 40
1.5
100
AcDbArc
 50
90
 51
180
  0
ARC
  5
AB5
330
A02
100
AcDbEntity
  8
View003
100
AcDbCircle
 10
94.4296
 20
215
 30
0
 40
94.0704
100
AcDbArc
 50
5.89583
 51
23.1614
  0
LINE
  5
AB6
330
A02
100
AcDbEntity
  8
View003
100
AcDbLine
 10
162.5
 20
464.459
 30
0
 11
162.5
 21
487.623
 31
0
  0
ARC
  5
AB7
330
A02
100
AcDbEntity
  8
View003
100
AcDbCircle
 10
199.939
 20
225.896
 30
0
 40
12
100
AcDbArc
 50
-174.104
 51
-142.382
  0
ARC
  5
AB8
330
A02
100
AcDbEntity
  8
View003
100
AcDbCircle
 10
164
 20
464.459
 30
0
 40
1.5
100
AcDbArc
 50
180
 51
-117.036
  0
ARC
  5
AB9
330
A02
100
AcDbEntity
  8
View003
100
AcDbCircle
 10
185.8
 20
215
 30
0
 40
5.85
100
AcDbArc
 50
-42.7635
 51
37.6182
  0
ARC
  5
ABA
330
A02
100
AcDbEntity
  8
View003
100
AcDbCircle
 10
161.5
 20
459.56
 30
0
 40
4
100
AcDbArc
 50
0
 51
62.9643
  0
ARC
  5
ABB
330
A02
100
AcDbEntity
  8
View003
100
AcDbCircle
 10
194.5
 20
206.954
 30
0
 40
6
100
AcDbArc
 50
137.236
 51
179.562
  0
LINE
  5
ABC
330
A02
100
AcDbEntity
  8
View003
100
AcDbLine
 10
165.5
 20
263.8
 30
0
 11
165.5
 21
459.56
 31
0
  0
LINE
  5
ABD
330
A02
100
AcDbEntity
  8
View003
100
AcDbLine
 10
188.5
 20
198.5
 30
0
 11
188.5
 21
207
 31
0
  0
ARC
  5
ABE
330
A02
100
AcDbEntity
  8
View003
100
AcDbCircle
 10
135.5
 20
263.8
 30
0
 40
30
100
AcDbArc
 50
-23.1614
 51
0
  0
LINE
  5
ABF
330
A02
100
AcDbEntity
  8
View003
100
AcDbLine
 10
188.3
 20
198.5
 30
0
 11
188.5
 21
198.5
 31
0
  0
ARC
  5
AC0
330
A02
100
AcDbEntity
  8
View003
100
AcDbCircle
 10
249.57
 20
215
 30
0
 40
94.0704
100
AcDbArc
 50
156.839
 51
174.104
  0
LINE
  5
AC1
330
A02
100
AcDbEntity
  8
View003
100
AcDbLine
 10
188.3
 20
198.5
 30
0
 11
184.7
 21
198.5
 31
0
  0
ARC
  5
AC2
330
A02
100
AcDbEntity
  8
View003
100
AcDbCircle
 10
144.061
 20
225.896
 30
0
 40
12
100
AcDbArc
 50
-37.6182
 51
-5.89583
  0
LINE
  5
AC3
330
A02
100
AcDbEntity
  8
View003
100
AcDbLine
 10
184.7
 20
198.5
 30
0
 11
184.5
 21
198.5
 31
0
  0
ARC
  5
AC4
330
A02
100
AcDbEntity
  8
View003
100
AcDbCircle
 10
158.2
 20
215
 30
0
 40
5.85
100
AcDbArc
 50
142.382
 51
-137.236
  0
LINE
  5
AC5
330
A02
100
AcDbEntity
  8
View003
100
AcDbLine
 10
184.5
 20
198.5
 30
0
 11
184.5
 21
198.3
 31
0
  0
ARC
  5
AC6
330
A02
100
AcDbEntity
  8
View003
100
AcDbCircle
 10
149.5
 20
206.954
 30
0
 40
6
100
AcDbArc
 50
0.437747
 51
42.7635
  0
LINE
  5
AC7
330
A02
100
AcDbEntity
  8
View003
100
AcDbLine
 10
155.5
 20
207
 30
0
 11
155.5
 21
198.5
 31
0
  0
LINE
  5
AC8
330
A02
100
AcDbEntity
  8
View003
100
AcDbLine
 10
184.5
 20
198.3
 30
0
 11
184.5
 21
181.5
 31
0
  0
LINE
  5
AC9
330
A02
100
AcDbEntity
  8
View003
100
AcDbLine
 10
155.7
 20
198.5
 30
0
 11
155.5
 21
198.5
 31
0
  0
LINE
  5
ACA
330
A02
100
AcDbEntity
  8
View003
100
AcDbLine
 10
184.7
 20
181.5
 30
0
 11
184.5
 21
181.5
 31
0
  0
LINE
  5
ACB
330
A02
100
AcDbEntity
  8
View003
100
AcDbLine
 10
155.7
 20
198.5
 30
0
 11
159.3
 21
198.5
 31
0
  0
LINE
  5
ACC
330
A02
100
AcDbEntity
  8
View003
100
AcDbLine
 10
184.7
 20
181.5
 30
0
 11
188.3
 21
181.5
 31
0
  0
LINE
  5
ACD
330
A02
100
AcDbEntity
  8
View003
100
AcDbLine
 10
159.3
 20
198.5
 30
0
 11
159.5
 21
198.5
 31
0
  0
LINE
  5
ACE
330
A02
100
AcDbEntity
  8
View003
100
AcDbLine
 10
188.5
 20
181.5
 30
0
 11
188.3
 21
181.5
 31
0
  0
LINE
  5
ACF
330
A02
100
AcDbEntity
  8
View003
100
AcDbLine
 10
159.5
 20
198.5
 30
0
 11
159.5
 21
198.3
 31
0
  0
LINE
  5
AD0
330
A02
100
AcDbEntity
  8
View003
100
AcDbLine
 10
188.5
 20
164.5
 30
0
 11
188.5
 21
181.5
 31
0
  0
LINE
  5
AD1
330
A02
100
AcDbEntity
  8
View003
100
AcDbLine
 10
159.5
 20
198.3
 30
0
 11
159.5
 21
181.5
 31
0
  0
LINE
  5
AD2
330
A02
100
AcDbEntity
  8
View003
100
AcDbLine
 10
188.3
 20
164.5
 30
0
 11
188.5
 21
164.5
 31
0
  0
LINE
  5
AD3
330
A02
100
AcDbEntity
  8
View003
100
AcDbLine
 10
188.3
 20
164.5
 30
0
 11
184.7
 21
164.5
 31
0
  0
LINE
  5
AD4
330
A02
100
AcDbEntity
  8
View003
100
AcDbLine
 10
159.3
 20
181.5
 30
0
 11
159.5
 21
181.5
 31
0
  0
LINE
  5
AD5
330
A02
100
AcDbEntity
  8
View003
100
AcDbLine
 10
184.7
 20
164.5
 30
0
 11
184.5
 21
164.5
 31
0
  0
LINE
  5
AD6
330
A02
100
AcDbEntity
  8
View003
100
AcDbLine
 10
159.3
 20
181.5
 30
0
 11
155.7
 21
181.5
 31
0
  0
LINE
  5
AD7
330
A02
100
AcDbEntity
  8
View003
100
AcDbLine
 10
184.5
 20
164.5
 30
0
 11
184.5
 21
164.3
 31
0
  0
LINE
  5
AD8
330
A02
100
AcDbEntity
  8
View003
100
AcDbLine
 10
155.5
 20
181.5
 30
0
 11
155.7
 21
181.5
 31
0
  0
LINE
  5
AD9
330
A02
100
AcDbEntity
  8
View003
100
AcDbLine
 10
155.5
 20
181.5
 30
0
 11
155.5
 21
164.5
 31
0
  0
LINE
  5
ADA
330
A02
100
AcDbEntity
  8
View003
100
AcDbLine
 10
184.5
 20
164.3
 30
0
 11
184.5
 21
147.5
 31
0
  0
LINE
  5
ADB
330
A02
100
AcDbEntity
  8
View003
100
AcDbLine
 10
155.7
 20
164.5
 30
0
 11
155.5
 21
164.5
 31
0
  0
LINE
  5
ADC
330
A02
100
AcDbEntity
  8
View003
100
AcDbLine
 10
184.7
 20
147.5
 30
0
 11
184.5
 21
147.5
 31
0
  0
LINE
  5
ADD
330
A02
100
AcDbEntity
  8
View003
100
AcDbLine
 10
155.7
 20
164.5
 30
0
 11
159.3
 21
164.5
 31
0
  0
LINE
  5
ADE
330
A02
100
AcDbEntity
  8
View003
100
AcDbLine
 10
184.7
 20
147.5
 30
0
 11
188.3
 21
147.5
 31
0
  0
LINE
  5
ADF
330
A02
100
AcDbEntity
  8
View003
100
AcDbLine
 10
159.3
 20
164.5
 30
0
 11
159.5
 21
164.5
 31
0
  0
LINE
  5
AE0
330
A02
100
AcDbEntity
  8
View003
100
AcDbLine
 10
188.5
 20
147.5
 30
0
 11
188.3
 21
147.5
 31
0
  0
LINE
  5
AE1
330
A02
100
AcDbEntity
  8
View003
100
AcDbLine
 10
159.5
 20
164.5
 30
0
 11
159.5
 21
164.3
 31
0
  0
LINE
  5
AE2
330
A02
100
AcDbEntity
  8
View003
100
AcDbLine
 10
188.5
 20
130.5
 30
0
 11
188.5
 21
147.5
 31
0
  0
LINE
  5
AE3
330
A02
100
AcDbEntity
  8
View003
100
AcDbLine
 10
159.5
 20
164.3
 30
0
 11
159.5
 21
147.5
 31
0
  0
LINE
  5
AE4
330
A02
100
AcDbEntity
  8
View003
100
AcDbLine
 10
188.3
 20
130.5
 30
0
 11
188.5
 21
130.5
 31
0
  0
LINE
  5
AE5
330
A02
100
AcDbEntity
  8
View003
100
AcDbLine
 10
188.3
 20
130.5
 30
0
 11
184.7
 21
130.5
 31
0
  0
LINE
  5
AE6
330
A02
100
AcDbEntity
  8
View003
100
AcDbLine
 10
159.3
 20
147.5
 30
0
 11
159.5
 21
147.5
 31
0
  0
LINE
  5
AE7
330
A02
100
AcDbEntity
  8
View003
100
AcDbLine
 10
184.7
 20
130.5
 30
0
 11
184.5
 21
130.5
 31
0
  0
LINE
  5
AE8
330
A02
100
AcDbEntity
  8
View003
100
AcDbLine
 10
159.3
 20
147.5
 30
0
 11
155.7
 21
147.5
 31
0
  0
LINE
  5
AE9
330
A02
100
AcDbEntity
  8
View003
100
AcDbLine
 10
184.5
 20
130.5
 30
0
 11
184.5
 21
130.3
 31
0
  0
LINE
  5
AEA
330
A02
100
AcDbEntity
  8
View003
100
AcDbLine
 10
155.5
 20
147.5
 30
0
 11
155.7
 21
147.5
 31
0
  0
LINE
  5
AEB
330
A02
100
AcDbEntity
  8
View003
100
AcDbLine
 10
155.5
 20
147.5
 30
0
 11
155.5
 21
130.5
 31
0
  0
LINE
  5
AEC
330
A02
100
AcDbEntity
  8
View003
100
AcDbLine
 10
184.5
 20
130.3
 30
0
 11
184.5
 21
113.5
 31
0
  0
LINE
  5
AED
330
A02
100
AcDbEntity
  8
View003
100
AcDbLine
 10
155.7
 20
130.5
 30
0
 11
155.5
 21
130.5
 31
0
  0
LINE
  5
AEE
330
A02
100
AcDbEntity
  8
View003
100
AcDbLine
 10
184.7
 20
113.5
 30
0
 11
184.5
 21
113.5
 31
0
  0
LINE
  5
AEF
330
A02
100
AcDbEntity
  8
View003
100
AcDbLine
 10
155.7
 20
130.5
 30
0
 11
159.3
 21
130.5
 31
0
  0
LINE
  5
AF0
330
A02
100
AcDbEntity
  8
View003
100
AcDbLine
 10
184.7
 20
113.5
 30
0
 11
188.3
 21
113.5
 31
0
  0
LINE
  5
AF1
330
A02
100
AcDbEntity
  8
View003
100
AcDbLine
 10
159.3
 20
130.5
 30
0
 11
159.5
 21
130.5
 31
0
  0
LINE
  5
AF2
330
A02
100
AcDbEntity
  8
View003
100
AcDbLine
 10
188.5
 20
113.5
 30
0
 11
188.3
 21
113.5
 31
0
  0
LINE
  5
AF3
330
A02
100
AcDbEntity
  8
View003
100
AcDbLine
 10
159.5
 20
130.5
 30
0
 11
159.5
 21
130.3
 31
0
  0
LINE
  5
AF4
330
A02
100
AcDbEntity
  8
View003
100
AcDbLine
 10
188.5
 20
99
 30
0
 11
188.5
 21
113.5
 31
0
  0
LINE
  5
AF5
330
A02
100
AcDbEntity
  8
View003
100
AcDbLine
 10
159.5
 20
130.3
 30
0
 11
159.5
 21
113.5
 31
0
  0
ARC
  5
AF6
330
A02
100
AcDbEntity
  8
View003
100
AcDbCircle
 10
183.5
 20
99
 30
0
 40
5
100
AcDbArc
 50
-90
 51
-1.28777e-09
  0
LINE
  5
AF7
330
A02
100
AcDbEntity
  8
View003
100
AcDbLine
 10
160.5
 20
94
 30
0
 11
183.5
 21
94
 31
0
  0
LINE
  5
AF8
330
A02
100
AcDbEntity
  8
View003
100
AcDbLine
 10
159.3
 20
113.5
 30
0
 11
159.5
 21
113.5
 31
0
  0
ARC
  5
AF9
330
A02
100
AcDbEntity
  8
View003
100
AcDbCircle
 10
160.5
 20
99
 30
0
 40
5
100
AcDbArc
 50
-180
 51
-90
  0
LINE
  5
AFA
330
A02
100
AcDbEntity
  8
View003
100
AcDbLine
 10
159.3
 20
113.5
 30
0
 11
155.7
 21
113.5
 31
0
  0
LINE
  5
AFB
330
A02
100
AcDbEntity
  8
View003
100
AcDbLine
 10
155.5
 20
113.5
 30
0
 11
155.5
 21
99
 31
0
  0
LINE
  5
AFC
330
A02
100
AcDbEntity
  8
View003
100
AcDbLine
 10
155.5
 20
113.5
 30
0
 11
155.7
 21
113.5
 31
0
  0
CIRCLE
  5
AFD
330
A02
100
AcDbEntity
  8
View003
100
AcDbCircle
 10
158.2
 20
215
 40
1.7
  0
CIRCLE
  5
AFE
330
A02
100
AcDbEntity
  8
View003
100
AcDbCircle
 10
160
 20
210
 40
1.475
  0
CIRCLE
  5
AFF
330
A02
100
AcDbEntity
  8
View003
100
AcDbCircle
 10
160
 20
220
 40
1.475
  0
CIRCLE
  5
B00
330
A02
100
AcDbEntity
  8
View003
100
AcDbCircle
 10
162.5
 20
234
 40
1.475
  0
LINE
  5
B01
330
A02
100
AcDbEntity
  8
View003
100
AcDbLine
 10
166
 20
99
 30
0
 11
166
 21
103
 31
0
  0
LINE
  5
B02
330
A02
100
AcDbEntity
  8
View003
100
AcDbLine
 10
178
 20
99
 30
0
 11
166
 21
99
 31
0
  0
LINE
  5
B03
330
A02
100
AcDbEntity
  8
View003
100
AcDbLine
 10
166
 20
103
 30
0
 11
178
 21
103
 31
0
  0
LINE
  5
B04
330
A02
100
AcDbEntity
  8
View003
100
AcDbLine
 10
178
 20
103
 30
0
 11
178
 21
99
 31
0
  0
CIRCLE
  5
B05
330
A02
100
AcDbEntity
  8
View003
100
AcDbCircle
 10
172
 20
111
 40
1.475
  0
CIRCLE
  5
B06
330
A02
100
AcDbEntity
  8
View003
100
AcDbCircle
 10
172
 20
163
 40
1.475
  0
LINE
  5
B07
330
A02
100
AcDbEntity
  8
View003
100
AcDbLine
 10
165.75
 20
208.3
 30
0
 11
163
 21
208.3
 31
0
  0
LINE
  5
B08
330
A02
100
AcDbEntity
  8
View003
100
AcDbLine
 10
165.75
 20
210
 30
0
 11
165.75
 21
208.3
 31
0
  0
LINE
  5
B09
330
A02
100
AcDbEntity
  8
View003
100
AcDbLine
 10
163
 20
208.3
 30
0
 11
163
 21
226.5
 31
0
  0
LINE
  5
B0A
330
A02
100
AcDbEntity
  8
View003
100
AcDbLine
 10
165.75
 20
210
 30
0
 11
166.75
 21
210
 31
0
  0
LINE
  5
B0B
330
A02
100
AcDbEntity
  8
View003
100
AcDbLine
 10
163
 20
226.5
 30
0
 11
164
 21
226.5
 31
0
  0
ARC
  5
B0C
330
A02
100
AcDbEntity
  8
View003
100
AcDbCircle
 10
166.75
 20
209.5
 30
0
 40
0.5
100
AcDbArc
 50
0
 51
90
  0
LINE
  5
B0D
330
A02
100
AcDbEntity
  8
View003
100
AcDbLine
 10
164
 20
228
 30
0
 11
164
 21
226.5
 31
0
  0
ARC
  5
B0E
330
A02
100
AcDbEntity
  8
View003
100
AcDbCircle
 10
168.75
 20
209.5
 30
0
 40
1.5
100
AcDbArc
 50
180
 51
-90
  0
ARC
  5
B0F
330
A02
100
AcDbEntity
  8
View003
100
AcDbCircle
 10
172
 20
228
 30
0
 40
8
100
AcDbArc
 50
116.744
 51
180
  0
LINE
  5
B10
330
A02
100
AcDbEntity
  8
View003
100
AcDbLine
 10
168.75
 20
208
 30
0
 11
175.25
 21
208
 31
0
  0
ARC
  5
B11
330
A02
100
AcDbEntity
  8
View003
100
AcDbCircle
 10
167.5
 20
236.93
 30
0
 40
2
100
AcDbArc
 50
-63.2563
 51
0
  0
ARC
  5
B12
330
A02
100
AcDbEntity
  8
View003
100
AcDbCircle
 10
175.25
 20
209.5
 30
0
 40
1.5
100
AcDbArc
 50
-90
 51
0
  0
LINE
  5
B13
330
A02
100
AcDbEntity
  8
View003
100
AcDbLine
 10
169.5
 20
236.93
 30
0
 11
169.5
 21
244
 31
0
  0
ARC
  5
B14
330
A02
100
AcDbEntity
  8
View003
100
AcDbCircle
 10
177.25
 20
209.5
 30
0
 40
0.5
100
AcDbArc
 50
90
 51
180
  0
ARC
  5
B15
330
A02
100
AcDbEntity
  8
View003
100
AcDbCircle
 10
170.5
 20
244
 30
0
 40
1
100
AcDbArc
 50
90
 51
180
  0
LINE
  5
B16
330
A02
100
AcDbEntity
  8
View003
100
AcDbLine
 10
177.25
 20
210
 30
0
 11
178.25
 21
210
 31
0
  0
LINE
  5
B17
330
A02
100
AcDbEntity
  8
View003
100
AcDbLine
 10
170.5
 20
245
 30
0
 11
173.5
 21
245
 31
0
  0
LINE
  5
B18
330
A02
100
AcDbEntity
  8
View003
100
AcDbLine
 10
178.25
 20
208.3
 30
0
 11
178.25
 21
210
 31
0
  0
ARC
  5
B19
330
A02
100
AcDbEntity
  8
View003
100
AcDbCircle
 10
173.5
 20
244
 30
0
 40
1
100
AcDbArc
 50
0
 51
90
  0
LINE
  5
B1A
330
A02
100
AcDbEntity
  8
View003
100
AcDbLine
 10
181
 20
208.3
 30
0
 11
178.25
 21
208.3
 31
0
  0
LINE
  5
B1B
330
A02
100
AcDbEntity
  8
View003
100
AcDbLine
 10
174.5
 20
244
 30
0
 11
174.5
 21
236.93
 31
0
  0
LINE
  5
B1C
330
A02
100
AcDbEntity
  8
View003
100
AcDbLine
 10
181
 20
226.5
 30
0
 11
181
 21
208.3
 31
0
  0
ARC
  5
B1D
330
A02
100
AcDbEntity
  8
View003
100
AcDbCircle
 10
176.5
 20
236.93
 30
0
 40
2
100
AcDbArc
 50
180
 51
-116.744
  0
LINE
  5
B1E
330
A02
100
AcDbEntity
  8
View003
100
AcDbLine
 10
180
 20
226.5
 30
0
 11
181
 21
226.5
 31
0
  0
ARC
  5
B1F
330
A02
100
AcDbEntity
  8
View003
100
AcDbCircle
 10
172
 20
228
 30
0
 40
8
100
AcDbArc
 50
0
 51
63.2563
  0
LINE
  5
B20
330
A02
100
AcDbEntity
  8
View003
100
AcDbLine
 10
180
 20
226.5
 30
0
 11
180
 21
228
 31
0
  0
CIRCLE
  5
B21
330
A02
100
AcDbEntity
  8
View003
100
AcDbCircle
 10
172
 20
250
 40
1.475
  0
CIRCLE
  5
B22
330
A02
100
AcDbEntity
  8
View003
100
AcDbCircle
 10
172
 20
288
 40
1.475
  0
CIRCLE
  5
B23
330
A02
100
AcDbEntity
  8
View003
100
AcDbCircle
 10
181.5
 20
234
 40
1.475
  0
CIRCLE
  5
B24
330
A02
100
AcDbEntity
  8
View003
100
AcDbCircle
 10
184
 20
210
 40
1.475
  0
CIRCLE
  5
B25
330
A02
100
AcDbEntity
  8
View003
100
AcDbCircle
 10
185.8
 20
215
 40
1.7
  0
CIRCLE
  5
B26
330
A02
100
AcDbEntity
  8
View003
100
AcDbCircle
 10
184
 20
220
 40
1.475
  0
CIRCLE
  5
B27
330
A02
100
AcDbEntity
  8
View003
100
AcDbCircle
 10
172
 20
326
 40
1.475
  0
CIRCLE
  5
B28
330
A02
100
AcDbEntity
  8
View003
100
AcDbCircle
 10
172
 20
364
 40
1.475
  0
CIRCLE
  5
B29
330
A02
100
AcDbEntity
  8
View003
100
AcDbCircle
 10
172
 20
402
 40
1.475
  0
CIRCLE
  5
B2A
330
A02
100
AcDbEntity
  8
View003
100
AcDbCircle
 10
172
 20
440
 40
1.475
  0
CIRCLE
  5
B2B
330
A02
100
AcDbEntity
  8
View003
100
AcDbCircle
 10
172
 20
478
 40
1.475
  0
ARC
  5
B2C
330
A02
100
AcDbEntity
  8
View004
100
AcDbCircle
 10
88.0611
 20
456.604
 30
0
 40
12
100
AcDbArc
 50
5.89583
 51
37.6182
  0
ARC
  5
B2D
330
A02
100
AcDbEntity
  8
View004
100
AcDbCircle
 10
102.2
 20
467.5
 30
0
 40
5.85
100
AcDbArc
 50
137.236
 51
-142.382
  0
ARC
  5
B2E
330
A02
100
AcDbEntity
  8
View004
100
AcDbCircle
 10
93.5002
 20
475.546
 30
0
 40
6
100
AcDbArc
 50
-42.7635
 51
-0.437747
  0
LINE
  5
B2F
330
A02
100
AcDbEntity
  8
View004
100
AcDbLine
 10
99.5
 20
476.5
 30
0
 11
99.5
 21
475.5
 31
0
  0
LINE
  5
B30
330
A02
100
AcDbEntity
  8
View004
100
AcDbLine
 10
132.5
 20
476.5
 30
0
 11
99.5
 21
476.5
 31
0
  0
LINE
  5
B31
330
A02
100
AcDbEntity
  8
View004
100
AcDbLine
 10
132.5
 20
475.5
 30
0
 11
132.5
 21
476.5
 31
0
  0
ARC
  5
B32
330
A02
100
AcDbEntity
  8
View004
100
AcDbCircle
 10
138.5
 20
475.546
 30
0
 40
6
100
AcDbArc
 50
-179.562
 51
-137.236
  0
ARC
  5
B33
330
A02
100
AcDbEntity
  8
View004
100
AcDbCircle
 10
129.8
 20
467.5
 30
0
 40
5.85
100
AcDbArc
 50
-37.6182
 51
42.7635
  0
ARC
  5
B34
330
A02
100
AcDbEntity
  8
View004
100
AcDbCircle
 10
143.939
 20
456.604
 30
0
 40
12
100
AcDbArc
 50
142.382
 51
174.104
  0
ARC
  5
B35
330
A02
100
AcDbEntity
  8
View004
100
AcDbCircle
 10
38.4296
 20
467.5
 30
0
 40
94.0704
100
AcDbArc
 50
-15.4536
 51
-5.89583
  0
ARC
  5
B36
330
A02
100
AcDbEntity
  8
View004
100
AcDbCircle
 10
125.244
 20
443.5
 30
0
 40
4
100
AcDbArc
 50
-90
 51
-15.4536
  0
LINE
  5
B37
330
A02
100
AcDbEntity
  8
View004
100
AcDbLine
 10
125.244
 20
439.5
 30
0
 11
122.5
 21
439.5
 31
0
  0
ARC
  5
B38
330
A02
100
AcDbEntity
  8
View004
100
AcDbCircle
 10
122.5
 20
442.5
 30
0
 40
3
100
AcDbArc
 50
180
 51
-90
  0
LINE
  5
B39
330
A02
100
AcDbEntity
  8
View004
100
AcDbLine
 10
122.5
 20
442.5
 30
0
 11
119.5
 21
442.5
 31
0
  0
LINE
  5
B3A
330
A02
100
AcDbEntity
  8
View004
100
AcDbLine
 10
122.5
 20
442.5
 30
0
 11
122.5
 21
449
 31
0
  0
LINE
  5
B3B
330
A02
100
AcDbEntity
  8
View004
100
AcDbLine
 10
122.5
 20
449
 30
0
 11
122.135
 21
449.365
 31
0
  0
ARC
  5
B3C
330
A02
100
AcDbEntity
  8
View004
100
AcDbCircle
 10
116
 20
454.5
 30
0
 40
8
100
AcDbArc
 50
-39.9291
 51
0
  0
LINE
  5
B3D
330
A02
100
AcDbEntity
  8
View004
100
AcDbLine
 10
124
 20
454.5
 30
0
 11
124
 21
456
 31
0
  0
LINE
  5
B3E
330
A02
100
AcDbEntity
  8
View004
100
AcDbLine
 10
125
 20
456
 30
0
 11
124
 21
456
 31
0
  0
LINE
  5
B3F
330
A02
100
AcDbEntity
  8
View004
100
AcDbLine
 10
125
 20
474.2
 30
0
 11
125
 21
456
 31
0
  0
LINE
  5
B40
330
A02
100
AcDbEntity
  8
View004
100
AcDbLine
 10
122.25
 20
474.2
 30
0
 11
125
 21
474.2
 31
0
  0
LINE
  5
B41
330
A02
100
AcDbEntity
  8
View004
100
AcDbLine
 10
122.25
 20
472.5
 30
0
 11
122.25
 21
474.2
 31
0
  0
LINE
  5
B42
330
A02
100
AcDbEntity
  8
View004
100
AcDbLine
 10
122.25
 20
472.5
 30
0
 11
121.25
 21
472.5
 31
0
  0
ARC
  5
B43
330
A02
100
AcDbEntity
  8
View004
100
AcDbCircle
 10
121.25
 20
473
 30
0
 40
0.5
100
AcDbArc
 50
180
 51
-90
  0
ARC
  5
B44
330
A02
100
AcDbEntity
  8
View004
100
AcDbCircle
 10
119.25
 20
473
 30
0
 40
1.5
100
AcDbArc
 50
0
 51
90
  0
LINE
  5
B45
330
A02
100
AcDbEntity
  8
View004
100
AcDbLine
 10
119.25
 20
474.5
 30
0
 11
112.75
 21
474.5
 31
0
  0
ARC
  5
B46
330
A02
100
AcDbEntity
  8
View004
100
AcDbCircle
 10
112.75
 20
473
 30
0
 40
1.5
100
AcDbArc
 50
90
 51
180
  0
ARC
  5
B47
330
A02
100
AcDbEntity
  8
View004
100
AcDbCircle
 10
110.75
 20
473
 30
0
 40
0.5
100
AcDbArc
 50
-90
 51
0
  0
LINE
  5
B48
330
A02
100
AcDbEntity
  8
View004
100
AcDbLine
 10
110.75
 20
472.5
 30
0
 11
109.75
 21
472.5
 31
0
  0
LINE
  5
B49
330
A02
100
AcDbEntity
  8
View004
100
AcDbLine
 10
109.75
 20
474.2
 30
0
 11
109.75
 21
472.5
 31
0
  0
LINE
  5
B4A
330
A02
100
AcDbEntity
  8
View004
100
AcDbLine
 10
107
 20
474.2
 30
0
 11
109.75
 21
474.2
 31
0
  0
LINE
  5
B4B
330
A02
100
AcDbEntity
  8
View004
100
AcDbLine
 10
107
 20
456
 30
0
 11
107
 21
474.2
 31
0
  0
LINE
  5
B4C
330
A02
100
AcDbEntity
  8
View004
100
AcDbLine
 10
108
 20
456
 30
0
 11
107
 21
456
 31
0
  0
LINE
  5
B4D
330
A02
100
AcDbEntity
  8
View004
100
AcDbLine
 10
108
 20
456
 30
0
 11
108
 21
454.5
 31
0
  0
ARC
  5
B4E
330
A02
100
AcDbEntity
  8
View004
100
AcDbCircle
 10
116
 20
454.5
 30
0
 40
8
100
AcDbArc
 50
180
 51
-140.071
  0
LINE
  5
B4F
330
A02
100
AcDbEntity
  8
View004
100
AcDbLine
 10
109.865
 20
449.365
 30
0
 11
109.5
 21
449
 31
0
  0
LINE
  5
B50
330
A02
100
AcDbEntity
  8
View004
100
AcDbLine
 10
109.5
 20
449
 30
0
 11
109.5
 21
442.5
 31
0
  0
LINE
  5
B51
330
A02
100
AcDbEntity
  8
View004
100
AcDbLine
 10
112.5
 20
442.5
 30
0
 11
109.5
 21
442.5
 31
0
  0
ARC
  5
B52
330
A02
100
AcDbEntity
  8
View004
100
AcDbCircle
 10
109.5
 20
442.5
 30
0
 40
3
100
AcDbArc
 50
-90
 51
0
  0
LINE
  5
B53
330
A02
100
AcDbEntity
  8
View004
100
AcDbLine
 10
109.5
 20
439.5
 30
0
 11
106.756
 21
439.5
 31
0
  0
ARC
  5
B54
330
A02
100
AcDbEntity
  8
View004
100
AcDbCircle
 10
106.756
 20
443.5
 30
0
 40
4
100
AcDbArc
 50
-164.546
 51
-90
  0
ARC
  5
B55
330
A02
100
AcDbEntity
  8
View004
100
AcDbCircle
 10
193.57
 20
467.5
 30
0
 40
94.0704
100
AcDbArc
 50
-174.104
 51
-164.546
  0
CIRCLE
  5
B56
330
A02
100
AcDbEntity
  8
View004
100
AcDbCircle
 10
128
 20
472.5
 40
1.475
  0
CIRCLE
  5
B57
330
A02
100
AcDbEntity
  8
View004
100
AcDbCircle
 10
129.8
 20
467.5
 40
1.7
  0
CIRCLE
  5
B58
330
A02
100
AcDbEntity
  8
View004
100
AcDbCircle
 10
128
 20
462.5
 40
1.475
  0
CIRCLE
  5
B59
330
A02
100
AcDbEntity
  8
View004
100
AcDbCircle
 10
104
 20
472.5
 40
1.475
  0
CIRCLE
  5
B5A
330
A02
100
AcDbEntity
  8
View004
100
AcDbCircle
 10
102.2
 20
467.5
 40
1.7
  0
CIRCLE
  5
B5B
330
A02
100
AcDbEntity
  8
View004
100
AcDbCircle
 10
104
 20
462.5
 40
1.475
  0
CIRCLE
  5
B5C
330
A02
100
AcDbEntity
  8
View004
100
AcDbCircle
 10
125.5
 20
448.5
 40
1.475
  0
CIRCLE
  5
B5D
330
A02
100
AcDbEntity
  8
View004
100
AcDbCircle
 10
106.5
 20
448.5
 40
1.475
  0
ARC
  5
B5E
330
A02
100
AcDbEntity
  8
View005
100
AcDbCircle
 10
143.939
 20
332.396
 30
0
 40
12
100
AcDbArc
 50
-174.104
 51
-142.382
  0
ARC
  5
B5F
330
A02
100
AcDbEntity
  8
View005
100
AcDbCircle
 10
129.8
 20
321.5
 30
0
 40
5.85
100
AcDbArc
 50
-42.7635
 51
37.6182
  0
ARC
  5
B60
330
A02
100
AcDbEntity
  8
View005
100
AcDbCircle
 10
138.5
 20
313.454
 30
0
 40
6
100
AcDbArc
 50
137.236
 51
179.562
  0
LINE
  5
B61
330
A02
100
AcDbEntity
  8
View005
100
AcDbLine
 10
132.5
 20
312.5
 30
0
 11
132.5
 21
313.5
 31
0
  0
LINE
  5
B62
330
A02
100
AcDbEntity
  8
View005
100
AcDbLine
 10
99.5
 20
312.5
 30
0
 11
132.5
 21
312.5
 31
0
  0
LINE
  5
B63
330
A02
100
AcDbEntity
  8
View005
100
AcDbLine
 10
99.5
 20
313.5
 30
0
 11
99.5
 21
312.5
 31
0
  0
ARC
  5
B64
330
A02
100
AcDbEntity
  8
View005
100
AcDbCircle
 10
93.5002
 20
313.454
 30
0
 40
6
100
AcDbArc
 50
0.437747
 51
42.7635
  0
ARC
  5
B65
330
A02
100
AcDbEntity
  8
View005
100
AcDbCircle
 10
102.2
 20
321.5
 30
0
 40
5.85
100
AcDbArc
 50
142.382
 51
-137.236
  0
ARC
  5
B66
330
A02
100
AcDbEntity
  8
View005
100
AcDbCircle
 10
88.0611
 20
332.396
 30
0
 40
12
100
AcDbArc
 50
-37.6182
 51
-5.89583
  0
ARC
  5
B67
330
A02
100
AcDbEntity
  8
View005
100
AcDbCircle
 10
193.57
 20
321.5
 30
0
 40
94.0704
100
AcDbArc
 50
164.546
 51
174.104
  0
ARC
  5
B68
330
A02
100
AcDbEntity
  8
View005
100
AcDbCircle
 10
106.756
 20
345.5
 30
0
 40
4
100
AcDbArc
 50
90
 51
164.546
  0
LINE
  5
B69
330
A02
100
AcDbEntity
  8
View005
100
AcDbLine
 10
106.756
 20
349.5
 30
0
 11
109.5
 21
349.5
 31
0
  0
ARC
  5
B6A
330
A02
100
AcDbEntity
  8
View005
100
AcDbCircle
 10
109.5
 20
346.5
 30
0
 40
3
100
AcDbArc
 50
0
 51
90
  0
LINE
  5
B6B
330
A02
100
AcDbEntity
  8
View005
100
AcDbLine
 10
109.5
 20
346.5
 30
0
 11
112.5
 21
346.5
 31
0
  0
LINE
  5
B6C
330
A02
100
AcDbEntity
  8
View005
100
AcDbLine
 10
109.5
 20
346.5
 30
0
 11
109.5
 21
340
 31
0
  0
LINE
  5
B6D
330
A02
100
AcDbEntity
  8
View005
100
AcDbLine
 10
109.5
 20
340
 30
0
 11
110.6
 21
338.9
 31
0
  0
LINE
  5
B6E
330
A02
100
AcDbEntity
  8
View005
100
AcDbLine
 10
110.6
 20
338.9
 30
0
 11
110.6
 21
333.7
 31
0
  0
LINE
  5
B6F
330
A02
100
AcDbEntity
  8
View005
100
AcDbLine
 10
110.6
 20
333.7
 30
0
 11
112.1
 21
333.7
 31
0
  0
LINE
  5
B70
330
A02
100
AcDbEntity
  8
View005
100
AcDbLine
 10
112.1
 20
333.7
 30
0
 11
112.1
 21
338.9
 31
0
  0
LINE
  5
B71
330
A02
100
AcDbEntity
  8
View005
100
AcDbLine
 10
112.1
 20
338.9
 30
0
 11
115
 21
338.9
 31
0
  0
LINE
  5
B72
330
A02
100
AcDbEntity
  8
View005
100
AcDbLine
 10
115
 20
338.9
 30
0
 11
115
 21
333.7
 31
0
  0
LINE
  5
B73
330
A02
100
AcDbEntity
  8
View005
100
AcDbLine
 10
115
 20
333.7
 30
0
 11
116.4
 21
333.7
 31
0
  0
LINE
  5
B74
330
A02
100
AcDbEntity
  8
View005
100
AcDbLine
 10
116.4
 20
333.7
 30
0
 11
116.4
 21
321.5
 31
0
  0
LINE
  5
B75
330
A02
100
AcDbEntity
  8
View005
100
AcDbLine
 10
116.4
 20
321.5
 30
0
 11
122.25
 21
321.5
 31
0
  0
LINE
  5
B76
330
A02
100
AcDbEntity
  8
View005
100
AcDbLine
 10
122.25
 20
314.8
 30
0
 11
122.25
 21
321.5
 31
0
  0
LINE
  5
B77
330
A02
100
AcDbEntity
  8
View005
100
AcDbLine
 10
125
 20
314.8
 30
0
 11
122.25
 21
314.8
 31
0
  0
LINE
  5
B78
330
A02
100
AcDbEntity
  8
View005
100
AcDbLine
 10
125
 20
333
 30
0
 11
125
 21
314.8
 31
0
  0
LINE
  5
B79
330
A02
100
AcDbEntity
  8
View005
100
AcDbLine
 10
122.25
 20
333
 30
0
 11
125
 21
333
 31
0
  0
LINE
  5
B7A
330
A02
100
AcDbEntity
  8
View005
100
AcDbLine
 10
122.25
 20
333
 30
0
 11
122.25
 21
334.5
 31
0
  0
LINE
  5
B7B
330
A02
100
AcDbEntity
  8
View005
100
AcDbLine
 10
121.4
 20
334.5
 30
0
 11
122.25
 21
334.5
 31
0
  0
LINE
  5
B7C
330
A02
100
AcDbEntity
  8
View005
100
AcDbLine
 10
121.4
 20
334.5
 30
0
 11
121.4
 21
338.9
 31
0
  0
LINE
  5
B7D
330
A02
100
AcDbEntity
  8
View005
100
AcDbLine
 10
121.4
 20
338.9
 30
0
 11
122.5
 21
340
 31
0
  0
LINE
  5
B7E
330
A02
100
AcDbEntity
  8
View005
100
AcDbLine
 10
122.5
 20
340
 30
0
 11
122.5
 21
346.5
 31
0
  0
LINE
  5
B7F
330
A02
100
AcDbEntity
  8
View005
100
AcDbLine
 10
119.5
 20
346.5
 30
0
 11
122.5
 21
346.5
 31
0
  0
ARC
  5
B80
330
A02
100
AcDbEntity
  8
View005
100
AcDbCircle
 10
122.5
 20
346.5
 30
0
 40
3
100
AcDbArc
 50
90
 51
180
  0
LINE
  5
B81
330
A02
100
AcDbEntity
  8
View005
100
AcDbLine
 10
122.5
 20
349.5
 30
0
 11
125.244
 21
349.5
 31
0
  0
ARC
  5
B82
330
A02
100
AcDbEntity
  8
View005
100
AcDbCircle
 10
125.244
 20
345.5
 30
0
 40
4
100
AcDbArc
 50
15.4536
 51
90
  0
ARC
  5
B83
330
A02
100
AcDbEntity
  8
View005
100
AcDbCircle
 10
38.4296
 20
321.5
 30
0
 40
94.0704
100
AcDbArc
 50
5.89583
 51
15.4536
  0
CIRCLE
  5
B84
330
A02
100
AcDbEntity
  8
View005
100
AcDbCircle
 10
104
 20
316.5
 40
1.475
  0
CIRCLE
  5
B85
330
A02
100
AcDbEntity
  8
View005
100
AcDbCircle
 10
102.2
 20
321.5
 40
1.7
  0
CIRCLE
  5
B86
330
A02
100
AcDbEntity
  8
View005
100
AcDbCircle
 10
104
 20
326.5
 40
1.475
  0
CIRCLE
  5
B87
330
A02
100
AcDbEntity
  8
View005
100
AcDbCircle
 10
128
 20
316.5
 40
1.475
  0
CIRCLE
  5
B88
330
A02
100
AcDbEntity
  8
View005
100
AcDbCircle
 10
129.8
 20
321.5
 40
1.7
  0
CIRCLE
  5
B89
330
A02
100
AcDbEntity
  8
View005
100
AcDbCircle
 10
128
 20
326.5
 40
1.475
  0
CIRCLE
  5
B8A
330
A02
100
AcDbEntity
  8
View005
100
AcDbCircle
 10
106.5
 20
340.5
 40
1.475
  0
CIRCLE
  5
B8B
330
A02
100
AcDbEntity
  8
View005
100
AcDbCircle
 10
125.5
 20
340.5
 40
1.475
  0
ARC
  5
B8C
330
A02
100
AcDbEntity
  8
View006
100
AcDbCircle
 10
90.0611
 20
242.604
 30
0
 40
12
100
AcDbArc
 50
5.89583
 51
37.6182
  0
ARC
  5
B8D
330
A02
100
AcDbEntity
  8
View006
100
AcDbCircle
 10
104.2
 20
253.5
 30
0
 40
5.85
100
AcDbArc
 50
137.236
 51
-142.382
  0
ARC
  5
B8E
330
A02
100
AcDbEntity
  8
View006
100
AcDbCircle
 10
95.5002
 20
261.546
 30
0
 40
6
100
AcDbArc
 50
-42.7635
 51
-0.437747
  0
LINE
  5
B8F
330
A02
100
AcDbEntity
  8
View006
100
AcDbLine
 10
101.5
 20
262.5
 30
0
 11
101.5
 21
261.5
 31
0
  0
LINE
  5
B90
330
A02
100
AcDbEntity
  8
View006
100
AcDbLine
 10
111.5
 20
262.5
 30
0
 11
101.5
 21
262.5
 31
0
  0
LINE
  5
B91
330
A02
100
AcDbEntity
  8
View006
100
AcDbLine
 10
111.5
 20
256.7
 30
0
 11
111.5
 21
262.5
 31
0
  0
LINE
  5
B92
330
A02
100
AcDbEntity
  8
View006
100
AcDbLine
 10
108.5
 20
256.7
 30
0
 11
111.5
 21
256.7
 31
0
  0
LINE
  5
B93
330
A02
100
AcDbEntity
  8
View006
100
AcDbLine
 10
108.5
 20
254.3
 30
0
 11
108.5
 21
256.7
 31
0
  0
LINE
  5
B94
330
A02
100
AcDbEntity
  8
View006
100
AcDbLine
 10
111.5
 20
254.3
 30
0
 11
108.5
 21
254.3
 31
0
  0
LINE
  5
B95
330
A02
100
AcDbEntity
  8
View006
100
AcDbLine
 10
111.5
 20
247.5
 30
0
 11
111.5
 21
254.3
 31
0
  0
LINE
  5
B96
330
A02
100
AcDbEntity
  8
View006
100
AcDbLine
 10
124.5
 20
247.5
 30
0
 11
111.5
 21
247.5
 31
0
  0
LINE
  5
B97
330
A02
100
AcDbEntity
  8
View006
100
AcDbLine
 10
124.5
 20
254.3
 30
0
 11
124.5
 21
247.5
 31
0
  0
LINE
  5
B98
330
A02
100
AcDbEntity
  8
View006
100
AcDbLine
 10
127.5
 20
254.3
 30
0
 11
124.5
 21
254.3
 31
0
  0
LINE
  5
B99
330
A02
100
AcDbEntity
  8
View006
100
AcDbLine
 10
127.5
 20
256.7
 30
0
 11
127.5
 21
254.3
 31
0
  0
LINE
  5
B9A
330
A02
100
AcDbEntity
  8
View006
100
AcDbLine
 10
124.5
 20
256.7
 30
0
 11
127.5
 21
256.7
 31
0
  0
LINE
  5
B9B
330
A02
100
AcDbEntity
  8
View006
100
AcDbLine
 10
124.5
 20
262.5
 30
0
 11
124.5
 21
256.7
 31
0
  0
LINE
  5
B9C
330
A02
100
AcDbEntity
  8
View006
100
AcDbLine
 10
134.5
 20
262.5
 30
0
 11
124.5
 21
262.5
 31
0
  0
LINE
  5
B9D
330
A02
100
AcDbEntity
  8
View006
100
AcDbLine
 10
134.5
 20
261.5
 30
0
 11
134.5
 21
262.5
 31
0
  0
ARC
  5
B9E
330
A02
100
AcDbEntity
  8
View006
100
AcDbCircle
 10
140.5
 20
261.546
 30
0
 40
6
100
AcDbArc
 50
-179.562
 51
-137.236
  0
ARC
  5
B9F
330
A02
100
AcDbEntity
  8
View006
100
AcDbCircle
 10
131.8
 20
253.5
 30
0
 40
5.85
100
AcDbArc
 50
-37.6182
 51
42.7635
  0
ARC
  5
BA0
330
A02
100
AcDbEntity
  8
View006
100
AcDbCircle
 10
145.939
 20
242.604
 30
0
 40
12
100
AcDbArc
 50
142.382
 51
174.104
  0
ARC
  5
BA1
330
A02
100
AcDbEntity
  8
View006
100
AcDbCircle
 10
40.4296
 20
253.5
 30
0
 40
94.0704
100
AcDbArc
 50
-15.4536
 51
-5.89583
  0
ARC
  5
BA2
330
A02
100
AcDbEntity
  8
View006
100
AcDbCircle
 10
127.244
 20
229.5
 30
0
 40
4
100
AcDbArc
 50
-90
 51
-15.4536
  0
LINE
  5
BA3
330
A02
100
AcDbEntity
  8
View006
100
AcDbLine
 10
127.244
 20
225.5
 30
0
 11
108.756
 21
225.5
 31
0
  0
ARC
  5
BA4
330
A02
100
AcDbEntity
  8
View006
100
AcDbCircle
 10
108.756
 20
229.5
 30
0
 40
4
100
AcDbArc
 50
-164.546
 51
-90
  0
ARC
  5
BA5
330
A02
100
AcDbEntity
  8
View006
100
AcDbCircle
 10
195.57
 20
253.5
 30
0
 40
94.0704
100
AcDbArc
 50
-174.104
 51
-164.546
  0
CIRCLE
  5
BA6
330
A02
100
AcDbEntity
  8
View006
100
AcDbCircle
 10
130
 20
258.5
 40
1.475
  0
CIRCLE
  5
BA7
330
A02
100
AcDbEntity
  8
View006
100
AcDbCircle
 10
131.8
 20
253.5
 40
1.7
  0
CIRCLE
  5
BA8
330
A02
100
AcDbEntity
  8
View006
100
AcDbCircle
 10
130
 20
248.5
 40
1.475
  0
CIRCLE
  5
BA9
330
A02
100
AcDbEntity
  8
View006
100
AcDbCircle
 10
106
 20
258.5
 40
1.475
  0
CIRCLE
  5
BAA
330
A02
100
AcDbEntity
  8
View006
100
AcDbCircle
 10
104.2
 20
253.5
 40
1.7
  0
CIRCLE
  5
BAB
330
A02
100
AcDbEntity
  8
View006
100
AcDbCircle
 10
106
 20
248.5
 40
1.475
  0
CIRCLE
  5
BAC
330
A02
100
AcDbEntity
  8
View006
100
AcDbCircle
 10
127.5
 20
234.5
 40
1.475
  0
CIRCLE
  5
BAD
330
A02
100
AcDbEntity
  8
View006
100
AcDbCircle
 10
108.5
 20
234.5
 40
1.475
  0
LINE
  5
BAE
330
A02
100
AcDbEntity
  8
View007
100
AcDbLine
 10
66.5
 20
453.675
 30
0
 11
66.5
 21
443.175
 31
0
  0
LINE
  5
BAF
330
A02
100
AcDbEntity
  8
View007
100
AcDbLine
 10
67.5
 20
453.675
 30
0
 11
66.5
 21
453.675
 31
0
  0
ARC
  5
BB0
330
A02
100
AcDbEntity
  8
View007
100
AcDbCircle
 10
67.4542
 20
459.675
 30
0
 40
6
100
AcDbArc
 50
-89.5623
 51
-47.2365
  0
ARC
  5
BB1
330
A02
100
AcDbEntity
  8
View007
100
AcDbCircle
 10
75.5
 20
450.975
 30
0
 40
5.85
100
AcDbArc
 50
52.3818
 51
132.764
  0
ARC
  5
BB2
330
A02
100
AcDbEntity
  8
View007
100
AcDbCircle
 10
86.3956
 20
465.114
 30
0
 40
12
100
AcDbArc
 50
-127.618
 51
-95.8958
  0
ARC
  5
BB3
330
A02
100
AcDbEntity
  8
View007
100
AcDbCircle
 10
75.5
 20
359.605
 30
0
 40
94.0704
100
AcDbArc
 50
82.3438
 51
84.1042
  0
ARC
  5
BB4
330
A02
100
AcDbEntity
  8
View007
100
AcDbCircle
 10
87.5
 20
448.872
 30
0
 40
4
100
AcDbArc
 50
0
 51
82.3438
  0
LINE
  5
BB5
330
A02
100
AcDbEntity
  8
View007
100
AcDbLine
 10
91.5
 20
446.175
 30
0
 11
91.5
 21
448.872
 31
0
  0
ARC
  5
BB6
330
A02
100
AcDbEntity
  8
View007
100
AcDbCircle
 10
88.5
 20
446.175
 30
0
 40
3
100
AcDbArc
 50
-90
 51
0
  0
LINE
  5
BB7
330
A02
100
AcDbEntity
  8
View007
100
AcDbLine
 10
88.5
 20
443.175
 30
0
 11
66.5
 21
443.175
 31
0
  0
CIRCLE
  5
BB8
330
A02
100
AcDbEntity
  8
View007
100
AcDbCircle
 10
75.5
 20
450.975
 40
1.7
  0
CIRCLE
  5
BB9
330
A02
100
AcDbEntity
  8
View007
100
AcDbCircle
 10
70.5
 20
449.175
 40
1.475
  0
CIRCLE
  5
BBA
330
A02
100
AcDbEntity
  8
View007
100
AcDbCircle
 10
80.5
 20
449.175
 40
1.475
  0
SPLINE
  5
BBB
330
A02
100
AcDbEntity
  8
View008
100
AcDbSpline
210
0
220
0
230
1
 70
8
 71
1
 72
4
 73
2
 74
0
 40
6.5
 40
6.5
 40
17
 40
17
 10
67.325
 20
468.5
 30
0
 10
77.825
 20
468.5
 30
0
  0
SPLINE
  5
BBC
330
A02
100
AcDbEntity
  8
View008
100
AcDbSpline
210
0
220
0
230
1
 70
8
 71
1
 72
4
 73
2
 74
0
 40
8
 40
8
 40
9
 40
9
 10
67.325
 20
469.5
 30
0
 10
67.325
 20
468.5
 30
0
  0
SPLINE
  5
BBD
330
A02
100
AcDbEntity
  8
View008
100
AcDbSpline
210
0
220
0
230
1
 70
8
 71
3
 72
11
 73
7
 74
0
 40
0.00764013
 40
0.00764013
 40
0.00764013
 40
0.00764013
 40
0.377002
 40
0.377002
 40
0.377002
 40
0.746364
 40
0.746364
 40
0.746364
 40
0.746364
 10
67.325
 20
469.5
 30
0
 10
67.3205
 20
470.222
 30
0
 10
67.1799
 20
470.968
 30
0
 10
66.9038
 20
471.663
 30
0
 10
66.6295
 20
472.358
 30
0
 10
66.221
 20
472.999
 30
0
 10
65.7301
 20
473.528
 30
0
  0
SPLINE
  5
BBE
330
A02
100
AcDbEntity
  8
View008
100
AcDbSpline
210
0
220
0
230
1
 70
8
 71
3
 72
17
 73
13
 74
0
 40
2.48503
 40
2.48503
 40
2.48503
 40
2.48503
 40
2.83576
 40
2.83576
 40
2.83576
 40
3.18649
 40
3.18649
 40
3.18649
 40
3.53723
 40
3.53723
 40
3.53723
 40
3.88796
 40
3.88796
 40
3.88796
 40
3.88796
 10
65.3912
 20
481.071
 30
0
 10
65.007
 20
480.573
 30
0
 10
64.6813
 20
479.98
 30
0
 10
64.4664
 20
479.323
 30
0
 10
64.2504
 20
478.668
 30
0
 10
64.148
 20
477.95
 30
0
 10
64.1809
 20
477.237
 30
0
 10
64.2121
 20
476.524
 30
0
 10
64.3784
 20
475.819
 30
0
 10
64.6523
 20
475.186
 30
0
 10
64.9252
 20
474.551
 30
0
 10
65.3028
 20
473.989
 30
0
 10
65.7301
 20
473.528
 30
0
  0
SPLINE
  5
BBF
330
A02
100
AcDbEntity
  8
View008
100
AcDbSpline
210
0
220
0
230
1
 70
8
 71
3
 72
11
 73
7
 74
0
 40
5.62662
 40
5.62662
 40
5.62662
 40
5.62662
 40
5.90345
 40
5.90345
 40
5.90345
 40
6.18028
 40
6.18028
 40
6.18028
 40
6.18028
 10
65.3912
 20
481.071
 30
0
 10
66.059
 20
481.936
 30
0
 10
66.6187
 20
482.912
 30
0
 10
67.0313
 20
483.948
 30
0
 10
67.445
 20
484.983
 30
0
 10
67.7109
 20
486.075
 30
0
 10
67.8226
 20
487.163
 30
0
  0
SPLINE
  5
BC0
330
A02
100
AcDbEntity
  8
View008
100
AcDbSpline
210
0
220
0
230
1
 70
8
 71
2
 72
6
 73
3
 74
0
 40
3.00797
 40
3.00797
 40
3.00797
 40
3.03869
 40
3.03869
 40
3.03869
 10
68.1636
 20
490.033
 30
0
 10
67.9711
 20
488.601
 30
0
 10
67.8226
 20
487.163
 30
0
  0
SPLINE
  5
BC1
330
A02
100
AcDbEntity
  8
View008
100
AcDbSpline
210
0
220
0
230
1
 70
8
 71
3
 72
17
 73
13
 74
0
 40
1.5708
 40
1.5708
 40
1.5708
 40
1.5708
 40
1.93009
 40
1.93009
 40
1.93009
 40
2.28938
 40
2.28938
 40
2.28938
 40
2.64867
 40
2.64867
 40
2.64867
 40
3.00797
 40
3.00797
 40
3.00797
 40
3.00797
 10
72.128
 20
493.5
 30
0
 10
71.6894
 20
493.5
 30
0
 10
71.2216
 20
493.426
 30
0
 10
70.7665
 20
493.261
 30
0
 10
70.3115
 20
493.097
 30
0
 10
69.8714
 20
492.841
 30
0
 10
69.4947
 20
492.511
 30
0
 10
69.1171
 20
492.182
 30
0
 10
68.8048
 20
491.78
 30
0
 10
68.5817
 20
491.35
 30
0
 10
68.3574
 20
490.921
 30
0
 10
68.2216
 20
490.468
 30
0
 10
68.1636
 20
490.033
 30
0
  0
SPLINE
  5
BC2
330
A02
100
AcDbEntity
  8
View008
100
AcDbSpline
210
0
220
0
230
1
 70
8
 71
1
 72
4
 73
2
 74
0
 40
4.5
 40
4.5
 40
7.19705
 40
7.19705
 10
74.825
 20
493.5
 30
0
 10
72.128
 20
493.5
 30
0
  0
SPLINE
  5
BC3
330
A02
100
AcDbEntity
  8
View008
100
AcDbSpline
210
0
220
0
230
1
 70
8
 71
3
 72
17
 73
13
 74
0
 40
0
 40
0
 40
0
 40
0
 40
0.392699
 40
0.392699
 40
0.392699
 40
0.785398
 40
0.785398
 40
0.785398
 40
1.1781
 40
1.1781
 40
1.1781
 40
1.5708
 40
1.5708
 40
1.5708
 40
1.5708
 10
77.825
 20
490.5
 30
0
 10
77.8254
 20
490.853
 30
0
 10
77.7611
 20
491.235
 30
0
 10
77.6144
 20
491.604
 30
0
 10
77.4689
 20
491.974
 30
0
 10
77.2399
 20
492.329
 30
0
 10
76.9463
 20
492.621
 30
0
 10
76.6537
 20
492.915
 30
0
 10
76.2987
 20
493.144
 30
0
 10
75.9293
 20
493.289
 30
0
 10
75.5596
 20
493.436
 30
0
 10
75.1781
 20
493.5
 30
0
 10
74.825
 20
493.5
 30
0
  0
SPLINE
  5
BC4
330
A02
100
AcDbEntity
  8
View008
100
AcDbSpline
210
0
220
0
230
1
 70
8
 71
1
 72
4
 73
2
 74
0
 40
30.9557
 40
30.9557
 40
52.9557
 40
52.9557
 10
77.825
 20
490.5
 30
0
 10
77.825
 20
468.5
 30
0
  0
SPLINE
  5
BC5
330
A02
100
AcDbEntity
  8
View008
100
AcDbSpline
210
0
220
0
230
1
 70
9
 71
3
 72
41
 73
37
 74
0
 40
0
 40
0
 40
0
 40
0
 40
0.523599
 40
0.523599
 40
0.523599
 40
1.0472
 40
1.0472
 40
1.0472
 40
1.5708
 40
1.5708
 40
1.5708
 40
2.0944
 40
2.0944
 40
2.0944
 40
2.61799
 40
2.61799
 40
2.61799
 40
3.14159
 40
3.14159
 40
3.14159
 40
3.66519
 40
3.66519
 40
3.66519
 40
4.18879
 40
4.18879
 40
4.18879
 40
4.71239
 40
4.71239
 40
4.71239
 40
5.23599
 40
5.23599
 40
5.23599
 40
5.75959
 40
5.75959
 40
5.75959
 40
6.28319
 40
6.28319
 40
6.28319
 40
6.28319
 10
71.725
 20
477.5
 30
0
 10
71.7255
 20
477.744
 30
0
 10
71.6704
 20
478.025
 30
0
 10
71.5288
 20
478.293
 30
0
 10
71.3895
 20
478.56
 30
0
 10
71.1597
 20
478.809
 30
0
 10
70.875
 20
478.972
 30
0
 10
70.5916
 20
479.137
 30
0
 10
70.261
 20
479.212
 30
0
 10
69.9596
 20
479.199
 30
0
 10
69.6567
 20
479.187
 30
0
 10
69.3865
 20
479.095
 30
0
 10
69.175
 20
478.972
 30
0
 10
68.963
 20
478.85
 30
0
 10
68.7479
 20
478.663
 30
0
 10
68.5865
 20
478.406
 30
0
 10
68.4245
 20
478.152
 30
0
 10
68.3237
 20
477.828
 30
0
 10
68.325
 20
477.5
 30
0
 10
68.3237
 20
477.172
 30
0
 10
68.4245
 20
476.848
 30
0
 10
68.5865
 20
476.594
 30
0
 10
68.7479
 20
476.337
 30
0
 10
68.963
 20
476.15
 30
0
 10
69.175
 20
476.028
 30
0
 10
69.3865
 20
475.905
 30
0
 10
69.6567
 20
475.813
 30
0
 10
69.9596
 20
475.801
 30
0
 10
70.261
 20
475.788
 30
0
 10
70.5916
 20
475.863
 30
0
 10
70.875
 20
476.028
 30
0
 10
71.1597
 20
476.191
 30
0
 10
71.3895
 20
476.44
 30
0
 10
71.5288
 20
476.707
 30
0
 10
71.6704
 20
476.975
 30
0
 10
71.7255
 20
477.256
 30
0
 10
71.725
 20
477.5
 30
0
  0
SPLINE
  5
BC6
330
A02
100
AcDbEntity
  8
View008
100
AcDbSpline
210
0
220
0
230
1
 70
9
 71
3
 72
41
 73
37
 74
0
 40
0
 40
0
 40
0
 40
0
 40
0.523599
 40
0.523599
 40
0.523599
 40
1.0472
 40
1.0472
 40
1.0472
 40
1.5708
 40
1.5708
 40
1.5708
 40
2.0944
 40
2.0944
 40
2.0944
 40
2.61799
 40
2.61799
 40
2.61799
 40
3.14159
 40
3.14159
 40
3.14159
 40
3.66519
 40
3.66519
 40
3.66519
 40
4.18879
 40
4.18879
 40
4.18879
 40
4.71239
 40
4.71239
 40
4.71239
 40
5.23599
 40
5.23599
 40
5.23599
 40
5.75959
 40
5.75959
 40
5.75959
 40
6.28319
 40
6.28319
 40
6.28319
 40
6.28319
 10
73.3
 20
472.5
 30
0
 10
73.3004
 20
472.712
 30
0
 10
73.2526
 20
472.955
 30
0
 10
73.1298
 20
473.188
 30
0
 10
73.0089
 20
473.42
 30
0
 10
72.8096
 20
473.636
 30
0
 10
72.5625
 20
473.777
 30
0
 10
72.3166
 20
473.921
 30
0
 10
72.0297
 20
473.985
 30
0
 10
71.7683
 20
473.974
 30
0
 10
71.5055
 20
473.964
 30
0
 10
71.271
 20
473.884
 30
0
 10
71.0875
 20
473.777
 30
0
 10
70.9036
 20
473.672
 30
0
 10
70.7169
 20
473.509
 30
0
 10
70.5769
 20
473.286
 30
0
 10
70.4364
 20
473.065
 30
0
 10
70.3489
 20
472.785
 30
0
 10
70.35
 20
472.5
 30
0
 10
70.3489
 20
472.215
 30
0
 10
70.4364
 20
471.935
 30
0
 10
70.5769
 20
471.714
 30
0
 10
70.7169
 20
471.491
 30
0
 10
70.9036
 20
471.328
 30
0
 10
71.0875
 20
471.223
 30
0
 10
71.271
 20
471.116
 30
0
 10
71.5055
 20
471.036
 30
0
 10
71.7683
 20
471.026
 30
0
 10
72.0297
 20
471.015
 30
0
 10
72.3166
 20
471.079
 30
0
 10
72.5625
 20
471.223
 30
0
 10
72.8096
 20
471.364
 30
0
 10
73.0089
 20
471.58
 30
0
 10
73.1298
 20
471.812
 30
0
 10
73.2526
 20
472.045
 30
0
 10
73.3004
 20
472.288
 30
0
 10
73.3
 20
472.5
 30
0
  0
SPLINE
  5
BC7
330
A02
100
AcDbEntity
  8
View008
100
AcDbSpline
210
0
220
0
230
1
 70
9
 71
3
 72
41
 73
37
 74
0
 40
0
 40
0
 40
0
 40
0
 40
0.523599
 40
0.523599
 40
0.523599
 40
1.0472
 40
1.0472
 40
1.0472
 40
1.5708
 40
1.5708
 40
1.5708
 40
2.0944
 40
2.0944
 40
2.0944
 40
2.61799
 40
2.61799
 40
2.61799
 40
3.14159
 40
3.14159
 40
3.14159
 40
3.66519
 40
3.66519
 40
3.66519
 40
4.18879
 40
4.18879
 40
4.18879
 40
4.71239
 40
4.71239
 40
4.71239
 40
5.23599
 40
5.23599
 40
5.23599
 40
5.75959
 40
5.75959
 40
5.75959
 40
6.28319
 40
6.28319
 40
6.28319
 40
6.28319
 10
73.3
 20
482.5
 30
0
 10
73.3004
 20
482.712
 30
0
 10
73.2526
 20
482.955
 30
0
 10
73.1298
 20
483.188
 30
0
 10
73.0089
 20
483.42
 30
0
 10
72.8096
 20
483.636
 30
0
 10
72.5625
 20
483.777
 30
0
 10
72.3166
 20
483.921
 30
0
 10
72.0297
 20
483.985
 30
0
 10
71.7683
 20
483.974
 30
0
 10
71.5055
 20
483.964
 30
0
 10
71.271
 20
483.884
 30
0
 10
71.0875
 20
483.777
 30
0
 10
70.9036
 20
483.672
 30
0
 10
70.7169
 20
483.509
 30
0
 10
70.5769
 20
483.286
 30
0
 10
70.4364
 20
483.065
 30
0
 10
70.3489
 20
482.785
 30
0
 10
70.35
 20
482.5
 30
0
 10
70.3489
 20
482.215
 30
0
 10
70.4364
 20
481.935
 30
0
 10
70.5769
 20
481.714
 30
0
 10
70.7169
 20
481.491
 30
0
 10
70.9036
 20
481.328
 30
0
 10
71.0875
 20
481.223
 30
0
 10
71.271
 20
481.116
 30
0
 10
71.5055
 20
481.036
 30
0
 10
71.7683
 20
481.026
 30
0
 10
72.0297
 20
481.015
 30
0
 10
72.3166
 20
481.079
 30
0
 10
72.5625
 20
481.223
 30
0
 10
72.8096
 20
481.364
 30
0
 10
73.0089
 20
481.58
 30
0
 10
73.1298
 20
481.812
 30
0
 10
73.2526
 20
482.045
 30
0
 10
73.3004
 20
482.288
 30
0
 10
73.3
 20
482.5
 30
0
  0
LINE
  5
BC8
330
A02
100
AcDbEntity
  8
View009
100
AcDbLine
 10
175.825
 20
229.5
 30
0
 11
170.324
 21
229.5
 31
0
  0
ARC
  5
BC9
330
A02
100
AcDbEntity
  8
View009
100
AcDbCircle
 10
175.825
 20
227.5
 30
0
 40
2
100
AcDbArc
 50
0
 51
90
  0
ARC
  5
BCA
330
A02
100
AcDbEntity
  8
View009
100
AcDbCircle
 10
170.324
 20
225.5
 30
0
 40
4
100
AcDbArc
 50
90
 51
154.471
  0
LINE
  5
BCB
330
A02
100
AcDbEntity
  8
View009
100
AcDbLine
 10
177.825
 20
227.5
 30
0
 11
177.825
 21
212.5
 31
0
  0
ARC
  5
BCC
330
A02
100
AcDbEntity
  8
View009
100
AcDbCircle
 10
155.886
 20
232.396
 30
0
 40
12
100
AcDbArc
 50
-37.6182
 51
-25.5293
  0
LINE
  5
BCD
330
A02
100
AcDbEntity
  8
View009
100
AcDbLine
 10
167.325
 20
212.5
 30
0
 11
177.825
 21
212.5
 31
0
  0
ARC
  5
BCE
330
A02
100
AcDbEntity
  8
View009
100
AcDbCircle
 10
170.025
 20
221.5
 30
0
 40
5.85
100
AcDbArc
 50
142.382
 51
-137.236
  0
LINE
  5
BCF
330
A02
100
AcDbEntity
  8
View009
100
AcDbLine
 10
167.325
 20
213.5
 30
0
 11
167.325
 21
212.5
 31
0
  0
ARC
  5
BD0
330
A02
100
AcDbEntity
  8
View009
100
AcDbCircle
 10
161.325
 20
213.454
 30
0
 40
6
100
AcDbArc
 50
0.437747
 51
42.7635
  0
CIRCLE
  5
BD1
330
A02
100
AcDbEntity
  8
View009
100
AcDbCircle
 10
171.825
 20
216.5
 40
1.475
  0
CIRCLE
  5
BD2
330
A02
100
AcDbEntity
  8
View009
100
AcDbCircle
 10
170.025
 20
221.5
 40
1.7
  0
CIRCLE
  5
BD3
330
A02
100
AcDbEntity
  8
View009
100
AcDbCircle
 10
171.825
 20
226.5
 40
1.475
  0
SPLINE
  5
BD4
330
A02
100
AcDbEntity
  8
View010
100
AcDbSpline
210
0
220
0
230
1
 70
8
 71
1
 72
4
 73
2
 74
0
 40
8
 40
8
 40
13.5011
 40
13.5011
 10
123.825
 20
293.5
 30
0
 10
118.324
 20
293.5
 30
0
  0
SPLINE
  5
BD5
330
A02
100
AcDbEntity
  8
View010
100
AcDbSpline
210
0
220
0
230
1
 70
8
 71
3
 72
17
 73
13
 74
0
 40
4.71239
 40
4.71239
 40
4.71239
 40
4.71239
 40
5.10509
 40
5.10509
 40
5.10509
 40
5.49779
 40
5.49779
 40
5.49779
 40
5.89049
 40
5.89049
 40
5.89049
 40
6.28319
 40
6.28319
 40
6.28319
 40
6.28319
 10
123.825
 20
293.5
 30
0
 10
124.06
 20
293.5
 30
0
 10
124.315
 20
293.457
 30
0
 10
124.561
 20
293.36
 30
0
 10
124.807
 20
293.263
 30
0
 10
125.044
 20
293.11
 30
0
 10
125.239
 20
292.914
 30
0
 10
125.435
 20
292.719
 30
0
 10
125.588
 20
292.482
 30
0
 10
125.685
 20
292.236
 30
0
 10
125.782
 20
291.99
 30
0
 10
125.825
 20
291.735
 30
0
 10
125.825
 20
291.5
 30
0
  0
SPLINE
  5
BD6
330
A02
100
AcDbEntity
  8
View010
100
AcDbSpline
210
0
220
0
230
1
 70
8
 71
3
 72
11
 73
7
 74
0
 40
1.5708
 40
1.5708
 40
1.5708
 40
1.5708
 40
2.13341
 40
2.13341
 40
2.13341
 40
2.69602
 40
2.69602
 40
2.69602
 40
2.69602
 10
118.324
 20
293.5
 30
0
 10
117.614
 20
293.503
 30
0
 10
116.842
 20
293.298
 30
0
 10
116.19
 20
292.883
 30
0
 10
115.535
 20
292.474
 30
0
 10
115.017
 20
291.866
 30
0
 10
114.714
 20
291.224
 30
0
  0
SPLINE
  5
BD7
330
A02
100
AcDbEntity
  8
View010
100
AcDbSpline
210
0
220
0
230
1
 70
8
 71
1
 72
4
 73
2
 74
0
 40
37.9557
 40
37.9557
 40
52.9557
 40
52.9557
 10
125.825
 20
291.5
 30
0
 10
125.825
 20
276.5
 30
0
  0
SPLINE
  5
BD8
330
A02
100
AcDbEntity
  8
View010
100
AcDbSpline
210
0
220
0
230
1
 70
8
 71
3
 72
8
 73
4
 74
0
 40
5.62662
 40
5.62662
 40
5.62662
 40
5.62662
 40
5.83761
 40
5.83761
 40
5.83761
 40
5.83761
 10
113.391
 20
289.071
 30
0
 10
113.906
 20
289.738
 30
0
 10
114.352
 20
290.464
 30
0
 10
114.714
 20
291.224
 30
0
  0
SPLINE
  5
BD9
330
A02
100
AcDbEntity
  8
View010
100
AcDbSpline
210
0
220
0
230
1
 70
8
 71
1
 72
4
 73
2
 74
0
 40
6.5
 40
6.5
 40
17
 40
17
 10
115.325
 20
276.5
 30
0
 10
125.825
 20
276.5
 30
0
  0
SPLINE
  5
BDA
330
A02
100
AcDbEntity
  8
View010
100
AcDbSpline
210
0
220
0
230
1
 70
8
 71
3
 72
17
 73
13
 74
0
 40
2.48503
 40
2.48503
 40
2.48503
 40
2.48503
 40
2.83576
 40
2.83576
 40
2.83576
 40
3.18649
 40
3.18649
 40
3.18649
 40
3.53723
 40
3.53723
 40
3.53723
 40
3.88796
 40
3.88796
 40
3.88796
 40
3.88796
 10
113.391
 20
289.071
 30
0
 10
113.007
 20
288.573
 30
0
 10
112.681
 20
287.98
 30
0
 10
112.466
 20
287.323
 30
0
 10
112.25
 20
286.668
 30
0
 10
112.148
 20
285.95
 30
0
 10
112.181
 20
285.237
 30
0
 10
112.212
 20
284.524
 30
0
 10
112.378
 20
283.819
 30
0
 10
112.652
 20
283.186
 30
0
 10
112.925
 20
282.551
 30
0
 10
113.303
 20
281.989
 30
0
 10
113.73
 20
281.528
 30
0
  0
SPLINE
  5
BDB
330
A02
100
AcDbEntity
  8
View010
100
AcDbSpline
210
0
220
0
230
1
 70
8
 71
1
 72
4
 73
2
 74
0
 40
8
 40
8
 40
9
 40
9
 10
115.325
 20
277.5
 30
0
 10
115.325
 20
276.5
 30
0
  0
SPLINE
  5
BDC
330
A02
100
AcDbEntity
  8
View010
100
AcDbSpline
210
0
220
0
230
1
 70
8
 71
3
 72
11
 73
7
 74
0
 40
0.00764013
 40
0.00764013
 40
0.00764013
 40
0.00764013
 40
0.377002
 40
0.377002
 40
0.377002
 40
0.746364
 40
0.746364
 40
0.746364
 40
0.746364
 10
115.325
 20
277.5
 30
0
 10
115.32
 20
278.222
 30
0
 10
115.18
 20
278.968
 30
0
 10
114.904
 20
279.663
 30
0
 10
114.629
 20
280.358
 30
0
 10
114.221
 20
280.999
 30
0
 10
113.73
 20
281.528
 30
0
  0
SPLINE
  5
BDD
330
A02
100
AcDbEntity
  8
View010
100
AcDbSpline
210
0
220
0
230
1
 70
9
 71
3
 72
41
 73
37
 74
0
 40
0
 40
0
 40
0
 40
0
 40
0.523599
 40
0.523599
 40
0.523599
 40
1.0472
 40
1.0472
 40
1.0472
 40
1.5708
 40
1.5708
 40
1.5708
 40
2.0944
 40
2.0944
 40
2.0944
 40
2.61799
 40
2.61799
 40
2.61799
 40
3.14159
 40
3.14159
 40
3.14159
 40
3.66519
 40
3.66519
 40
3.66519
 40
4.18879
 40
4.18879
 40
4.18879
 40
4.71239
 40
4.71239
 40
4.71239
 40
5.23599
 40
5.23599
 40
5.23599
 40
5.75959
 40
5.75959
 40
5.75959
 40
6.28319
 40
6.28319
 40
6.28319
 40
6.28319
 10
121.3
 20
280.5
 30
0
 10
121.3
 20
280.712
 30
0
 10
121.253
 20
280.955
 30
0
 10
121.13
 20
281.188
 30
0
 10
121.009
 20
281.42
 30
0
 10
120.81
 20
281.636
 30
0
 10
120.563
 20
281.777
 30
0
 10
120.317
 20
281.921
 30
0
 10
120.03
 20
281.985
 30
0
 10
119.768
 20
281.974
 30
0
 10
119.505
 20
281.964
 30
0
 10
119.271
 20
281.884
 30
0
 10
119.087
 20
281.777
 30
0
 10
118.904
 20
281.672
 30
0
 10
118.717
 20
281.509
 30
0
 10
118.577
 20
281.286
 30
0
 10
118.436
 20
281.065
 30
0
 10
118.349
 20
280.785
 30
0
 10
118.35
 20
280.5
 30
0
 10
118.349
 20
280.215
 30
0
 10
118.436
 20
279.935
 30
0
 10
118.577
 20
279.714
 30
0
 10
118.717
 20
279.491
 30
0
 10
118.904
 20
279.328
 30
0
 10
119.088
 20
279.223
 30
0
 10
119.271
 20
279.116
 30
0
 10
119.505
 20
279.036
 30
0
 10
119.768
 20
279.026
 30
0
 10
120.03
 20
279.015
 30
0
 10
120.317
 20
279.079
 30
0
 10
120.562
 20
279.223
 30
0
 10
120.81
 20
279.364
 30
0
 10
121.009
 20
279.58
 30
0
 10
121.13
 20
279.812
 30
0
 10
121.253
 20
280.045
 30
0
 10
121.3
 20
280.288
 30
0
 10
121.3
 20
280.5
 30
0
  0
SPLINE
  5
BDE
330
A02
100
AcDbEntity
  8
View010
100
AcDbSpline
210
0
220
0
230
1
 70
9
 71
3
 72
41
 73
37
 74
0
 40
0
 40
0
 40
0
 40
0
 40
0.523599
 40
0.523599
 40
0.523599
 40
1.0472
 40
1.0472
 40
1.0472
 40
1.5708
 40
1.5708
 40
1.5708
 40
2.0944
 40
2.0944
 40
2.0944
 40
2.61799
 40
2.61799
 40
2.61799
 40
3.14159
 40
3.14159
 40
3.14159
 40
3.66519
 40
3.66519
 40
3.66519
 40
4.18879
 40
4.18879
 40
4.18879
 40
4.71239
 40
4.71239
 40
4.71239
 40
5.23599
 40
5.23599
 40
5.23599
 40
5.75959
 40
5.75959
 40
5.75959
 40
6.28319
 40
6.28319
 40
6.28319
 40
6.28319
 10
119.725
 20
285.5
 30
0
 10
119.725
 20
285.744
 30
0
 10
119.67
 20
286.025
 30
0
 10
119.529
 20
286.293
 30
0
 10
119.389
 20
286.56
 30
0
 10
119.16
 20
286.809
 30
0
 10
118.875
 20
286.972
 30
0
 10
118.592
 20
287.137
 30
0
 10
118.261
 20
287.212
 30
0
 10
117.96
 20
287.199
 30
0
 10
117.657
 20
287.187
 30
0
 10
117.386
 20
287.095
 30
0
 10
117.175
 20
286.972
 30
0
 10
116.963
 20
286.85
 30
0
 10
116.748
 20
286.663
 30
0
 10
116.587
 20
286.406
 30
0
 10
116.425
 20
286.152
 30
0
 10
116.324
 20
285.828
 30
0
 10
116.325
 20
285.5
 30
0
 10
116.324
 20
285.172
 30
0
 10
116.425
 20
284.848
 30
0
 10
116.587
 20
284.594
 30
0
 10
116.748
 20
284.337
 30
0
 10
116.963
 20
284.15
 30
0
 10
117.175
 20
284.028
 30
0
 10
117.386
 20
283.905
 30
0
 10
117.657
 20
283.813
 30
0
 10
117.96
 20
283.801
 30
0
 10
118.261
 20
283.788
 30
0
 10
118.592
 20
283.863
 30
0
 10
118.875
 20
284.028
 30
0
 10
119.16
 20
284.191
 30
0
 10
119.389
 20
284.44
 30
0
 10
119.529
 20
284.707
 30
0
 10
119.67
 20
284.975
 30
0
 10
119.725
 20
285.256
 30
0
 10
119.725
 20
285.5
 30
0
  0
SPLINE
  5
BDF
330
A02
100
AcDbEntity
  8
View010
100
AcDbSpline
210
0
220
0
230
1
 70
9
 71
3
 72
41
 73
37
 74
0
 40
0
 40
0
 40
0
 40
0
 40
0.523599
 40
0.523599
 40
0.523599
 40
1.0472
 40
1.0472
 40
1.0472
 40
1.5708
 40
1.5708
 40
1.5708
 40
2.0944
 40
2.0944
 40
2.0944
 40
2.61799
 40
2.61799
 40
2.61799
 40
3.14159
 40
3.14159
 40
3.14159
 40
3.66519
 40
3.66519
 40
3.66519
 40
4.18879
 40
4.18879
 40
4.18879
 40
4.71239
 40
4.71239
 40
4.71239
 40
5.23599
 40
5.23599
 40
5.23599
 40
5.75959
 40
5.75959
 40
5.75959
 40
6.28319
 40
6.28319
 40
6.28319
 40
6.28319
 10
121.3
 20
290.5
 30
0
 10
121.3
 20
290.712
 30
0
 10
121.253
 20
290.955
 30
0
 10
121.13
 20
291.188
 30
0
 10
121.009
 20
291.42
 30
0
 10
120.81
 20
291.636
 30
0
 10
120.563
 20
291.777
 30
0
 10
120.317
 20
291.921
 30
0
 10
120.03
 20
291.985
 30
0
 10
119.768
 20
291.974
 30
0
 10
119.505
 20
291.964
 30
0
 10
119.271
 20
291.884
 30
0
 10
119.088
 20
291.777
 30
0
 10
118.904
 20
291.672
 30
0
 10
118.717
 20
291.509
 30
0
 10
118.577
 20
291.286
 30
0
 10
118.436
 20
291.065
 30
0
 10
118.349
 20
290.785
 30
0
 10
118.35
 20
290.5
 30
0
 10
118.349
 20
290.215
 30
0
 10
118.436
 20
289.935
 30
0
 10
118.577
 20
289.714
 30
0
 10
118.717
 20
289.491
 30
0
 10
118.904
 20
289.328
 30
0
 10
119.088
 20
289.223
 30
0
 10
119.271
 20
289.116
 30
0
 10
119.505
 20
289.036
 30
0
 10
119.768
 20
289.026
 30
0
 10
120.03
 20
289.015
 30
0
 10
120.317
 20
289.079
 30
0
 10
120.563
 20
289.223
 30
0
 10
120.81
 20
289.364
 30
0
 10
121.009
 20
289.58
 30
0
 10
121.13
 20
289.812
 30
0
 10
121.253
 20
290.045
 30
0
 10
121.3
 20
290.288
 30
0
 10
121.3
 20
290.5
 30
0
  0
ARC
  5
BE0
330
A02
100
AcDbEntity
  8
View011
100
AcDbCircle
 10
143.939
 20
497.396
 30
0
 40
12
100
AcDbArc
 50
-154.471
 51
-142.382
  0
ARC
  5
BE1
330
A02
100
AcDbEntity
  8
View011
100
AcDbCircle
 10
129.501
 20
490.5
 30
0
 40
4
100
AcDbArc
 50
25.5293
 51
90
  0
ARC
  5
BE2
330
A02
100
AcDbEntity
  8
View011
100
AcDbCircle
 10
129.8
 20
486.5
 30
0
 40
5.85
100
AcDbArc
 50
-42.7635
 51
37.6182
  0
LINE
  5
BE3
330
A02
100
AcDbEntity
  8
View011
100
AcDbLine
 10
102.499
 20
494.5
 30
0
 11
129.501
 21
494.5
 31
0
  0
ARC
  5
BE4
330
A02
100
AcDbEntity
  8
View011
100
AcDbCircle
 10
138.5
 20
478.454
 30
0
 40
6
100
AcDbArc
 50
137.236
 51
179.562
  0
ARC
  5
BE5
330
A02
100
AcDbEntity
  8
View011
100
AcDbCircle
 10
102.499
 20
490.5
 30
0
 40
4
100
AcDbArc
 50
90
 51
154.471
  0
LINE
  5
BE6
330
A02
100
AcDbEntity
  8
View011
100
AcDbLine
 10
132.5
 20
477.5
 30
0
 11
132.5
 21
478.5
 31
0
  0
ARC
  5
BE7
330
A02
100
AcDbEntity
  8
View011
100
AcDbCircle
 10
88.0611
 20
497.396
 30
0
 40
12
100
AcDbArc
 50
-37.6182
 51
-25.5293
  0
LINE
  5
BE8
330
A02
100
AcDbEntity
  8
View011
100
AcDbLine
 10
99.5
 20
477.5
 30
0
 11
132.5
 21
477.5
 31
0
  0
ARC
  5
BE9
330
A02
100
AcDbEntity
  8
View011
100
AcDbCircle
 10
102.2
 20
486.5
 30
0
 40
5.85
100
AcDbArc
 50
142.382
 51
-137.236
  0
LINE
  5
BEA
330
A02
100
AcDbEntity
  8
View011
100
AcDbLine
 10
99.5
 20
478.5
 30
0
 11
99.5
 21
477.5
 31
0
  0
ARC
  5
BEB
330
A02
100
AcDbEntity
  8
View011
100
AcDbCircle
 10
93.5002
 20
478.454
 30
0
 40
6
100
AcDbArc
 50
0.437747
 51
42.7635
  0
CIRCLE
  5
BEC
330
A02
100
AcDbEntity
  8
View011
100
AcDbCircle
 10
104
 20
481.5
 40
1.475
  0
CIRCLE
  5
BED
330
A02
100
AcDbEntity
  8
View011
100
AcDbCircle
 10
128
 20
481.5
 40
1.475
  0
LINE
  5
BEE
330
A02
100
AcDbEntity
  8
View011
100
AcDbLine
 10
105
 20
484.883
 30
0
 11
105
 21
488.117
 31
0
  0
LINE
  5
BEF
330
A02
100
AcDbEntity
  8
View011
100
AcDbLine
 10
105
 20
488.117
 30
0
 11
102.2
 21
489.733
 31
0
  0
LINE
  5
BF0
330
A02
100
AcDbEntity
  8
View011
100
AcDbLine
 10
102.2
 20
489.733
 30
0
 11
99.4
 21
488.117
 31
0
  0
LINE
  5
BF1
330
A02
100
AcDbEntity
  8
View011
100
AcDbLine
 10
99.4
 20
488.117
 30
0
 11
99.4
 21
484.883
 31
0
  0
LINE
  5
BF2
330
A02
100
AcDbEntity
  8
View011
100
AcDbLine
 10
99.4
 20
484.883
 30
0
 11
102.2
 21
483.267
 31
0
  0
LINE
  5
BF3
330
A02
100
AcDbEntity
  8
View011
100
AcDbLine
 10
102.2
 20
483.267
 30
0
 11
105
 21
484.883
 31
0
  0
CIRCLE
  5
BF4
330
A02
100
AcDbEntity
  8
View011
100
AcDbCircle
 10
104
 20
491.5
 40
1.475
  0
LINE
  5
BF5
330
A02
100
AcDbEntity
  8
View011
100
AcDbLine
 10
132.6
 20
484.883
 30
0
 11
132.6
 21
488.117
 31
0
  0
LINE
  5
BF6
330
A02
100
AcDbEntity
  8
View011
100
AcDbLine
 10
132.6
 20
488.117
 30
0
 11
129.8
 21
489.733
 31
0
  0
LINE
  5
BF7
330
A02
100
AcDbEntity
  8
View011
100
AcDbLine
 10
129.8
 20
489.733
 30
0
 11
127
 21
488.117
 31
0
  0
LINE
  5
BF8
330
A02
100
AcDbEntity
  8
View011
100
AcDbLine
 10
127
 20
488.117
 30
0
 11
127
 21
484.883
 31
0
  0
LINE
  5
BF9
330
A02
100
AcDbEntity
  8
View011
100
AcDbLine
 10
127
 20
484.883
 30
0
 11
129.8
 21
483.267
 31
0
  0
LINE
  5
BFA
330
A02
100
AcDbEntity
  8
View011
100
AcDbLine
 10
129.8
 20
483.267
 30
0
 11
132.6
 21
484.883
 31
0
  0
CIRCLE
  5
BFB
330
A02
100
AcDbEntity
  8
View011
100
AcDbCircle
 10
128
 20
491.5
 40
1.475
  0
ARC
  5
BFC
330
A02
100
AcDbEntity
  8
View012
100
AcDbCircle
 10
145.939
 20
226.396
 30
0
 40
12
100
AcDbArc
 50
-154.471
 51
-142.382
  0
ARC
  5
BFD
330
A02
100
AcDbEntity
  8
View012
100
AcDbCircle
 10
131.501
 20
219.5
 30
0
 40
4
100
AcDbArc
 50
25.5293
 51
90
  0
ARC
  5
BFE
330
A02
100
AcDbEntity
  8
View012
100
AcDbCircle
 10
131.8
 20
215.5
 30
0
 40
5.85
100
AcDbArc
 50
-42.7635
 51
37.6182
  0
LINE
  5
BFF
330
A02
100
AcDbEntity
  8
View012
100
AcDbLine
 10
104.499
 20
223.5
 30
0
 11
131.501
 21
223.5
 31
0
  0
ARC
  5
C00
330
A02
100
AcDbEntity
  8
View012
100
AcDbCircle
 10
140.5
 20
207.454
 30
0
 40
6
100
AcDbArc
 50
137.236
 51
179.562
  0
ARC
  5
C01
330
A02
100
AcDbEntity
  8
View012
100
AcDbCircle
 10
104.499
 20
219.5
 30
0
 40
4
100
AcDbArc
 50
90
 51
154.471
  0
LINE
  5
C02
330
A02
100
AcDbEntity
  8
View012
100
AcDbLine
 10
134.5
 20
199
 30
0
 11
134.5
 21
207.5
 31
0
  0
ARC
  5
C03
330
A02
100
AcDbEntity
  8
View012
100
AcDbCircle
 10
90.0611
 20
226.396
 30
0
 40
12
100
AcDbArc
 50
-37.6182
 51
-25.5293
  0
LINE
  5
C04
330
A02
100
AcDbEntity
  8
View012
100
AcDbLine
 10
134.3
 20
199
 30
0
 11
134.5
 21
199
 31
0
  0
ARC
  5
C05
330
A02
100
AcDbEntity
  8
View012
100
AcDbCircle
 10
104.2
 20
215.5
 30
0
 40
5.85
100
AcDbArc
 50
142.382
 51
-137.236
  0
LINE
  5
C06
330
A02
100
AcDbEntity
  8
View012
100
AcDbLine
 10
134.3
 20
199
 30
0
 11
130.7
 21
199
 31
0
  0
ARC
  5
C07
330
A02
100
AcDbEntity
  8
View012
100
AcDbCircle
 10
95.5002
 20
207.454
 30
0
 40
6
100
AcDbArc
 50
0.437747
 51
42.7635
  0
LINE
  5
C08
330
A02
100
AcDbEntity
  8
View012
100
AcDbLine
 10
130.7
 20
199
 30
0
 11
130.5
 21
199
 31
0
  0
LINE
  5
C09
330
A02
100
AcDbEntity
  8
View012
100
AcDbLine
 10
101.5
 20
207.5
 30
0
 11
101.5
 21
199
 31
0
  0
LINE
  5
C0A
330
A02
100
AcDbEntity
  8
View012
100
AcDbLine
 10
130.5
 20
199
 30
0
 11
130.5
 21
198.8
 31
0
  0
LINE
  5
C0B
330
A02
100
AcDbEntity
  8
View012
100
AcDbLine
 10
101.7
 20
199
 30
0
 11
101.5
 21
199
 31
0
  0
LINE
  5
C0C
330
A02
100
AcDbEntity
  8
View012
100
AcDbLine
 10
130.5
 20
198.8
 30
0
 11
130.5
 21
182
 31
0
  0
LINE
  5
C0D
330
A02
100
AcDbEntity
  8
View012
100
AcDbLine
 10
101.7
 20
199
 30
0
 11
105.3
 21
199
 31
0
  0
LINE
  5
C0E
330
A02
100
AcDbEntity
  8
View012
100
AcDbLine
 10
130.7
 20
182
 30
0
 11
130.5
 21
182
 31
0
  0
LINE
  5
C0F
330
A02
100
AcDbEntity
  8
View012
100
AcDbLine
 10
105.3
 20
199
 30
0
 11
105.5
 21
199
 31
0
  0
LINE
  5
C10
330
A02
100
AcDbEntity
  8
View012
100
AcDbLine
 10
130.7
 20
182
 30
0
 11
134.3
 21
182
 31
0
  0
LINE
  5
C11
330
A02
100
AcDbEntity
  8
View012
100
AcDbLine
 10
105.5
 20
199
 30
0
 11
105.5
 21
198.8
 31
0
  0
LINE
  5
C12
330
A02
100
AcDbEntity
  8
View012
100
AcDbLine
 10
134.5
 20
182
 30
0
 11
134.3
 21
182
 31
0
  0
LINE
  5
C13
330
A02
100
AcDbEntity
  8
View012
100
AcDbLine
 10
105.5
 20
198.8
 30
0
 11
105.5
 21
182
 31
0
  0
LINE
  5
C14
330
A02
100
AcDbEntity
  8
View012
100
AcDbLine
 10
134.5
 20
165
 30
0
 11
134.5
 21
182
 31
0
  0
LINE
  5
C15
330
A02
100
AcDbEntity
  8
View012
100
AcDbLine
 10
105.3
 20
182
 30
0
 11
105.5
 21
182
 31
0
  0
LINE
  5
C16
330
A02
100
AcDbEntity
  8
View012
100
AcDbLine
 10
134.3
 20
165
 30
0
 11
134.5
 21
165
 31
0
  0
LINE
  5
C17
330
A02
100
AcDbEntity
  8
View012
100
AcDbLine
 10
105.3
 20
182
 30
0
 11
101.7
 21
182
 31
0
  0
LINE
  5
C18
330
A02
100
AcDbEntity
  8
View012
100
AcDbLine
 10
134.3
 20
165
 30
0
 11
130.7
 21
165
 31
0
  0
LINE
  5
C19
330
A02
100
AcDbEntity
  8
View012
100
AcDbLine
 10
101.5
 20
182
 30
0
 11
101.7
 21
182
 31
0
  0
LINE
  5
C1A
330
A02
100
AcDbEntity
  8
View012
100
AcDbLine
 10
130.7
 20
165
 30
0
 11
130.5
 21
165
 31
0
  0
LINE
  5
C1B
330
A02
100
AcDbEntity
  8
View012
100
AcDbLine
 10
101.5
 20
182
 30
0
 11
101.5
 21
165
 31
0
  0
LINE
  5
C1C
330
A02
100
AcDbEntity
  8
View012
100
AcDbLine
 10
130.5
 20
165
 30
0
 11
130.5
 21
164.8
 31
0
  0
LINE
  5
C1D
330
A02
100
AcDbEntity
  8
View012
100
AcDbLine
 10
101.7
 20
165
 30
0
 11
101.5
 21
165
 31
0
  0
LINE
  5
C1E
330
A02
100
AcDbEntity
  8
View012
100
AcDbLine
 10
130.5
 20
164.8
 30
0
 11
130.5
 21
148
 31
0
  0
LINE
  5
C1F
330
A02
100
AcDbEntity
  8
View012
100
AcDbLine
 10
101.7
 20
165
 30
0
 11
105.3
 21
165
 31
0
  0
LINE
  5
C20
330
A02
100
AcDbEntity
  8
View012
100
AcDbLine
 10
130.7
 20
148
 30
0
 11
130.5
 21
148
 31
0
  0
LINE
  5
C21
330
A02
100
AcDbEntity
  8
View012
100
AcDbLine
 10
105.3
 20
165
 30
0
 11
105.5
 21
165
 31
0
  0
LINE
  5
C22
330
A02
100
AcDbEntity
  8
View012
100
AcDbLine
 10
130.7
 20
148
 30
0
 11
134.3
 21
148
 31
0
  0
LINE
  5
C23
330
A02
100
AcDbEntity
  8
View012
100
AcDbLine
 10
105.5
 20
165
 30
0
 11
105.5
 21
164.8
 31
0
  0
LINE
  5
C24
330
A02
100
AcDbEntity
  8
View012
100
AcDbLine
 10
134.5
 20
148
 30
0
 11
134.3
 21
148
 31
0
  0
LINE
  5
C25
330
A02
100
AcDbEntity
  8
View012
100
AcDbLine
 10
105.5
 20
164.8
 30
0
 11
105.5
 21
148
 31
0
  0
LINE
  5
C26
330
A02
100
AcDbEntity
  8
View012
100
AcDbLine
 10
134.5
 20
131
 30
0
 11
134.5
 21
148
 31
0
  0
LINE
  5
C27
330
A02
100
AcDbEntity
  8
View012
100
AcDbLine
 10
105.3
 20
148
 30
0
 11
105.5
 21
148
 31
0
  0
LINE
  5
C28
330
A02
100
AcDbEntity
  8
View012
100
AcDbLine
 10
134.3
 20
131
 30
0
 11
134.5
 21
131
 31
0
  0
LINE
  5
C29
330
A02
100
AcDbEntity
  8
View012
100
AcDbLine
 10
105.3
 20
148
 30
0
 11
101.7
 21
148
 31
0
  0
LINE
  5
C2A
330
A02
100
AcDbEntity
  8
View012
100
AcDbLine
 10
134.3
 20
131
 30
0
 11
130.7
 21
131
 31
0
  0
LINE
  5
C2B
330
A02
100
AcDbEntity
  8
View012
100
AcDbLine
 10
101.5
 20
148
 30
0
 11
101.7
 21
148
 31
0
  0
LINE
  5
C2C
330
A02
100
AcDbEntity
  8
View012
100
AcDbLine
 10
130.7
 20
131
 30
0
 11
130.5
 21
131
 31
0
  0
LINE
  5
C2D
330
A02
100
AcDbEntity
  8
View012
100
AcDbLine
 10
101.5
 20
148
 30
0
 11
101.5
 21
131
 31
0
  0
LINE
  5
C2E
330
A02
100
AcDbEntity
  8
View012
100
AcDbLine
 10
130.5
 20
131
 30
0
 11
130.5
 21
130.8
 31
0
  0
LINE
  5
C2F
330
A02
100
AcDbEntity
  8
View012
100
AcDbLine
 10
101.7
 20
131
 30
0
 11
101.5
 21
131
 31
0
  0
LINE
  5
C30
330
A02
100
AcDbEntity
  8
View012
100
AcDbLine
 10
130.5
 20
130.8
 30
0
 11
130.5
 21
114
 31
0
  0
LINE
  5
C31
330
A02
100
AcDbEntity
  8
View012
100
AcDbLine
 10
101.7
 20
131
 30
0
 11
105.3
 21
131
 31
0
  0
LINE
  5
C32
330
A02
100
AcDbEntity
  8
View012
100
AcDbLine
 10
130.7
 20
114
 30
0
 11
130.5
 21
114
 31
0
  0
LINE
  5
C33
330
A02
100
AcDbEntity
  8
View012
100
AcDbLine
 10
105.3
 20
131
 30
0
 11
105.5
 21
131
 31
0
  0
LINE
  5
C34
330
A02
100
AcDbEntity
  8
View012
100
AcDbLine
 10
130.7
 20
114
 30
0
 11
134.3
 21
114
 31
0
  0
LINE
  5
C35
330
A02
100
AcDbEntity
  8
View012
100
AcDbLine
 10
105.5
 20
131
 30
0
 11
105.5
 21
130.8
 31
0
  0
LINE
  5
C36
330
A02
100
AcDbEntity
  8
View012
100
AcDbLine
 10
134.5
 20
114
 30
0
 11
134.3
 21
114
 31
0
  0
LINE
  5
C37
330
A02
100
AcDbEntity
  8
View012
100
AcDbLine
 10
105.5
 20
130.8
 30
0
 11
105.5
 21
114
 31
0
  0
LINE
  5
C38
330
A02
100
AcDbEntity
  8
View012
100
AcDbLine
 10
134.5
 20
99.5
 30
0
 11
134.5
 21
114
 31
0
  0
LINE
  5
C39
330
A02
100
AcDbEntity
  8
View012
100
AcDbLine
 10
105.3
 20
114
 30
0
 11
105.5
 21
114
 31
0
  0
ARC
  5
C3A
330
A02
100
AcDbEntity
  8
View012
100
AcDbCircle
 10
129.5
 20
99.5
 30
0
 40
5
100
AcDbArc
 50
-90
 51
-1.28777e-09
  0
LINE
  5
C3B
330
A02
100
AcDbEntity
  8
View012
100
AcDbLine
 10
105.3
 20
114
 30
0
 11
101.7
 21
114
 31
0
  0
LINE
  5
C3C
330
A02
100
AcDbEntity
  8
View012
100
AcDbLine
 10
106.5
 20
94.5
 30
0
 11
129.5
 21
94.5
 31
0
  0
LINE
  5
C3D
330
A02
100
AcDbEntity
  8
View012
100
AcDbLine
 10
101.5
 20
114
 30
0
 11
101.7
 21
114
 31
0
  0
ARC
  5
C3E
330
A02
100
AcDbEntity
  8
View012
100
AcDbCircle
 10
106.5
 20
99.5
 30
0
 40
5
100
AcDbArc
 50
-180
 51
-90
  0
LINE
  5
C3F
330
A02
100
AcDbEntity
  8
View012
100
AcDbLine
 10
101.5
 20
114
 30
0
 11
101.5
 21
99.5
 31
0
  0
LINE
  5
C40
330
A02
100
AcDbEntity
  8
View012
100
AcDbLine
 10
112
 20
99.5
 30
0
 11
112
 21
103.5
 31
0
  0
LINE
  5
C41
330
A02
100
AcDbEntity
  8
View012
100
AcDbLine
 10
124
 20
99.5
 30
0
 11
112
 21
99.5
 31
0
  0
LINE
  5
C42
330
A02
100
AcDbEntity
  8
View012
100
AcDbLine
 10
112
 20
103.5
 30
0
 11
124
 21
103.5
 31
0
  0
LINE
  5
C43
330
A02
100
AcDbEntity
  8
View012
100
AcDbLine
 10
124
 20
103.5
 30
0
 11
124
 21
99.5
 31
0
  0
LINE
  5
C44
330
A02
100
AcDbEntity
  8
View012
100
AcDbLine
 10
116
 20
198.5
 30
0
 11
116
 21
179.5
 31
0
  0
ARC
  5
C45
330
A02
100
AcDbEntity
  8
View012
100
AcDbCircle
 10
118
 20
198.5
 30
0
 40
2
100
AcDbArc
 50
1.62844e-12
 51
-180
  0
ARC
  5
C46
330
A02
100
AcDbEntity
  8
View012
100
AcDbCircle
 10
118
 20
179.5
 30
0
 40
2
100
AcDbArc
 50
-180
 51
0
  0
LINE
  5
C47
330
A02
100
AcDbEntity
  8
View012
100
AcDbLine
 10
120
 20
179.5
 30
0
 11
120
 21
198.5
 31
0
  0
LINE
  5
C48
330
A02
100
AcDbEntity
  8
View012
100
AcDbLine
 10
107
 20
213.883
 30
0
 11
107
 21
217.117
 31
0
  0
LINE
  5
C49
330
A02
100
AcDbEntity
  8
View012
100
AcDbLine
 10
107
 20
217.117
 30
0
 11
104.2
 21
218.733
 31
0
  0
LINE
  5
C4A
330
A02
100
AcDbEntity
  8
View012
100
AcDbLine
 10
104.2
 20
218.733
 30
0
 11
101.4
 21
217.117
 31
0
  0
LINE
  5
C4B
330
A02
100
AcDbEntity
  8
View012
100
AcDbLine
 10
101.4
 20
217.117
 30
0
 11
101.4
 21
213.883
 31
0
  0
LINE
  5
C4C
330
A02
100
AcDbEntity
  8
View012
100
AcDbLine
 10
101.4
 20
213.883
 30
0
 11
104.2
 21
212.267
 31
0
  0
LINE
  5
C4D
330
A02
100
AcDbEntity
  8
View012
100
AcDbLine
 10
104.2
 20
212.267
 30
0
 11
107
 21
213.883
 31
0
  0
CIRCLE
  5
C4E
330
A02
100
AcDbEntity
  8
View012
100
AcDbCircle
 10
106
 20
210.5
 40
1.475
  0
CIRCLE
  5
C4F
330
A02
100
AcDbEntity
  8
View012
100
AcDbCircle
 10
106
 20
220.5
 40
1.475
  0
CIRCLE
  5
C50
330
A02
100
AcDbEntity
  8
View012
100
AcDbCircle
 10
130
 20
210.5
 40
1.475
  0
CIRCLE
  5
C51
330
A02
100
AcDbEntity
  8
View012
100
AcDbCircle
 10
130
 20
220.5
 40
1.475
  0
LINE
  5
C52
330
A02
100
AcDbEntity
  8
View012
100
AcDbLine
 10
134.6
 20
213.883
 30
0
 11
134.6
 21
217.117
 31
0
  0
LINE
  5
C53
330
A02
100
AcDbEntity
  8
View012
100
AcDbLine
 10
134.6
 20
217.117
 30
0
 11
131.8
 21
218.733
 31
0
  0
LINE
  5
C54
330
A02
100
AcDbEntity
  8
View012
100
AcDbLine
 10
131.8
 20
218.733
 30
0
 11
129
 21
217.117
 31
0
  0
LINE
  5
C55
330
A02
100
AcDbEntity
  8
View012
100
AcDbLine
 10
129
 20
217.117
 30
0
 11
129
 21
213.883
 31
0
  0
LINE
  5
C56
330
A02
100
AcDbEntity
  8
View012
100
AcDbLine
 10
129
 20
213.883
 30
0
 11
131.8
 21
212.267
 31
0
  0
LINE
  5
C57
330
A02
100
AcDbEntity
  8
View012
100
AcDbLine
 10
131.8
 20
212.267
 30
0
 11
134.6
 21
213.883
 31
0
  0
LINE
  5
C58
330
A02
100
AcDbEntity
  8
View013
100
AcDbLine
 10
65
 20
219
 30
0
 11
65
 21
236
 31
0
  0
LINE
  5
C59
330
A02
100
AcDbEntity
  8
View013
100
AcDbLine
 10
65
 20
253
 30
0
 11
65
 21
270
 31
0
  0
LINE
  5
C5A
330
A02
100
AcDbEntity
  8
View013
100
AcDbLine
 10
65
 20
287
 30
0
 11
65
 21
304
 31
0
  0
LINE
  5
C5B
330
A02
100
AcDbEntity
  8
View013
100
AcDbLine
 10
69
 20
311.5
 30
0
 11
93
 21
311.5
 31
0
  0
LINE
  5
C5C
330
A02
100
AcDbEntity
  8
View013
100
AcDbLine
 10
97
 20
304
 30
0
 11
97
 21
287
 31
0
  0
LINE
  5
C5D
330
A02
100
AcDbEntity
  8
View013
100
AcDbLine
 10
97
 20
270
 30
0
 11
97
 21
253
 31
0
  0
LINE
  5
C5E
330
A02
100
AcDbEntity
  8
View013
100
AcDbLine
 10
97
 20
236
 30
0
 11
97
 21
219
 31
0
  0
LINE
  5
C5F
330
A02
100
AcDbEntity
  8
View013
100
AcDbLine
 10
93
 20
204.5
 30
0
 11
69
 21
204.5
 31
0
  0
LINE
  5
C60
330
A02
100
AcDbEntity
  8
View013
100
AcDbLine
 10
69
 20
204.5
 30
0
 11
69
 21
219
 31
0
  0
LINE
  5
C61
330
A02
100
AcDbEntity
  8
View013
100
AcDbLine
 10
65
 20
219
 30
0
 11
69
 21
219
 31
0
  0
LINE
  5
C62
330
A02
100
AcDbEntity
  8
View013
100
AcDbLine
 10
65
 20
236
 30
0
 11
69
 21
236
 31
0
  0
LINE
  5
C63
330
A02
100
AcDbEntity
  8
View013
100
AcDbLine
 10
69
 20
236
 30
0
 11
69
 21
253
 31
0
  0
LINE
  5
C64
330
A02
100
AcDbEntity
  8
View013
100
AcDbLine
 10
65
 20
253
 30
0
 11
69
 21
253
 31
0
  0
LINE
  5
C65
330
A02
100
AcDbEntity
  8
View013
100
AcDbLine
 10
65
 20
270
 30
0
 11
69
 21
270
 31
0
  0
LINE
  5
C66
330
A02
100
AcDbEntity
  8
View013
100
AcDbLine
 10
69
 20
270
 30
0
 11
69
 21
287
 31
0
  0
LINE
  5
C67
330
A02
100
AcDbEntity
  8
View013
100
AcDbLine
 10
65
 20
287
 30
0
 11
69
 21
287
 31
0
  0
LINE
  5
C68
330
A02
100
AcDbEntity
  8
View013
100
AcDbLine
 10
65
 20
304
 30
0
 11
69
 21
304
 31
0
  0
LINE
  5
C69
330
A02
100
AcDbEntity
  8
View013
100
AcDbLine
 10
69
 20
311.5
 30
0
 11
69
 21
304
 31
0
  0
LINE
  5
C6A
330
A02
100
AcDbEntity
  8
View013
100
AcDbLine
 10
93
 20
311.5
 30
0
 11
93
 21
304
 31
0
  0
LINE
  5
C6B
330
A02
100
AcDbEntity
  8
View013
100
AcDbLine
 10
93
 20
304
 30
0
 11
97
 21
304
 31
0
  0
LINE
  5
C6C
330
A02
100
AcDbEntity
  8
View013
100
AcDbLine
 10
93
 20
287
 30
0
 11
97
 21
287
 31
0
  0
LINE
  5
C6D
330
A02
100
AcDbEntity
  8
View013
100
AcDbLine
 10
93
 20
287
 30
0
 11
93
 21
270
 31
0
  0
LINE
  5
C6E
330
A02
100
AcDbEntity
  8
View013
100
AcDbLine
 10
93
 20
270
 30
0
 11
97
 21
270
 31
0
  0
LINE
  5
C6F
330
A02
100
AcDbEntity
  8
View013
100
AcDbLine
 10
93
 20
253
 30
0
 11
97
 21
253
 31
0
  0
LINE
  5
C70
330
A02
100
AcDbEntity
  8
View013
100
AcDbLine
 10
93
 20
253
 30
0
 11
93
 21
236
 31
0
  0
LINE
  5
C71
330
A02
100
AcDbEntity
  8
View013
100
AcDbLine
 10
93
 20
236
 30
0
 11
97
 21
236
 31
0
  0
LINE
  5
C72
330
A02
100
AcDbEntity
  8
View013
100
AcDbLine
 10
93
 20
219
 30
0
 11
97
 21
219
 31
0
  0
LINE
  5
C73
330
A02
100
AcDbEntity
  8
View013
100
AcDbLine
 10
93
 20
219
 30
0
 11
93
 21
204.5
 31
0
  0
LINE
  5
C74
330
A02
100
AcDbEntity
  8
View014
100
AcDbLine
 10
69
 20
187
 30
0
 11
69
 21
201.5
 31
0
  0
LINE
  5
C75
330
A02
100
AcDbEntity
  8
View014
100
AcDbLine
 10
69
 20
187
 30
0
 11
65
 21
187
 31
0
  0
LINE
  5
C76
330
A02
100
AcDbEntity
  8
View014
100
AcDbLine
 10
65
 20
187
 30
0
 11
65
 21
170
 31
0
  0
LINE
  5
C77
330
A02
100
AcDbEntity
  8
View014
100
AcDbLine
 10
69
 20
170
 30
0
 11
65
 21
170
 31
0
  0
LINE
  5
C78
330
A02
100
AcDbEntity
  8
View014
100
AcDbLine
 10
69
 20
153
 30
0
 11
69
 21
170
 31
0
  0
LINE
  5
C79
330
A02
100
AcDbEntity
  8
View014
100
AcDbLine
 10
69
 20
153
 30
0
 11
65
 21
153
 31
0
  0
LINE
  5
C7A
330
A02
100
AcDbEntity
  8
View014
100
AcDbLine
 10
65
 20
153
 30
0
 11
65
 21
136
 31
0
  0
LINE
  5
C7B
330
A02
100
AcDbEntity
  8
View014
100
AcDbLine
 10
69
 20
136
 30
0
 11
65
 21
136
 31
0
  0
LINE
  5
C7C
330
A02
100
AcDbEntity
  8
View014
100
AcDbLine
 10
69
 20
119
 30
0
 11
69
 21
136
 31
0
  0
LINE
  5
C7D
330
A02
100
AcDbEntity
  8
View014
100
AcDbLine
 10
69
 20
119
 30
0
 11
65
 21
119
 31
0
  0
LINE
  5
C7E
330
A02
100
AcDbEntity
  8
View014
100
AcDbLine
 10
65
 20
119
 30
0
 11
65
 21
102
 31
0
  0
LINE
  5
C7F
330
A02
100
AcDbEntity
  8
View014
100
AcDbLine
 10
69
 20
102
 30
0
 11
65
 21
102
 31
0
  0
LINE
  5
C80
330
A02
100
AcDbEntity
  8
View014
100
AcDbLine
 10
69
 20
94.5
 30
0
 11
69
 21
102
 31
0
  0
LINE
  5
C81
330
A02
100
AcDbEntity
  8
View014
100
AcDbLine
 10
69
 20
94.5
 30
0
 11
93
 21
94.5
 31
0
  0
LINE
  5
C82
330
A02
100
AcDbEntity
  8
View014
100
AcDbLine
 10
93
 20
94.5
 30
0
 11
93
 21
102
 31
0
  0
LINE
  5
C83
330
A02
100
AcDbEntity
  8
View014
100
AcDbLine
 10
97
 20
102
 30
0
 11
93
 21
102
 31
0
  0
LINE
  5
C84
330
A02
100
AcDbEntity
  8
View014
100
AcDbLine
 10
97
 20
102
 30
0
 11
97
 21
119
 31
0
  0
LINE
  5
C85
330
A02
100
AcDbEntity
  8
View014
100
AcDbLine
 10
97
 20
119
 30
0
 11
93
 21
119
 31
0
  0
LINE
  5
C86
330
A02
100
AcDbEntity
  8
View014
100
AcDbLine
 10
93
 20
136
 30
0
 11
93
 21
119
 31
0
  0
LINE
  5
C87
330
A02
100
AcDbEntity
  8
View014
100
AcDbLine
 10
97
 20
136
 30
0
 11
93
 21
136
 31
0
  0
LINE
  5
C88
330
A02
100
AcDbEntity
  8
View014
100
AcDbLine
 10
97
 20
136
 30
0
 11
97
 21
153
 31
0
  0
LINE
  5
C89
330
A02
100
AcDbEntity
  8
View014
100
AcDbLine
 10
97
 20
153
 30
0
 11
93
 21
153
 31
0
  0
LINE
  5
C8A
330
A02
100
AcDbEntity
  8
View014
100
AcDbLine
 10
93
 20
170
 30
0
 11
93
 21
153
 31
0
  0
LINE
  5
C8B
330
A02
100
AcDbEntity
  8
View014
100
AcDbLine
 10
97
 20
170
 30
0
 11
93
 21
170
 31
0
  0
LINE
  5
C8C
330
A02
100
AcDbEntity
  8
View014
100
AcDbLine
 10
97
 20
170
 30
0
 11
97
 21
187
 31
0
  0
LINE
  5
C8D
330
A02
100
AcDbEntity
  8
View014
100
AcDbLine
 10
97
 20
187
 30
0
 11
93
 21
187
 31
0
  0
LINE
  5
C8E
330
A02
100
AcDbEntity
  8
View014
100
AcDbLine
 10
93
 20
201.5
 30
0
 11
93
 21
187
 31
0
  0
LINE
  5
C8F
330
A02
100
AcDbEntity
  8
View014
100
AcDbLine
 10
93
 20
201.5
 30
0
 11
69
 21
201.5
 31
0
  0
LINE
  5
C90
330
A02
100
AcDbEntity
  8
View015
100
AcDbLine
 10
81.5
 20
490.156
 30
0
 11
81.5
 21
490
 31
0
  0
LINE
  5
C91
330
A02
100
AcDbEntity
  8
View015
100
AcDbLine
 10
81.5
 20
490
 30
0
 11
83
 21
490
 31
0
  0
LINE
  5
C92
330
A02
100
AcDbEntity
  8
View015
100
AcDbLine
 10
83
 20
490
 30
0
 11
83
 21
489.5
 31
0
  0
ARC
  5
C93
330
A02
100
AcDbEntity
  8
View015
100
AcDbCircle
 10
82.8
 20
489.5
 30
0
 40
0.2
100
AcDbArc
 50
-25.75
 51
0
  0
ARC
  5
C94
330
A02
100
AcDbEntity
  8
View015
100
AcDbCircle
 10
86.4281
 20
487.75
 30
0
 40
3.82813
100
AcDbArc
 50
154.25
 51
-154.25
  0
ARC
  5
C95
330
A02
100
AcDbEntity
  8
View015
100
AcDbCircle
 10
82.8
 20
486
 30
0
 40
0.2
100
AcDbArc
 50
0
 51
25.75
  0
LINE
  5
C96
330
A02
100
AcDbEntity
  8
View015
100
AcDbLine
 10
83
 20
486
 30
0
 11
83
 21
462
 31
0
  0
ARC
  5
C97
330
A02
100
AcDbEntity
  8
View015
100
AcDbCircle
 10
82.8
 20
462
 30
0
 40
0.2
100
AcDbArc
 50
-25.75
 51
0
  0
ARC
  5
C98
330
A02
100
AcDbEntity
  8
View015
100
AcDbCircle
 10
86.4281
 20
460.25
 30
0
 40
3.82812
100
AcDbArc
 50
154.25
 51
-154.25
  0
ARC
  5
C99
330
A02
100
AcDbEntity
  8
View015
100
AcDbCircle
 10
82.8
 20
458.5
 30
0
 40
0.2
100
AcDbArc
 50
0
 51
25.75
  0
ARC
  5
C9A
330
A02
100
AcDbEntity
  8
View015
100
AcDbCircle
 10
83.5
 20
458.5
 30
0
 40
0.5
100
AcDbArc
 50
-180
 51
-90
  0
LINE
  5
C9B
330
A02
100
AcDbEntity
  8
View015
100
AcDbLine
 10
83.5
 20
458
 30
0
 11
94.5
 21
458
 31
0
  0
ARC
  5
C9C
330
A02
100
AcDbEntity
  8
View015
100
AcDbCircle
 10
94.5
 20
458.5
 30
0
 40
0.5
100
AcDbArc
 50
-90
 51
-1.66912e-06
  0
ARC
  5
C9D
330
A02
100
AcDbEntity
  8
View015
100
AcDbCircle
 10
95.2
 20
458.5
 30
0
 40
0.2
100
AcDbArc
 50
154.25
 51
180
  0
ARC
  5
C9E
330
A02
100
AcDbEntity
  8
View015
100
AcDbCircle
 10
91.5719
 20
460.25
 30
0
 40
3.82812
100
AcDbArc
 50
-25.75
 51
25.75
  0
ARC
  5
C9F
330
A02
100
AcDbEntity
  8
View015
100
AcDbCircle
 10
95.2
 20
462
 30
0
 40
0.2
100
AcDbArc
 50
180
 51
-154.25
  0
LINE
  5
CA0
330
A02
100
AcDbEntity
  8
View015
100
AcDbLine
 10
95
 20
486
 30
0
 11
95
 21
462
 31
0
  0
ARC
  5
CA1
330
A02
100
AcDbEntity
  8
View015
100
AcDbCircle
 10
95.2
 20
486
 30
0
 40
0.2
100
AcDbArc
 50
154.25
 51
180
  0
ARC
  5
CA2
330
A02
100
AcDbEntity
  8
View015
100
AcDbCircle
 10
91.5719
 20
487.75
 30
0
 40
3.82813
100
AcDbArc
 50
-25.75
 51
25.75
  0
ARC
  5
CA3
330
A02
100
AcDbEntity
  8
View015
100
AcDbCircle
 10
95.2
 20
489.5
 30
0
 40
0.2
100
AcDbArc
 50
180
 51
-154.25
  0
LINE
  5
CA4
330
A02
100
AcDbEntity
  8
View015
100
AcDbLine
 10
95
 20
490
 30
0
 11
95
 21
489.5
 31
0
  0
LINE
  5
CA5
330
A02
100
AcDbEntity
  8
View015
100
AcDbLine
 10
96.5
 20
490
 30
0
 11
95
 21
490
 31
0
  0
LINE
  5
CA6
330
A02
100
AcDbEntity
  8
View015
100
AcDbLine
 10
96.5
 20
490.156
 30
0
 11
96.5
 21
490
 31
0
  0
ARC
  5
CA7
330
A02
100
AcDbEntity
  8
View015
100
AcDbCircle
 10
96.7
 20
490.156
 30
0
 40
0.2
100
AcDbArc
 50
123.056
 51
180
  0
ARC
  5
CA8
330
A02
100
AcDbEntity
  8
View015
100
AcDbCircle
 10
95.5
 20
492
 30
0
 40
2
100
AcDbArc
 50
-56.9443
 51
90
  0
LINE
  5
CA9
330
A02
100
AcDbEntity
  8
View015
100
AcDbLine
 10
95.5
 20
494
 30
0
 11
89
 21
494
 31
0
  0
LINE
  5
CAA
330
A02
100
AcDbEntity
  8
View015
100
AcDbLine
 10
82.5
 20
494
 30
0
 11
89
 21
494
 31
0
  0
ARC
  5
CAB
330
A02
100
AcDbEntity
  8
View015
100
AcDbCircle
 10
82.5
 20
492
 30
0
 40
2
100
AcDbArc
 50
90
 51
-123.056
  0
ARC
  5
CAC
330
A02
100
AcDbEntity
  8
View015
100
AcDbCircle
 10
81.3
 20
490.156
 30
0
 40
0.2
100
AcDbArc
 50
0
 51
56.9443
  0
ARC
  5
CAD
330
A02
100
AcDbEntity
  8
View017
100
AcDbCircle
 10
145.939
 20
293.917
 30
0
 40
12
100
AcDbArc
 50
-174.104
 51
-142.382
  0
ARC
  5
CAE
330
A02
100
AcDbEntity
  8
View017
100
AcDbCircle
 10
131.8
 20
283.021
 30
0
 40
5.85
100
AcDbArc
 50
-42.7635
 51
37.6182
  0
ARC
  5
CAF
330
A02
100
AcDbEntity
  8
View017
100
AcDbCircle
 10
140.5
 20
274.975
 30
0
 40
6
100
AcDbArc
 50
137.236
 51
179.562
  0
LINE
  5
CB0
330
A02
100
AcDbEntity
  8
View017
100
AcDbLine
 10
134.5
 20
274.147
 30
0
 11
134.5
 21
275.021
 31
0
  0
ARC
  5
CB1
330
A02
100
AcDbEntity
  8
View017
100
AcDbCircle
 10
126.512
 20
274.584
 30
0
 40
8
100
AcDbArc
 50
-57.9605
 51
-3.13187
  0
ARC
  5
CB2
330
A02
100
AcDbEntity
  8
View017
100
AcDbCircle
 10
135
 20
261.021
 30
0
 40
8
100
AcDbArc
 50
122.039
 51
160.812
  0
ARC
  5
CB3
330
A02
100
AcDbEntity
  8
View017
100
AcDbCircle
 10
126.5
 20
263.979
 30
0
 40
1
100
AcDbArc
 50
180
 51
-19.1881
  0
LINE
  5
CB4
330
A02
100
AcDbEntity
  8
View017
100
AcDbLine
 10
125.5
 20
269.371
 30
0
 11
125.5
 21
263.979
 31
0
  0
ARC
  5
CB5
330
A02
100
AcDbEntity
  8
View017
100
AcDbCircle
 10
121
 20
269.371
 30
0
 40
4.5
100
AcDbArc
 50
0
 51
28.0725
  0
LINE
  5
CB6
330
A02
100
AcDbEntity
  8
View017
100
AcDbLine
 10
124.5
 20
272.371
 30
0
 11
124.971
 21
271.489
 31
0
  0
ARC
  5
CB7
330
A02
100
AcDbEntity
  8
View017
100
AcDbCircle
 10
129
 20
274.771
 30
0
 40
5.1
100
AcDbArc
 50
180
 51
-151.928
  0
LINE
  5
CB8
330
A02
100
AcDbEntity
  8
View017
100
AcDbLine
 10
123.9
 20
274.871
 30
0
 11
123.9
 21
274.771
 31
0
  0
LINE
  5
CB9
330
A02
100
AcDbEntity
  8
View017
100
AcDbLine
 10
124.54
 20
274.871
 30
0
 11
123.9
 21
274.871
 31
0
  0
ARC
  5
CBA
330
A02
100
AcDbEntity
  8
View017
100
AcDbCircle
 10
124.54
 20
277.371
 30
0
 40
2.5
100
AcDbArc
 50
-90
 51
0
  0
LINE
  5
CBB
330
A02
100
AcDbEntity
  8
View017
100
AcDbLine
 10
127.04
 20
293.372
 30
0
 11
127.04
 21
277.371
 31
0
  0
ARC
  5
CBC
330
A02
100
AcDbEntity
  8
View017
100
AcDbCircle
 10
124.54
 20
293.372
 30
0
 40
2.5
100
AcDbArc
 50
0
 51
90
  0
LINE
  5
CBD
330
A02
100
AcDbEntity
  8
View017
100
AcDbLine
 10
124
 20
295.872
 30
0
 11
124.54
 21
295.872
 31
0
  0
LINE
  5
CBE
330
A02
100
AcDbEntity
  8
View017
100
AcDbLine
 10
124
 20
295.872
 30
0
 11
120.2
 21
295.872
 31
0
  0
LINE
  5
CBF
330
A02
100
AcDbEntity
  8
View017
100
AcDbLine
 10
120.2
 20
300.772
 30
0
 11
120.2
 21
295.872
 31
0
  0
ARC
  5
CC0
330
A02
100
AcDbEntity
  8
View017
100
AcDbCircle
 10
119.2
 20
300.772
 30
0
 40
1
100
AcDbArc
 50
0
 51
90
  0
LINE
  5
CC1
330
A02
100
AcDbEntity
  8
View017
100
AcDbLine
 10
112.2
 20
301.772
 30
0
 11
119.2
 21
301.772
 31
0
  0
ARC
  5
CC2
330
A02
100
AcDbEntity
  8
View017
100
AcDbCircle
 10
112.2
 20
300.772
 30
0
 40
1
100
AcDbArc
 50
90
 51
180
  0
LINE
  5
CC3
330
A02
100
AcDbEntity
  8
View017
100
AcDbLine
 10
111.2
 20
295.872
 30
0
 11
111.2
 21
300.772
 31
0
  0
LINE
  5
CC4
330
A02
100
AcDbEntity
  8
View017
100
AcDbLine
 10
111.46
 20
295.872
 30
0
 11
111.2
 21
295.872
 31
0
  0
ARC
  5
CC5
330
A02
100
AcDbEntity
  8
View017
100
AcDbCircle
 10
111.46
 20
293.372
 30
0
 40
2.5
100
AcDbArc
 50
90
 51
180
  0
LINE
  5
CC6
330
A02
100
AcDbEntity
  8
View017
100
AcDbLine
 10
108.96
 20
277.371
 30
0
 11
108.96
 21
293.372
 31
0
  0
ARC
  5
CC7
330
A02
100
AcDbEntity
  8
View017
100
AcDbCircle
 10
111.46
 20
277.371
 30
0
 40
2.5
100
AcDbArc
 50
180
 51
-90
  0
LINE
  5
CC8
330
A02
100
AcDbEntity
  8
View017
100
AcDbLine
 10
112.1
 20
274.871
 30
0
 11
111.46
 21
274.871
 31
0
  0
LINE
  5
CC9
330
A02
100
AcDbEntity
  8
View017
100
AcDbLine
 10
112.1
 20
274.771
 30
0
 11
112.1
 21
274.871
 31
0
  0
ARC
  5
CCA
330
A02
100
AcDbEntity
  8
View017
100
AcDbCircle
 10
107
 20
274.771
 30
0
 40
5.1
100
AcDbArc
 50
-28.0725
 51
0
  0
LINE
  5
CCB
330
A02
100
AcDbEntity
  8
View017
100
AcDbLine
 10
111.5
 20
272.371
 30
0
 11
111.029
 21
271.489
 31
0
  0
ARC
  5
CCC
330
A02
100
AcDbEntity
  8
View017
100
AcDbCircle
 10
115
 20
269.371
 30
0
 40
4.5
100
AcDbArc
 50
151.928
 51
180
  0
LINE
  5
CCD
330
A02
100
AcDbEntity
  8
View017
100
AcDbLine
 10
110.5
 20
269.371
 30
0
 11
110.5
 21
263.979
 31
0
  0
ARC
  5
CCE
330
A02
100
AcDbEntity
  8
View017
100
AcDbCircle
 10
109.5
 20
263.979
 30
0
 40
1
100
AcDbArc
 50
-160.812
 51
0
  0
ARC
  5
CCF
330
A02
100
AcDbEntity
  8
View017
100
AcDbCircle
 10
101
 20
261.021
 30
0
 40
8
100
AcDbArc
 50
19.1881
 51
57.9605
  0
ARC
  5
CD0
330
A02
100
AcDbEntity
  8
View017
100
AcDbCircle
 10
109.488
 20
274.584
 30
0
 40
8
100
AcDbArc
 50
-176.868
 51
-122.039
  0
LINE
  5
CD1
330
A02
100
AcDbEntity
  8
View017
100
AcDbLine
 10
101.5
 20
275.021
 30
0
 11
101.5
 21
274.147
 31
0
  0
ARC
  5
CD2
330
A02
100
AcDbEntity
  8
View017
100
AcDbCircle
 10
95.5002
 20
274.975
 30
0
 40
6
100
AcDbArc
 50
0.437747
 51
42.7635
  0
ARC
  5
CD3
330
A02
100
AcDbEntity
  8
View017
100
AcDbCircle
 10
104.2
 20
283.021
 30
0
 40
5.85
100
AcDbArc
 50
142.382
 51
-137.236
  0
ARC
  5
CD4
330
A02
100
AcDbEntity
  8
View017
100
AcDbCircle
 10
90.0611
 20
293.917
 30
0
 40
12
100
AcDbArc
 50
-37.6182
 51
-5.89583
  0
ARC
  5
CD5
330
A02
100
AcDbEntity
  8
View017
100
AcDbCircle
 10
195.57
 20
283.021
 30
0
 40
94.0704
100
AcDbArc
 50
164.546
 51
174.104
  0
ARC
  5
CD6
330
A02
100
AcDbEntity
  8
View017
100
AcDbCircle
 10
108.756
 20
307.021
 30
0
 40
4
100
AcDbArc
 50
90
 51
164.546
  0
LINE
  5
CD7
330
A02
100
AcDbEntity
  8
View017
100
AcDbLine
 10
108.756
 20
311.021
 30
0
 11
127.244
 21
311.021
 31
0
  0
ARC
  5
CD8
330
A02
100
AcDbEntity
  8
View017
100
AcDbCircle
 10
127.244
 20
307.021
 30
0
 40
4
100
AcDbArc
 50
15.4536
 51
90
  0
ARC
  5
CD9
330
A02
100
AcDbEntity
  8
View017
100
AcDbCircle
 10
40.4296
 20
283.021
 30
0
 40
94.0704
100
AcDbArc
 50
5.89583
 51
15.4536
  0
CIRCLE
  5
CDA
330
A02
100
AcDbEntity
  8
View017
100
AcDbCircle
 10
106
 20
278.021
 40
1.475
  0
CIRCLE
  5
CDB
330
A02
100
AcDbEntity
  8
View017
100
AcDbCircle
 10
104.2
 20
283.021
 40
1.7
  0
CIRCLE
  5
CDC
330
A02
100
AcDbEntity
  8
View017
100
AcDbCircle
 10
106
 20
288.021
 40
1.475
  0
CIRCLE
  5
CDD
330
A02
100
AcDbEntity
  8
View017
100
AcDbCircle
 10
130
 20
278.021
 40
1.475
  0
CIRCLE
  5
CDE
330
A02
100
AcDbEntity
  8
View017
100
AcDbCircle
 10
131.8
 20
283.021
 40
1.7
  0
CIRCLE
  5
CDF
330
A02
100
AcDbEntity
  8
View017
100
AcDbCircle
 10
130
 20
288.021
 40
1.475
  0
CIRCLE
  5
CE0
330
A02
100
AcDbEntity
  8
View017
100
AcDbCircle
 10
108.5
 20
302.021
 40
1.475
  0
CIRCLE
  5
CE1
330
A02
100
AcDbEntity
  8
View017
100
AcDbCircle
 10
127.5
 20
302.021
 40
1.475
  0
LINE
  5
CE2
330
A02
100
AcDbEntity
  8
View018
100
AcDbLine
 10
227.5
 20
347
 30
0
 11
227.5
 21
393
 31
0
  0
LINE
  5
CE3
330
A02
100
AcDbEntity
  8
View018
100
AcDbLine
 10
234.5
 20
345
 30
0
 11
229.5
 21
345
 31
0
  0
ELLIPSE
  5
CE4
330
A02
100
AcDbEntity
  8
View018
100
AcDbEllipse
 10
229.5
 20
347
 30
0
 11
3.84936e-09
 21
2
 31
0
 40
1
 41
1.5708
 42
3.14159
  0
LINE
  5
CE5
330
A02
100
AcDbEntity
  8
View018
100
AcDbLine
 10
234.5
 20
345
 30
0
 11
234.5
 21
356.5
 31
0
  0
LINE
  5
CE6
330
A02
100
AcDbEntity
  8
View018
100
AcDbLine
 10
234.5
 20
356.5
 30
0
 11
234.5
 21
383.5
 31
0
  0
ELLIPSE
  5
CE7
330
A02
100
AcDbEntity
  8
View018
100
AcDbEllipse
 10
229.5
 20
393
 30
0
 11
-3.84936e-09
 21
-2
 31
0
 40
1
 41
-3.14159
 42
-1.5708
  0
LINE
  5
CE8
330
A02
100
AcDbEntity
  8
View018
100
AcDbLine
 10
234.5
 20
383.5
 30
0
 11
234.5
 21
395
 31
0
  0
LINE
  5
CE9
330
A02
100
AcDbEntity
  8
View018
100
AcDbLine
 10
234.5
 20
395
 30
0
 11
229.5
 21
395
 31
0
  0
ELLIPSE
  5
CEA
330
A02
100
AcDbEntity
  8
View018
100
AcDbEllipse
 10
233
 20
383.5
 30
0
 11
2.88702e-09
 21
1.5
 31
0
 40
1
 41
4.71239
 42
2.19963e-09
  0
ELLIPSE
  5
CEB
330
A02
100
AcDbEntity
  8
View018
100
AcDbEllipse
 10
233
 20
383.5
 30
0
 11
2.88702e-09
 21
1.5
 31
0
 40
1
 41
2.19963e-09
 42
4.71239
  0
ELLIPSE
  5
CEC
330
A02
100
AcDbEntity
  8
View018
100
AcDbEllipse
 10
233
 20
356.5
 30
0
 11
2.88702e-09
 21
1.5
 31
0
 40
1
 41
4.71239
 42
2.19963e-09
  0
ELLIPSE
  5
CED
330
A02
100
AcDbEntity
  8
View018
100
AcDbEllipse
 10
233
 20
356.5
 30
0
 11
2.88702e-09
 21
1.5
 31
0
 40
1
 41
2.19963e-09
 42
4.71239
  0
SPLINE
  5
CEE
330
A02
100
AcDbEntity
  8
View019
100
AcDbSpline
210
0
220
0
230
1
 70
8
 71
1
 72
4
 73
2
 74
0
 40
2
 40
2
 40
48
 40
48
 10
224.5
 20
413
 30
0
 10
224.5
 20
459
 30
0
  0
SPLINE
  5
CEF
330
A02
100
AcDbEntity
  8
View019
100
AcDbSpline
210
0
220
0
230
1
 70
8
 71
1
 72
4
 73
2
 74
0
 40
5.44294e-14
 40
5.44294e-14
 40
5
 40
5
 10
231.5
 20
411
 30
0
 10
226.5
 20
411
 30
0
  0
SPLINE
  5
CF0
330
A02
100
AcDbEntity
  8
View019
100
AcDbSpline
210
0
220
0
230
1
 70
8
 71
3
 72
17
 73
13
 74
0
 40
1.5708
 40
1.5708
 40
1.5708
 40
1.5708
 40
1.9635
 40
1.9635
 40
1.9635
 40
2.35619
 40
2.35619
 40
2.35619
 40
2.74889
 40
2.74889
 40
2.74889
 40
3.14159
 40
3.14159
 40
3.14159
 40
3.14159
 10
224.5
 20
413
 30
0
 10
224.5
 20
412.765
 30
0
 10
224.543
 20
412.51
 30
0
 10
224.64
 20
412.264
 30
0
 10
224.737
 20
412.018
 30
0
 10
224.89
 20
411.781
 30
0
 10
225.086
 20
411.586
 30
0
 10
225.281
 20
411.39
 30
0
 10
225.518
 20
411.237
 30
0
 10
225.764
 20
411.14
 30
0
 10
226.01
 20
411.043
 30
0
 10
226.265
 20
411
 30
0
 10
226.5
 20
411
 30
0
  0
SPLINE
  5
CF1
330
A02
100
AcDbEntity
  8
View019
100
AcDbSpline
210
0
220
0
230
1
 70
8
 71
1
 72
4
 73
2
 74
0
 40
3.55271e-14
 40
3.55271e-14
 40
11.5
 40
11.5
 10
231.5
 20
411
 30
0
 10
231.5
 20
422.5
 30
0
  0
SPLINE
  5
CF2
330
A02
100
AcDbEntity
  8
View019
100
AcDbSpline
210
0
220
0
230
1
 70
8
 71
1
 72
4
 73
2
 74
0
 40
11.5
 40
11.5
 40
38.5
 40
38.5
 10
231.5
 20
422.5
 30
0
 10
231.5
 20
449.5
 30
0
  0
SPLINE
  5
CF3
330
A02
100
AcDbEntity
  8
View019
100
AcDbSpline
210
0
220
0
230
1
 70
8
 71
3
 72
17
 73
13
 74
0
 40
4.71239
 40
4.71239
 40
4.71239
 40
4.71239
 40
5.10509
 40
5.10509
 40
5.10509
 40
5.49779
 40
5.49779
 40
5.49779
 40
5.89049
 40
5.89049
 40
5.89049
 40
6.28319
 40
6.28319
 40
6.28319
 40
6.28319
 10
224.5
 20
459
 30
0
 10
224.5
 20
459.235
 30
0
 10
224.543
 20
459.49
 30
0
 10
224.64
 20
459.736
 30
0
 10
224.737
 20
459.982
 30
0
 10
224.89
 20
460.219
 30
0
 10
225.086
 20
460.414
 30
0
 10
225.281
 20
460.61
 30
0
 10
225.518
 20
460.763
 30
0
 10
225.764
 20
460.86
 30
0
 10
226.01
 20
460.957
 30
0
 10
226.265
 20
461
 30
0
 10
226.5
 20
461
 30
0
  0
SPLINE
  5
CF4
330
A02
100
AcDbEntity
  8
View019
100
AcDbSpline
210
0
220
0
230
1
 70
8
 71
1
 72
4
 73
2
 74
0
 40
38.5
 40
38.5
 40
50
 40
50
 10
231.5
 20
449.5
 30
0
 10
231.5
 20
461
 30
0
  0
SPLINE
  5
CF5
330
A02
100
AcDbEntity
  8
View019
100
AcDbSpline
210
0
220
0
230
1
 70
8
 71
1
 72
4
 73
2
 74
0
 40
7.90433e-14
 40
7.90433e-14
 40
5
 40
5
 10
231.5
 20
461
 30
0
 10
226.5
 20
461
 30
0
  0
SPLINE
  5
CF6
330
A02
100
AcDbEntity
  8
View019
100
AcDbSpline
210
0
220
0
230
1
 70
8
 71
3
 72
11
 73
7
 74
0
 40
4.71239
 40
4.71239
 40
4.71239
 40
4.71239
 40
5.49779
 40
5.49779
 40
5.49779
 40
6.28319
 40
6.28319
 40
6.28319
 40
6.28319
 10
231.5
 20
449.5
 30
0
 10
231.505
 20
449.852
 30
0
 10
231.359
 20
450.267
 30
0
 10
231.061
 20
450.561
 30
0
 10
230.767
 20
450.859
 30
0
 10
230.352
 20
451.005
 30
0
 10
230
 20
451
 30
0
  0
SPLINE
  5
CF7
330
A02
100
AcDbEntity
  8
View019
100
AcDbSpline
210
0
220
0
230
1
 70
8
 71
3
 72
29
 73
25
 74
0
 40
0
 40
0
 40
0
 40
0
 40
0.589049
 40
0.589049
 40
0.589049
 40
1.1781
 40
1.1781
 40
1.1781
 40
1.76715
 40
1.76715
 40
1.76715
 40
2.35619
 40
2.35619
 40
2.35619
 40
2.94524
 40
2.94524
 40
2.94524
 40
3.53429
 40
3.53429
 40
3.53429
 40
4.12334
 40
4.12334
 40
4.12334
 40
4.71239
 40
4.71239
 40
4.71239
 40
4.71239
 10
230
 20
451
 30
0
 10
229.77
 20
451
 30
0
 10
229.498
 20
450.945
 30
0
 10
229.238
 20
450.792
 30
0
 10
228.978
 20
450.641
 30
0
 10
228.741
 20
450.385
 30
0
 10
228.614
 20
450.074
 30
0
 10
228.484
 20
449.765
 30
0
 10
228.47
 20
449.416
 30
0
 10
228.547
 20
449.126
 30
0
 10
228.623
 20
448.833
 30
0
 10
228.777
 20
448.601
 30
0
 10
228.939
 20
448.439
 30
0
 10
229.101
 20
448.277
 30
0
 10
229.333
 20
448.123
 30
0
 10
229.626
 20
448.047
 30
0
 10
229.916
 20
447.97
 30
0
 10
230.265
 20
447.984
 30
0
 10
230.574
 20
448.114
 30
0
 10
230.885
 20
448.241
 30
0
 10
231.141
 20
448.478
 30
0
 10
231.292
 20
448.738
 30
0
 10
231.445
 20
448.998
 30
0
 10
231.5
 20
449.27
 30
0
 10
231.5
 20
449.5
 30
0
  0
SPLINE
  5
CF8
330
A02
100
AcDbEntity
  8
View019
100
AcDbSpline
210
0
220
0
230
1
 70
8
 71
3
 72
11
 73
7
 74
0
 40
4.71239
 40
4.71239
 40
4.71239
 40
4.71239
 40
5.49779
 40
5.49779
 40
5.49779
 40
6.28319
 40
6.28319
 40
6.28319
 40
6.28319
 10
231.5
 20
422.5
 30
0
 10
231.505
 20
422.852
 30
0
 10
231.359
 20
423.267
 30
0
 10
231.061
 20
423.561
 30
0
 10
230.767
 20
423.859
 30
0
 10
230.352
 20
424.005
 30
0
 10
230
 20
424
 30
0
  0
SPLINE
  5
CF9
330
A02
100
AcDbEntity
  8
View019
100
AcDbSpline
210
0
220
0
230
1
 70
8
 71
3
 72
29
 73
25
 74
0
 40
0
 40
0
 40
0
 40
0
 40
0.589049
 40
0.589049
 40
0.589049
 40
1.1781
 40
1.1781
 40
1.1781
 40
1.76715
 40
1.76715
 40
1.76715
 40
2.35619
 40
2.35619
 40
2.35619
 40
2.94524
 40
2.94524
 40
2.94524
 40
3.53429
 40
3.53429
 40
3.53429
 40
4.12334
 40
4.12334
 40
4.12334
 40
4.71239
 40
4.71239
 40
4.71239
 40
4.71239
 10
230
 20
424
 30
0
 10
229.77
 20
424
 30
0
 10
229.498
 20
423.945
 30
0
 10
229.238
 20
423.792
 30
0
 10
228.978
 20
423.641
 30
0
 10
228.741
 20
423.385
 30
0
 10
228.614
 20
423.074
 30
0
 10
228.484
 20
422.765
 30
0
 10
228.47
 20
422.416
 30
0
 10
228.547
 20
422.126
 30
0
 10
228.623
 20
421.833
 30
0
 10
228.777
 20
421.601
 30
0
 10
228.939
 20
421.439
 30
0
 10
229.101
 20
421.277
 30
0
 10
229.333
 20
421.123
 30
0
 10
229.626
 20
421.047
 30
0
 10
229.916
 20
420.97
 30
0
 10
230.265
 20
420.984
 30
0
 10
230.574
 20
421.114
 30
0
 10
230.885
 20
421.241
 30
0
 10
231.141
 20
421.478
 30
0
 10
231.292
 20
421.738
 30
0
 10
231.445
 20
421.998
 30
0
 10
231.5
 20
422.27
 30
0
 10
231.5
 20
422.5
 30
0
  0
SPLINE
  5
CFA
330
A02
100
AcDbEntity
  8
View019
100
AcDbSpline
210
0
220
0
230
1
 70
8
 71
1
 72
4
 73
2
 74
0
 40
7
 40
7
 40
7
 40
7
 10
231.5
 20
411
 30
0
 10
231.5
 20
411
 30
0
  0
SPLINE
  5
CFB
330
A02
100
AcDbEntity
  8
View019
100
AcDbSpline
210
0
220
0
230
1
 70
8
 71
1
 72
4
 73
2
 74
0
 40
3.19744e-14
 40
3.19744e-14
 40
11.5
 40
11.5
 10
231.5
 20
411
 30
0
 10
231.5
 20
422.5
 30
0
  0
SPLINE
  5
CFC
330
A02
100
AcDbEntity
  8
View019
100
AcDbSpline
210
0
220
0
230
1
 70
8
 71
1
 72
4
 73
2
 74
0
 40
11.5
 40
11.5
 40
38.5
 40
38.5
 10
231.5
 20
422.5
 30
0
 10
231.5
 20
449.5
 30
0
  0
SPLINE
  5
CFD
330
A02
100
AcDbEntity
  8
View019
100
AcDbSpline
210
0
220
0
230
1
 70
8
 71
1
 72
4
 73
2
 74
0
 40
38.5
 40
38.5
 40
50
 40
50
 10
231.5
 20
449.5
 30
0
 10
231.5
 20
461
 30
0
  0
SPLINE
  5
CFE
330
A02
100
AcDbEntity
  8
View019
100
AcDbSpline
210
0
220
0
230
1
 70
8
 71
1
 72
4
 73
2
 74
0
 40
7
 40
7
 40
7
 40
7
 10
231.5
 20
461
 30
0
 10
231.5
 20
461
 30
0
  0
SPLINE
  5
CFF
330
A02
100
AcDbEntity
  8
View019
100
AcDbSpline
210
0
220
0
230
1
 70
8
 71
3
 72
29
 73
25
 74
0
 40
0
 40
0
 40
0
 40
0
 40
0.589049
 40
0.589049
 40
0.589049
 40
1.1781
 40
1.1781
 40
1.1781
 40
1.76715
 40
1.76715
 40
1.76715
 40
2.35619
 40
2.35619
 40
2.35619
 40
2.94524
 40
2.94524
 40
2.94524
 40
3.53429
 40
3.53429
 40
3.53429
 40
4.12334
 40
4.12334
 40
4.12334
 40
4.71239
 40
4.71239
 40
4.71239
 40
4.71239
 10
230
 20
451
 30
0
 10
229.77
 20
451
 30
0
 10
229.498
 20
450.945
 30
0
 10
229.238
 20
450.792
 30
0
 10
228.978
 20
450.641
 30
0
 10
228.741
 20
450.385
 30
0
 10
228.614
 20
450.074
 30
0
 10
228.484
 20
449.765
 30
0
 10
228.47
 20
449.416
 30
0
 10
228.547
 20
449.126
 30
0
 10
228.623
 20
448.833
 30
0
 10
228.777
 20
448.601
 30
0
 10
228.939
 20
448.439
 30
0
 10
229.101
 20
448.277
 30
0
 10
229.333
 20
448.123
 30
0
 10
229.626
 20
448.047
 30
0
 10
229.916
 20
447.97
 30
0
 10
230.265
 20
447.984
 30
0
 10
230.574
 20
448.114
 30
0
 10
230.885
 20
448.241
 30
0
 10
231.141
 20
448.478
 30
0
 10
231.292
 20
448.738
 30
0
 10
231.445
 20
448.998
 30
0
 10
231.5
 20
449.27
 30
0
 10
231.5
 20
449.5
 30
0
  0
SPLINE
  5
D00
330
A02
100
AcDbEntity
  8
View019
100
AcDbSpline
210
0
220
0
230
1
 70
8
 71
1
 72
4
 73
2
 74
0
 40
4.71239
 40
4.71239
 40
4.71354
 40
4.71354
 10
231.5
 20
449.5
 30
0
 10
231.5
 20
449.502
 30
0
  0
SPLINE
  5
D01
330
A02
100
AcDbEntity
  8
View019
100
AcDbSpline
210
0
220
0
230
1
 70
8
 71
3
 72
29
 73
25
 74
0
 40
0
 40
0
 40
0
 40
0
 40
0.589049
 40
0.589049
 40
0.589049
 40
1.1781
 40
1.1781
 40
1.1781
 40
1.76715
 40
1.76715
 40
1.76715
 40
2.35619
 40
2.35619
 40
2.35619
 40
2.94524
 40
2.94524
 40
2.94524
 40
3.53429
 40
3.53429
 40
3.53429
 40
4.12334
 40
4.12334
 40
4.12334
 40
4.71239
 40
4.71239
 40
4.71239
 40
4.71239
 10
230
 20
424
 30
0
 10
229.77
 20
424
 30
0
 10
229.498
 20
423.945
 30
0
 10
229.238
 20
423.792
 30
0
 10
228.978
 20
423.641
 30
0
 10
228.741
 20
423.385
 30
0
 10
228.614
 20
423.074
 30
0
 10
228.484
 20
422.765
 30
0
 10
228.47
 20
422.416
 30
0
 10
228.547
 20
422.126
 30
0
 10
228.623
 20
421.833
 30
0
 10
228.777
 20
421.601
 30
0
 10
228.939
 20
421.439
 30
0
 10
229.101
 20
421.277
 30
0
 10
229.333
 20
421.123
 30
0
 10
229.626
 20
421.047
 30
0
 10
229.916
 20
420.97
 30
0
 10
230.265
 20
420.984
 30
0
 10
230.574
 20
421.114
 30
0
 10
230.885
 20
421.241
 30
0
 10
231.141
 20
421.478
 30
0
 10
231.292
 20
421.738
 30
0
 10
231.445
 20
421.998
 30
0
 10
231.5
 20
422.27
 30
0
 10
231.5
 20
422.5
 30
0
  0
SPLINE
  5
D02
330
A02
100
AcDbEntity
  8
View019
100
AcDbSpline
210
0
220
0
230
1
 70
8
 71
1
 72
4
 73
2
 74
0
 40
4.71239
 40
4.71239
 40
4.71354
 40
4.71354
 10
231.5
 20
422.5
 30
0
 10
231.5
 20
422.502
 30
0
  0
SPLINE
  5
D03
330
A02
100
AcDbEntity
  8
View019
100
AcDbSpline
210
0
220
0
230
1
 70
8
 71
1
 72
4
 73
2
 74
0
 40
0
 40
0
 40
4
 40
4
 10
231.5
 20
411
 30
0
 10
231.5
 20
411
 30
0
  0
SPLINE
  5
D04
330
A02
100
AcDbEntity
  8
View019
100
AcDbSpline
210
0
220
0
230
1
 70
8
 71
1
 72
4
 73
2
 74
0
 40
-34.0242
 40
-34.0242
 40
-30.0242
 40
-30.0242
 10
231.5
 20
422.5
 30
0
 10
231.5
 20
422.5
 30
0
  0
SPLINE
  5
D05
330
A02
100
AcDbEntity
  8
View019
100
AcDbSpline
210
0
220
0
230
1
 70
8
 71
1
 72
4
 73
2
 74
0
 40
-34.0242
 40
-34.0242
 40
-30.0242
 40
-30.0242
 10
231.5
 20
449.5
 30
0
 10
231.5
 20
449.5
 30
0
  0
SPLINE
  5
D06
330
A02
100
AcDbEntity
  8
View019
100
AcDbSpline
210
0
220
0
230
1
 70
8
 71
1
 72
4
 73
2
 74
0
 40
0
 40
0
 40
4
 40
4
 10
231.5
 20
461
 30
0
 10
231.5
 20
461
 30
0
  0
ARC
  5
D07
330
A02
100
AcDbEntity
  8
View022
100
AcDbCircle
 10
77.5564
 20
436.74
 30
0
 40
2
100
AcDbArc
 50
0.0438292
 51
71.5
  0
LINE
  5
D08
330
A02
100
AcDbEntity
  8
View022
100
AcDbLine
 10
78.191
 20
438.636
 30
0
 11
67.9918
 21
442.049
 31
0
  0
ARC
  5
D09
330
A02
100
AcDbEntity
  8
View022
100
AcDbCircle
 10
67.3572
 20
440.152
 30
0
 40
2
100
AcDbArc
 50
71.5
 51
131.5
  0
LINE
  5
D0A
330
A02
100
AcDbEntity
  8
View022
100
AcDbLine
 10
66.0319
 20
441.65
 30
0
 11
72.5256
 21
434.31
 31
0
  0
LINE
  5
D0B
330
A02
100
AcDbEntity
  8
View022
100
AcDbLine
 10
72.5256
 20
434.31
 30
0
 11
71.7767
 21
433.648
 31
0
  0
LINE
  5
D0C
330
A02
100
AcDbEntity
  8
View022
100
AcDbLine
 10
71.7767
 20
433.648
 30
0
 11
74.4271
 21
430.652
 31
0
  0
LINE
  5
D0D
330
A02
100
AcDbEntity
  8
View022
100
AcDbLine
 10
74.4271
 20
430.652
 30
0
 11
68.4355
 21
425.351
 31
0
  0
LINE
  5
D0E
330
A02
100
AcDbEntity
  8
View022
100
AcDbLine
 10
68.4355
 20
425.351
 30
0
 11
65.785
 21
428.347
 31
0
  0
LINE
  5
D0F
330
A02
100
AcDbEntity
  8
View022
100
AcDbLine
 10
65.785
 20
428.347
 30
0
 11
65.0361
 21
427.684
 31
0
  0
ARC
  5
D10
330
A02
100
AcDbEntity
  8
View022
100
AcDbCircle
 10
66.3613
 20
426.186
 30
0
 40
2
100
AcDbArc
 50
131.5
 51
-179.956
  0
LINE
  5
D11
330
A02
100
AcDbEntity
  8
View022
100
AcDbLine
 10
64.3613
 20
426.185
 30
0
 11
64.4437
 21
318.49
 31
0
  0
LINE
  5
D12
330
A02
100
AcDbEntity
  8
View022
100
AcDbLine
 10
64.4437
 20
318.49
 30
0
 11
68.6294
 21
317.089
 31
0
  0
LINE
  5
D13
330
A02
100
AcDbEntity
  8
View022
100
AcDbLine
 10
68.6294
 20
317.089
 30
0
 11
70.8505
 21
323.727
 31
0
  0
LINE
  5
D14
330
A02
100
AcDbEntity
  8
View022
100
AcDbLine
 10
70.8505
 20
323.727
 30
0
 11
74.6438
 21
322.458
 31
0
  0
LINE
  5
D15
330
A02
100
AcDbEntity
  8
View022
100
AcDbLine
 10
74.6438
 20
322.458
 30
0
 11
72.4227
 21
315.82
 31
0
  0
LINE
  5
D16
330
A02
100
AcDbEntity
  8
View022
100
AcDbLine
 10
72.4227
 20
315.82
 30
0
 11
79.6508
 21
313.401
 31
0
  0
LINE
  5
D17
330
A02
100
AcDbEntity
  8
View022
100
AcDbLine
 10
79.5564
 20
436.741
 30
0
 11
79.6508
 21
313.401
 31
0
  0
SPLINE
  5
D18
330
A02
100
AcDbEntity
  8
View023
100
AcDbSpline
210
0
220
0
230
1
 70
8
 71
3
 72
11
 73
7
 74
0
 40
0.323651
 40
0.323651
 40
0.323651
 40
0.323651
 40
0.947224
 40
0.947224
 40
0.947224
 40
1.5708
 40
1.5708
 40
1.5708
 40
1.5708
 10
95.5564
 20
435.741
 30
0
 10
95.5587
 20
436.13
 30
0
 10
95.4331
 20
436.56
 30
0
 10
95.1791
 20
436.909
 30
0
 10
94.9287
 20
437.26
 30
0
 10
94.5603
 20
437.516
 30
0
 10
94.191
 20
437.636
 30
0
  0
SPLINE
  5
D19
330
A02
100
AcDbEntity
  8
View023
100
AcDbSpline
210
0
220
0
230
1
 70
8
 71
1
 72
4
 73
2
 74
0
 40
7.92984e-15
 40
7.92984e-15
 40
10.755
 40
10.755
 10
94.191
 20
437.636
 30
0
 10
83.9918
 20
441.049
 30
0
  0
SPLINE
  5
D1A
330
A02
100
AcDbEntity
  8
View023
100
AcDbSpline
210
0
220
0
230
1
 70
8
 71
3
 72
11
 73
7
 74
0
 40
1.5708
 40
1.5708
 40
1.5708
 40
1.5708
 40
2.0944
 40
2.0944
 40
2.0944
 40
2.61799
 40
2.61799
 40
2.61799
 40
2.61799
 10
83.9918
 20
441.049
 30
0
 10
83.6764
 20
441.156
 30
0
 10
83.309
 20
441.185
 30
0
 10
82.9584
 20
441.112
 30
0
 10
82.6074
 20
441.042
 30
0
 10
82.2805
 20
440.872
 30
0
 10
82.0319
 20
440.65
 30
0
  0
SPLINE
  5
D1B
330
A02
100
AcDbEntity
  8
View023
100
AcDbSpline
210
0
220
0
230
1
 70
8
 71
1
 72
4
 73
2
 74
0
 40
0
 40
0
 40
9.8
 40
9.8
 10
82.0319
 20
440.65
 30
0
 10
88.5256
 20
433.31
 30
0
  0
SPLINE
  5
D1C
330
A02
100
AcDbEntity
  8
View023
100
AcDbSpline
210
0
220
0
230
1
 70
8
 71
1
 72
4
 73
2
 74
0
 40
3.55271e-15
 40
3.55271e-15
 40
1
 40
1
 10
88.5256
 20
433.31
 30
0
 10
87.7767
 20
432.648
 30
0
  0
SPLINE
  5
D1D
330
A02
100
AcDbEntity
  8
View023
100
AcDbSpline
210
0
220
0
230
1
 70
8
 71
1
 72
4
 73
2
 74
0
 40
0
 40
0
 40
4
 40
4
 10
87.7767
 20
432.648
 30
0
 10
90.4271
 20
429.652
 30
0
  0
SPLINE
  5
D1E
330
A02
100
AcDbEntity
  8
View023
100
AcDbSpline
210
0
220
0
230
1
 70
8
 71
1
 72
4
 73
2
 74
0
 40
3.55271e-15
 40
3.55271e-15
 40
8
 40
8
 10
90.4271
 20
429.652
 30
0
 10
84.4355
 20
424.351
 30
0
  0
SPLINE
  5
D1F
330
A02
100
AcDbEntity
  8
View023
100
AcDbSpline
210
0
220
0
230
1
 70
8
 71
1
 72
4
 73
2
 74
0
 40
7.10543e-15
 40
7.10543e-15
 40
4
 40
4
 10
84.4355
 20
424.351
 30
0
 10
81.785
 20
427.347
 30
0
  0
SPLINE
  5
D20
330
A02
100
AcDbEntity
  8
View023
100
AcDbSpline
210
0
220
0
230
1
 70
8
 71
1
 72
4
 73
2
 74
0
 40
8.88178e-16
 40
8.88178e-16
 40
1
 40
1
 10
81.785
 20
427.347
 30
0
 10
81.0361
 20
426.684
 30
0
  0
SPLINE
  5
D21
330
A02
100
AcDbEntity
  8
View023
100
AcDbSpline
210
0
220
0
230
1
 70
8
 71
3
 72
11
 73
7
 74
0
 40
2.61799
 40
2.61799
 40
2.61799
 40
2.61799
 40
3.04162
 40
3.04162
 40
3.04162
 40
3.46524
 40
3.46524
 40
3.46524
 40
3.46524
 10
81.0361
 20
426.684
 30
0
 10
80.8305
 20
426.503
 30
0
 10
80.6547
 20
426.269
 30
0
 10
80.5375
 20
426.007
 30
0
 10
80.4192
 20
425.746
 30
0
 10
80.3605
 20
425.459
 30
0
 10
80.3613
 20
425.185
 30
0
  0
SPLINE
  5
D22
330
A02
100
AcDbEntity
  8
View023
100
AcDbSpline
210
0
220
0
230
1
 70
8
 71
1
 72
4
 73
2
 74
0
 40
0
 40
0
 40
107.695
 40
107.695
 10
80.3613
 20
425.185
 30
0
 10
80.4437
 20
317.49
 30
0
  0
SPLINE
  5
D23
330
A02
100
AcDbEntity
  8
View023
100
AcDbSpline
210
0
220
0
230
1
 70
8
 71
1
 72
4
 73
2
 74
0
 40
0
 40
0
 40
4.4138
 40
4.4138
 10
80.4437
 20
317.49
 30
0
 10
84.6294
 20
316.089
 30
0
  0
SPLINE
  5
D24
330
A02
100
AcDbEntity
  8
View023
100
AcDbSpline
210
0
220
0
230
1
 70
8
 71
1
 72
4
 73
2
 74
0
 40
3.88248e-14
 40
3.88248e-14
 40
7
 40
7
 10
84.6294
 20
316.089
 30
0
 10
86.8505
 20
322.727
 30
0
  0
SPLINE
  5
D25
330
A02
100
AcDbEntity
  8
View023
100
AcDbSpline
210
0
220
0
230
1
 70
8
 71
1
 72
4
 73
2
 74
0
 40
0
 40
0
 40
4
 40
4
 10
86.8505
 20
322.727
 30
0
 10
90.6438
 20
321.458
 30
0
  0
SPLINE
  5
D26
330
A02
100
AcDbEntity
  8
View023
100
AcDbSpline
210
0
220
0
230
1
 70
8
 71
1
 72
4
 73
2
 74
0
 40
0
 40
0
 40
7
 40
7
 10
90.6438
 20
321.458
 30
0
 10
88.4227
 20
314.82
 30
0
  0
SPLINE
  5
D27
330
A02
100
AcDbEntity
  8
View023
100
AcDbSpline
210
0
220
0
230
1
 70
8
 71
1
 72
4
 73
2
 74
0
 40
0
 40
0
 40
7.62194
 40
7.62194
 10
88.4227
 20
314.82
 30
0
 10
95.6508
 20
312.401
 30
0
  0
SPLINE
  5
D28
330
A02
100
AcDbEntity
  8
View023
100
AcDbSpline
210
0
220
0
230
1
 70
8
 71
1
 72
4
 73
2
 74
0
 40
0
 40
0
 40
123.34
 40
123.34
 10
95.5564
 20
435.741
 30
0
 10
95.6508
 20
312.401
 30
0
  0
LINE
  5
D29
330
A02
100
AcDbEntity
  8
View026
100
AcDbLine
 10
202
 20
389
 30
0
 11
201
 21
389
 31
0
  0
LINE
  5
D2A
330
A02
100
AcDbEntity
  8
View026
100
AcDbLine
 10
202
 20
389
 30
0
 11
202
 21
415
 31
0
  0
LINE
  5
D2B
330
A02
100
AcDbEntity
  8
View026
100
AcDbLine
 10
201
 20
415
 30
0
 11
202
 21
415
 31
0
  0
LINE
  5
D2C
330
A02
100
AcDbEntity
  8
View026
100
AcDbLine
 10
201
 20
416
 30
0
 11
201
 21
415
 31
0
  0
ARC
  5
D2D
330
A02
100
AcDbEntity
  8
View026
100
AcDbCircle
 10
203
 20
416
 30
0
 40
2
100
AcDbArc
 50
90
 51
180
  0
LINE
  5
D2E
330
A02
100
AcDbEntity
  8
View026
100
AcDbLine
 10
209
 20
418
 30
0
 11
203
 21
418
 31
0
  0
ARC
  5
D2F
330
A02
100
AcDbEntity
  8
View026
100
AcDbCircle
 10
209
 20
416
 30
0
 40
2
100
AcDbArc
 50
0
 51
90
  0
LINE
  5
D30
330
A02
100
AcDbEntity
  8
View026
100
AcDbLine
 10
211
 20
415
 30
0
 11
211
 21
416
 31
0
  0
LINE
  5
D31
330
A02
100
AcDbEntity
  8
View026
100
AcDbLine
 10
210
 20
415
 30
0
 11
211
 21
415
 31
0
  0
LINE
  5
D32
330
A02
100
AcDbEntity
  8
View026
100
AcDbLine
 10
210
 20
415
 30
0
 11
210
 21
389
 31
0
  0
LINE
  5
D33
330
A02
100
AcDbEntity
  8
View026
100
AcDbLine
 10
211
 20
389
 30
0
 11
210
 21
389
 31
0
  0
LINE
  5
D34
330
A02
100
AcDbEntity
  8
View026
100
AcDbLine
 10
211
 20
388
 30
0
 11
211
 21
389
 31
0
  0
ARC
  5
D35
330
A02
100
AcDbEntity
  8
View026
100
AcDbCircle
 10
209
 20
388
 30
0
 40
2
100
AcDbArc
 50
-90
 51
0
  0
LINE
  5
D36
330
A02
100
AcDbEntity
  8
View026
100
AcDbLine
 10
203
 20
386
 30
0
 11
209
 21
386
 31
0
  0
ARC
  5
D37
330
A02
100
AcDbEntity
  8
View026
100
AcDbCircle
 10
203
 20
388
 30
0
 40
2
100
AcDbArc
 50
180
 51
-90
  0
LINE
  5
D38
330
A02
100
AcDbEntity
  8
View026
100
AcDbLine
 10
201
 20
389
 30
0
 11
201
 21
388
 31
0
  0
ENDSEC
  0
SECTION
  2
OBJECTS
  0
DICTIONARY
  5
F000
330
0
100
AcDbDictionary
  3
ACAD_GROUP
350
F001
  0
DICTIONARY
  5
F001
330
F000
100
AcDbDictionary
  0
ENDSEC
  0
EOF