  0
SECTION
  2
HEADER
  9
$ACADVER
  1
AC1014
  9
$HANDSEED
  5
FFFF
  9
$INSUNITS
 70
     4
  9
$MEASUREMENT
 70
     1
  0
ENDSEC
  0
SECTION
  2
TABLES
  0
TABLE
  2
VPORT
  5
8
330
0
100
AcDbSymbolTable
 70
     4
  0
VPORT
  5
2E
330
8
100
AcDbSymbolTableRecord
100
AcDbViewportTableRecord
  2
*ACTIVE
 70
     0
 10
0.0
 20
0.0
 11
1.0
 21
1.0
 12
210.0
 22
148.5
 13
0.0
 23
0.0
 14
10.0
 24
10.0
 15
10.0
 25
10.0
 16
0.0
 26
0.0
 36
1.0
 17
0.0
 27
0.0
 37
0.0
 40
341.0
 41
1.24
 42
50.0
 43
0.0
 44
0.0
 50
0.0
 51
0.0
 71
     0
 72
   100
 73
     1
 74
     3
 75
     0
 76
     0
 77
     0
 78
     0
  0
ENDTAB
  0
TABLE
  2
LTYPE
  5
5
330
0
100
AcDbSymbolTable
 70
     1
  0
LTYPE
  5
14
330
5
100
AcDbSymbolTableRecord
100
AcDbLinetypeTableRecord
  2
BYBLOCK
 70
     0
  3

 72
    65
 73
     0
 40
0.0
  0
LTYPE
  5
15
330
5
100
AcDbSymbolTableRecord
100
AcDbLinetypeTableRecord
  2
BYLAYER
 70
     0
  3

 72
    65
 73
     0
 40
0.0
  0
LTYPE
  5
16
330
5
100
AcDbSymbolTableRecord
100
AcDbLinetypeTableRecord
  2
CONTINUOUS
 70
     0
  3
Solid line
 72
    65
 73
     0
 40
0.0
  0
ENDTAB
  0
TABLE
  2
LAYER
  5
2
100
AcDbSymbolTable
 70
2
  0
LAYER
  5
50
100
AcDbSymbolTableRecord
100
AcDbLayerTableRecord
  2
0
 70
0
  6
CONTINUOUS
  0
LAYER
  5
51
100
AcDbSymbolTableRecord
100
AcDbLayerTableRecord
  2
Layer_1
 70
0
  6
CONTINUOUS
  0
ENDTAB
  0
TABLE
  2
STYLE
  5
3
330
0
100
AcDbSymbolTable
 70
     1
  0
STYLE
  5
11
330
3
100
AcDbSymbolTableRecord
100
AcDbTextStyleTableRecord
  2
STANDARD
 70
     0
 40
0.0
 41
1.0
 50
0.0
 71
     0
 42
2.5
  3
txt
  4

  0
ENDTAB
  0
TABLE
  2
VIEW
  5
6
330
0
100
AcDbSymbolTable
 70
     0
  0
ENDTAB
  0
TABLE
  2
UCS
  5
7
330
0
100
AcDbSymbolTable
 70
     0
  0
ENDTAB
  0
TABLE
  2
APPID
  5
9
330
0
100
AcDbSymbolTable
 70
     2
  0
APPID
  5
12
330
9
100
AcDbSymbolTableRecord
100
AcDbRegAppTableRecord
  2
ACAD
 70
     0
  0
ENDTAB
  0
TABLE
  2
DIMSTYLE
  5
A
330
0
100
AcDbSymbolTable
 70
     1
  0
DIMSTYLE
105
27
330
A
100
AcDbSymbolTableRecord
100
AcDbDimStyleTableRecord
  2
ISO-25
 70
     0
  3

  4

  5

  6

  7

 40
1.0
 41
2.5
 42
0.625
 43
3.75
 44
1.25
 45
0.0
 46
0.0
 47
0.0
 48
0.0
140
2.5
141
2.5
142
0.0
143
0.03937007874016
144
1.0
145
0.0
146
1.0
147
0.625
 71
     0
 72
     0
 73
     0
 74
     0
 75
     0
 76
     0
 77
     1
 78
     8
170
     0
171
     3
172
     1
173
     0
174
     0
175
     0
176
     0
177
     0
178
     0
270
     2
271
     2
272
     2
273
     2
274
     3
340
11
275
     0
280
     0
281
     0
282
     0
283
     0
284
     8
285
     0
286
     0
287
     3
288
     0
  0
ENDTAB
  0
TABLE
  2
BLOCK_RECORD
  5
1
330
0
100
AcDbSymbolTable
 70
     1
  0
BLOCK_RECORD
  5
1F
330
1
100
AcDbSymbolTableRecord
100
AcDbBlockTableRecord
  2
*MODEL_SPACE
  0
BLOCK_RECORD
  5
1B
330
1
100
AcDbSymbolTableRecord
100
AcDbBlockTableRecord
  2
*PAPER_SPACE
  0
ENDTAB
  0
ENDSEC
  0
SECTION
  2
BLOCKS
  0
BLOCK
  5
20
330
1F
100
AcDbEntity
  8
0
100
AcDbBlockBegin
  2
*MODEL_SPACE
 70
     0
 10
0.0
 20
0.0
 30
0.0
  3
*MODEL_SPACE
  1

  0
ENDBLK
  5
21
330
1F
100
AcDbEntity
  8
0
100
AcDbBlockEnd
  0
BLOCK
  5
1C
330
1B
100
AcDbEntity
 67
     1
  8
0
100
AcDbBlockBegin
  2
*PAPER_SPACE
  1

  0
ENDBLK
  5
1D
330
1B
100
AcDbEntity
 67
     1
  8
0
100
AcDbBlockEnd
  0
ENDSEC
  0
SECTION
  2
ENTITIES
  0
SPLINE
  5
100
100
AcDbEntity
  8
Layer_1
 62
7
100
AcDbSpline
 70
8
 71
3
 72
8
 73
4
 74
0
 40
0
 40
0
 40
0
 40
0
 40
1
 40
1
 40
1
 40
1
 10
41.823100
 20
18.504188
 30
0.0
 10
42.360700
 20
13.298098
 30
0.0
 10
43.331900
 20
8.145898
 30
0.0
 10
44.726500
 20
3.101298
 30
0.0
  0
SPLINE
  5
101
100
AcDbEntity
  8
Layer_1
 62
7
100
AcDbSpline
 70
8
 71
3
 72
8
 73
4
 74
0
 40
0
 40
0
 40
0
 40
0
 40
1
 40
1
 40
1
 40
1
 10
44.726500
 20
3.101298
 30
0.0
 10
45.205700
 20
1.367698
 30
0.0
 10
46.783200
 20
0.167098
 30
0.0
 10
48.581860
 20
0.167098
 30
0.0
  0
SPLINE
  5
102
100
AcDbEntity
  8
Layer_1
 62
7
100
AcDbSpline
 70
8
 71
3
 72
8
 73
4
 74
0
 40
0
 40
0
 40
0
 40
0
 40
1
 40
1
 40
1
 40
1
 10
67.069140
 20
0.167098
 30
0.0
 10
68.867800
 20
0.167098
 30
0.0
 10
70.445300
 20
1.367698
 30
0.0
 10
70.924500
 20
3.101298
 30
0.0
  0
SPLINE
  5
103
100
AcDbEntity
  8
Layer_1
 62
7
100
AcDbSpline
 70
8
 71
3
 72
8
 73
4
 74
0
 40
0
 40
0
 40
0
 40
0
 40
1
 40
1
 40
1
 40
1
 10
70.924500
 20
3.101298
 30
0.0
 10
72.319100
 20
8.145898
 30
0.0
 10
73.290300
 20
13.298098
 30
0.0
 10
73.827900
 20
18.504188
 30
0.0
  0
SPLINE
  5
104
100
AcDbEntity
  8
Layer_1
 62
7
100
AcDbSpline
 70
8
 71
3
 72
8
 73
4
 74
0
 40
0
 40
0
 40
0
 40
0
 40
1
 40
1
 40
1
 40
1
 10
73.827900
 20
18.504188
 30
0.0
 10
74.056800
 20
20.721288
 30
0.0
 10
74.898800
 20
22.830808
 30
0.0
 10
76.259300
 20
24.596300
 30
0.0
  0
SPLINE
  5
105
100
AcDbEntity
  8
Layer_1
 62
7
100
AcDbSpline
 70
8
 71
3
 72
8
 73
4
 74
0
 40
0
 40
0
 40
0
 40
0
 40
1
 40
1
 40
1
 40
1
 10
76.259300
 20
24.596300
 30
0.0
 10
78.001100
 20
26.856698
 30
0.0
 10
77.857900
 20
30.044048
 30
0.0
 10
75.920400
 20
32.139118
 30
0.0
  0
SPLINE
  5
106
100
AcDbEntity
  8
Layer_1
 62
7
100
AcDbSpline
 70
8
 71
3
 72
8
 73
4
 74
0
 40
0
 40
0
 40
0
 40
0
 40
1
 40
1
 40
1
 40
1
 10
75.920400
 20
32.139118
 30
0.0
 10
74.905600
 20
33.236308
 30
0.0
 10
74.336900
 20
34.672698
 30
0.0
 10
74.325500
 20
36.167098
 30
0.0
  0
LWPOLYLINE
  5
107
100
AcDbEntity
  8
Layer_1
 62
7
100
AcDbPolyline
 90
2
 70
0
 10
48.581860
 20
0.167098
 30
0.0
 10
67.069140
 20
0.167098
 30
0.0
  0
SPLINE
  5
108
100
AcDbEntity
  8
Layer_1
 62
7
100
AcDbSpline
 70
8
 71
3
 72
8
 73
4
 74
0
 40
0
 40
0
 40
0
 40
0
 40
1
 40
1
 40
1
 40
1
 10
74.325500
 20
37.041298
 30
0.0
 10
74.183400
 20
39.638998
 30
0.0
 10
72.786900
 20
42.005498
 30
0.0
 10
70.581500
 20
43.385698
 30
0.0
  0
SPLINE
  5
109
100
AcDbEntity
  8
Layer_1
 62
7
100
AcDbSpline
 70
8
 71
3
 72
8
 73
4
 74
0
 40
0
 40
0
 40
0
 40
0
 40
1
 40
1
 40
1
 40
1
 10
70.581500
 20
43.385698
 30
0.0
 10
69.037000
 20
44.352198
 30
0.0
 10
67.868800
 20
45.816998
 30
0.0
 10
67.269940
 20
47.537798
 30
0.0
  0
SPLINE
  5
10a
100
AcDbEntity
  8
Layer_1
 62
7
100
AcDbSpline
 70
8
 71
3
 72
8
 73
4
 74
0
 40
0
 40
0
 40
0
 40
0
 40
1
 40
1
 40
1
 40
1
 10
67.269940
 20
47.537798
 30
0.0
 10
67.109560
 20
47.998598
 30
0.0
 10
66.639980
 20
48.276398
 30
0.0
 10
66.158830
 20
48.195098
 30
0.0
  0
SPLINE
  5
10b
100
AcDbEntity
  8
Layer_1
 62
7
100
AcDbSpline
 70
8
 71
3
 72
8
 73
4
 74
0
 40
0
 40
0
 40
0
 40
0
 40
1
 40
1
 40
1
 40
1
 10
66.158830
 20
48.195098
 30
0.0
 10
65.677690
 20
48.113798
 30
0.0
 10
65.325500
 20
47.696998
 30
0.0
 10
65.325500
 20
47.209098
 30
0.0
  0
LWPOLYLINE
  5
10c
100
AcDbEntity
  8
Layer_1
 62
7
100
AcDbPolyline
 90
2
 70
0
 10
74.325500
 20
36.167098
 30
0.0
 10
74.325500
 20
37.041298
 30
0.0
  0
SPLINE
  5
10d
100
AcDbEntity
  8
Layer_1
 62
7
100
AcDbSpline
 70
8
 71
3
 72
8
 73
4
 74
0
 40
0
 40
0
 40
0
 40
0
 40
1
 40
1
 40
1
 40
1
 10
65.325500
 20
41.817098
 30
0.0
 10
65.325500
 20
41.078498
 30
0.0
 10
65.143680
 20
40.351198
 30
0.0
 10
64.796090
 20
39.699498
 30
0.0
  0
LWPOLYLINE
  5
10e
100
AcDbEntity
  8
Layer_1
 62
7
100
AcDbPolyline
 90
2
 70
0
 10
65.325500
 20
47.209098
 30
0.0
 10
65.325500
 20
41.817098
 30
0.0
  0
SPLINE
  5
10f
100
AcDbEntity
  8
Layer_1
 62
7
100
AcDbSpline
 70
8
 71
3
 72
8
 73
4
 74
0
 40
0
 40
0
 40
0
 40
0
 40
1
 40
1
 40
1
 40
1
 10
64.325500
 20
38.817098
 30
0.0
 10
63.931560
 20
38.078498
 30
0.0
 10
63.725500
 20
37.254198
 30
0.0
 10
63.725500
 20
36.417098
 30
0.0
  0
LWPOLYLINE
  5
110
100
AcDbEntity
  8
Layer_1
 62
7
100
AcDbPolyline
 90
2
 70
0
 10
64.796090
 20
39.699498
 30
0.0
 10
64.325500
 20
38.817098
 30
0.0
  0
SPLINE
  5
111
100
AcDbEntity
  8
Layer_1
 62
7
100
AcDbSpline
 70
8
 71
3
 72
8
 73
4
 74
0
 40
0
 40
0
 40
0
 40
0
 40
1
 40
1
 40
1
 40
1
 10
51.925500
 20
36.417098
 30
0.0
 10
51.925500
 20
37.254198
 30
0.0
 10
51.719440
 20
38.078498
 30
0.0
 10
51.325500
 20
38.817098
 30
0.0
  0
LWPOLYLINE
  5
112
100
AcDbEntity
  8
Layer_1
 62
7
100
AcDbPolyline
 90
8
 70
0
 10
63.725500
 20
36.417098
 30
0.0
 10
63.725500
 20
36.317098
 30
0.0
 10
62.525500
 20
36.317098
 30
0.0
 10
62.525500
 20
29.667118
 30
0.0
 10
53.125500
 20
29.667118
 30
0.0
 10
53.125500
 20
36.317098
 30
0.0
 10
51.925500
 20
36.317098
 30
0.0
 10
51.925500
 20
36.417098
 30
0.0
  0
SPLINE
  5
113
100
AcDbEntity
  8
Layer_1
 62
7
100
AcDbSpline
 70
8
 71
3
 72
8
 73
4
 74
0
 40
0
 40
0
 40
0
 40
0
 40
1
 40
1
 40
1
 40
1
 10
50.854910
 20
39.699498
 30
0.0
 10
50.507320
 20
40.351198
 30
0.0
 10
50.325500
 20
41.078498
 30
0.0
 10
50.325500
 20
41.817098
 30
0.0
  0
LWPOLYLINE
  5
114
100
AcDbEntity
  8
Layer_1
 62
7
100
AcDbPolyline
 90
2
 70
0
 10
51.325500
 20
38.817098
 30
0.0
 10
50.854910
 20
39.699498
 30
0.0
  0
SPLINE
  5
115
100
AcDbEntity
  8
Layer_1
 62
7
100
AcDbSpline
 70
8
 71
3
 72
8
 73
4
 74
0
 40
0
 40
0
 40
0
 40
0
 40
1
 40
1
 40
1
 40
1
 10
50.325500
 20
47.209098
 30
0.0
 10
50.325500
 20
47.696998
 30
0.0
 10
49.973310
 20
48.113798
 30
0.0
 10
49.492170
 20
48.195098
 30
0.0
  0
SPLINE
  5
116
100
AcDbEntity
  8
Layer_1
 62
7
100
AcDbSpline
 70
8
 71
3
 72
8
 73
4
 74
0
 40
0
 40
0
 40
0
 40
0
 40
1
 40
1
 40
1
 40
1
 10
49.492170
 20
48.195098
 30
0.0
 10
49.011020
 20
48.276398
 30
0.0
 10
48.541440
 20
47.998598
 30
0.0
 10
48.381060
 20
47.537798
 30
0.0
  0
SPLINE
  5
117
100
AcDbEntity
  8
Layer_1
 62
7
100
AcDbSpline
 70
8
 71
3
 72
8
 73
4
 74
0
 40
0
 40
0
 40
0
 40
0
 40
1
 40
1
 40
1
 40
1
 10
48.381060
 20
47.537798
 30
0.0
 10
47.782200
 20
45.816998
 30
0.0
 10
46.614000
 20
44.352198
 30
0.0
 10
45.069500
 20
43.385698
 30
0.0
  0
SPLINE
  5
118
100
AcDbEntity
  8
Layer_1
 62
7
100
AcDbSpline
 70
8
 71
3
 72
8
 73
4
 74
0
 40
0
 40
0
 40
0
 40
0
 40
1
 40
1
 40
1
 40
1
 10
45.069500
 20
43.385698
 30
0.0
 10
42.864100
 20
42.005498
 30
0.0
 10
41.467600
 20
39.638998
 30
0.0
 10
41.325500
 20
37.041298
 30
0.0
  0
LWPOLYLINE
  5
119
100
AcDbEntity
  8
Layer_1
 62
7
100
AcDbPolyline
 90
2
 70
0
 10
50.325500
 20
41.817098
 30
0.0
 10
50.325500
 20
47.209098
 30
0.0
  0
SPLINE
  5
11a
100
AcDbEntity
  8
Layer_1
 62
7
100
AcDbSpline
 70
8
 71
3
 72
8
 73
4
 74
0
 40
0
 40
0
 40
0
 40
0
 40
1
 40
1
 40
1
 40
1
 10
41.325500
 20
36.167098
 30
0.0
 10
41.314100
 20
34.672698
 30
0.0
 10
40.745400
 20
33.236308
 30
0.0
 10
39.730600
 20
32.139118
 30
0.0
  0
SPLINE
  5
11b
100
AcDbEntity
  8
Layer_1
 62
7
100
AcDbSpline
 70
8
 71
3
 72
8
 73
4
 74
0
 40
0
 40
0
 40
0
 40
0
 40
1
 40
1
 40
1
 40
1
 10
39.730600
 20
32.139118
 30
0.0
 10
37.793100
 20
30.044048
 30
0.0
 10
37.649900
 20
26.856698
 30
0.0
 10
39.391700
 20
24.596300
 30
0.0
  0
SPLINE
  5
11c
100
AcDbEntity
  8
Layer_1
 62
7
100
AcDbSpline
 70
8
 71
3
 72
8
 73
4
 74
0
 40
0
 40
0
 40
0
 40
0
 40
1
 40
1
 40
1
 40
1
 10
39.391700
 20
24.596300
 30
0.0
 10
40.752200
 20
22.830808
 30
0.0
 10
41.594200
 20
20.721288
 30
0.0
 10
41.823100
 20
18.504188
 30
0.0
  0
LWPOLYLINE
  5
11d
100
AcDbEntity
  8
Layer_1
 62
7
100
AcDbPolyline
 90
2
 70
0
 10
41.325500
 20
37.041298
 30
0.0
 10
41.325500
 20
36.167098
 30
0.0
  0
SPLINE
  5
11e
100
AcDbEntity
  8
Layer_1
 62
7
100
AcDbSpline
 70
8
 71
3
 72
8
 73
4
 74
0
 40
0
 40
0
 40
0
 40
0
 40
1
 40
1
 40
1
 40
1
 10
74.475500
 20
28.167118
 30
0.0
 10
74.475500
 20
26.593108
 30
0.0
 10
73.199500
 20
25.317118
 30
0.0
 10
71.625500
 20
25.317118
 30
0.0
  0
SPLINE
  5
11f
100
AcDbEntity
  8
Layer_1
 62
7
100
AcDbSpline
 70
8
 71
3
 72
8
 73
4
 74
0
 40
0
 40
0
 40
0
 40
0
 40
1
 40
1
 40
1
 40
1
 10
71.625500
 20
25.317118
 30
0.0
 10
70.051500
 20
25.317118
 30
0.0
 10
68.775500
 20
26.593108
 30
0.0
 10
68.775500
 20
28.167118
 30
0.0
  0
SPLINE
  5
120
100
AcDbEntity
  8
Layer_1
 62
7
100
AcDbSpline
 70
8
 71
3
 72
8
 73
4
 74
0
 40
0
 40
0
 40
0
 40
0
 40
1
 40
1
 40
1
 40
1
 10
68.775500
 20
28.167118
 30
0.0
 10
68.775500
 20
29.741128
 30
0.0
 10
70.051500
 20
31.017118
 30
0.0
 10
71.625500
 20
31.017118
 30
0.0
  0
SPLINE
  5
121
100
AcDbEntity
  8
Layer_1
 62
7
100
AcDbSpline
 70
8
 71
3
 72
8
 73
4
 74
0
 40
0
 40
0
 40
0
 40
0
 40
1
 40
1
 40
1
 40
1
 10
71.625500
 20
31.017118
 30
0.0
 10
73.199500
 20
31.017118
 30
0.0
 10
74.475500
 20
29.741128
 30
0.0
 10
74.475500
 20
28.167118
 30
0.0
  0
SPLINE
  5
122
100
AcDbEntity
  8
Layer_1
 62
7
100
AcDbSpline
 70
8
 71
3
 72
8
 73
4
 74
0
 40
0
 40
0
 40
0
 40
0
 40
1
 40
1
 40
1
 40
1
 10
46.875500
 20
28.167118
 30
0.0
 10
46.875500
 20
26.593108
 30
0.0
 10
45.599500
 20
25.317118
 30
0.0
 10
44.025500
 20
25.317118
 30
0.0
  0
SPLINE
  5
123
100
AcDbEntity
  8
Layer_1
 62
7
100
AcDbSpline
 70
8
 71
3
 72
8
 73
4
 74
0
 40
0
 40
0
 40
0
 40
0
 40
1
 40
1
 40
1
 40
1
 10
44.025500
 20
25.317118
 30
0.0
 10
42.451500
 20
25.317118
 30
0.0
 10
41.175500
 20
26.593108
 30
0.0
 10
41.175500
 20
28.167118
 30
0.0
  0
SPLINE
  5
124
100
AcDbEntity
  8
Layer_1
 62
7
100
AcDbSpline
 70
8
 71
3
 72
8
 73
4
 74
0
 40
0
 40
0
 40
0
 40
0
 40
1
 40
1
 40
1
 40
1
 10
41.175500
 20
28.167118
 30
0.0
 10
41.175500
 20
29.741128
 30
0.0
 10
42.451500
 20
31.017118
 30
0.0
 10
44.025500
 20
31.017118
 30
0.0
  0
SPLINE
  5
125
100
AcDbEntity
  8
Layer_1
 62
7
100
AcDbSpline
 70
8
 71
3
 72
8
 73
4
 74
0
 40
0
 40
0
 40
0
 40
0
 40
1
 40
1
 40
1
 40
1
 10
44.025500
 20
31.017118
 30
0.0
 10
45.599500
 20
31.017118
 30
0.0
 10
46.875500
 20
29.741128
 30
0.0
 10
46.875500
 20
28.167118
 30
0.0
  0
LWPOLYLINE
  5
126
100
AcDbEntity
  8
Layer_1
 62
7
100
AcDbPolyline
 90
4
 70
1
 10
56.025500
 20
12.967098
 30
0.0
 10
56.025500
 20
19.967118
 30
0.0
 10
64.025500
 20
19.967118
 30
0.0
 10
64.025500
 20
12.967098
 30
0.0
  0
LWPOLYLINE
  5
127
100
AcDbEntity
  8
Layer_1
 62
7
100
AcDbPolyline
 90
4
 70
1
 10
51.025500
 20
21.567118
 30
0.0
 10
51.025500
 20
23.567118
 30
0.0
 10
59.025500
 20
23.567118
 30
0.0
 10
59.025500
 20
21.567118
 30
0.0
  0
SPLINE
  5
128
100
AcDbEntity
  8
Layer_1
 62
7
100
AcDbSpline
 70
8
 71
3
 72
8
 73
4
 74
0
 40
0
 40
0
 40
0
 40
0
 40
1
 40
1
 40
1
 40
1
 10
63.025500
 20
22.367118
 30
0.0
 10
63.025500
 20
21.814838
 30
0.0
 10
62.577780
 20
21.367118
 30
0.0
 10
62.025500
 20
21.367118
 30
0.0
  0
SPLINE
  5
129
100
AcDbEntity
  8
Layer_1
 62
7
100
AcDbSpline
 70
8
 71
3
 72
8
 73
4
 74
0
 40
0
 40
0
 40
0
 40
0
 40
1
 40
1
 40
1
 40
1
 10
62.025500
 20
21.367118
 30
0.0
 10
61.473220
 20
21.367118
 30
0.0
 10
61.025500
 20
21.814838
 30
0.0
 10
61.025500
 20
22.367118
 30
0.0
  0
SPLINE
  5
12a
100
AcDbEntity
  8
Layer_1
 62
7
100
AcDbSpline
 70
8
 71
3
 72
8
 73
4
 74
0
 40
0
 40
0
 40
0
 40
0
 40
1
 40
1
 40
1
 40
1
 10
61.025500
 20
22.367118
 30
0.0
 10
61.025500
 20
22.919398
 30
0.0
 10
61.473220
 20
23.367118
 30
0.0
 10
62.025500
 20
23.367118
 30
0.0
  0
SPLINE
  5
12b
100
AcDbEntity
  8
Layer_1
 62
7
100
AcDbSpline
 70
8
 71
3
 72
8
 73
4
 74
0
 40
0
 40
0
 40
0
 40
0
 40
1
 40
1
 40
1
 40
1
 10
62.025500
 20
23.367118
 30
0.0
 10
62.577780
 20
23.367118
 30
0.0
 10
63.025500
 20
22.919398
 30
0.0
 10
63.025500
 20
22.367118
 30
0.0
  0
SPLINE
  5
12c
100
AcDbEntity
  8
Layer_1
 62
7
100
AcDbSpline
 70
8
 71
3
 72
8
 73
4
 74
0
 40
0
 40
0
 40
0
 40
0
 40
1
 40
1
 40
1
 40
1
 10
35.702300
 20
29.755008
 30
0.0
 10
35.164700
 20
34.961098
 30
0.0
 10
34.193500
 20
40.113298
 30
0.0
 10
32.798900
 20
45.157898
 30
0.0
  0
SPLINE
  5
12d
100
AcDbEntity
  8
Layer_1
 62
7
100
AcDbSpline
 70
8
 71
3
 72
8
 73
4
 74
0
 40
0
 40
0
 40
0
 40
0
 40
1
 40
1
 40
1
 40
1
 10
32.798900
 20
45.157898
 30
0.0
 10
32.319700
 20
46.891498
 30
0.0
 10
30.742200
 20
48.092098
 30
0.0
 10
28.943540
 20
48.092098
 30
0.0
  0
LWPOLYLINE
  5
12e
100
AcDbEntity
  8
Layer_1
 62
7
100
AcDbPolyline
 90
4
 70
1
 10
51.025500
 20
25.767118
 30
0.0
 10
51.025500
 20
27.767118
 30
0.0
 10
59.025500
 20
27.767118
 30
0.0
 10
59.025500
 20
25.767118
 30
0.0
  0
SPLINE
  5
12f
100
AcDbEntity
  8
Layer_1
 62
7
100
AcDbSpline
 70
8
 71
3
 72
8
 73
4
 74
0
 40
0
 40
0
 40
0
 40
0
 40
1
 40
1
 40
1
 40
1
 10
10.456260
 20
48.092098
 30
0.0
 10
8.657600
 20
48.092098
 30
0.0
 10
7.080100
 20
46.891498
 30
0.0
 10
6.600900
 20
45.157898
 30
0.0
  0
SPLINE
  5
130
100
AcDbEntity
  8
Layer_1
 62
7
100
AcDbSpline
 70
8
 71
3
 72
8
 73
4
 74
0
 40
0
 40
0
 40
0
 40
0
 40
1
 40
1
 40
1
 40
1
 10
6.600900
 20
45.157898
 30
0.0
 10
5.206300
 20
40.113298
 30
0.0
 10
4.235100
 20
34.961098
 30
0.0
 10
3.697500
 20
29.755008
 30
0.0
  0
SPLINE
  5
131
100
AcDbEntity
  8
Layer_1
 62
7
100
AcDbSpline
 70
8
 71
3
 72
8
 73
4
 74
0
 40
0
 40
0
 40
0
 40
0
 40
1
 40
1
 40
1
 40
1
 10
3.697500
 20
29.755008
 30
0.0
 10
3.468600
 20
27.537908
 30
0.0
 10
2.626600
 20
25.428388
 30
0.0
 10
1.266100
 20
23.662896
 30
0.0
  0
SPLINE
  5
132
100
AcDbEntity
  8
Layer_1
 62
7
100
AcDbSpline
 70
8
 71
3
 72
8
 73
4
 74
0
 40
0
 40
0
 40
0
 40
0
 40
1
 40
1
 40
1
 40
1
 10
1.266100
 20
23.662896
 30
0.0
 10
-0.475700
 20
21.402498
 30
0.0
 10
-0.332500
 20
18.215148
 30
0.0
 10
1.605000
 20
16.120078
 30
0.0
  0
SPLINE
  5
133
100
AcDbEntity
  8
Layer_1
 62
7
100
AcDbSpline
 70
8
 71
3
 72
8
 73
4
 74
0
 40
0
 40
0
 40
0
 40
0
 40
1
 40
1
 40
1
 40
1
 10
1.605000
 20
16.120078
 30
0.0
 10
2.619800
 20
15.022888
 30
0.0
 10
3.188500
 20
13.586498
 30
0.0
 10
3.199900
 20
12.092098
 30
0.0
  0
LWPOLYLINE
  5
134
100
AcDbEntity
  8
Layer_1
 62
7
100
AcDbPolyline
 90
2
 70
0
 10
28.943540
 20
48.092098
 30
0.0
 10
10.456260
 20
48.092098
 30
0.0
  0
SPLINE
  5
135
100
AcDbEntity
  8
Layer_1
 62
7
100
AcDbSpline
 70
8
 71
3
 72
8
 73
4
 74
0
 40
0
 40
0
 40
0
 40
0
 40
1
 40
1
 40
1
 40
1
 10
3.199900
 20
11.217898
 30
0.0
 10
3.342000
 20
8.620198
 30
0.0
 10
4.738500
 20
6.253698
 30
0.0
 10
6.943900
 20
4.873498
 30
0.0
  0
SPLINE
  5
136
100
AcDbEntity
  8
Layer_1
 62
7
100
AcDbSpline
 70
8
 71
3
 72
8
 73
4
 74
0
 40
0
 40
0
 40
0
 40
0
 40
1
 40
1
 40
1
 40
1
 10
6.943900
 20
4.873498
 30
0.0
 10
8.488400
 20
3.906998
 30
0.0
 10
9.656600
 20
2.442198
 30
0.0
 10
10.255460
 20
0.721398
 30
0.0
  0
SPLINE
  5
137
100
AcDbEntity
  8
Layer_1
 62
7
100
AcDbSpline
 70
8
 71
3
 72
8
 73
4
 74
0
 40
0
 40
0
 40
0
 40
0
 40
1
 40
1
 40
1
 40
1
 10
10.255460
 20
0.721398
 30
0.0
 10
10.415840
 20
0.260598
 30
0.0
 10
10.885420
 20
-0.017202
 30
0.0
 10
11.366570
 20
0.064098
 30
0.0
  0
SPLINE
  5
138
100
AcDbEntity
  8
Layer_1
 62
7
100
AcDbSpline
 70
8
 71
3
 72
8
 73
4
 74
0
 40
0
 40
0
 40
0
 40
0
 40
1
 40
1
 40
1
 40
1
 10
11.366570
 20
0.064098
 30
0.0
 10
11.847710
 20
0.145398
 30
0.0
 10
12.199900
 20
0.562198
 30
0.0
 10
12.199900
 20
1.050098
 30
0.0
  0
LWPOLYLINE
  5
139
100
AcDbEntity
  8
Layer_1
 62
7
100
AcDbPolyline
 90
2
 70
0
 10
3.199900
 20
12.092098
 30
0.0
 10
3.199900
 20
11.217898
 30
0.0
  0
SPLINE
  5
13a
100
AcDbEntity
  8
Layer_1
 62
7
100
AcDbSpline
 70
8
 71
3
 72
8
 73
4
 74
0
 40
0
 40
0
 40
0
 40
0
 40
1
 40
1
 40
1
 40
1
 10
12.199900
 20
6.442098
 30
0.0
 10
12.199900
 20
7.180698
 30
0.0
 10
12.381720
 20
7.907998
 30
0.0
 10
12.729310
 20
8.559698
 30
0.0
  0
LWPOLYLINE
  5
13b
100
AcDbEntity
  8
Layer_1
 62
7
100
AcDbPolyline
 90
2
 70
0
 10
12.199900
 20
1.050098
 30
0.0
 10
12.199900
 20
6.442098
 30
0.0
  0
SPLINE
  5
13c
100
AcDbEntity
  8
Layer_1
 62
7
100
AcDbSpline
 70
8
 71
3
 72
8
 73
4
 74
0
 40
0
 40
0
 40
0
 40
0
 40
1
 40
1
 40
1
 40
1
 10
13.199900
 20
9.442098
 30
0.0
 10
13.593840
 20
10.180698
 30
0.0
 10
13.799900
 20
11.004998
 30
0.0
 10
13.799900
 20
11.842098
 30
0.0
  0
LWPOLYLINE
  5
13d
100
AcDbEntity
  8
Layer_1
 62
7
100
AcDbPolyline
 90
2
 70
0
 10
12.729310
 20
8.559698
 30
0.0
 10
13.199900
 20
9.442098
 30
0.0
  0
SPLINE
  5
13e
100
AcDbEntity
  8
Layer_1
 62
7
100
AcDbSpline
 70
8
 71
3
 72
8
 73
4
 74
0
 40
0
 40
0
 40
0
 40
0
 40
1
 40
1
 40
1
 40
1
 10
25.599900
 20
11.842098
 30
0.0
 10
25.599900
 20
11.004998
 30
0.0
 10
25.805960
 20
10.180698
 30
0.0
 10
26.199900
 20
9.442098
 30
0.0
  0
LWPOLYLINE
  5
13f
100
AcDbEntity
  8
Layer_1
 62
7
100
AcDbPolyline
 90
4
 70
0
 10
13.799900
 20
11.842098
 30
0.0
 10
13.799900
 20
11.942098
 30
0.0
 10
25.599900
 20
11.942098
 30
0.0
 10
25.599900
 20
11.842098
 30
0.0
  0
SPLINE
  5
140
100
AcDbEntity
  8
Layer_1
 62
7
100
AcDbSpline
 70
8
 71
3
 72
8
 73
4
 74
0
 40
0
 40
0
 40
0
 40
0
 40
1
 40
1
 40
1
 40
1
 10
26.670490
 20
8.559698
 30
0.0
 10
27.018080
 20
7.907998
 30
0.0
 10
27.199900
 20
7.180698
 30
0.0
 10
27.199900
 20
6.442098
 30
0.0
  0
LWPOLYLINE
  5
141
100
AcDbEntity
  8
Layer_1
 62
7
100
AcDbPolyline
 90
2
 70
0
 10
26.199900
 20
9.442098
 30
0.0
 10
26.670490
 20
8.559698
 30
0.0
  0
SPLINE
  5
142
100
AcDbEntity
  8
Layer_1
 62
7
100
AcDbSpline
 70
8
 71
3
 72
8
 73
4
 74
0
 40
0
 40
0
 40
0
 40
0
 40
1
 40
1
 40
1
 40
1
 10
27.199900
 20
1.050098
 30
0.0
 10
27.199900
 20
0.562198
 30
0.0
 10
27.552090
 20
0.145398
 30
0.0
 10
28.033230
 20
0.064098
 30
0.0
  0
SPLINE
  5
143
100
AcDbEntity
  8
Layer_1
 62
7
100
AcDbSpline
 70
8
 71
3
 72
8
 73
4
 74
0
 40
0
 40
0
 40
0
 40
0
 40
1
 40
1
 40
1
 40
1
 10
28.033230
 20
0.064098
 30
0.0
 10
28.514380
 20
-0.017202
 30
0.0
 10
28.983960
 20
0.260598
 30
0.0
 10
29.144340
 20
0.721398
 30
0.0
  0
SPLINE
  5
144
100
AcDbEntity
  8
Layer_1
 62
7
100
AcDbSpline
 70
8
 71
3
 72
8
 73
4
 74
0
 40
0
 40
0
 40
0
 40
0
 40
1
 40
1
 40
1
 40
1
 10
29.144340
 20
0.721398
 30
0.0
 10
29.743200
 20
2.442198
 30
0.0
 10
30.911400
 20
3.906998
 30
0.0
 10
32.455900
 20
4.873498
 30
0.0
  0
SPLINE
  5
145
100
AcDbEntity
  8
Layer_1
 62
7
100
AcDbSpline
 70
8
 71
3
 72
8
 73
4
 74
0
 40
0
 40
0
 40
0
 40
0
 40
1
 40
1
 40
1
 40
1
 10
32.455900
 20
4.873498
 30
0.0
 10
34.661300
 20
6.253698
 30
0.0
 10
36.057800
 20
8.620198
 30
0.0
 10
36.199900
 20
11.217898
 30
0.0
  0
LWPOLYLINE
  5
146
100
AcDbEntity
  8
Layer_1
 62
7
100
AcDbPolyline
 90
2
 70
0
 10
27.199900
 20
6.442098
 30
0.0
 10
27.199900
 20
1.050098
 30
0.0
  0
SPLINE
  5
147
100
AcDbEntity
  8
Layer_1
 62
7
100
AcDbSpline
 70
8
 71
3
 72
8
 73
4
 74
0
 40
0
 40
0
 40
0
 40
0
 40
1
 40
1
 40
1
 40
1
 10
36.199900
 20
12.092098
 30
0.0
 10
36.211300
 20
13.586498
 30
0.0
 10
36.780000
 20
15.022888
 30
0.0
 10
37.794800
 20
16.120078
 30
0.0
  0
SPLINE
  5
148
100
AcDbEntity
  8
Layer_1
 62
7
100
AcDbSpline
 70
8
 71
3
 72
8
 73
4
 74
0
 40
0
 40
0
 40
0
 40
0
 40
1
 40
1
 40
1
 40
1
 10
37.794800
 20
16.120078
 30
0.0
 10
39.732300
 20
18.215148
 30
0.0
 10
39.875500
 20
21.402498
 30
0.0
 10
38.133700
 20
23.662896
 30
0.0
  0
SPLINE
  5
149
100
AcDbEntity
  8
Layer_1
 62
7
100
AcDbSpline
 70
8
 71
3
 72
8
 73
4
 74
0
 40
0
 40
0
 40
0
 40
0
 40
1
 40
1
 40
1
 40
1
 10
38.133700
 20
23.662896
 30
0.0
 10
36.773200
 20
25.428388
 30
0.0
 10
35.931200
 20
27.537908
 30
0.0
 10
35.702300
 20
29.755008
 30
0.0
  0
SPLINE
  5
14a
100
AcDbEntity
  8
Layer_1
 62
7
100
AcDbSpline
 70
8
 71
3
 72
8
 73
4
 74
0
 40
0
 40
0
 40
0
 40
0
 40
1
 40
1
 40
1
 40
1
 10
8.749900
 20
20.092078
 30
0.0
 10
8.749900
 20
18.518068
 30
0.0
 10
7.473900
 20
17.242078
 30
0.0
 10
5.899900
 20
17.242078
 30
0.0
  0
SPLINE
  5
14b
100
AcDbEntity
  8
Layer_1
 62
7
100
AcDbSpline
 70
8
 71
3
 72
8
 73
4
 74
0
 40
0
 40
0
 40
0
 40
0
 40
1
 40
1
 40
1
 40
1
 10
5.899900
 20
17.242078
 30
0.0
 10
4.325900
 20
17.242078
 30
0.0
 10
3.049900
 20
18.518068
 30
0.0
 10
3.049900
 20
20.092078
 30
0.0
  0
SPLINE
  5
14c
100
AcDbEntity
  8
Layer_1
 62
7
100
AcDbSpline
 70
8
 71
3
 72
8
 73
4
 74
0
 40
0
 40
0
 40
0
 40
0
 40
1
 40
1
 40
1
 40
1
 10
3.049900
 20
20.092078
 30
0.0
 10
3.049900
 20
21.666088
 30
0.0
 10
4.325900
 20
22.942078
 30
0.0
 10
5.899900
 20
22.942078
 30
0.0
  0
SPLINE
  5
14d
100
AcDbEntity
  8
Layer_1
 62
7
100
AcDbSpline
 70
8
 71
3
 72
8
 73
4
 74
0
 40
0
 40
0
 40
0
 40
0
 40
1
 40
1
 40
1
 40
1
 10
5.899900
 20
22.942078
 30
0.0
 10
7.473900
 20
22.942078
 30
0.0
 10
8.749900
 20
21.666088
 30
0.0
 10
8.749900
 20
20.092078
 30
0.0
  0
SPLINE
  5
14e
100
AcDbEntity
  8
Layer_1
 62
7
100
AcDbSpline
 70
8
 71
3
 72
8
 73
4
 74
0
 40
0
 40
0
 40
0
 40
0
 40
1
 40
1
 40
1
 40
1
 10
36.349900
 20
20.092078
 30
0.0
 10
36.349900
 20
18.518068
 30
0.0
 10
35.073900
 20
17.242078
 30
0.0
 10
33.499900
 20
17.242078
 30
0.0
  0
SPLINE
  5
14f
100
AcDbEntity
  8
Layer_1
 62
7
100
AcDbSpline
 70
8
 71
3
 72
8
 73
4
 74
0
 40
0
 40
0
 40
0
 40
0
 40
1
 40
1
 40
1
 40
1
 10
33.499900
 20
17.242078
 30
0.0
 10
31.925900
 20
17.242078
 30
0.0
 10
30.649900
 20
18.518068
 30
0.0
 10
30.649900
 20
20.092078
 30
0.0
  0
SPLINE
  5
150
100
AcDbEntity
  8
Layer_1
 62
7
100
AcDbSpline
 70
8
 71
3
 72
8
 73
4
 74
0
 40
0
 40
0
 40
0
 40
0
 40
1
 40
1
 40
1
 40
1
 10
30.649900
 20
20.092078
 30
0.0
 10
30.649900
 20
21.666088
 30
0.0
 10
31.925900
 20
22.942078
 30
0.0
 10
33.499900
 20
22.942078
 30
0.0
  0
SPLINE
  5
151
100
AcDbEntity
  8
Layer_1
 62
7
100
AcDbSpline
 70
8
 71
3
 72
8
 73
4
 74
0
 40
0
 40
0
 40
0
 40
0
 40
1
 40
1
 40
1
 40
1
 10
33.499900
 20
22.942078
 30
0.0
 10
35.073900
 20
22.942078
 30
0.0
 10
36.349900
 20
21.666088
 30
0.0
 10
36.349900
 20
20.092078
 30
0.0
  0
LWPOLYLINE
  5
152
100
AcDbEntity
  8
Layer_1
 62
7
100
AcDbPolyline
 90
2
 70
0
 10
36.199900
 20
11.217898
 30
0.0
 10
36.199900
 20
12.092098
 30
0.0
  0
LWPOLYLINE
  5
153
100
AcDbEntity
  8
Layer_1
 62
7
100
AcDbPolyline
 90
4
 70
1
 10
24.499900
 20
22.492078
 30
0.0
 10
24.499900
 20
20.492078
 30
0.0
 10
20.499900
 20
20.492078
 30
0.0
 10
20.499900
 20
22.492078
 30
0.0
  0
SPLINE
  5
154
100
AcDbEntity
  8
Layer_1
 62
7
100
AcDbSpline
 70
8
 71
3
 72
8
 73
4
 74
0
 40
0
 40
0
 40
0
 40
0
 40
1
 40
1
 40
1
 40
1
 10
16.499900
 20
25.892078
 30
0.0
 10
16.499900
 20
25.339798
 30
0.0
 10
16.052180
 20
24.892078
 30
0.0
 10
15.499900
 20
24.892078
 30
0.0
  0
SPLINE
  5
155
100
AcDbEntity
  8
Layer_1
 62
7
100
AcDbSpline
 70
8
 71
3
 72
8
 73
4
 74
0
 40
0
 40
0
 40
0
 40
0
 40
1
 40
1
 40
1
 40
1
 10
15.499900
 20
24.892078
 30
0.0
 10
14.947620
 20
24.892078
 30
0.0
 10
14.499900
 20
25.339798
 30
0.0
 10
14.499900
 20
25.892078
 30
0.0
  0
SPLINE
  5
156
100
AcDbEntity
  8
Layer_1
 62
7
100
AcDbSpline
 70
8
 71
3
 72
8
 73
4
 74
0
 40
0
 40
0
 40
0
 40
0
 40
1
 40
1
 40
1
 40
1
 10
14.499900
 20
25.892078
 30
0.0
 10
14.499900
 20
26.444358
 30
0.0
 10
14.947620
 20
26.892078
 30
0.0
 10
15.499900
 20
26.892078
 30
0.0
  0
SPLINE
  5
157
100
AcDbEntity
  8
Layer_1
 62
7
100
AcDbSpline
 70
8
 71
3
 72
8
 73
4
 74
0
 40
0
 40
0
 40
0
 40
0
 40
1
 40
1
 40
1
 40
1
 10
15.499900
 20
26.892078
 30
0.0
 10
16.052180
 20
26.892078
 30
0.0
 10
16.499900
 20
26.444358
 30
0.0
 10
16.499900
 20
25.892078
 30
0.0
  0
LWPOLYLINE
  5
158
100
AcDbEntity
  8
Layer_1
 62
7
100
AcDbPolyline
 90
4
 70
1
 10
24.499900
 20
26.692078
 30
0.0
 10
24.499900
 20
24.692078
 30
0.0
 10
20.499900
 20
24.692078
 30
0.0
 10
20.499900
 20
26.692078
 30
0.0
  0
LWPOLYLINE
  5
159
100
AcDbEntity
  8
Layer_1
 62
7
100
AcDbPolyline
 90
8
 70
1
 10
55.936500
 20
46.250098
 30
0.0
 10
55.936500
 20
43.850098
 30
0.0
 10
53.936500
 20
43.850098
 30
0.0
 10
53.936500
 20
41.550098
 30
0.0
 10
61.936500
 20
41.550098
 30
0.0
 10
61.936500
 20
43.850098
 30
0.0
 10
59.936500
 20
43.850098
 30
0.0
 10
59.936500
 20
46.250098
 30
0.0
  0
LWPOLYLINE
  5
15a
100
AcDbEntity
  8
Layer_1
 62
7
100
AcDbPolyline
 90
8
 70
1
 10
17.389000
 20
5.982398
 30
0.0
 10
17.389000
 20
3.582398
 30
0.0
 10
15.389000
 20
3.582398
 30
0.0
 10
15.389000
 20
1.282398
 30
0.0
 10
23.389000
 20
1.282398
 30
0.0
 10
23.389000
 20
3.582398
 30
0.0
 10
21.389000
 20
3.582398
 30
0.0
 10
21.389000
 20
5.982398
 30
0.0
  0
ENDSEC
  0
SECTION
  2
OBJECTS
  0
DICTIONARY
  5
C
330
0
100
AcDbDictionary
  3
ACAD_GROUP
350
D
  3
ACAD_MLINESTYLE
350
17
  0
DICTIONARY
  5
D
330
C
100
AcDbDictionary
  0
DICTIONARY
  5
1A
330
C
100
AcDbDictionary
  0
DICTIONARY
  5
17
330
C
100
AcDbDictionary
  3
STANDARD
350
18
  0
DICTIONARY
  5
19
330
C
100
AcDbDictionary
  0
ENDSEC
  0
EOF
