999
FreeCAD v0.21 33771 (Git)
  0
SECTION
  2
HEADER
  9
$ACADVER
  1
AC1014
  9
$ACADMAINTVER
 70
     9
  9
$DWGCODEPAGE
  3
ANSI_1252
  9
$TEXTSTYLE
  7
STANDARD
  9
$DIMSTYLE
  2
STANDARD
  9
$DIMTXSTY
  7
STANDARD
  9
$CMLSTYLE
  2
STANDARD
  9
$LUNITS
 70
2
  9
$INSUNITS
 70
4
  9
$PEXTMAX
 10
50
 20
50
 30
50
  9
$PEXTMIN
 10
0
 20
0
 30
0
  9
$HANDSEED
  5
FFFF
  0
ENDSEC
  0
SECTION
  2
CLASSES
  0
CLASS
  1
ACDBDICTIONARYWDFLT
  2
AcDbDictionaryWithDefault
  3
ObjectDBX Classes
 90
        0
280
     0
281
     0
  0
CLASS
  1
XRECORD
  2
AcDbXrecord
  3
ObjectDBX Classes
 90
        0
280
     0
281
     0
  0
CLASS
  1
LWPOLYLINE
  2
AcDbPolyline
  3
ObjectDBX Classes
 90
        0
280
     0
281
     1
  0
ENDSEC
  0
SECTION
  2
TABLES
  0
TABLE
  2
VPORT
  5
20
330
0
100
AcDbSymbolTable
 70
     1
  0
VPORT
  5
21
330
20
100
AcDbSymbolTableRecord
100
AcDbViewportTableRecord
  2
*ACTIVE
 70
     0
  0
ENDTAB
  0
TABLE
  2
LTYPE
  5
22
330
0
100
AcDbSymbolTable
 70
     1
  0
LTYPE
  5
23
330
21
100
AcDbSymbolTableRecord
100
AcDbLinetypeTableRecord
  2
BYBLOCK
 70
     0
  3

 72
    65
 73
     0
 40
0.0
  0
LTYPE
  5
24
330
21
100
AcDbSymbolTableRecord
100
AcDbLinetypeTableRecord
  2
BYLAYER
 70
     0
  3

 72
    65
 73
     0
 40
0.0
  0
LTYPE
  5
25
330
21
100
AcDbSymbolTableRecord
100
AcDbLinetypeTableRecord
  2
CONTINUOUS
 70
     0
  3
Solid line
 72
    65
 73
     0
 40
0.0
  0
ENDTAB
  0
TABLE
  2
LAYER
  5
A72
330
0
100
AcDbSymbolTable
 70
5
  0
LAYER
  5
A73
330
A72
100
AcDbSymbolTableRecord
100
AcDbLayerTableRecord
  2
0
 70
   0
 62
   7
  6
CONTINUOUS
  0
LAYER
  5
A74
330
A72
100
AcDbSymbolTableRecord
100
AcDbLayerTableRecord
  2
View034
 70
    0
 62
    7
  6
CONTINUOUS
  0
LAYER
  5
A75
330
A72
100
AcDbSymbolTableRecord
100
AcDbLayerTableRecord
  2
View035
 70
    0
 62
    7
  6
CONTINUOUS
  0
LAYER
  5
A76
330
A72
100
AcDbSymbolTableRecord
100
AcDbLayerTableRecord
  2
View036
 70
    0
 62
    7
  6
CONTINUOUS
  0
LAYER
  5
A77
330
A72
100
AcDbSymbolTableRecord
100
AcDbLayerTableRecord
  2
View037
 70
    0
 62
    7
  6
CONTINUOUS
  0
ENDTAB
  0
TABLE
  2
STYLE
  5
70
330
0
100
AcDbSymbolTable
 70
     2
  0
STYLE
  5
71
330
70
100
AcDbSymbolTableRecord
100
AcDbTextStyleTableRecord
  2
STANDARD
 70
     0
 40
0.0
 41
1.0
 50
0.0
 71
     0
 42
2.5
  3
arial.ttf
  4

  0
STYLE
  5
72
330
70
100
AcDbSymbolTableRecord
100
AcDbTextStyleTableRecord
  2
ANNOTATIVE
 70
     0
 40
0.0
 41
1.0
 50
0.0
 71
     0
 42
2.5
  3
arial.ttf
  4

  0
ENDTAB
  0
TABLE
  2
VIEW
  5
73
330
0
100
AcDbSymbolTable
 70
     0
  0
ENDTAB
  0
TABLE
  2
UCS
  5
74
330
0
100
AcDbSymbolTable
 70
     0
  0
ENDTAB
  0
TABLE
  2
APPID
  5
75
330
0
100
AcDbSymbolTable
 70
     2
  0
APPID
  5
76
330
75
100
AcDbSymbolTableRecord
100
AcDbRegAppTableRecord
  2
ACAD
 70
     0
  0
APPID
  5
77
330
75
100
AcDbSymbolTableRecord
100
AcDbRegAppTableRecord
  2
ACADANNOTATIVE
 70
     0
  0
ENDTAB
  0
TABLE
  2
DIMSTYLE
  5
78
330
0
100
AcDbSymbolTable
 70
     2
  0
DIMSTYLE
105
79
330
78
100
AcDbSymbolTableRecord
100
AcDbDimStyleTableRecord
  2
STANDARD
 70
     0
  3

  4

  5

  6

  7

 40
0.0
 41
2.5
 42
0.625
 43
3.75
 44
1.25
 45
0.0
 46
0.0
 47
0.0
 48
0.0
140
2.5
141
2.5
142
0.0
143
0.03937007874016
144
1.0
145
0.0
146
1.0
147
0.625
 71
     0
 72
     0
 73
     0
 74
     0
 75
     0
 76
     0
 77
     1
 78
     8
170
     0
171
     3
172
     1
173
     0
174
     0
175
     0
176
     0
177
     0
178
     0
270
     2
271
     2
272
     2
273
     2
274
     3
340
71
275
     0
280
     0
281
     0
282
     0
283
     0
284
     8
285
     0
286
     0
287
     3
288
     0
  0
ENDTAB
  0
TABLE
  2
BLOCK_RECORD
  5
A01
330
0
100
AcDbSymbolTable
  70
5
  0
BLOCK_RECORD
  5
A02
330
A01
100
AcDbSymbolTableRecord
100
AcDbBlockTableRecord
  2
*MODEL_SPACE
  0
BLOCK_RECORD
  5
A03
330
A01
100
AcDbSymbolTableRecord
100
AcDbBlockTableRecord
  2
*PAPER_SPACE
  0
ENDTAB
  0
ENDSEC
  0
SECTION
  2
BLOCKS
  0
BLOCK
  5
A04
330
A02
100
AcDbEntity
  8
0
100
AcDbBlockBegin
  2
*MODEL_SPACE
 70
   0
 10
0
 20
0
 30
0
  3
*MODEL_SPACE
  1
 
  0
ENDBLK
  5
A05
330
A02
100
AcDbEntity
  8
0
100
AcDbBlockEnd
  0
BLOCK
  5
A06
330
A03
100
AcDbEntity
 67
1
  8
0
100
AcDbBlockBegin
  2
*PAPER_SPACE
 70
   0
 10
0
 20
0
 30
0
  3
*PAPER_SPACE
  1
 
  0
ENDBLK
  5
A07
330
A03
100
AcDbEntity
 67
    1
  8
0
100
AcDbBlockEnd
  0
ENDSEC
  0
SECTION
  2
ENTITIES
  0
ARC
  5
A08
330
A02
100
AcDbEntity
  8
View034
100
AcDbCircle
 10
127.743
 20
356.101
 30
0
 40
4
100
AcDbArc
 50
-164.546
 51
-90
  0
LINE
  5
A09
330
A02
100
AcDbEntity
  8
View034
100
AcDbLine
 10
146.23
 20
352.101
 30
0
 11
127.743
 21
352.101
 31
0
  0
ARC
  5
A0A
330
A02
100
AcDbEntity
  8
View034
100
AcDbCircle
 10
146.23
 20
356.101
 30
0
 40
4
100
AcDbArc
 50
-90
 51
-15.4536
  0
ARC
  5
A0B
330
A02
100
AcDbEntity
  8
View034
100
AcDbCircle
 10
59.4158
 20
380.101
 30
0
 40
94.0704
100
AcDbArc
 50
-15.4536
 51
-5.89583
  0
ARC
  5
A0C
330
A02
100
AcDbEntity
  8
View034
100
AcDbCircle
 10
164.925
 20
369.206
 30
0
 40
12
100
AcDbArc
 50
142.382
 51
174.104
  0
ARC
  5
A0D
330
A02
100
AcDbEntity
  8
View034
100
AcDbCircle
 10
150.786
 20
380.101
 30
0
 40
5.85
100
AcDbArc
 50
-37.6182
 51
42.7635
  0
ARC
  5
A0E
330
A02
100
AcDbEntity
  8
View034
100
AcDbCircle
 10
159.486
 20
388.147
 30
0
 40
6
100
AcDbArc
 50
-179.562
 51
-137.236
  0
LINE
  5
A0F
330
A02
100
AcDbEntity
  8
View034
100
AcDbLine
 10
153.486
 20
388.101
 30
0
 11
153.486
 21
388.975
 31
0
  0
ARC
  5
A10
330
A02
100
AcDbEntity
  8
View034
100
AcDbCircle
 10
145.498
 20
388.538
 30
0
 40
8
100
AcDbArc
 50
3.13187
 51
57.9605
  0
ARC
  5
A11
330
A02
100
AcDbEntity
  8
View034
100
AcDbCircle
 10
153.986
 20
402.101
 30
0
 40
8
100
AcDbArc
 50
-160.812
 51
-122.039
  0
ARC
  5
A12
330
A02
100
AcDbEntity
  8
View034
100
AcDbCircle
 10
145.486
 20
399.143
 30
0
 40
1
100
AcDbArc
 50
19.1881
 51
180
  0
LINE
  5
A13
330
A02
100
AcDbEntity
  8
View034
100
AcDbLine
 10
144.486
 20
393.751
 30
0
 11
144.486
 21
399.143
 31
0
  0
ARC
  5
A14
330
A02
100
AcDbEntity
  8
View034
100
AcDbCircle
 10
139.986
 20
393.751
 30
0
 40
4.5
100
AcDbArc
 50
-28.0725
 51
0
  0
LINE
  5
A15
330
A02
100
AcDbEntity
  8
View034
100
AcDbLine
 10
143.486
 20
390.751
 30
0
 11
143.957
 21
391.634
 31
0
  0
ARC
  5
A16
330
A02
100
AcDbEntity
  8
View034
100
AcDbCircle
 10
147.986
 20
388.351
 30
0
 40
5.1
100
AcDbArc
 50
151.928
 51
180
  0
LINE
  5
A17
330
A02
100
AcDbEntity
  8
View034
100
AcDbLine
 10
142.886
 20
388.351
 30
0
 11
142.886
 21
388.251
 31
0
  0
LINE
  5
A18
330
A02
100
AcDbEntity
  8
View034
100
AcDbLine
 10
142.886
 20
388.251
 30
0
 11
141.686
 21
388.251
 31
0
  0
LINE
  5
A19
330
A02
100
AcDbEntity
  8
View034
100
AcDbLine
 10
141.686
 20
388.251
 30
0
 11
141.686
 21
381.601
 31
0
  0
LINE
  5
A1A
330
A02
100
AcDbEntity
  8
View034
100
AcDbLine
 10
141.686
 20
381.601
 30
0
 11
132.286
 21
381.601
 31
0
  0
LINE
  5
A1B
330
A02
100
AcDbEntity
  8
View034
100
AcDbLine
 10
132.286
 20
381.601
 30
0
 11
132.286
 21
388.251
 31
0
  0
LINE
  5
A1C
330
A02
100
AcDbEntity
  8
View034
100
AcDbLine
 10
132.286
 20
388.251
 30
0
 11
131.086
 21
388.251
 31
0
  0
LINE
  5
A1D
330
A02
100
AcDbEntity
  8
View034
100
AcDbLine
 10
131.086
 20
388.251
 30
0
 11
131.086
 21
388.351
 31
0
  0
ARC
  5
A1E
330
A02
100
AcDbEntity
  8
View034
100
AcDbCircle
 10
125.986
 20
388.351
 30
0
 40
5.1
100
AcDbArc
 50
0
 51
28.0725
  0
LINE
  5
A1F
330
A02
100
AcDbEntity
  8
View034
100
AcDbLine
 10
130.486
 20
390.751
 30
0
 11
130.016
 21
391.634
 31
0
  0
ARC
  5
A20
330
A02
100
AcDbEntity
  8
View034
100
AcDbCircle
 10
133.986
 20
393.751
 30
0
 40
4.5
100
AcDbArc
 50
180
 51
-151.928
  0
LINE
  5
A21
330
A02
100
AcDbEntity
  8
View034
100
AcDbLine
 10
129.486
 20
393.751
 30
0
 11
129.486
 21
399.143
 31
0
  0
ARC
  5
A22
330
A02
100
AcDbEntity
  8
View034
100
AcDbCircle
 10
128.486
 20
399.143
 30
0
 40
1
100
AcDbArc
 50
0
 51
160.812
  0
ARC
  5
A23
330
A02
100
AcDbEntity
  8
View034
100
AcDbCircle
 10
119.986
 20
402.101
 30
0
 40
8
100
AcDbArc
 50
-57.9605
 51
-19.1881
  0
ARC
  5
A24
330
A02
100
AcDbEntity
  8
View034
100
AcDbCircle
 10
128.474
 20
388.538
 30
0
 40
8
100
AcDbArc
 50
122.039
 51
176.868
  0
LINE
  5
A25
330
A02
100
AcDbEntity
  8
View034
100
AcDbLine
 10
120.486
 20
388.975
 30
0
 11
120.486
 21
388.101
 31
0
  0
ARC
  5
A26
330
A02
100
AcDbEntity
  8
View034
100
AcDbCircle
 10
114.486
 20
388.147
 30
0
 40
6
100
AcDbArc
 50
-42.7635
 51
-0.437747
  0
ARC
  5
A27
330
A02
100
AcDbEntity
  8
View034
100
AcDbCircle
 10
123.186
 20
380.101
 30
0
 40
5.85
100
AcDbArc
 50
137.236
 51
-142.382
  0
ARC
  5
A28
330
A02
100
AcDbEntity
  8
View034
100
AcDbCircle
 10
109.047
 20
369.206
 30
0
 40
12
100
AcDbArc
 50
5.89583
 51
37.6182
  0
ARC
  5
A29
330
A02
100
AcDbEntity
  8
View034
100
AcDbCircle
 10
214.557
 20
380.101
 30
0
 40
94.0704
100
AcDbArc
 50
-174.104
 51
-164.546
  0
CIRCLE
  5
A2A
330
A02
100
AcDbEntity
  8
View034
100
AcDbCircle
 10
123.186
 20
380.101
 40
2.85
  0
LINE
  5
A2B
330
A02
100
AcDbEntity
  8
View034
100
AcDbLine
 10
130.186
 20
377.701
 30
0
 11
130.186
 21
379.701
 31
0
  0
LINE
  5
A2C
330
A02
100
AcDbEntity
  8
View034
100
AcDbLine
 10
130.186
 20
379.701
 30
0
 11
138.186
 21
379.701
 31
0
  0
LINE
  5
A2D
330
A02
100
AcDbEntity
  8
View034
100
AcDbLine
 10
138.186
 20
377.701
 30
0
 11
130.186
 21
377.701
 31
0
  0
LINE
  5
A2E
330
A02
100
AcDbEntity
  8
View034
100
AcDbLine
 10
138.186
 20
379.701
 30
0
 11
138.186
 21
377.701
 31
0
  0
LINE
  5
A2F
330
A02
100
AcDbEntity
  8
View034
100
AcDbLine
 10
130.186
 20
373.501
 30
0
 11
130.186
 21
375.501
 31
0
  0
LINE
  5
A30
330
A02
100
AcDbEntity
  8
View034
100
AcDbLine
 10
130.186
 20
375.501
 30
0
 11
138.186
 21
375.501
 31
0
  0
LINE
  5
A31
330
A02
100
AcDbEntity
  8
View034
100
AcDbLine
 10
138.186
 20
373.501
 30
0
 11
130.186
 21
373.501
 31
0
  0
LINE
  5
A32
330
A02
100
AcDbEntity
  8
View034
100
AcDbLine
 10
138.186
 20
375.501
 30
0
 11
138.186
 21
373.501
 31
0
  0
CIRCLE
  5
A33
330
A02
100
AcDbEntity
  8
View034
100
AcDbCircle
 10
150.786
 20
380.101
 40
2.85
  0
CIRCLE
  5
A34
330
A02
100
AcDbEntity
  8
View034
100
AcDbCircle
 10
141.186
 20
374.301
 40
1
  0
LINE
  5
A35
330
A02
100
AcDbEntity
  8
View034
100
AcDbLine
 10
135.186
 20
364.901
 30
0
 11
135.186
 21
371.901
 31
0
  0
LINE
  5
A36
330
A02
100
AcDbEntity
  8
View034
100
AcDbLine
 10
135.186
 20
371.901
 30
0
 11
143.186
 21
371.901
 31
0
  0
LINE
  5
A37
330
A02
100
AcDbEntity
  8
View034
100
AcDbLine
 10
143.186
 20
371.901
 30
0
 11
143.186
 21
364.901
 31
0
  0
LINE
  5
A38
330
A02
100
AcDbEntity
  8
View034
100
AcDbLine
 10
143.186
 20
364.901
 30
0
 11
135.186
 21
364.901
 31
0
  0
ARC
  5
A39
330
A02
100
AcDbEntity
  8
View035
100
AcDbCircle
 10
108.104
 20
396.026
 30
0
 40
4
100
AcDbArc
 50
15.4536
 51
90
  0
ARC
  5
A3A
330
A02
100
AcDbEntity
  8
View035
100
AcDbCircle
 10
21.2902
 20
372.026
 30
0
 40
94.0704
100
AcDbArc
 50
5.89583
 51
15.4536
  0
LINE
  5
A3B
330
A02
100
AcDbEntity
  8
View035
100
AcDbLine
 10
89.617
 20
400.026
 30
0
 11
108.104
 21
400.026
 31
0
  0
ARC
  5
A3C
330
A02
100
AcDbEntity
  8
View035
100
AcDbCircle
 10
126.8
 20
382.922
 30
0
 40
12
100
AcDbArc
 50
-174.104
 51
-142.382
  0
ARC
  5
A3D
330
A02
100
AcDbEntity
  8
View035
100
AcDbCircle
 10
89.617
 20
396.026
 30
0
 40
4
100
AcDbArc
 50
90
 51
164.546
  0
ARC
  5
A3E
330
A02
100
AcDbEntity
  8
View035
100
AcDbCircle
 10
112.661
 20
372.026
 30
0
 40
5.85
100
AcDbArc
 50
-42.7635
 51
37.6182
  0
ARC
  5
A3F
330
A02
100
AcDbEntity
  8
View035
100
AcDbCircle
 10
176.431
 20
372.026
 30
0
 40
94.0704
100
AcDbArc
 50
164.546
 51
174.104
  0
ARC
  5
A40
330
A02
100
AcDbEntity
  8
View035
100
AcDbCircle
 10
121.36
 20
363.981
 30
0
 40
6
100
AcDbArc
 50
137.236
 51
179.562
  0
ARC
  5
A41
330
A02
100
AcDbEntity
  8
View035
100
AcDbCircle
 10
70.9217
 20
382.922
 30
0
 40
12
100
AcDbArc
 50
-37.6182
 51
-5.89583
  0
LINE
  5
A42
330
A02
100
AcDbEntity
  8
View035
100
AcDbLine
 10
115.361
 20
363.152
 30
0
 11
115.361
 21
364.026
 31
0
  0
ARC
  5
A43
330
A02
100
AcDbEntity
  8
View035
100
AcDbCircle
 10
85.0606
 20
372.026
 30
0
 40
5.85
100
AcDbArc
 50
142.382
 51
-137.236
  0
ARC
  5
A44
330
A02
100
AcDbEntity
  8
View035
100
AcDbCircle
 10
107.373
 20
363.589
 30
0
 40
8
100
AcDbArc
 50
-57.9605
 51
-3.13187
  0
ARC
  5
A45
330
A02
100
AcDbEntity
  8
View035
100
AcDbCircle
 10
76.3608
 20
363.981
 30
0
 40
6
100
AcDbArc
 50
0.437747
 51
42.7635
  0
ARC
  5
A46
330
A02
100
AcDbEntity
  8
View035
100
AcDbCircle
 10
115.861
 20
350.026
 30
0
 40
8
100
AcDbArc
 50
122.039
 51
160.812
  0
LINE
  5
A47
330
A02
100
AcDbEntity
  8
View035
100
AcDbLine
 10
82.3606
 20
364.026
 30
0
 11
82.3606
 21
363.152
 31
0
  0
ARC
  5
A48
330
A02
100
AcDbEntity
  8
View035
100
AcDbCircle
 10
107.361
 20
352.984
 30
0
 40
1
100
AcDbArc
 50
180
 51
-19.1881
  0
ARC
  5
A49
330
A02
100
AcDbEntity
  8
View035
100
AcDbCircle
 10
90.3486
 20
363.589
 30
0
 40
8
100
AcDbArc
 50
-176.868
 51
-122.039
  0
LINE
  5
A4A
330
A02
100
AcDbEntity
  8
View035
100
AcDbLine
 10
106.361
 20
358.376
 30
0
 11
106.361
 21
352.984
 31
0
  0
ARC
  5
A4B
330
A02
100
AcDbEntity
  8
View035
100
AcDbCircle
 10
81.8606
 20
350.026
 30
0
 40
8
100
AcDbArc
 50
19.1881
 51
57.9605
  0
ARC
  5
A4C
330
A02
100
AcDbEntity
  8
View035
100
AcDbCircle
 10
101.861
 20
358.376
 30
0
 40
4.5
100
AcDbArc
 50
0
 51
28.0725
  0
ARC
  5
A4D
330
A02
100
AcDbEntity
  8
View035
100
AcDbCircle
 10
90.3606
 20
352.984
 30
0
 40
1
100
AcDbArc
 50
-160.812
 51
0
  0
LINE
  5
A4E
330
A02
100
AcDbEntity
  8
View035
100
AcDbLine
 10
105.361
 20
361.376
 30
0
 11
105.831
 21
360.494
 31
0
  0
LINE
  5
A4F
330
A02
100
AcDbEntity
  8
View035
100
AcDbLine
 10
91.3606
 20
358.376
 30
0
 11
91.3606
 21
352.984
 31
0
  0
ARC
  5
A50
330
A02
100
AcDbEntity
  8
View035
100
AcDbCircle
 10
109.861
 20
363.776
 30
0
 40
5.1
100
AcDbArc
 50
180
 51
-151.928
  0
ARC
  5
A51
330
A02
100
AcDbEntity
  8
View035
100
AcDbCircle
 10
95.8606
 20
358.376
 30
0
 40
4.5
100
AcDbArc
 50
151.928
 51
180
  0
LINE
  5
A52
330
A02
100
AcDbEntity
  8
View035
100
AcDbLine
 10
104.761
 20
363.876
 30
0
 11
104.761
 21
363.776
 31
0
  0
LINE
  5
A53
330
A02
100
AcDbEntity
  8
View035
100
AcDbLine
 10
92.3606
 20
361.376
 30
0
 11
91.89
 21
360.494
 31
0
  0
LINE
  5
A54
330
A02
100
AcDbEntity
  8
View035
100
AcDbLine
 10
92.9606
 20
363.876
 30
0
 11
104.761
 21
363.876
 31
0
  0
ARC
  5
A55
330
A02
100
AcDbEntity
  8
View035
100
AcDbCircle
 10
87.8606
 20
363.776
 30
0
 40
5.1
100
AcDbArc
 50
-28.0725
 51
0
  0
LINE
  5
A56
330
A02
100
AcDbEntity
  8
View035
100
AcDbLine
 10
92.9606
 20
363.776
 30
0
 11
92.9606
 21
363.876
 31
0
  0
CIRCLE
  5
A57
330
A02
100
AcDbEntity
  8
View035
100
AcDbCircle
 10
112.661
 20
372.026
 40
2.85
  0
LINE
  5
A58
330
A02
100
AcDbEntity
  8
View035
100
AcDbLine
 10
103.661
 20
374.426
 30
0
 11
103.661
 21
372.426
 31
0
  0
LINE
  5
A59
330
A02
100
AcDbEntity
  8
View035
100
AcDbLine
 10
103.661
 20
372.426
 30
0
 11
99.6606
 21
372.426
 31
0
  0
LINE
  5
A5A
330
A02
100
AcDbEntity
  8
View035
100
AcDbLine
 10
99.6606
 20
372.426
 30
0
 11
99.6606
 21
374.426
 31
0
  0
LINE
  5
A5B
330
A02
100
AcDbEntity
  8
View035
100
AcDbLine
 10
99.6606
 20
374.426
 30
0
 11
103.661
 21
374.426
 31
0
  0
CIRCLE
  5
A5C
330
A02
100
AcDbEntity
  8
View035
100
AcDbCircle
 10
85.0606
 20
372.026
 40
2.85
  0
LINE
  5
A5D
330
A02
100
AcDbEntity
  8
View035
100
AcDbLine
 10
103.661
 20
378.626
 30
0
 11
103.661
 21
376.626
 31
0
  0
LINE
  5
A5E
330
A02
100
AcDbEntity
  8
View035
100
AcDbLine
 10
103.661
 20
376.626
 30
0
 11
99.6606
 21
376.626
 31
0
  0
LINE
  5
A5F
330
A02
100
AcDbEntity
  8
View035
100
AcDbLine
 10
99.6606
 20
376.626
 30
0
 11
99.6606
 21
378.626
 31
0
  0
LINE
  5
A60
330
A02
100
AcDbEntity
  8
View035
100
AcDbLine
 10
99.6606
 20
378.626
 30
0
 11
103.661
 21
378.626
 31
0
  0
CIRCLE
  5
A61
330
A02
100
AcDbEntity
  8
View035
100
AcDbCircle
 10
94.6606
 20
377.826
 40
1
  0
SPLINE
  5
A62
330
A02
100
AcDbEntity
  8
View036
100
AcDbSpline
210
0
220
0
230
1
 70
8
 71
1
 72
4
 73
2
 74
0
 40
0
 40
0
 40
2.4
 40
2.4
 10
96.9367
 20
357.171
 30
0
 10
96.9367
 20
354.771
 30
0
  0
SPLINE
  5
A63
330
A02
100
AcDbEntity
  8
View036
100
AcDbSpline
210
0
220
0
230
1
 70
8
 71
1
 72
4
 73
2
 74
0
 40
0
 40
0
 40
2
 40
2
 10
96.9367
 20
354.771
 30
0
 10
94.9367
 20
354.771
 30
0
  0
SPLINE
  5
A64
330
A02
100
AcDbEntity
  8
View036
100
AcDbSpline
210
0
220
0
230
1
 70
8
 71
1
 72
4
 73
2
 74
0
 40
0
 40
0
 40
2.3
 40
2.3
 10
94.9367
 20
354.771
 30
0
 10
94.9367
 20
352.471
 30
0
  0
SPLINE
  5
A65
330
A02
100
AcDbEntity
  8
View036
100
AcDbSpline
210
0
220
0
230
1
 70
8
 71
1
 72
4
 73
2
 74
0
 40
0
 40
0
 40
8
 40
8
 10
94.9367
 20
352.471
 30
0
 10
102.937
 20
352.471
 30
0
  0
SPLINE
  5
A66
330
A02
100
AcDbEntity
  8
View036
100
AcDbSpline
210
0
220
0
230
1
 70
8
 71
1
 72
4
 73
2
 74
0
 40
0
 40
0
 40
2.3
 40
2.3
 10
102.937
 20
352.471
 30
0
 10
102.937
 20
354.771
 30
0
  0
SPLINE
  5
A67
330
A02
100
AcDbEntity
  8
View036
100
AcDbSpline
210
0
220
0
230
1
 70
8
 71
1
 72
4
 73
2
 74
0
 40
0
 40
0
 40
2
 40
2
 10
102.937
 20
354.771
 30
0
 10
100.937
 20
354.771
 30
0
  0
SPLINE
  5
A68
330
A02
100
AcDbEntity
  8
View036
100
AcDbSpline
210
0
220
0
230
1
 70
8
 71
1
 72
4
 73
2
 74
0
 40
0
 40
0
 40
2.4
 40
2.4
 10
100.937
 20
354.771
 30
0
 10
100.937
 20
357.171
 30
0
  0
SPLINE
  5
A69
330
A02
100
AcDbEntity
  8
View036
100
AcDbSpline
210
0
220
0
230
1
 70
8
 71
1
 72
4
 73
2
 74
0
 40
0
 40
0
 40
4
 40
4
 10
100.937
 20
357.171
 30
0
 10
96.9367
 20
357.171
 30
0
  0
SPLINE
  5
A6A
330
A02
100
AcDbEntity
  8
View037
100
AcDbSpline
210
0
220
0
230
1
 70
8
 71
1
 72
4
 73
2
 74
0
 40
0
 40
0
 40
2.4
 40
2.4
 10
135.097
 20
398.184
 30
0
 10
135.097
 20
395.784
 30
0
  0
SPLINE
  5
A6B
330
A02
100
AcDbEntity
  8
View037
100
AcDbSpline
210
0
220
0
230
1
 70
8
 71
1
 72
4
 73
2
 74
0
 40
0
 40
0
 40
2
 40
2
 10
135.097
 20
395.784
 30
0
 10
133.097
 20
395.784
 30
0
  0
SPLINE
  5
A6C
330
A02
100
AcDbEntity
  8
View037
100
AcDbSpline
210
0
220
0
230
1
 70
8
 71
1
 72
4
 73
2
 74
0
 40
0
 40
0
 40
2.3
 40
2.3
 10
133.097
 20
395.784
 30
0
 10
133.097
 20
393.484
 30
0
  0
SPLINE
  5
A6D
330
A02
100
AcDbEntity
  8
View037
100
AcDbSpline
210
0
220
0
230
1
 70
8
 71
1
 72
4
 73
2
 74
0
 40
0
 40
0
 40
8
 40
8
 10
133.097
 20
393.484
 30
0
 10
141.097
 20
393.484
 30
0
  0
SPLINE
  5
A6E
330
A02
100
AcDbEntity
  8
View037
100
AcDbSpline
210
0
220
0
230
1
 70
8
 71
1
 72
4
 73
2
 74
0
 40
0
 40
0
 40
2.3
 40
2.3
 10
141.097
 20
393.484
 30
0
 10
141.097
 20
395.784
 30
0
  0
SPLINE
  5
A6F
330
A02
100
AcDbEntity
  8
View037
100
AcDbSpline
210
0
220
0
230
1
 70
8
 71
1
 72
4
 73
2
 74
0
 40
0
 40
0
 40
2
 40
2
 10
141.097
 20
395.784
 30
0
 10
139.097
 20
395.784
 30
0
  0
SPLINE
  5
A70
330
A02
100
AcDbEntity
  8
View037
100
AcDbSpline
210
0
220
0
230
1
 70
8
 71
1
 72
4
 73
2
 74
0
 40
0
 40
0
 40
2.4
 40
2.4
 10
139.097
 20
395.784
 30
0
 10
139.097
 20
398.184
 30
0
  0
SPLINE
  5
A71
330
A02
100
AcDbEntity
  8
View037
100
AcDbSpline
210
0
220
0
230
1
 70
8
 71
1
 72
4
 73
2
 74
0
 40
0
 40
0
 40
4
 40
4
 10
139.097
 20
398.184
 30
0
 10
135.097
 20
398.184
 30
0
  0
ENDSEC
  0
SECTION
  2
OBJECTS
  0
DICTIONARY
  5
F000
330
0
100
AcDbDictionary
  3
ACAD_GROUP
350
F001
  0
DICTIONARY
  5
F001
330
F000
100
AcDbDictionary
  0
ENDSEC
  0
EOF