<svg xmlns:freecad="http://www.freecad.org/wiki/index.php?title=Svg_Namespace" xmlns:cc="http://creativecommons.org/ns#" xmlns="http://www.w3.org/2000/svg" xmlns:rdf="http://www.w3.org/1999/02/22-rdf-syntax-ns#" xmlns:svg="http://www.w3.org/2000/svg" xmlns:inkscape="http://www.inkscape.org/namespaces/inkscape" xmlns:sodipodi="http://sodipodi.sourceforge.net/DTD/sodipodi-0.dtd" xmlns:xlink="http://www.w3.org/1999/xlink" xmlns:dc="http://purl.org/dc/elements/1.1/" baseProfile="tiny" height="140mm" width="140mm" version="1.2" viewBox="0 0 1400 1400">
 <title>FreeCAD SVG Export</title>
 <desc>Drawing page: Page001 exported from FreeCAD document: case_drawings</desc>
 <defs/>
 <g inkscape:label="TechDraw" inkscape:groupmode="layer" id="Page001">
  <g transform="scale(10.000000, 10.000000)" id="A4_LandscapeTD_cc_by_stefan.svg" style="stroke: none;">
   <sodipodi:namedview showgrid="false" inkscape:current-layer="svg2" inkscape:window-width="3840" inkscape:pagecheckerboard="true" inkscape:cy="264.56693" inkscape:document-units="mm" inkscape:showpageshadow="false" inkscape:window-maximized="1" guidetolerance="10" inkscape:document-rotation="0" inkscape:window-y="0" gridtolerance="10" inkscape:zoom="3.3961161" pagecolor="#ffffff" bordercolor="#666666" inkscape:window-x="0" inkscape:cx="264.56693" inkscape:pageshadow="2" inkscape:window-height="2079" inkscape:pageopacity="0" objecttolerance="10" borderopacity="1" id="namedview221" units="mm">
    <inkscape:grid id="grid811" type="xygrid"/>
   </sodipodi:namedview>
   <!-- Working space 10 10 410 287 -->
   <!-- Title block 220 227 410 287 -->
   <metadata id="metadata849">
    <rdf:RDF>
     <cc:Work rdf:about="">
      <dc:format>image/svg+xml</dc:format>
      <dc:type rdf:resource="http://purl.org/dc/dcmitype/StillImage"/>
      <dc:title/>
      <dc:date>04.02.2021</dc:date>
      <dc:creator>
       <cc:Agent>
        <dc:title>Stefan Krüger</dc:title>
       </cc:Agent>
      </dc:creator>
      <dc:rights>
       <cc:Agent>
        <dc:title>Stefan Krüger</dc:title>
       </cc:Agent>
      </dc:rights>
      <dc:publisher>
       <cc:Agent>
        <dc:title>Stefan Krüger</dc:title>
       </cc:Agent>
      </dc:publisher>
      <dc:language>EN / DE</dc:language>
      <cc:license rdf:resource="http://creativecommons.org/publicdomain/zero/1.0/"/>
     </cc:Work>
     <cc:License rdf:about="http://creativecommons.org/publicdomain/zero/1.0/">
      <cc:permits rdf:resource="http://creativecommons.org/ns#Reproduction"/>
      <cc:permits rdf:resource="http://creativecommons.org/ns#Distribution"/>
      <cc:permits rdf:resource="http://creativecommons.org/ns#DerivativeWorks"/>
     </cc:License>
    </rdf:RDF>
   </metadata>
   <defs id="defs847"/>
   <!-- DrawingContent -->
  </g>
  <g stroke="black" stroke-linecap="square" fill="none" stroke-linejoin="bevel" stroke-width="1" id="DrawingContent" fill-rule="evenodd">
   <g stroke="#000000" font-size="42.3333" fill="none" transform="matrix(1,0,0,1,371.472,369.986)" font-weight="400" font-family="Noto Sans" fill-opacity="1" font-style="normal">
    <path vector-effect="non-scaling-stroke" d="M160.078,-50.1926 C154.712,-102.431 144.983,-154.128 130.99,-204.742 C126.198,-222.078 110.423,-234.083 92.4364,-234.083 L-92.4364,-234.083 C-110.423,-234.083 -126.198,-222.078 -130.99,-204.742 C-144.983,-154.128 -154.712,-102.431 -160.078,-50.1926 C-162.345,-28.1119 -170.693,-7.09298 -184.192,10.5271 C-201.38,32.9612 -199.963,64.501 -180.834,85.3041 C-170.651,96.3778 -165,110.873 -165,125.917 C-165,154.243 -150.02,180.458 -125.615,194.84 C-112.043,202.838 -101.044,214.555 -93.9189,228.606 C-91.8263,232.733 -87.1755,234.885 -82.675,233.809 C-78.1746,232.734 -75,228.711 -75,224.083 L-75,182.417 C-75,175.03 -73.1818,167.757 -69.7059,161.24 L-65,152.417 C-61.0606,145.03 -59,136.788 -59,128.417 L-59,127.417 L59,127.417 L59,128.417 C59,136.788 61.0606,145.03 65,152.417 L69.7059,161.24 C73.1818,167.757 75,175.03 75,182.417 L75,224.083 C75,228.711 78.1746,232.734 82.675,233.809 C87.1755,234.885 91.8263,232.733 93.9189,228.606 C101.044,214.555 112.043,202.838 125.615,194.84 C150.02,180.458 165,154.243 165,125.917 C165,110.873 170.651,96.3778 180.834,85.3041 C199.963,64.501 201.38,32.9612 184.192,10.5271 C170.693,-7.09298 162.345,-28.1119 160.078,-50.1926 " fill-rule="evenodd"/>
   </g>
   <g stroke="#000000" font-size="42.3333" fill="none" transform="matrix(1,0,0,1,371.472,369.986)" font-weight="400" font-family="Noto Sans" fill-opacity="1" font-style="normal">
    <path vector-effect="non-scaling-stroke" d="M-121,45.9165 C-121,55.3053 -128.611,62.9165 -138,62.9165 C-147.389,62.9165 -155,55.3053 -155,45.9165 C-155,36.5277 -147.389,28.9165 -138,28.9165 C-128.611,28.9165 -121,36.5277 -121,45.9165 " fill-rule="evenodd"/>
   </g>
   <g stroke="#000000" font-size="42.3333" fill="none" transform="matrix(1,0,0,1,371.472,369.986)" font-weight="400" font-family="Noto Sans" fill-opacity="1" font-style="normal">
    <path vector-effect="non-scaling-stroke" d="M155,45.9165 C155,55.3053 147.389,62.9165 138,62.9165 C128.611,62.9165 121,55.3053 121,45.9165 C121,36.5277 128.611,28.9165 138,28.9165 C147.389,28.9165 155,36.5277 155,45.9165 " fill-rule="evenodd"/>
   </g>
   </g>
 </g>
</svg>