999
FreeCAD v0.21 33771 (Git)
  0
SECTION
  2
HEADER
  9
$ACADVER
  1
AC1014
  9
$ACADMAINTVER
 70
     9
  9
$DWGCODEPAGE
  3
ANSI_1252
  9
$TEXTSTYLE
  7
STANDARD
  9
$DIMSTYLE
  2
STANDARD
  9
$DIMTXSTY
  7
STANDARD
  9
$CMLSTYLE
  2
STANDARD
  9
$LUNITS
 70
2
  9
$INSUNITS
 70
4
  9
$PEXTMAX
 10
50
 20
50
 30
50
  9
$PEXTMIN
 10
0
 20
0
 30
0
  9
$HANDSEED
  5
FFFF
  0
ENDSEC
  0
SECTION
  2
CLASSES
  0
CLASS
  1
ACDBDICTIONARYWDFLT
  2
AcDbDictionaryWithDefault
  3
ObjectDBX Classes
 90
        0
280
     0
281
     0
  0
CLASS
  1
XRECORD
  2
AcDbXrecord
  3
ObjectDBX Classes
 90
        0
280
     0
281
     0
  0
CLASS
  1
LWPOLYLINE
  2
AcDbPolyline
  3
ObjectDBX Classes
 90
        0
280
     0
281
     1
  0
ENDSEC
  0
SECTION
  2
TABLES
  0
TABLE
  2
VPORT
  5
20
330
0
100
AcDbSymbolTable
 70
     1
  0
VPORT
  5
21
330
20
100
AcDbSymbolTableRecord
100
AcDbViewportTableRecord
  2
*ACTIVE
 70
     0
  0
ENDTAB
  0
TABLE
  2
LTYPE
  5
22
330
0
100
AcDbSymbolTable
 70
     1
  0
LTYPE
  5
23
330
21
100
AcDbSymbolTableRecord
100
AcDbLinetypeTableRecord
  2
BYBLOCK
 70
     0
  3

 72
    65
 73
     0
 40
0.0
  0
LTYPE
  5
24
330
21
100
AcDbSymbolTableRecord
100
AcDbLinetypeTableRecord
  2
BYLAYER
 70
     0
  3

 72
    65
 73
     0
 40
0.0
  0
LTYPE
  5
25
330
21
100
AcDbSymbolTableRecord
100
AcDbLinetypeTableRecord
  2
CONTINUOUS
 70
     0
  3
Solid line
 72
    65
 73
     0
 40
0.0
  0
ENDTAB
  0
TABLE
  2
LAYER
  5
D98
330
0
100
AcDbSymbolTable
 70
25
  0
LAYER
  5
D99
330
D98
100
AcDbSymbolTableRecord
100
AcDbLayerTableRecord
  2
0
 70
   0
 62
   7
  6
CONTINUOUS
  0
LAYER
  5
D9A
330
D98
100
AcDbSymbolTableRecord
100
AcDbLayerTableRecord
  2
View
 70
    0
 62
    7
  6
CONTINUOUS
  0
LAYER
  5
D9B
330
D98
100
AcDbSymbolTableRecord
100
AcDbLayerTableRecord
  2
View002
 70
    0
 62
    7
  6
CONTINUOUS
  0
LAYER
  5
D9C
330
D98
100
AcDbSymbolTableRecord
100
AcDbLayerTableRecord
  2
View003
 70
    0
 62
    7
  6
CONTINUOUS
  0
LAYER
  5
D9D
330
D98
100
AcDbSymbolTableRecord
100
AcDbLayerTableRecord
  2
View004
 70
    0
 62
    7
  6
CONTINUOUS
  0
LAYER
  5
D9E
330
D98
100
AcDbSymbolTableRecord
100
AcDbLayerTableRecord
  2
View005
 70
    0
 62
    7
  6
CONTINUOUS
  0
LAYER
  5
D9F
330
D98
100
AcDbSymbolTableRecord
100
AcDbLayerTableRecord
  2
View006
 70
    0
 62
    7
  6
CONTINUOUS
  0
LAYER
  5
DA0
330
D98
100
AcDbSymbolTableRecord
100
AcDbLayerTableRecord
  2
View007
 70
    0
 62
    7
  6
CONTINUOUS
  0
LAYER
  5
DA1
330
D98
100
AcDbSymbolTableRecord
100
AcDbLayerTableRecord
  2
View008
 70
    0
 62
    7
  6
CONTINUOUS
  0
LAYER
  5
DA2
330
D98
100
AcDbSymbolTableRecord
100
AcDbLayerTableRecord
  2
View009
 70
    0
 62
    7
  6
CONTINUOUS
  0
LAYER
  5
DA3
330
D98
100
AcDbSymbolTableRecord
100
AcDbLayerTableRecord
  2
View010
 70
    0
 62
    7
  6
CONTINUOUS
  0
LAYER
  5
DA4
330
D98
100
AcDbSymbolTableRecord
100
AcDbLayerTableRecord
  2
View011
 70
    0
 62
    7
  6
CONTINUOUS
  0
LAYER
  5
DA5
330
D98
100
AcDbSymbolTableRecord
100
AcDbLayerTableRecord
  2
View012
 70
    0
 62
    7
  6
CONTINUOUS
  0
LAYER
  5
DA6
330
D98
100
AcDbSymbolTableRecord
100
AcDbLayerTableRecord
  2
View013
 70
    0
 62
    7
  6
CONTINUOUS
  0
LAYER
  5
DA7
330
D98
100
AcDbSymbolTableRecord
100
AcDbLayerTableRecord
  2
View014
 70
    0
 62
    7
  6
CONTINUOUS
  0
LAYER
  5
DA8
330
D98
100
AcDbSymbolTableRecord
100
AcDbLayerTableRecord
  2
View015
 70
    0
 62
    7
  6
CONTINUOUS
  0
LAYER
  5
DA9
330
D98
100
AcDbSymbolTableRecord
100
AcDbLayerTableRecord
  2
View017
 70
    0
 62
    7
  6
CONTINUOUS
  0
LAYER
  5
DAA
330
D98
100
AcDbSymbolTableRecord
100
AcDbLayerTableRecord
  2
View022
 70
    0
 62
    7
  6
CONTINUOUS
  0
LAYER
  5
DAB
330
D98
100
AcDbSymbolTableRecord
100
AcDbLayerTableRecord
  2
View023
 70
    0
 62
    7
  6
CONTINUOUS
  0
LAYER
  5
DAC
330
D98
100
AcDbSymbolTableRecord
100
AcDbLayerTableRecord
  2
View026
 70
    0
 62
    7
  6
CONTINUOUS
  0
LAYER
  5
DAD
330
D98
100
AcDbSymbolTableRecord
100
AcDbLayerTableRecord
  2
View028
 70
    0
 62
    7
  6
CONTINUOUS
  0
LAYER
  5
DAE
330
D98
100
AcDbSymbolTableRecord
100
AcDbLayerTableRecord
  2
View029
 70
    0
 62
    7
  6
CONTINUOUS
  0
LAYER
  5
DAF
330
D98
100
AcDbSymbolTableRecord
100
AcDbLayerTableRecord
  2
View030
 70
    0
 62
    7
  6
CONTINUOUS
  0
LAYER
  5
DB0
330
D98
100
AcDbSymbolTableRecord
100
AcDbLayerTableRecord
  2
View031
 70
    0
 62
    7
  6
CONTINUOUS
  0
LAYER
  5
DB1
330
D98
100
AcDbSymbolTableRecord
100
AcDbLayerTableRecord
  2
View032
 70
    0
 62
    7
  6
CONTINUOUS
  0
ENDTAB
  0
TABLE
  2
STYLE
  5
70
330
0
100
AcDbSymbolTable
 70
     2
  0
STYLE
  5
71
330
70
100
AcDbSymbolTableRecord
100
AcDbTextStyleTableRecord
  2
STANDARD
 70
     0
 40
0.0
 41
1.0
 50
0.0
 71
     0
 42
2.5
  3
arial.ttf
  4

  0
STYLE
  5
72
330
70
100
AcDbSymbolTableRecord
100
AcDbTextStyleTableRecord
  2
ANNOTATIVE
 70
     0
 40
0.0
 41
1.0
 50
0.0
 71
     0
 42
2.5
  3
arial.ttf
  4

  0
ENDTAB
  0
TABLE
  2
VIEW
  5
73
330
0
100
AcDbSymbolTable
 70
     0
  0
ENDTAB
  0
TABLE
  2
UCS
  5
74
330
0
100
AcDbSymbolTable
 70
     0
  0
ENDTAB
  0
TABLE
  2
APPID
  5
75
330
0
100
AcDbSymbolTable
 70
     2
  0
APPID
  5
76
330
75
100
AcDbSymbolTableRecord
100
AcDbRegAppTableRecord
  2
ACAD
 70
     0
  0
APPID
  5
77
330
75
100
AcDbSymbolTableRecord
100
AcDbRegAppTableRecord
  2
ACADANNOTATIVE
 70
     0
  0
ENDTAB
  0
TABLE
  2
DIMSTYLE
  5
78
330
0
100
AcDbSymbolTable
 70
     2
  0
DIMSTYLE
105
79
330
78
100
AcDbSymbolTableRecord
100
AcDbDimStyleTableRecord
  2
STANDARD
 70
     0
  3

  4

  5

  6

  7

 40
0.0
 41
2.5
 42
0.625
 43
3.75
 44
1.25
 45
0.0
 46
0.0
 47
0.0
 48
0.0
140
2.5
141
2.5
142
0.0
143
0.03937007874016
144
1.0
145
0.0
146
1.0
147
0.625
 71
     0
 72
     0
 73
     0
 74
     0
 75
     0
 76
     0
 77
     1
 78
     8
170
     0
171
     3
172
     1
173
     0
174
     0
175
     0
176
     0
177
     0
178
     0
270
     2
271
     2
272
     2
273
     2
274
     3
340
71
275
     0
280
     0
281
     0
282
     0
283
     0
284
     8
285
     0
286
     0
287
     3
288
     0
  0
ENDTAB
  0
TABLE
  2
BLOCK_RECORD
  5
A01
330
0
100
AcDbSymbolTable
  70
5
  0
BLOCK_RECORD
  5
A02
330
A01
100
AcDbSymbolTableRecord
100
AcDbBlockTableRecord
  2
*MODEL_SPACE
  0
BLOCK_RECORD
  5
A03
330
A01
100
AcDbSymbolTableRecord
100
AcDbBlockTableRecord
  2
*PAPER_SPACE
  0
ENDTAB
  0
ENDSEC
  0
SECTION
  2
BLOCKS
  0
BLOCK
  5
A04
330
A02
100
AcDbEntity
  8
0
100
AcDbBlockBegin
  2
*MODEL_SPACE
 70
   0
 10
0
 20
0
 30
0
  3
*MODEL_SPACE
  1
 
  0
ENDBLK
  5
A05
330
A02
100
AcDbEntity
  8
0
100
AcDbBlockEnd
  0
BLOCK
  5
A06
330
A03
100
AcDbEntity
 67
1
  8
0
100
AcDbBlockBegin
  2
*PAPER_SPACE
 70
   0
 10
0
 20
0
 30
0
  3
*PAPER_SPACE
  1
 
  0
ENDBLK
  5
A07
330
A03
100
AcDbEntity
 67
    1
  8
0
100
AcDbBlockEnd
  0
ENDSEC
  0
SECTION
  2
ENTITIES
  0
ARC
  5
A08
330
A02
100
AcDbEntity
  8
View
100
AcDbCircle
 10
142.939
 20
421.396
 30
0
 40
12
100
AcDbArc
 50
-174.104
 51
-142.382
  0
ARC
  5
A09
330
A02
100
AcDbEntity
  8
View
100
AcDbCircle
 10
37.4296
 20
410.5
 30
0
 40
94.0704
100
AcDbArc
 50
5.89583
 51
15.4536
  0
ARC
  5
A0A
330
A02
100
AcDbEntity
  8
View
100
AcDbCircle
 10
128.8
 20
410.5
 30
0
 40
5.85
100
AcDbArc
 50
-42.7635
 51
37.6182
  0
ARC
  5
A0B
330
A02
100
AcDbEntity
  8
View
100
AcDbCircle
 10
124.244
 20
434.5
 30
0
 40
4
100
AcDbArc
 50
15.4536
 51
90
  0
ARC
  5
A0C
330
A02
100
AcDbEntity
  8
View
100
AcDbCircle
 10
137.5
 20
402.454
 30
0
 40
6
100
AcDbArc
 50
137.236
 51
179.562
  0
LINE
  5
A0D
330
A02
100
AcDbEntity
  8
View
100
AcDbLine
 10
121
 20
438.5
 30
0
 11
124.244
 21
438.5
 31
0
  0
LINE
  5
A0E
330
A02
100
AcDbEntity
  8
View
100
AcDbLine
 10
131.5
 20
401.626
 30
0
 11
131.5
 21
402.5
 31
0
  0
LINE
  5
A0F
330
A02
100
AcDbEntity
  8
View
100
AcDbLine
 10
121
 20
438.5
 30
0
 11
121
 21
423.351
 31
0
  0
ARC
  5
A10
330
A02
100
AcDbEntity
  8
View
100
AcDbCircle
 10
123.512
 20
402.063
 30
0
 40
8
100
AcDbArc
 50
-57.9605
 51
-3.13187
  0
LINE
  5
A11
330
A02
100
AcDbEntity
  8
View
100
AcDbLine
 10
121
 20
423.351
 30
0
 11
120.8
 21
423.351
 31
0
  0
ARC
  5
A12
330
A02
100
AcDbEntity
  8
View
100
AcDbCircle
 10
132
 20
388.5
 30
0
 40
8
100
AcDbArc
 50
122.039
 51
180
  0
LINE
  5
A13
330
A02
100
AcDbEntity
  8
View
100
AcDbLine
 10
120.8
 20
423.351
 30
0
 11
120.8
 21
423.3
 31
0
  0
LINE
  5
A14
330
A02
100
AcDbEntity
  8
View
100
AcDbLine
 10
124
 20
388.5
 30
0
 11
124
 21
358.5
 31
0
  0
LINE
  5
A15
330
A02
100
AcDbEntity
  8
View
100
AcDbLine
 10
120.8
 20
423.3
 30
0
 11
121.3
 21
423.3
 31
0
  0
ARC
  5
A16
330
A02
100
AcDbEntity
  8
View
100
AcDbCircle
 10
115
 20
358.5
 30
0
 40
9
100
AcDbArc
 50
180
 51
0
  0
LINE
  5
A17
330
A02
100
AcDbEntity
  8
View
100
AcDbLine
 10
121.3
 20
422
 30
0
 11
121.3
 21
423.3
 31
0
  0
LINE
  5
A18
330
A02
100
AcDbEntity
  8
View
100
AcDbLine
 10
106
 20
388.5
 30
0
 11
106
 21
358.5
 31
0
  0
LINE
  5
A19
330
A02
100
AcDbEntity
  8
View
100
AcDbLine
 10
121.3
 20
422
 30
0
 11
124
 21
422
 31
0
  0
ARC
  5
A1A
330
A02
100
AcDbEntity
  8
View
100
AcDbCircle
 10
98
 20
388.5
 30
0
 40
8
100
AcDbArc
 50
0
 51
57.9605
  0
LINE
  5
A1B
330
A02
100
AcDbEntity
  8
View
100
AcDbLine
 10
124
 20
422
 30
0
 11
124
 21
403.8
 31
0
  0
ARC
  5
A1C
330
A02
100
AcDbEntity
  8
View
100
AcDbCircle
 10
106.488
 20
402.063
 30
0
 40
8
100
AcDbArc
 50
-176.868
 51
-122.039
  0
LINE
  5
A1D
330
A02
100
AcDbEntity
  8
View
100
AcDbLine
 10
124
 20
403.8
 30
0
 11
121.3
 21
403.8
 31
0
  0
LINE
  5
A1E
330
A02
100
AcDbEntity
  8
View
100
AcDbLine
 10
98.5
 20
402.5
 30
0
 11
98.5
 21
401.626
 31
0
  0
LINE
  5
A1F
330
A02
100
AcDbEntity
  8
View
100
AcDbLine
 10
121.3
 20
402.5
 30
0
 11
121.3
 21
403.8
 31
0
  0
ARC
  5
A20
330
A02
100
AcDbEntity
  8
View
100
AcDbCircle
 10
92.5002
 20
402.454
 30
0
 40
6
100
AcDbArc
 50
0.437747
 51
42.7635
  0
LINE
  5
A21
330
A02
100
AcDbEntity
  8
View
100
AcDbLine
 10
121.3
 20
402.5
 30
0
 11
108.7
 21
402.5
 31
0
  0
ARC
  5
A22
330
A02
100
AcDbEntity
  8
View
100
AcDbCircle
 10
101.2
 20
410.5
 30
0
 40
5.85
100
AcDbArc
 50
142.382
 51
-137.236
  0
LINE
  5
A23
330
A02
100
AcDbEntity
  8
View
100
AcDbLine
 10
108.7
 20
403.8
 30
0
 11
108.7
 21
402.5
 31
0
  0
ARC
  5
A24
330
A02
100
AcDbEntity
  8
View
100
AcDbCircle
 10
87.0611
 20
421.396
 30
0
 40
12
100
AcDbArc
 50
-37.6182
 51
-5.89583
  0
LINE
  5
A25
330
A02
100
AcDbEntity
  8
View
100
AcDbLine
 10
108.7
 20
403.8
 30
0
 11
106
 21
403.8
 31
0
  0
ARC
  5
A26
330
A02
100
AcDbEntity
  8
View
100
AcDbCircle
 10
192.57
 20
410.5
 30
0
 40
94.0704
100
AcDbArc
 50
164.546
 51
174.104
  0
LINE
  5
A27
330
A02
100
AcDbEntity
  8
View
100
AcDbLine
 10
106
 20
403.8
 30
0
 11
106
 21
422
 31
0
  0
ARC
  5
A28
330
A02
100
AcDbEntity
  8
View
100
AcDbCircle
 10
105.756
 20
434.5
 30
0
 40
4
100
AcDbArc
 50
90
 51
164.546
  0
LINE
  5
A29
330
A02
100
AcDbEntity
  8
View
100
AcDbLine
 10
106
 20
422
 30
0
 11
108.7
 21
422
 31
0
  0
LINE
  5
A2A
330
A02
100
AcDbEntity
  8
View
100
AcDbLine
 10
105.756
 20
438.5
 30
0
 11
109
 21
438.5
 31
0
  0
LINE
  5
A2B
330
A02
100
AcDbEntity
  8
View
100
AcDbLine
 10
108.7
 20
423.3
 30
0
 11
108.7
 21
422
 31
0
  0
LINE
  5
A2C
330
A02
100
AcDbEntity
  8
View
100
AcDbLine
 10
109
 20
423.351
 30
0
 11
109
 21
438.5
 31
0
  0
LINE
  5
A2D
330
A02
100
AcDbEntity
  8
View
100
AcDbLine
 10
109.2
 20
423.3
 30
0
 11
108.7
 21
423.3
 31
0
  0
LINE
  5
A2E
330
A02
100
AcDbEntity
  8
View
100
AcDbLine
 10
109.2
 20
423.351
 30
0
 11
109
 21
423.351
 31
0
  0
LINE
  5
A2F
330
A02
100
AcDbEntity
  8
View
100
AcDbLine
 10
109.2
 20
423.3
 30
0
 11
109.2
 21
423.351
 31
0
  0
CIRCLE
  5
A30
330
A02
100
AcDbEntity
  8
View
100
AcDbCircle
 10
115
 20
368.5
 40
2
  0
CIRCLE
  5
A31
330
A02
100
AcDbEntity
  8
View
100
AcDbCircle
 10
115
 20
378.5
 40
2
  0
CIRCLE
  5
A32
330
A02
100
AcDbEntity
  8
View
100
AcDbCircle
 10
115
 20
358.5
 40
1.475
  0
CIRCLE
  5
A33
330
A02
100
AcDbEntity
  8
View
100
AcDbCircle
 10
115
 20
388.5
 40
2
  0
CIRCLE
  5
A34
330
A02
100
AcDbEntity
  8
View
100
AcDbCircle
 10
103
 20
405.5
 40
1.475
  0
CIRCLE
  5
A35
330
A02
100
AcDbEntity
  8
View
100
AcDbCircle
 10
101.2
 20
410.5
 40
1.7
  0
CIRCLE
  5
A36
330
A02
100
AcDbEntity
  8
View
100
AcDbCircle
 10
103
 20
415.5
 40
1.475
  0
CIRCLE
  5
A37
330
A02
100
AcDbEntity
  8
View
100
AcDbCircle
 10
105.5
 20
429.5
 40
1.475
  0
CIRCLE
  5
A38
330
A02
100
AcDbEntity
  8
View
100
AcDbCircle
 10
127
 20
405.5
 40
1.475
  0
CIRCLE
  5
A39
330
A02
100
AcDbEntity
  8
View
100
AcDbCircle
 10
128.8
 20
410.5
 40
1.7
  0
CIRCLE
  5
A3A
330
A02
100
AcDbEntity
  8
View
100
AcDbCircle
 10
127
 20
415.5
 40
1.475
  0
CIRCLE
  5
A3B
330
A02
100
AcDbEntity
  8
View
100
AcDbCircle
 10
124.5
 20
429.5
 40
1.475
  0
LINE
  5
A3C
330
A02
100
AcDbEntity
  8
View002
100
AcDbLine
 10
136
 20
483.5
 30
0
 11
136
 21
395.5
 31
0
  0
ARC
  5
A3D
330
A02
100
AcDbEntity
  8
View002
100
AcDbCircle
 10
138
 20
483.5
 30
0
 40
2
100
AcDbArc
 50
90
 51
180
  0
ARC
  5
A3E
330
A02
100
AcDbEntity
  8
View002
100
AcDbCircle
 10
128
 20
395.5
 30
0
 40
8
100
AcDbArc
 50
-57.9605
 51
0
  0
LINE
  5
A3F
330
A02
100
AcDbEntity
  8
View002
100
AcDbLine
 10
152
 20
485.5
 30
0
 11
138
 21
485.5
 31
0
  0
ARC
  5
A40
330
A02
100
AcDbEntity
  8
View002
100
AcDbCircle
 10
136.488
 20
381.937
 30
0
 40
8
100
AcDbArc
 50
122.039
 51
176.868
  0
ARC
  5
A41
330
A02
100
AcDbEntity
  8
View002
100
AcDbCircle
 10
152
 20
483.5
 30
0
 40
2
100
AcDbArc
 50
0
 51
90
  0
LINE
  5
A42
330
A02
100
AcDbEntity
  8
View002
100
AcDbLine
 10
128.5
 20
382.374
 30
0
 11
128.5
 21
381.5
 31
0
  0
LINE
  5
A43
330
A02
100
AcDbEntity
  8
View002
100
AcDbLine
 10
154
 20
395.5
 30
0
 11
154
 21
483.5
 31
0
  0
ARC
  5
A44
330
A02
100
AcDbEntity
  8
View002
100
AcDbCircle
 10
122.5
 20
381.546
 30
0
 40
6
100
AcDbArc
 50
-42.7635
 51
-0.437747
  0
ARC
  5
A45
330
A02
100
AcDbEntity
  8
View002
100
AcDbCircle
 10
162
 20
395.5
 30
0
 40
8
100
AcDbArc
 50
180
 51
-122.039
  0
ARC
  5
A46
330
A02
100
AcDbEntity
  8
View002
100
AcDbCircle
 10
131.2
 20
373.5
 30
0
 40
5.85
100
AcDbArc
 50
137.236
 51
-142.382
  0
ARC
  5
A47
330
A02
100
AcDbEntity
  8
View002
100
AcDbCircle
 10
153.512
 20
381.937
 30
0
 40
8
100
AcDbArc
 50
3.13187
 51
57.9605
  0
ARC
  5
A48
330
A02
100
AcDbEntity
  8
View002
100
AcDbCircle
 10
117.061
 20
362.604
 30
0
 40
12
100
AcDbArc
 50
5.89583
 51
37.6182
  0
LINE
  5
A49
330
A02
100
AcDbEntity
  8
View002
100
AcDbLine
 10
161.5
 20
381.5
 30
0
 11
161.5
 21
382.374
 31
0
  0
ARC
  5
A4A
330
A02
100
AcDbEntity
  8
View002
100
AcDbCircle
 10
222.57
 20
373.5
 30
0
 40
94.0704
100
AcDbArc
 50
-174.104
 51
-156.839
  0
ARC
  5
A4B
330
A02
100
AcDbEntity
  8
View002
100
AcDbCircle
 10
167.5
 20
381.546
 30
0
 40
6
100
AcDbArc
 50
-179.562
 51
-137.236
  0
ARC
  5
A4C
330
A02
100
AcDbEntity
  8
View002
100
AcDbCircle
 10
108.5
 20
324.7
 30
0
 40
30
100
AcDbArc
 50
0
 51
23.1614
  0
ARC
  5
A4D
330
A02
100
AcDbEntity
  8
View002
100
AcDbCircle
 10
158.8
 20
373.5
 30
0
 40
5.85
100
AcDbArc
 50
-37.6182
 51
42.7635
  0
LINE
  5
A4E
330
A02
100
AcDbEntity
  8
View002
100
AcDbLine
 10
138.5
 20
98.975
 30
0
 11
138.5
 21
324.7
 31
0
  0
ARC
  5
A4F
330
A02
100
AcDbEntity
  8
View002
100
AcDbCircle
 10
172.939
 20
362.604
 30
0
 40
12
100
AcDbArc
 50
142.382
 51
174.104
  0
ARC
  5
A50
330
A02
100
AcDbEntity
  8
View002
100
AcDbCircle
 10
137
 20
96.3769
 30
0
 40
3
100
AcDbArc
 50
27.266
 51
60
  0
ARC
  5
A51
330
A02
100
AcDbEntity
  8
View002
100
AcDbCircle
 10
67.4296
 20
373.5
 30
0
 40
94.0704
100
AcDbArc
 50
-23.1614
 51
-5.89583
  0
ARC
  5
A52
330
A02
100
AcDbEntity
  8
View002
100
AcDbCircle
 10
145
 20
100.5
 30
0
 40
6
100
AcDbArc
 50
-152.734
 51
-27.266
  0
ARC
  5
A53
330
A02
100
AcDbEntity
  8
View002
100
AcDbCircle
 10
181.5
 20
324.7
 30
0
 40
30
100
AcDbArc
 50
156.839
 51
180
  0
ARC
  5
A54
330
A02
100
AcDbEntity
  8
View002
100
AcDbCircle
 10
153
 20
96.3769
 30
0
 40
3
100
AcDbArc
 50
120
 51
152.734
  0
LINE
  5
A55
330
A02
100
AcDbEntity
  8
View002
100
AcDbLine
 10
151.5
 20
324.7
 30
0
 11
151.5
 21
98.975
 31
0
  0
CIRCLE
  5
A56
330
A02
100
AcDbEntity
  8
View002
100
AcDbCircle
 10
158.8
 20
373.5
 40
1.7
  0
CIRCLE
  5
A57
330
A02
100
AcDbEntity
  8
View002
100
AcDbCircle
 10
157
 20
378.5
 40
1.475
  0
CIRCLE
  5
A58
330
A02
100
AcDbEntity
  8
View002
100
AcDbCircle
 10
157
 20
368.5
 40
1.475
  0
CIRCLE
  5
A59
330
A02
100
AcDbEntity
  8
View002
100
AcDbCircle
 10
154.5
 20
354.5
 40
1.475
  0
CIRCLE
  5
A5A
330
A02
100
AcDbEntity
  8
View002
100
AcDbCircle
 10
145
 20
477.5
 40
1.475
  0
CIRCLE
  5
A5B
330
A02
100
AcDbEntity
  8
View002
100
AcDbCircle
 10
145
 20
425.5
 40
1.475
  0
LINE
  5
A5C
330
A02
100
AcDbEntity
  8
View002
100
AcDbLine
 10
148.05
 20
398.755
 30
0
 11
147.75
 21
398.755
 31
0
  0
LINE
  5
A5D
330
A02
100
AcDbEntity
  8
View002
100
AcDbLine
 10
147.75
 20
398.755
 30
0
 11
147.75
 21
399.255
 31
0
  0
LINE
  5
A5E
330
A02
100
AcDbEntity
  8
View002
100
AcDbLine
 10
147.75
 20
402.255
 30
0
 11
147.75
 21
399.255
 31
0
  0
LINE
  5
A5F
330
A02
100
AcDbEntity
  8
View002
100
AcDbLine
 10
148.05
 20
402.255
 30
0
 11
147.75
 21
402.255
 31
0
  0
LINE
  5
A60
330
A02
100
AcDbEntity
  8
View002
100
AcDbLine
 10
148.05
 20
408.755
 30
0
 11
148.05
 21
402.255
 31
0
  0
LINE
  5
A61
330
A02
100
AcDbEntity
  8
View002
100
AcDbLine
 10
148.05
 20
408.755
 30
0
 11
147.75
 21
408.755
 31
0
  0
LINE
  5
A62
330
A02
100
AcDbEntity
  8
View002
100
AcDbLine
 10
147.75
 20
409.255
 30
0
 11
147.75
 21
408.755
 31
0
  0
LINE
  5
A63
330
A02
100
AcDbEntity
  8
View002
100
AcDbLine
 10
147.75
 20
412.255
 30
0
 11
147.75
 21
409.255
 31
0
  0
LINE
  5
A64
330
A02
100
AcDbEntity
  8
View002
100
AcDbLine
 10
148.05
 20
412.255
 30
0
 11
147.75
 21
412.255
 31
0
  0
LINE
  5
A65
330
A02
100
AcDbEntity
  8
View002
100
AcDbLine
 10
148.05
 20
418.755
 30
0
 11
148.05
 21
412.255
 31
0
  0
LINE
  5
A66
330
A02
100
AcDbEntity
  8
View002
100
AcDbLine
 10
148.05
 20
418.755
 30
0
 11
147.75
 21
418.755
 31
0
  0
LINE
  5
A67
330
A02
100
AcDbEntity
  8
View002
100
AcDbLine
 10
147.75
 20
418.755
 30
0
 11
147.75
 21
419.255
 31
0
  0
LINE
  5
A68
330
A02
100
AcDbEntity
  8
View002
100
AcDbLine
 10
147.75
 20
419.255
 30
0
 11
142.25
 21
419.255
 31
0
  0
LINE
  5
A69
330
A02
100
AcDbEntity
  8
View002
100
AcDbLine
 10
142.25
 20
419.255
 30
0
 11
142.25
 21
418.745
 31
0
  0
LINE
  5
A6A
330
A02
100
AcDbEntity
  8
View002
100
AcDbLine
 10
142.25
 20
418.745
 30
0
 11
141.95
 21
418.745
 31
0
  0
LINE
  5
A6B
330
A02
100
AcDbEntity
  8
View002
100
AcDbLine
 10
141.95
 20
412.255
 30
0
 11
141.95
 21
418.745
 31
0
  0
LINE
  5
A6C
330
A02
100
AcDbEntity
  8
View002
100
AcDbLine
 10
142.25
 20
412.255
 30
0
 11
141.95
 21
412.255
 31
0
  0
LINE
  5
A6D
330
A02
100
AcDbEntity
  8
View002
100
AcDbLine
 10
142.25
 20
409.255
 30
0
 11
142.25
 21
412.255
 31
0
  0
LINE
  5
A6E
330
A02
100
AcDbEntity
  8
View002
100
AcDbLine
 10
142.25
 20
408.755
 30
0
 11
142.25
 21
409.255
 31
0
  0
LINE
  5
A6F
330
A02
100
AcDbEntity
  8
View002
100
AcDbLine
 10
142.25
 20
408.755
 30
0
 11
142.25
 21
408.745
 31
0
  0
LINE
  5
A70
330
A02
100
AcDbEntity
  8
View002
100
AcDbLine
 10
142.25
 20
408.745
 30
0
 11
141.95
 21
408.745
 31
0
  0
LINE
  5
A71
330
A02
100
AcDbEntity
  8
View002
100
AcDbLine
 10
141.95
 20
402.255
 30
0
 11
141.95
 21
408.745
 31
0
  0
LINE
  5
A72
330
A02
100
AcDbEntity
  8
View002
100
AcDbLine
 10
142.25
 20
402.255
 30
0
 11
141.95
 21
402.255
 31
0
  0
LINE
  5
A73
330
A02
100
AcDbEntity
  8
View002
100
AcDbLine
 10
142.25
 20
399.255
 30
0
 11
142.25
 21
402.255
 31
0
  0
LINE
  5
A74
330
A02
100
AcDbEntity
  8
View002
100
AcDbLine
 10
142.25
 20
399.255
 30
0
 11
142.25
 21
398.755
 31
0
  0
LINE
  5
A75
330
A02
100
AcDbEntity
  8
View002
100
AcDbLine
 10
142.25
 20
398.755
 30
0
 11
142.25
 21
398.745
 31
0
  0
LINE
  5
A76
330
A02
100
AcDbEntity
  8
View002
100
AcDbLine
 10
142.25
 20
398.745
 30
0
 11
141.95
 21
398.745
 31
0
  0
LINE
  5
A77
330
A02
100
AcDbEntity
  8
View002
100
AcDbLine
 10
141.95
 20
392.255
 30
0
 11
141.95
 21
398.745
 31
0
  0
LINE
  5
A78
330
A02
100
AcDbEntity
  8
View002
100
AcDbLine
 10
142.25
 20
392.255
 30
0
 11
141.95
 21
392.255
 31
0
  0
LINE
  5
A79
330
A02
100
AcDbEntity
  8
View002
100
AcDbLine
 10
142.25
 20
388.755
 30
0
 11
142.25
 21
392.255
 31
0
  0
LINE
  5
A7A
330
A02
100
AcDbEntity
  8
View002
100
AcDbLine
 10
144.5
 20
388.755
 30
0
 11
142.25
 21
388.755
 31
0
  0
LINE
  5
A7B
330
A02
100
AcDbEntity
  8
View002
100
AcDbLine
 10
144.5
 20
380.5
 30
0
 11
144.5
 21
388.755
 31
0
  0
LINE
  5
A7C
330
A02
100
AcDbEntity
  8
View002
100
AcDbLine
 10
144.5
 20
380.5
 30
0
 11
141.75
 21
380.5
 31
0
  0
ARC
  5
A7D
330
A02
100
AcDbEntity
  8
View002
100
AcDbCircle
 10
141.75
 20
379
 30
0
 40
1.5
100
AcDbArc
 50
90
 51
180
  0
ARC
  5
A7E
330
A02
100
AcDbEntity
  8
View002
100
AcDbCircle
 10
139.75
 20
379
 30
0
 40
0.5
100
AcDbArc
 50
-90
 51
0
  0
LINE
  5
A7F
330
A02
100
AcDbEntity
  8
View002
100
AcDbLine
 10
139.75
 20
378.5
 30
0
 11
138.75
 21
378.5
 31
0
  0
LINE
  5
A80
330
A02
100
AcDbEntity
  8
View002
100
AcDbLine
 10
138.75
 20
380.2
 30
0
 11
138.75
 21
378.5
 31
0
  0
LINE
  5
A81
330
A02
100
AcDbEntity
  8
View002
100
AcDbLine
 10
136
 20
380.2
 30
0
 11
138.75
 21
380.2
 31
0
  0
LINE
  5
A82
330
A02
100
AcDbEntity
  8
View002
100
AcDbLine
 10
136
 20
362
 30
0
 11
136
 21
380.2
 31
0
  0
LINE
  5
A83
330
A02
100
AcDbEntity
  8
View002
100
AcDbLine
 10
137
 20
362
 30
0
 11
136
 21
362
 31
0
  0
LINE
  5
A84
330
A02
100
AcDbEntity
  8
View002
100
AcDbLine
 10
137
 20
362
 30
0
 11
137
 21
360.5
 31
0
  0
ARC
  5
A85
330
A02
100
AcDbEntity
  8
View002
100
AcDbCircle
 10
145
 20
360.5
 30
0
 40
8
100
AcDbArc
 50
180
 51
-116.744
  0
ARC
  5
A86
330
A02
100
AcDbEntity
  8
View002
100
AcDbCircle
 10
140.5
 20
351.57
 30
0
 40
2
100
AcDbArc
 50
0
 51
63.2563
  0
LINE
  5
A87
330
A02
100
AcDbEntity
  8
View002
100
AcDbLine
 10
142.5
 20
344.5
 30
0
 11
142.5
 21
351.57
 31
0
  0
ARC
  5
A88
330
A02
100
AcDbEntity
  8
View002
100
AcDbCircle
 10
143.5
 20
344.5
 30
0
 40
1
100
AcDbArc
 50
180
 51
-90
  0
LINE
  5
A89
330
A02
100
AcDbEntity
  8
View002
100
AcDbLine
 10
146.5
 20
343.5
 30
0
 11
143.5
 21
343.5
 31
0
  0
ARC
  5
A8A
330
A02
100
AcDbEntity
  8
View002
100
AcDbCircle
 10
146.5
 20
344.5
 30
0
 40
1
100
AcDbArc
 50
-90
 51
0
  0
LINE
  5
A8B
330
A02
100
AcDbEntity
  8
View002
100
AcDbLine
 10
147.5
 20
351.57
 30
0
 11
147.5
 21
344.5
 31
0
  0
ARC
  5
A8C
330
A02
100
AcDbEntity
  8
View002
100
AcDbCircle
 10
149.5
 20
351.57
 30
0
 40
2
100
AcDbArc
 50
116.744
 51
180
  0
ARC
  5
A8D
330
A02
100
AcDbEntity
  8
View002
100
AcDbCircle
 10
145
 20
360.5
 30
0
 40
8
100
AcDbArc
 50
-63.2563
 51
0
  0
LINE
  5
A8E
330
A02
100
AcDbEntity
  8
View002
100
AcDbLine
 10
153
 20
360.5
 30
0
 11
153
 21
362
 31
0
  0
LINE
  5
A8F
330
A02
100
AcDbEntity
  8
View002
100
AcDbLine
 10
154
 20
362
 30
0
 11
153
 21
362
 31
0
  0
LINE
  5
A90
330
A02
100
AcDbEntity
  8
View002
100
AcDbLine
 10
154
 20
380.2
 30
0
 11
154
 21
362
 31
0
  0
LINE
  5
A91
330
A02
100
AcDbEntity
  8
View002
100
AcDbLine
 10
151.25
 20
380.2
 30
0
 11
154
 21
380.2
 31
0
  0
LINE
  5
A92
330
A02
100
AcDbEntity
  8
View002
100
AcDbLine
 10
151.25
 20
378.5
 30
0
 11
151.25
 21
380.2
 31
0
  0
LINE
  5
A93
330
A02
100
AcDbEntity
  8
View002
100
AcDbLine
 10
151.25
 20
378.5
 30
0
 11
150.25
 21
378.5
 31
0
  0
ARC
  5
A94
330
A02
100
AcDbEntity
  8
View002
100
AcDbCircle
 10
150.25
 20
379
 30
0
 40
0.5
100
AcDbArc
 50
180
 51
-90
  0
ARC
  5
A95
330
A02
100
AcDbEntity
  8
View002
100
AcDbCircle
 10
148.25
 20
379
 30
0
 40
1.5
100
AcDbArc
 50
0
 51
90
  0
LINE
  5
A96
330
A02
100
AcDbEntity
  8
View002
100
AcDbLine
 10
148.25
 20
380.5
 30
0
 11
145.5
 21
380.5
 31
0
  0
LINE
  5
A97
330
A02
100
AcDbEntity
  8
View002
100
AcDbLine
 10
145.5
 20
388.755
 30
0
 11
145.5
 21
380.5
 31
0
  0
LINE
  5
A98
330
A02
100
AcDbEntity
  8
View002
100
AcDbLine
 10
147.75
 20
388.755
 30
0
 11
145.5
 21
388.755
 31
0
  0
LINE
  5
A99
330
A02
100
AcDbEntity
  8
View002
100
AcDbLine
 10
147.75
 20
392.255
 30
0
 11
147.75
 21
388.755
 31
0
  0
LINE
  5
A9A
330
A02
100
AcDbEntity
  8
View002
100
AcDbLine
 10
148.05
 20
392.255
 30
0
 11
147.75
 21
392.255
 31
0
  0
LINE
  5
A9B
330
A02
100
AcDbEntity
  8
View002
100
AcDbLine
 10
148.05
 20
398.755
 30
0
 11
148.05
 21
392.255
 31
0
  0
CIRCLE
  5
A9C
330
A02
100
AcDbEntity
  8
View002
100
AcDbCircle
 10
145
 20
338.5
 40
1.475
  0
CIRCLE
  5
A9D
330
A02
100
AcDbEntity
  8
View002
100
AcDbCircle
 10
145
 20
300.5
 40
1.475
  0
CIRCLE
  5
A9E
330
A02
100
AcDbEntity
  8
View002
100
AcDbCircle
 10
135.5
 20
354.5
 40
1.475
  0
CIRCLE
  5
A9F
330
A02
100
AcDbEntity
  8
View002
100
AcDbCircle
 10
133
 20
378.5
 40
1.475
  0
CIRCLE
  5
AA0
330
A02
100
AcDbEntity
  8
View002
100
AcDbCircle
 10
133
 20
368.5
 40
1.475
  0
CIRCLE
  5
AA1
330
A02
100
AcDbEntity
  8
View002
100
AcDbCircle
 10
131.2
 20
373.5
 40
1.7
  0
CIRCLE
  5
AA2
330
A02
100
AcDbEntity
  8
View002
100
AcDbCircle
 10
145
 20
262.5
 40
1.475
  0
CIRCLE
  5
AA3
330
A02
100
AcDbEntity
  8
View002
100
AcDbCircle
 10
145
 20
224.5
 40
1.475
  0
CIRCLE
  5
AA4
330
A02
100
AcDbEntity
  8
View002
100
AcDbCircle
 10
145
 20
186.5
 40
1.475
  0
CIRCLE
  5
AA5
330
A02
100
AcDbEntity
  8
View002
100
AcDbCircle
 10
145
 20
148.5
 40
1.475
  0
CIRCLE
  5
AA6
330
A02
100
AcDbEntity
  8
View002
100
AcDbCircle
 10
145
 20
110.5
 40
1.475
  0
LINE
  5
AA7
330
A02
100
AcDbEntity
  8
View003
100
AcDbLine
 10
181.5
 20
488.623
 30
0
 11
181.5
 21
465.459
 31
0
  0
ARC
  5
AA8
330
A02
100
AcDbEntity
  8
View003
100
AcDbCircle
 10
180
 20
488.623
 30
0
 40
1.5
100
AcDbArc
 50
0
 51
90
  0
ARC
  5
AA9
330
A02
100
AcDbEntity
  8
View003
100
AcDbCircle
 10
180
 20
465.459
 30
0
 40
1.5
100
AcDbArc
 50
-62.9643
 51
0
  0
ARC
  5
AAA
330
A02
100
AcDbEntity
  8
View003
100
AcDbCircle
 10
180
 20
493.123
 30
0
 40
3
100
AcDbArc
 50
-152.734
 51
-90
  0
ARC
  5
AAB
330
A02
100
AcDbEntity
  8
View003
100
AcDbCircle
 10
182.5
 20
460.56
 30
0
 40
4
100
AcDbArc
 50
117.036
 51
180
  0
ARC
  5
AAC
330
A02
100
AcDbEntity
  8
View003
100
AcDbCircle
 10
172
 20
489
 30
0
 40
6
100
AcDbArc
 50
27.266
 51
152.734
  0
LINE
  5
AAD
330
A02
100
AcDbEntity
  8
View003
100
AcDbLine
 10
178.5
 20
460.56
 30
0
 11
178.5
 21
264.8
 31
0
  0
ARC
  5
AAE
330
A02
100
AcDbEntity
  8
View003
100
AcDbCircle
 10
164
 20
493.123
 30
0
 40
3
100
AcDbArc
 50
-90
 51
-27.266
  0
ARC
  5
AAF
330
A02
100
AcDbEntity
  8
View003
100
AcDbCircle
 10
208.5
 20
264.8
 30
0
 40
30
100
AcDbArc
 50
180
 51
-156.839
  0
ARC
  5
AB0
330
A02
100
AcDbEntity
  8
View003
100
AcDbCircle
 10
164
 20
488.623
 30
0
 40
1.5
100
AcDbArc
 50
90
 51
180
  0
ARC
  5
AB1
330
A02
100
AcDbEntity
  8
View003
100
AcDbCircle
 10
94.4296
 20
216
 30
0
 40
94.0704
100
AcDbArc
 50
5.89583
 51
23.1614
  0
LINE
  5
AB2
330
A02
100
AcDbEntity
  8
View003
100
AcDbLine
 10
162.5
 20
465.459
 30
0
 11
162.5
 21
488.623
 31
0
  0
ARC
  5
AB3
330
A02
100
AcDbEntity
  8
View003
100
AcDbCircle
 10
199.939
 20
226.896
 30
0
 40
12
100
AcDbArc
 50
-174.104
 51
-142.382
  0
ARC
  5
AB4
330
A02
100
AcDbEntity
  8
View003
100
AcDbCircle
 10
164
 20
465.459
 30
0
 40
1.5
100
AcDbArc
 50
180
 51
-117.036
  0
ARC
  5
AB5
330
A02
100
AcDbEntity
  8
View003
100
AcDbCircle
 10
185.8
 20
216
 30
0
 40
5.85
100
AcDbArc
 50
-42.7635
 51
37.6182
  0
ARC
  5
AB6
330
A02
100
AcDbEntity
  8
View003
100
AcDbCircle
 10
161.5
 20
460.56
 30
0
 40
4
100
AcDbArc
 50
0
 51
62.9643
  0
ARC
  5
AB7
330
A02
100
AcDbEntity
  8
View003
100
AcDbCircle
 10
194.5
 20
207.954
 30
0
 40
6
100
AcDbArc
 50
137.236
 51
179.562
  0
LINE
  5
AB8
330
A02
100
AcDbEntity
  8
View003
100
AcDbLine
 10
165.5
 20
264.8
 30
0
 11
165.5
 21
460.56
 31
0
  0
LINE
  5
AB9
330
A02
100
AcDbEntity
  8
View003
100
AcDbLine
 10
188.5
 20
196.5
 30
0
 11
188.5
 21
208
 31
0
  0
ARC
  5
ABA
330
A02
100
AcDbEntity
  8
View003
100
AcDbCircle
 10
135.5
 20
264.8
 30
0
 40
30
100
AcDbArc
 50
-23.1614
 51
0
  0
LINE
  5
ABB
330
A02
100
AcDbEntity
  8
View003
100
AcDbLine
 10
188.3
 20
196.5
 30
0
 11
188.5
 21
196.5
 31
0
  0
ARC
  5
ABC
330
A02
100
AcDbEntity
  8
View003
100
AcDbCircle
 10
249.57
 20
216
 30
0
 40
94.0704
100
AcDbArc
 50
156.839
 51
174.104
  0
LINE
  5
ABD
330
A02
100
AcDbEntity
  8
View003
100
AcDbLine
 10
188.3
 20
196.5
 30
0
 11
184.7
 21
196.5
 31
0
  0
ARC
  5
ABE
330
A02
100
AcDbEntity
  8
View003
100
AcDbCircle
 10
144.061
 20
226.896
 30
0
 40
12
100
AcDbArc
 50
-37.6182
 51
-5.89583
  0
LINE
  5
ABF
330
A02
100
AcDbEntity
  8
View003
100
AcDbLine
 10
184.7
 20
196.5
 30
0
 11
184.5
 21
196.5
 31
0
  0
ARC
  5
AC0
330
A02
100
AcDbEntity
  8
View003
100
AcDbCircle
 10
158.2
 20
216
 30
0
 40
5.85
100
AcDbArc
 50
142.382
 51
-137.236
  0
LINE
  5
AC1
330
A02
100
AcDbEntity
  8
View003
100
AcDbLine
 10
184.5
 20
196.5
 30
0
 11
184.5
 21
196.3
 31
0
  0
ARC
  5
AC2
330
A02
100
AcDbEntity
  8
View003
100
AcDbCircle
 10
149.5
 20
207.954
 30
0
 40
6
100
AcDbArc
 50
0.437747
 51
42.7635
  0
LINE
  5
AC3
330
A02
100
AcDbEntity
  8
View003
100
AcDbLine
 10
184.5
 20
196.3
 30
0
 11
184.5
 21
179.5
 31
0
  0
LINE
  5
AC4
330
A02
100
AcDbEntity
  8
View003
100
AcDbLine
 10
155.5
 20
208
 30
0
 11
155.5
 21
196.5
 31
0
  0
LINE
  5
AC5
330
A02
100
AcDbEntity
  8
View003
100
AcDbLine
 10
184.7
 20
179.5
 30
0
 11
184.5
 21
179.5
 31
0
  0
LINE
  5
AC6
330
A02
100
AcDbEntity
  8
View003
100
AcDbLine
 10
155.7
 20
196.5
 30
0
 11
155.5
 21
196.5
 31
0
  0
LINE
  5
AC7
330
A02
100
AcDbEntity
  8
View003
100
AcDbLine
 10
184.7
 20
179.5
 30
0
 11
188.3
 21
179.5
 31
0
  0
LINE
  5
AC8
330
A02
100
AcDbEntity
  8
View003
100
AcDbLine
 10
155.7
 20
196.5
 30
0
 11
159.3
 21
196.5
 31
0
  0
LINE
  5
AC9
330
A02
100
AcDbEntity
  8
View003
100
AcDbLine
 10
188.5
 20
179.5
 30
0
 11
188.3
 21
179.5
 31
0
  0
LINE
  5
ACA
330
A02
100
AcDbEntity
  8
View003
100
AcDbLine
 10
159.3
 20
196.5
 30
0
 11
159.5
 21
196.5
 31
0
  0
LINE
  5
ACB
330
A02
100
AcDbEntity
  8
View003
100
AcDbLine
 10
188.5
 20
162.5
 30
0
 11
188.5
 21
179.5
 31
0
  0
LINE
  5
ACC
330
A02
100
AcDbEntity
  8
View003
100
AcDbLine
 10
159.5
 20
196.5
 30
0
 11
159.5
 21
196.3
 31
0
  0
LINE
  5
ACD
330
A02
100
AcDbEntity
  8
View003
100
AcDbLine
 10
188.3
 20
162.5
 30
0
 11
188.5
 21
162.5
 31
0
  0
LINE
  5
ACE
330
A02
100
AcDbEntity
  8
View003
100
AcDbLine
 10
159.5
 20
196.3
 30
0
 11
159.5
 21
179.5
 31
0
  0
LINE
  5
ACF
330
A02
100
AcDbEntity
  8
View003
100
AcDbLine
 10
188.3
 20
162.5
 30
0
 11
184.7
 21
162.5
 31
0
  0
LINE
  5
AD0
330
A02
100
AcDbEntity
  8
View003
100
AcDbLine
 10
159.3
 20
179.5
 30
0
 11
159.5
 21
179.5
 31
0
  0
LINE
  5
AD1
330
A02
100
AcDbEntity
  8
View003
100
AcDbLine
 10
184.7
 20
162.5
 30
0
 11
184.5
 21
162.5
 31
0
  0
LINE
  5
AD2
330
A02
100
AcDbEntity
  8
View003
100
AcDbLine
 10
159.3
 20
179.5
 30
0
 11
155.7
 21
179.5
 31
0
  0
LINE
  5
AD3
330
A02
100
AcDbEntity
  8
View003
100
AcDbLine
 10
184.5
 20
162.5
 30
0
 11
184.5
 21
162.3
 31
0
  0
LINE
  5
AD4
330
A02
100
AcDbEntity
  8
View003
100
AcDbLine
 10
155.5
 20
179.5
 30
0
 11
155.7
 21
179.5
 31
0
  0
LINE
  5
AD5
330
A02
100
AcDbEntity
  8
View003
100
AcDbLine
 10
184.5
 20
162.3
 30
0
 11
184.5
 21
145.5
 31
0
  0
LINE
  5
AD6
330
A02
100
AcDbEntity
  8
View003
100
AcDbLine
 10
155.5
 20
179.5
 30
0
 11
155.5
 21
162.5
 31
0
  0
LINE
  5
AD7
330
A02
100
AcDbEntity
  8
View003
100
AcDbLine
 10
184.7
 20
145.5
 30
0
 11
184.5
 21
145.5
 31
0
  0
LINE
  5
AD8
330
A02
100
AcDbEntity
  8
View003
100
AcDbLine
 10
155.7
 20
162.5
 30
0
 11
155.5
 21
162.5
 31
0
  0
LINE
  5
AD9
330
A02
100
AcDbEntity
  8
View003
100
AcDbLine
 10
184.7
 20
145.5
 30
0
 11
188.3
 21
145.5
 31
0
  0
LINE
  5
ADA
330
A02
100
AcDbEntity
  8
View003
100
AcDbLine
 10
155.7
 20
162.5
 30
0
 11
159.3
 21
162.5
 31
0
  0
LINE
  5
ADB
330
A02
100
AcDbEntity
  8
View003
100
AcDbLine
 10
188.5
 20
145.5
 30
0
 11
188.3
 21
145.5
 31
0
  0
LINE
  5
ADC
330
A02
100
AcDbEntity
  8
View003
100
AcDbLine
 10
159.3
 20
162.5
 30
0
 11
159.5
 21
162.5
 31
0
  0
LINE
  5
ADD
330
A02
100
AcDbEntity
  8
View003
100
AcDbLine
 10
188.5
 20
128.5
 30
0
 11
188.5
 21
145.5
 31
0
  0
LINE
  5
ADE
330
A02
100
AcDbEntity
  8
View003
100
AcDbLine
 10
159.5
 20
162.5
 30
0
 11
159.5
 21
162.3
 31
0
  0
LINE
  5
ADF
330
A02
100
AcDbEntity
  8
View003
100
AcDbLine
 10
188.3
 20
128.5
 30
0
 11
188.5
 21
128.5
 31
0
  0
LINE
  5
AE0
330
A02
100
AcDbEntity
  8
View003
100
AcDbLine
 10
159.5
 20
162.3
 30
0
 11
159.5
 21
145.5
 31
0
  0
LINE
  5
AE1
330
A02
100
AcDbEntity
  8
View003
100
AcDbLine
 10
188.3
 20
128.5
 30
0
 11
184.7
 21
128.5
 31
0
  0
LINE
  5
AE2
330
A02
100
AcDbEntity
  8
View003
100
AcDbLine
 10
159.3
 20
145.5
 30
0
 11
159.5
 21
145.5
 31
0
  0
LINE
  5
AE3
330
A02
100
AcDbEntity
  8
View003
100
AcDbLine
 10
184.7
 20
128.5
 30
0
 11
184.5
 21
128.5
 31
0
  0
LINE
  5
AE4
330
A02
100
AcDbEntity
  8
View003
100
AcDbLine
 10
159.3
 20
145.5
 30
0
 11
155.7
 21
145.5
 31
0
  0
LINE
  5
AE5
330
A02
100
AcDbEntity
  8
View003
100
AcDbLine
 10
184.5
 20
128.5
 30
0
 11
184.5
 21
128.3
 31
0
  0
LINE
  5
AE6
330
A02
100
AcDbEntity
  8
View003
100
AcDbLine
 10
155.5
 20
145.5
 30
0
 11
155.7
 21
145.5
 31
0
  0
LINE
  5
AE7
330
A02
100
AcDbEntity
  8
View003
100
AcDbLine
 10
184.5
 20
128.3
 30
0
 11
184.5
 21
111.5
 31
0
  0
LINE
  5
AE8
330
A02
100
AcDbEntity
  8
View003
100
AcDbLine
 10
155.5
 20
145.5
 30
0
 11
155.5
 21
128.5
 31
0
  0
LINE
  5
AE9
330
A02
100
AcDbEntity
  8
View003
100
AcDbLine
 10
184.7
 20
111.5
 30
0
 11
184.5
 21
111.5
 31
0
  0
LINE
  5
AEA
330
A02
100
AcDbEntity
  8
View003
100
AcDbLine
 10
155.7
 20
128.5
 30
0
 11
155.5
 21
128.5
 31
0
  0
LINE
  5
AEB
330
A02
100
AcDbEntity
  8
View003
100
AcDbLine
 10
184.7
 20
111.5
 30
0
 11
188.3
 21
111.5
 31
0
  0
LINE
  5
AEC
330
A02
100
AcDbEntity
  8
View003
100
AcDbLine
 10
155.7
 20
128.5
 30
0
 11
159.3
 21
128.5
 31
0
  0
LINE
  5
AED
330
A02
100
AcDbEntity
  8
View003
100
AcDbLine
 10
188.5
 20
111.5
 30
0
 11
188.3
 21
111.5
 31
0
  0
LINE
  5
AEE
330
A02
100
AcDbEntity
  8
View003
100
AcDbLine
 10
159.3
 20
128.5
 30
0
 11
159.5
 21
128.5
 31
0
  0
LINE
  5
AEF
330
A02
100
AcDbEntity
  8
View003
100
AcDbLine
 10
188.5
 20
100
 30
0
 11
188.5
 21
111.5
 31
0
  0
LINE
  5
AF0
330
A02
100
AcDbEntity
  8
View003
100
AcDbLine
 10
159.5
 20
128.5
 30
0
 11
159.5
 21
128.3
 31
0
  0
ARC
  5
AF1
330
A02
100
AcDbEntity
  8
View003
100
AcDbCircle
 10
183.5
 20
100
 30
0
 40
5
100
AcDbArc
 50
-90
 51
-1.28777e-09
  0
LINE
  5
AF2
330
A02
100
AcDbEntity
  8
View003
100
AcDbLine
 10
159.5
 20
128.3
 30
0
 11
159.5
 21
111.5
 31
0
  0
LINE
  5
AF3
330
A02
100
AcDbEntity
  8
View003
100
AcDbLine
 10
160.5
 20
95
 30
0
 11
183.5
 21
95
 31
0
  0
LINE
  5
AF4
330
A02
100
AcDbEntity
  8
View003
100
AcDbLine
 10
159.3
 20
111.5
 30
0
 11
159.5
 21
111.5
 31
0
  0
ARC
  5
AF5
330
A02
100
AcDbEntity
  8
View003
100
AcDbCircle
 10
160.5
 20
100
 30
0
 40
5
100
AcDbArc
 50
-180
 51
-90
  0
LINE
  5
AF6
330
A02
100
AcDbEntity
  8
View003
100
AcDbLine
 10
159.3
 20
111.5
 30
0
 11
155.7
 21
111.5
 31
0
  0
LINE
  5
AF7
330
A02
100
AcDbEntity
  8
View003
100
AcDbLine
 10
155.5
 20
111.5
 30
0
 11
155.5
 21
100
 31
0
  0
LINE
  5
AF8
330
A02
100
AcDbEntity
  8
View003
100
AcDbLine
 10
155.5
 20
111.5
 30
0
 11
155.7
 21
111.5
 31
0
  0
CIRCLE
  5
AF9
330
A02
100
AcDbEntity
  8
View003
100
AcDbCircle
 10
158.2
 20
216
 40
1.7
  0
CIRCLE
  5
AFA
330
A02
100
AcDbEntity
  8
View003
100
AcDbCircle
 10
160
 20
211
 40
1.475
  0
CIRCLE
  5
AFB
330
A02
100
AcDbEntity
  8
View003
100
AcDbCircle
 10
160
 20
221
 40
1.475
  0
CIRCLE
  5
AFC
330
A02
100
AcDbEntity
  8
View003
100
AcDbCircle
 10
162.5
 20
235
 40
1.475
  0
LINE
  5
AFD
330
A02
100
AcDbEntity
  8
View003
100
AcDbLine
 10
166
 20
100
 30
0
 11
166
 21
104
 31
0
  0
LINE
  5
AFE
330
A02
100
AcDbEntity
  8
View003
100
AcDbLine
 10
178
 20
100
 30
0
 11
166
 21
100
 31
0
  0
LINE
  5
AFF
330
A02
100
AcDbEntity
  8
View003
100
AcDbLine
 10
166
 20
104
 30
0
 11
178
 21
104
 31
0
  0
LINE
  5
B00
330
A02
100
AcDbEntity
  8
View003
100
AcDbLine
 10
178
 20
104
 30
0
 11
178
 21
100
 31
0
  0
CIRCLE
  5
B01
330
A02
100
AcDbEntity
  8
View003
100
AcDbCircle
 10
172
 20
112
 40
1.475
  0
CIRCLE
  5
B02
330
A02
100
AcDbEntity
  8
View003
100
AcDbCircle
 10
172
 20
164
 40
1.475
  0
ARC
  5
B03
330
A02
100
AcDbEntity
  8
View003
100
AcDbCircle
 10
171
 20
200.5
 30
0
 40
0.5
100
AcDbArc
 50
90
 51
180
  0
LINE
  5
B04
330
A02
100
AcDbEntity
  8
View003
100
AcDbLine
 10
170.5
 20
171.5
 30
0
 11
170.5
 21
200.5
 31
0
  0
ARC
  5
B05
330
A02
100
AcDbEntity
  8
View003
100
AcDbCircle
 10
171
 20
171.5
 30
0
 40
0.5
100
AcDbArc
 50
180
 51
-90
  0
LINE
  5
B06
330
A02
100
AcDbEntity
  8
View003
100
AcDbLine
 10
173
 20
171
 30
0
 11
171
 21
171
 31
0
  0
ARC
  5
B07
330
A02
100
AcDbEntity
  8
View003
100
AcDbCircle
 10
173
 20
171.5
 30
0
 40
0.5
100
AcDbArc
 50
-90
 51
0
  0
LINE
  5
B08
330
A02
100
AcDbEntity
  8
View003
100
AcDbLine
 10
173.5
 20
200.5
 30
0
 11
173.5
 21
171.5
 31
0
  0
ARC
  5
B09
330
A02
100
AcDbEntity
  8
View003
100
AcDbCircle
 10
173
 20
200.5
 30
0
 40
0.5
100
AcDbArc
 50
0
 51
90
  0
LINE
  5
B0A
330
A02
100
AcDbEntity
  8
View003
100
AcDbLine
 10
171
 20
201
 30
0
 11
173
 21
201
 31
0
  0
LINE
  5
B0B
330
A02
100
AcDbEntity
  8
View003
100
AcDbLine
 10
165.75
 20
209.3
 30
0
 11
163
 21
209.3
 31
0
  0
LINE
  5
B0C
330
A02
100
AcDbEntity
  8
View003
100
AcDbLine
 10
165.75
 20
211
 30
0
 11
165.75
 21
209.3
 31
0
  0
LINE
  5
B0D
330
A02
100
AcDbEntity
  8
View003
100
AcDbLine
 10
163
 20
209.3
 30
0
 11
163
 21
227.5
 31
0
  0
LINE
  5
B0E
330
A02
100
AcDbEntity
  8
View003
100
AcDbLine
 10
165.75
 20
211
 30
0
 11
166.75
 21
211
 31
0
  0
LINE
  5
B0F
330
A02
100
AcDbEntity
  8
View003
100
AcDbLine
 10
163
 20
227.5
 30
0
 11
164
 21
227.5
 31
0
  0
ARC
  5
B10
330
A02
100
AcDbEntity
  8
View003
100
AcDbCircle
 10
166.75
 20
210.5
 30
0
 40
0.5
100
AcDbArc
 50
0
 51
90
  0
LINE
  5
B11
330
A02
100
AcDbEntity
  8
View003
100
AcDbLine
 10
164
 20
229
 30
0
 11
164
 21
227.5
 31
0
  0
ARC
  5
B12
330
A02
100
AcDbEntity
  8
View003
100
AcDbCircle
 10
168.75
 20
210.5
 30
0
 40
1.5
100
AcDbArc
 50
180
 51
-90
  0
ARC
  5
B13
330
A02
100
AcDbEntity
  8
View003
100
AcDbCircle
 10
172
 20
229
 30
0
 40
8
100
AcDbArc
 50
116.744
 51
180
  0
LINE
  5
B14
330
A02
100
AcDbEntity
  8
View003
100
AcDbLine
 10
168.75
 20
209
 30
0
 11
175.25
 21
209
 31
0
  0
ARC
  5
B15
330
A02
100
AcDbEntity
  8
View003
100
AcDbCircle
 10
167.5
 20
237.93
 30
0
 40
2
100
AcDbArc
 50
-63.2563
 51
0
  0
ARC
  5
B16
330
A02
100
AcDbEntity
  8
View003
100
AcDbCircle
 10
175.25
 20
210.5
 30
0
 40
1.5
100
AcDbArc
 50
-90
 51
0
  0
LINE
  5
B17
330
A02
100
AcDbEntity
  8
View003
100
AcDbLine
 10
169.5
 20
237.93
 30
0
 11
169.5
 21
245
 31
0
  0
ARC
  5
B18
330
A02
100
AcDbEntity
  8
View003
100
AcDbCircle
 10
177.25
 20
210.5
 30
0
 40
0.5
100
AcDbArc
 50
90
 51
180
  0
ARC
  5
B19
330
A02
100
AcDbEntity
  8
View003
100
AcDbCircle
 10
170.5
 20
245
 30
0
 40
1
100
AcDbArc
 50
90
 51
180
  0
LINE
  5
B1A
330
A02
100
AcDbEntity
  8
View003
100
AcDbLine
 10
177.25
 20
211
 30
0
 11
178.25
 21
211
 31
0
  0
LINE
  5
B1B
330
A02
100
AcDbEntity
  8
View003
100
AcDbLine
 10
170.5
 20
246
 30
0
 11
173.5
 21
246
 31
0
  0
LINE
  5
B1C
330
A02
100
AcDbEntity
  8
View003
100
AcDbLine
 10
178.25
 20
209.3
 30
0
 11
178.25
 21
211
 31
0
  0
ARC
  5
B1D
330
A02
100
AcDbEntity
  8
View003
100
AcDbCircle
 10
173.5
 20
245
 30
0
 40
1
100
AcDbArc
 50
0
 51
90
  0
LINE
  5
B1E
330
A02
100
AcDbEntity
  8
View003
100
AcDbLine
 10
181
 20
209.3
 30
0
 11
178.25
 21
209.3
 31
0
  0
LINE
  5
B1F
330
A02
100
AcDbEntity
  8
View003
100
AcDbLine
 10
174.5
 20
245
 30
0
 11
174.5
 21
237.93
 31
0
  0
LINE
  5
B20
330
A02
100
AcDbEntity
  8
View003
100
AcDbLine
 10
181
 20
227.5
 30
0
 11
181
 21
209.3
 31
0
  0
ARC
  5
B21
330
A02
100
AcDbEntity
  8
View003
100
AcDbCircle
 10
176.5
 20
237.93
 30
0
 40
2
100
AcDbArc
 50
180
 51
-116.744
  0
LINE
  5
B22
330
A02
100
AcDbEntity
  8
View003
100
AcDbLine
 10
180
 20
227.5
 30
0
 11
181
 21
227.5
 31
0
  0
ARC
  5
B23
330
A02
100
AcDbEntity
  8
View003
100
AcDbCircle
 10
172
 20
229
 30
0
 40
8
100
AcDbArc
 50
0
 51
63.2563
  0
LINE
  5
B24
330
A02
100
AcDbEntity
  8
View003
100
AcDbLine
 10
180
 20
227.5
 30
0
 11
180
 21
229
 31
0
  0
CIRCLE
  5
B25
330
A02
100
AcDbEntity
  8
View003
100
AcDbCircle
 10
172
 20
251
 40
1.475
  0
CIRCLE
  5
B26
330
A02
100
AcDbEntity
  8
View003
100
AcDbCircle
 10
172
 20
289
 40
1.475
  0
CIRCLE
  5
B27
330
A02
100
AcDbEntity
  8
View003
100
AcDbCircle
 10
181.5
 20
235
 40
1.475
  0
CIRCLE
  5
B28
330
A02
100
AcDbEntity
  8
View003
100
AcDbCircle
 10
184
 20
211
 40
1.475
  0
CIRCLE
  5
B29
330
A02
100
AcDbEntity
  8
View003
100
AcDbCircle
 10
185.8
 20
216
 40
1.7
  0
CIRCLE
  5
B2A
330
A02
100
AcDbEntity
  8
View003
100
AcDbCircle
 10
184
 20
221
 40
1.475
  0
CIRCLE
  5
B2B
330
A02
100
AcDbEntity
  8
View003
100
AcDbCircle
 10
172
 20
327
 40
1.475
  0
CIRCLE
  5
B2C
330
A02
100
AcDbEntity
  8
View003
100
AcDbCircle
 10
172
 20
365
 40
1.475
  0
CIRCLE
  5
B2D
330
A02
100
AcDbEntity
  8
View003
100
AcDbCircle
 10
172
 20
403
 40
1.475
  0
CIRCLE
  5
B2E
330
A02
100
AcDbEntity
  8
View003
100
AcDbCircle
 10
172
 20
441
 40
1.475
  0
CIRCLE
  5
B2F
330
A02
100
AcDbEntity
  8
View003
100
AcDbCircle
 10
172
 20
479
 40
1.475
  0
ARC
  5
B30
330
A02
100
AcDbEntity
  8
View004
100
AcDbCircle
 10
87.0611
 20
456.604
 30
0
 40
12
100
AcDbArc
 50
5.89583
 51
37.6182
  0
ARC
  5
B31
330
A02
100
AcDbEntity
  8
View004
100
AcDbCircle
 10
101.2
 20
467.5
 30
0
 40
5.85
100
AcDbArc
 50
137.236
 51
-142.382
  0
ARC
  5
B32
330
A02
100
AcDbEntity
  8
View004
100
AcDbCircle
 10
92.5002
 20
475.546
 30
0
 40
6
100
AcDbArc
 50
-42.7635
 51
-0.437747
  0
LINE
  5
B33
330
A02
100
AcDbEntity
  8
View004
100
AcDbLine
 10
98.5
 20
476.5
 30
0
 11
98.5
 21
475.5
 31
0
  0
LINE
  5
B34
330
A02
100
AcDbEntity
  8
View004
100
AcDbLine
 10
131.5
 20
476.5
 30
0
 11
98.5
 21
476.5
 31
0
  0
LINE
  5
B35
330
A02
100
AcDbEntity
  8
View004
100
AcDbLine
 10
131.5
 20
475.5
 30
0
 11
131.5
 21
476.5
 31
0
  0
ARC
  5
B36
330
A02
100
AcDbEntity
  8
View004
100
AcDbCircle
 10
137.5
 20
475.546
 30
0
 40
6
100
AcDbArc
 50
-179.562
 51
-137.236
  0
ARC
  5
B37
330
A02
100
AcDbEntity
  8
View004
100
AcDbCircle
 10
128.8
 20
467.5
 30
0
 40
5.85
100
AcDbArc
 50
-37.6182
 51
42.7635
  0
ARC
  5
B38
330
A02
100
AcDbEntity
  8
View004
100
AcDbCircle
 10
142.939
 20
456.604
 30
0
 40
12
100
AcDbArc
 50
142.382
 51
174.104
  0
ARC
  5
B39
330
A02
100
AcDbEntity
  8
View004
100
AcDbCircle
 10
37.4296
 20
467.5
 30
0
 40
94.0704
100
AcDbArc
 50
-15.4536
 51
-5.89583
  0
ARC
  5
B3A
330
A02
100
AcDbEntity
  8
View004
100
AcDbCircle
 10
124.244
 20
443.5
 30
0
 40
4
100
AcDbArc
 50
-90
 51
-15.4536
  0
LINE
  5
B3B
330
A02
100
AcDbEntity
  8
View004
100
AcDbLine
 10
124.244
 20
439.5
 30
0
 11
121.5
 21
439.5
 31
0
  0
ARC
  5
B3C
330
A02
100
AcDbEntity
  8
View004
100
AcDbCircle
 10
121.5
 20
442.5
 30
0
 40
3
100
AcDbArc
 50
180
 51
-90
  0
LINE
  5
B3D
330
A02
100
AcDbEntity
  8
View004
100
AcDbLine
 10
121.5
 20
442.5
 30
0
 11
118.5
 21
442.5
 31
0
  0
LINE
  5
B3E
330
A02
100
AcDbEntity
  8
View004
100
AcDbLine
 10
121.5
 20
442.5
 30
0
 11
121.5
 21
449
 31
0
  0
LINE
  5
B3F
330
A02
100
AcDbEntity
  8
View004
100
AcDbLine
 10
121.5
 20
449
 30
0
 11
121.135
 21
449.365
 31
0
  0
ARC
  5
B40
330
A02
100
AcDbEntity
  8
View004
100
AcDbCircle
 10
115
 20
454.5
 30
0
 40
8
100
AcDbArc
 50
-39.9291
 51
0
  0
LINE
  5
B41
330
A02
100
AcDbEntity
  8
View004
100
AcDbLine
 10
123
 20
454.5
 30
0
 11
123
 21
456
 31
0
  0
LINE
  5
B42
330
A02
100
AcDbEntity
  8
View004
100
AcDbLine
 10
124
 20
456
 30
0
 11
123
 21
456
 31
0
  0
LINE
  5
B43
330
A02
100
AcDbEntity
  8
View004
100
AcDbLine
 10
124
 20
474.2
 30
0
 11
124
 21
456
 31
0
  0
LINE
  5
B44
330
A02
100
AcDbEntity
  8
View004
100
AcDbLine
 10
121.25
 20
474.2
 30
0
 11
124
 21
474.2
 31
0
  0
LINE
  5
B45
330
A02
100
AcDbEntity
  8
View004
100
AcDbLine
 10
121.25
 20
472.5
 30
0
 11
121.25
 21
474.2
 31
0
  0
LINE
  5
B46
330
A02
100
AcDbEntity
  8
View004
100
AcDbLine
 10
121.25
 20
472.5
 30
0
 11
120.25
 21
472.5
 31
0
  0
ARC
  5
B47
330
A02
100
AcDbEntity
  8
View004
100
AcDbCircle
 10
120.25
 20
473
 30
0
 40
0.5
100
AcDbArc
 50
180
 51
-90
  0
ARC
  5
B48
330
A02
100
AcDbEntity
  8
View004
100
AcDbCircle
 10
118.25
 20
473
 30
0
 40
1.5
100
AcDbArc
 50
0
 51
90
  0
LINE
  5
B49
330
A02
100
AcDbEntity
  8
View004
100
AcDbLine
 10
118.25
 20
474.5
 30
0
 11
111.75
 21
474.5
 31
0
  0
ARC
  5
B4A
330
A02
100
AcDbEntity
  8
View004
100
AcDbCircle
 10
111.75
 20
473
 30
0
 40
1.5
100
AcDbArc
 50
90
 51
180
  0
ARC
  5
B4B
330
A02
100
AcDbEntity
  8
View004
100
AcDbCircle
 10
109.75
 20
473
 30
0
 40
0.5
100
AcDbArc
 50
-90
 51
0
  0
LINE
  5
B4C
330
A02
100
AcDbEntity
  8
View004
100
AcDbLine
 10
109.75
 20
472.5
 30
0
 11
108.75
 21
472.5
 31
0
  0
LINE
  5
B4D
330
A02
100
AcDbEntity
  8
View004
100
AcDbLine
 10
108.75
 20
474.2
 30
0
 11
108.75
 21
472.5
 31
0
  0
LINE
  5
B4E
330
A02
100
AcDbEntity
  8
View004
100
AcDbLine
 10
106
 20
474.2
 30
0
 11
108.75
 21
474.2
 31
0
  0
LINE
  5
B4F
330
A02
100
AcDbEntity
  8
View004
100
AcDbLine
 10
106
 20
456
 30
0
 11
106
 21
474.2
 31
0
  0
LINE
  5
B50
330
A02
100
AcDbEntity
  8
View004
100
AcDbLine
 10
107
 20
456
 30
0
 11
106
 21
456
 31
0
  0
LINE
  5
B51
330
A02
100
AcDbEntity
  8
View004
100
AcDbLine
 10
107
 20
456
 30
0
 11
107
 21
454.5
 31
0
  0
ARC
  5
B52
330
A02
100
AcDbEntity
  8
View004
100
AcDbCircle
 10
115
 20
454.5
 30
0
 40
8
100
AcDbArc
 50
180
 51
-140.071
  0
LINE
  5
B53
330
A02
100
AcDbEntity
  8
View004
100
AcDbLine
 10
108.865
 20
449.365
 30
0
 11
108.5
 21
449
 31
0
  0
LINE
  5
B54
330
A02
100
AcDbEntity
  8
View004
100
AcDbLine
 10
108.5
 20
449
 30
0
 11
108.5
 21
442.5
 31
0
  0
LINE
  5
B55
330
A02
100
AcDbEntity
  8
View004
100
AcDbLine
 10
111.5
 20
442.5
 30
0
 11
108.5
 21
442.5
 31
0
  0
ARC
  5
B56
330
A02
100
AcDbEntity
  8
View004
100
AcDbCircle
 10
108.5
 20
442.5
 30
0
 40
3
100
AcDbArc
 50
-90
 51
0
  0
LINE
  5
B57
330
A02
100
AcDbEntity
  8
View004
100
AcDbLine
 10
108.5
 20
439.5
 30
0
 11
105.756
 21
439.5
 31
0
  0
ARC
  5
B58
330
A02
100
AcDbEntity
  8
View004
100
AcDbCircle
 10
105.756
 20
443.5
 30
0
 40
4
100
AcDbArc
 50
-164.546
 51
-90
  0
ARC
  5
B59
330
A02
100
AcDbEntity
  8
View004
100
AcDbCircle
 10
192.57
 20
467.5
 30
0
 40
94.0704
100
AcDbArc
 50
-174.104
 51
-164.546
  0
CIRCLE
  5
B5A
330
A02
100
AcDbEntity
  8
View004
100
AcDbCircle
 10
127
 20
472.5
 40
1.475
  0
CIRCLE
  5
B5B
330
A02
100
AcDbEntity
  8
View004
100
AcDbCircle
 10
128.8
 20
467.5
 40
1.7
  0
CIRCLE
  5
B5C
330
A02
100
AcDbEntity
  8
View004
100
AcDbCircle
 10
127
 20
462.5
 40
1.475
  0
CIRCLE
  5
B5D
330
A02
100
AcDbEntity
  8
View004
100
AcDbCircle
 10
103
 20
472.5
 40
1.475
  0
CIRCLE
  5
B5E
330
A02
100
AcDbEntity
  8
View004
100
AcDbCircle
 10
101.2
 20
467.5
 40
1.7
  0
CIRCLE
  5
B5F
330
A02
100
AcDbEntity
  8
View004
100
AcDbCircle
 10
103
 20
462.5
 40
1.475
  0
CIRCLE
  5
B60
330
A02
100
AcDbEntity
  8
View004
100
AcDbCircle
 10
124.5
 20
448.5
 40
1.475
  0
CIRCLE
  5
B61
330
A02
100
AcDbEntity
  8
View004
100
AcDbCircle
 10
105.5
 20
448.5
 40
1.475
  0
ARC
  5
B62
330
A02
100
AcDbEntity
  8
View005
100
AcDbCircle
 10
143.939
 20
332.396
 30
0
 40
12
100
AcDbArc
 50
-174.104
 51
-142.382
  0
ARC
  5
B63
330
A02
100
AcDbEntity
  8
View005
100
AcDbCircle
 10
129.8
 20
321.5
 30
0
 40
5.85
100
AcDbArc
 50
-42.7635
 51
37.6182
  0
ARC
  5
B64
330
A02
100
AcDbEntity
  8
View005
100
AcDbCircle
 10
138.5
 20
313.454
 30
0
 40
6
100
AcDbArc
 50
137.236
 51
179.562
  0
LINE
  5
B65
330
A02
100
AcDbEntity
  8
View005
100
AcDbLine
 10
132.5
 20
312.5
 30
0
 11
132.5
 21
313.5
 31
0
  0
LINE
  5
B66
330
A02
100
AcDbEntity
  8
View005
100
AcDbLine
 10
99.5
 20
312.5
 30
0
 11
132.5
 21
312.5
 31
0
  0
LINE
  5
B67
330
A02
100
AcDbEntity
  8
View005
100
AcDbLine
 10
99.5
 20
313.5
 30
0
 11
99.5
 21
312.5
 31
0
  0
ARC
  5
B68
330
A02
100
AcDbEntity
  8
View005
100
AcDbCircle
 10
93.5002
 20
313.454
 30
0
 40
6
100
AcDbArc
 50
0.437747
 51
42.7635
  0
ARC
  5
B69
330
A02
100
AcDbEntity
  8
View005
100
AcDbCircle
 10
102.2
 20
321.5
 30
0
 40
5.85
100
AcDbArc
 50
142.382
 51
-137.236
  0
ARC
  5
B6A
330
A02
100
AcDbEntity
  8
View005
100
AcDbCircle
 10
88.0611
 20
332.396
 30
0
 40
12
100
AcDbArc
 50
-37.6182
 51
-5.89583
  0
ARC
  5
B6B
330
A02
100
AcDbEntity
  8
View005
100
AcDbCircle
 10
193.57
 20
321.5
 30
0
 40
94.0704
100
AcDbArc
 50
164.546
 51
174.104
  0
ARC
  5
B6C
330
A02
100
AcDbEntity
  8
View005
100
AcDbCircle
 10
106.756
 20
345.5
 30
0
 40
4
100
AcDbArc
 50
90
 51
164.546
  0
LINE
  5
B6D
330
A02
100
AcDbEntity
  8
View005
100
AcDbLine
 10
106.756
 20
349.5
 30
0
 11
109.5
 21
349.5
 31
0
  0
ARC
  5
B6E
330
A02
100
AcDbEntity
  8
View005
100
AcDbCircle
 10
109.5
 20
346.5
 30
0
 40
3
100
AcDbArc
 50
0
 51
90
  0
LINE
  5
B6F
330
A02
100
AcDbEntity
  8
View005
100
AcDbLine
 10
109.5
 20
346.5
 30
0
 11
112.5
 21
346.5
 31
0
  0
LINE
  5
B70
330
A02
100
AcDbEntity
  8
View005
100
AcDbLine
 10
109.5
 20
346.5
 30
0
 11
109.5
 21
340
 31
0
  0
LINE
  5
B71
330
A02
100
AcDbEntity
  8
View005
100
AcDbLine
 10
109.5
 20
340
 30
0
 11
110.6
 21
338.9
 31
0
  0
LINE
  5
B72
330
A02
100
AcDbEntity
  8
View005
100
AcDbLine
 10
110.6
 20
338.9
 30
0
 11
110.6
 21
333.7
 31
0
  0
LINE
  5
B73
330
A02
100
AcDbEntity
  8
View005
100
AcDbLine
 10
110.6
 20
333.7
 30
0
 11
112.1
 21
333.7
 31
0
  0
LINE
  5
B74
330
A02
100
AcDbEntity
  8
View005
100
AcDbLine
 10
112.1
 20
333.7
 30
0
 11
112.1
 21
338.9
 31
0
  0
LINE
  5
B75
330
A02
100
AcDbEntity
  8
View005
100
AcDbLine
 10
112.1
 20
338.9
 30
0
 11
115
 21
338.9
 31
0
  0
LINE
  5
B76
330
A02
100
AcDbEntity
  8
View005
100
AcDbLine
 10
115
 20
338.9
 30
0
 11
115
 21
333.7
 31
0
  0
LINE
  5
B77
330
A02
100
AcDbEntity
  8
View005
100
AcDbLine
 10
115
 20
333.7
 30
0
 11
116.4
 21
333.7
 31
0
  0
LINE
  5
B78
330
A02
100
AcDbEntity
  8
View005
100
AcDbLine
 10
116.4
 20
333.7
 30
0
 11
116.4
 21
321.5
 31
0
  0
LINE
  5
B79
330
A02
100
AcDbEntity
  8
View005
100
AcDbLine
 10
116.4
 20
321.5
 30
0
 11
122.25
 21
321.5
 31
0
  0
LINE
  5
B7A
330
A02
100
AcDbEntity
  8
View005
100
AcDbLine
 10
122.25
 20
314.8
 30
0
 11
122.25
 21
321.5
 31
0
  0
LINE
  5
B7B
330
A02
100
AcDbEntity
  8
View005
100
AcDbLine
 10
125
 20
314.8
 30
0
 11
122.25
 21
314.8
 31
0
  0
LINE
  5
B7C
330
A02
100
AcDbEntity
  8
View005
100
AcDbLine
 10
125
 20
333
 30
0
 11
125
 21
314.8
 31
0
  0
LINE
  5
B7D
330
A02
100
AcDbEntity
  8
View005
100
AcDbLine
 10
122.25
 20
333
 30
0
 11
125
 21
333
 31
0
  0
LINE
  5
B7E
330
A02
100
AcDbEntity
  8
View005
100
AcDbLine
 10
122.25
 20
333
 30
0
 11
122.25
 21
334.5
 31
0
  0
LINE
  5
B7F
330
A02
100
AcDbEntity
  8
View005
100
AcDbLine
 10
121.4
 20
334.5
 30
0
 11
122.25
 21
334.5
 31
0
  0
LINE
  5
B80
330
A02
100
AcDbEntity
  8
View005
100
AcDbLine
 10
121.4
 20
334.5
 30
0
 11
121.4
 21
338.9
 31
0
  0
LINE
  5
B81
330
A02
100
AcDbEntity
  8
View005
100
AcDbLine
 10
121.4
 20
338.9
 30
0
 11
122.5
 21
340
 31
0
  0
LINE
  5
B82
330
A02
100
AcDbEntity
  8
View005
100
AcDbLine
 10
122.5
 20
340
 30
0
 11
122.5
 21
346.5
 31
0
  0
LINE
  5
B83
330
A02
100
AcDbEntity
  8
View005
100
AcDbLine
 10
119.5
 20
346.5
 30
0
 11
122.5
 21
346.5
 31
0
  0
ARC
  5
B84
330
A02
100
AcDbEntity
  8
View005
100
AcDbCircle
 10
122.5
 20
346.5
 30
0
 40
3
100
AcDbArc
 50
90
 51
180
  0
LINE
  5
B85
330
A02
100
AcDbEntity
  8
View005
100
AcDbLine
 10
122.5
 20
349.5
 30
0
 11
125.244
 21
349.5
 31
0
  0
ARC
  5
B86
330
A02
100
AcDbEntity
  8
View005
100
AcDbCircle
 10
125.244
 20
345.5
 30
0
 40
4
100
AcDbArc
 50
15.4536
 51
90
  0
ARC
  5
B87
330
A02
100
AcDbEntity
  8
View005
100
AcDbCircle
 10
38.4296
 20
321.5
 30
0
 40
94.0704
100
AcDbArc
 50
5.89583
 51
15.4536
  0
CIRCLE
  5
B88
330
A02
100
AcDbEntity
  8
View005
100
AcDbCircle
 10
104
 20
316.5
 40
1.475
  0
CIRCLE
  5
B89
330
A02
100
AcDbEntity
  8
View005
100
AcDbCircle
 10
102.2
 20
321.5
 40
1.7
  0
CIRCLE
  5
B8A
330
A02
100
AcDbEntity
  8
View005
100
AcDbCircle
 10
104
 20
326.5
 40
1.475
  0
CIRCLE
  5
B8B
330
A02
100
AcDbEntity
  8
View005
100
AcDbCircle
 10
128
 20
316.5
 40
1.475
  0
CIRCLE
  5
B8C
330
A02
100
AcDbEntity
  8
View005
100
AcDbCircle
 10
129.8
 20
321.5
 40
1.7
  0
CIRCLE
  5
B8D
330
A02
100
AcDbEntity
  8
View005
100
AcDbCircle
 10
128
 20
326.5
 40
1.475
  0
CIRCLE
  5
B8E
330
A02
100
AcDbEntity
  8
View005
100
AcDbCircle
 10
106.5
 20
340.5
 40
1.475
  0
CIRCLE
  5
B8F
330
A02
100
AcDbEntity
  8
View005
100
AcDbCircle
 10
125.5
 20
340.5
 40
1.475
  0
ARC
  5
B90
330
A02
100
AcDbEntity
  8
View006
100
AcDbCircle
 10
90.0611
 20
242.604
 30
0
 40
12
100
AcDbArc
 50
5.89583
 51
37.6182
  0
ARC
  5
B91
330
A02
100
AcDbEntity
  8
View006
100
AcDbCircle
 10
104.2
 20
253.5
 30
0
 40
5.85
100
AcDbArc
 50
137.236
 51
-142.382
  0
ARC
  5
B92
330
A02
100
AcDbEntity
  8
View006
100
AcDbCircle
 10
95.5002
 20
261.546
 30
0
 40
6
100
AcDbArc
 50
-42.7635
 51
-0.437747
  0
LINE
  5
B93
330
A02
100
AcDbEntity
  8
View006
100
AcDbLine
 10
101.5
 20
262.5
 30
0
 11
101.5
 21
261.5
 31
0
  0
LINE
  5
B94
330
A02
100
AcDbEntity
  8
View006
100
AcDbLine
 10
111.5
 20
262.5
 30
0
 11
101.5
 21
262.5
 31
0
  0
LINE
  5
B95
330
A02
100
AcDbEntity
  8
View006
100
AcDbLine
 10
111.5
 20
256.7
 30
0
 11
111.5
 21
262.5
 31
0
  0
LINE
  5
B96
330
A02
100
AcDbEntity
  8
View006
100
AcDbLine
 10
108.5
 20
256.7
 30
0
 11
111.5
 21
256.7
 31
0
  0
LINE
  5
B97
330
A02
100
AcDbEntity
  8
View006
100
AcDbLine
 10
108.5
 20
254.3
 30
0
 11
108.5
 21
256.7
 31
0
  0
LINE
  5
B98
330
A02
100
AcDbEntity
  8
View006
100
AcDbLine
 10
111.5
 20
254.3
 30
0
 11
108.5
 21
254.3
 31
0
  0
LINE
  5
B99
330
A02
100
AcDbEntity
  8
View006
100
AcDbLine
 10
111.5
 20
247.5
 30
0
 11
111.5
 21
254.3
 31
0
  0
LINE
  5
B9A
330
A02
100
AcDbEntity
  8
View006
100
AcDbLine
 10
124.5
 20
247.5
 30
0
 11
111.5
 21
247.5
 31
0
  0
LINE
  5
B9B
330
A02
100
AcDbEntity
  8
View006
100
AcDbLine
 10
124.5
 20
254.3
 30
0
 11
124.5
 21
247.5
 31
0
  0
LINE
  5
B9C
330
A02
100
AcDbEntity
  8
View006
100
AcDbLine
 10
127.5
 20
254.3
 30
0
 11
124.5
 21
254.3
 31
0
  0
LINE
  5
B9D
330
A02
100
AcDbEntity
  8
View006
100
AcDbLine
 10
127.5
 20
256.7
 30
0
 11
127.5
 21
254.3
 31
0
  0
LINE
  5
B9E
330
A02
100
AcDbEntity
  8
View006
100
AcDbLine
 10
124.5
 20
256.7
 30
0
 11
127.5
 21
256.7
 31
0
  0
LINE
  5
B9F
330
A02
100
AcDbEntity
  8
View006
100
AcDbLine
 10
124.5
 20
262.5
 30
0
 11
124.5
 21
256.7
 31
0
  0
LINE
  5
BA0
330
A02
100
AcDbEntity
  8
View006
100
AcDbLine
 10
134.5
 20
262.5
 30
0
 11
124.5
 21
262.5
 31
0
  0
LINE
  5
BA1
330
A02
100
AcDbEntity
  8
View006
100
AcDbLine
 10
134.5
 20
261.5
 30
0
 11
134.5
 21
262.5
 31
0
  0
ARC
  5
BA2
330
A02
100
AcDbEntity
  8
View006
100
AcDbCircle
 10
140.5
 20
261.546
 30
0
 40
6
100
AcDbArc
 50
-179.562
 51
-137.236
  0
ARC
  5
BA3
330
A02
100
AcDbEntity
  8
View006
100
AcDbCircle
 10
131.8
 20
253.5
 30
0
 40
5.85
100
AcDbArc
 50
-37.6182
 51
42.7635
  0
ARC
  5
BA4
330
A02
100
AcDbEntity
  8
View006
100
AcDbCircle
 10
145.939
 20
242.604
 30
0
 40
12
100
AcDbArc
 50
142.382
 51
174.104
  0
ARC
  5
BA5
330
A02
100
AcDbEntity
  8
View006
100
AcDbCircle
 10
40.4296
 20
253.5
 30
0
 40
94.0704
100
AcDbArc
 50
-15.4536
 51
-5.89583
  0
ARC
  5
BA6
330
A02
100
AcDbEntity
  8
View006
100
AcDbCircle
 10
127.244
 20
229.5
 30
0
 40
4
100
AcDbArc
 50
-90
 51
-15.4536
  0
LINE
  5
BA7
330
A02
100
AcDbEntity
  8
View006
100
AcDbLine
 10
127.244
 20
225.5
 30
0
 11
108.756
 21
225.5
 31
0
  0
ARC
  5
BA8
330
A02
100
AcDbEntity
  8
View006
100
AcDbCircle
 10
108.756
 20
229.5
 30
0
 40
4
100
AcDbArc
 50
-164.546
 51
-90
  0
ARC
  5
BA9
330
A02
100
AcDbEntity
  8
View006
100
AcDbCircle
 10
195.57
 20
253.5
 30
0
 40
94.0704
100
AcDbArc
 50
-174.104
 51
-164.546
  0
CIRCLE
  5
BAA
330
A02
100
AcDbEntity
  8
View006
100
AcDbCircle
 10
130
 20
258.5
 40
1.475
  0
CIRCLE
  5
BAB
330
A02
100
AcDbEntity
  8
View006
100
AcDbCircle
 10
131.8
 20
253.5
 40
1.7
  0
CIRCLE
  5
BAC
330
A02
100
AcDbEntity
  8
View006
100
AcDbCircle
 10
130
 20
248.5
 40
1.475
  0
CIRCLE
  5
BAD
330
A02
100
AcDbEntity
  8
View006
100
AcDbCircle
 10
106
 20
258.5
 40
1.475
  0
CIRCLE
  5
BAE
330
A02
100
AcDbEntity
  8
View006
100
AcDbCircle
 10
104.2
 20
253.5
 40
1.7
  0
CIRCLE
  5
BAF
330
A02
100
AcDbEntity
  8
View006
100
AcDbCircle
 10
106
 20
248.5
 40
1.475
  0
CIRCLE
  5
BB0
330
A02
100
AcDbEntity
  8
View006
100
AcDbCircle
 10
127.5
 20
234.5
 40
1.475
  0
CIRCLE
  5
BB1
330
A02
100
AcDbEntity
  8
View006
100
AcDbCircle
 10
108.5
 20
234.5
 40
1.475
  0
LINE
  5
BB2
330
A02
100
AcDbEntity
  8
View007
100
AcDbLine
 10
205.675
 20
453.5
 30
0
 11
195.175
 21
453.5
 31
0
  0
LINE
  5
BB3
330
A02
100
AcDbEntity
  8
View007
100
AcDbLine
 10
205.675
 20
452.5
 30
0
 11
205.675
 21
453.5
 31
0
  0
ARC
  5
BB4
330
A02
100
AcDbEntity
  8
View007
100
AcDbCircle
 10
211.675
 20
452.546
 30
0
 40
6
100
AcDbArc
 50
-179.562
 51
-137.236
  0
ARC
  5
BB5
330
A02
100
AcDbEntity
  8
View007
100
AcDbCircle
 10
202.975
 20
444.5
 30
0
 40
5.85
100
AcDbArc
 50
-37.6182
 51
42.7635
  0
ARC
  5
BB6
330
A02
100
AcDbEntity
  8
View007
100
AcDbCircle
 10
217.114
 20
433.604
 30
0
 40
12
100
AcDbArc
 50
142.382
 51
174.104
  0
ARC
  5
BB7
330
A02
100
AcDbEntity
  8
View007
100
AcDbCircle
 10
111.605
 20
444.5
 30
0
 40
94.0704
100
AcDbArc
 50
-7.65623
 51
-5.89583
  0
ARC
  5
BB8
330
A02
100
AcDbEntity
  8
View007
100
AcDbCircle
 10
200.872
 20
432.5
 30
0
 40
4
100
AcDbArc
 50
-90
 51
-7.65623
  0
LINE
  5
BB9
330
A02
100
AcDbEntity
  8
View007
100
AcDbLine
 10
198.175
 20
428.5
 30
0
 11
200.872
 21
428.5
 31
0
  0
ARC
  5
BBA
330
A02
100
AcDbEntity
  8
View007
100
AcDbCircle
 10
198.175
 20
431.5
 30
0
 40
3
100
AcDbArc
 50
180
 51
-90
  0
LINE
  5
BBB
330
A02
100
AcDbEntity
  8
View007
100
AcDbLine
 10
195.175
 20
431.5
 30
0
 11
195.175
 21
453.5
 31
0
  0
CIRCLE
  5
BBC
330
A02
100
AcDbEntity
  8
View007
100
AcDbCircle
 10
202.975
 20
444.5
 40
1.7
  0
CIRCLE
  5
BBD
330
A02
100
AcDbEntity
  8
View007
100
AcDbCircle
 10
201.175
 20
449.5
 40
1.475
  0
CIRCLE
  5
BBE
330
A02
100
AcDbEntity
  8
View007
100
AcDbCircle
 10
201.175
 20
439.5
 40
1.475
  0
SPLINE
  5
BBF
330
A02
100
AcDbEntity
  8
View008
100
AcDbSpline
210
0
220
0
230
1
 70
8
 71
1
 72
4
 73
2
 74
0
 40
6.5
 40
6.5
 40
17
 40
17
 10
200.325
 20
401.5
 30
0
 10
210.825
 20
401.5
 30
0
  0
SPLINE
  5
BC0
330
A02
100
AcDbEntity
  8
View008
100
AcDbSpline
210
0
220
0
230
1
 70
8
 71
1
 72
4
 73
2
 74
0
 40
0
 40
0
 40
1
 40
1
 10
200.325
 20
402.5
 30
0
 10
200.325
 20
401.5
 30
0
  0
SPLINE
  5
BC1
330
A02
100
AcDbEntity
  8
View008
100
AcDbSpline
210
0
220
0
230
1
 70
8
 71
3
 72
11
 73
7
 74
0
 40
0.00764013
 40
0.00764013
 40
0.00764013
 40
0.00764013
 40
0.377002
 40
0.377002
 40
0.377002
 40
0.746364
 40
0.746364
 40
0.746364
 40
0.746364
 10
200.325
 20
402.5
 30
0
 10
200.32
 20
403.222
 30
0
 10
200.18
 20
403.968
 30
0
 10
199.904
 20
404.663
 30
0
 10
199.629
 20
405.358
 30
0
 10
199.221
 20
405.999
 30
0
 10
198.73
 20
406.528
 30
0
  0
SPLINE
  5
BC2
330
A02
100
AcDbEntity
  8
View008
100
AcDbSpline
210
0
220
0
230
1
 70
8
 71
3
 72
17
 73
13
 74
0
 40
2.48503
 40
2.48503
 40
2.48503
 40
2.48503
 40
2.83576
 40
2.83576
 40
2.83576
 40
3.18649
 40
3.18649
 40
3.18649
 40
3.53723
 40
3.53723
 40
3.53723
 40
3.88796
 40
3.88796
 40
3.88796
 40
3.88796
 10
198.391
 20
414.071
 30
0
 10
198.007
 20
413.573
 30
0
 10
197.681
 20
412.98
 30
0
 10
197.466
 20
412.323
 30
0
 10
197.25
 20
411.668
 30
0
 10
197.148
 20
410.95
 30
0
 10
197.181
 20
410.237
 30
0
 10
197.212
 20
409.524
 30
0
 10
197.378
 20
408.819
 30
0
 10
197.652
 20
408.186
 30
0
 10
197.925
 20
407.551
 30
0
 10
198.303
 20
406.989
 30
0
 10
198.73
 20
406.528
 30
0
  0
SPLINE
  5
BC3
330
A02
100
AcDbEntity
  8
View008
100
AcDbSpline
210
0
220
0
230
1
 70
8
 71
3
 72
11
 73
7
 74
0
 40
5.62662
 40
5.62662
 40
5.62662
 40
5.62662
 40
5.90345
 40
5.90345
 40
5.90345
 40
6.18028
 40
6.18028
 40
6.18028
 40
6.18028
 10
198.391
 20
414.071
 30
0
 10
199.059
 20
414.936
 30
0
 10
199.619
 20
415.912
 30
0
 10
200.031
 20
416.948
 30
0
 10
200.445
 20
417.983
 30
0
 10
200.711
 20
419.075
 30
0
 10
200.823
 20
420.163
 30
0
  0
SPLINE
  5
BC4
330
A02
100
AcDbEntity
  8
View008
100
AcDbSpline
210
0
220
0
230
1
 70
8
 71
2
 72
6
 73
3
 74
0
 40
3.00797
 40
3.00797
 40
3.00797
 40
3.03869
 40
3.03869
 40
3.03869
 10
201.164
 20
423.033
 30
0
 10
200.971
 20
421.601
 30
0
 10
200.823
 20
420.163
 30
0
  0
SPLINE
  5
BC5
330
A02
100
AcDbEntity
  8
View008
100
AcDbSpline
210
0
220
0
230
1
 70
8
 71
3
 72
17
 73
13
 74
0
 40
1.5708
 40
1.5708
 40
1.5708
 40
1.5708
 40
1.93009
 40
1.93009
 40
1.93009
 40
2.28938
 40
2.28938
 40
2.28938
 40
2.64867
 40
2.64867
 40
2.64867
 40
3.00797
 40
3.00797
 40
3.00797
 40
3.00797
 10
205.128
 20
426.5
 30
0
 10
204.689
 20
426.5
 30
0
 10
204.222
 20
426.426
 30
0
 10
203.766
 20
426.261
 30
0
 10
203.311
 20
426.097
 30
0
 10
202.871
 20
425.841
 30
0
 10
202.495
 20
425.511
 30
0
 10
202.117
 20
425.182
 30
0
 10
201.805
 20
424.78
 30
0
 10
201.582
 20
424.35
 30
0
 10
201.357
 20
423.921
 30
0
 10
201.222
 20
423.468
 30
0
 10
201.164
 20
423.033
 30
0
  0
SPLINE
  5
BC6
330
A02
100
AcDbEntity
  8
View008
100
AcDbSpline
210
0
220
0
230
1
 70
8
 71
1
 72
4
 73
2
 74
0
 40
4.5
 40
4.5
 40
7.19705
 40
7.19705
 10
207.825
 20
426.5
 30
0
 10
205.128
 20
426.5
 30
0
  0
SPLINE
  5
BC7
330
A02
100
AcDbEntity
  8
View008
100
AcDbSpline
210
0
220
0
230
1
 70
8
 71
3
 72
17
 73
13
 74
0
 40
0
 40
0
 40
0
 40
0
 40
0.392699
 40
0.392699
 40
0.392699
 40
0.785398
 40
0.785398
 40
0.785398
 40
1.1781
 40
1.1781
 40
1.1781
 40
1.5708
 40
1.5708
 40
1.5708
 40
1.5708
 10
210.825
 20
423.5
 30
0
 10
210.825
 20
423.853
 30
0
 10
210.761
 20
424.235
 30
0
 10
210.614
 20
424.604
 30
0
 10
210.469
 20
424.974
 30
0
 10
210.24
 20
425.329
 30
0
 10
209.946
 20
425.621
 30
0
 10
209.654
 20
425.915
 30
0
 10
209.299
 20
426.144
 30
0
 10
208.929
 20
426.289
 30
0
 10
208.56
 20
426.436
 30
0
 10
208.178
 20
426.5
 30
0
 10
207.825
 20
426.5
 30
0
  0
SPLINE
  5
BC8
330
A02
100
AcDbEntity
  8
View008
100
AcDbSpline
210
0
220
0
230
1
 70
8
 71
1
 72
4
 73
2
 74
0
 40
30.9557
 40
30.9557
 40
52.9557
 40
52.9557
 10
210.825
 20
423.5
 30
0
 10
210.825
 20
401.5
 30
0
  0
SPLINE
  5
BC9
330
A02
100
AcDbEntity
  8
View008
100
AcDbSpline
210
0
220
0
230
1
 70
9
 71
3
 72
41
 73
37
 74
0
 40
0
 40
0
 40
0
 40
0
 40
0.523599
 40
0.523599
 40
0.523599
 40
1.0472
 40
1.0472
 40
1.0472
 40
1.5708
 40
1.5708
 40
1.5708
 40
2.0944
 40
2.0944
 40
2.0944
 40
2.61799
 40
2.61799
 40
2.61799
 40
3.14159
 40
3.14159
 40
3.14159
 40
3.66519
 40
3.66519
 40
3.66519
 40
4.18879
 40
4.18879
 40
4.18879
 40
4.71239
 40
4.71239
 40
4.71239
 40
5.23599
 40
5.23599
 40
5.23599
 40
5.75959
 40
5.75959
 40
5.75959
 40
6.28319
 40
6.28319
 40
6.28319
 40
6.28319
 10
204.725
 20
410.5
 30
0
 10
204.725
 20
410.744
 30
0
 10
204.67
 20
411.025
 30
0
 10
204.529
 20
411.293
 30
0
 10
204.389
 20
411.56
 30
0
 10
204.16
 20
411.809
 30
0
 10
203.875
 20
411.972
 30
0
 10
203.592
 20
412.137
 30
0
 10
203.261
 20
412.212
 30
0
 10
202.96
 20
412.199
 30
0
 10
202.657
 20
412.187
 30
0
 10
202.386
 20
412.095
 30
0
 10
202.175
 20
411.972
 30
0
 10
201.963
 20
411.85
 30
0
 10
201.748
 20
411.663
 30
0
 10
201.587
 20
411.406
 30
0
 10
201.425
 20
411.152
 30
0
 10
201.324
 20
410.828
 30
0
 10
201.325
 20
410.5
 30
0
 10
201.324
 20
410.172
 30
0
 10
201.425
 20
409.848
 30
0
 10
201.587
 20
409.594
 30
0
 10
201.748
 20
409.337
 30
0
 10
201.963
 20
409.15
 30
0
 10
202.175
 20
409.028
 30
0
 10
202.386
 20
408.905
 30
0
 10
202.657
 20
408.813
 30
0
 10
202.96
 20
408.801
 30
0
 10
203.261
 20
408.788
 30
0
 10
203.592
 20
408.863
 30
0
 10
203.875
 20
409.028
 30
0
 10
204.16
 20
409.191
 30
0
 10
204.389
 20
409.44
 30
0
 10
204.529
 20
409.707
 30
0
 10
204.67
 20
409.975
 30
0
 10
204.725
 20
410.256
 30
0
 10
204.725
 20
410.5
 30
0
  0
SPLINE
  5
BCA
330
A02
100
AcDbEntity
  8
View008
100
AcDbSpline
210
0
220
0
230
1
 70
9
 71
3
 72
41
 73
37
 74
0
 40
0
 40
0
 40
0
 40
0
 40
0.523599
 40
0.523599
 40
0.523599
 40
1.0472
 40
1.0472
 40
1.0472
 40
1.5708
 40
1.5708
 40
1.5708
 40
2.0944
 40
2.0944
 40
2.0944
 40
2.61799
 40
2.61799
 40
2.61799
 40
3.14159
 40
3.14159
 40
3.14159
 40
3.66519
 40
3.66519
 40
3.66519
 40
4.18879
 40
4.18879
 40
4.18879
 40
4.71239
 40
4.71239
 40
4.71239
 40
5.23599
 40
5.23599
 40
5.23599
 40
5.75959
 40
5.75959
 40
5.75959
 40
6.28319
 40
6.28319
 40
6.28319
 40
6.28319
 10
206.3
 20
405.5
 30
0
 10
206.3
 20
405.712
 30
0
 10
206.253
 20
405.955
 30
0
 10
206.13
 20
406.188
 30
0
 10
206.009
 20
406.42
 30
0
 10
205.81
 20
406.636
 30
0
 10
205.562
 20
406.777
 30
0
 10
205.317
 20
406.921
 30
0
 10
205.03
 20
406.985
 30
0
 10
204.768
 20
406.974
 30
0
 10
204.505
 20
406.964
 30
0
 10
204.271
 20
406.884
 30
0
 10
204.088
 20
406.777
 30
0
 10
203.904
 20
406.672
 30
0
 10
203.717
 20
406.509
 30
0
 10
203.577
 20
406.286
 30
0
 10
203.436
 20
406.065
 30
0
 10
203.349
 20
405.785
 30
0
 10
203.35
 20
405.5
 30
0
 10
203.349
 20
405.215
 30
0
 10
203.436
 20
404.935
 30
0
 10
203.577
 20
404.714
 30
0
 10
203.717
 20
404.491
 30
0
 10
203.904
 20
404.328
 30
0
 10
204.088
 20
404.223
 30
0
 10
204.271
 20
404.116
 30
0
 10
204.505
 20
404.036
 30
0
 10
204.768
 20
404.026
 30
0
 10
205.03
 20
404.015
 30
0
 10
205.317
 20
404.079
 30
0
 10
205.562
 20
404.223
 30
0
 10
205.81
 20
404.364
 30
0
 10
206.009
 20
404.58
 30
0
 10
206.13
 20
404.812
 30
0
 10
206.253
 20
405.045
 30
0
 10
206.3
 20
405.288
 30
0
 10
206.3
 20
405.5
 30
0
  0
SPLINE
  5
BCB
330
A02
100
AcDbEntity
  8
View008
100
AcDbSpline
210
0
220
0
230
1
 70
9
 71
3
 72
41
 73
37
 74
0
 40
0
 40
0
 40
0
 40
0
 40
0.523599
 40
0.523599
 40
0.523599
 40
1.0472
 40
1.0472
 40
1.0472
 40
1.5708
 40
1.5708
 40
1.5708
 40
2.0944
 40
2.0944
 40
2.0944
 40
2.61799
 40
2.61799
 40
2.61799
 40
3.14159
 40
3.14159
 40
3.14159
 40
3.66519
 40
3.66519
 40
3.66519
 40
4.18879
 40
4.18879
 40
4.18879
 40
4.71239
 40
4.71239
 40
4.71239
 40
5.23599
 40
5.23599
 40
5.23599
 40
5.75959
 40
5.75959
 40
5.75959
 40
6.28319
 40
6.28319
 40
6.28319
 40
6.28319
 10
206.3
 20
415.5
 30
0
 10
206.3
 20
415.712
 30
0
 10
206.253
 20
415.955
 30
0
 10
206.13
 20
416.188
 30
0
 10
206.009
 20
416.42
 30
0
 10
205.81
 20
416.636
 30
0
 10
205.563
 20
416.777
 30
0
 10
205.317
 20
416.921
 30
0
 10
205.03
 20
416.985
 30
0
 10
204.768
 20
416.974
 30
0
 10
204.505
 20
416.964
 30
0
 10
204.271
 20
416.884
 30
0
 10
204.088
 20
416.777
 30
0
 10
203.904
 20
416.672
 30
0
 10
203.717
 20
416.509
 30
0
 10
203.577
 20
416.286
 30
0
 10
203.436
 20
416.065
 30
0
 10
203.349
 20
415.785
 30
0
 10
203.35
 20
415.5
 30
0
 10
203.349
 20
415.215
 30
0
 10
203.436
 20
414.935
 30
0
 10
203.577
 20
414.714
 30
0
 10
203.717
 20
414.491
 30
0
 10
203.904
 20
414.328
 30
0
 10
204.088
 20
414.223
 30
0
 10
204.271
 20
414.116
 30
0
 10
204.505
 20
414.036
 30
0
 10
204.768
 20
414.026
 30
0
 10
205.03
 20
414.015
 30
0
 10
205.317
 20
414.079
 30
0
 10
205.563
 20
414.223
 30
0
 10
205.81
 20
414.364
 30
0
 10
206.009
 20
414.58
 30
0
 10
206.13
 20
414.812
 30
0
 10
206.253
 20
415.045
 30
0
 10
206.3
 20
415.288
 30
0
 10
206.3
 20
415.5
 30
0
  0
LINE
  5
BCC
330
A02
100
AcDbEntity
  8
View009
100
AcDbLine
 10
191.825
 20
280.5
 30
0
 11
186.324
 21
280.5
 31
0
  0
ARC
  5
BCD
330
A02
100
AcDbEntity
  8
View009
100
AcDbCircle
 10
191.825
 20
278.5
 30
0
 40
2
100
AcDbArc
 50
0
 51
90
  0
ARC
  5
BCE
330
A02
100
AcDbEntity
  8
View009
100
AcDbCircle
 10
186.324
 20
276.5
 30
0
 40
4
100
AcDbArc
 50
90
 51
154.471
  0
LINE
  5
BCF
330
A02
100
AcDbEntity
  8
View009
100
AcDbLine
 10
193.825
 20
278.5
 30
0
 11
193.825
 21
263.5
 31
0
  0
ARC
  5
BD0
330
A02
100
AcDbEntity
  8
View009
100
AcDbCircle
 10
171.886
 20
283.396
 30
0
 40
12
100
AcDbArc
 50
-37.6182
 51
-25.5293
  0
LINE
  5
BD1
330
A02
100
AcDbEntity
  8
View009
100
AcDbLine
 10
183.325
 20
263.5
 30
0
 11
193.825
 21
263.5
 31
0
  0
ARC
  5
BD2
330
A02
100
AcDbEntity
  8
View009
100
AcDbCircle
 10
186.025
 20
272.5
 30
0
 40
5.85
100
AcDbArc
 50
142.382
 51
-137.236
  0
LINE
  5
BD3
330
A02
100
AcDbEntity
  8
View009
100
AcDbLine
 10
183.325
 20
264.5
 30
0
 11
183.325
 21
263.5
 31
0
  0
ARC
  5
BD4
330
A02
100
AcDbEntity
  8
View009
100
AcDbCircle
 10
177.325
 20
264.454
 30
0
 40
6
100
AcDbArc
 50
0.437747
 51
42.7635
  0
CIRCLE
  5
BD5
330
A02
100
AcDbEntity
  8
View009
100
AcDbCircle
 10
187.825
 20
267.5
 40
1.475
  0
CIRCLE
  5
BD6
330
A02
100
AcDbEntity
  8
View009
100
AcDbCircle
 10
186.025
 20
272.5
 40
1.7
  0
CIRCLE
  5
BD7
330
A02
100
AcDbEntity
  8
View009
100
AcDbCircle
 10
187.825
 20
277.5
 40
1.475
  0
SPLINE
  5
BD8
330
A02
100
AcDbEntity
  8
View010
100
AcDbSpline
210
0
220
0
230
1
 70
8
 71
1
 72
4
 73
2
 74
0
 40
8
 40
8
 40
13.5011
 40
13.5011
 10
193.825
 20
262.5
 30
0
 10
188.324
 20
262.5
 30
0
  0
SPLINE
  5
BD9
330
A02
100
AcDbEntity
  8
View010
100
AcDbSpline
210
0
220
0
230
1
 70
8
 71
3
 72
17
 73
13
 74
0
 40
0
 40
0
 40
0
 40
0
 40
0.392699
 40
0.392699
 40
0.392699
 40
0.785398
 40
0.785398
 40
0.785398
 40
1.1781
 40
1.1781
 40
1.1781
 40
1.5708
 40
1.5708
 40
1.5708
 40
1.5708
 10
193.825
 20
262.5
 30
0
 10
194.06
 20
262.5
 30
0
 10
194.315
 20
262.457
 30
0
 10
194.561
 20
262.36
 30
0
 10
194.807
 20
262.263
 30
0
 10
195.044
 20
262.11
 30
0
 10
195.239
 20
261.914
 30
0
 10
195.435
 20
261.719
 30
0
 10
195.588
 20
261.482
 30
0
 10
195.685
 20
261.236
 30
0
 10
195.782
 20
260.99
 30
0
 10
195.825
 20
260.735
 30
0
 10
195.825
 20
260.5
 30
0
  0
SPLINE
  5
BDA
330
A02
100
AcDbEntity
  8
View010
100
AcDbSpline
210
0
220
0
230
1
 70
8
 71
3
 72
11
 73
7
 74
0
 40
1.5708
 40
1.5708
 40
1.5708
 40
1.5708
 40
2.13341
 40
2.13341
 40
2.13341
 40
2.69602
 40
2.69602
 40
2.69602
 40
2.69602
 10
188.324
 20
262.5
 30
0
 10
187.614
 20
262.503
 30
0
 10
186.842
 20
262.298
 30
0
 10
186.19
 20
261.883
 30
0
 10
185.535
 20
261.474
 30
0
 10
185.017
 20
260.866
 30
0
 10
184.714
 20
260.224
 30
0
  0
SPLINE
  5
BDB
330
A02
100
AcDbEntity
  8
View010
100
AcDbSpline
210
0
220
0
230
1
 70
8
 71
1
 72
4
 73
2
 74
0
 40
37.9557
 40
37.9557
 40
52.9557
 40
52.9557
 10
195.825
 20
260.5
 30
0
 10
195.825
 20
245.5
 30
0
  0
SPLINE
  5
BDC
330
A02
100
AcDbEntity
  8
View010
100
AcDbSpline
210
0
220
0
230
1
 70
8
 71
3
 72
8
 73
4
 74
0
 40
5.62662
 40
5.62662
 40
5.62662
 40
5.62662
 40
5.83761
 40
5.83761
 40
5.83761
 40
5.83761
 10
183.391
 20
258.071
 30
0
 10
183.906
 20
258.738
 30
0
 10
184.352
 20
259.464
 30
0
 10
184.714
 20
260.224
 30
0
  0
SPLINE
  5
BDD
330
A02
100
AcDbEntity
  8
View010
100
AcDbSpline
210
0
220
0
230
1
 70
8
 71
1
 72
4
 73
2
 74
0
 40
6.5
 40
6.5
 40
17
 40
17
 10
185.325
 20
245.5
 30
0
 10
195.825
 20
245.5
 30
0
  0
SPLINE
  5
BDE
330
A02
100
AcDbEntity
  8
View010
100
AcDbSpline
210
0
220
0
230
1
 70
8
 71
3
 72
17
 73
13
 74
0
 40
2.48503
 40
2.48503
 40
2.48503
 40
2.48503
 40
2.83576
 40
2.83576
 40
2.83576
 40
3.18649
 40
3.18649
 40
3.18649
 40
3.53723
 40
3.53723
 40
3.53723
 40
3.88796
 40
3.88796
 40
3.88796
 40
3.88796
 10
183.391
 20
258.071
 30
0
 10
183.007
 20
257.573
 30
0
 10
182.681
 20
256.98
 30
0
 10
182.466
 20
256.323
 30
0
 10
182.25
 20
255.668
 30
0
 10
182.148
 20
254.95
 30
0
 10
182.181
 20
254.237
 30
0
 10
182.212
 20
253.524
 30
0
 10
182.378
 20
252.819
 30
0
 10
182.652
 20
252.186
 30
0
 10
182.925
 20
251.551
 30
0
 10
183.303
 20
250.989
 30
0
 10
183.73
 20
250.528
 30
0
  0
SPLINE
  5
BDF
330
A02
100
AcDbEntity
  8
View010
100
AcDbSpline
210
0
220
0
230
1
 70
8
 71
1
 72
4
 73
2
 74
0
 40
0
 40
0
 40
1
 40
1
 10
185.325
 20
246.5
 30
0
 10
185.325
 20
245.5
 30
0
  0
SPLINE
  5
BE0
330
A02
100
AcDbEntity
  8
View010
100
AcDbSpline
210
0
220
0
230
1
 70
8
 71
3
 72
11
 73
7
 74
0
 40
0.00764013
 40
0.00764013
 40
0.00764013
 40
0.00764013
 40
0.377002
 40
0.377002
 40
0.377002
 40
0.746364
 40
0.746364
 40
0.746364
 40
0.746364
 10
185.325
 20
246.5
 30
0
 10
185.32
 20
247.222
 30
0
 10
185.18
 20
247.968
 30
0
 10
184.904
 20
248.663
 30
0
 10
184.629
 20
249.358
 30
0
 10
184.221
 20
249.999
 30
0
 10
183.73
 20
250.528
 30
0
  0
SPLINE
  5
BE1
330
A02
100
AcDbEntity
  8
View010
100
AcDbSpline
210
0
220
0
230
1
 70
9
 71
3
 72
41
 73
37
 74
0
 40
0
 40
0
 40
0
 40
0
 40
0.523599
 40
0.523599
 40
0.523599
 40
1.0472
 40
1.0472
 40
1.0472
 40
1.5708
 40
1.5708
 40
1.5708
 40
2.0944
 40
2.0944
 40
2.0944
 40
2.61799
 40
2.61799
 40
2.61799
 40
3.14159
 40
3.14159
 40
3.14159
 40
3.66519
 40
3.66519
 40
3.66519
 40
4.18879
 40
4.18879
 40
4.18879
 40
4.71239
 40
4.71239
 40
4.71239
 40
5.23599
 40
5.23599
 40
5.23599
 40
5.75959
 40
5.75959
 40
5.75959
 40
6.28319
 40
6.28319
 40
6.28319
 40
6.28319
 10
191.3
 20
249.5
 30
0
 10
191.3
 20
249.712
 30
0
 10
191.253
 20
249.955
 30
0
 10
191.13
 20
250.188
 30
0
 10
191.009
 20
250.42
 30
0
 10
190.81
 20
250.636
 30
0
 10
190.562
 20
250.777
 30
0
 10
190.317
 20
250.921
 30
0
 10
190.03
 20
250.985
 30
0
 10
189.768
 20
250.974
 30
0
 10
189.505
 20
250.964
 30
0
 10
189.271
 20
250.884
 30
0
 10
189.088
 20
250.777
 30
0
 10
188.904
 20
250.672
 30
0
 10
188.717
 20
250.509
 30
0
 10
188.577
 20
250.286
 30
0
 10
188.436
 20
250.065
 30
0
 10
188.349
 20
249.785
 30
0
 10
188.35
 20
249.5
 30
0
 10
188.349
 20
249.215
 30
0
 10
188.436
 20
248.935
 30
0
 10
188.577
 20
248.714
 30
0
 10
188.717
 20
248.491
 30
0
 10
188.904
 20
248.328
 30
0
 10
189.088
 20
248.223
 30
0
 10
189.271
 20
248.116
 30
0
 10
189.505
 20
248.036
 30
0
 10
189.768
 20
248.026
 30
0
 10
190.03
 20
248.015
 30
0
 10
190.317
 20
248.079
 30
0
 10
190.562
 20
248.223
 30
0
 10
190.81
 20
248.364
 30
0
 10
191.009
 20
248.58
 30
0
 10
191.13
 20
248.812
 30
0
 10
191.253
 20
249.045
 30
0
 10
191.3
 20
249.288
 30
0
 10
191.3
 20
249.5
 30
0
  0
SPLINE
  5
BE2
330
A02
100
AcDbEntity
  8
View010
100
AcDbSpline
210
0
220
0
230
1
 70
9
 71
3
 72
41
 73
37
 74
0
 40
0
 40
0
 40
0
 40
0
 40
0.523599
 40
0.523599
 40
0.523599
 40
1.0472
 40
1.0472
 40
1.0472
 40
1.5708
 40
1.5708
 40
1.5708
 40
2.0944
 40
2.0944
 40
2.0944
 40
2.61799
 40
2.61799
 40
2.61799
 40
3.14159
 40
3.14159
 40
3.14159
 40
3.66519
 40
3.66519
 40
3.66519
 40
4.18879
 40
4.18879
 40
4.18879
 40
4.71239
 40
4.71239
 40
4.71239
 40
5.23599
 40
5.23599
 40
5.23599
 40
5.75959
 40
5.75959
 40
5.75959
 40
6.28319
 40
6.28319
 40
6.28319
 40
6.28319
 10
189.725
 20
254.5
 30
0
 10
189.725
 20
254.744
 30
0
 10
189.67
 20
255.025
 30
0
 10
189.529
 20
255.293
 30
0
 10
189.389
 20
255.56
 30
0
 10
189.16
 20
255.809
 30
0
 10
188.875
 20
255.972
 30
0
 10
188.592
 20
256.137
 30
0
 10
188.261
 20
256.212
 30
0
 10
187.96
 20
256.199
 30
0
 10
187.657
 20
256.187
 30
0
 10
187.386
 20
256.095
 30
0
 10
187.175
 20
255.972
 30
0
 10
186.963
 20
255.85
 30
0
 10
186.748
 20
255.663
 30
0
 10
186.587
 20
255.406
 30
0
 10
186.425
 20
255.152
 30
0
 10
186.324
 20
254.828
 30
0
 10
186.325
 20
254.5
 30
0
 10
186.324
 20
254.172
 30
0
 10
186.425
 20
253.848
 30
0
 10
186.587
 20
253.594
 30
0
 10
186.748
 20
253.337
 30
0
 10
186.963
 20
253.15
 30
0
 10
187.175
 20
253.028
 30
0
 10
187.386
 20
252.905
 30
0
 10
187.657
 20
252.813
 30
0
 10
187.96
 20
252.801
 30
0
 10
188.261
 20
252.788
 30
0
 10
188.592
 20
252.863
 30
0
 10
188.875
 20
253.028
 30
0
 10
189.16
 20
253.191
 30
0
 10
189.389
 20
253.44
 30
0
 10
189.529
 20
253.707
 30
0
 10
189.67
 20
253.975
 30
0
 10
189.725
 20
254.256
 30
0
 10
189.725
 20
254.5
 30
0
  0
SPLINE
  5
BE3
330
A02
100
AcDbEntity
  8
View010
100
AcDbSpline
210
0
220
0
230
1
 70
9
 71
3
 72
41
 73
37
 74
0
 40
0
 40
0
 40
0
 40
0
 40
0.523599
 40
0.523599
 40
0.523599
 40
1.0472
 40
1.0472
 40
1.0472
 40
1.5708
 40
1.5708
 40
1.5708
 40
2.0944
 40
2.0944
 40
2.0944
 40
2.61799
 40
2.61799
 40
2.61799
 40
3.14159
 40
3.14159
 40
3.14159
 40
3.66519
 40
3.66519
 40
3.66519
 40
4.18879
 40
4.18879
 40
4.18879
 40
4.71239
 40
4.71239
 40
4.71239
 40
5.23599
 40
5.23599
 40
5.23599
 40
5.75959
 40
5.75959
 40
5.75959
 40
6.28319
 40
6.28319
 40
6.28319
 40
6.28319
 10
191.3
 20
259.5
 30
0
 10
191.3
 20
259.712
 30
0
 10
191.253
 20
259.955
 30
0
 10
191.13
 20
260.188
 30
0
 10
191.009
 20
260.42
 30
0
 10
190.81
 20
260.636
 30
0
 10
190.563
 20
260.777
 30
0
 10
190.317
 20
260.921
 30
0
 10
190.03
 20
260.985
 30
0
 10
189.768
 20
260.974
 30
0
 10
189.505
 20
260.964
 30
0
 10
189.271
 20
260.884
 30
0
 10
189.088
 20
260.777
 30
0
 10
188.904
 20
260.672
 30
0
 10
188.717
 20
260.509
 30
0
 10
188.577
 20
260.286
 30
0
 10
188.436
 20
260.065
 30
0
 10
188.349
 20
259.785
 30
0
 10
188.35
 20
259.5
 30
0
 10
188.349
 20
259.215
 30
0
 10
188.436
 20
258.935
 30
0
 10
188.577
 20
258.714
 30
0
 10
188.717
 20
258.491
 30
0
 10
188.904
 20
258.328
 30
0
 10
189.088
 20
258.223
 30
0
 10
189.271
 20
258.116
 30
0
 10
189.505
 20
258.036
 30
0
 10
189.768
 20
258.026
 30
0
 10
190.03
 20
258.015
 30
0
 10
190.317
 20
258.079
 30
0
 10
190.563
 20
258.223
 30
0
 10
190.81
 20
258.364
 30
0
 10
191.009
 20
258.58
 30
0
 10
191.13
 20
258.812
 30
0
 10
191.253
 20
259.045
 30
0
 10
191.3
 20
259.288
 30
0
 10
191.3
 20
259.5
 30
0
  0
ARC
  5
BE4
330
A02
100
AcDbEntity
  8
View011
100
AcDbCircle
 10
142.939
 20
497.396
 30
0
 40
12
100
AcDbArc
 50
-154.471
 51
-142.382
  0
ARC
  5
BE5
330
A02
100
AcDbEntity
  8
View011
100
AcDbCircle
 10
128.501
 20
490.5
 30
0
 40
4
100
AcDbArc
 50
25.5293
 51
90
  0
ARC
  5
BE6
330
A02
100
AcDbEntity
  8
View011
100
AcDbCircle
 10
128.8
 20
486.5
 30
0
 40
5.85
100
AcDbArc
 50
-42.7635
 51
37.6182
  0
LINE
  5
BE7
330
A02
100
AcDbEntity
  8
View011
100
AcDbLine
 10
101.499
 20
494.5
 30
0
 11
128.501
 21
494.5
 31
0
  0
ARC
  5
BE8
330
A02
100
AcDbEntity
  8
View011
100
AcDbCircle
 10
137.5
 20
478.454
 30
0
 40
6
100
AcDbArc
 50
137.236
 51
179.562
  0
ARC
  5
BE9
330
A02
100
AcDbEntity
  8
View011
100
AcDbCircle
 10
101.499
 20
490.5
 30
0
 40
4
100
AcDbArc
 50
90
 51
154.471
  0
LINE
  5
BEA
330
A02
100
AcDbEntity
  8
View011
100
AcDbLine
 10
131.5
 20
477.5
 30
0
 11
131.5
 21
478.5
 31
0
  0
ARC
  5
BEB
330
A02
100
AcDbEntity
  8
View011
100
AcDbCircle
 10
87.0611
 20
497.396
 30
0
 40
12
100
AcDbArc
 50
-37.6182
 51
-25.5293
  0
LINE
  5
BEC
330
A02
100
AcDbEntity
  8
View011
100
AcDbLine
 10
98.5
 20
477.5
 30
0
 11
131.5
 21
477.5
 31
0
  0
ARC
  5
BED
330
A02
100
AcDbEntity
  8
View011
100
AcDbCircle
 10
101.2
 20
486.5
 30
0
 40
5.85
100
AcDbArc
 50
142.382
 51
-137.236
  0
LINE
  5
BEE
330
A02
100
AcDbEntity
  8
View011
100
AcDbLine
 10
98.5
 20
478.5
 30
0
 11
98.5
 21
477.5
 31
0
  0
ARC
  5
BEF
330
A02
100
AcDbEntity
  8
View011
100
AcDbCircle
 10
92.5002
 20
478.454
 30
0
 40
6
100
AcDbArc
 50
0.437747
 51
42.7635
  0
CIRCLE
  5
BF0
330
A02
100
AcDbEntity
  8
View011
100
AcDbCircle
 10
103
 20
481.5
 40
1.475
  0
CIRCLE
  5
BF1
330
A02
100
AcDbEntity
  8
View011
100
AcDbCircle
 10
127
 20
481.5
 40
1.475
  0
LINE
  5
BF2
330
A02
100
AcDbEntity
  8
View011
100
AcDbLine
 10
104
 20
484.883
 30
0
 11
104
 21
488.117
 31
0
  0
LINE
  5
BF3
330
A02
100
AcDbEntity
  8
View011
100
AcDbLine
 10
104
 20
488.117
 30
0
 11
101.2
 21
489.733
 31
0
  0
LINE
  5
BF4
330
A02
100
AcDbEntity
  8
View011
100
AcDbLine
 10
101.2
 20
489.733
 30
0
 11
98.4
 21
488.117
 31
0
  0
LINE
  5
BF5
330
A02
100
AcDbEntity
  8
View011
100
AcDbLine
 10
98.4
 20
488.117
 30
0
 11
98.4
 21
484.883
 31
0
  0
LINE
  5
BF6
330
A02
100
AcDbEntity
  8
View011
100
AcDbLine
 10
98.4
 20
484.883
 30
0
 11
101.2
 21
483.267
 31
0
  0
LINE
  5
BF7
330
A02
100
AcDbEntity
  8
View011
100
AcDbLine
 10
101.2
 20
483.267
 30
0
 11
104
 21
484.883
 31
0
  0
CIRCLE
  5
BF8
330
A02
100
AcDbEntity
  8
View011
100
AcDbCircle
 10
103
 20
491.5
 40
1.475
  0
LINE
  5
BF9
330
A02
100
AcDbEntity
  8
View011
100
AcDbLine
 10
131.6
 20
484.883
 30
0
 11
131.6
 21
488.117
 31
0
  0
LINE
  5
BFA
330
A02
100
AcDbEntity
  8
View011
100
AcDbLine
 10
131.6
 20
488.117
 30
0
 11
128.8
 21
489.733
 31
0
  0
LINE
  5
BFB
330
A02
100
AcDbEntity
  8
View011
100
AcDbLine
 10
128.8
 20
489.733
 30
0
 11
126
 21
488.117
 31
0
  0
LINE
  5
BFC
330
A02
100
AcDbEntity
  8
View011
100
AcDbLine
 10
126
 20
488.117
 30
0
 11
126
 21
484.883
 31
0
  0
LINE
  5
BFD
330
A02
100
AcDbEntity
  8
View011
100
AcDbLine
 10
126
 20
484.883
 30
0
 11
128.8
 21
483.267
 31
0
  0
LINE
  5
BFE
330
A02
100
AcDbEntity
  8
View011
100
AcDbLine
 10
128.8
 20
483.267
 30
0
 11
131.6
 21
484.883
 31
0
  0
CIRCLE
  5
BFF
330
A02
100
AcDbEntity
  8
View011
100
AcDbCircle
 10
127
 20
491.5
 40
1.475
  0
ARC
  5
C00
330
A02
100
AcDbEntity
  8
View012
100
AcDbCircle
 10
145.939
 20
226.396
 30
0
 40
12
100
AcDbArc
 50
-154.471
 51
-142.382
  0
ARC
  5
C01
330
A02
100
AcDbEntity
  8
View012
100
AcDbCircle
 10
131.501
 20
219.5
 30
0
 40
4
100
AcDbArc
 50
25.5293
 51
90
  0
ARC
  5
C02
330
A02
100
AcDbEntity
  8
View012
100
AcDbCircle
 10
131.8
 20
215.5
 30
0
 40
5.85
100
AcDbArc
 50
-42.7635
 51
37.6182
  0
LINE
  5
C03
330
A02
100
AcDbEntity
  8
View012
100
AcDbLine
 10
104.499
 20
223.5
 30
0
 11
131.501
 21
223.5
 31
0
  0
ARC
  5
C04
330
A02
100
AcDbEntity
  8
View012
100
AcDbCircle
 10
140.5
 20
207.454
 30
0
 40
6
100
AcDbArc
 50
137.236
 51
179.562
  0
ARC
  5
C05
330
A02
100
AcDbEntity
  8
View012
100
AcDbCircle
 10
104.499
 20
219.5
 30
0
 40
4
100
AcDbArc
 50
90
 51
154.471
  0
LINE
  5
C06
330
A02
100
AcDbEntity
  8
View012
100
AcDbLine
 10
134.5
 20
196
 30
0
 11
134.5
 21
207.5
 31
0
  0
ARC
  5
C07
330
A02
100
AcDbEntity
  8
View012
100
AcDbCircle
 10
90.0611
 20
226.396
 30
0
 40
12
100
AcDbArc
 50
-37.6182
 51
-25.5293
  0
LINE
  5
C08
330
A02
100
AcDbEntity
  8
View012
100
AcDbLine
 10
134.3
 20
196
 30
0
 11
134.5
 21
196
 31
0
  0
ARC
  5
C09
330
A02
100
AcDbEntity
  8
View012
100
AcDbCircle
 10
104.2
 20
215.5
 30
0
 40
5.85
100
AcDbArc
 50
142.382
 51
-137.236
  0
LINE
  5
C0A
330
A02
100
AcDbEntity
  8
View012
100
AcDbLine
 10
134.3
 20
196
 30
0
 11
130.7
 21
196
 31
0
  0
ARC
  5
C0B
330
A02
100
AcDbEntity
  8
View012
100
AcDbCircle
 10
95.5002
 20
207.454
 30
0
 40
6
100
AcDbArc
 50
0.437747
 51
42.7635
  0
LINE
  5
C0C
330
A02
100
AcDbEntity
  8
View012
100
AcDbLine
 10
130.7
 20
196
 30
0
 11
130.5
 21
196
 31
0
  0
LINE
  5
C0D
330
A02
100
AcDbEntity
  8
View012
100
AcDbLine
 10
101.5
 20
207.5
 30
0
 11
101.5
 21
196
 31
0
  0
LINE
  5
C0E
330
A02
100
AcDbEntity
  8
View012
100
AcDbLine
 10
130.5
 20
196
 30
0
 11
130.5
 21
195.8
 31
0
  0
LINE
  5
C0F
330
A02
100
AcDbEntity
  8
View012
100
AcDbLine
 10
101.7
 20
196
 30
0
 11
101.5
 21
196
 31
0
  0
LINE
  5
C10
330
A02
100
AcDbEntity
  8
View012
100
AcDbLine
 10
130.5
 20
195.8
 30
0
 11
130.5
 21
179
 31
0
  0
LINE
  5
C11
330
A02
100
AcDbEntity
  8
View012
100
AcDbLine
 10
101.7
 20
196
 30
0
 11
105.3
 21
196
 31
0
  0
LINE
  5
C12
330
A02
100
AcDbEntity
  8
View012
100
AcDbLine
 10
130.7
 20
179
 30
0
 11
130.5
 21
179
 31
0
  0
LINE
  5
C13
330
A02
100
AcDbEntity
  8
View012
100
AcDbLine
 10
105.3
 20
196
 30
0
 11
105.5
 21
196
 31
0
  0
LINE
  5
C14
330
A02
100
AcDbEntity
  8
View012
100
AcDbLine
 10
130.7
 20
179
 30
0
 11
134.3
 21
179
 31
0
  0
LINE
  5
C15
330
A02
100
AcDbEntity
  8
View012
100
AcDbLine
 10
105.5
 20
196
 30
0
 11
105.5
 21
195.8
 31
0
  0
LINE
  5
C16
330
A02
100
AcDbEntity
  8
View012
100
AcDbLine
 10
134.5
 20
179
 30
0
 11
134.3
 21
179
 31
0
  0
LINE
  5
C17
330
A02
100
AcDbEntity
  8
View012
100
AcDbLine
 10
105.5
 20
195.8
 30
0
 11
105.5
 21
179
 31
0
  0
LINE
  5
C18
330
A02
100
AcDbEntity
  8
View012
100
AcDbLine
 10
134.5
 20
162
 30
0
 11
134.5
 21
179
 31
0
  0
LINE
  5
C19
330
A02
100
AcDbEntity
  8
View012
100
AcDbLine
 10
105.3
 20
179
 30
0
 11
105.5
 21
179
 31
0
  0
LINE
  5
C1A
330
A02
100
AcDbEntity
  8
View012
100
AcDbLine
 10
134.3
 20
162
 30
0
 11
134.5
 21
162
 31
0
  0
LINE
  5
C1B
330
A02
100
AcDbEntity
  8
View012
100
AcDbLine
 10
105.3
 20
179
 30
0
 11
101.7
 21
179
 31
0
  0
LINE
  5
C1C
330
A02
100
AcDbEntity
  8
View012
100
AcDbLine
 10
134.3
 20
162
 30
0
 11
130.7
 21
162
 31
0
  0
LINE
  5
C1D
330
A02
100
AcDbEntity
  8
View012
100
AcDbLine
 10
101.5
 20
179
 30
0
 11
101.7
 21
179
 31
0
  0
LINE
  5
C1E
330
A02
100
AcDbEntity
  8
View012
100
AcDbLine
 10
130.7
 20
162
 30
0
 11
130.5
 21
162
 31
0
  0
LINE
  5
C1F
330
A02
100
AcDbEntity
  8
View012
100
AcDbLine
 10
101.5
 20
179
 30
0
 11
101.5
 21
162
 31
0
  0
LINE
  5
C20
330
A02
100
AcDbEntity
  8
View012
100
AcDbLine
 10
130.5
 20
162
 30
0
 11
130.5
 21
161.8
 31
0
  0
LINE
  5
C21
330
A02
100
AcDbEntity
  8
View012
100
AcDbLine
 10
101.7
 20
162
 30
0
 11
101.5
 21
162
 31
0
  0
LINE
  5
C22
330
A02
100
AcDbEntity
  8
View012
100
AcDbLine
 10
130.5
 20
161.8
 30
0
 11
130.5
 21
145
 31
0
  0
LINE
  5
C23
330
A02
100
AcDbEntity
  8
View012
100
AcDbLine
 10
101.7
 20
162
 30
0
 11
105.3
 21
162
 31
0
  0
LINE
  5
C24
330
A02
100
AcDbEntity
  8
View012
100
AcDbLine
 10
130.7
 20
145
 30
0
 11
130.5
 21
145
 31
0
  0
LINE
  5
C25
330
A02
100
AcDbEntity
  8
View012
100
AcDbLine
 10
105.3
 20
162
 30
0
 11
105.5
 21
162
 31
0
  0
LINE
  5
C26
330
A02
100
AcDbEntity
  8
View012
100
AcDbLine
 10
130.7
 20
145
 30
0
 11
134.3
 21
145
 31
0
  0
LINE
  5
C27
330
A02
100
AcDbEntity
  8
View012
100
AcDbLine
 10
105.5
 20
162
 30
0
 11
105.5
 21
161.8
 31
0
  0
LINE
  5
C28
330
A02
100
AcDbEntity
  8
View012
100
AcDbLine
 10
134.5
 20
145
 30
0
 11
134.3
 21
145
 31
0
  0
LINE
  5
C29
330
A02
100
AcDbEntity
  8
View012
100
AcDbLine
 10
105.5
 20
161.8
 30
0
 11
105.5
 21
145
 31
0
  0
LINE
  5
C2A
330
A02
100
AcDbEntity
  8
View012
100
AcDbLine
 10
134.5
 20
128
 30
0
 11
134.5
 21
145
 31
0
  0
LINE
  5
C2B
330
A02
100
AcDbEntity
  8
View012
100
AcDbLine
 10
105.3
 20
145
 30
0
 11
105.5
 21
145
 31
0
  0
LINE
  5
C2C
330
A02
100
AcDbEntity
  8
View012
100
AcDbLine
 10
134.3
 20
128
 30
0
 11
134.5
 21
128
 31
0
  0
LINE
  5
C2D
330
A02
100
AcDbEntity
  8
View012
100
AcDbLine
 10
105.3
 20
145
 30
0
 11
101.7
 21
145
 31
0
  0
LINE
  5
C2E
330
A02
100
AcDbEntity
  8
View012
100
AcDbLine
 10
134.3
 20
128
 30
0
 11
130.7
 21
128
 31
0
  0
LINE
  5
C2F
330
A02
100
AcDbEntity
  8
View012
100
AcDbLine
 10
101.5
 20
145
 30
0
 11
101.7
 21
145
 31
0
  0
LINE
  5
C30
330
A02
100
AcDbEntity
  8
View012
100
AcDbLine
 10
130.7
 20
128
 30
0
 11
130.5
 21
128
 31
0
  0
LINE
  5
C31
330
A02
100
AcDbEntity
  8
View012
100
AcDbLine
 10
101.5
 20
145
 30
0
 11
101.5
 21
128
 31
0
  0
LINE
  5
C32
330
A02
100
AcDbEntity
  8
View012
100
AcDbLine
 10
130.5
 20
128
 30
0
 11
130.5
 21
127.8
 31
0
  0
LINE
  5
C33
330
A02
100
AcDbEntity
  8
View012
100
AcDbLine
 10
101.7
 20
128
 30
0
 11
101.5
 21
128
 31
0
  0
LINE
  5
C34
330
A02
100
AcDbEntity
  8
View012
100
AcDbLine
 10
130.5
 20
127.8
 30
0
 11
130.5
 21
111
 31
0
  0
LINE
  5
C35
330
A02
100
AcDbEntity
  8
View012
100
AcDbLine
 10
101.7
 20
128
 30
0
 11
105.3
 21
128
 31
0
  0
LINE
  5
C36
330
A02
100
AcDbEntity
  8
View012
100
AcDbLine
 10
130.7
 20
111
 30
0
 11
130.5
 21
111
 31
0
  0
LINE
  5
C37
330
A02
100
AcDbEntity
  8
View012
100
AcDbLine
 10
105.3
 20
128
 30
0
 11
105.5
 21
128
 31
0
  0
LINE
  5
C38
330
A02
100
AcDbEntity
  8
View012
100
AcDbLine
 10
130.7
 20
111
 30
0
 11
134.3
 21
111
 31
0
  0
LINE
  5
C39
330
A02
100
AcDbEntity
  8
View012
100
AcDbLine
 10
105.5
 20
128
 30
0
 11
105.5
 21
127.8
 31
0
  0
LINE
  5
C3A
330
A02
100
AcDbEntity
  8
View012
100
AcDbLine
 10
134.5
 20
111
 30
0
 11
134.3
 21
111
 31
0
  0
LINE
  5
C3B
330
A02
100
AcDbEntity
  8
View012
100
AcDbLine
 10
105.5
 20
127.8
 30
0
 11
105.5
 21
111
 31
0
  0
LINE
  5
C3C
330
A02
100
AcDbEntity
  8
View012
100
AcDbLine
 10
134.5
 20
99.5
 30
0
 11
134.5
 21
111
 31
0
  0
LINE
  5
C3D
330
A02
100
AcDbEntity
  8
View012
100
AcDbLine
 10
105.3
 20
111
 30
0
 11
105.5
 21
111
 31
0
  0
ARC
  5
C3E
330
A02
100
AcDbEntity
  8
View012
100
AcDbCircle
 10
129.5
 20
99.5
 30
0
 40
5
100
AcDbArc
 50
-90
 51
-1.28777e-09
  0
LINE
  5
C3F
330
A02
100
AcDbEntity
  8
View012
100
AcDbLine
 10
105.3
 20
111
 30
0
 11
101.7
 21
111
 31
0
  0
LINE
  5
C40
330
A02
100
AcDbEntity
  8
View012
100
AcDbLine
 10
106.5
 20
94.5
 30
0
 11
129.5
 21
94.5
 31
0
  0
LINE
  5
C41
330
A02
100
AcDbEntity
  8
View012
100
AcDbLine
 10
101.5
 20
111
 30
0
 11
101.7
 21
111
 31
0
  0
ARC
  5
C42
330
A02
100
AcDbEntity
  8
View012
100
AcDbCircle
 10
106.5
 20
99.5
 30
0
 40
5
100
AcDbArc
 50
-180
 51
-90
  0
LINE
  5
C43
330
A02
100
AcDbEntity
  8
View012
100
AcDbLine
 10
101.5
 20
111
 30
0
 11
101.5
 21
99.5
 31
0
  0
LINE
  5
C44
330
A02
100
AcDbEntity
  8
View012
100
AcDbLine
 10
112
 20
99.5
 30
0
 11
112
 21
103.5
 31
0
  0
LINE
  5
C45
330
A02
100
AcDbEntity
  8
View012
100
AcDbLine
 10
124
 20
99.5
 30
0
 11
112
 21
99.5
 31
0
  0
LINE
  5
C46
330
A02
100
AcDbEntity
  8
View012
100
AcDbLine
 10
112
 20
103.5
 30
0
 11
124
 21
103.5
 31
0
  0
LINE
  5
C47
330
A02
100
AcDbEntity
  8
View012
100
AcDbLine
 10
124
 20
103.5
 30
0
 11
124
 21
99.5
 31
0
  0
LINE
  5
C48
330
A02
100
AcDbEntity
  8
View012
100
AcDbLine
 10
107
 20
213.883
 30
0
 11
107
 21
217.117
 31
0
  0
LINE
  5
C49
330
A02
100
AcDbEntity
  8
View012
100
AcDbLine
 10
107
 20
217.117
 30
0
 11
104.2
 21
218.733
 31
0
  0
LINE
  5
C4A
330
A02
100
AcDbEntity
  8
View012
100
AcDbLine
 10
104.2
 20
218.733
 30
0
 11
101.4
 21
217.117
 31
0
  0
LINE
  5
C4B
330
A02
100
AcDbEntity
  8
View012
100
AcDbLine
 10
101.4
 20
217.117
 30
0
 11
101.4
 21
213.883
 31
0
  0
LINE
  5
C4C
330
A02
100
AcDbEntity
  8
View012
100
AcDbLine
 10
101.4
 20
213.883
 30
0
 11
104.2
 21
212.267
 31
0
  0
LINE
  5
C4D
330
A02
100
AcDbEntity
  8
View012
100
AcDbLine
 10
104.2
 20
212.267
 30
0
 11
107
 21
213.883
 31
0
  0
CIRCLE
  5
C4E
330
A02
100
AcDbEntity
  8
View012
100
AcDbCircle
 10
106
 20
210.5
 40
1.475
  0
CIRCLE
  5
C4F
330
A02
100
AcDbEntity
  8
View012
100
AcDbCircle
 10
106
 20
220.5
 40
1.475
  0
LINE
  5
C50
330
A02
100
AcDbEntity
  8
View012
100
AcDbLine
 10
122.5
 20
198.5
 30
0
 11
113.5
 21
198.5
 31
0
  0
ARC
  5
C51
330
A02
100
AcDbEntity
  8
View012
100
AcDbCircle
 10
122.5
 20
197
 30
0
 40
1.5
100
AcDbArc
 50
-90
 51
90
  0
ARC
  5
C52
330
A02
100
AcDbEntity
  8
View012
100
AcDbCircle
 10
113.5
 20
197
 30
0
 40
1.5
100
AcDbArc
 50
90
 51
-90
  0
LINE
  5
C53
330
A02
100
AcDbEntity
  8
View012
100
AcDbLine
 10
113.5
 20
195.5
 30
0
 11
122.5
 21
195.5
 31
0
  0
LINE
  5
C54
330
A02
100
AcDbEntity
  8
View012
100
AcDbLine
 10
113
 20
192.5
 30
0
 11
123
 21
192.5
 31
0
  0
ARC
  5
C55
330
A02
100
AcDbEntity
  8
View012
100
AcDbCircle
 10
113
 20
191.5
 30
0
 40
1
100
AcDbArc
 50
90
 51
180
  0
ARC
  5
C56
330
A02
100
AcDbEntity
  8
View012
100
AcDbCircle
 10
123
 20
191.5
 30
0
 40
1
100
AcDbArc
 50
0
 51
90
  0
LINE
  5
C57
330
A02
100
AcDbEntity
  8
View012
100
AcDbLine
 10
112
 20
183.5
 30
0
 11
112
 21
191.5
 31
0
  0
LINE
  5
C58
330
A02
100
AcDbEntity
  8
View012
100
AcDbLine
 10
124
 20
191.5
 30
0
 11
124
 21
183.5
 31
0
  0
ARC
  5
C59
330
A02
100
AcDbEntity
  8
View012
100
AcDbCircle
 10
113
 20
183.5
 30
0
 40
1
100
AcDbArc
 50
180
 51
-90
  0
ARC
  5
C5A
330
A02
100
AcDbEntity
  8
View012
100
AcDbCircle
 10
123
 20
183.5
 30
0
 40
1
100
AcDbArc
 50
-90
 51
0
  0
LINE
  5
C5B
330
A02
100
AcDbEntity
  8
View012
100
AcDbLine
 10
123
 20
182.5
 30
0
 11
113
 21
182.5
 31
0
  0
CIRCLE
  5
C5C
330
A02
100
AcDbEntity
  8
View012
100
AcDbCircle
 10
130
 20
210.5
 40
1.475
  0
CIRCLE
  5
C5D
330
A02
100
AcDbEntity
  8
View012
100
AcDbCircle
 10
130
 20
220.5
 40
1.475
  0
LINE
  5
C5E
330
A02
100
AcDbEntity
  8
View012
100
AcDbLine
 10
134.6
 20
213.883
 30
0
 11
134.6
 21
217.117
 31
0
  0
LINE
  5
C5F
330
A02
100
AcDbEntity
  8
View012
100
AcDbLine
 10
134.6
 20
217.117
 30
0
 11
131.8
 21
218.733
 31
0
  0
LINE
  5
C60
330
A02
100
AcDbEntity
  8
View012
100
AcDbLine
 10
131.8
 20
218.733
 30
0
 11
129
 21
217.117
 31
0
  0
LINE
  5
C61
330
A02
100
AcDbEntity
  8
View012
100
AcDbLine
 10
129
 20
217.117
 30
0
 11
129
 21
213.883
 31
0
  0
LINE
  5
C62
330
A02
100
AcDbEntity
  8
View012
100
AcDbLine
 10
129
 20
213.883
 30
0
 11
131.8
 21
212.267
 31
0
  0
LINE
  5
C63
330
A02
100
AcDbEntity
  8
View012
100
AcDbLine
 10
131.8
 20
212.267
 30
0
 11
134.6
 21
213.883
 31
0
  0
LINE
  5
C64
330
A02
100
AcDbEntity
  8
View013
100
AcDbLine
 10
66
 20
224.5
 30
0
 11
66
 21
241.5
 31
0
  0
LINE
  5
C65
330
A02
100
AcDbEntity
  8
View013
100
AcDbLine
 10
66
 20
258.5
 30
0
 11
66
 21
275.5
 31
0
  0
LINE
  5
C66
330
A02
100
AcDbEntity
  8
View013
100
AcDbLine
 10
66
 20
292.5
 30
0
 11
66
 21
309.5
 31
0
  0
LINE
  5
C67
330
A02
100
AcDbEntity
  8
View013
100
AcDbLine
 10
70
 20
320
 30
0
 11
94
 21
320
 31
0
  0
LINE
  5
C68
330
A02
100
AcDbEntity
  8
View013
100
AcDbLine
 10
98
 20
309.5
 30
0
 11
98
 21
292.5
 31
0
  0
LINE
  5
C69
330
A02
100
AcDbEntity
  8
View013
100
AcDbLine
 10
98
 20
275.5
 30
0
 11
98
 21
258.5
 31
0
  0
LINE
  5
C6A
330
A02
100
AcDbEntity
  8
View013
100
AcDbLine
 10
98
 20
241.5
 30
0
 11
98
 21
224.5
 31
0
  0
LINE
  5
C6B
330
A02
100
AcDbEntity
  8
View013
100
AcDbLine
 10
94
 20
208
 30
0
 11
70
 21
208
 31
0
  0
LINE
  5
C6C
330
A02
100
AcDbEntity
  8
View013
100
AcDbLine
 10
70
 20
208
 30
0
 11
70
 21
224.5
 31
0
  0
LINE
  5
C6D
330
A02
100
AcDbEntity
  8
View013
100
AcDbLine
 10
66
 20
224.5
 30
0
 11
70
 21
224.5
 31
0
  0
LINE
  5
C6E
330
A02
100
AcDbEntity
  8
View013
100
AcDbLine
 10
66
 20
241.5
 30
0
 11
70
 21
241.5
 31
0
  0
LINE
  5
C6F
330
A02
100
AcDbEntity
  8
View013
100
AcDbLine
 10
70
 20
241.5
 30
0
 11
70
 21
258.5
 31
0
  0
LINE
  5
C70
330
A02
100
AcDbEntity
  8
View013
100
AcDbLine
 10
66
 20
258.5
 30
0
 11
70
 21
258.5
 31
0
  0
LINE
  5
C71
330
A02
100
AcDbEntity
  8
View013
100
AcDbLine
 10
66
 20
275.5
 30
0
 11
70
 21
275.5
 31
0
  0
LINE
  5
C72
330
A02
100
AcDbEntity
  8
View013
100
AcDbLine
 10
70
 20
275.5
 30
0
 11
70
 21
292.5
 31
0
  0
LINE
  5
C73
330
A02
100
AcDbEntity
  8
View013
100
AcDbLine
 10
66
 20
292.5
 30
0
 11
70
 21
292.5
 31
0
  0
LINE
  5
C74
330
A02
100
AcDbEntity
  8
View013
100
AcDbLine
 10
66
 20
309.5
 30
0
 11
70
 21
309.5
 31
0
  0
LINE
  5
C75
330
A02
100
AcDbEntity
  8
View013
100
AcDbLine
 10
70
 20
320
 30
0
 11
70
 21
309.5
 31
0
  0
LINE
  5
C76
330
A02
100
AcDbEntity
  8
View013
100
AcDbLine
 10
94
 20
320
 30
0
 11
94
 21
309.5
 31
0
  0
LINE
  5
C77
330
A02
100
AcDbEntity
  8
View013
100
AcDbLine
 10
94
 20
309.5
 30
0
 11
98
 21
309.5
 31
0
  0
LINE
  5
C78
330
A02
100
AcDbEntity
  8
View013
100
AcDbLine
 10
94
 20
292.5
 30
0
 11
98
 21
292.5
 31
0
  0
LINE
  5
C79
330
A02
100
AcDbEntity
  8
View013
100
AcDbLine
 10
94
 20
292.5
 30
0
 11
94
 21
275.5
 31
0
  0
LINE
  5
C7A
330
A02
100
AcDbEntity
  8
View013
100
AcDbLine
 10
94
 20
275.5
 30
0
 11
98
 21
275.5
 31
0
  0
LINE
  5
C7B
330
A02
100
AcDbEntity
  8
View013
100
AcDbLine
 10
94
 20
258.5
 30
0
 11
98
 21
258.5
 31
0
  0
LINE
  5
C7C
330
A02
100
AcDbEntity
  8
View013
100
AcDbLine
 10
94
 20
258.5
 30
0
 11
94
 21
241.5
 31
0
  0
LINE
  5
C7D
330
A02
100
AcDbEntity
  8
View013
100
AcDbLine
 10
94
 20
241.5
 30
0
 11
98
 21
241.5
 31
0
  0
LINE
  5
C7E
330
A02
100
AcDbEntity
  8
View013
100
AcDbLine
 10
94
 20
224.5
 30
0
 11
98
 21
224.5
 31
0
  0
LINE
  5
C7F
330
A02
100
AcDbEntity
  8
View013
100
AcDbLine
 10
94
 20
224.5
 30
0
 11
94
 21
208
 31
0
  0
LINE
  5
C80
330
A02
100
AcDbEntity
  8
View014
100
AcDbLine
 10
70
 20
190.5
 30
0
 11
70
 21
207
 31
0
  0
LINE
  5
C81
330
A02
100
AcDbEntity
  8
View014
100
AcDbLine
 10
70
 20
190.5
 30
0
 11
66
 21
190.5
 31
0
  0
LINE
  5
C82
330
A02
100
AcDbEntity
  8
View014
100
AcDbLine
 10
66
 20
190.5
 30
0
 11
66
 21
173.5
 31
0
  0
LINE
  5
C83
330
A02
100
AcDbEntity
  8
View014
100
AcDbLine
 10
70
 20
173.5
 30
0
 11
66
 21
173.5
 31
0
  0
LINE
  5
C84
330
A02
100
AcDbEntity
  8
View014
100
AcDbLine
 10
70
 20
156.5
 30
0
 11
70
 21
173.5
 31
0
  0
LINE
  5
C85
330
A02
100
AcDbEntity
  8
View014
100
AcDbLine
 10
70
 20
156.5
 30
0
 11
66
 21
156.5
 31
0
  0
LINE
  5
C86
330
A02
100
AcDbEntity
  8
View014
100
AcDbLine
 10
66
 20
156.5
 30
0
 11
66
 21
139.5
 31
0
  0
LINE
  5
C87
330
A02
100
AcDbEntity
  8
View014
100
AcDbLine
 10
70
 20
139.5
 30
0
 11
66
 21
139.5
 31
0
  0
LINE
  5
C88
330
A02
100
AcDbEntity
  8
View014
100
AcDbLine
 10
70
 20
122.5
 30
0
 11
70
 21
139.5
 31
0
  0
LINE
  5
C89
330
A02
100
AcDbEntity
  8
View014
100
AcDbLine
 10
70
 20
122.5
 30
0
 11
66
 21
122.5
 31
0
  0
LINE
  5
C8A
330
A02
100
AcDbEntity
  8
View014
100
AcDbLine
 10
66
 20
122.5
 30
0
 11
66
 21
105.5
 31
0
  0
LINE
  5
C8B
330
A02
100
AcDbEntity
  8
View014
100
AcDbLine
 10
70
 20
105.5
 30
0
 11
66
 21
105.5
 31
0
  0
LINE
  5
C8C
330
A02
100
AcDbEntity
  8
View014
100
AcDbLine
 10
70
 20
95
 30
0
 11
70
 21
105.5
 31
0
  0
LINE
  5
C8D
330
A02
100
AcDbEntity
  8
View014
100
AcDbLine
 10
70
 20
95
 30
0
 11
94
 21
95
 31
0
  0
LINE
  5
C8E
330
A02
100
AcDbEntity
  8
View014
100
AcDbLine
 10
94
 20
95
 30
0
 11
94
 21
105.5
 31
0
  0
LINE
  5
C8F
330
A02
100
AcDbEntity
  8
View014
100
AcDbLine
 10
98
 20
105.5
 30
0
 11
94
 21
105.5
 31
0
  0
LINE
  5
C90
330
A02
100
AcDbEntity
  8
View014
100
AcDbLine
 10
98
 20
105.5
 30
0
 11
98
 21
122.5
 31
0
  0
LINE
  5
C91
330
A02
100
AcDbEntity
  8
View014
100
AcDbLine
 10
98
 20
122.5
 30
0
 11
94
 21
122.5
 31
0
  0
LINE
  5
C92
330
A02
100
AcDbEntity
  8
View014
100
AcDbLine
 10
94
 20
139.5
 30
0
 11
94
 21
122.5
 31
0
  0
LINE
  5
C93
330
A02
100
AcDbEntity
  8
View014
100
AcDbLine
 10
98
 20
139.5
 30
0
 11
94
 21
139.5
 31
0
  0
LINE
  5
C94
330
A02
100
AcDbEntity
  8
View014
100
AcDbLine
 10
98
 20
139.5
 30
0
 11
98
 21
156.5
 31
0
  0
LINE
  5
C95
330
A02
100
AcDbEntity
  8
View014
100
AcDbLine
 10
98
 20
156.5
 30
0
 11
94
 21
156.5
 31
0
  0
LINE
  5
C96
330
A02
100
AcDbEntity
  8
View014
100
AcDbLine
 10
94
 20
173.5
 30
0
 11
94
 21
156.5
 31
0
  0
LINE
  5
C97
330
A02
100
AcDbEntity
  8
View014
100
AcDbLine
 10
98
 20
173.5
 30
0
 11
94
 21
173.5
 31
0
  0
LINE
  5
C98
330
A02
100
AcDbEntity
  8
View014
100
AcDbLine
 10
98
 20
173.5
 30
0
 11
98
 21
190.5
 31
0
  0
LINE
  5
C99
330
A02
100
AcDbEntity
  8
View014
100
AcDbLine
 10
98
 20
190.5
 30
0
 11
94
 21
190.5
 31
0
  0
LINE
  5
C9A
330
A02
100
AcDbEntity
  8
View014
100
AcDbLine
 10
94
 20
207
 30
0
 11
94
 21
190.5
 31
0
  0
LINE
  5
C9B
330
A02
100
AcDbEntity
  8
View014
100
AcDbLine
 10
94
 20
207
 30
0
 11
70
 21
207
 31
0
  0
LINE
  5
C9C
330
A02
100
AcDbEntity
  8
View015
100
AcDbLine
 10
193.5
 20
487.156
 30
0
 11
193.5
 21
487
 31
0
  0
LINE
  5
C9D
330
A02
100
AcDbEntity
  8
View015
100
AcDbLine
 10
193.5
 20
487
 30
0
 11
195
 21
487
 31
0
  0
LINE
  5
C9E
330
A02
100
AcDbEntity
  8
View015
100
AcDbLine
 10
195
 20
487
 30
0
 11
195
 21
486.5
 31
0
  0
ARC
  5
C9F
330
A02
100
AcDbEntity
  8
View015
100
AcDbCircle
 10
194.8
 20
486.5
 30
0
 40
0.2
100
AcDbArc
 50
-25.75
 51
0
  0
ARC
  5
CA0
330
A02
100
AcDbEntity
  8
View015
100
AcDbCircle
 10
198.428
 20
484.75
 30
0
 40
3.82812
100
AcDbArc
 50
154.25
 51
-154.25
  0
ARC
  5
CA1
330
A02
100
AcDbEntity
  8
View015
100
AcDbCircle
 10
194.8
 20
483
 30
0
 40
0.2
100
AcDbArc
 50
0
 51
25.75
  0
LINE
  5
CA2
330
A02
100
AcDbEntity
  8
View015
100
AcDbLine
 10
195
 20
483
 30
0
 11
195
 21
459
 31
0
  0
ARC
  5
CA3
330
A02
100
AcDbEntity
  8
View015
100
AcDbCircle
 10
194.8
 20
459
 30
0
 40
0.2
100
AcDbArc
 50
-25.75
 51
0
  0
ARC
  5
CA4
330
A02
100
AcDbEntity
  8
View015
100
AcDbCircle
 10
198.428
 20
457.25
 30
0
 40
3.82812
100
AcDbArc
 50
154.25
 51
-154.25
  0
ARC
  5
CA5
330
A02
100
AcDbEntity
  8
View015
100
AcDbCircle
 10
194.8
 20
455.5
 30
0
 40
0.2
100
AcDbArc
 50
0
 51
25.75
  0
ARC
  5
CA6
330
A02
100
AcDbEntity
  8
View015
100
AcDbCircle
 10
195.5
 20
455.5
 30
0
 40
0.5
100
AcDbArc
 50
-180
 51
-90
  0
LINE
  5
CA7
330
A02
100
AcDbEntity
  8
View015
100
AcDbLine
 10
195.5
 20
455
 30
0
 11
206.5
 21
455
 31
0
  0
ARC
  5
CA8
330
A02
100
AcDbEntity
  8
View015
100
AcDbCircle
 10
206.5
 20
455.5
 30
0
 40
0.5
100
AcDbArc
 50
-90
 51
-1.66912e-06
  0
ARC
  5
CA9
330
A02
100
AcDbEntity
  8
View015
100
AcDbCircle
 10
207.2
 20
455.5
 30
0
 40
0.2
100
AcDbArc
 50
154.25
 51
180
  0
ARC
  5
CAA
330
A02
100
AcDbEntity
  8
View015
100
AcDbCircle
 10
203.572
 20
457.25
 30
0
 40
3.82812
100
AcDbArc
 50
-25.75
 51
25.75
  0
ARC
  5
CAB
330
A02
100
AcDbEntity
  8
View015
100
AcDbCircle
 10
207.2
 20
459
 30
0
 40
0.2
100
AcDbArc
 50
180
 51
-154.25
  0
LINE
  5
CAC
330
A02
100
AcDbEntity
  8
View015
100
AcDbLine
 10
207
 20
483
 30
0
 11
207
 21
459
 31
0
  0
ARC
  5
CAD
330
A02
100
AcDbEntity
  8
View015
100
AcDbCircle
 10
207.2
 20
483
 30
0
 40
0.2
100
AcDbArc
 50
154.25
 51
180
  0
ARC
  5
CAE
330
A02
100
AcDbEntity
  8
View015
100
AcDbCircle
 10
203.572
 20
484.75
 30
0
 40
3.82813
100
AcDbArc
 50
-25.75
 51
25.75
  0
ARC
  5
CAF
330
A02
100
AcDbEntity
  8
View015
100
AcDbCircle
 10
207.2
 20
486.5
 30
0
 40
0.2
100
AcDbArc
 50
180
 51
-154.25
  0
LINE
  5
CB0
330
A02
100
AcDbEntity
  8
View015
100
AcDbLine
 10
207
 20
487
 30
0
 11
207
 21
486.5
 31
0
  0
LINE
  5
CB1
330
A02
100
AcDbEntity
  8
View015
100
AcDbLine
 10
208.5
 20
487
 30
0
 11
207
 21
487
 31
0
  0
LINE
  5
CB2
330
A02
100
AcDbEntity
  8
View015
100
AcDbLine
 10
208.5
 20
487.156
 30
0
 11
208.5
 21
487
 31
0
  0
ARC
  5
CB3
330
A02
100
AcDbEntity
  8
View015
100
AcDbCircle
 10
208.7
 20
487.156
 30
0
 40
0.2
100
AcDbArc
 50
123.056
 51
180
  0
ARC
  5
CB4
330
A02
100
AcDbEntity
  8
View015
100
AcDbCircle
 10
207.5
 20
489
 30
0
 40
2
100
AcDbArc
 50
-56.9443
 51
90
  0
LINE
  5
CB5
330
A02
100
AcDbEntity
  8
View015
100
AcDbLine
 10
207.5
 20
491
 30
0
 11
201
 21
491
 31
0
  0
LINE
  5
CB6
330
A02
100
AcDbEntity
  8
View015
100
AcDbLine
 10
194.5
 20
491
 30
0
 11
201
 21
491
 31
0
  0
ARC
  5
CB7
330
A02
100
AcDbEntity
  8
View015
100
AcDbCircle
 10
194.5
 20
489
 30
0
 40
2
100
AcDbArc
 50
90
 51
-123.056
  0
ARC
  5
CB8
330
A02
100
AcDbEntity
  8
View015
100
AcDbCircle
 10
193.3
 20
487.156
 30
0
 40
0.2
100
AcDbArc
 50
0
 51
56.9443
  0
ARC
  5
CB9
330
A02
100
AcDbEntity
  8
View017
100
AcDbCircle
 10
145.939
 20
293.917
 30
0
 40
12
100
AcDbArc
 50
-174.104
 51
-142.382
  0
ARC
  5
CBA
330
A02
100
AcDbEntity
  8
View017
100
AcDbCircle
 10
131.8
 20
283.021
 30
0
 40
5.85
100
AcDbArc
 50
-42.7635
 51
37.6182
  0
ARC
  5
CBB
330
A02
100
AcDbEntity
  8
View017
100
AcDbCircle
 10
140.5
 20
274.975
 30
0
 40
6
100
AcDbArc
 50
137.236
 51
179.562
  0
LINE
  5
CBC
330
A02
100
AcDbEntity
  8
View017
100
AcDbLine
 10
134.5
 20
274.147
 30
0
 11
134.5
 21
275.021
 31
0
  0
ARC
  5
CBD
330
A02
100
AcDbEntity
  8
View017
100
AcDbCircle
 10
126.512
 20
274.584
 30
0
 40
8
100
AcDbArc
 50
-57.9605
 51
-3.13187
  0
ARC
  5
CBE
330
A02
100
AcDbEntity
  8
View017
100
AcDbCircle
 10
135
 20
261.021
 30
0
 40
8
100
AcDbArc
 50
122.039
 51
160.812
  0
ARC
  5
CBF
330
A02
100
AcDbEntity
  8
View017
100
AcDbCircle
 10
126.5
 20
263.979
 30
0
 40
1
100
AcDbArc
 50
180
 51
-19.1881
  0
LINE
  5
CC0
330
A02
100
AcDbEntity
  8
View017
100
AcDbLine
 10
125.5
 20
269.371
 30
0
 11
125.5
 21
263.979
 31
0
  0
ARC
  5
CC1
330
A02
100
AcDbEntity
  8
View017
100
AcDbCircle
 10
121
 20
269.371
 30
0
 40
4.5
100
AcDbArc
 50
0
 51
28.0725
  0
LINE
  5
CC2
330
A02
100
AcDbEntity
  8
View017
100
AcDbLine
 10
124.5
 20
272.371
 30
0
 11
124.971
 21
271.489
 31
0
  0
ARC
  5
CC3
330
A02
100
AcDbEntity
  8
View017
100
AcDbCircle
 10
129
 20
274.771
 30
0
 40
5.1
100
AcDbArc
 50
180
 51
-151.928
  0
LINE
  5
CC4
330
A02
100
AcDbEntity
  8
View017
100
AcDbLine
 10
123.9
 20
274.871
 30
0
 11
123.9
 21
274.771
 31
0
  0
LINE
  5
CC5
330
A02
100
AcDbEntity
  8
View017
100
AcDbLine
 10
124.54
 20
274.871
 30
0
 11
123.9
 21
274.871
 31
0
  0
ARC
  5
CC6
330
A02
100
AcDbEntity
  8
View017
100
AcDbCircle
 10
124.54
 20
277.371
 30
0
 40
2.5
100
AcDbArc
 50
-90
 51
0
  0
LINE
  5
CC7
330
A02
100
AcDbEntity
  8
View017
100
AcDbLine
 10
127.04
 20
293.372
 30
0
 11
127.04
 21
277.371
 31
0
  0
ARC
  5
CC8
330
A02
100
AcDbEntity
  8
View017
100
AcDbCircle
 10
124.54
 20
293.372
 30
0
 40
2.5
100
AcDbArc
 50
0
 51
90
  0
LINE
  5
CC9
330
A02
100
AcDbEntity
  8
View017
100
AcDbLine
 10
124
 20
295.872
 30
0
 11
124.54
 21
295.872
 31
0
  0
LINE
  5
CCA
330
A02
100
AcDbEntity
  8
View017
100
AcDbLine
 10
124
 20
295.872
 30
0
 11
120.2
 21
295.872
 31
0
  0
LINE
  5
CCB
330
A02
100
AcDbEntity
  8
View017
100
AcDbLine
 10
120.2
 20
300.772
 30
0
 11
120.2
 21
295.872
 31
0
  0
ARC
  5
CCC
330
A02
100
AcDbEntity
  8
View017
100
AcDbCircle
 10
119.2
 20
300.772
 30
0
 40
1
100
AcDbArc
 50
0
 51
90
  0
LINE
  5
CCD
330
A02
100
AcDbEntity
  8
View017
100
AcDbLine
 10
112.2
 20
301.772
 30
0
 11
119.2
 21
301.772
 31
0
  0
ARC
  5
CCE
330
A02
100
AcDbEntity
  8
View017
100
AcDbCircle
 10
112.2
 20
300.772
 30
0
 40
1
100
AcDbArc
 50
90
 51
180
  0
LINE
  5
CCF
330
A02
100
AcDbEntity
  8
View017
100
AcDbLine
 10
111.2
 20
295.872
 30
0
 11
111.2
 21
300.772
 31
0
  0
LINE
  5
CD0
330
A02
100
AcDbEntity
  8
View017
100
AcDbLine
 10
111.46
 20
295.872
 30
0
 11
111.2
 21
295.872
 31
0
  0
ARC
  5
CD1
330
A02
100
AcDbEntity
  8
View017
100
AcDbCircle
 10
111.46
 20
293.372
 30
0
 40
2.5
100
AcDbArc
 50
90
 51
180
  0
LINE
  5
CD2
330
A02
100
AcDbEntity
  8
View017
100
AcDbLine
 10
108.96
 20
277.371
 30
0
 11
108.96
 21
293.372
 31
0
  0
ARC
  5
CD3
330
A02
100
AcDbEntity
  8
View017
100
AcDbCircle
 10
111.46
 20
277.371
 30
0
 40
2.5
100
AcDbArc
 50
180
 51
-90
  0
LINE
  5
CD4
330
A02
100
AcDbEntity
  8
View017
100
AcDbLine
 10
112.1
 20
274.871
 30
0
 11
111.46
 21
274.871
 31
0
  0
LINE
  5
CD5
330
A02
100
AcDbEntity
  8
View017
100
AcDbLine
 10
112.1
 20
274.771
 30
0
 11
112.1
 21
274.871
 31
0
  0
ARC
  5
CD6
330
A02
100
AcDbEntity
  8
View017
100
AcDbCircle
 10
107
 20
274.771
 30
0
 40
5.1
100
AcDbArc
 50
-28.0725
 51
0
  0
LINE
  5
CD7
330
A02
100
AcDbEntity
  8
View017
100
AcDbLine
 10
111.5
 20
272.371
 30
0
 11
111.029
 21
271.489
 31
0
  0
ARC
  5
CD8
330
A02
100
AcDbEntity
  8
View017
100
AcDbCircle
 10
115
 20
269.371
 30
0
 40
4.5
100
AcDbArc
 50
151.928
 51
180
  0
LINE
  5
CD9
330
A02
100
AcDbEntity
  8
View017
100
AcDbLine
 10
110.5
 20
269.371
 30
0
 11
110.5
 21
263.979
 31
0
  0
ARC
  5
CDA
330
A02
100
AcDbEntity
  8
View017
100
AcDbCircle
 10
109.5
 20
263.979
 30
0
 40
1
100
AcDbArc
 50
-160.812
 51
0
  0
ARC
  5
CDB
330
A02
100
AcDbEntity
  8
View017
100
AcDbCircle
 10
101
 20
261.021
 30
0
 40
8
100
AcDbArc
 50
19.1881
 51
57.9605
  0
ARC
  5
CDC
330
A02
100
AcDbEntity
  8
View017
100
AcDbCircle
 10
109.488
 20
274.584
 30
0
 40
8
100
AcDbArc
 50
-176.868
 51
-122.039
  0
LINE
  5
CDD
330
A02
100
AcDbEntity
  8
View017
100
AcDbLine
 10
101.5
 20
275.021
 30
0
 11
101.5
 21
274.147
 31
0
  0
ARC
  5
CDE
330
A02
100
AcDbEntity
  8
View017
100
AcDbCircle
 10
95.5002
 20
274.975
 30
0
 40
6
100
AcDbArc
 50
0.437747
 51
42.7635
  0
ARC
  5
CDF
330
A02
100
AcDbEntity
  8
View017
100
AcDbCircle
 10
104.2
 20
283.021
 30
0
 40
5.85
100
AcDbArc
 50
142.382
 51
-137.236
  0
ARC
  5
CE0
330
A02
100
AcDbEntity
  8
View017
100
AcDbCircle
 10
90.0611
 20
293.917
 30
0
 40
12
100
AcDbArc
 50
-37.6182
 51
-5.89583
  0
ARC
  5
CE1
330
A02
100
AcDbEntity
  8
View017
100
AcDbCircle
 10
195.57
 20
283.021
 30
0
 40
94.0704
100
AcDbArc
 50
164.546
 51
174.104
  0
ARC
  5
CE2
330
A02
100
AcDbEntity
  8
View017
100
AcDbCircle
 10
108.756
 20
307.021
 30
0
 40
4
100
AcDbArc
 50
90
 51
164.546
  0
LINE
  5
CE3
330
A02
100
AcDbEntity
  8
View017
100
AcDbLine
 10
108.756
 20
311.021
 30
0
 11
127.244
 21
311.021
 31
0
  0
ARC
  5
CE4
330
A02
100
AcDbEntity
  8
View017
100
AcDbCircle
 10
127.244
 20
307.021
 30
0
 40
4
100
AcDbArc
 50
15.4536
 51
90
  0
ARC
  5
CE5
330
A02
100
AcDbEntity
  8
View017
100
AcDbCircle
 10
40.4296
 20
283.021
 30
0
 40
94.0704
100
AcDbArc
 50
5.89583
 51
15.4536
  0
CIRCLE
  5
CE6
330
A02
100
AcDbEntity
  8
View017
100
AcDbCircle
 10
106
 20
278.021
 40
1.475
  0
CIRCLE
  5
CE7
330
A02
100
AcDbEntity
  8
View017
100
AcDbCircle
 10
104.2
 20
283.021
 40
1.7
  0
CIRCLE
  5
CE8
330
A02
100
AcDbEntity
  8
View017
100
AcDbCircle
 10
106
 20
288.021
 40
1.475
  0
CIRCLE
  5
CE9
330
A02
100
AcDbEntity
  8
View017
100
AcDbCircle
 10
130
 20
278.021
 40
1.475
  0
CIRCLE
  5
CEA
330
A02
100
AcDbEntity
  8
View017
100
AcDbCircle
 10
131.8
 20
283.021
 40
1.7
  0
CIRCLE
  5
CEB
330
A02
100
AcDbEntity
  8
View017
100
AcDbCircle
 10
130
 20
288.021
 40
1.475
  0
CIRCLE
  5
CEC
330
A02
100
AcDbEntity
  8
View017
100
AcDbCircle
 10
108.5
 20
302.021
 40
1.475
  0
CIRCLE
  5
CED
330
A02
100
AcDbEntity
  8
View017
100
AcDbCircle
 10
127.5
 20
302.021
 40
1.475
  0
ARC
  5
CEE
330
A02
100
AcDbEntity
  8
View022
100
AcDbCircle
 10
68.5359
 20
449.768
 30
0
 40
8
100
AcDbArc
 50
-1.15676e-05
 51
120
  0
LINE
  5
CEF
330
A02
100
AcDbEntity
  8
View022
100
AcDbLine
 10
64.5359
 20
456.696
 30
0
 11
67.4641
 21
451.624
 31
0
  0
LINE
  5
CF0
330
A02
100
AcDbEntity
  8
View022
100
AcDbLine
 10
67.4641
 20
451.624
 30
0
 11
69.4641
 21
448.16
 31
0
  0
LINE
  5
CF1
330
A02
100
AcDbEntity
  8
View022
100
AcDbLine
 10
69.4641
 20
448.16
 30
0
 11
62.5359
 21
444.16
 31
0
  0
LINE
  5
CF2
330
A02
100
AcDbEntity
  8
View022
100
AcDbLine
 10
62.5359
 20
444.16
 30
0
 11
60.5359
 21
447.624
 31
0
  0
LINE
  5
CF3
330
A02
100
AcDbEntity
  8
View022
100
AcDbLine
 10
60.5359
 20
447.624
 30
0
 11
60.5359
 21
366.768
 31
0
  0
LINE
  5
CF4
330
A02
100
AcDbEntity
  8
View022
100
AcDbLine
 10
60.5359
 20
366.768
 30
0
 11
65.5359
 21
366.768
 31
0
  0
LINE
  5
CF5
330
A02
100
AcDbEntity
  8
View022
100
AcDbLine
 10
65.5359
 20
366.768
 30
0
 11
65.5359
 21
348.768
 31
0
  0
LINE
  5
CF6
330
A02
100
AcDbEntity
  8
View022
100
AcDbLine
 10
65.5359
 20
348.768
 30
0
 11
60.5359
 21
348.768
 31
0
  0
LINE
  5
CF7
330
A02
100
AcDbEntity
  8
View022
100
AcDbLine
 10
60.5359
 20
348.768
 30
0
 11
60.5359
 21
330.768
 31
0
  0
ARC
  5
CF8
330
A02
100
AcDbEntity
  8
View022
100
AcDbCircle
 10
68.5359
 20
330.768
 30
0
 40
8
100
AcDbArc
 50
180
 51
-1.15676e-05
  0
LINE
  5
CF9
330
A02
100
AcDbEntity
  8
View022
100
AcDbLine
 10
76.5359
 20
332.768
 30
0
 11
76.5359
 21
330.768
 31
0
  0
LINE
  5
CFA
330
A02
100
AcDbEntity
  8
View022
100
AcDbLine
 10
68.5359
 20
332.768
 30
0
 11
76.5359
 21
332.768
 31
0
  0
LINE
  5
CFB
330
A02
100
AcDbEntity
  8
View022
100
AcDbLine
 10
68.5359
 20
336.768
 30
0
 11
68.5359
 21
332.768
 31
0
  0
LINE
  5
CFC
330
A02
100
AcDbEntity
  8
View022
100
AcDbLine
 10
76.5359
 20
336.768
 30
0
 11
68.5359
 21
336.768
 31
0
  0
LINE
  5
CFD
330
A02
100
AcDbEntity
  8
View022
100
AcDbLine
 10
76.5359
 20
394.268
 30
0
 11
76.5359
 21
336.768
 31
0
  0
LINE
  5
CFE
330
A02
100
AcDbEntity
  8
View022
100
AcDbLine
 10
72.5359
 20
394.268
 30
0
 11
76.5359
 21
394.268
 31
0
  0
LINE
  5
CFF
330
A02
100
AcDbEntity
  8
View022
100
AcDbLine
 10
72.5359
 20
398.268
 30
0
 11
72.5359
 21
394.268
 31
0
  0
LINE
  5
D00
330
A02
100
AcDbEntity
  8
View022
100
AcDbLine
 10
74.5359
 20
398.268
 30
0
 11
72.5359
 21
398.268
 31
0
  0
LINE
  5
D01
330
A02
100
AcDbEntity
  8
View022
100
AcDbLine
 10
74.5359
 20
396.268
 30
0
 11
74.5359
 21
398.268
 31
0
  0
LINE
  5
D02
330
A02
100
AcDbEntity
  8
View022
100
AcDbLine
 10
76.5359
 20
396.268
 30
0
 11
74.5359
 21
396.268
 31
0
  0
LINE
  5
D03
330
A02
100
AcDbEntity
  8
View022
100
AcDbLine
 10
76.5359
 20
449.768
 30
0
 11
76.5359
 21
396.268
 31
0
  0
CIRCLE
  5
D04
330
A02
100
AcDbEntity
  8
View022
100
AcDbCircle
 10
68.5359
 20
330.768
 40
1.5
  0
SPLINE
  5
D05
330
A02
100
AcDbEntity
  8
View023
100
AcDbSpline
210
0
220
0
230
1
 70
8
 71
3
 72
23
 73
19
 74
0
 40
0.523599
 40
0.523599
 40
0.523599
 40
0.523599
 40
1.0472
 40
1.0472
 40
1.0472
 40
1.309
 40
1.309
 40
1.309
 40
1.5708
 40
1.5708
 40
1.5708
 40
1.8326
 40
1.8326
 40
1.8326
 40
2.0944
 40
2.0944
 40
2.0944
 40
2.61799
 40
2.61799
 40
2.61799
 40
2.61799
 10
93.5359
 20
449.768
 30
0
 10
93.5383
 20
450.918
 30
0
 10
93.2789
 20
452.237
 30
0
 10
92.6128
 20
453.499
 30
0
 10
92.2819
 20
454.127
 30
0
 10
91.8521
 20
454.736
 30
0
 10
91.3318
 20
455.282
 30
0
 10
90.8124
 20
455.829
 30
0
 10
90.2029
 20
456.312
 30
0
 10
89.5359
 20
456.696
 30
0
 10
88.8694
 20
457.082
 30
0
 10
88.1465
 20
457.368
 30
0
 10
87.4135
 20
457.545
 30
0
 10
86.6802
 20
457.722
 30
0
 10
85.938
 20
457.79
 30
0
 10
85.2282
 20
457.762
 30
0
 10
83.8029
 20
457.708
 30
0
 10
82.5311
 20
457.273
 30
0
 10
81.5359
 20
456.696
 30
0
  0
SPLINE
  5
D06
330
A02
100
AcDbEntity
  8
View023
100
AcDbSpline
210
0
220
0
230
1
 70
8
 71
1
 72
4
 73
2
 74
0
 40
3.55271e-15
 40
3.55271e-15
 40
5.85641
 40
5.85641
 10
81.5359
 20
456.696
 30
0
 10
84.4641
 20
451.624
 30
0
  0
SPLINE
  5
D07
330
A02
100
AcDbEntity
  8
View023
100
AcDbSpline
210
0
220
0
230
1
 70
8
 71
1
 72
4
 73
2
 74
0
 40
0
 40
0
 40
4
 40
4
 10
84.4641
 20
451.624
 30
0
 10
86.4641
 20
448.16
 30
0
  0
SPLINE
  5
D08
330
A02
100
AcDbEntity
  8
View023
100
AcDbSpline
210
0
220
0
230
1
 70
8
 71
1
 72
4
 73
2
 74
0
 40
0
 40
0
 40
8
 40
8
 10
86.4641
 20
448.16
 30
0
 10
79.5359
 20
444.16
 30
0
  0
SPLINE
  5
D09
330
A02
100
AcDbEntity
  8
View023
100
AcDbSpline
210
0
220
0
230
1
 70
8
 71
1
 72
4
 73
2
 74
0
 40
0
 40
0
 40
4
 40
4
 10
79.5359
 20
444.16
 30
0
 10
77.5359
 20
447.624
 30
0
  0
SPLINE
  5
D0A
330
A02
100
AcDbEntity
  8
View023
100
AcDbSpline
210
0
220
0
230
1
 70
8
 71
1
 72
4
 73
2
 74
0
 40
0
 40
0
 40
80.8564
 40
80.8564
 10
77.5359
 20
447.624
 30
0
 10
77.5359
 20
366.768
 30
0
  0
SPLINE
  5
D0B
330
A02
100
AcDbEntity
  8
View023
100
AcDbSpline
210
0
220
0
230
1
 70
8
 71
1
 72
4
 73
2
 74
0
 40
0
 40
0
 40
5
 40
5
 10
77.5359
 20
366.768
 30
0
 10
82.5359
 20
366.768
 30
0
  0
SPLINE
  5
D0C
330
A02
100
AcDbEntity
  8
View023
100
AcDbSpline
210
0
220
0
230
1
 70
8
 71
1
 72
4
 73
2
 74
0
 40
5.32907e-15
 40
5.32907e-15
 40
18
 40
18
 10
82.5359
 20
366.768
 30
0
 10
82.5359
 20
348.768
 30
0
  0
SPLINE
  5
D0D
330
A02
100
AcDbEntity
  8
View023
100
AcDbSpline
210
0
220
0
230
1
 70
8
 71
1
 72
4
 73
2
 74
0
 40
6.15348e-15
 40
6.15348e-15
 40
5
 40
5
 10
82.5359
 20
348.768
 30
0
 10
77.5359
 20
348.768
 30
0
  0
SPLINE
  5
D0E
330
A02
100
AcDbEntity
  8
View023
100
AcDbSpline
210
0
220
0
230
1
 70
8
 71
1
 72
4
 73
2
 74
0
 40
7.10543e-15
 40
7.10543e-15
 40
18
 40
18
 10
77.5359
 20
348.768
 30
0
 10
77.5359
 20
330.768
 30
0
  0
SPLINE
  5
D0F
330
A02
100
AcDbEntity
  8
View023
100
AcDbSpline
210
0
220
0
230
1
 70
8
 71
3
 72
29
 73
25
 74
0
 40
3.66519
 40
3.66519
 40
3.66519
 40
3.66519
 40
4.05789
 40
4.05789
 40
4.05789
 40
4.45059
 40
4.45059
 40
4.45059
 40
4.84329
 40
4.84329
 40
4.84329
 40
5.23599
 40
5.23599
 40
5.23599
 40
5.62869
 40
5.62869
 40
5.62869
 40
6.02139
 40
6.02139
 40
6.02139
 40
6.41409
 40
6.41409
 40
6.41409
 40
6.80678
 40
6.80678
 40
6.80678
 40
6.80678
 10
77.5359
 20
330.768
 30
0
 10
77.5347
 20
329.826
 30
0
 10
77.7064
 20
328.809
 30
0
 10
78.0976
 20
327.823
 30
0
 10
78.4855
 20
326.838
 30
0
 10
79.0961
 20
325.891
 30
0
 10
79.879
 20
325.111
 30
0
 10
80.6594
 20
324.328
 30
0
 10
81.606
 20
323.718
 30
0
 10
82.5911
 20
323.33
 30
0
 10
83.5769
 20
322.938
 30
0
 10
84.5942
 20
322.767
 30
0
 10
85.5359
 20
322.768
 30
0
 10
86.4776
 20
322.767
 30
0
 10
87.4949
 20
322.938
 30
0
 10
88.4806
 20
323.33
 30
0
 10
89.4658
 20
323.718
 30
0
 10
90.4124
 20
324.328
 30
0
 10
91.1927
 20
325.111
 30
0
 10
91.9757
 20
325.891
 30
0
 10
92.5863
 20
326.838
 30
0
 10
92.9742
 20
327.823
 30
0
 10
93.3654
 20
328.809
 30
0
 10
93.537
 20
329.826
 30
0
 10
93.5359
 20
330.768
 30
0
  0
SPLINE
  5
D10
330
A02
100
AcDbEntity
  8
View023
100
AcDbSpline
210
0
220
0
230
1
 70
8
 71
1
 72
4
 73
2
 74
0
 40
0
 40
0
 40
2
 40
2
 10
93.5359
 20
332.768
 30
0
 10
93.5359
 20
330.768
 30
0
  0
SPLINE
  5
D11
330
A02
100
AcDbEntity
  8
View023
100
AcDbSpline
210
0
220
0
230
1
 70
8
 71
1
 72
4
 73
2
 74
0
 40
0
 40
0
 40
8
 40
8
 10
85.5359
 20
332.768
 30
0
 10
93.5359
 20
332.768
 30
0
  0
SPLINE
  5
D12
330
A02
100
AcDbEntity
  8
View023
100
AcDbSpline
210
0
220
0
230
1
 70
8
 71
1
 72
4
 73
2
 74
0
 40
7.10543e-15
 40
7.10543e-15
 40
4
 40
4
 10
85.5359
 20
336.768
 30
0
 10
85.5359
 20
332.768
 30
0
  0
SPLINE
  5
D13
330
A02
100
AcDbEntity
  8
View023
100
AcDbSpline
210
0
220
0
230
1
 70
8
 71
1
 72
4
 73
2
 74
0
 40
6.15348e-15
 40
6.15348e-15
 40
8
 40
8
 10
93.5359
 20
336.768
 30
0
 10
85.5359
 20
336.768
 30
0
  0
SPLINE
  5
D14
330
A02
100
AcDbEntity
  8
View023
100
AcDbSpline
210
0
220
0
230
1
 70
8
 71
1
 72
4
 73
2
 74
0
 40
4.44089e-15
 40
4.44089e-15
 40
57.5
 40
57.5
 10
93.5359
 20
394.268
 30
0
 10
93.5359
 20
336.768
 30
0
  0
SPLINE
  5
D15
330
A02
100
AcDbEntity
  8
View023
100
AcDbSpline
210
0
220
0
230
1
 70
8
 71
1
 72
4
 73
2
 74
0
 40
0
 40
0
 40
4
 40
4
 10
89.5359
 20
394.268
 30
0
 10
93.5359
 20
394.268
 30
0
  0
SPLINE
  5
D16
330
A02
100
AcDbEntity
  8
View023
100
AcDbSpline
210
0
220
0
230
1
 70
8
 71
1
 72
4
 73
2
 74
0
 40
4.44089e-15
 40
4.44089e-15
 40
4
 40
4
 10
89.5359
 20
398.268
 30
0
 10
89.5359
 20
394.268
 30
0
  0
SPLINE
  5
D17
330
A02
100
AcDbEntity
  8
View023
100
AcDbSpline
210
0
220
0
230
1
 70
8
 71
1
 72
4
 73
2
 74
0
 40
3.84593e-15
 40
3.84593e-15
 40
2
 40
2
 10
91.5359
 20
398.268
 30
0
 10
89.5359
 20
398.268
 30
0
  0
SPLINE
  5
D18
330
A02
100
AcDbEntity
  8
View023
100
AcDbSpline
210
0
220
0
230
1
 70
8
 71
1
 72
4
 73
2
 74
0
 40
0
 40
0
 40
2
 40
2
 10
91.5359
 20
396.268
 30
0
 10
91.5359
 20
398.268
 30
0
  0
SPLINE
  5
D19
330
A02
100
AcDbEntity
  8
View023
100
AcDbSpline
210
0
220
0
230
1
 70
8
 71
1
 72
4
 73
2
 74
0
 40
4.23052e-15
 40
4.23052e-15
 40
2
 40
2
 10
93.5359
 20
396.268
 30
0
 10
91.5359
 20
396.268
 30
0
  0
SPLINE
  5
D1A
330
A02
100
AcDbEntity
  8
View023
100
AcDbSpline
210
0
220
0
230
1
 70
8
 71
1
 72
4
 73
2
 74
0
 40
0
 40
0
 40
53.5
 40
53.5
 10
93.5359
 20
449.768
 30
0
 10
93.5359
 20
396.268
 30
0
  0
SPLINE
  5
D1B
330
A02
100
AcDbEntity
  8
View023
100
AcDbSpline
210
0
220
0
230
1
 70
9
 71
3
 72
41
 73
37
 74
0
 40
0
 40
0
 40
0
 40
0
 40
0.523599
 40
0.523599
 40
0.523599
 40
1.0472
 40
1.0472
 40
1.0472
 40
1.5708
 40
1.5708
 40
1.5708
 40
2.0944
 40
2.0944
 40
2.0944
 40
2.61799
 40
2.61799
 40
2.61799
 40
3.14159
 40
3.14159
 40
3.14159
 40
3.66519
 40
3.66519
 40
3.66519
 40
4.18879
 40
4.18879
 40
4.18879
 40
4.71239
 40
4.71239
 40
4.71239
 40
5.23599
 40
5.23599
 40
5.23599
 40
5.75959
 40
5.75959
 40
5.75959
 40
6.28319
 40
6.28319
 40
6.28319
 40
6.28319
 10
86.8349
 20
330.018
 30
0
 10
86.9432
 20
330.205
 30
0
 10
87.0247
 20
330.443
 30
0
 10
87.0348
 20
330.71
 30
0
 10
87.0463
 20
330.976
 30
0
 10
86.9806
 20
331.268
 30
0
 10
86.8349
 20
331.518
 30
0
 10
86.6912
 20
331.769
 30
0
 10
86.4714
 20
331.972
 30
0
 10
86.2354
 20
332.095
 30
0
 10
85.9989
 20
332.22
 30
0
 10
85.7516
 20
332.268
 30
0
 10
85.5359
 20
332.268
 30
0
 10
85.3202
 20
332.268
 30
0
 10
85.0729
 20
332.22
 30
0
 10
84.8364
 20
332.095
 30
0
 10
84.6004
 20
331.972
 30
0
 10
84.3806
 20
331.769
 30
0
 10
84.2368
 20
331.518
 30
0
 10
84.0911
 20
331.268
 30
0
 10
84.0255
 20
330.976
 30
0
 10
84.037
 20
330.71
 30
0
 10
84.0471
 20
330.443
 30
0
 10
84.1286
 20
330.205
 30
0
 10
84.2368
 20
330.018
 30
0
 10
84.3443
 20
329.831
 30
0
 10
84.5101
 20
329.641
 30
0
 10
84.7365
 20
329.499
 30
0
 10
84.961
 20
329.356
 30
0
 10
85.2464
 20
329.267
 30
0
 10
85.5359
 20
329.268
 30
0
 10
85.8253
 20
329.267
 30
0
 10
86.1108
 20
329.356
 30
0
 10
86.3353
 20
329.499
 30
0
 10
86.5617
 20
329.641
 30
0
 10
86.7274
 20
329.831
 30
0
 10
86.8349
 20
330.018
 30
0
  0
LINE
  5
D1C
330
A02
100
AcDbEntity
  8
View026
100
AcDbLine
 10
179.5
 20
437
 30
0
 11
179.5
 21
455
 31
0
  0
LINE
  5
D1D
330
A02
100
AcDbEntity
  8
View026
100
AcDbLine
 10
179.5
 20
455
 30
0
 11
183.5
 21
455
 31
0
  0
LINE
  5
D1E
330
A02
100
AcDbEntity
  8
View026
100
AcDbLine
 10
183.5
 20
455
 30
0
 11
183.5
 21
459
 31
0
  0
LINE
  5
D1F
330
A02
100
AcDbEntity
  8
View026
100
AcDbLine
 10
183.5
 20
459
 30
0
 11
179.5
 21
459
 31
0
  0
ARC
  5
D20
330
A02
100
AcDbEntity
  8
View026
100
AcDbCircle
 10
183.5
 20
459
 30
0
 40
4
100
AcDbArc
 50
90
 51
180
  0
LINE
  5
D21
330
A02
100
AcDbEntity
  8
View026
100
AcDbLine
 10
183.5
 20
463
 30
0
 11
188.5
 21
463
 31
0
  0
ARC
  5
D22
330
A02
100
AcDbEntity
  8
View026
100
AcDbCircle
 10
188.5
 20
459
 30
0
 40
4
100
AcDbArc
 50
0
 51
90
  0
LINE
  5
D23
330
A02
100
AcDbEntity
  8
View026
100
AcDbLine
 10
192.5
 20
459
 30
0
 11
191.5
 21
459
 31
0
  0
LINE
  5
D24
330
A02
100
AcDbEntity
  8
View026
100
AcDbLine
 10
191.5
 20
459
 30
0
 11
191.5
 21
455
 31
0
  0
LINE
  5
D25
330
A02
100
AcDbEntity
  8
View026
100
AcDbLine
 10
191.5
 20
455
 30
0
 11
192.5
 21
455
 31
0
  0
LINE
  5
D26
330
A02
100
AcDbEntity
  8
View026
100
AcDbLine
 10
192.5
 20
455
 30
0
 11
192.5
 21
437
 31
0
  0
LINE
  5
D27
330
A02
100
AcDbEntity
  8
View026
100
AcDbLine
 10
192.5
 20
437
 30
0
 11
191.5
 21
437
 31
0
  0
LINE
  5
D28
330
A02
100
AcDbEntity
  8
View026
100
AcDbLine
 10
191.5
 20
437
 30
0
 11
191.5
 21
433
 31
0
  0
LINE
  5
D29
330
A02
100
AcDbEntity
  8
View026
100
AcDbLine
 10
191.5
 20
433
 30
0
 11
192.5
 21
433
 31
0
  0
ARC
  5
D2A
330
A02
100
AcDbEntity
  8
View026
100
AcDbCircle
 10
188.5
 20
433
 30
0
 40
4
100
AcDbArc
 50
-90
 51
0
  0
LINE
  5
D2B
330
A02
100
AcDbEntity
  8
View026
100
AcDbLine
 10
188.5
 20
429
 30
0
 11
183.5
 21
429
 31
0
  0
ARC
  5
D2C
330
A02
100
AcDbEntity
  8
View026
100
AcDbCircle
 10
183.5
 20
433
 30
0
 40
4
100
AcDbArc
 50
180
 51
-90
  0
LINE
  5
D2D
330
A02
100
AcDbEntity
  8
View026
100
AcDbLine
 10
179.5
 20
433
 30
0
 11
183.5
 21
433
 31
0
  0
LINE
  5
D2E
330
A02
100
AcDbEntity
  8
View026
100
AcDbLine
 10
183.5
 20
433
 30
0
 11
183.5
 21
437
 31
0
  0
LINE
  5
D2F
330
A02
100
AcDbEntity
  8
View026
100
AcDbLine
 10
183.5
 20
437
 30
0
 11
179.5
 21
437
 31
0
  0
LINE
  5
D30
330
A02
100
AcDbEntity
  8
View028
100
AcDbLine
 10
209.75
 20
395.701
 30
0
 11
209.75
 21
250.701
 31
0
  0
ARC
  5
D31
330
A02
100
AcDbEntity
  8
View028
100
AcDbCircle
 10
206.75
 20
395.701
 30
0
 40
3
100
AcDbArc
 50
0
 51
90
  0
ARC
  5
D32
330
A02
100
AcDbEntity
  8
View028
100
AcDbCircle
 10
206.75
 20
250.701
 30
0
 40
3
100
AcDbArc
 50
-90
 51
-5.42815e-13
  0
LINE
  5
D33
330
A02
100
AcDbEntity
  8
View028
100
AcDbLine
 10
197.75
 20
398.701
 30
0
 11
206.75
 21
398.701
 31
0
  0
LINE
  5
D34
330
A02
100
AcDbEntity
  8
View028
100
AcDbLine
 10
206.75
 20
247.701
 30
0
 11
197.75
 21
247.701
 31
0
  0
LINE
  5
D35
330
A02
100
AcDbEntity
  8
View028
100
AcDbLine
 10
197.75
 20
394.701
 30
0
 11
197.75
 21
398.701
 31
0
  0
LINE
  5
D36
330
A02
100
AcDbEntity
  8
View028
100
AcDbLine
 10
197.75
 20
247.701
 30
0
 11
197.75
 21
277.701
 31
0
  0
LINE
  5
D37
330
A02
100
AcDbEntity
  8
View028
100
AcDbLine
 10
197.75
 20
394.701
 30
0
 11
201.75
 21
394.701
 31
0
  0
LINE
  5
D38
330
A02
100
AcDbEntity
  8
View028
100
AcDbLine
 10
201.75
 20
277.701
 30
0
 11
197.75
 21
277.701
 31
0
  0
LINE
  5
D39
330
A02
100
AcDbEntity
  8
View028
100
AcDbLine
 10
201.75
 20
394.701
 30
0
 11
201.75
 21
386.701
 31
0
  0
LINE
  5
D3A
330
A02
100
AcDbEntity
  8
View028
100
AcDbLine
 10
201.75
 20
285.701
 30
0
 11
201.75
 21
277.701
 31
0
  0
LINE
  5
D3B
330
A02
100
AcDbEntity
  8
View028
100
AcDbLine
 10
201.75
 20
386.701
 30
0
 11
197.75
 21
386.701
 31
0
  0
LINE
  5
D3C
330
A02
100
AcDbEntity
  8
View028
100
AcDbLine
 10
197.75
 20
285.701
 30
0
 11
201.75
 21
285.701
 31
0
  0
LINE
  5
D3D
330
A02
100
AcDbEntity
  8
View028
100
AcDbLine
 10
197.75
 20
374.701
 30
0
 11
197.75
 21
386.701
 31
0
  0
LINE
  5
D3E
330
A02
100
AcDbEntity
  8
View028
100
AcDbLine
 10
197.75
 20
285.701
 30
0
 11
197.75
 21
372.701
 31
0
  0
LINE
  5
D3F
330
A02
100
AcDbEntity
  8
View028
100
AcDbLine
 10
201.75
 20
374.701
 30
0
 11
197.75
 21
374.701
 31
0
  0
LINE
  5
D40
330
A02
100
AcDbEntity
  8
View028
100
AcDbLine
 10
197.75
 20
372.701
 30
0
 11
199.75
 21
372.701
 31
0
  0
LINE
  5
D41
330
A02
100
AcDbEntity
  8
View028
100
AcDbLine
 10
201.75
 20
370.701
 30
0
 11
201.75
 21
374.701
 31
0
  0
LINE
  5
D42
330
A02
100
AcDbEntity
  8
View028
100
AcDbLine
 10
199.75
 20
372.701
 30
0
 11
199.75
 21
370.701
 31
0
  0
LINE
  5
D43
330
A02
100
AcDbEntity
  8
View028
100
AcDbLine
 10
199.75
 20
370.701
 30
0
 11
201.75
 21
370.701
 31
0
  0
CIRCLE
  5
D44
330
A02
100
AcDbEntity
  8
View028
100
AcDbCircle
 10
205.75
 20
254.701
 40
1.5
  0
LINE
  5
D45
330
A02
100
AcDbEntity
  8
View029
100
AcDbLine
 10
209.75
 20
242.701
 30
0
 11
209.75
 21
97.701
 31
0
  0
ARC
  5
D46
330
A02
100
AcDbEntity
  8
View029
100
AcDbCircle
 10
206.75
 20
242.701
 30
0
 40
3
100
AcDbArc
 50
0
 51
90
  0
ARC
  5
D47
330
A02
100
AcDbEntity
  8
View029
100
AcDbCircle
 10
206.75
 20
97.701
 30
0
 40
3
100
AcDbArc
 50
-90
 51
-8.14222e-13
  0
LINE
  5
D48
330
A02
100
AcDbEntity
  8
View029
100
AcDbLine
 10
197.75
 20
245.701
 30
0
 11
206.75
 21
245.701
 31
0
  0
LINE
  5
D49
330
A02
100
AcDbEntity
  8
View029
100
AcDbLine
 10
206.75
 20
94.701
 30
0
 11
197.75
 21
94.701
 31
0
  0
LINE
  5
D4A
330
A02
100
AcDbEntity
  8
View029
100
AcDbLine
 10
197.75
 20
241.701
 30
0
 11
197.75
 21
245.701
 31
0
  0
LINE
  5
D4B
330
A02
100
AcDbEntity
  8
View029
100
AcDbLine
 10
197.75
 20
94.701
 30
0
 11
197.75
 21
124.701
 31
0
  0
LINE
  5
D4C
330
A02
100
AcDbEntity
  8
View029
100
AcDbLine
 10
197.75
 20
241.701
 30
0
 11
201.75
 21
241.701
 31
0
  0
LINE
  5
D4D
330
A02
100
AcDbEntity
  8
View029
100
AcDbLine
 10
201.75
 20
124.701
 30
0
 11
197.75
 21
124.701
 31
0
  0
LINE
  5
D4E
330
A02
100
AcDbEntity
  8
View029
100
AcDbLine
 10
201.75
 20
241.701
 30
0
 11
201.75
 21
233.701
 31
0
  0
LINE
  5
D4F
330
A02
100
AcDbEntity
  8
View029
100
AcDbLine
 10
201.75
 20
132.701
 30
0
 11
201.75
 21
124.701
 31
0
  0
LINE
  5
D50
330
A02
100
AcDbEntity
  8
View029
100
AcDbLine
 10
201.75
 20
233.701
 30
0
 11
197.75
 21
233.701
 31
0
  0
LINE
  5
D51
330
A02
100
AcDbEntity
  8
View029
100
AcDbLine
 10
197.75
 20
132.701
 30
0
 11
201.75
 21
132.701
 31
0
  0
LINE
  5
D52
330
A02
100
AcDbEntity
  8
View029
100
AcDbLine
 10
197.75
 20
221.701
 30
0
 11
197.75
 21
233.701
 31
0
  0
LINE
  5
D53
330
A02
100
AcDbEntity
  8
View029
100
AcDbLine
 10
197.75
 20
132.701
 30
0
 11
197.75
 21
219.701
 31
0
  0
LINE
  5
D54
330
A02
100
AcDbEntity
  8
View029
100
AcDbLine
 10
201.75
 20
221.701
 30
0
 11
197.75
 21
221.701
 31
0
  0
LINE
  5
D55
330
A02
100
AcDbEntity
  8
View029
100
AcDbLine
 10
197.75
 20
219.701
 30
0
 11
199.75
 21
219.701
 31
0
  0
LINE
  5
D56
330
A02
100
AcDbEntity
  8
View029
100
AcDbLine
 10
201.75
 20
217.701
 30
0
 11
201.75
 21
221.701
 31
0
  0
LINE
  5
D57
330
A02
100
AcDbEntity
  8
View029
100
AcDbLine
 10
199.75
 20
219.701
 30
0
 11
199.75
 21
217.701
 31
0
  0
LINE
  5
D58
330
A02
100
AcDbEntity
  8
View029
100
AcDbLine
 10
199.75
 20
217.701
 30
0
 11
201.75
 21
217.701
 31
0
  0
CIRCLE
  5
D59
330
A02
100
AcDbEntity
  8
View029
100
AcDbCircle
 10
205.75
 20
101.701
 40
1.5
  0
LINE
  5
D5A
330
A02
100
AcDbEntity
  8
View030
100
AcDbLine
 10
196
 20
285
 30
0
 11
196
 21
286
 31
0
  0
LINE
  5
D5B
330
A02
100
AcDbEntity
  8
View030
100
AcDbLine
 10
196
 20
286
 30
0
 11
192
 21
286
 31
0
  0
LINE
  5
D5C
330
A02
100
AcDbEntity
  8
View030
100
AcDbLine
 10
192
 20
286
 30
0
 11
192
 21
290
 31
0
  0
LINE
  5
D5D
330
A02
100
AcDbEntity
  8
View030
100
AcDbLine
 10
192
 20
290
 30
0
 11
196
 21
290
 31
0
  0
LINE
  5
D5E
330
A02
100
AcDbEntity
  8
View030
100
AcDbLine
 10
196
 20
290
 30
0
 11
196
 21
326
 31
0
  0
LINE
  5
D5F
330
A02
100
AcDbEntity
  8
View030
100
AcDbLine
 10
196
 20
326
 30
0
 11
192
 21
326
 31
0
  0
LINE
  5
D60
330
A02
100
AcDbEntity
  8
View030
100
AcDbLine
 10
192
 20
326
 30
0
 11
192
 21
330
 31
0
  0
LINE
  5
D61
330
A02
100
AcDbEntity
  8
View030
100
AcDbLine
 10
192
 20
330
 30
0
 11
196
 21
330
 31
0
  0
LINE
  5
D62
330
A02
100
AcDbEntity
  8
View030
100
AcDbLine
 10
196
 20
330
 30
0
 11
196
 21
331
 31
0
  0
ELLIPSE
  5
D63
330
A02
100
AcDbEntity
  8
View030
100
AcDbEllipse
 10
193
 20
331
 30
0
 11
-1.64972e-09
 21
-3
 31
0
 40
1
 41
-4.71239
 42
-3.14159
  0
LINE
  5
D64
330
A02
100
AcDbEntity
  8
View030
100
AcDbLine
 10
193
 20
334
 30
0
 11
183
 21
334
 31
0
  0
ELLIPSE
  5
D65
330
A02
100
AcDbEntity
  8
View030
100
AcDbEllipse
 10
183
 20
331
 30
0
 11
-1.64972e-09
 21
-3
 31
0
 40
1
 41
-3.14159
 42
-1.5708
  0
LINE
  5
D66
330
A02
100
AcDbEntity
  8
View030
100
AcDbLine
 10
180
 20
331
 30
0
 11
180
 21
330
 31
0
  0
LINE
  5
D67
330
A02
100
AcDbEntity
  8
View030
100
AcDbLine
 10
180
 20
330
 30
0
 11
184
 21
330
 31
0
  0
LINE
  5
D68
330
A02
100
AcDbEntity
  8
View030
100
AcDbLine
 10
184
 20
326
 30
0
 11
184
 21
330
 31
0
  0
LINE
  5
D69
330
A02
100
AcDbEntity
  8
View030
100
AcDbLine
 10
184
 20
326
 30
0
 11
180
 21
326
 31
0
  0
LINE
  5
D6A
330
A02
100
AcDbEntity
  8
View030
100
AcDbLine
 10
180
 20
326
 30
0
 11
180
 21
290
 31
0
  0
LINE
  5
D6B
330
A02
100
AcDbEntity
  8
View030
100
AcDbLine
 10
180
 20
290
 30
0
 11
184
 21
290
 31
0
  0
LINE
  5
D6C
330
A02
100
AcDbEntity
  8
View030
100
AcDbLine
 10
184
 20
290
 30
0
 11
184
 21
286
 31
0
  0
LINE
  5
D6D
330
A02
100
AcDbEntity
  8
View030
100
AcDbLine
 10
184
 20
286
 30
0
 11
180
 21
286
 31
0
  0
LINE
  5
D6E
330
A02
100
AcDbEntity
  8
View030
100
AcDbLine
 10
180
 20
286
 30
0
 11
180
 21
285
 31
0
  0
ELLIPSE
  5
D6F
330
A02
100
AcDbEntity
  8
View030
100
AcDbEllipse
 10
183
 20
285
 30
0
 11
-1.64972e-09
 21
-3
 31
0
 40
1
 41
-1.5708
 42
5.49909e-10
  0
LINE
  5
D70
330
A02
100
AcDbEntity
  8
View030
100
AcDbLine
 10
183
 20
282
 30
0
 11
193
 21
282
 31
0
  0
ELLIPSE
  5
D71
330
A02
100
AcDbEntity
  8
View030
100
AcDbEllipse
 10
193
 20
285
 30
0
 11
-1.64972e-09
 21
-3
 31
0
 40
1
 41
-6.28319
 42
-4.71239
  0
LINE
  5
D72
330
A02
100
AcDbEntity
  8
View031
100
AcDbLine
 10
196
 20
340
 30
0
 11
196
 21
341
 31
0
  0
LINE
  5
D73
330
A02
100
AcDbEntity
  8
View031
100
AcDbLine
 10
196
 20
341
 30
0
 11
192
 21
341
 31
0
  0
LINE
  5
D74
330
A02
100
AcDbEntity
  8
View031
100
AcDbLine
 10
192
 20
341
 30
0
 11
192
 21
345
 31
0
  0
LINE
  5
D75
330
A02
100
AcDbEntity
  8
View031
100
AcDbLine
 10
192
 20
345
 30
0
 11
196
 21
345
 31
0
  0
LINE
  5
D76
330
A02
100
AcDbEntity
  8
View031
100
AcDbLine
 10
196
 20
345
 30
0
 11
196
 21
381
 31
0
  0
LINE
  5
D77
330
A02
100
AcDbEntity
  8
View031
100
AcDbLine
 10
196
 20
381
 30
0
 11
192
 21
381
 31
0
  0
LINE
  5
D78
330
A02
100
AcDbEntity
  8
View031
100
AcDbLine
 10
192
 20
381
 30
0
 11
192
 21
385
 31
0
  0
LINE
  5
D79
330
A02
100
AcDbEntity
  8
View031
100
AcDbLine
 10
192
 20
385
 30
0
 11
196
 21
385
 31
0
  0
LINE
  5
D7A
330
A02
100
AcDbEntity
  8
View031
100
AcDbLine
 10
196
 20
385
 30
0
 11
196
 21
386
 31
0
  0
ELLIPSE
  5
D7B
330
A02
100
AcDbEntity
  8
View031
100
AcDbEllipse
 10
193
 20
386
 30
0
 11
-1.64972e-09
 21
-3
 31
0
 40
1
 41
-4.71239
 42
-3.14159
  0
LINE
  5
D7C
330
A02
100
AcDbEntity
  8
View031
100
AcDbLine
 10
193
 20
389
 30
0
 11
183
 21
389
 31
0
  0
ELLIPSE
  5
D7D
330
A02
100
AcDbEntity
  8
View031
100
AcDbEllipse
 10
183
 20
386
 30
0
 11
-1.64972e-09
 21
-3
 31
0
 40
1
 41
-3.14159
 42
-1.5708
  0
LINE
  5
D7E
330
A02
100
AcDbEntity
  8
View031
100
AcDbLine
 10
180
 20
386
 30
0
 11
180
 21
385
 31
0
  0
LINE
  5
D7F
330
A02
100
AcDbEntity
  8
View031
100
AcDbLine
 10
180
 20
385
 30
0
 11
184
 21
385
 31
0
  0
LINE
  5
D80
330
A02
100
AcDbEntity
  8
View031
100
AcDbLine
 10
184
 20
381
 30
0
 11
184
 21
385
 31
0
  0
LINE
  5
D81
330
A02
100
AcDbEntity
  8
View031
100
AcDbLine
 10
184
 20
381
 30
0
 11
180
 21
381
 31
0
  0
LINE
  5
D82
330
A02
100
AcDbEntity
  8
View031
100
AcDbLine
 10
180
 20
381
 30
0
 11
180
 21
345
 31
0
  0
LINE
  5
D83
330
A02
100
AcDbEntity
  8
View031
100
AcDbLine
 10
180
 20
345
 30
0
 11
184
 21
345
 31
0
  0
LINE
  5
D84
330
A02
100
AcDbEntity
  8
View031
100
AcDbLine
 10
184
 20
345
 30
0
 11
184
 21
341
 31
0
  0
LINE
  5
D85
330
A02
100
AcDbEntity
  8
View031
100
AcDbLine
 10
184
 20
341
 30
0
 11
180
 21
341
 31
0
  0
LINE
  5
D86
330
A02
100
AcDbEntity
  8
View031
100
AcDbLine
 10
180
 20
341
 30
0
 11
180
 21
340
 31
0
  0
ELLIPSE
  5
D87
330
A02
100
AcDbEntity
  8
View031
100
AcDbEllipse
 10
183
 20
340
 30
0
 11
-1.64972e-09
 21
-3
 31
0
 40
1
 41
-1.5708
 42
5.49909e-10
  0
LINE
  5
D88
330
A02
100
AcDbEntity
  8
View031
100
AcDbLine
 10
183
 20
337
 30
0
 11
193
 21
337
 31
0
  0
ELLIPSE
  5
D89
330
A02
100
AcDbEntity
  8
View031
100
AcDbEllipse
 10
193
 20
340
 30
0
 11
-1.64972e-09
 21
-3
 31
0
 40
1
 41
-6.28319
 42
-4.71239
  0
ELLIPSE
  5
D8A
330
A02
100
AcDbEntity
  8
View032
100
AcDbEllipse
 10
191
 20
396
 30
0
 11
1.37477e-09
 21
5
 31
0
 40
1
 41
-3.14159
 42
-1.5708
  0
LINE
  5
D8B
330
A02
100
AcDbEntity
  8
View032
100
AcDbLine
 10
196
 20
396
 30
0
 11
196
 21
422
 31
0
  0
ELLIPSE
  5
D8C
330
A02
100
AcDbEntity
  8
View032
100
AcDbEllipse
 10
191
 20
422
 30
0
 11
1.37477e-09
 21
5
 31
0
 40
1
 41
-1.5708
 42
8.24858e-10
  0
LINE
  5
D8D
330
A02
100
AcDbEntity
  8
View032
100
AcDbLine
 10
191
 20
427
 30
0
 11
185
 21
427
 31
0
  0
ELLIPSE
  5
D8E
330
A02
100
AcDbEntity
  8
View032
100
AcDbEllipse
 10
185
 20
422
 30
0
 11
1.37477e-09
 21
5
 31
0
 40
1
 41
-6.28319
 42
-4.71239
  0
LINE
  5
D8F
330
A02
100
AcDbEntity
  8
View032
100
AcDbLine
 10
180
 20
422
 30
0
 11
188
 21
422
 31
0
  0
LINE
  5
D90
330
A02
100
AcDbEntity
  8
View032
100
AcDbLine
 10
188
 20
422
 30
0
 11
188
 21
418
 31
0
  0
LINE
  5
D91
330
A02
100
AcDbEntity
  8
View032
100
AcDbLine
 10
188
 20
418
 30
0
 11
180
 21
418
 31
0
  0
LINE
  5
D92
330
A02
100
AcDbEntity
  8
View032
100
AcDbLine
 10
180
 20
418
 30
0
 11
180
 21
400
 31
0
  0
LINE
  5
D93
330
A02
100
AcDbEntity
  8
View032
100
AcDbLine
 10
180
 20
400
 30
0
 11
188
 21
400
 31
0
  0
LINE
  5
D94
330
A02
100
AcDbEntity
  8
View032
100
AcDbLine
 10
188
 20
400
 30
0
 11
188
 21
396
 31
0
  0
LINE
  5
D95
330
A02
100
AcDbEntity
  8
View032
100
AcDbLine
 10
188
 20
396
 30
0
 11
180
 21
396
 31
0
  0
ELLIPSE
  5
D96
330
A02
100
AcDbEntity
  8
View032
100
AcDbEllipse
 10
185
 20
396
 30
0
 11
1.37477e-09
 21
5
 31
0
 40
1
 41
-4.71239
 42
-3.14159
  0
LINE
  5
D97
330
A02
100
AcDbEntity
  8
View032
100
AcDbLine
 10
191
 20
391
 30
0
 11
185
 21
391
 31
0
  0
ENDSEC
  0
SECTION
  2
OBJECTS
  0
DICTIONARY
  5
F000
330
0
100
AcDbDictionary
  3
ACAD_GROUP
350
F001
  0
DICTIONARY
  5
F001
330
F000
100
AcDbDictionary
  0
ENDSEC
  0
EOF