<?xml version="1.0" encoding="UTF-8" standalone="no"?>
<svg
     height="297mm"
     width="210mm"
     version="1.2"
     viewBox="0 0 2100 2970"
     id="svg27"
     sodipodi:docname="case_layer-4_mod_small_cover.svg"
     inkscape:version="1.2.2 (1:1.2.2+202212051551+b0a8486541)"
     xmlns:inkscape="http://www.inkscape.org/namespaces/inkscape"
     xmlns:sodipodi="http://sodipodi.sourceforge.net/DTD/sodipodi-0.dtd"
     xmlns:xlink="http://www.w3.org/1999/xlink"
     xmlns="http://www.w3.org/2000/svg"
     xmlns:svg="http://www.w3.org/2000/svg"
     xmlns:rdf="http://www.w3.org/1999/02/22-rdf-syntax-ns#"
     xmlns:cc="http://creativecommons.org/ns#"
     xmlns:dc="http://purl.org/dc/elements/1.1/">
    <title
         id="title2">FreeCAD SVG Export</title>
    <desc
         id="desc4">Drawing page: Page001 exported from FreeCAD document: case_drawings</desc>
    <defs
         id="defs6" />
    <g
         inkscape:label="TechDraw"
         inkscape:groupmode="layer"
         id="Page001">
        <g
             transform="scale(10)"
             id="A4_LandscapeTD_cc_by_stefan.svg"
             style="stroke:none">
            <sodipodi:namedview
                 showgrid="false"
                 inkscape:current-layer="Page001"
                 inkscape:window-width="3840"
                 inkscape:pagecheckerboard="true"
                 inkscape:cy="805.30144"
                 inkscape:document-units="mm"
                 inkscape:showpageshadow="false"
                 inkscape:window-maximized="1"
                 guidetolerance="10"
                 inkscape:document-rotation="0"
                 inkscape:window-y="0"
                 gridtolerance="10"
                 inkscape:zoom="2.0383671"
                 pagecolor="#ffffff"
                 bordercolor="#666666"
                 inkscape:window-x="1"
                 inkscape:cx="299.50443"
                 inkscape:pageshadow="2"
                 inkscape:window-height="2087"
                 inkscape:pageopacity="0"
                 objecttolerance="10"
                 borderopacity="1"
                 id="namedview221"
                 units="mm"
                 inkscape:deskcolor="#d1d1d1">
                <inkscape:grid
                     id="grid811"
                     type="xygrid"
                     originx="0"
                     originy="0" />
            </sodipodi:namedview>
            <!-- Working space 10 10 410 287 -->
            <!-- Title block 220 227 410 287 -->
            <metadata
                 id="metadata849">
                <rdf:RDF>
                    <cc:Work
                         rdf:about="">
                        <dc:format>image/svg+xml</dc:format>
                        <dc:type
                             rdf:resource="http://purl.org/dc/dcmitype/StillImage" />
                        <dc:title>FreeCAD SVG Export</dc:title>
                        <dc:date>23.09.2023</dc:date>
                        <dc:creator>
                            <cc:Agent>
                                <dc:title>Stefan Krüger</dc:title>
                            </cc:Agent>
                        </dc:creator>
                        <dc:rights>
                            <cc:Agent>
                                <dc:title>Stefan Krüger</dc:title>
                            </cc:Agent>
                        </dc:rights>
                        <dc:publisher>
                            <cc:Agent>
                                <dc:title>Stefan Krüger</dc:title>
                            </cc:Agent>
                        </dc:publisher>
                        <dc:language>EN / DE</dc:language>
                        <cc:license
                             rdf:resource="http://creativecommons.org/licenses/by/4.0/" />
                    </cc:Work>
                    <cc:License
                         rdf:about="http://creativecommons.org/licenses/by/4.0/">
                        <cc:permits
                             rdf:resource="http://creativecommons.org/ns#Reproduction" />
                        <cc:permits
                             rdf:resource="http://creativecommons.org/ns#Distribution" />
                        <cc:requires
                             rdf:resource="http://creativecommons.org/ns#Notice" />
                        <cc:requires
                             rdf:resource="http://creativecommons.org/ns#Attribution" />
                        <cc:permits
                             rdf:resource="http://creativecommons.org/ns#DerivativeWorks" />
                    </cc:License>
                </rdf:RDF>
            </metadata>
            <defs
                 id="defs847" />
            <!-- DrawingContent -->
        </g>
        <path
             id="path2143"
             style="font-style:normal;font-weight:400;font-size:42.3333px;font-family:'Noto Sans';fill:none;fill-opacity:1;stroke:#000000;stroke-width:1;stroke-linecap:square;stroke-linejoin:bevel"
             d="m -285.02791,138.9501 h -299.37191 c -4.36749,23.98437 -7.89881,48.12096 -10.39213,72.39351 -2.267,22.08064 -10.61325,43.09979 -24.11222,60.71981 -17.18794,22.43404 -15.76997,53.97276 3.35897,74.7758 10.18297,11.07367 15.83366,25.56854 15.83366,40.61251 0,0.50506 0.0887,0.99495 0.0982,1.49862 h 105.90051 117.99797 105.90568 c 0.01,-0.50367 0.0982,-0.99356 0.0982,-1.49862 0,-15.04397 5.65068,-29.53884 15.83365,-40.61251 19.12897,-20.80304 20.54694,-52.34176 3.35897,-74.7758 -13.49894,-17.62002 -21.85039,-38.63917 -24.11739,-60.71981 -2.49331,-24.27255 -6.02464,-48.40914 -10.39213,-72.39351 z m -287.6827,151.4998 c 0.58681,0 1.16483,0.0298 1.73633,0.0879 0.5715,0.058 1.13648,0.14515 1.68982,0.25838 0.55333,0.11323 1.09548,0.25301 1.62781,0.41858 0.53232,0.16557 1.05216,0.35854 1.56063,0.57361 0.50844,0.21506 1.00652,0.45142 1.48828,0.71313 0.48175,0.26171 0.94823,0.54716 1.40043,0.85266 0.4522,0.30551 0.88761,0.63542 1.30741,0.98185 0.4198,0.34646 0.82468,0.711 1.20923,1.09555 0.38455,0.38452 0.74909,0.78426 1.09554,1.20406 0.34645,0.4198 0.67121,0.86037 0.97668,1.31258 0.3055,0.4522 0.59096,0.91867 0.85267,1.40043 0.2617,0.48176 0.50324,0.97982 0.7183,1.48828 0.21506,0.50846 0.40287,1.02831 0.56844,1.56063 0.16557,0.53232 0.30535,1.07448 0.41858,1.62781 0.11322,0.55332 0.20034,1.11833 0.25838,1.68982 0.058,0.57146 0.0879,1.14952 0.0879,1.73632 0,0.5868 -0.0298,1.16484 -0.0879,1.73633 -0.058,0.57149 -0.14516,1.13649 -0.25838,1.68982 -0.11323,0.55333 -0.25301,1.09549 -0.41858,1.62781 -0.16557,0.53232 -0.35338,1.05733 -0.56844,1.56579 -0.21506,0.50847 -0.4566,1.00136 -0.7183,1.48312 -0.26171,0.48175 -0.54717,0.94823 -0.85267,1.40043 -0.30547,0.4522 -0.63023,0.89278 -0.97668,1.31258 -0.34645,0.4198 -0.71099,0.81951 -1.09554,1.20406 -0.38455,0.38455 -0.78943,0.75426 -1.20923,1.10071 -0.4198,0.34645 -0.85521,0.67118 -1.30741,0.97668 -0.4522,0.30551 -0.91868,0.59096 -1.40043,0.85267 -0.48176,0.2617 -0.97984,0.49807 -1.48828,0.71313 -0.50847,0.21506 -1.02831,0.40804 -1.56063,0.57361 -0.53233,0.16557 -1.07448,0.30535 -1.62781,0.41858 -0.55334,0.11323 -1.11832,0.20034 -1.68982,0.25838 -0.5715,0.058 -1.14952,0.0879 -1.73633,0.0879 -0.58681,0 -1.17,-0.0298 -1.74149,-0.0879 -0.5715,-0.058 -1.13132,-0.14515 -1.68466,-0.25838 -0.55333,-0.11323 -1.10065,-0.25301 -1.63297,-0.41858 -0.53232,-0.16557 -1.05216,-0.35855 -1.56063,-0.57361 -0.50846,-0.21506 -1.00136,-0.45143 -1.48311,-0.71313 -0.48176,-0.26171 -0.9534,-0.54716 -1.4056,-0.85267 -0.4522,-0.3055 -0.88762,-0.63023 -1.30742,-0.97668 -0.41979,-0.34645 -0.82468,-0.71616 -1.20922,-1.10071 -0.38455,-0.38455 -0.7491,-0.78426 -1.09554,-1.20406 -0.34645,-0.4198 -0.67119,-0.86038 -0.97669,-1.31258 -0.3055,-0.4522 -0.59096,-0.91868 -0.85266,-1.40043 -0.2617,-0.48176 -0.50324,-0.97465 -0.7183,-1.48312 -0.21506,-0.50846 -0.40288,-1.03347 -0.56844,-1.56579 -0.16557,-0.53232 -0.30536,-1.07448 -0.41858,-1.62781 -0.11323,-0.55333 -0.20035,-1.11833 -0.25838,-1.68982 -0.058,-0.57149 -0.0879,-1.14953 -0.0879,-1.73633 0,-0.5868 0.0298,-1.16486 0.0879,-1.73632 0.058,-0.57149 0.14515,-1.1365 0.25838,-1.68982 0.11322,-0.55333 0.25301,-1.09549 0.41858,-1.62781 0.16556,-0.53232 0.35338,-1.05217 0.56844,-1.56063 0.21506,-0.50846 0.4566,-1.00652 0.7183,-1.48828 0.2617,-0.48176 0.54716,-0.94823 0.85266,-1.40043 0.3055,-0.45221 0.63024,-0.89278 0.97669,-1.31258 0.34644,-0.4198 0.71099,-0.81954 1.09554,-1.20406 0.38454,-0.38455 0.78943,-0.74909 1.20922,-1.09555 0.4198,-0.34643 0.85522,-0.67634 1.30742,-0.98185 0.4522,-0.3055 0.92384,-0.59095 1.4056,-0.85266 0.48175,-0.26171 0.97465,-0.49807 1.48311,-0.71313 0.50847,-0.21507 1.02831,-0.40804 1.56063,-0.57361 0.53232,-0.16557 1.07964,-0.30535 1.63297,-0.41858 0.55334,-0.11323 1.11316,-0.20034 1.68466,-0.25838 0.57149,-0.058 1.15468,-0.0879 1.74149,-0.0879 z m 275.99866,0 c 0.58681,0 1.16483,0.0298 1.73633,0.0879 0.5715,0.058 1.13648,0.14515 1.68982,0.25838 0.55333,0.11323 1.09549,0.25301 1.6278,0.41858 0.53233,0.16557 1.05217,0.35854 1.56063,0.57361 0.50847,0.21506 1.00653,0.45142 1.48828,0.71313 0.48176,0.26171 0.94823,0.54716 1.40044,0.85266 0.4522,0.30551 0.88761,0.63541 1.30741,0.98185 0.4198,0.34646 0.82468,0.711 1.20923,1.09555 0.38454,0.38453 0.74909,0.78426 1.09554,1.20406 0.34644,0.4198 0.67635,0.86037 0.98185,1.31258 0.3055,0.4522 0.59096,0.91867 0.85266,1.40043 0.2617,0.48176 0.49808,0.97982 0.71314,1.48828 0.21505,0.50846 0.40804,1.02831 0.5736,1.56063 0.16557,0.53232 0.30536,1.07448 0.41858,1.62781 0.11323,0.55332 0.20035,1.11833 0.25839,1.68982 0.058,0.57147 0.0879,1.14952 0.0879,1.73632 0,0.5868 -0.0298,1.16484 -0.0879,1.73633 -0.058,0.57149 -0.14516,1.13649 -0.25839,1.68982 -0.11322,0.55333 -0.25301,1.09549 -0.41858,1.62781 -0.16556,0.53232 -0.35855,1.05733 -0.5736,1.56579 -0.21506,0.50847 -0.45144,1.00136 -0.71314,1.48312 -0.2617,0.48175 -0.54716,0.94823 -0.85266,1.40043 -0.3055,0.4522 -0.63541,0.89278 -0.98185,1.31258 -0.34645,0.4198 -0.711,0.81951 -1.09554,1.20406 -0.38455,0.38455 -0.78943,0.75426 -1.20923,1.10071 -0.4198,0.34645 -0.85521,0.67118 -1.30741,0.97668 -0.45221,0.30551 -0.91868,0.59096 -1.40044,0.85267 -0.48175,0.2617 -0.97981,0.49807 -1.48828,0.71313 -0.50846,0.21506 -1.0283,0.40804 -1.56063,0.57361 -0.53231,0.16557 -1.07447,0.30535 -1.6278,0.41858 -0.55334,0.11323 -1.11832,0.20034 -1.68982,0.25838 -0.5715,0.058 -1.14952,0.0879 -1.73633,0.0879 -0.58681,0 -1.17,-0.0298 -1.7415,-0.0879 -0.57149,-0.058 -1.13131,-0.14515 -1.68465,-0.25838 -0.55333,-0.11323 -1.09548,-0.25301 -1.62781,-0.41858 -0.53231,-0.16557 -1.05733,-0.35855 -1.56579,-0.57361 -0.50847,-0.21506 -1.00137,-0.45143 -1.48311,-0.71313 -0.48176,-0.26171 -0.94823,-0.54716 -1.40044,-0.85267 -0.4522,-0.3055 -0.89278,-0.63023 -1.31258,-0.97668 -0.4198,-0.34645 -0.81951,-0.71616 -1.20406,-1.10071 -0.38455,-0.38455 -0.75426,-0.78426 -1.10071,-1.20406 -0.34644,-0.4198 -0.67118,-0.86038 -0.97668,-1.31258 -0.3055,-0.4522 -0.59096,-0.91868 -0.85266,-1.40043 -0.2617,-0.48176 -0.49808,-0.97465 -0.71314,-1.48312 -0.21506,-0.50846 -0.40804,-1.03347 -0.57361,-1.56579 -0.16556,-0.53232 -0.30535,-1.07448 -0.41857,-1.62781 -0.11323,-0.55333 -0.20035,-1.11833 -0.25839,-1.68982 -0.058,-0.57149 -0.0879,-1.14953 -0.0879,-1.73633 0,-0.5868 0.0298,-1.16485 0.0879,-1.73632 0.058,-0.57149 0.14516,-1.1365 0.25839,-1.68982 0.11322,-0.55333 0.25301,-1.09549 0.41857,-1.62781 0.16557,-0.53232 0.35855,-1.05217 0.57361,-1.56063 0.21506,-0.50846 0.45144,-1.00652 0.71314,-1.48828 0.2617,-0.48176 0.54716,-0.94823 0.85266,-1.40043 0.3055,-0.45221 0.63024,-0.89278 0.97668,-1.31258 0.34645,-0.4198 0.71616,-0.81953 1.10071,-1.20406 0.38455,-0.38455 0.78426,-0.74909 1.20406,-1.09555 0.4198,-0.34644 0.86038,-0.67634 1.31258,-0.98185 0.45221,-0.3055 0.91868,-0.59095 1.40044,-0.85266 0.48174,-0.26171 0.97464,-0.49807 1.48311,-0.71313 0.50846,-0.21507 1.03348,-0.40804 1.56579,-0.57361 0.53233,-0.16557 1.07448,-0.30535 1.62781,-0.41858 0.55334,-0.11323 1.11316,-0.20034 1.68465,-0.25838 0.5715,-0.058 1.15469,-0.0879 1.7415,-0.0879 z"
             inkscape:tile-cx="325.28874"
             inkscape:tile-cy="263.95022"
             inkscape:tile-w="392.38226"
             inkscape:tile-h="250.00024"
             inkscape:tile-x0="129.09761"
             inkscape:tile-y0="138.9501" />
        <g
             id="g2542"
             transform="translate(57.661407,96.048679)">
            <use
                 x="0"
                 y="0"
                 inkscape:tiled-clone-of="#path2143"
                 xlink:href="#path2143"
                 id="use2488"
                 transform="translate(760)" />
            <use
                 x="0"
                 y="0"
                 inkscape:tiled-clone-of="#path2143"
                 xlink:href="#path2143"
                 transform="translate(760,450.00044)"
                 id="use2490" />
            <use
                 x="0"
                 y="0"
                 inkscape:tiled-clone-of="#path2143"
                 xlink:href="#path2143"
                 transform="translate(760,900.00088)"
                 id="use2492" />
            <use
                 x="0"
                 y="0"
                 inkscape:tiled-clone-of="#path2143"
                 xlink:href="#path2143"
                 transform="translate(760,1350.0013)"
                 id="use2494" />
            <use
                 x="0"
                 y="0"
                 inkscape:tiled-clone-of="#path2143"
                 xlink:href="#path2143"
                 transform="translate(760,1800.0018)"
                 id="use2496" />
            <use
                 x="0"
                 y="0"
                 inkscape:tiled-clone-of="#path2143"
                 xlink:href="#path2143"
                 transform="translate(760,2250.0022)"
                 id="use2498" />
            <use
                 x="0"
                 y="0"
                 inkscape:tiled-clone-of="#path2143"
                 xlink:href="#path2143"
                 transform="translate(1427.0498)"
                 id="use2500" />
            <use
                 x="0"
                 y="0"
                 inkscape:tiled-clone-of="#path2143"
                 xlink:href="#path2143"
                 transform="translate(1427.0498,450.00044)"
                 id="use2502" />
            <use
                 x="0"
                 y="0"
                 inkscape:tiled-clone-of="#path2143"
                 xlink:href="#path2143"
                 transform="translate(1427.0498,900.00088)"
                 id="use2504" />
            <use
                 x="0"
                 y="0"
                 inkscape:tiled-clone-of="#path2143"
                 xlink:href="#path2143"
                 transform="translate(1427.0498,1350.0013)"
                 id="use2506" />
            <use
                 x="0"
                 y="0"
                 inkscape:tiled-clone-of="#path2143"
                 xlink:href="#path2143"
                 transform="translate(1427.0498,1800.0018)"
                 id="use2508" />
            <use
                 x="0"
                 y="0"
                 inkscape:tiled-clone-of="#path2143"
                 xlink:href="#path2143"
                 transform="translate(1427.0498,2250.0022)"
                 id="use2510" />
            <use
                 x="0"
                 y="0"
                 inkscape:tiled-clone-of="#path2143"
                 xlink:href="#path2143"
                 transform="translate(2094.0997)"
                 id="use2512" />
            <use
                 x="0"
                 y="0"
                 inkscape:tiled-clone-of="#path2143"
                 xlink:href="#path2143"
                 transform="translate(2094.0997,450.00044)"
                 id="use2514" />
            <use
                 x="0"
                 y="0"
                 inkscape:tiled-clone-of="#path2143"
                 xlink:href="#path2143"
                 transform="translate(2094.0997,900.00088)"
                 id="use2516" />
            <use
                 x="0"
                 y="0"
                 inkscape:tiled-clone-of="#path2143"
                 xlink:href="#path2143"
                 transform="translate(2094.0997,1350.0013)"
                 id="use2518" />
            <use
                 x="0"
                 y="0"
                 inkscape:tiled-clone-of="#path2143"
                 xlink:href="#path2143"
                 transform="translate(2094.0997,1800.0018)"
                 id="use2520" />
            <use
                 x="0"
                 y="0"
                 inkscape:tiled-clone-of="#path2143"
                 xlink:href="#path2143"
                 transform="translate(2094.0997,2250.0022)"
                 id="use2522" />
        </g>
    </g>
</svg>
