999
"DXF R12 Output" (www.mydxf.blogspot.com)
 0 
SECTION
 2 
HEADER
 9 
$ACADVER
 1 
AC1009
 9 
$EXTMIN
 10 
 0 
 20 
 0 
 9 
$EXTMAX
 10 
 8.5 
 20 
 11 
 0 
ENDSEC
 0 
SECTION
 2 
ENTITIES
0
LINE
8
Layer 1
10
79.688600
20
82.659400
11
80.378600
21
82.659400
0
LINE
8
Layer 1
10
80.378600
20
82.659400
11
80.378600
21
97.158300
0
LINE
8
Layer 1
10
80.378600
20
97.158300
11
77.666000
21
97.158300
0
LINE
8
Layer 1
10
77.666000
20
97.158300
11
76.421151
21
96.959947
0
LINE
8
Layer 1
10
76.421151
20
96.959947
11
75.323636
21
96.400750
0
LINE
8
Layer 1
10
75.323636
20
96.400750
11
74.447936
21
95.534503
0
LINE
8
Layer 1
10
74.447936
20
95.534503
11
73.868530
21
94.415000
0
LINE
8
Layer 1
10
73.868530
20
94.415000
11
72.733045
21
90.675247
0
LINE
8
Layer 1
10
72.733045
20
90.675247
11
71.784909
21
86.886125
0
LINE
8
Layer 1
10
71.784909
20
86.886125
11
71.025696
21
83.054666
0
LINE
8
Layer 1
10
71.025696
20
83.054666
11
70.456980
21
79.187900
0
LINE
8
Layer 1
10
70.456980
20
79.187900
11
70.150270
21
77.586367
0
LINE
8
Layer 1
10
70.150270
20
77.586367
11
69.632101
21
76.048066
0
LINE
8
Layer 1
10
69.632101
20
76.048066
11
68.911074
21
74.593767
0
LINE
8
Layer 1
10
68.911074
20
74.593767
11
67.995790
21
73.244240
0
LINE
8
Layer 1
10
67.995790
20
73.244240
11
67.425582
21
72.362810
0
LINE
8
Layer 1
10
67.425582
20
72.362810
11
67.030878
21
71.416934
0
LINE
8
Layer 1
10
67.030878
20
71.416934
11
66.810731
21
70.430385
0
LINE
8
Layer 1
10
66.810731
20
70.430385
11
66.764195
21
69.426934
0
LINE
8
Layer 1
10
66.764195
20
69.426934
11
66.890324
21
68.430354
0
LINE
8
Layer 1
10
66.890324
20
68.430354
11
67.188172
21
67.464419
0
LINE
8
Layer 1
10
67.188172
20
67.464419
11
67.656793
21
66.552900
0
LINE
8
Layer 1
10
67.656793
20
66.552900
11
68.295240
21
65.719570
0
LINE
8
Layer 1
10
68.295240
20
65.719570
11
68.972235
21
64.829378
0
LINE
8
Layer 1
10
68.972235
20
64.829378
11
69.468800
21
63.837811
0
LINE
8
Layer 1
10
69.468800
20
63.837811
11
69.774438
21
62.771801
0
LINE
8
Layer 1
10
69.774438
20
62.771801
11
69.878650
21
61.658280
0
LINE
8
Layer 1
10
69.878650
20
61.658280
11
70.150843
21
59.588602
0
LINE
8
Layer 1
10
70.150843
20
59.588602
11
70.932704
21
57.689230
0
LINE
8
Layer 1
10
70.932704
20
57.689230
11
72.172152
21
56.051308
0
LINE
8
Layer 1
10
72.172152
20
56.051308
11
73.817110
21
54.765980
0
LINE
8
Layer 1
10
73.817110
20
54.765980
11
74.784773
21
54.098563
0
LINE
8
Layer 1
10
74.784773
20
54.098563
11
75.643730
21
53.304667
0
LINE
8
Layer 1
10
75.643730
20
53.304667
11
76.381787
21
52.397278
0
LINE
8
Layer 1
10
76.381787
20
52.397278
11
76.986750
21
51.389380
0
LINE
8
Layer 1
10
76.986750
20
51.389380
11
77.458656
21
50.934117
0
LINE
8
Layer 1
10
77.458656
20
50.934117
11
78.111140
21
50.869080
0
LINE
8
Layer 1
10
78.111140
20
50.869080
11
78.663664
21
51.222142
0
LINE
8
Layer 1
10
78.663664
20
51.222142
11
78.878650
21
51.841680
0
LINE
8
Layer 1
10
78.878650
20
51.841680
11
78.878600
21
55.858300
0
LINE
8
Layer 1
10
78.878600
20
55.858300
11
79.012959
21
56.949775
0
LINE
8
Layer 1
10
79.012959
20
56.949775
11
79.408010
21
57.976000
0
LINE
8
Layer 1
10
79.408010
20
57.976000
11
79.878600
21
58.858300
0
LINE
8
Layer 1
10
79.878600
20
58.858300
11
80.326324
21
60.021400
0
LINE
8
Layer 1
10
80.326324
20
60.021400
11
80.478600
21
61.258300
0
LINE
8
Layer 1
10
80.478600
20
61.258300
11
80.478600
21
61.358300
0
LINE
8
Layer 1
10
80.478600
20
61.358300
11
79.688600
21
61.358300
0
LINE
8
Layer 1
10
79.688600
20
61.358300
11
78.715484
21
61.554764
0
LINE
8
Layer 1
10
78.715484
20
61.554764
11
77.920830
21
62.090538
0
LINE
8
Layer 1
10
77.920830
20
62.090538
11
77.385061
21
62.885192
0
LINE
8
Layer 1
10
77.385061
20
62.885192
11
77.188600
21
63.858300
0
LINE
8
Layer 1
10
77.188600
20
63.858300
11
77.188600
21
80.159400
0
LINE
8
Layer 1
10
77.188600
20
80.159400
11
77.385061
21
81.132512
0
LINE
8
Layer 1
10
77.385061
20
81.132512
11
77.920830
21
81.927166
0
LINE
8
Layer 1
10
77.920830
20
81.927166
11
78.715484
21
82.462937
0
LINE
8
Layer 1
10
78.715484
20
82.462937
11
79.688600
21
82.659400
0
LINE
8
Layer 1
10
75.428600
20
69.658300
11
75.204633
21
68.548952
0
LINE
8
Layer 1
10
75.204633
20
68.548952
11
74.593854
21
67.643046
0
LINE
8
Layer 1
10
74.593854
20
67.643046
11
73.687948
21
67.032267
0
LINE
8
Layer 1
10
73.687948
20
67.032267
11
72.578600
21
66.808300
0
LINE
8
Layer 1
10
72.578600
20
66.808300
11
71.469248
21
67.032267
0
LINE
8
Layer 1
10
71.469248
20
67.032267
11
70.563343
21
67.643046
0
LINE
8
Layer 1
10
70.563343
20
67.643046
11
69.952566
21
68.548952
0
LINE
8
Layer 1
10
69.952566
20
68.548952
11
69.728600
21
69.658300
0
LINE
8
Layer 1
10
69.728600
20
69.658300
11
69.952566
21
70.767648
0
LINE
8
Layer 1
10
69.952566
20
70.767648
11
70.563343
21
71.673554
0
LINE
8
Layer 1
10
70.563343
20
71.673554
11
71.469248
21
72.284333
0
LINE
8
Layer 1
10
71.469248
20
72.284333
11
72.578600
21
72.508300
0
LINE
8
Layer 1
10
72.578600
20
72.508300
11
73.687948
21
72.284333
0
LINE
8
Layer 1
10
73.687948
20
72.284333
11
74.593854
21
71.673554
0
LINE
8
Layer 1
10
74.593854
20
71.673554
11
75.204633
21
70.767648
0
LINE
8
Layer 1
10
75.204633
20
70.767648
11
75.428600
21
69.658300
0
LINE
8
Layer 1
10
77.878600
20
88.658300
11
77.800014
21
88.269091
0
LINE
8
Layer 1
10
77.800014
20
88.269091
11
77.585705
21
87.951225
0
LINE
8
Layer 1
10
77.585705
20
87.951225
11
77.267843
21
87.736897
0
LINE
8
Layer 1
10
77.267843
20
87.736897
11
76.878600
21
87.658300
0
LINE
8
Layer 1
10
76.878600
20
87.658300
11
76.489353
21
87.736897
0
LINE
8
Layer 1
10
76.489353
20
87.736897
11
76.171491
21
87.951225
0
LINE
8
Layer 1
10
76.171491
20
87.951225
11
75.957184
21
88.269091
0
LINE
8
Layer 1
10
75.957184
20
88.269091
11
75.878600
21
88.658300
0
LINE
8
Layer 1
10
75.878600
20
88.658300
11
75.957184
21
89.047552
0
LINE
8
Layer 1
10
75.957184
20
89.047552
11
76.171491
21
89.365412
0
LINE
8
Layer 1
10
76.171491
20
89.365412
11
76.489353
21
89.579717
0
LINE
8
Layer 1
10
76.489353
20
89.579717
11
76.878600
21
89.658300
0
LINE
8
Layer 1
10
76.878600
20
89.658300
11
77.267843
21
89.579717
0
LINE
8
Layer 1
10
77.267843
20
89.579717
11
77.585705
21
89.365412
0
LINE
8
Layer 1
10
77.585705
20
89.365412
11
77.800014
21
89.047552
0
LINE
8
Layer 1
10
77.800014
20
89.047552
11
77.878600
21
88.658300
0
LINE
8
Layer 1
10
75.378600
20
64.658300
11
75.300014
21
64.269049
0
LINE
8
Layer 1
10
75.300014
20
64.269049
11
75.085705
21
63.951170
0
LINE
8
Layer 1
10
75.085705
20
63.951170
11
74.767843
21
63.736843
0
LINE
8
Layer 1
10
74.767843
20
63.736843
11
74.378600
21
63.658250
0
LINE
8
Layer 1
10
74.378600
20
63.658250
11
73.989355
21
63.736843
0
LINE
8
Layer 1
10
73.989355
20
63.736843
11
73.671493
21
63.951170
0
LINE
8
Layer 1
10
73.671493
20
63.951170
11
73.457185
21
64.269049
0
LINE
8
Layer 1
10
73.457185
20
64.269049
11
73.378600
21
64.658300
0
LINE
8
Layer 1
10
73.378600
20
64.658300
11
73.457185
21
65.047543
0
LINE
8
Layer 1
10
73.457185
20
65.047543
11
73.671493
21
65.365405
0
LINE
8
Layer 1
10
73.671493
20
65.365405
11
73.989355
21
65.579714
0
LINE
8
Layer 1
10
73.989355
20
65.579714
11
74.378600
21
65.658300
0
LINE
8
Layer 1
10
74.378600
20
65.658300
11
74.767845
21
65.579714
0
LINE
8
Layer 1
10
74.767845
20
65.579714
11
75.085707
21
65.365405
0
LINE
8
Layer 1
10
75.085707
20
65.365405
11
75.300015
21
65.047543
0
LINE
8
Layer 1
10
75.300015
20
65.047543
11
75.378600
21
64.658300
0
LINE
8
Layer 1
10
75.378600
20
74.658300
11
75.300014
21
74.269055
0
LINE
8
Layer 1
10
75.300014
20
74.269055
11
75.085705
21
73.951193
0
LINE
8
Layer 1
10
75.085705
20
73.951193
11
74.767843
21
73.736885
0
LINE
8
Layer 1
10
74.767843
20
73.736885
11
74.378600
21
73.658300
0
LINE
8
Layer 1
10
74.378600
20
73.658300
11
73.989355
21
73.736885
0
LINE
8
Layer 1
10
73.989355
20
73.736885
11
73.671493
21
73.951193
0
LINE
8
Layer 1
10
73.671493
20
73.951193
11
73.457185
21
74.269055
0
LINE
8
Layer 1
10
73.457185
20
74.269055
11
73.378600
21
74.658300
0
LINE
8
Layer 1
10
73.378600
20
74.658300
11
73.457185
21
75.047543
0
LINE
8
Layer 1
10
73.457185
20
75.047543
11
73.671493
21
75.365405
0
LINE
8
Layer 1
10
73.671493
20
75.365405
11
73.989355
21
75.579714
0
LINE
8
Layer 1
10
73.989355
20
75.579714
11
74.378600
21
75.658300
0
LINE
8
Layer 1
10
74.378600
20
75.658300
11
74.767845
21
75.579714
0
LINE
8
Layer 1
10
74.767845
20
75.579714
11
75.085707
21
75.365405
0
LINE
8
Layer 1
10
75.085707
20
75.365405
11
75.300015
21
75.047543
0
LINE
8
Layer 1
10
75.300015
20
75.047543
11
75.378600
21
74.658300
0
LINE
8
Layer 1
10
61.859600
20
58.158300
11
61.859600
21
43.659400
0
LINE
8
Layer 1
10
61.859600
20
43.659400
11
62.549600
21
43.659400
0
LINE
8
Layer 1
10
62.549600
20
43.659400
11
63.522716
21
43.462937
0
LINE
8
Layer 1
10
63.522716
20
43.462937
11
64.317370
21
42.927166
0
LINE
8
Layer 1
10
64.317370
20
42.927166
11
64.853139
21
42.132512
0
LINE
8
Layer 1
10
64.853139
20
42.132512
11
65.049600
21
41.159400
0
LINE
8
Layer 1
10
65.049600
20
41.159400
11
65.049600
21
24.858300
0
LINE
8
Layer 1
10
65.049600
20
24.858300
11
64.853139
21
23.885192
0
LINE
8
Layer 1
10
64.853139
20
23.885192
11
64.317370
21
23.090537
0
LINE
8
Layer 1
10
64.317370
20
23.090537
11
63.522716
21
22.554764
0
LINE
8
Layer 1
10
63.522716
20
22.554764
11
62.549600
21
22.358300
0
LINE
8
Layer 1
10
62.549600
20
22.358300
11
61.759600
21
22.358300
0
LINE
8
Layer 1
10
61.759600
20
22.358300
11
61.759600
21
22.258300
0
LINE
8
Layer 1
10
61.759600
20
22.258300
11
61.911876
21
21.021400
0
LINE
8
Layer 1
10
61.911876
20
21.021400
11
62.359600
21
19.858300
0
LINE
8
Layer 1
10
62.359600
20
19.858300
11
62.830190
21
18.976000
0
LINE
8
Layer 1
10
62.830190
20
18.976000
11
63.225241
21
17.949775
0
LINE
8
Layer 1
10
63.225241
20
17.949775
11
63.359600
21
16.858300
0
LINE
8
Layer 1
10
63.359600
20
16.858300
11
63.359600
21
12.841700
0
LINE
8
Layer 1
10
63.359600
20
12.841700
11
63.574586
21
12.222162
0
LINE
8
Layer 1
10
63.574586
20
12.222162
11
64.127110
21
11.869100
0
LINE
8
Layer 1
10
64.127110
20
11.869100
11
64.779594
21
11.934137
0
LINE
8
Layer 1
10
64.779594
20
11.934137
11
65.251500
21
12.389400
0
LINE
8
Layer 1
10
65.251500
20
12.389400
11
65.856463
21
13.397298
0
LINE
8
Layer 1
10
65.856463
20
13.397298
11
66.594520
21
14.304688
0
LINE
8
Layer 1
10
66.594520
20
14.304688
11
67.453477
21
15.098583
0
LINE
8
Layer 1
10
67.453477
20
15.098583
11
68.421140
21
15.766000
0
LINE
8
Layer 1
10
68.421140
20
15.766000
11
70.066098
21
17.051328
0
LINE
8
Layer 1
10
70.066098
20
17.051328
11
71.305546
21
18.689250
0
LINE
8
Layer 1
10
71.305546
20
18.689250
11
72.087407
21
20.588622
0
LINE
8
Layer 1
10
72.087407
20
20.588622
11
72.359600
21
22.658300
0
LINE
8
Layer 1
10
72.359600
20
22.658300
11
72.463812
21
23.771821
0
LINE
8
Layer 1
10
72.463812
20
23.771821
11
72.769450
21
24.837831
0
LINE
8
Layer 1
10
72.769450
20
24.837831
11
73.266015
21
25.829398
0
LINE
8
Layer 1
10
73.266015
20
25.829398
11
73.943010
21
26.719590
0
LINE
8
Layer 1
10
73.943010
20
26.719590
11
74.581446
21
27.552913
0
LINE
8
Layer 1
10
74.581446
20
27.552913
11
75.050056
21
28.464425
0
LINE
8
Layer 1
10
75.050056
20
28.464425
11
75.347894
21
29.430357
0
LINE
8
Layer 1
10
75.347894
20
29.430357
11
75.474014
21
30.426936
0
LINE
8
Layer 1
10
75.474014
20
30.426936
11
75.427470
21
31.430391
0
LINE
8
Layer 1
10
75.427470
20
31.430391
11
75.207317
21
32.416951
0
LINE
8
Layer 1
10
75.207317
20
32.416951
11
74.812609
21
33.362845
0
LINE
8
Layer 1
10
74.812609
20
33.362845
11
74.242400
21
34.244300
0
LINE
8
Layer 1
10
74.242400
20
34.244300
11
73.327147
21
35.593822
0
LINE
8
Layer 1
10
73.327147
20
35.593822
11
72.606125
21
37.048100
0
LINE
8
Layer 1
10
72.606125
20
37.048100
11
72.087941
21
38.586378
0
LINE
8
Layer 1
10
72.087941
20
38.586378
11
71.781200
21
40.187900
0
LINE
8
Layer 1
10
71.781200
20
40.187900
11
71.212491
21
44.054666
0
LINE
8
Layer 1
10
71.212491
20
44.054666
11
70.453300
21
47.886125
0
LINE
8
Layer 1
10
70.453300
20
47.886125
11
69.505184
21
51.675247
0
LINE
8
Layer 1
10
69.505184
20
51.675247
11
68.369700
21
55.415000
0
LINE
8
Layer 1
10
68.369700
20
55.415000
11
68.369700
21
55.415000
0
LINE
8
Layer 1
10
68.369700
20
55.415000
11
67.790292
21
56.534503
0
LINE
8
Layer 1
10
67.790292
20
56.534503
11
66.914592
21
57.400750
0
LINE
8
Layer 1
10
66.914592
20
57.400750
11
65.817079
21
57.959947
0
LINE
8
Layer 1
10
65.817079
20
57.959947
11
64.572230
21
58.158300
0
LINE
8
Layer 1
10
64.572230
20
58.158300
11
61.859600
21
58.158300
0
LINE
8
Layer 1
10
72.509600
20
30.658300
11
72.285634
21
29.548952
0
LINE
8
Layer 1
10
72.285634
20
29.548952
11
71.674858
21
28.643046
0
LINE
8
Layer 1
10
71.674858
20
28.643046
11
70.768952
21
28.032267
0
LINE
8
Layer 1
10
70.768952
20
28.032267
11
69.659600
21
27.808300
0
LINE
8
Layer 1
10
69.659600
20
27.808300
11
68.550252
21
28.032267
0
LINE
8
Layer 1
10
68.550252
20
28.032267
11
67.644346
21
28.643046
0
LINE
8
Layer 1
10
67.644346
20
28.643046
11
67.033567
21
29.548952
0
LINE
8
Layer 1
10
67.033567
20
29.548952
11
66.809600
21
30.658300
0
LINE
8
Layer 1
10
66.809600
20
30.658300
11
67.033567
21
31.767648
0
LINE
8
Layer 1
10
67.033567
20
31.767648
11
67.644346
21
32.673554
0
LINE
8
Layer 1
10
67.644346
20
32.673554
11
68.550252
21
33.284333
0
LINE
8
Layer 1
10
68.550252
20
33.284333
11
69.659600
21
33.508300
0
LINE
8
Layer 1
10
69.659600
20
33.508300
11
70.768952
21
33.284333
0
LINE
8
Layer 1
10
70.768952
20
33.284333
11
71.674858
21
32.673554
0
LINE
8
Layer 1
10
71.674858
20
32.673554
11
72.285634
21
31.767648
0
LINE
8
Layer 1
10
72.285634
20
31.767648
11
72.509600
21
30.658300
0
LINE
8
Layer 1
10
68.859600
20
25.658300
11
68.781015
21
25.269049
0
LINE
8
Layer 1
10
68.781015
20
25.269049
11
68.566707
21
24.951170
0
LINE
8
Layer 1
10
68.566707
20
24.951170
11
68.248845
21
24.736843
0
LINE
8
Layer 1
10
68.248845
20
24.736843
11
67.859600
21
24.658250
0
LINE
8
Layer 1
10
67.859600
20
24.658250
11
67.470355
21
24.736843
0
LINE
8
Layer 1
10
67.470355
20
24.736843
11
67.152494
21
24.951170
0
LINE
8
Layer 1
10
67.152494
20
24.951170
11
66.938185
21
25.269049
0
LINE
8
Layer 1
10
66.938185
20
25.269049
11
66.859600
21
25.658300
0
LINE
8
Layer 1
10
66.859600
20
25.658300
11
66.938186
21
26.047543
0
LINE
8
Layer 1
10
66.938186
20
26.047543
11
67.152495
21
26.365405
0
LINE
8
Layer 1
10
67.152495
20
26.365405
11
67.470357
21
26.579714
0
LINE
8
Layer 1
10
67.470357
20
26.579714
11
67.859600
21
26.658300
0
LINE
8
Layer 1
10
67.859600
20
26.658300
11
68.248845
21
26.579714
0
LINE
8
Layer 1
10
68.248845
20
26.579714
11
68.566707
21
26.365405
0
LINE
8
Layer 1
10
68.566707
20
26.365405
11
68.781015
21
26.047543
0
LINE
8
Layer 1
10
68.781015
20
26.047543
11
68.859600
21
25.658300
0
LINE
8
Layer 1
10
68.859600
20
35.658300
11
68.781015
21
35.269055
0
LINE
8
Layer 1
10
68.781015
20
35.269055
11
68.566707
21
34.951193
0
LINE
8
Layer 1
10
68.566707
20
34.951193
11
68.248845
21
34.736885
0
LINE
8
Layer 1
10
68.248845
20
34.736885
11
67.859600
21
34.658300
0
LINE
8
Layer 1
10
67.859600
20
34.658300
11
67.470355
21
34.736885
0
LINE
8
Layer 1
10
67.470355
20
34.736885
11
67.152494
21
34.951193
0
LINE
8
Layer 1
10
67.152494
20
34.951193
11
66.938185
21
35.269055
0
LINE
8
Layer 1
10
66.938185
20
35.269055
11
66.859600
21
35.658300
0
LINE
8
Layer 1
10
66.859600
20
35.658300
11
66.938186
21
36.047543
0
LINE
8
Layer 1
10
66.938186
20
36.047543
11
67.152495
21
36.365405
0
LINE
8
Layer 1
10
67.152495
20
36.365405
11
67.470357
21
36.579714
0
LINE
8
Layer 1
10
67.470357
20
36.579714
11
67.859600
21
36.658300
0
LINE
8
Layer 1
10
67.859600
20
36.658300
11
68.248845
21
36.579714
0
LINE
8
Layer 1
10
68.248845
20
36.579714
11
68.566707
21
36.365405
0
LINE
8
Layer 1
10
68.566707
20
36.365405
11
68.781015
21
36.047543
0
LINE
8
Layer 1
10
68.781015
20
36.047543
11
68.859600
21
35.658300
0
LINE
8
Layer 1
10
66.359600
20
49.658300
11
66.281016
21
49.269091
0
LINE
8
Layer 1
10
66.281016
20
49.269091
11
66.066709
21
48.951225
0
LINE
8
Layer 1
10
66.066709
20
48.951225
11
65.748847
21
48.736897
0
LINE
8
Layer 1
10
65.748847
20
48.736897
11
65.359600
21
48.658300
0
LINE
8
Layer 1
10
65.359600
20
48.658300
11
64.970357
21
48.736897
0
LINE
8
Layer 1
10
64.970357
20
48.736897
11
64.652495
21
48.951225
0
LINE
8
Layer 1
10
64.652495
20
48.951225
11
64.438186
21
49.269091
0
LINE
8
Layer 1
10
64.438186
20
49.269091
11
64.359600
21
49.658300
0
LINE
8
Layer 1
10
64.359600
20
49.658300
11
64.438186
21
50.047552
0
LINE
8
Layer 1
10
64.438186
20
50.047552
11
64.652495
21
50.365412
0
LINE
8
Layer 1
10
64.652495
20
50.365412
11
64.970357
21
50.579717
0
LINE
8
Layer 1
10
64.970357
20
50.579717
11
65.359600
21
50.658300
0
LINE
8
Layer 1
10
65.359600
20
50.658300
11
65.748847
21
50.579717
0
LINE
8
Layer 1
10
65.748847
20
50.579717
11
66.066709
21
50.365412
0
LINE
8
Layer 1
10
66.066709
20
50.365412
11
66.281016
21
50.047552
0
LINE
8
Layer 1
10
66.281016
20
50.047552
11
66.359600
21
49.658300
0
LINE
8
Layer 1
10
61.619100
20
399.250000
11
61.619100
21
374.147000
0
LINE
8
Layer 1
10
61.619100
20
374.147000
11
61.357683
21
373.301125
0
LINE
8
Layer 1
10
61.357683
20
373.301125
11
60.664550
21
372.750000
0
LINE
8
Layer 1
10
60.664550
20
372.750000
11
59.619266
21
372.146859
0
LINE
8
Layer 1
10
59.619266
20
372.146859
11
58.816219
21
371.280375
0
LINE
8
Layer 1
10
58.816219
20
371.280375
11
58.300974
21
370.217203
0
LINE
8
Layer 1
10
58.300974
20
370.217203
11
58.119100
21
369.024000
0
LINE
8
Layer 1
10
58.119100
20
369.024000
11
58.119100
21
176.313000
0
LINE
8
Layer 1
10
58.119100
20
176.313000
11
58.294473
21
173.073883
0
LINE
8
Layer 1
10
58.294473
20
173.073883
11
58.816540
21
169.881837
0
LINE
8
Layer 1
10
58.816540
20
169.881837
11
59.679219
21
166.764548
0
LINE
8
Layer 1
10
59.679219
20
166.764548
11
60.876430
21
163.749700
0
LINE
8
Layer 1
10
60.876430
20
163.749700
11
63.224131
21
158.090075
0
LINE
8
Layer 1
10
63.224131
20
158.090075
11
65.122479
21
152.274000
0
LINE
8
Layer 1
10
65.122479
20
152.274000
11
66.563894
21
146.328175
0
LINE
8
Layer 1
10
66.563894
20
146.328175
11
67.540800
21
140.279300
0
LINE
8
Layer 1
10
67.540800
20
140.279300
11
67.847484
21
138.677762
0
LINE
8
Layer 1
10
67.847484
20
138.677762
11
68.365650
21
137.139450
0
LINE
8
Layer 1
10
68.365650
20
137.139450
11
69.086691
21
135.685137
0
LINE
8
Layer 1
10
69.086691
20
135.685137
11
70.002000
21
134.335600
0
LINE
8
Layer 1
10
70.002000
20
134.335600
11
70.572205
21
133.454178
0
LINE
8
Layer 1
10
70.572205
20
133.454178
11
70.966902
21
132.508308
0
LINE
8
Layer 1
10
70.966902
20
132.508308
11
71.187038
21
131.521762
0
LINE
8
Layer 1
10
71.187038
20
131.521762
11
71.233563
21
130.518312
0
LINE
8
Layer 1
10
71.233563
20
130.518312
11
71.107423
21
129.521730
0
LINE
8
Layer 1
10
71.107423
20
129.521730
11
70.809567
21
128.555786
0
LINE
8
Layer 1
10
70.809567
20
128.555786
11
70.340944
21
127.644252
0
LINE
8
Layer 1
10
70.340944
20
127.644252
11
69.702500
21
126.810900
0
LINE
8
Layer 1
10
69.702500
20
126.810900
11
69.025498
21
125.920911
0
LINE
8
Layer 1
10
69.025498
20
125.920911
11
68.528938
21
124.929362
0
LINE
8
Layer 1
10
68.528938
20
124.929362
11
68.223308
21
123.863358
0
LINE
8
Layer 1
10
68.223308
20
123.863358
11
68.119100
21
122.750000
0
LINE
8
Layer 1
10
68.119100
20
122.750000
11
67.846905
21
120.680266
0
LINE
8
Layer 1
10
67.846905
20
120.680266
11
67.065038
21
118.780875
0
LINE
8
Layer 1
10
67.065038
20
118.780875
11
65.825577
21
117.142972
0
LINE
8
Layer 1
10
65.825577
20
117.142972
11
64.180600
21
115.857700
0
LINE
8
Layer 1
10
64.180600
20
115.857700
11
62.484258
21
114.532373
0
LINE
8
Layer 1
10
62.484258
20
114.532373
11
61.206088
21
112.843212
0
LINE
8
Layer 1
10
61.206088
20
112.843212
11
60.399798
21
110.884370
0
LINE
8
Layer 1
10
60.399798
20
110.884370
11
60.119100
21
108.750000
0
LINE
8
Layer 1
10
60.119100
20
108.750000
11
60.119100
21
18.750000
0
LINE
8
Layer 1
10
60.119100
20
18.750000
11
43.119100
21
18.750000
0
LINE
8
Layer 1
10
43.119100
20
18.750000
11
43.119100
21
108.750000
0
LINE
8
Layer 1
10
43.119100
20
108.750000
11
42.838402
21
110.884314
0
LINE
8
Layer 1
10
42.838402
20
110.884314
11
42.032112
21
112.843063
0
LINE
8
Layer 1
10
42.032112
20
112.843063
11
40.753942
21
114.532205
0
LINE
8
Layer 1
10
40.753942
20
114.532205
11
39.057600
21
115.857700
0
LINE
8
Layer 1
10
39.057600
20
115.857700
11
37.412623
21
117.143014
0
LINE
8
Layer 1
10
37.412623
20
117.143014
11
36.173163
21
118.780838
0
LINE
8
Layer 1
10
36.173163
20
118.780838
11
35.391295
21
120.680167
0
LINE
8
Layer 1
10
35.391295
20
120.680167
11
35.119100
21
122.750000
0
LINE
8
Layer 1
10
35.119100
20
122.750000
11
35.014892
21
123.863517
0
LINE
8
Layer 1
10
35.014892
20
123.863517
11
34.709263
21
124.929513
0
LINE
8
Layer 1
10
34.709263
20
124.929513
11
34.212702
21
125.921052
0
LINE
8
Layer 1
10
34.212702
20
125.921052
11
33.535700
21
126.811200
0
LINE
8
Layer 1
10
33.535700
20
126.811200
11
32.897256
21
127.644552
0
LINE
8
Layer 1
10
32.897256
20
127.644552
11
32.428633
21
128.556086
0
LINE
8
Layer 1
10
32.428633
20
128.556086
11
32.130777
21
129.522030
0
LINE
8
Layer 1
10
32.130777
20
129.522030
11
32.004638
21
130.518612
0
LINE
8
Layer 1
10
32.004638
20
130.518612
11
32.051162
21
131.522062
0
LINE
8
Layer 1
10
32.051162
20
131.522062
11
32.271298
21
132.508608
0
LINE
8
Layer 1
10
32.271298
20
132.508608
11
32.665995
21
133.454478
0
LINE
8
Layer 1
10
32.665995
20
133.454478
11
33.236200
21
134.335900
0
LINE
8
Layer 1
10
33.236200
20
134.335900
11
34.151509
21
135.685438
0
LINE
8
Layer 1
10
34.151509
20
135.685438
11
34.872550
21
137.139750
0
LINE
8
Layer 1
10
34.872550
20
137.139750
11
35.390716
21
138.678063
0
LINE
8
Layer 1
10
35.390716
20
138.678063
11
35.697400
21
140.279600
0
LINE
8
Layer 1
10
35.697400
20
140.279600
11
36.674306
21
146.328475
0
LINE
8
Layer 1
10
36.674306
20
146.328475
11
38.115721
21
152.274300
0
LINE
8
Layer 1
10
38.115721
20
152.274300
11
40.014069
21
158.090375
0
LINE
8
Layer 1
10
40.014069
20
158.090375
11
42.361770
21
163.750000
0
LINE
8
Layer 1
10
42.361770
20
163.750000
11
43.558994
21
166.764703
0
LINE
8
Layer 1
10
43.558994
20
166.764703
11
44.421671
21
169.881875
0
LINE
8
Layer 1
10
44.421671
20
169.881875
11
44.943731
21
173.073859
0
LINE
8
Layer 1
10
44.943731
20
173.073859
11
45.119100
21
176.313000
0
LINE
8
Layer 1
10
45.119100
20
176.313000
11
45.119100
21
369.024000
0
LINE
8
Layer 1
10
45.119100
20
369.024000
11
44.937230
21
370.217203
0
LINE
8
Layer 1
10
44.937230
20
370.217203
11
44.421993
21
371.280375
0
LINE
8
Layer 1
10
44.421993
20
371.280375
11
43.618946
21
372.146859
0
LINE
8
Layer 1
10
43.618946
20
372.146859
11
42.573650
21
372.750000
0
LINE
8
Layer 1
10
42.573650
20
372.750000
11
41.880517
21
373.301125
0
LINE
8
Layer 1
10
41.880517
20
373.301125
11
41.619100
21
374.147000
0
LINE
8
Layer 1
10
41.619100
20
374.147000
11
41.619100
21
399.250000
0
LINE
8
Layer 1
10
41.619100
20
399.250000
11
41.736977
21
399.833687
0
LINE
8
Layer 1
10
41.736977
20
399.833687
11
42.058439
21
400.310500
0
LINE
8
Layer 1
10
42.058439
20
400.310500
11
42.535231
21
400.632062
0
LINE
8
Layer 1
10
42.535231
20
400.632062
11
43.119100
21
400.750000
0
LINE
8
Layer 1
10
43.119100
20
400.750000
11
43.897590
21
400.907109
0
LINE
8
Layer 1
10
43.897590
20
400.907109
11
44.533314
21
401.335625
0
LINE
8
Layer 1
10
44.533314
20
401.335625
11
44.961930
21
401.971328
0
LINE
8
Layer 1
10
44.961930
20
401.971328
11
45.119100
21
402.750000
0
LINE
8
Layer 1
10
45.119100
20
402.750000
11
45.119100
21
402.750000
0
LINE
8
Layer 1
10
45.119100
20
402.750000
11
45.251154
21
404.060020
0
LINE
8
Layer 1
10
45.251154
20
404.060020
11
45.629897
21
405.280156
0
LINE
8
Layer 1
10
45.629897
20
405.280156
11
46.229191
21
406.384277
0
LINE
8
Layer 1
10
46.229191
20
406.384277
11
47.022899
21
407.346250
0
LINE
8
Layer 1
10
47.022899
20
407.346250
11
47.984882
21
408.139941
0
LINE
8
Layer 1
10
47.984882
20
408.139941
11
49.089001
21
408.739219
0
LINE
8
Layer 1
10
49.089001
20
408.739219
11
50.309120
21
409.117949
0
LINE
8
Layer 1
10
50.309120
20
409.117949
11
51.619100
21
409.250000
0
LINE
8
Layer 1
10
51.619100
20
409.250000
11
52.929080
21
409.117949
0
LINE
8
Layer 1
10
52.929080
20
409.117949
11
54.149199
21
408.739219
0
LINE
8
Layer 1
10
54.149199
20
408.739219
11
55.253318
21
408.139941
0
LINE
8
Layer 1
10
55.253318
20
408.139941
11
56.215301
21
407.346250
0
LINE
8
Layer 1
10
56.215301
20
407.346250
11
57.009009
21
406.384277
0
LINE
8
Layer 1
10
57.009009
20
406.384277
11
57.608303
21
405.280156
0
LINE
8
Layer 1
10
57.608303
20
405.280156
11
57.987046
21
404.060020
0
LINE
8
Layer 1
10
57.987046
20
404.060020
11
58.119100
21
402.750000
0
LINE
8
Layer 1
10
58.119100
20
402.750000
11
58.119100
21
402.750000
0
LINE
8
Layer 1
10
58.119100
20
402.750000
11
58.276270
21
401.971328
0
LINE
8
Layer 1
10
58.276270
20
401.971328
11
58.704886
21
401.335625
0
LINE
8
Layer 1
10
58.704886
20
401.335625
11
59.340610
21
400.907109
0
LINE
8
Layer 1
10
59.340610
20
400.907109
11
60.119100
21
400.750000
0
LINE
8
Layer 1
10
60.119100
20
400.750000
11
60.702969
21
400.632062
0
LINE
8
Layer 1
10
60.702969
20
400.632062
11
61.179761
21
400.310500
0
LINE
8
Layer 1
10
61.179761
20
400.310500
11
61.501223
21
399.833687
0
LINE
8
Layer 1
10
61.501223
20
399.833687
11
61.619100
21
399.250000
0
LINE
8
Layer 1
10
45.319100
20
124.050000
11
42.619100
21
124.050000
0
LINE
8
Layer 1
10
42.619100
20
124.050000
11
42.619100
21
142.250000
0
LINE
8
Layer 1
10
42.619100
20
142.250000
11
45.319100
21
142.250000
0
LINE
8
Layer 1
10
45.319100
20
142.250000
11
45.319100
21
143.550000
0
LINE
8
Layer 1
10
45.319100
20
143.550000
11
45.819100
21
143.550000
0
LINE
8
Layer 1
10
45.819100
20
143.550000
11
45.819100
21
148.450000
0
LINE
8
Layer 1
10
45.819100
20
148.450000
11
52.819100
21
148.450000
0
LINE
8
Layer 1
10
52.819100
20
148.450000
11
52.819100
21
146.550000
0
LINE
8
Layer 1
10
52.819100
20
146.550000
11
57.419100
21
146.550000
0
LINE
8
Layer 1
10
57.419100
20
146.550000
11
57.419100
21
143.550000
0
LINE
8
Layer 1
10
57.419100
20
143.550000
11
57.919100
21
143.550000
0
LINE
8
Layer 1
10
57.919100
20
143.550000
11
57.919100
21
142.250000
0
LINE
8
Layer 1
10
57.919100
20
142.250000
11
60.619100
21
142.250000
0
LINE
8
Layer 1
10
60.619100
20
142.250000
11
60.619100
21
124.050000
0
LINE
8
Layer 1
10
60.619100
20
124.050000
11
57.919100
21
124.050000
0
LINE
8
Layer 1
10
57.919100
20
124.050000
11
57.919100
21
122.750000
0
LINE
8
Layer 1
10
57.919100
20
122.750000
11
45.319100
21
122.750000
0
LINE
8
Layer 1
10
45.319100
20
122.750000
11
45.319100
21
124.050000
0
LINE
8
Layer 1
10
67.119100
20
130.750000
11
66.985508
21
130.088277
0
LINE
8
Layer 1
10
66.985508
20
130.088277
11
66.621188
21
129.547912
0
LINE
8
Layer 1
10
66.621188
20
129.547912
11
66.080823
21
129.183592
0
LINE
8
Layer 1
10
66.080823
20
129.183592
11
65.419100
21
129.050000
0
LINE
8
Layer 1
10
65.419100
20
129.050000
11
64.757377
21
129.183592
0
LINE
8
Layer 1
10
64.757377
20
129.183592
11
64.217012
21
129.547912
0
LINE
8
Layer 1
10
64.217012
20
129.547912
11
63.852692
21
130.088277
0
LINE
8
Layer 1
10
63.852692
20
130.088277
11
63.719100
21
130.750000
0
LINE
8
Layer 1
10
63.719100
20
130.750000
11
63.852692
21
131.411723
0
LINE
8
Layer 1
10
63.852692
20
131.411723
11
64.217012
21
131.952088
0
LINE
8
Layer 1
10
64.217012
20
131.952088
11
64.757377
21
132.316408
0
LINE
8
Layer 1
10
64.757377
20
132.316408
11
65.419100
21
132.450000
0
LINE
8
Layer 1
10
65.419100
20
132.450000
11
66.080823
21
132.316408
0
LINE
8
Layer 1
10
66.080823
20
132.316408
11
66.621188
21
131.952088
0
LINE
8
Layer 1
10
66.621188
20
131.952088
11
66.985508
21
131.411723
0
LINE
8
Layer 1
10
66.985508
20
131.411723
11
67.119100
21
130.750000
0
LINE
8
Layer 1
10
39.519100
20
130.750000
11
39.385508
21
130.088277
0
LINE
8
Layer 1
10
39.385508
20
130.088277
11
39.021187
21
129.547912
0
LINE
8
Layer 1
10
39.021187
20
129.547912
11
38.480823
21
129.183592
0
LINE
8
Layer 1
10
38.480823
20
129.183592
11
37.819100
21
129.050000
0
LINE
8
Layer 1
10
37.819100
20
129.050000
11
37.157377
21
129.183592
0
LINE
8
Layer 1
10
37.157377
20
129.183592
11
36.617013
21
129.547912
0
LINE
8
Layer 1
10
36.617013
20
129.547912
11
36.252692
21
130.088277
0
LINE
8
Layer 1
10
36.252692
20
130.088277
11
36.119100
21
130.750000
0
LINE
8
Layer 1
10
36.119100
20
130.750000
11
36.252692
21
131.411723
0
LINE
8
Layer 1
10
36.252692
20
131.411723
11
36.617013
21
131.952088
0
LINE
8
Layer 1
10
36.617013
20
131.952088
11
37.157377
21
132.316408
0
LINE
8
Layer 1
10
37.157377
20
132.316408
11
37.819100
21
132.450000
0
LINE
8
Layer 1
10
37.819100
20
132.450000
11
38.480823
21
132.316408
0
LINE
8
Layer 1
10
38.480823
20
132.316408
11
39.021187
21
131.952088
0
LINE
8
Layer 1
10
39.021187
20
131.952088
11
39.385508
21
131.411723
0
LINE
8
Layer 1
10
39.385508
20
131.411723
11
39.519100
21
130.750000
0
LINE
8
Layer 1
10
40.619100
20
125.750000
11
40.540517
21
125.360748
0
LINE
8
Layer 1
10
40.540517
20
125.360748
11
40.326213
21
125.042888
0
LINE
8
Layer 1
10
40.326213
20
125.042888
11
40.008352
21
124.828583
0
LINE
8
Layer 1
10
40.008352
20
124.828583
11
39.619100
21
124.750000
0
LINE
8
Layer 1
10
39.619100
20
124.750000
11
39.229848
21
124.828583
0
LINE
8
Layer 1
10
39.229848
20
124.828583
11
38.911988
21
125.042888
0
LINE
8
Layer 1
10
38.911988
20
125.042888
11
38.697683
21
125.360748
0
LINE
8
Layer 1
10
38.697683
20
125.360748
11
38.619100
21
125.750000
0
LINE
8
Layer 1
10
38.619100
20
125.750000
11
38.697683
21
126.139252
0
LINE
8
Layer 1
10
38.697683
20
126.139252
11
38.911988
21
126.457112
0
LINE
8
Layer 1
10
38.911988
20
126.457112
11
39.229848
21
126.671417
0
LINE
8
Layer 1
10
39.229848
20
126.671417
11
39.619100
21
126.750000
0
LINE
8
Layer 1
10
39.619100
20
126.750000
11
40.008352
21
126.671417
0
LINE
8
Layer 1
10
40.008352
20
126.671417
11
40.326213
21
126.457112
0
LINE
8
Layer 1
10
40.326213
20
126.457112
11
40.540517
21
126.139252
0
LINE
8
Layer 1
10
40.540517
20
126.139252
11
40.619100
21
125.750000
0
LINE
8
Layer 1
10
40.619100
20
135.750000
11
40.540517
21
135.360748
0
LINE
8
Layer 1
10
40.540517
20
135.360748
11
40.326213
21
135.042888
0
LINE
8
Layer 1
10
40.326213
20
135.042888
11
40.008352
21
134.828583
0
LINE
8
Layer 1
10
40.008352
20
134.828583
11
39.619100
21
134.750000
0
LINE
8
Layer 1
10
39.619100
20
134.750000
11
39.229848
21
134.828583
0
LINE
8
Layer 1
10
39.229848
20
134.828583
11
38.911988
21
135.042888
0
LINE
8
Layer 1
10
38.911988
20
135.042888
11
38.697683
21
135.360748
0
LINE
8
Layer 1
10
38.697683
20
135.360748
11
38.619100
21
135.750000
0
LINE
8
Layer 1
10
38.619100
20
135.750000
11
38.697683
21
136.139252
0
LINE
8
Layer 1
10
38.697683
20
136.139252
11
38.911988
21
136.457112
0
LINE
8
Layer 1
10
38.911988
20
136.457112
11
39.229848
21
136.671417
0
LINE
8
Layer 1
10
39.229848
20
136.671417
11
39.619100
21
136.750000
0
LINE
8
Layer 1
10
39.619100
20
136.750000
11
40.008352
21
136.671417
0
LINE
8
Layer 1
10
40.008352
20
136.671417
11
40.326213
21
136.457112
0
LINE
8
Layer 1
10
40.326213
20
136.457112
11
40.540517
21
136.139252
0
LINE
8
Layer 1
10
40.540517
20
136.139252
11
40.619100
21
135.750000
0
LINE
8
Layer 1
10
52.619100
20
74.750000
11
52.540515
21
74.360875
0
LINE
8
Layer 1
10
52.540515
20
74.360875
11
52.326207
21
74.043000
0
LINE
8
Layer 1
10
52.326207
20
74.043000
11
52.008345
21
73.828625
0
LINE
8
Layer 1
10
52.008345
20
73.828625
11
51.619100
21
73.750000
0
LINE
8
Layer 1
10
51.619100
20
73.750000
11
51.229855
21
73.828625
0
LINE
8
Layer 1
10
51.229855
20
73.828625
11
50.911993
21
74.043000
0
LINE
8
Layer 1
10
50.911993
20
74.043000
11
50.697685
21
74.360875
0
LINE
8
Layer 1
10
50.697685
20
74.360875
11
50.619100
21
74.750000
0
LINE
8
Layer 1
10
50.619100
20
74.750000
11
50.697685
21
75.139125
0
LINE
8
Layer 1
10
50.697685
20
75.139125
11
50.911993
21
75.457000
0
LINE
8
Layer 1
10
50.911993
20
75.457000
11
51.229855
21
75.671375
0
LINE
8
Layer 1
10
51.229855
20
75.671375
11
51.619100
21
75.750000
0
LINE
8
Layer 1
10
51.619100
20
75.750000
11
52.008345
21
75.671375
0
LINE
8
Layer 1
10
52.008345
20
75.671375
11
52.326207
21
75.457000
0
LINE
8
Layer 1
10
52.326207
20
75.457000
11
52.540515
21
75.139125
0
LINE
8
Layer 1
10
52.540515
20
75.139125
11
52.619100
21
74.750000
0
LINE
8
Layer 1
10
52.619100
20
400.750000
11
52.540515
21
400.360875
0
LINE
8
Layer 1
10
52.540515
20
400.360875
11
52.326207
21
400.043000
0
LINE
8
Layer 1
10
52.326207
20
400.043000
11
52.008345
21
399.828625
0
LINE
8
Layer 1
10
52.008345
20
399.828625
11
51.619100
21
399.750000
0
LINE
8
Layer 1
10
51.619100
20
399.750000
11
51.229855
21
399.828625
0
LINE
8
Layer 1
10
51.229855
20
399.828625
11
50.911993
21
400.043000
0
LINE
8
Layer 1
10
50.911993
20
400.043000
11
50.697685
21
400.360875
0
LINE
8
Layer 1
10
50.697685
20
400.360875
11
50.619100
21
400.750000
0
LINE
8
Layer 1
10
50.619100
20
400.750000
11
50.697685
21
401.139125
0
LINE
8
Layer 1
10
50.697685
20
401.139125
11
50.911993
21
401.457000
0
LINE
8
Layer 1
10
50.911993
20
401.457000
11
51.229855
21
401.671375
0
LINE
8
Layer 1
10
51.229855
20
401.671375
11
51.619100
21
401.750000
0
LINE
8
Layer 1
10
51.619100
20
401.750000
11
52.008345
21
401.671375
0
LINE
8
Layer 1
10
52.008345
20
401.671375
11
52.326207
21
401.457000
0
LINE
8
Layer 1
10
52.326207
20
401.457000
11
52.540515
21
401.139125
0
LINE
8
Layer 1
10
52.540515
20
401.139125
11
52.619100
21
400.750000
0
LINE
8
Layer 1
10
52.619100
20
320.750000
11
52.540515
21
320.360875
0
LINE
8
Layer 1
10
52.540515
20
320.360875
11
52.326207
21
320.043000
0
LINE
8
Layer 1
10
52.326207
20
320.043000
11
52.008345
21
319.828625
0
LINE
8
Layer 1
10
52.008345
20
319.828625
11
51.619100
21
319.750000
0
LINE
8
Layer 1
10
51.619100
20
319.750000
11
51.229855
21
319.828625
0
LINE
8
Layer 1
10
51.229855
20
319.828625
11
50.911993
21
320.043000
0
LINE
8
Layer 1
10
50.911993
20
320.043000
11
50.697685
21
320.360875
0
LINE
8
Layer 1
10
50.697685
20
320.360875
11
50.619100
21
320.750000
0
LINE
8
Layer 1
10
50.619100
20
320.750000
11
50.697685
21
321.139125
0
LINE
8
Layer 1
10
50.697685
20
321.139125
11
50.911993
21
321.457000
0
LINE
8
Layer 1
10
50.911993
20
321.457000
11
51.229855
21
321.671375
0
LINE
8
Layer 1
10
51.229855
20
321.671375
11
51.619100
21
321.750000
0
LINE
8
Layer 1
10
51.619100
20
321.750000
11
52.008345
21
321.671375
0
LINE
8
Layer 1
10
52.008345
20
321.671375
11
52.326207
21
321.457000
0
LINE
8
Layer 1
10
52.326207
20
321.457000
11
52.540515
21
321.139125
0
LINE
8
Layer 1
10
52.540515
20
321.139125
11
52.619100
21
320.750000
0
LINE
8
Layer 1
10
52.619100
20
360.750000
11
52.540515
21
360.360875
0
LINE
8
Layer 1
10
52.540515
20
360.360875
11
52.326207
21
360.043000
0
LINE
8
Layer 1
10
52.326207
20
360.043000
11
52.008345
21
359.828625
0
LINE
8
Layer 1
10
52.008345
20
359.828625
11
51.619100
21
359.750000
0
LINE
8
Layer 1
10
51.619100
20
359.750000
11
51.229855
21
359.828625
0
LINE
8
Layer 1
10
51.229855
20
359.828625
11
50.911993
21
360.043000
0
LINE
8
Layer 1
10
50.911993
20
360.043000
11
50.697685
21
360.360875
0
LINE
8
Layer 1
10
50.697685
20
360.360875
11
50.619100
21
360.750000
0
LINE
8
Layer 1
10
50.619100
20
360.750000
11
50.697685
21
361.139125
0
LINE
8
Layer 1
10
50.697685
20
361.139125
11
50.911993
21
361.457000
0
LINE
8
Layer 1
10
50.911993
20
361.457000
11
51.229855
21
361.671375
0
LINE
8
Layer 1
10
51.229855
20
361.671375
11
51.619100
21
361.750000
0
LINE
8
Layer 1
10
51.619100
20
361.750000
11
52.008345
21
361.671375
0
LINE
8
Layer 1
10
52.008345
20
361.671375
11
52.326207
21
361.457000
0
LINE
8
Layer 1
10
52.326207
20
361.457000
11
52.540515
21
361.139125
0
LINE
8
Layer 1
10
52.540515
20
361.139125
11
52.619100
21
360.750000
0
LINE
8
Layer 1
10
52.619100
20
280.750000
11
52.540515
21
280.360748
0
LINE
8
Layer 1
10
52.540515
20
280.360748
11
52.326207
21
280.042888
0
LINE
8
Layer 1
10
52.326207
20
280.042888
11
52.008345
21
279.828583
0
LINE
8
Layer 1
10
52.008345
20
279.828583
11
51.619100
21
279.750000
0
LINE
8
Layer 1
10
51.619100
20
279.750000
11
51.229855
21
279.828583
0
LINE
8
Layer 1
10
51.229855
20
279.828583
11
50.911993
21
280.042888
0
LINE
8
Layer 1
10
50.911993
20
280.042888
11
50.697685
21
280.360748
0
LINE
8
Layer 1
10
50.697685
20
280.360748
11
50.619100
21
280.750000
0
LINE
8
Layer 1
10
50.619100
20
280.750000
11
50.697685
21
281.139252
0
LINE
8
Layer 1
10
50.697685
20
281.139252
11
50.911993
21
281.457112
0
LINE
8
Layer 1
10
50.911993
20
281.457112
11
51.229855
21
281.671417
0
LINE
8
Layer 1
10
51.229855
20
281.671417
11
51.619100
21
281.750000
0
LINE
8
Layer 1
10
51.619100
20
281.750000
11
52.008345
21
281.671417
0
LINE
8
Layer 1
10
52.008345
20
281.671417
11
52.326207
21
281.457112
0
LINE
8
Layer 1
10
52.326207
20
281.457112
11
52.540515
21
281.139252
0
LINE
8
Layer 1
10
52.540515
20
281.139252
11
52.619100
21
280.750000
0
LINE
8
Layer 1
10
52.619100
20
160.750000
11
52.540515
21
160.360748
0
LINE
8
Layer 1
10
52.540515
20
160.360748
11
52.326207
21
160.042888
0
LINE
8
Layer 1
10
52.326207
20
160.042888
11
52.008345
21
159.828583
0
LINE
8
Layer 1
10
52.008345
20
159.828583
11
51.619100
21
159.750000
0
LINE
8
Layer 1
10
51.619100
20
159.750000
11
51.229855
21
159.828583
0
LINE
8
Layer 1
10
51.229855
20
159.828583
11
50.911993
21
160.042888
0
LINE
8
Layer 1
10
50.911993
20
160.042888
11
50.697685
21
160.360748
0
LINE
8
Layer 1
10
50.697685
20
160.360748
11
50.619100
21
160.750000
0
LINE
8
Layer 1
10
50.619100
20
160.750000
11
50.697685
21
161.139252
0
LINE
8
Layer 1
10
50.697685
20
161.139252
11
50.911993
21
161.457112
0
LINE
8
Layer 1
10
50.911993
20
161.457112
11
51.229855
21
161.671417
0
LINE
8
Layer 1
10
51.229855
20
161.671417
11
51.619100
21
161.750000
0
LINE
8
Layer 1
10
51.619100
20
161.750000
11
52.008345
21
161.671417
0
LINE
8
Layer 1
10
52.008345
20
161.671417
11
52.326207
21
161.457112
0
LINE
8
Layer 1
10
52.326207
20
161.457112
11
52.540515
21
161.139252
0
LINE
8
Layer 1
10
52.540515
20
161.139252
11
52.619100
21
160.750000
0
LINE
8
Layer 1
10
52.619100
20
240.750000
11
52.540515
21
240.360748
0
LINE
8
Layer 1
10
52.540515
20
240.360748
11
52.326207
21
240.042888
0
LINE
8
Layer 1
10
52.326207
20
240.042888
11
52.008345
21
239.828583
0
LINE
8
Layer 1
10
52.008345
20
239.828583
11
51.619100
21
239.750000
0
LINE
8
Layer 1
10
51.619100
20
239.750000
11
51.229855
21
239.828583
0
LINE
8
Layer 1
10
51.229855
20
239.828583
11
50.911993
21
240.042888
0
LINE
8
Layer 1
10
50.911993
20
240.042888
11
50.697685
21
240.360748
0
LINE
8
Layer 1
10
50.697685
20
240.360748
11
50.619100
21
240.750000
0
LINE
8
Layer 1
10
50.619100
20
240.750000
11
50.697685
21
241.139252
0
LINE
8
Layer 1
10
50.697685
20
241.139252
11
50.911993
21
241.457112
0
LINE
8
Layer 1
10
50.911993
20
241.457112
11
51.229855
21
241.671417
0
LINE
8
Layer 1
10
51.229855
20
241.671417
11
51.619100
21
241.750000
0
LINE
8
Layer 1
10
51.619100
20
241.750000
11
52.008345
21
241.671417
0
LINE
8
Layer 1
10
52.008345
20
241.671417
11
52.326207
21
241.457112
0
LINE
8
Layer 1
10
52.326207
20
241.457112
11
52.540515
21
241.139252
0
LINE
8
Layer 1
10
52.540515
20
241.139252
11
52.619100
21
240.750000
0
LINE
8
Layer 1
10
52.619100
20
200.750000
11
52.540515
21
200.360748
0
LINE
8
Layer 1
10
52.540515
20
200.360748
11
52.326207
21
200.042888
0
LINE
8
Layer 1
10
52.326207
20
200.042888
11
52.008345
21
199.828583
0
LINE
8
Layer 1
10
52.008345
20
199.828583
11
51.619100
21
199.750000
0
LINE
8
Layer 1
10
51.619100
20
199.750000
11
51.229855
21
199.828583
0
LINE
8
Layer 1
10
51.229855
20
199.828583
11
50.911993
21
200.042888
0
LINE
8
Layer 1
10
50.911993
20
200.042888
11
50.697685
21
200.360748
0
LINE
8
Layer 1
10
50.697685
20
200.360748
11
50.619100
21
200.750000
0
LINE
8
Layer 1
10
50.619100
20
200.750000
11
50.697685
21
201.139252
0
LINE
8
Layer 1
10
50.697685
20
201.139252
11
50.911993
21
201.457112
0
LINE
8
Layer 1
10
50.911993
20
201.457112
11
51.229855
21
201.671417
0
LINE
8
Layer 1
10
51.229855
20
201.671417
11
51.619100
21
201.750000
0
LINE
8
Layer 1
10
51.619100
20
201.750000
11
52.008345
21
201.671417
0
LINE
8
Layer 1
10
52.008345
20
201.671417
11
52.326207
21
201.457112
0
LINE
8
Layer 1
10
52.326207
20
201.457112
11
52.540515
21
201.139252
0
LINE
8
Layer 1
10
52.540515
20
201.139252
11
52.619100
21
200.750000
0
LINE
8
Layer 1
10
64.619100
20
135.750000
11
64.540517
21
135.360748
0
LINE
8
Layer 1
10
64.540517
20
135.360748
11
64.326212
21
135.042888
0
LINE
8
Layer 1
10
64.326212
20
135.042888
11
64.008352
21
134.828583
0
LINE
8
Layer 1
10
64.008352
20
134.828583
11
63.619100
21
134.750000
0
LINE
8
Layer 1
10
63.619100
20
134.750000
11
63.229848
21
134.828583
0
LINE
8
Layer 1
10
63.229848
20
134.828583
11
62.911988
21
135.042888
0
LINE
8
Layer 1
10
62.911988
20
135.042888
11
62.697683
21
135.360748
0
LINE
8
Layer 1
10
62.697683
20
135.360748
11
62.619100
21
135.750000
0
LINE
8
Layer 1
10
62.619100
20
135.750000
11
62.697683
21
136.139252
0
LINE
8
Layer 1
10
62.697683
20
136.139252
11
62.911988
21
136.457112
0
LINE
8
Layer 1
10
62.911988
20
136.457112
11
63.229848
21
136.671417
0
LINE
8
Layer 1
10
63.229848
20
136.671417
11
63.619100
21
136.750000
0
LINE
8
Layer 1
10
63.619100
20
136.750000
11
64.008352
21
136.671417
0
LINE
8
Layer 1
10
64.008352
20
136.671417
11
64.326212
21
136.457112
0
LINE
8
Layer 1
10
64.326212
20
136.457112
11
64.540517
21
136.139252
0
LINE
8
Layer 1
10
64.540517
20
136.139252
11
64.619100
21
135.750000
0
LINE
8
Layer 1
10
62.119100
20
149.750000
11
62.040517
21
149.360748
0
LINE
8
Layer 1
10
62.040517
20
149.360748
11
61.826213
21
149.042888
0
LINE
8
Layer 1
10
61.826213
20
149.042888
11
61.508352
21
148.828583
0
LINE
8
Layer 1
10
61.508352
20
148.828583
11
61.119100
21
148.750000
0
LINE
8
Layer 1
10
61.119100
20
148.750000
11
60.729857
21
148.828583
0
LINE
8
Layer 1
10
60.729857
20
148.828583
11
60.411995
21
149.042888
0
LINE
8
Layer 1
10
60.411995
20
149.042888
11
60.197686
21
149.360748
0
LINE
8
Layer 1
10
60.197686
20
149.360748
11
60.119100
21
149.750000
0
LINE
8
Layer 1
10
60.119100
20
149.750000
11
60.197686
21
150.139252
0
LINE
8
Layer 1
10
60.197686
20
150.139252
11
60.411995
21
150.457112
0
LINE
8
Layer 1
10
60.411995
20
150.457112
11
60.729857
21
150.671417
0
LINE
8
Layer 1
10
60.729857
20
150.671417
11
61.119100
21
150.750000
0
LINE
8
Layer 1
10
61.119100
20
150.750000
11
61.508352
21
150.671417
0
LINE
8
Layer 1
10
61.508352
20
150.671417
11
61.826213
21
150.457112
0
LINE
8
Layer 1
10
61.826213
20
150.457112
11
62.040517
21
150.139252
0
LINE
8
Layer 1
10
62.040517
20
150.139252
11
62.119100
21
149.750000
0
LINE
8
Layer 1
10
52.619100
20
26.750000
11
52.540515
21
26.360875
0
LINE
8
Layer 1
10
52.540515
20
26.360875
11
52.326207
21
26.043000
0
LINE
8
Layer 1
10
52.326207
20
26.043000
11
52.008345
21
25.828625
0
LINE
8
Layer 1
10
52.008345
20
25.828625
11
51.619100
21
25.750000
0
LINE
8
Layer 1
10
51.619100
20
25.750000
11
51.229855
21
25.828625
0
LINE
8
Layer 1
10
51.229855
20
25.828625
11
50.911993
21
26.043000
0
LINE
8
Layer 1
10
50.911993
20
26.043000
11
50.697685
21
26.360875
0
LINE
8
Layer 1
10
50.697685
20
26.360875
11
50.619100
21
26.750000
0
LINE
8
Layer 1
10
50.619100
20
26.750000
11
50.697685
21
27.139125
0
LINE
8
Layer 1
10
50.697685
20
27.139125
11
50.911993
21
27.457000
0
LINE
8
Layer 1
10
50.911993
20
27.457000
11
51.229855
21
27.671375
0
LINE
8
Layer 1
10
51.229855
20
27.671375
11
51.619100
21
27.750000
0
LINE
8
Layer 1
10
51.619100
20
27.750000
11
52.008345
21
27.671375
0
LINE
8
Layer 1
10
52.008345
20
27.671375
11
52.326207
21
27.457000
0
LINE
8
Layer 1
10
52.326207
20
27.457000
11
52.540515
21
27.139125
0
LINE
8
Layer 1
10
52.540515
20
27.139125
11
52.619100
21
26.750000
0
LINE
8
Layer 1
10
64.619100
20
125.750000
11
64.540517
21
125.360748
0
LINE
8
Layer 1
10
64.540517
20
125.360748
11
64.326212
21
125.042888
0
LINE
8
Layer 1
10
64.326212
20
125.042888
11
64.008352
21
124.828583
0
LINE
8
Layer 1
10
64.008352
20
124.828583
11
63.619100
21
124.750000
0
LINE
8
Layer 1
10
63.619100
20
124.750000
11
63.229848
21
124.828583
0
LINE
8
Layer 1
10
63.229848
20
124.828583
11
62.911988
21
125.042888
0
LINE
8
Layer 1
10
62.911988
20
125.042888
11
62.697683
21
125.360748
0
LINE
8
Layer 1
10
62.697683
20
125.360748
11
62.619100
21
125.750000
0
LINE
8
Layer 1
10
62.619100
20
125.750000
11
62.697683
21
126.139252
0
LINE
8
Layer 1
10
62.697683
20
126.139252
11
62.911988
21
126.457112
0
LINE
8
Layer 1
10
62.911988
20
126.457112
11
63.229848
21
126.671417
0
LINE
8
Layer 1
10
63.229848
20
126.671417
11
63.619100
21
126.750000
0
LINE
8
Layer 1
10
63.619100
20
126.750000
11
64.008352
21
126.671417
0
LINE
8
Layer 1
10
64.008352
20
126.671417
11
64.326212
21
126.457112
0
LINE
8
Layer 1
10
64.326212
20
126.457112
11
64.540517
21
126.139252
0
LINE
8
Layer 1
10
64.540517
20
126.139252
11
64.619100
21
125.750000
0
LINE
8
Layer 1
10
43.119100
20
149.750000
11
43.040514
21
149.360748
0
LINE
8
Layer 1
10
43.040514
20
149.360748
11
42.826205
21
149.042888
0
LINE
8
Layer 1
10
42.826205
20
149.042888
11
42.508343
21
148.828583
0
LINE
8
Layer 1
10
42.508343
20
148.828583
11
42.119100
21
148.750000
0
LINE
8
Layer 1
10
42.119100
20
148.750000
11
41.729848
21
148.828583
0
LINE
8
Layer 1
10
41.729848
20
148.828583
11
41.411988
21
149.042888
0
LINE
8
Layer 1
10
41.411988
20
149.042888
11
41.197683
21
149.360748
0
LINE
8
Layer 1
10
41.197683
20
149.360748
11
41.119100
21
149.750000
0
LINE
8
Layer 1
10
41.119100
20
149.750000
11
41.197683
21
150.139252
0
LINE
8
Layer 1
10
41.197683
20
150.139252
11
41.411988
21
150.457112
0
LINE
8
Layer 1
10
41.411988
20
150.457112
11
41.729848
21
150.671417
0
LINE
8
Layer 1
10
41.729848
20
150.671417
11
42.119100
21
150.750000
0
LINE
8
Layer 1
10
42.119100
20
150.750000
11
42.508343
21
150.671417
0
LINE
8
Layer 1
10
42.508343
20
150.671417
11
42.826205
21
150.457112
0
LINE
8
Layer 1
10
42.826205
20
150.457112
11
43.040514
21
150.139252
0
LINE
8
Layer 1
10
43.040514
20
150.139252
11
43.119100
21
149.750000
0
LINE
8
Layer 1
10
109.619000
20
400.000000
11
109.619000
21
374.897000
0
LINE
8
Layer 1
10
109.619000
20
374.897000
11
109.357583
21
374.051125
0
LINE
8
Layer 1
10
109.357583
20
374.051125
11
108.664450
21
373.500000
0
LINE
8
Layer 1
10
108.664450
20
373.500000
11
107.619377
21
372.896859
0
LINE
8
Layer 1
10
107.619377
20
372.896859
11
106.816306
21
372.030375
0
LINE
8
Layer 1
10
106.816306
20
372.030375
11
106.300945
21
370.967203
0
LINE
8
Layer 1
10
106.300945
20
370.967203
11
106.119000
21
369.774000
0
LINE
8
Layer 1
10
106.119000
20
369.774000
11
106.119000
21
177.063000
0
LINE
8
Layer 1
10
106.119000
20
177.063000
11
106.294373
21
173.823883
0
LINE
8
Layer 1
10
106.294373
20
173.823883
11
106.816440
21
170.631837
0
LINE
8
Layer 1
10
106.816440
20
170.631837
11
107.679119
21
167.514548
0
LINE
8
Layer 1
10
107.679119
20
167.514548
11
108.876330
21
164.499700
0
LINE
8
Layer 1
10
108.876330
20
164.499700
11
111.224031
21
158.840075
0
LINE
8
Layer 1
10
111.224031
20
158.840075
11
113.122379
21
153.024000
0
LINE
8
Layer 1
10
113.122379
20
153.024000
11
114.563794
21
147.078175
0
LINE
8
Layer 1
10
114.563794
20
147.078175
11
115.540700
21
141.029300
0
LINE
8
Layer 1
10
115.540700
20
141.029300
11
115.847384
21
139.427762
0
LINE
8
Layer 1
10
115.847384
20
139.427762
11
116.365550
21
137.889450
0
LINE
8
Layer 1
10
116.365550
20
137.889450
11
117.086591
21
136.435137
0
LINE
8
Layer 1
10
117.086591
20
136.435137
11
118.001900
21
135.085600
0
LINE
8
Layer 1
10
118.001900
20
135.085600
11
118.572105
21
134.204178
0
LINE
8
Layer 1
10
118.572105
20
134.204178
11
118.966802
21
133.258308
0
LINE
8
Layer 1
10
118.966802
20
133.258308
11
119.186938
21
132.271762
0
LINE
8
Layer 1
10
119.186938
20
132.271762
11
119.233463
21
131.268312
0
LINE
8
Layer 1
10
119.233463
20
131.268312
11
119.107323
21
130.271730
0
LINE
8
Layer 1
10
119.107323
20
130.271730
11
118.809467
21
129.305786
0
LINE
8
Layer 1
10
118.809467
20
129.305786
11
118.340844
21
128.394252
0
LINE
8
Layer 1
10
118.340844
20
128.394252
11
117.702400
21
127.560900
0
LINE
8
Layer 1
10
117.702400
20
127.560900
11
117.025356
21
126.670911
0
LINE
8
Layer 1
10
117.025356
20
126.670911
11
116.528800
21
125.679362
0
LINE
8
Layer 1
10
116.528800
20
125.679362
11
116.223194
21
124.613358
0
LINE
8
Layer 1
10
116.223194
20
124.613358
11
116.119000
21
123.500000
0
LINE
8
Layer 1
10
116.119000
20
123.500000
11
116.119000
21
112.000000
0
LINE
8
Layer 1
10
116.119000
20
112.000000
11
112.319000
21
112.000000
0
LINE
8
Layer 1
10
112.319000
20
112.000000
11
112.119000
21
112.200000
0
LINE
8
Layer 1
10
112.119000
20
112.200000
11
111.919000
21
112.000000
0
LINE
8
Layer 1
10
111.919000
20
112.000000
11
112.119000
21
111.800000
0
LINE
8
Layer 1
10
112.119000
20
111.800000
11
112.119000
21
95.200000
0
LINE
8
Layer 1
10
112.119000
20
95.200000
11
111.919000
21
95.000000
0
LINE
8
Layer 1
10
111.919000
20
95.000000
11
112.119000
21
94.800000
0
LINE
8
Layer 1
10
112.119000
20
94.800000
11
112.319000
21
95.000000
0
LINE
8
Layer 1
10
112.319000
20
95.000000
11
115.919000
21
95.000000
0
LINE
8
Layer 1
10
115.919000
20
95.000000
11
116.119000
21
95.000000
0
LINE
8
Layer 1
10
116.119000
20
95.000000
11
116.119000
21
78.000000
0
LINE
8
Layer 1
10
116.119000
20
78.000000
11
112.319000
21
78.000000
0
LINE
8
Layer 1
10
112.319000
20
78.000000
11
112.119000
21
78.200000
0
LINE
8
Layer 1
10
112.119000
20
78.200000
11
111.919000
21
78.000000
0
LINE
8
Layer 1
10
111.919000
20
78.000000
11
112.119000
21
77.800000
0
LINE
8
Layer 1
10
112.119000
20
77.800000
11
112.119000
21
61.200000
0
LINE
8
Layer 1
10
112.119000
20
61.200000
11
111.919000
21
61.000000
0
LINE
8
Layer 1
10
111.919000
20
61.000000
11
112.119000
21
60.800000
0
LINE
8
Layer 1
10
112.119000
20
60.800000
11
112.319000
21
61.000000
0
LINE
8
Layer 1
10
112.319000
20
61.000000
11
115.919000
21
61.000000
0
LINE
8
Layer 1
10
115.919000
20
61.000000
11
116.119000
21
61.000000
0
LINE
8
Layer 1
10
116.119000
20
61.000000
11
116.119000
21
44.000000
0
LINE
8
Layer 1
10
116.119000
20
44.000000
11
112.319000
21
44.000000
0
LINE
8
Layer 1
10
112.319000
20
44.000000
11
112.119000
21
44.200000
0
LINE
8
Layer 1
10
112.119000
20
44.200000
11
111.919000
21
44.000000
0
LINE
8
Layer 1
10
111.919000
20
44.000000
11
112.119000
21
43.800000
0
LINE
8
Layer 1
10
112.119000
20
43.800000
11
112.119000
21
27.200000
0
LINE
8
Layer 1
10
112.119000
20
27.200000
11
111.919000
21
27.000000
0
LINE
8
Layer 1
10
111.919000
20
27.000000
11
112.119000
21
26.800000
0
LINE
8
Layer 1
10
112.119000
20
26.800000
11
112.319000
21
27.000000
0
LINE
8
Layer 1
10
112.319000
20
27.000000
11
115.919000
21
27.000000
0
LINE
8
Layer 1
10
115.919000
20
27.000000
11
116.119000
21
27.000000
0
LINE
8
Layer 1
10
116.119000
20
27.000000
11
116.119000
21
15.500000
0
LINE
8
Layer 1
10
116.119000
20
15.500000
11
115.981000
21
14.769016
0
LINE
8
Layer 1
10
115.981000
20
14.769016
11
115.600600
21
14.156625
0
LINE
8
Layer 1
10
115.600600
20
14.156625
11
115.028200
21
13.718422
0
LINE
8
Layer 1
10
115.028200
20
13.718422
11
114.314200
21
13.510000
0
LINE
8
Layer 1
10
114.314200
20
13.510000
11
112.334122
21
13.235312
0
LINE
8
Layer 1
10
112.334122
20
13.235312
11
110.385401
21
12.804250
0
LINE
8
Layer 1
10
110.385401
20
12.804250
11
108.477280
21
12.219062
0
LINE
8
Layer 1
10
108.477280
20
12.219062
11
106.619000
21
11.482000
0
LINE
8
Layer 1
10
106.619000
20
11.482000
11
104.920512
21
10.833625
0
LINE
8
Layer 1
10
104.920512
20
10.833625
11
103.177870
21
10.370500
0
LINE
8
Layer 1
10
103.177870
20
10.370500
11
101.405794
21
10.092625
0
LINE
8
Layer 1
10
101.405794
20
10.092625
11
99.619000
21
10.000000
0
LINE
8
Layer 1
10
99.619000
20
10.000000
11
97.832206
21
10.092625
0
LINE
8
Layer 1
10
97.832206
20
10.092625
11
96.060130
21
10.370500
0
LINE
8
Layer 1
10
96.060130
20
10.370500
11
94.317488
21
10.833625
0
LINE
8
Layer 1
10
94.317488
20
10.833625
11
92.619000
21
11.482000
0
LINE
8
Layer 1
10
92.619000
20
11.482000
11
90.760720
21
12.219062
0
LINE
8
Layer 1
10
90.760720
20
12.219062
11
88.852599
21
12.804250
0
LINE
8
Layer 1
10
88.852599
20
12.804250
11
86.903878
21
13.235312
0
LINE
8
Layer 1
10
86.903878
20
13.235312
11
84.923800
21
13.510000
0
LINE
8
Layer 1
10
84.923800
20
13.510000
11
84.209800
21
13.718422
0
LINE
8
Layer 1
10
84.209800
20
13.718422
11
83.637400
21
14.156625
0
LINE
8
Layer 1
10
83.637400
20
14.156625
11
83.257000
21
14.769016
0
LINE
8
Layer 1
10
83.257000
20
14.769016
11
83.119000
21
15.500000
0
LINE
8
Layer 1
10
83.119000
20
15.500000
11
83.119100
21
27.000000
0
LINE
8
Layer 1
10
83.119100
20
27.000000
11
83.319100
21
27.000000
0
LINE
8
Layer 1
10
83.319100
20
27.000000
11
86.919100
21
27.000000
0
LINE
8
Layer 1
10
86.919100
20
27.000000
11
87.119100
21
26.800000
0
LINE
8
Layer 1
10
87.119100
20
26.800000
11
87.319100
21
27.000000
0
LINE
8
Layer 1
10
87.319100
20
27.000000
11
87.119100
21
27.200000
0
LINE
8
Layer 1
10
87.119100
20
27.200000
11
87.119100
21
43.800000
0
LINE
8
Layer 1
10
87.119100
20
43.800000
11
87.319100
21
44.000000
0
LINE
8
Layer 1
10
87.319100
20
44.000000
11
87.119100
21
44.200000
0
LINE
8
Layer 1
10
87.119100
20
44.200000
11
86.919100
21
44.000000
0
LINE
8
Layer 1
10
86.919100
20
44.000000
11
83.119100
21
44.000000
0
LINE
8
Layer 1
10
83.119100
20
44.000000
11
83.119100
21
61.000000
0
LINE
8
Layer 1
10
83.119100
20
61.000000
11
83.319100
21
61.000000
0
LINE
8
Layer 1
10
83.319100
20
61.000000
11
86.919100
21
61.000000
0
LINE
8
Layer 1
10
86.919100
20
61.000000
11
87.119100
21
60.800000
0
LINE
8
Layer 1
10
87.119100
20
60.800000
11
87.319100
21
61.000000
0
LINE
8
Layer 1
10
87.319100
20
61.000000
11
87.119100
21
61.200000
0
LINE
8
Layer 1
10
87.119100
20
61.200000
11
87.119100
21
77.800000
0
LINE
8
Layer 1
10
87.119100
20
77.800000
11
87.319100
21
78.000000
0
LINE
8
Layer 1
10
87.319100
20
78.000000
11
87.119100
21
78.200000
0
LINE
8
Layer 1
10
87.119100
20
78.200000
11
86.919100
21
78.000000
0
LINE
8
Layer 1
10
86.919100
20
78.000000
11
83.119100
21
78.000000
0
LINE
8
Layer 1
10
83.119100
20
78.000000
11
83.119100
21
95.000000
0
LINE
8
Layer 1
10
83.119100
20
95.000000
11
83.319100
21
95.000000
0
LINE
8
Layer 1
10
83.319100
20
95.000000
11
86.919100
21
95.000000
0
LINE
8
Layer 1
10
86.919100
20
95.000000
11
87.119100
21
94.800000
0
LINE
8
Layer 1
10
87.119100
20
94.800000
11
87.319100
21
95.000000
0
LINE
8
Layer 1
10
87.319100
20
95.000000
11
87.119100
21
95.200000
0
LINE
8
Layer 1
10
87.119100
20
95.200000
11
87.119100
21
111.800000
0
LINE
8
Layer 1
10
87.119100
20
111.800000
11
87.319100
21
112.000000
0
LINE
8
Layer 1
10
87.319100
20
112.000000
11
87.119100
21
112.200000
0
LINE
8
Layer 1
10
87.119100
20
112.200000
11
86.919100
21
112.000000
0
LINE
8
Layer 1
10
86.919100
20
112.000000
11
83.119100
21
112.000000
0
LINE
8
Layer 1
10
83.119100
20
112.000000
11
83.119100
21
123.500000
0
LINE
8
Layer 1
10
83.119100
20
123.500000
11
83.014892
21
124.613517
0
LINE
8
Layer 1
10
83.014892
20
124.613517
11
82.709262
21
125.679513
0
LINE
8
Layer 1
10
82.709262
20
125.679513
11
82.212702
21
126.671052
0
LINE
8
Layer 1
10
82.212702
20
126.671052
11
81.535700
21
127.561200
0
LINE
8
Layer 1
10
81.535700
20
127.561200
11
80.897256
21
128.394552
0
LINE
8
Layer 1
10
80.897256
20
128.394552
11
80.428633
21
129.306086
0
LINE
8
Layer 1
10
80.428633
20
129.306086
11
80.130777
21
130.272030
0
LINE
8
Layer 1
10
80.130777
20
130.272030
11
80.004638
21
131.268612
0
LINE
8
Layer 1
10
80.004638
20
131.268612
11
80.051162
21
132.272062
0
LINE
8
Layer 1
10
80.051162
20
132.272062
11
80.271298
21
133.258608
0
LINE
8
Layer 1
10
80.271298
20
133.258608
11
80.665995
21
134.204478
0
LINE
8
Layer 1
10
80.665995
20
134.204478
11
81.236200
21
135.085900
0
LINE
8
Layer 1
10
81.236200
20
135.085900
11
82.151509
21
136.435438
0
LINE
8
Layer 1
10
82.151509
20
136.435438
11
82.872550
21
137.889750
0
LINE
8
Layer 1
10
82.872550
20
137.889750
11
83.390716
21
139.428063
0
LINE
8
Layer 1
10
83.390716
20
139.428063
11
83.697400
21
141.029600
0
LINE
8
Layer 1
10
83.697400
20
141.029600
11
84.674306
21
147.078644
0
LINE
8
Layer 1
10
84.674306
20
147.078644
11
86.115725
21
153.024450
0
LINE
8
Layer 1
10
86.115725
20
153.024450
11
88.014081
21
158.840431
0
LINE
8
Layer 1
10
88.014081
20
158.840431
11
90.361800
21
164.500000
0
LINE
8
Layer 1
10
90.361800
20
164.500000
11
91.559006
21
167.514703
0
LINE
8
Layer 1
10
91.559006
20
167.514703
11
92.421675
21
170.631875
0
LINE
8
Layer 1
10
92.421675
20
170.631875
11
92.943731
21
173.823859
0
LINE
8
Layer 1
10
92.943731
20
173.823859
11
93.119100
21
177.063000
0
LINE
8
Layer 1
10
93.119100
20
177.063000
11
93.119100
21
369.774000
0
LINE
8
Layer 1
10
93.119100
20
369.774000
11
92.937230
21
370.967203
0
LINE
8
Layer 1
10
92.937230
20
370.967203
11
92.421993
21
372.030375
0
LINE
8
Layer 1
10
92.421993
20
372.030375
11
91.618946
21
372.896859
0
LINE
8
Layer 1
10
91.618946
20
372.896859
11
90.573650
21
373.500000
0
LINE
8
Layer 1
10
90.573650
20
373.500000
11
89.880517
21
374.051125
0
LINE
8
Layer 1
10
89.880517
20
374.051125
11
89.619100
21
374.897000
0
LINE
8
Layer 1
10
89.619100
20
374.897000
11
89.619100
21
400.000000
0
LINE
8
Layer 1
10
89.619100
20
400.000000
11
89.736977
21
400.583687
0
LINE
8
Layer 1
10
89.736977
20
400.583687
11
90.058439
21
401.060500
0
LINE
8
Layer 1
10
90.058439
20
401.060500
11
90.535231
21
401.382062
0
LINE
8
Layer 1
10
90.535231
20
401.382062
11
91.119100
21
401.500000
0
LINE
8
Layer 1
10
91.119100
20
401.500000
11
91.897590
21
401.657109
0
LINE
8
Layer 1
10
91.897590
20
401.657109
11
92.533314
21
402.085625
0
LINE
8
Layer 1
10
92.533314
20
402.085625
11
92.961930
21
402.721328
0
LINE
8
Layer 1
10
92.961930
20
402.721328
11
93.119100
21
403.500000
0
LINE
8
Layer 1
10
93.119100
20
403.500000
11
93.119100
21
403.500000
0
LINE
8
Layer 1
10
93.119100
20
403.500000
11
93.251154
21
404.810020
0
LINE
8
Layer 1
10
93.251154
20
404.810020
11
93.629897
21
406.030156
0
LINE
8
Layer 1
10
93.629897
20
406.030156
11
94.229191
21
407.134277
0
LINE
8
Layer 1
10
94.229191
20
407.134277
11
95.022899
21
408.096250
0
LINE
8
Layer 1
10
95.022899
20
408.096250
11
95.984882
21
408.889941
0
LINE
8
Layer 1
10
95.984882
20
408.889941
11
97.089001
21
409.489219
0
LINE
8
Layer 1
10
97.089001
20
409.489219
11
98.309120
21
409.867949
0
LINE
8
Layer 1
10
98.309120
20
409.867949
11
99.619100
21
410.000000
0
LINE
8
Layer 1
10
99.619100
20
410.000000
11
100.929080
21
409.867949
0
LINE
8
Layer 1
10
100.929080
20
409.867949
11
102.149199
21
409.489219
0
LINE
8
Layer 1
10
102.149199
20
409.489219
11
103.253318
21
408.889941
0
LINE
8
Layer 1
10
103.253318
20
408.889941
11
104.215301
21
408.096250
0
LINE
8
Layer 1
10
104.215301
20
408.096250
11
105.009009
21
407.134277
0
LINE
8
Layer 1
10
105.009009
20
407.134277
11
105.608303
21
406.030156
0
LINE
8
Layer 1
10
105.608303
20
406.030156
11
105.987046
21
404.810020
0
LINE
8
Layer 1
10
105.987046
20
404.810020
11
106.119100
21
403.500000
0
LINE
8
Layer 1
10
106.119100
20
403.500000
11
106.119000
21
403.500000
0
LINE
8
Layer 1
10
106.119000
20
403.500000
11
106.276170
21
402.721328
0
LINE
8
Layer 1
10
106.276170
20
402.721328
11
106.704786
21
402.085625
0
LINE
8
Layer 1
10
106.704786
20
402.085625
11
107.340510
21
401.657109
0
LINE
8
Layer 1
10
107.340510
20
401.657109
11
108.119000
21
401.500000
0
LINE
8
Layer 1
10
108.119000
20
401.500000
11
108.702869
21
401.382062
0
LINE
8
Layer 1
10
108.702869
20
401.382062
11
109.179661
21
401.060500
0
LINE
8
Layer 1
10
109.179661
20
401.060500
11
109.501123
21
400.583687
0
LINE
8
Layer 1
10
109.501123
20
400.583687
11
109.619000
21
400.000000
0
LINE
8
Layer 1
10
91.619100
20
124.800000
11
90.619100
21
124.800000
0
LINE
8
Layer 1
10
90.619100
20
124.800000
11
90.619100
21
143.000000
0
LINE
8
Layer 1
10
90.619100
20
143.000000
11
91.619100
21
143.000000
0
LINE
8
Layer 1
10
91.619100
20
143.000000
11
91.619100
21
144.500000
0
LINE
8
Layer 1
10
91.619100
20
144.500000
11
91.697502
21
145.618631
0
LINE
8
Layer 1
10
91.697502
20
145.618631
11
91.927192
21
146.699670
0
LINE
8
Layer 1
10
91.927192
20
146.699670
11
92.299898
21
147.729683
0
LINE
8
Layer 1
10
92.299898
20
147.729683
11
92.807346
21
148.695237
0
LINE
8
Layer 1
10
92.807346
20
148.695237
11
93.441264
21
149.582899
0
LINE
8
Layer 1
10
93.441264
20
149.582899
11
94.193377
21
150.379236
0
LINE
8
Layer 1
10
94.193377
20
150.379236
11
95.055414
21
151.070814
0
LINE
8
Layer 1
10
95.055414
20
151.070814
11
96.019100
21
151.644200
0
LINE
8
Layer 1
10
96.019100
20
151.644200
11
96.475530
21
151.960459
0
LINE
8
Layer 1
10
96.475530
20
151.960459
11
96.822037
21
152.381475
0
LINE
8
Layer 1
10
96.822037
20
152.381475
11
97.042077
21
152.880378
0
LINE
8
Layer 1
10
97.042077
20
152.880378
11
97.119100
21
153.430300
0
LINE
8
Layer 1
10
97.119100
20
153.430300
11
97.119100
21
156.500000
0
LINE
8
Layer 1
10
97.119100
20
156.500000
11
97.197686
21
156.889252
0
LINE
8
Layer 1
10
97.197686
20
156.889252
11
97.411995
21
157.207112
0
LINE
8
Layer 1
10
97.411995
20
157.207112
11
97.729857
21
157.421417
0
LINE
8
Layer 1
10
97.729857
20
157.421417
11
98.119100
21
157.500000
0
LINE
8
Layer 1
10
98.119100
20
157.500000
11
101.119000
21
157.500000
0
LINE
8
Layer 1
10
101.119000
20
157.500000
11
101.508243
21
157.421417
0
LINE
8
Layer 1
10
101.508243
20
157.421417
11
101.826105
21
157.207112
0
LINE
8
Layer 1
10
101.826105
20
157.207112
11
102.040414
21
156.889252
0
LINE
8
Layer 1
10
102.040414
20
156.889252
11
102.119000
21
156.500000
0
LINE
8
Layer 1
10
102.119000
20
156.500000
11
102.119000
21
153.430000
0
LINE
8
Layer 1
10
102.119000
20
153.430000
11
102.196023
21
152.880078
0
LINE
8
Layer 1
10
102.196023
20
152.880078
11
102.416063
21
152.381175
0
LINE
8
Layer 1
10
102.416063
20
152.381175
11
102.762570
21
151.960159
0
LINE
8
Layer 1
10
102.762570
20
151.960159
11
103.219000
21
151.643900
0
LINE
8
Layer 1
10
103.219000
20
151.643900
11
104.182686
21
151.070514
0
LINE
8
Layer 1
10
104.182686
20
151.070514
11
105.044723
21
150.378936
0
LINE
8
Layer 1
10
105.044723
20
150.378936
11
105.796836
21
149.582599
0
LINE
8
Layer 1
10
105.796836
20
149.582599
11
106.430754
21
148.694938
0
LINE
8
Layer 1
10
106.430754
20
148.694938
11
106.938202
21
147.729383
0
LINE
8
Layer 1
10
106.938202
20
147.729383
11
107.310908
21
146.699370
0
LINE
8
Layer 1
10
107.310908
20
146.699370
11
107.540598
21
145.618331
0
LINE
8
Layer 1
10
107.540598
20
145.618331
11
107.619000
21
144.499700
0
LINE
8
Layer 1
10
107.619000
20
144.499700
11
107.619000
21
143.000000
0
LINE
8
Layer 1
10
107.619000
20
143.000000
11
108.619000
21
143.000000
0
LINE
8
Layer 1
10
108.619000
20
143.000000
11
108.619000
21
124.800000
0
LINE
8
Layer 1
10
108.619000
20
124.800000
11
107.619000
21
124.800000
0
LINE
8
Layer 1
10
107.619000
20
124.800000
11
107.619000
21
124.500000
0
LINE
8
Layer 1
10
107.619000
20
124.500000
11
91.619100
21
124.500000
0
LINE
8
Layer 1
10
91.619100
20
124.500000
11
91.619100
21
124.800000
0
LINE
8
Layer 1
10
93.619100
20
15.500000
11
93.619100
21
19.500000
0
LINE
8
Layer 1
10
93.619100
20
19.500000
11
105.619000
21
19.500000
0
LINE
8
Layer 1
10
105.619000
20
19.500000
11
105.619000
21
15.500000
0
LINE
8
Layer 1
10
105.619000
20
15.500000
11
93.619100
21
15.500000
0
LINE
8
Layer 1
10
115.119000
20
131.500000
11
114.985408
21
130.838277
0
LINE
8
Layer 1
10
114.985408
20
130.838277
11
114.621088
21
130.297912
0
LINE
8
Layer 1
10
114.621088
20
130.297912
11
114.080723
21
129.933592
0
LINE
8
Layer 1
10
114.080723
20
129.933592
11
113.419000
21
129.800000
0
LINE
8
Layer 1
10
113.419000
20
129.800000
11
112.757277
21
129.933592
0
LINE
8
Layer 1
10
112.757277
20
129.933592
11
112.216912
21
130.297912
0
LINE
8
Layer 1
10
112.216912
20
130.297912
11
111.852592
21
130.838277
0
LINE
8
Layer 1
10
111.852592
20
130.838277
11
111.719000
21
131.500000
0
LINE
8
Layer 1
10
111.719000
20
131.500000
11
111.852592
21
132.161723
0
LINE
8
Layer 1
10
111.852592
20
132.161723
11
112.216912
21
132.702088
0
LINE
8
Layer 1
10
112.216912
20
132.702088
11
112.757277
21
133.066408
0
LINE
8
Layer 1
10
112.757277
20
133.066408
11
113.419000
21
133.200000
0
LINE
8
Layer 1
10
113.419000
20
133.200000
11
114.080723
21
133.066408
0
LINE
8
Layer 1
10
114.080723
20
133.066408
11
114.621088
21
132.702088
0
LINE
8
Layer 1
10
114.621088
20
132.702088
11
114.985408
21
132.161723
0
LINE
8
Layer 1
10
114.985408
20
132.161723
11
115.119000
21
131.500000
0
LINE
8
Layer 1
10
87.519100
20
131.500000
11
87.385508
21
130.838277
0
LINE
8
Layer 1
10
87.385508
20
130.838277
11
87.021187
21
130.297912
0
LINE
8
Layer 1
10
87.021187
20
130.297912
11
86.480823
21
129.933592
0
LINE
8
Layer 1
10
86.480823
20
129.933592
11
85.819100
21
129.800000
0
LINE
8
Layer 1
10
85.819100
20
129.800000
11
85.157377
21
129.933592
0
LINE
8
Layer 1
10
85.157377
20
129.933592
11
84.617012
21
130.297912
0
LINE
8
Layer 1
10
84.617012
20
130.297912
11
84.252692
21
130.838277
0
LINE
8
Layer 1
10
84.252692
20
130.838277
11
84.119100
21
131.500000
0
LINE
8
Layer 1
10
84.119100
20
131.500000
11
84.252692
21
132.161723
0
LINE
8
Layer 1
10
84.252692
20
132.161723
11
84.617012
21
132.702088
0
LINE
8
Layer 1
10
84.617012
20
132.702088
11
85.157377
21
133.066408
0
LINE
8
Layer 1
10
85.157377
20
133.066408
11
85.819100
21
133.200000
0
LINE
8
Layer 1
10
85.819100
20
133.200000
11
86.480823
21
133.066408
0
LINE
8
Layer 1
10
86.480823
20
133.066408
11
87.021187
21
132.702088
0
LINE
8
Layer 1
10
87.021187
20
132.702088
11
87.385508
21
132.161723
0
LINE
8
Layer 1
10
87.385508
20
132.161723
11
87.519100
21
131.500000
0
LINE
8
Layer 1
10
88.619100
20
126.500000
11
88.540517
21
126.110748
0
LINE
8
Layer 1
10
88.540517
20
126.110748
11
88.326212
21
125.792888
0
LINE
8
Layer 1
10
88.326212
20
125.792888
11
88.008352
21
125.578583
0
LINE
8
Layer 1
10
88.008352
20
125.578583
11
87.619100
21
125.500000
0
LINE
8
Layer 1
10
87.619100
20
125.500000
11
87.229848
21
125.578583
0
LINE
8
Layer 1
10
87.229848
20
125.578583
11
86.911988
21
125.792888
0
LINE
8
Layer 1
10
86.911988
20
125.792888
11
86.697683
21
126.110748
0
LINE
8
Layer 1
10
86.697683
20
126.110748
11
86.619100
21
126.500000
0
LINE
8
Layer 1
10
86.619100
20
126.500000
11
86.697683
21
126.889252
0
LINE
8
Layer 1
10
86.697683
20
126.889252
11
86.911988
21
127.207112
0
LINE
8
Layer 1
10
86.911988
20
127.207112
11
87.229848
21
127.421417
0
LINE
8
Layer 1
10
87.229848
20
127.421417
11
87.619100
21
127.500000
0
LINE
8
Layer 1
10
87.619100
20
127.500000
11
88.008352
21
127.421417
0
LINE
8
Layer 1
10
88.008352
20
127.421417
11
88.326212
21
127.207112
0
LINE
8
Layer 1
10
88.326212
20
127.207112
11
88.540517
21
126.889252
0
LINE
8
Layer 1
10
88.540517
20
126.889252
11
88.619100
21
126.500000
0
LINE
8
Layer 1
10
100.619000
20
27.500000
11
100.540415
21
27.110875
0
LINE
8
Layer 1
10
100.540415
20
27.110875
11
100.326107
21
26.793000
0
LINE
8
Layer 1
10
100.326107
20
26.793000
11
100.008245
21
26.578625
0
LINE
8
Layer 1
10
100.008245
20
26.578625
11
99.619000
21
26.500000
0
LINE
8
Layer 1
10
99.619000
20
26.500000
11
99.229755
21
26.578625
0
LINE
8
Layer 1
10
99.229755
20
26.578625
11
98.911893
21
26.793000
0
LINE
8
Layer 1
10
98.911893
20
26.793000
11
98.697585
21
27.110875
0
LINE
8
Layer 1
10
98.697585
20
27.110875
11
98.619000
21
27.500000
0
LINE
8
Layer 1
10
98.619000
20
27.500000
11
98.697585
21
27.889125
0
LINE
8
Layer 1
10
98.697585
20
27.889125
11
98.911893
21
28.207000
0
LINE
8
Layer 1
10
98.911893
20
28.207000
11
99.229755
21
28.421375
0
LINE
8
Layer 1
10
99.229755
20
28.421375
11
99.619000
21
28.500000
0
LINE
8
Layer 1
10
99.619000
20
28.500000
11
100.008245
21
28.421375
0
LINE
8
Layer 1
10
100.008245
20
28.421375
11
100.326107
21
28.207000
0
LINE
8
Layer 1
10
100.326107
20
28.207000
11
100.540415
21
27.889125
0
LINE
8
Layer 1
10
100.540415
20
27.889125
11
100.619000
21
27.500000
0
LINE
8
Layer 1
10
100.619000
20
281.500000
11
100.540415
21
281.110748
0
LINE
8
Layer 1
10
100.540415
20
281.110748
11
100.326107
21
280.792888
0
LINE
8
Layer 1
10
100.326107
20
280.792888
11
100.008245
21
280.578583
0
LINE
8
Layer 1
10
100.008245
20
280.578583
11
99.619000
21
280.500000
0
LINE
8
Layer 1
10
99.619000
20
280.500000
11
99.229755
21
280.578583
0
LINE
8
Layer 1
10
99.229755
20
280.578583
11
98.911893
21
280.792888
0
LINE
8
Layer 1
10
98.911893
20
280.792888
11
98.697585
21
281.110748
0
LINE
8
Layer 1
10
98.697585
20
281.110748
11
98.619000
21
281.500000
0
LINE
8
Layer 1
10
98.619000
20
281.500000
11
98.697585
21
281.889252
0
LINE
8
Layer 1
10
98.697585
20
281.889252
11
98.911893
21
282.207112
0
LINE
8
Layer 1
10
98.911893
20
282.207112
11
99.229755
21
282.421417
0
LINE
8
Layer 1
10
99.229755
20
282.421417
11
99.619000
21
282.500000
0
LINE
8
Layer 1
10
99.619000
20
282.500000
11
100.008245
21
282.421417
0
LINE
8
Layer 1
10
100.008245
20
282.421417
11
100.326107
21
282.207112
0
LINE
8
Layer 1
10
100.326107
20
282.207112
11
100.540415
21
281.889252
0
LINE
8
Layer 1
10
100.540415
20
281.889252
11
100.619000
21
281.500000
0
LINE
8
Layer 1
10
91.119100
20
150.500000
11
91.040514
21
150.110748
0
LINE
8
Layer 1
10
91.040514
20
150.110748
11
90.826205
21
149.792888
0
LINE
8
Layer 1
10
90.826205
20
149.792888
11
90.508343
21
149.578583
0
LINE
8
Layer 1
10
90.508343
20
149.578583
11
90.119100
21
149.500000
0
LINE
8
Layer 1
10
90.119100
20
149.500000
11
89.729848
21
149.578583
0
LINE
8
Layer 1
10
89.729848
20
149.578583
11
89.411988
21
149.792888
0
LINE
8
Layer 1
10
89.411988
20
149.792888
11
89.197683
21
150.110748
0
LINE
8
Layer 1
10
89.197683
20
150.110748
11
89.119100
21
150.500000
0
LINE
8
Layer 1
10
89.119100
20
150.500000
11
89.197683
21
150.889252
0
LINE
8
Layer 1
10
89.197683
20
150.889252
11
89.411988
21
151.207112
0
LINE
8
Layer 1
10
89.411988
20
151.207112
11
89.729848
21
151.421417
0
LINE
8
Layer 1
10
89.729848
20
151.421417
11
90.119100
21
151.500000
0
LINE
8
Layer 1
10
90.119100
20
151.500000
11
90.508343
21
151.421417
0
LINE
8
Layer 1
10
90.508343
20
151.421417
11
90.826205
21
151.207112
0
LINE
8
Layer 1
10
90.826205
20
151.207112
11
91.040514
21
150.889252
0
LINE
8
Layer 1
10
91.040514
20
150.889252
11
91.119100
21
150.500000
0
LINE
8
Layer 1
10
100.619000
20
241.500000
11
100.540415
21
241.110748
0
LINE
8
Layer 1
10
100.540415
20
241.110748
11
100.326107
21
240.792888
0
LINE
8
Layer 1
10
100.326107
20
240.792888
11
100.008245
21
240.578583
0
LINE
8
Layer 1
10
100.008245
20
240.578583
11
99.619000
21
240.500000
0
LINE
8
Layer 1
10
99.619000
20
240.500000
11
99.229755
21
240.578583
0
LINE
8
Layer 1
10
99.229755
20
240.578583
11
98.911893
21
240.792888
0
LINE
8
Layer 1
10
98.911893
20
240.792888
11
98.697585
21
241.110748
0
LINE
8
Layer 1
10
98.697585
20
241.110748
11
98.619000
21
241.500000
0
LINE
8
Layer 1
10
98.619000
20
241.500000
11
98.697585
21
241.889252
0
LINE
8
Layer 1
10
98.697585
20
241.889252
11
98.911893
21
242.207112
0
LINE
8
Layer 1
10
98.911893
20
242.207112
11
99.229755
21
242.421417
0
LINE
8
Layer 1
10
99.229755
20
242.421417
11
99.619000
21
242.500000
0
LINE
8
Layer 1
10
99.619000
20
242.500000
11
100.008245
21
242.421417
0
LINE
8
Layer 1
10
100.008245
20
242.421417
11
100.326107
21
242.207112
0
LINE
8
Layer 1
10
100.326107
20
242.207112
11
100.540415
21
241.889252
0
LINE
8
Layer 1
10
100.540415
20
241.889252
11
100.619000
21
241.500000
0
LINE
8
Layer 1
10
100.619000
20
201.500000
11
100.540415
21
201.110757
0
LINE
8
Layer 1
10
100.540415
20
201.110757
11
100.326107
21
200.792895
0
LINE
8
Layer 1
10
100.326107
20
200.792895
11
100.008245
21
200.578586
0
LINE
8
Layer 1
10
100.008245
20
200.578586
11
99.619000
21
200.500000
0
LINE
8
Layer 1
10
99.619000
20
200.500000
11
99.229755
21
200.578586
0
LINE
8
Layer 1
10
99.229755
20
200.578586
11
98.911893
21
200.792895
0
LINE
8
Layer 1
10
98.911893
20
200.792895
11
98.697585
21
201.110757
0
LINE
8
Layer 1
10
98.697585
20
201.110757
11
98.619000
21
201.500000
0
LINE
8
Layer 1
10
98.619000
20
201.500000
11
98.697585
21
201.889243
0
LINE
8
Layer 1
10
98.697585
20
201.889243
11
98.911893
21
202.207105
0
LINE
8
Layer 1
10
98.911893
20
202.207105
11
99.229755
21
202.421414
0
LINE
8
Layer 1
10
99.229755
20
202.421414
11
99.619000
21
202.500000
0
LINE
8
Layer 1
10
99.619000
20
202.500000
11
100.008245
21
202.421414
0
LINE
8
Layer 1
10
100.008245
20
202.421414
11
100.326107
21
202.207105
0
LINE
8
Layer 1
10
100.326107
20
202.207105
11
100.540415
21
201.889243
0
LINE
8
Layer 1
10
100.540415
20
201.889243
11
100.619000
21
201.500000
0
LINE
8
Layer 1
10
112.619000
20
136.500000
11
112.540417
21
136.110748
0
LINE
8
Layer 1
10
112.540417
20
136.110748
11
112.326112
21
135.792888
0
LINE
8
Layer 1
10
112.326112
20
135.792888
11
112.008252
21
135.578583
0
LINE
8
Layer 1
10
112.008252
20
135.578583
11
111.619000
21
135.500000
0
LINE
8
Layer 1
10
111.619000
20
135.500000
11
111.229748
21
135.578583
0
LINE
8
Layer 1
10
111.229748
20
135.578583
11
110.911888
21
135.792888
0
LINE
8
Layer 1
10
110.911888
20
135.792888
11
110.697583
21
136.110748
0
LINE
8
Layer 1
10
110.697583
20
136.110748
11
110.619000
21
136.500000
0
LINE
8
Layer 1
10
110.619000
20
136.500000
11
110.697583
21
136.889252
0
LINE
8
Layer 1
10
110.697583
20
136.889252
11
110.911888
21
137.207112
0
LINE
8
Layer 1
10
110.911888
20
137.207112
11
111.229748
21
137.421417
0
LINE
8
Layer 1
10
111.229748
20
137.421417
11
111.619000
21
137.500000
0
LINE
8
Layer 1
10
111.619000
20
137.500000
11
112.008252
21
137.421417
0
LINE
8
Layer 1
10
112.008252
20
137.421417
11
112.326112
21
137.207112
0
LINE
8
Layer 1
10
112.326112
20
137.207112
11
112.540417
21
136.889252
0
LINE
8
Layer 1
10
112.540417
20
136.889252
11
112.619000
21
136.500000
0
LINE
8
Layer 1
10
100.619000
20
401.500000
11
100.540415
21
401.110875
0
LINE
8
Layer 1
10
100.540415
20
401.110875
11
100.326107
21
400.793000
0
LINE
8
Layer 1
10
100.326107
20
400.793000
11
100.008245
21
400.578625
0
LINE
8
Layer 1
10
100.008245
20
400.578625
11
99.619000
21
400.500000
0
LINE
8
Layer 1
10
99.619000
20
400.500000
11
99.229755
21
400.578625
0
LINE
8
Layer 1
10
99.229755
20
400.578625
11
98.911893
21
400.793000
0
LINE
8
Layer 1
10
98.911893
20
400.793000
11
98.697585
21
401.110875
0
LINE
8
Layer 1
10
98.697585
20
401.110875
11
98.619000
21
401.500000
0
LINE
8
Layer 1
10
98.619000
20
401.500000
11
98.697585
21
401.889125
0
LINE
8
Layer 1
10
98.697585
20
401.889125
11
98.911893
21
402.207000
0
LINE
8
Layer 1
10
98.911893
20
402.207000
11
99.229755
21
402.421375
0
LINE
8
Layer 1
10
99.229755
20
402.421375
11
99.619000
21
402.500000
0
LINE
8
Layer 1
10
99.619000
20
402.500000
11
100.008245
21
402.421375
0
LINE
8
Layer 1
10
100.008245
20
402.421375
11
100.326107
21
402.207000
0
LINE
8
Layer 1
10
100.326107
20
402.207000
11
100.540415
21
401.889125
0
LINE
8
Layer 1
10
100.540415
20
401.889125
11
100.619000
21
401.500000
0
LINE
8
Layer 1
10
100.619000
20
75.500000
11
100.540415
21
75.110875
0
LINE
8
Layer 1
10
100.540415
20
75.110875
11
100.326107
21
74.793000
0
LINE
8
Layer 1
10
100.326107
20
74.793000
11
100.008245
21
74.578625
0
LINE
8
Layer 1
10
100.008245
20
74.578625
11
99.619000
21
74.500000
0
LINE
8
Layer 1
10
99.619000
20
74.500000
11
99.229755
21
74.578625
0
LINE
8
Layer 1
10
99.229755
20
74.578625
11
98.911893
21
74.793000
0
LINE
8
Layer 1
10
98.911893
20
74.793000
11
98.697585
21
75.110875
0
LINE
8
Layer 1
10
98.697585
20
75.110875
11
98.619000
21
75.500000
0
LINE
8
Layer 1
10
98.619000
20
75.500000
11
98.697585
21
75.889125
0
LINE
8
Layer 1
10
98.697585
20
75.889125
11
98.911893
21
76.207000
0
LINE
8
Layer 1
10
98.911893
20
76.207000
11
99.229755
21
76.421375
0
LINE
8
Layer 1
10
99.229755
20
76.421375
11
99.619000
21
76.500000
0
LINE
8
Layer 1
10
99.619000
20
76.500000
11
100.008245
21
76.421375
0
LINE
8
Layer 1
10
100.008245
20
76.421375
11
100.326107
21
76.207000
0
LINE
8
Layer 1
10
100.326107
20
76.207000
11
100.540415
21
75.889125
0
LINE
8
Layer 1
10
100.540415
20
75.889125
11
100.619000
21
75.500000
0
LINE
8
Layer 1
10
100.619000
20
321.500000
11
100.540415
21
321.110875
0
LINE
8
Layer 1
10
100.540415
20
321.110875
11
100.326107
21
320.793000
0
LINE
8
Layer 1
10
100.326107
20
320.793000
11
100.008245
21
320.578625
0
LINE
8
Layer 1
10
100.008245
20
320.578625
11
99.619000
21
320.500000
0
LINE
8
Layer 1
10
99.619000
20
320.500000
11
99.229755
21
320.578625
0
LINE
8
Layer 1
10
99.229755
20
320.578625
11
98.911893
21
320.793000
0
LINE
8
Layer 1
10
98.911893
20
320.793000
11
98.697585
21
321.110875
0
LINE
8
Layer 1
10
98.697585
20
321.110875
11
98.619000
21
321.500000
0
LINE
8
Layer 1
10
98.619000
20
321.500000
11
98.697585
21
321.889125
0
LINE
8
Layer 1
10
98.697585
20
321.889125
11
98.911893
21
322.207000
0
LINE
8
Layer 1
10
98.911893
20
322.207000
11
99.229755
21
322.421375
0
LINE
8
Layer 1
10
99.229755
20
322.421375
11
99.619000
21
322.500000
0
LINE
8
Layer 1
10
99.619000
20
322.500000
11
100.008245
21
322.421375
0
LINE
8
Layer 1
10
100.008245
20
322.421375
11
100.326107
21
322.207000
0
LINE
8
Layer 1
10
100.326107
20
322.207000
11
100.540415
21
321.889125
0
LINE
8
Layer 1
10
100.540415
20
321.889125
11
100.619000
21
321.500000
0
LINE
8
Layer 1
10
100.619000
20
361.500000
11
100.540415
21
361.110875
0
LINE
8
Layer 1
10
100.540415
20
361.110875
11
100.326107
21
360.793000
0
LINE
8
Layer 1
10
100.326107
20
360.793000
11
100.008245
21
360.578625
0
LINE
8
Layer 1
10
100.008245
20
360.578625
11
99.619000
21
360.500000
0
LINE
8
Layer 1
10
99.619000
20
360.500000
11
99.229755
21
360.578625
0
LINE
8
Layer 1
10
99.229755
20
360.578625
11
98.911893
21
360.793000
0
LINE
8
Layer 1
10
98.911893
20
360.793000
11
98.697585
21
361.110875
0
LINE
8
Layer 1
10
98.697585
20
361.110875
11
98.619000
21
361.500000
0
LINE
8
Layer 1
10
98.619000
20
361.500000
11
98.697585
21
361.889125
0
LINE
8
Layer 1
10
98.697585
20
361.889125
11
98.911893
21
362.207000
0
LINE
8
Layer 1
10
98.911893
20
362.207000
11
99.229755
21
362.421375
0
LINE
8
Layer 1
10
99.229755
20
362.421375
11
99.619000
21
362.500000
0
LINE
8
Layer 1
10
99.619000
20
362.500000
11
100.008245
21
362.421375
0
LINE
8
Layer 1
10
100.008245
20
362.421375
11
100.326107
21
362.207000
0
LINE
8
Layer 1
10
100.326107
20
362.207000
11
100.540415
21
361.889125
0
LINE
8
Layer 1
10
100.540415
20
361.889125
11
100.619000
21
361.500000
0
LINE
8
Layer 1
10
100.619000
20
161.500000
11
100.540415
21
161.110748
0
LINE
8
Layer 1
10
100.540415
20
161.110748
11
100.326107
21
160.792888
0
LINE
8
Layer 1
10
100.326107
20
160.792888
11
100.008245
21
160.578583
0
LINE
8
Layer 1
10
100.008245
20
160.578583
11
99.619000
21
160.500000
0
LINE
8
Layer 1
10
99.619000
20
160.500000
11
99.229755
21
160.578583
0
LINE
8
Layer 1
10
99.229755
20
160.578583
11
98.911893
21
160.792888
0
LINE
8
Layer 1
10
98.911893
20
160.792888
11
98.697585
21
161.110748
0
LINE
8
Layer 1
10
98.697585
20
161.110748
11
98.619000
21
161.500000
0
LINE
8
Layer 1
10
98.619000
20
161.500000
11
98.697585
21
161.889252
0
LINE
8
Layer 1
10
98.697585
20
161.889252
11
98.911893
21
162.207112
0
LINE
8
Layer 1
10
98.911893
20
162.207112
11
99.229755
21
162.421417
0
LINE
8
Layer 1
10
99.229755
20
162.421417
11
99.619000
21
162.500000
0
LINE
8
Layer 1
10
99.619000
20
162.500000
11
100.008245
21
162.421417
0
LINE
8
Layer 1
10
100.008245
20
162.421417
11
100.326107
21
162.207112
0
LINE
8
Layer 1
10
100.326107
20
162.207112
11
100.540415
21
161.889252
0
LINE
8
Layer 1
10
100.540415
20
161.889252
11
100.619000
21
161.500000
0
LINE
8
Layer 1
10
112.619000
20
126.500000
11
112.540417
21
126.110748
0
LINE
8
Layer 1
10
112.540417
20
126.110748
11
112.326112
21
125.792888
0
LINE
8
Layer 1
10
112.326112
20
125.792888
11
112.008252
21
125.578583
0
LINE
8
Layer 1
10
112.008252
20
125.578583
11
111.619000
21
125.500000
0
LINE
8
Layer 1
10
111.619000
20
125.500000
11
111.229748
21
125.578583
0
LINE
8
Layer 1
10
111.229748
20
125.578583
11
110.911888
21
125.792888
0
LINE
8
Layer 1
10
110.911888
20
125.792888
11
110.697583
21
126.110748
0
LINE
8
Layer 1
10
110.697583
20
126.110748
11
110.619000
21
126.500000
0
LINE
8
Layer 1
10
110.619000
20
126.500000
11
110.697583
21
126.889252
0
LINE
8
Layer 1
10
110.697583
20
126.889252
11
110.911888
21
127.207112
0
LINE
8
Layer 1
10
110.911888
20
127.207112
11
111.229748
21
127.421417
0
LINE
8
Layer 1
10
111.229748
20
127.421417
11
111.619000
21
127.500000
0
LINE
8
Layer 1
10
111.619000
20
127.500000
11
112.008252
21
127.421417
0
LINE
8
Layer 1
10
112.008252
20
127.421417
11
112.326112
21
127.207112
0
LINE
8
Layer 1
10
112.326112
20
127.207112
11
112.540417
21
126.889252
0
LINE
8
Layer 1
10
112.540417
20
126.889252
11
112.619000
21
126.500000
0
LINE
8
Layer 1
10
110.119000
20
150.500000
11
110.040417
21
150.110748
0
LINE
8
Layer 1
10
110.040417
20
150.110748
11
109.826112
21
149.792888
0
LINE
8
Layer 1
10
109.826112
20
149.792888
11
109.508252
21
149.578583
0
LINE
8
Layer 1
10
109.508252
20
149.578583
11
109.119000
21
149.500000
0
LINE
8
Layer 1
10
109.119000
20
149.500000
11
108.729757
21
149.578583
0
LINE
8
Layer 1
10
108.729757
20
149.578583
11
108.411895
21
149.792888
0
LINE
8
Layer 1
10
108.411895
20
149.792888
11
108.197586
21
150.110748
0
LINE
8
Layer 1
10
108.197586
20
150.110748
11
108.119000
21
150.500000
0
LINE
8
Layer 1
10
108.119000
20
150.500000
11
108.197586
21
150.889252
0
LINE
8
Layer 1
10
108.197586
20
150.889252
11
108.411895
21
151.207112
0
LINE
8
Layer 1
10
108.411895
20
151.207112
11
108.729757
21
151.421417
0
LINE
8
Layer 1
10
108.729757
20
151.421417
11
109.119000
21
151.500000
0
LINE
8
Layer 1
10
109.119000
20
151.500000
11
109.508252
21
151.421417
0
LINE
8
Layer 1
10
109.508252
20
151.421417
11
109.826112
21
151.207112
0
LINE
8
Layer 1
10
109.826112
20
151.207112
11
110.040417
21
150.889252
0
LINE
8
Layer 1
10
110.040417
20
150.889252
11
110.119000
21
150.500000
0
LINE
8
Layer 1
10
88.619100
20
136.500000
11
88.540517
21
136.110748
0
LINE
8
Layer 1
10
88.540517
20
136.110748
11
88.326212
21
135.792888
0
LINE
8
Layer 1
10
88.326212
20
135.792888
11
88.008352
21
135.578583
0
LINE
8
Layer 1
10
88.008352
20
135.578583
11
87.619100
21
135.500000
0
LINE
8
Layer 1
10
87.619100
20
135.500000
11
87.229848
21
135.578583
0
LINE
8
Layer 1
10
87.229848
20
135.578583
11
86.911988
21
135.792888
0
LINE
8
Layer 1
10
86.911988
20
135.792888
11
86.697683
21
136.110748
0
LINE
8
Layer 1
10
86.697683
20
136.110748
11
86.619100
21
136.500000
0
LINE
8
Layer 1
10
86.619100
20
136.500000
11
86.697683
21
136.889252
0
LINE
8
Layer 1
10
86.697683
20
136.889252
11
86.911988
21
137.207112
0
LINE
8
Layer 1
10
86.911988
20
137.207112
11
87.229848
21
137.421417
0
LINE
8
Layer 1
10
87.229848
20
137.421417
11
87.619100
21
137.500000
0
LINE
8
Layer 1
10
87.619100
20
137.500000
11
88.008352
21
137.421417
0
LINE
8
Layer 1
10
88.008352
20
137.421417
11
88.326212
21
137.207112
0
LINE
8
Layer 1
10
88.326212
20
137.207112
11
88.540517
21
136.889252
0
LINE
8
Layer 1
10
88.540517
20
136.889252
11
88.619100
21
136.500000
0
LINE
8
Layer 1
10
39.540800
20
260.280000
11
39.847484
21
258.678467
0
LINE
8
Layer 1
10
39.847484
20
258.678467
11
40.365650
21
257.140166
0
LINE
8
Layer 1
10
40.365650
20
257.140166
11
41.086691
21
255.685867
0
LINE
8
Layer 1
10
41.086691
20
255.685867
11
42.002000
21
254.336340
0
LINE
8
Layer 1
10
42.002000
20
254.336340
11
42.572205
21
253.454911
0
LINE
8
Layer 1
10
42.572205
20
253.454911
11
42.966902
21
252.509038
0
LINE
8
Layer 1
10
42.966902
20
252.509038
11
43.187038
21
251.522490
0
LINE
8
Layer 1
10
43.187038
20
251.522490
11
43.233562
21
250.519040
0
LINE
8
Layer 1
10
43.233562
20
250.519040
11
43.107423
21
249.522458
0
LINE
8
Layer 1
10
43.107423
20
249.522458
11
42.809567
21
248.556515
0
LINE
8
Layer 1
10
42.809567
20
248.556515
11
42.340944
21
247.644982
0
LINE
8
Layer 1
10
42.340944
20
247.644982
11
41.702500
21
246.811630
0
LINE
8
Layer 1
10
41.702500
20
246.811630
11
41.025498
21
245.921219
0
LINE
8
Layer 1
10
41.025498
20
245.921219
11
40.528937
21
244.929454
0
LINE
8
Layer 1
10
40.528937
20
244.929454
11
40.223308
21
243.863369
0
LINE
8
Layer 1
10
40.223308
20
243.863369
11
40.119100
21
242.750000
0
LINE
8
Layer 1
10
40.119100
20
242.750000
11
40.119100
21
241.750000
0
LINE
8
Layer 1
10
40.119100
20
241.750000
11
7.119100
21
241.750000
0
LINE
8
Layer 1
10
7.119100
20
241.750000
11
7.119100
21
242.750000
0
LINE
8
Layer 1
10
7.119100
20
242.750000
11
7.014892
21
243.863517
0
LINE
8
Layer 1
10
7.014892
20
243.863517
11
6.709263
21
244.929513
0
LINE
8
Layer 1
10
6.709263
20
244.929513
11
6.212702
21
245.921052
0
LINE
8
Layer 1
10
6.212702
20
245.921052
11
5.535700
21
246.811200
0
LINE
8
Layer 1
10
5.535700
20
246.811200
11
4.897256
21
247.644552
0
LINE
8
Layer 1
10
4.897256
20
247.644552
11
4.428633
21
248.556085
0
LINE
8
Layer 1
10
4.428633
20
248.556085
11
4.130777
21
249.522028
0
LINE
8
Layer 1
10
4.130777
20
249.522028
11
4.004638
21
250.518610
0
LINE
8
Layer 1
10
4.004638
20
250.518610
11
4.051162
21
251.522060
0
LINE
8
Layer 1
10
4.051162
20
251.522060
11
4.271298
21
252.508608
0
LINE
8
Layer 1
10
4.271298
20
252.508608
11
4.665995
21
253.454481
0
LINE
8
Layer 1
10
4.665995
20
253.454481
11
5.236200
21
254.335910
0
LINE
8
Layer 1
10
5.236200
20
254.335910
11
6.151509
21
255.685437
0
LINE
8
Layer 1
10
6.151509
20
255.685437
11
6.872550
21
257.139736
0
LINE
8
Layer 1
10
6.872550
20
257.139736
11
7.390716
21
258.678037
0
LINE
8
Layer 1
10
7.390716
20
258.678037
11
7.697400
21
260.279570
0
LINE
8
Layer 1
10
7.697400
20
260.279570
11
8.266125
21
264.146309
0
LINE
8
Layer 1
10
8.266125
20
264.146309
11
9.025350
21
267.977746
0
LINE
8
Layer 1
10
9.025350
20
267.977746
11
9.973500
21
271.766870
0
LINE
8
Layer 1
10
9.973500
20
271.766870
11
11.109000
21
275.506670
0
LINE
8
Layer 1
10
11.109000
20
275.506670
11
11.688395
21
276.626173
0
LINE
8
Layer 1
10
11.688395
20
276.626173
11
12.564081
21
277.492420
0
LINE
8
Layer 1
10
12.564081
20
277.492420
11
13.661590
21
278.051617
0
LINE
8
Layer 1
10
13.661590
20
278.051617
11
14.906450
21
278.249970
0
LINE
8
Layer 1
10
14.906450
20
278.249970
11
17.119100
21
278.250000
0
LINE
8
Layer 1
10
17.119100
20
278.250000
11
18.481459
21
277.974953
0
LINE
8
Layer 1
10
18.481459
20
277.974953
11
19.593975
21
277.224875
0
LINE
8
Layer 1
10
19.593975
20
277.224875
11
20.344053
21
276.112359
0
LINE
8
Layer 1
10
20.344053
20
276.112359
11
20.619100
21
274.750000
0
LINE
8
Layer 1
10
20.619100
20
274.750000
11
17.119100
21
274.750000
0
LINE
8
Layer 1
10
17.119100
20
274.750000
11
17.119100
21
268.414000
0
LINE
8
Layer 1
10
17.119100
20
268.414000
11
16.473232
21
267.347070
0
LINE
8
Layer 1
10
16.473232
20
267.347070
11
16.003329
21
266.199800
0
LINE
8
Layer 1
10
16.003329
20
266.199800
11
15.716311
21
264.993708
0
LINE
8
Layer 1
10
15.716311
20
264.993708
11
15.619100
21
263.750310
0
LINE
8
Layer 1
10
15.619100
20
263.750310
11
15.619100
21
262.250000
0
LINE
8
Layer 1
10
15.619100
20
262.250000
11
14.619100
21
262.250000
0
LINE
8
Layer 1
10
14.619100
20
262.250000
11
14.619100
21
244.050000
0
LINE
8
Layer 1
10
14.619100
20
244.050000
11
15.619100
21
244.050000
0
LINE
8
Layer 1
10
15.619100
20
244.050000
11
15.619100
21
243.750000
0
LINE
8
Layer 1
10
15.619100
20
243.750000
11
31.619100
21
243.750000
0
LINE
8
Layer 1
10
31.619100
20
243.750000
11
31.619100
21
244.050000
0
LINE
8
Layer 1
10
31.619100
20
244.050000
11
32.619100
21
244.050000
0
LINE
8
Layer 1
10
32.619100
20
244.050000
11
32.619100
21
262.250000
0
LINE
8
Layer 1
10
32.619100
20
262.250000
11
31.619100
21
262.250000
0
LINE
8
Layer 1
10
31.619100
20
262.250000
11
31.619100
21
263.750000
0
LINE
8
Layer 1
10
31.619100
20
263.750000
11
31.521891
21
264.993297
0
LINE
8
Layer 1
10
31.521891
20
264.993297
11
31.234875
21
266.199375
0
LINE
8
Layer 1
10
31.234875
20
266.199375
11
30.764972
21
267.346766
0
LINE
8
Layer 1
10
30.764972
20
267.346766
11
30.119100
21
268.414000
0
LINE
8
Layer 1
10
30.119100
20
268.414000
11
30.119100
21
274.750000
0
LINE
8
Layer 1
10
30.119100
20
274.750000
11
26.619100
21
274.750000
0
LINE
8
Layer 1
10
26.619100
20
274.750000
11
26.894147
21
276.112359
0
LINE
8
Layer 1
10
26.894147
20
276.112359
11
27.644225
21
277.224875
0
LINE
8
Layer 1
10
27.644225
20
277.224875
11
28.756741
21
277.974953
0
LINE
8
Layer 1
10
28.756741
20
277.974953
11
30.119100
21
278.250000
0
LINE
8
Layer 1
10
30.119100
20
278.250000
11
32.331700
21
278.250000
0
LINE
8
Layer 1
10
32.331700
20
278.250000
11
33.576560
21
278.051647
0
LINE
8
Layer 1
10
33.576560
20
278.051647
11
34.674069
21
277.492450
0
LINE
8
Layer 1
10
34.674069
20
277.492450
11
35.549755
21
276.626203
0
LINE
8
Layer 1
10
35.549755
20
276.626203
11
36.129150
21
275.506700
0
LINE
8
Layer 1
10
36.129150
20
275.506700
11
37.264650
21
271.766891
0
LINE
8
Layer 1
10
37.264650
20
271.766891
11
38.212800
21
267.977750
0
LINE
8
Layer 1
10
38.212800
20
267.977750
11
38.972025
21
264.146309
0
LINE
8
Layer 1
10
38.972025
20
264.146309
11
39.540750
21
260.279600
0
LINE
8
Layer 1
10
11.519100
20
250.750000
11
11.385508
21
250.088277
0
LINE
8
Layer 1
10
11.385508
20
250.088277
11
11.021187
21
249.547912
0
LINE
8
Layer 1
10
11.021187
20
249.547912
11
10.480823
21
249.183592
0
LINE
8
Layer 1
10
10.480823
20
249.183592
11
9.819100
21
249.050000
0
LINE
8
Layer 1
10
9.819100
20
249.050000
11
9.157377
21
249.183592
0
LINE
8
Layer 1
10
9.157377
20
249.183592
11
8.617013
21
249.547912
0
LINE
8
Layer 1
10
8.617013
20
249.547912
11
8.252692
21
250.088277
0
LINE
8
Layer 1
10
8.252692
20
250.088277
11
8.119100
21
250.750000
0
LINE
8
Layer 1
10
8.119100
20
250.750000
11
8.252692
21
251.411715
0
LINE
8
Layer 1
10
8.252692
20
251.411715
11
8.617013
21
251.952080
0
LINE
8
Layer 1
10
8.617013
20
251.952080
11
9.157377
21
252.316405
0
LINE
8
Layer 1
10
9.157377
20
252.316405
11
9.819100
21
252.450000
0
LINE
8
Layer 1
10
9.819100
20
252.450000
11
10.480823
21
252.316405
0
LINE
8
Layer 1
10
10.480823
20
252.316405
11
11.021187
21
251.952080
0
LINE
8
Layer 1
10
11.021187
20
251.952080
11
11.385508
21
251.411715
0
LINE
8
Layer 1
10
11.385508
20
251.411715
11
11.519100
21
250.750000
0
LINE
8
Layer 1
10
39.119100
20
250.750000
11
38.985508
21
250.088277
0
LINE
8
Layer 1
10
38.985508
20
250.088277
11
38.621188
21
249.547912
0
LINE
8
Layer 1
10
38.621188
20
249.547912
11
38.080823
21
249.183592
0
LINE
8
Layer 1
10
38.080823
20
249.183592
11
37.419100
21
249.050000
0
LINE
8
Layer 1
10
37.419100
20
249.050000
11
36.757377
21
249.183592
0
LINE
8
Layer 1
10
36.757377
20
249.183592
11
36.217012
21
249.547912
0
LINE
8
Layer 1
10
36.217012
20
249.547912
11
35.852692
21
250.088277
0
LINE
8
Layer 1
10
35.852692
20
250.088277
11
35.719100
21
250.750000
0
LINE
8
Layer 1
10
35.719100
20
250.750000
11
35.852692
21
251.411715
0
LINE
8
Layer 1
10
35.852692
20
251.411715
11
36.217012
21
251.952080
0
LINE
8
Layer 1
10
36.217012
20
251.952080
11
36.757377
21
252.316405
0
LINE
8
Layer 1
10
36.757377
20
252.316405
11
37.419100
21
252.450000
0
LINE
8
Layer 1
10
37.419100
20
252.450000
11
38.080823
21
252.316405
0
LINE
8
Layer 1
10
38.080823
20
252.316405
11
38.621188
21
251.952080
0
LINE
8
Layer 1
10
38.621188
20
251.952080
11
38.985508
21
251.411715
0
LINE
8
Layer 1
10
38.985508
20
251.411715
11
39.119100
21
250.750000
0
LINE
8
Layer 1
10
15.119100
20
269.750000
11
15.040514
21
269.360757
0
LINE
8
Layer 1
10
15.040514
20
269.360757
11
14.826205
21
269.042895
0
LINE
8
Layer 1
10
14.826205
20
269.042895
11
14.508343
21
268.828586
0
LINE
8
Layer 1
10
14.508343
20
268.828586
11
14.119100
21
268.750000
0
LINE
8
Layer 1
10
14.119100
20
268.750000
11
13.729848
21
268.828586
0
LINE
8
Layer 1
10
13.729848
20
268.828586
11
13.411987
21
269.042895
0
LINE
8
Layer 1
10
13.411987
20
269.042895
11
13.197683
21
269.360757
0
LINE
8
Layer 1
10
13.197683
20
269.360757
11
13.119100
21
269.750000
0
LINE
8
Layer 1
10
13.119100
20
269.750000
11
13.197683
21
270.139252
0
LINE
8
Layer 1
10
13.197683
20
270.139252
11
13.411987
21
270.457112
0
LINE
8
Layer 1
10
13.411987
20
270.457112
11
13.729848
21
270.671417
0
LINE
8
Layer 1
10
13.729848
20
270.671417
11
14.119100
21
270.750000
0
LINE
8
Layer 1
10
14.119100
20
270.750000
11
14.508343
21
270.671417
0
LINE
8
Layer 1
10
14.508343
20
270.671417
11
14.826205
21
270.457112
0
LINE
8
Layer 1
10
14.826205
20
270.457112
11
15.040514
21
270.139252
0
LINE
8
Layer 1
10
15.040514
20
270.139252
11
15.119100
21
269.750000
0
LINE
8
Layer 1
10
12.619100
20
245.750000
11
12.540517
21
245.360748
0
LINE
8
Layer 1
10
12.540517
20
245.360748
11
12.326213
21
245.042888
0
LINE
8
Layer 1
10
12.326213
20
245.042888
11
12.008352
21
244.828583
0
LINE
8
Layer 1
10
12.008352
20
244.828583
11
11.619100
21
244.750000
0
LINE
8
Layer 1
10
11.619100
20
244.750000
11
11.229848
21
244.828583
0
LINE
8
Layer 1
10
11.229848
20
244.828583
11
10.911987
21
245.042888
0
LINE
8
Layer 1
10
10.911987
20
245.042888
11
10.697683
21
245.360748
0
LINE
8
Layer 1
10
10.697683
20
245.360748
11
10.619100
21
245.750000
0
LINE
8
Layer 1
10
10.619100
20
245.750000
11
10.697683
21
246.139252
0
LINE
8
Layer 1
10
10.697683
20
246.139252
11
10.911987
21
246.457112
0
LINE
8
Layer 1
10
10.911987
20
246.457112
11
11.229848
21
246.671417
0
LINE
8
Layer 1
10
11.229848
20
246.671417
11
11.619100
21
246.750000
0
LINE
8
Layer 1
10
11.619100
20
246.750000
11
12.008352
21
246.671417
0
LINE
8
Layer 1
10
12.008352
20
246.671417
11
12.326213
21
246.457112
0
LINE
8
Layer 1
10
12.326213
20
246.457112
11
12.540517
21
246.139252
0
LINE
8
Layer 1
10
12.540517
20
246.139252
11
12.619100
21
245.750000
0
LINE
8
Layer 1
10
36.619100
20
255.750000
11
36.540517
21
255.360757
0
LINE
8
Layer 1
10
36.540517
20
255.360757
11
36.326213
21
255.042895
0
LINE
8
Layer 1
10
36.326213
20
255.042895
11
36.008352
21
254.828586
0
LINE
8
Layer 1
10
36.008352
20
254.828586
11
35.619100
21
254.750000
0
LINE
8
Layer 1
10
35.619100
20
254.750000
11
35.229848
21
254.828586
0
LINE
8
Layer 1
10
35.229848
20
254.828586
11
34.911988
21
255.042895
0
LINE
8
Layer 1
10
34.911988
20
255.042895
11
34.697683
21
255.360757
0
LINE
8
Layer 1
10
34.697683
20
255.360757
11
34.619100
21
255.750000
0
LINE
8
Layer 1
10
34.619100
20
255.750000
11
34.697683
21
256.139243
0
LINE
8
Layer 1
10
34.697683
20
256.139243
11
34.911988
21
256.457105
0
LINE
8
Layer 1
10
34.911988
20
256.457105
11
35.229848
21
256.671414
0
LINE
8
Layer 1
10
35.229848
20
256.671414
11
35.619100
21
256.750000
0
LINE
8
Layer 1
10
35.619100
20
256.750000
11
36.008352
21
256.671414
0
LINE
8
Layer 1
10
36.008352
20
256.671414
11
36.326213
21
256.457105
0
LINE
8
Layer 1
10
36.326213
20
256.457105
11
36.540517
21
256.139243
0
LINE
8
Layer 1
10
36.540517
20
256.139243
11
36.619100
21
255.750000
0
LINE
8
Layer 1
10
34.119100
20
269.750000
11
34.040517
21
269.360757
0
LINE
8
Layer 1
10
34.040517
20
269.360757
11
33.826213
21
269.042895
0
LINE
8
Layer 1
10
33.826213
20
269.042895
11
33.508352
21
268.828586
0
LINE
8
Layer 1
10
33.508352
20
268.828586
11
33.119100
21
268.750000
0
LINE
8
Layer 1
10
33.119100
20
268.750000
11
32.729857
21
268.828586
0
LINE
8
Layer 1
10
32.729857
20
268.828586
11
32.411995
21
269.042895
0
LINE
8
Layer 1
10
32.411995
20
269.042895
11
32.197686
21
269.360757
0
LINE
8
Layer 1
10
32.197686
20
269.360757
11
32.119100
21
269.750000
0
LINE
8
Layer 1
10
32.119100
20
269.750000
11
32.197686
21
270.139252
0
LINE
8
Layer 1
10
32.197686
20
270.139252
11
32.411995
21
270.457112
0
LINE
8
Layer 1
10
32.411995
20
270.457112
11
32.729857
21
270.671417
0
LINE
8
Layer 1
10
32.729857
20
270.671417
11
33.119100
21
270.750000
0
LINE
8
Layer 1
10
33.119100
20
270.750000
11
33.508352
21
270.671417
0
LINE
8
Layer 1
10
33.508352
20
270.671417
11
33.826213
21
270.457112
0
LINE
8
Layer 1
10
33.826213
20
270.457112
11
34.040517
21
270.139252
0
LINE
8
Layer 1
10
34.040517
20
270.139252
11
34.119100
21
269.750000
0
LINE
8
Layer 1
10
12.619100
20
255.750000
11
12.540517
21
255.360757
0
LINE
8
Layer 1
10
12.540517
20
255.360757
11
12.326213
21
255.042895
0
LINE
8
Layer 1
10
12.326213
20
255.042895
11
12.008352
21
254.828586
0
LINE
8
Layer 1
10
12.008352
20
254.828586
11
11.619100
21
254.750000
0
LINE
8
Layer 1
10
11.619100
20
254.750000
11
11.229848
21
254.828586
0
LINE
8
Layer 1
10
11.229848
20
254.828586
11
10.911987
21
255.042895
0
LINE
8
Layer 1
10
10.911987
20
255.042895
11
10.697683
21
255.360757
0
LINE
8
Layer 1
10
10.697683
20
255.360757
11
10.619100
21
255.750000
0
LINE
8
Layer 1
10
10.619100
20
255.750000
11
10.697683
21
256.139243
0
LINE
8
Layer 1
10
10.697683
20
256.139243
11
10.911987
21
256.457105
0
LINE
8
Layer 1
10
10.911987
20
256.457105
11
11.229848
21
256.671414
0
LINE
8
Layer 1
10
11.229848
20
256.671414
11
11.619100
21
256.750000
0
LINE
8
Layer 1
10
11.619100
20
256.750000
11
12.008352
21
256.671414
0
LINE
8
Layer 1
10
12.008352
20
256.671414
11
12.326213
21
256.457105
0
LINE
8
Layer 1
10
12.326213
20
256.457105
11
12.540517
21
256.139243
0
LINE
8
Layer 1
10
12.540517
20
256.139243
11
12.619100
21
255.750000
0
LINE
8
Layer 1
10
36.619100
20
245.750000
11
36.540517
21
245.360748
0
LINE
8
Layer 1
10
36.540517
20
245.360748
11
36.326213
21
245.042888
0
LINE
8
Layer 1
10
36.326213
20
245.042888
11
36.008352
21
244.828583
0
LINE
8
Layer 1
10
36.008352
20
244.828583
11
35.619100
21
244.750000
0
LINE
8
Layer 1
10
35.619100
20
244.750000
11
35.229848
21
244.828583
0
LINE
8
Layer 1
10
35.229848
20
244.828583
11
34.911988
21
245.042888
0
LINE
8
Layer 1
10
34.911988
20
245.042888
11
34.697683
21
245.360748
0
LINE
8
Layer 1
10
34.697683
20
245.360748
11
34.619100
21
245.750000
0
LINE
8
Layer 1
10
34.619100
20
245.750000
11
34.697683
21
246.139252
0
LINE
8
Layer 1
10
34.697683
20
246.139252
11
34.911988
21
246.457112
0
LINE
8
Layer 1
10
34.911988
20
246.457112
11
35.229848
21
246.671417
0
LINE
8
Layer 1
10
35.229848
20
246.671417
11
35.619100
21
246.750000
0
LINE
8
Layer 1
10
35.619100
20
246.750000
11
36.008352
21
246.671417
0
LINE
8
Layer 1
10
36.008352
20
246.671417
11
36.326213
21
246.457112
0
LINE
8
Layer 1
10
36.326213
20
246.457112
11
36.540517
21
246.139252
0
LINE
8
Layer 1
10
36.540517
20
246.139252
11
36.619100
21
245.750000
0
LINE
8
Layer 1
10
38.540800
20
221.280000
11
38.847484
21
219.678467
0
LINE
8
Layer 1
10
38.847484
20
219.678467
11
39.365650
21
218.140166
0
LINE
8
Layer 1
10
39.365650
20
218.140166
11
40.086691
21
216.685867
0
LINE
8
Layer 1
10
40.086691
20
216.685867
11
41.002000
21
215.336340
0
LINE
8
Layer 1
10
41.002000
20
215.336340
11
41.572205
21
214.454911
0
LINE
8
Layer 1
10
41.572205
20
214.454911
11
41.966902
21
213.509038
0
LINE
8
Layer 1
10
41.966902
20
213.509038
11
42.187038
21
212.522490
0
LINE
8
Layer 1
10
42.187038
20
212.522490
11
42.233562
21
211.519040
0
LINE
8
Layer 1
10
42.233562
20
211.519040
11
42.107423
21
210.522458
0
LINE
8
Layer 1
10
42.107423
20
210.522458
11
41.809567
21
209.556515
0
LINE
8
Layer 1
10
41.809567
20
209.556515
11
41.340944
21
208.644982
0
LINE
8
Layer 1
10
41.340944
20
208.644982
11
40.702500
21
207.811630
0
LINE
8
Layer 1
10
40.702500
20
207.811630
11
40.025498
21
206.921219
0
LINE
8
Layer 1
10
40.025498
20
206.921219
11
39.528937
21
205.929454
0
LINE
8
Layer 1
10
39.528937
20
205.929454
11
39.223308
21
204.863369
0
LINE
8
Layer 1
10
39.223308
20
204.863369
11
39.119100
21
203.750000
0
LINE
8
Layer 1
10
39.119100
20
203.750000
11
39.119100
21
202.750000
0
LINE
8
Layer 1
10
39.119100
20
202.750000
11
6.119100
21
202.750000
0
LINE
8
Layer 1
10
6.119100
20
202.750000
11
6.119100
21
203.750000
0
LINE
8
Layer 1
10
6.119100
20
203.750000
11
6.014892
21
204.863517
0
LINE
8
Layer 1
10
6.014892
20
204.863517
11
5.709263
21
205.929513
0
LINE
8
Layer 1
10
5.709263
20
205.929513
11
5.212702
21
206.921052
0
LINE
8
Layer 1
10
5.212702
20
206.921052
11
4.535700
21
207.811200
0
LINE
8
Layer 1
10
4.535700
20
207.811200
11
3.897256
21
208.644552
0
LINE
8
Layer 1
10
3.897256
20
208.644552
11
3.428633
21
209.556085
0
LINE
8
Layer 1
10
3.428633
20
209.556085
11
3.130777
21
210.522028
0
LINE
8
Layer 1
10
3.130777
20
210.522028
11
3.004638
21
211.518610
0
LINE
8
Layer 1
10
3.004638
20
211.518610
11
3.051162
21
212.522060
0
LINE
8
Layer 1
10
3.051162
20
212.522060
11
3.271298
21
213.508608
0
LINE
8
Layer 1
10
3.271298
20
213.508608
11
3.665995
21
214.454481
0
LINE
8
Layer 1
10
3.665995
20
214.454481
11
4.236200
21
215.335910
0
LINE
8
Layer 1
10
4.236200
20
215.335910
11
5.151509
21
216.685437
0
LINE
8
Layer 1
10
5.151509
20
216.685437
11
5.872550
21
218.139736
0
LINE
8
Layer 1
10
5.872550
20
218.139736
11
6.390716
21
219.678037
0
LINE
8
Layer 1
10
6.390716
20
219.678037
11
6.697400
21
221.279570
0
LINE
8
Layer 1
10
6.697400
20
221.279570
11
7.266125
21
225.146309
0
LINE
8
Layer 1
10
7.266125
20
225.146309
11
8.025350
21
228.977746
0
LINE
8
Layer 1
10
8.025350
20
228.977746
11
8.973500
21
232.766870
0
LINE
8
Layer 1
10
8.973500
20
232.766870
11
10.109000
21
236.506670
0
LINE
8
Layer 1
10
10.109000
20
236.506670
11
10.688395
21
237.626173
0
LINE
8
Layer 1
10
10.688395
20
237.626173
11
11.564081
21
238.492420
0
LINE
8
Layer 1
10
11.564081
20
238.492420
11
12.661590
21
239.051617
0
LINE
8
Layer 1
10
12.661590
20
239.051617
11
13.906450
21
239.249970
0
LINE
8
Layer 1
10
13.906450
20
239.249970
11
16.119100
21
239.250000
0
LINE
8
Layer 1
10
16.119100
20
239.250000
11
17.481459
21
238.974953
0
LINE
8
Layer 1
10
17.481459
20
238.974953
11
18.593975
21
238.224875
0
LINE
8
Layer 1
10
18.593975
20
238.224875
11
19.344053
21
237.112359
0
LINE
8
Layer 1
10
19.344053
20
237.112359
11
19.619100
21
235.750000
0
LINE
8
Layer 1
10
19.619100
20
235.750000
11
16.119100
21
235.750000
0
LINE
8
Layer 1
10
16.119100
20
235.750000
11
16.119100
21
229.250000
0
LINE
8
Layer 1
10
16.119100
20
229.250000
11
17.219100
21
228.150000
0
LINE
8
Layer 1
10
17.219100
20
228.150000
11
17.219100
21
225.250000
0
LINE
8
Layer 1
10
17.219100
20
225.250000
11
20.619100
21
225.250000
0
LINE
8
Layer 1
10
20.619100
20
225.250000
11
20.619100
21
213.750000
0
LINE
8
Layer 1
10
20.619100
20
213.750000
11
20.776270
21
212.971510
0
LINE
8
Layer 1
10
20.776270
20
212.971510
11
21.204886
21
212.335786
0
LINE
8
Layer 1
10
21.204886
20
212.335786
11
21.840610
21
211.907170
0
LINE
8
Layer 1
10
21.840610
20
211.907170
11
22.619100
21
211.750000
0
LINE
8
Layer 1
10
22.619100
20
211.750000
11
23.397590
21
211.907170
0
LINE
8
Layer 1
10
23.397590
20
211.907170
11
24.033314
21
212.335786
0
LINE
8
Layer 1
10
24.033314
20
212.335786
11
24.461930
21
212.971510
0
LINE
8
Layer 1
10
24.461930
20
212.971510
11
24.619100
21
213.750000
0
LINE
8
Layer 1
10
24.619100
20
213.750000
11
24.619100
21
225.250000
0
LINE
8
Layer 1
10
24.619100
20
225.250000
11
28.019100
21
225.250000
0
LINE
8
Layer 1
10
28.019100
20
225.250000
11
28.019100
21
228.150000
0
LINE
8
Layer 1
10
28.019100
20
228.150000
11
29.119100
21
229.250000
0
LINE
8
Layer 1
10
29.119100
20
229.250000
11
29.119100
21
235.750000
0
LINE
8
Layer 1
10
29.119100
20
235.750000
11
25.619100
21
235.750000
0
LINE
8
Layer 1
10
25.619100
20
235.750000
11
25.894147
21
237.112359
0
LINE
8
Layer 1
10
25.894147
20
237.112359
11
26.644225
21
238.224875
0
LINE
8
Layer 1
10
26.644225
20
238.224875
11
27.756741
21
238.974953
0
LINE
8
Layer 1
10
27.756741
20
238.974953
11
29.119100
21
239.250000
0
LINE
8
Layer 1
10
29.119100
20
239.250000
11
31.331700
21
239.250000
0
LINE
8
Layer 1
10
31.331700
20
239.250000
11
32.576560
21
239.051647
0
LINE
8
Layer 1
10
32.576560
20
239.051647
11
33.674069
21
238.492450
0
LINE
8
Layer 1
10
33.674069
20
238.492450
11
34.549755
21
237.626203
0
LINE
8
Layer 1
10
34.549755
20
237.626203
11
35.129150
21
236.506700
0
LINE
8
Layer 1
10
35.129150
20
236.506700
11
36.264650
21
232.766891
0
LINE
8
Layer 1
10
36.264650
20
232.766891
11
37.212800
21
228.977750
0
LINE
8
Layer 1
10
37.212800
20
228.977750
11
37.972025
21
225.146309
0
LINE
8
Layer 1
10
37.972025
20
225.146309
11
38.540750
21
221.279600
0
LINE
8
Layer 1
10
13.619100
20
205.050000
11
13.619100
21
223.250000
0
LINE
8
Layer 1
10
13.619100
20
223.250000
11
16.369100
21
223.250000
0
LINE
8
Layer 1
10
16.369100
20
223.250000
11
16.369100
21
205.050000
0
LINE
8
Layer 1
10
16.369100
20
205.050000
11
13.619100
21
205.050000
0
LINE
8
Layer 1
10
28.869100
20
205.050000
11
28.869100
21
223.250000
0
LINE
8
Layer 1
10
28.869100
20
223.250000
11
31.619100
21
223.250000
0
LINE
8
Layer 1
10
31.619100
20
223.250000
11
31.619100
21
205.050000
0
LINE
8
Layer 1
10
31.619100
20
205.050000
11
28.869100
21
205.050000
0
LINE
8
Layer 1
10
10.519100
20
211.750000
11
10.385508
21
211.088277
0
LINE
8
Layer 1
10
10.385508
20
211.088277
11
10.021187
21
210.547912
0
LINE
8
Layer 1
10
10.021187
20
210.547912
11
9.480823
21
210.183592
0
LINE
8
Layer 1
10
9.480823
20
210.183592
11
8.819100
21
210.050000
0
LINE
8
Layer 1
10
8.819100
20
210.050000
11
8.157377
21
210.183592
0
LINE
8
Layer 1
10
8.157377
20
210.183592
11
7.617013
21
210.547912
0
LINE
8
Layer 1
10
7.617013
20
210.547912
11
7.252692
21
211.088277
0
LINE
8
Layer 1
10
7.252692
20
211.088277
11
7.119100
21
211.750000
0
LINE
8
Layer 1
10
7.119100
20
211.750000
11
7.252692
21
212.411715
0
LINE
8
Layer 1
10
7.252692
20
212.411715
11
7.617013
21
212.952080
0
LINE
8
Layer 1
10
7.617013
20
212.952080
11
8.157377
21
213.316405
0
LINE
8
Layer 1
10
8.157377
20
213.316405
11
8.819100
21
213.450000
0
LINE
8
Layer 1
10
8.819100
20
213.450000
11
9.480823
21
213.316405
0
LINE
8
Layer 1
10
9.480823
20
213.316405
11
10.021187
21
212.952080
0
LINE
8
Layer 1
10
10.021187
20
212.952080
11
10.385508
21
212.411715
0
LINE
8
Layer 1
10
10.385508
20
212.411715
11
10.519100
21
211.750000
0
LINE
8
Layer 1
10
38.119100
20
211.750000
11
37.985508
21
211.088277
0
LINE
8
Layer 1
10
37.985508
20
211.088277
11
37.621188
21
210.547912
0
LINE
8
Layer 1
10
37.621188
20
210.547912
11
37.080823
21
210.183592
0
LINE
8
Layer 1
10
37.080823
20
210.183592
11
36.419100
21
210.050000
0
LINE
8
Layer 1
10
36.419100
20
210.050000
11
35.757377
21
210.183592
0
LINE
8
Layer 1
10
35.757377
20
210.183592
11
35.217012
21
210.547912
0
LINE
8
Layer 1
10
35.217012
20
210.547912
11
34.852692
21
211.088277
0
LINE
8
Layer 1
10
34.852692
20
211.088277
11
34.719100
21
211.750000
0
LINE
8
Layer 1
10
34.719100
20
211.750000
11
34.852692
21
212.411715
0
LINE
8
Layer 1
10
34.852692
20
212.411715
11
35.217012
21
212.952080
0
LINE
8
Layer 1
10
35.217012
20
212.952080
11
35.757377
21
213.316405
0
LINE
8
Layer 1
10
35.757377
20
213.316405
11
36.419100
21
213.450000
0
LINE
8
Layer 1
10
36.419100
20
213.450000
11
37.080823
21
213.316405
0
LINE
8
Layer 1
10
37.080823
20
213.316405
11
37.621188
21
212.952080
0
LINE
8
Layer 1
10
37.621188
20
212.952080
11
37.985508
21
212.411715
0
LINE
8
Layer 1
10
37.985508
20
212.411715
11
38.119100
21
211.750000
0
LINE
8
Layer 1
10
14.119100
20
230.750000
11
14.040514
21
230.360757
0
LINE
8
Layer 1
10
14.040514
20
230.360757
11
13.826205
21
230.042895
0
LINE
8
Layer 1
10
13.826205
20
230.042895
11
13.508343
21
229.828586
0
LINE
8
Layer 1
10
13.508343
20
229.828586
11
13.119100
21
229.750000
0
LINE
8
Layer 1
10
13.119100
20
229.750000
11
12.729848
21
229.828586
0
LINE
8
Layer 1
10
12.729848
20
229.828586
11
12.411987
21
230.042895
0
LINE
8
Layer 1
10
12.411987
20
230.042895
11
12.197683
21
230.360757
0
LINE
8
Layer 1
10
12.197683
20
230.360757
11
12.119100
21
230.750000
0
LINE
8
Layer 1
10
12.119100
20
230.750000
11
12.197683
21
231.139252
0
LINE
8
Layer 1
10
12.197683
20
231.139252
11
12.411987
21
231.457112
0
LINE
8
Layer 1
10
12.411987
20
231.457112
11
12.729848
21
231.671417
0
LINE
8
Layer 1
10
12.729848
20
231.671417
11
13.119100
21
231.750000
0
LINE
8
Layer 1
10
13.119100
20
231.750000
11
13.508343
21
231.671417
0
LINE
8
Layer 1
10
13.508343
20
231.671417
11
13.826205
21
231.457112
0
LINE
8
Layer 1
10
13.826205
20
231.457112
11
14.040514
21
231.139252
0
LINE
8
Layer 1
10
14.040514
20
231.139252
11
14.119100
21
230.750000
0
LINE
8
Layer 1
10
11.619100
20
206.750000
11
11.540517
21
206.360748
0
LINE
8
Layer 1
10
11.540517
20
206.360748
11
11.326213
21
206.042888
0
LINE
8
Layer 1
10
11.326213
20
206.042888
11
11.008352
21
205.828583
0
LINE
8
Layer 1
10
11.008352
20
205.828583
11
10.619100
21
205.750000
0
LINE
8
Layer 1
10
10.619100
20
205.750000
11
10.229848
21
205.828583
0
LINE
8
Layer 1
10
10.229848
20
205.828583
11
9.911987
21
206.042888
0
LINE
8
Layer 1
10
9.911987
20
206.042888
11
9.697683
21
206.360748
0
LINE
8
Layer 1
10
9.697683
20
206.360748
11
9.619100
21
206.750000
0
LINE
8
Layer 1
10
9.619100
20
206.750000
11
9.697683
21
207.139252
0
LINE
8
Layer 1
10
9.697683
20
207.139252
11
9.911987
21
207.457112
0
LINE
8
Layer 1
10
9.911987
20
207.457112
11
10.229848
21
207.671417
0
LINE
8
Layer 1
10
10.229848
20
207.671417
11
10.619100
21
207.750000
0
LINE
8
Layer 1
10
10.619100
20
207.750000
11
11.008352
21
207.671417
0
LINE
8
Layer 1
10
11.008352
20
207.671417
11
11.326213
21
207.457112
0
LINE
8
Layer 1
10
11.326213
20
207.457112
11
11.540517
21
207.139252
0
LINE
8
Layer 1
10
11.540517
20
207.139252
11
11.619100
21
206.750000
0
LINE
8
Layer 1
10
35.619100
20
216.750000
11
35.540517
21
216.360757
0
LINE
8
Layer 1
10
35.540517
20
216.360757
11
35.326213
21
216.042895
0
LINE
8
Layer 1
10
35.326213
20
216.042895
11
35.008352
21
215.828586
0
LINE
8
Layer 1
10
35.008352
20
215.828586
11
34.619100
21
215.750000
0
LINE
8
Layer 1
10
34.619100
20
215.750000
11
34.229848
21
215.828586
0
LINE
8
Layer 1
10
34.229848
20
215.828586
11
33.911988
21
216.042895
0
LINE
8
Layer 1
10
33.911988
20
216.042895
11
33.697683
21
216.360757
0
LINE
8
Layer 1
10
33.697683
20
216.360757
11
33.619100
21
216.750000
0
LINE
8
Layer 1
10
33.619100
20
216.750000
11
33.697683
21
217.139243
0
LINE
8
Layer 1
10
33.697683
20
217.139243
11
33.911988
21
217.457105
0
LINE
8
Layer 1
10
33.911988
20
217.457105
11
34.229848
21
217.671414
0
LINE
8
Layer 1
10
34.229848
20
217.671414
11
34.619100
21
217.750000
0
LINE
8
Layer 1
10
34.619100
20
217.750000
11
35.008352
21
217.671414
0
LINE
8
Layer 1
10
35.008352
20
217.671414
11
35.326213
21
217.457105
0
LINE
8
Layer 1
10
35.326213
20
217.457105
11
35.540517
21
217.139243
0
LINE
8
Layer 1
10
35.540517
20
217.139243
11
35.619100
21
216.750000
0
LINE
8
Layer 1
10
33.119100
20
230.750000
11
33.040517
21
230.360757
0
LINE
8
Layer 1
10
33.040517
20
230.360757
11
32.826213
21
230.042895
0
LINE
8
Layer 1
10
32.826213
20
230.042895
11
32.508352
21
229.828586
0
LINE
8
Layer 1
10
32.508352
20
229.828586
11
32.119100
21
229.750000
0
LINE
8
Layer 1
10
32.119100
20
229.750000
11
31.729857
21
229.828586
0
LINE
8
Layer 1
10
31.729857
20
229.828586
11
31.411995
21
230.042895
0
LINE
8
Layer 1
10
31.411995
20
230.042895
11
31.197686
21
230.360757
0
LINE
8
Layer 1
10
31.197686
20
230.360757
11
31.119100
21
230.750000
0
LINE
8
Layer 1
10
31.119100
20
230.750000
11
31.197686
21
231.139252
0
LINE
8
Layer 1
10
31.197686
20
231.139252
11
31.411995
21
231.457112
0
LINE
8
Layer 1
10
31.411995
20
231.457112
11
31.729857
21
231.671417
0
LINE
8
Layer 1
10
31.729857
20
231.671417
11
32.119100
21
231.750000
0
LINE
8
Layer 1
10
32.119100
20
231.750000
11
32.508352
21
231.671417
0
LINE
8
Layer 1
10
32.508352
20
231.671417
11
32.826213
21
231.457112
0
LINE
8
Layer 1
10
32.826213
20
231.457112
11
33.040517
21
231.139252
0
LINE
8
Layer 1
10
33.040517
20
231.139252
11
33.119100
21
230.750000
0
LINE
8
Layer 1
10
11.619100
20
216.750000
11
11.540517
21
216.360757
0
LINE
8
Layer 1
10
11.540517
20
216.360757
11
11.326213
21
216.042895
0
LINE
8
Layer 1
10
11.326213
20
216.042895
11
11.008352
21
215.828586
0
LINE
8
Layer 1
10
11.008352
20
215.828586
11
10.619100
21
215.750000
0
LINE
8
Layer 1
10
10.619100
20
215.750000
11
10.229848
21
215.828586
0
LINE
8
Layer 1
10
10.229848
20
215.828586
11
9.911987
21
216.042895
0
LINE
8
Layer 1
10
9.911987
20
216.042895
11
9.697683
21
216.360757
0
LINE
8
Layer 1
10
9.697683
20
216.360757
11
9.619100
21
216.750000
0
LINE
8
Layer 1
10
9.619100
20
216.750000
11
9.697683
21
217.139243
0
LINE
8
Layer 1
10
9.697683
20
217.139243
11
9.911987
21
217.457105
0
LINE
8
Layer 1
10
9.911987
20
217.457105
11
10.229848
21
217.671414
0
LINE
8
Layer 1
10
10.229848
20
217.671414
11
10.619100
21
217.750000
0
LINE
8
Layer 1
10
10.619100
20
217.750000
11
11.008352
21
217.671414
0
LINE
8
Layer 1
10
11.008352
20
217.671414
11
11.326213
21
217.457105
0
LINE
8
Layer 1
10
11.326213
20
217.457105
11
11.540517
21
217.139243
0
LINE
8
Layer 1
10
11.540517
20
217.139243
11
11.619100
21
216.750000
0
LINE
8
Layer 1
10
35.619100
20
206.750000
11
35.540517
21
206.360748
0
LINE
8
Layer 1
10
35.540517
20
206.360748
11
35.326213
21
206.042888
0
LINE
8
Layer 1
10
35.326213
20
206.042888
11
35.008352
21
205.828583
0
LINE
8
Layer 1
10
35.008352
20
205.828583
11
34.619100
21
205.750000
0
LINE
8
Layer 1
10
34.619100
20
205.750000
11
34.229848
21
205.828583
0
LINE
8
Layer 1
10
34.229848
20
205.828583
11
33.911988
21
206.042888
0
LINE
8
Layer 1
10
33.911988
20
206.042888
11
33.697683
21
206.360748
0
LINE
8
Layer 1
10
33.697683
20
206.360748
11
33.619100
21
206.750000
0
LINE
8
Layer 1
10
33.619100
20
206.750000
11
33.697683
21
207.139252
0
LINE
8
Layer 1
10
33.697683
20
207.139252
11
33.911988
21
207.457112
0
LINE
8
Layer 1
10
33.911988
20
207.457112
11
34.229848
21
207.671417
0
LINE
8
Layer 1
10
34.229848
20
207.671417
11
34.619100
21
207.750000
0
LINE
8
Layer 1
10
34.619100
20
207.750000
11
35.008352
21
207.671417
0
LINE
8
Layer 1
10
35.008352
20
207.671417
11
35.326213
21
207.457112
0
LINE
8
Layer 1
10
35.326213
20
207.457112
11
35.540517
21
207.139252
0
LINE
8
Layer 1
10
35.540517
20
207.139252
11
35.619100
21
206.750000
0
LINE
8
Layer 1
10
6.697400
20
162.720000
11
7.266125
21
158.853261
0
LINE
8
Layer 1
10
7.266125
20
158.853261
11
8.025350
21
155.021824
0
LINE
8
Layer 1
10
8.025350
20
155.021824
11
8.973500
21
151.232700
0
LINE
8
Layer 1
10
8.973500
20
151.232700
11
10.109000
21
147.492900
0
LINE
8
Layer 1
10
10.109000
20
147.492900
11
10.688395
21
146.373397
0
LINE
8
Layer 1
10
10.688395
20
146.373397
11
11.564081
21
145.507150
0
LINE
8
Layer 1
10
11.564081
20
145.507150
11
12.661590
21
144.947953
0
LINE
8
Layer 1
10
12.661590
20
144.947953
11
13.906450
21
144.749600
0
LINE
8
Layer 1
10
13.906450
20
144.749600
11
31.331700
21
144.750000
0
LINE
8
Layer 1
10
31.331700
20
144.750000
11
32.576560
21
144.948353
0
LINE
8
Layer 1
10
32.576560
20
144.948353
11
33.674069
21
145.507550
0
LINE
8
Layer 1
10
33.674069
20
145.507550
11
34.549755
21
146.373797
0
LINE
8
Layer 1
10
34.549755
20
146.373797
11
35.129150
21
147.493300
0
LINE
8
Layer 1
10
35.129150
20
147.493300
11
36.264650
21
151.233109
0
LINE
8
Layer 1
10
36.264650
20
151.233109
11
37.212800
21
155.022250
0
LINE
8
Layer 1
10
37.212800
20
155.022250
11
37.972025
21
158.853691
0
LINE
8
Layer 1
10
37.972025
20
158.853691
11
38.540750
21
162.720400
0
LINE
8
Layer 1
10
38.540750
20
162.720400
11
38.847434
21
164.321933
0
LINE
8
Layer 1
10
38.847434
20
164.321933
11
39.365600
21
165.860234
0
LINE
8
Layer 1
10
39.365600
20
165.860234
11
40.086641
21
167.314533
0
LINE
8
Layer 1
10
40.086641
20
167.314533
11
41.001950
21
168.664060
0
LINE
8
Layer 1
10
41.001950
20
168.664060
11
41.572155
21
169.545489
0
LINE
8
Layer 1
10
41.572155
20
169.545489
11
41.966852
21
170.491362
0
LINE
8
Layer 1
10
41.966852
20
170.491362
11
42.186988
21
171.477910
0
LINE
8
Layer 1
10
42.186988
20
171.477910
11
42.233513
21
172.481360
0
LINE
8
Layer 1
10
42.233513
20
172.481360
11
42.107373
21
173.477942
0
LINE
8
Layer 1
10
42.107373
20
173.477942
11
41.809517
21
174.443885
0
LINE
8
Layer 1
10
41.809517
20
174.443885
11
41.340894
21
175.355418
0
LINE
8
Layer 1
10
41.340894
20
175.355418
11
40.702450
21
176.188770
0
LINE
8
Layer 1
10
40.702450
20
176.188770
11
40.025477
21
177.078950
0
LINE
8
Layer 1
10
40.025477
20
177.078950
11
39.528931
21
178.070596
0
LINE
8
Layer 1
10
39.528931
20
178.070596
11
39.223307
21
179.136637
0
LINE
8
Layer 1
10
39.223307
20
179.136637
11
39.119100
21
180.250000
0
LINE
8
Layer 1
10
39.119100
20
180.250000
11
39.119100
21
181.250000
0
LINE
8
Layer 1
10
39.119100
20
181.250000
11
29.119100
21
181.250000
0
LINE
8
Layer 1
10
29.119100
20
181.250000
11
29.119100
21
178.950000
0
LINE
8
Layer 1
10
29.119100
20
178.950000
11
31.619100
21
178.950000
0
LINE
8
Layer 1
10
31.619100
20
178.950000
11
31.619100
21
160.750000
0
LINE
8
Layer 1
10
31.619100
20
160.750000
11
28.869100
21
160.750000
0
LINE
8
Layer 1
10
28.869100
20
160.750000
11
28.869100
21
166.250000
0
LINE
8
Layer 1
10
28.869100
20
166.250000
11
16.369100
21
166.250000
0
LINE
8
Layer 1
10
16.369100
20
166.250000
11
16.369100
21
160.750000
0
LINE
8
Layer 1
10
16.369100
20
160.750000
11
13.619100
21
160.750000
0
LINE
8
Layer 1
10
13.619100
20
160.750000
11
13.619100
21
178.950000
0
LINE
8
Layer 1
10
13.619100
20
178.950000
11
16.119100
21
178.950000
0
LINE
8
Layer 1
10
16.119100
20
178.950000
11
16.119100
21
181.250000
0
LINE
8
Layer 1
10
16.119100
20
181.250000
11
6.119100
21
181.250000
0
LINE
8
Layer 1
10
6.119100
20
181.250000
11
6.119100
21
180.250000
0
LINE
8
Layer 1
10
6.119100
20
180.250000
11
6.014892
21
179.136483
0
LINE
8
Layer 1
10
6.014892
20
179.136483
11
5.709263
21
178.070487
0
LINE
8
Layer 1
10
5.709263
20
178.070487
11
5.212702
21
177.078948
0
LINE
8
Layer 1
10
5.212702
20
177.078948
11
4.535700
21
176.188800
0
LINE
8
Layer 1
10
4.535700
20
176.188800
11
3.897256
21
175.355448
0
LINE
8
Layer 1
10
3.897256
20
175.355448
11
3.428633
21
174.443915
0
LINE
8
Layer 1
10
3.428633
20
174.443915
11
3.130777
21
173.477972
0
LINE
8
Layer 1
10
3.130777
20
173.477972
11
3.004638
21
172.481390
0
LINE
8
Layer 1
10
3.004638
20
172.481390
11
3.051162
21
171.477940
0
LINE
8
Layer 1
10
3.051162
20
171.477940
11
3.271298
21
170.491392
0
LINE
8
Layer 1
10
3.271298
20
170.491392
11
3.665995
21
169.545519
0
LINE
8
Layer 1
10
3.665995
20
169.545519
11
4.236200
21
168.664090
0
LINE
8
Layer 1
10
4.236200
20
168.664090
11
5.151509
21
167.314563
0
LINE
8
Layer 1
10
5.151509
20
167.314563
11
5.872550
21
165.860264
0
LINE
8
Layer 1
10
5.872550
20
165.860264
11
6.390716
21
164.321963
0
LINE
8
Layer 1
10
6.390716
20
164.321963
11
6.697400
21
162.720430
0
LINE
8
Layer 1
10
38.119100
20
172.250000
11
37.985508
21
171.588285
0
LINE
8
Layer 1
10
37.985508
20
171.588285
11
37.621188
21
171.047920
0
LINE
8
Layer 1
10
37.621188
20
171.047920
11
37.080823
21
170.683595
0
LINE
8
Layer 1
10
37.080823
20
170.683595
11
36.419100
21
170.550000
0
LINE
8
Layer 1
10
36.419100
20
170.550000
11
35.757377
21
170.683595
0
LINE
8
Layer 1
10
35.757377
20
170.683595
11
35.217012
21
171.047920
0
LINE
8
Layer 1
10
35.217012
20
171.047920
11
34.852692
21
171.588285
0
LINE
8
Layer 1
10
34.852692
20
171.588285
11
34.719100
21
172.250000
0
LINE
8
Layer 1
10
34.719100
20
172.250000
11
34.852692
21
172.911723
0
LINE
8
Layer 1
10
34.852692
20
172.911723
11
35.217012
21
173.452088
0
LINE
8
Layer 1
10
35.217012
20
173.452088
11
35.757377
21
173.816408
0
LINE
8
Layer 1
10
35.757377
20
173.816408
11
36.419100
21
173.950000
0
LINE
8
Layer 1
10
36.419100
20
173.950000
11
37.080823
21
173.816408
0
LINE
8
Layer 1
10
37.080823
20
173.816408
11
37.621188
21
173.452088
0
LINE
8
Layer 1
10
37.621188
20
173.452088
11
37.985508
21
172.911723
0
LINE
8
Layer 1
10
37.985508
20
172.911723
11
38.119100
21
172.250000
0
LINE
8
Layer 1
10
10.519100
20
172.250000
11
10.385508
21
171.588285
0
LINE
8
Layer 1
10
10.385508
20
171.588285
11
10.021187
21
171.047920
0
LINE
8
Layer 1
10
10.021187
20
171.047920
11
9.480823
21
170.683595
0
LINE
8
Layer 1
10
9.480823
20
170.683595
11
8.819100
21
170.550000
0
LINE
8
Layer 1
10
8.819100
20
170.550000
11
8.157377
21
170.683595
0
LINE
8
Layer 1
10
8.157377
20
170.683595
11
7.617013
21
171.047920
0
LINE
8
Layer 1
10
7.617013
20
171.047920
11
7.252692
21
171.588285
0
LINE
8
Layer 1
10
7.252692
20
171.588285
11
7.119100
21
172.250000
0
LINE
8
Layer 1
10
7.119100
20
172.250000
11
7.252692
21
172.911723
0
LINE
8
Layer 1
10
7.252692
20
172.911723
11
7.617013
21
173.452088
0
LINE
8
Layer 1
10
7.617013
20
173.452088
11
8.157377
21
173.816408
0
LINE
8
Layer 1
10
8.157377
20
173.816408
11
8.819100
21
173.950000
0
LINE
8
Layer 1
10
8.819100
20
173.950000
11
9.480823
21
173.816408
0
LINE
8
Layer 1
10
9.480823
20
173.816408
11
10.021187
21
173.452088
0
LINE
8
Layer 1
10
10.021187
20
173.452088
11
10.385508
21
172.911723
0
LINE
8
Layer 1
10
10.385508
20
172.911723
11
10.519100
21
172.250000
0
LINE
8
Layer 1
10
33.119100
20
153.250000
11
33.040517
21
152.860748
0
LINE
8
Layer 1
10
33.040517
20
152.860748
11
32.826213
21
152.542888
0
LINE
8
Layer 1
10
32.826213
20
152.542888
11
32.508352
21
152.328583
0
LINE
8
Layer 1
10
32.508352
20
152.328583
11
32.119100
21
152.250000
0
LINE
8
Layer 1
10
32.119100
20
152.250000
11
31.729857
21
152.328583
0
LINE
8
Layer 1
10
31.729857
20
152.328583
11
31.411995
21
152.542888
0
LINE
8
Layer 1
10
31.411995
20
152.542888
11
31.197686
21
152.860748
0
LINE
8
Layer 1
10
31.197686
20
152.860748
11
31.119100
21
153.250000
0
LINE
8
Layer 1
10
31.119100
20
153.250000
11
31.197686
21
153.639243
0
LINE
8
Layer 1
10
31.197686
20
153.639243
11
31.411995
21
153.957105
0
LINE
8
Layer 1
10
31.411995
20
153.957105
11
31.729857
21
154.171414
0
LINE
8
Layer 1
10
31.729857
20
154.171414
11
32.119100
21
154.250000
0
LINE
8
Layer 1
10
32.119100
20
154.250000
11
32.508352
21
154.171414
0
LINE
8
Layer 1
10
32.508352
20
154.171414
11
32.826213
21
153.957105
0
LINE
8
Layer 1
10
32.826213
20
153.957105
11
33.040517
21
153.639243
0
LINE
8
Layer 1
10
33.040517
20
153.639243
11
33.119100
21
153.250000
0
LINE
8
Layer 1
10
35.619100
20
167.250000
11
35.540517
21
166.860757
0
LINE
8
Layer 1
10
35.540517
20
166.860757
11
35.326213
21
166.542895
0
LINE
8
Layer 1
10
35.326213
20
166.542895
11
35.008352
21
166.328586
0
LINE
8
Layer 1
10
35.008352
20
166.328586
11
34.619100
21
166.250000
0
LINE
8
Layer 1
10
34.619100
20
166.250000
11
34.229848
21
166.328586
0
LINE
8
Layer 1
10
34.229848
20
166.328586
11
33.911988
21
166.542895
0
LINE
8
Layer 1
10
33.911988
20
166.542895
11
33.697683
21
166.860757
0
LINE
8
Layer 1
10
33.697683
20
166.860757
11
33.619100
21
167.250000
0
LINE
8
Layer 1
10
33.619100
20
167.250000
11
33.697683
21
167.639243
0
LINE
8
Layer 1
10
33.697683
20
167.639243
11
33.911988
21
167.957105
0
LINE
8
Layer 1
10
33.911988
20
167.957105
11
34.229848
21
168.171414
0
LINE
8
Layer 1
10
34.229848
20
168.171414
11
34.619100
21
168.250000
0
LINE
8
Layer 1
10
34.619100
20
168.250000
11
35.008352
21
168.171414
0
LINE
8
Layer 1
10
35.008352
20
168.171414
11
35.326213
21
167.957105
0
LINE
8
Layer 1
10
35.326213
20
167.957105
11
35.540517
21
167.639243
0
LINE
8
Layer 1
10
35.540517
20
167.639243
11
35.619100
21
167.250000
0
LINE
8
Layer 1
10
11.619100
20
167.250000
11
11.540517
21
166.860757
0
LINE
8
Layer 1
10
11.540517
20
166.860757
11
11.326213
21
166.542895
0
LINE
8
Layer 1
10
11.326213
20
166.542895
11
11.008352
21
166.328586
0
LINE
8
Layer 1
10
11.008352
20
166.328586
11
10.619100
21
166.250000
0
LINE
8
Layer 1
10
10.619100
20
166.250000
11
10.229848
21
166.328586
0
LINE
8
Layer 1
10
10.229848
20
166.328586
11
9.911987
21
166.542895
0
LINE
8
Layer 1
10
9.911987
20
166.542895
11
9.697683
21
166.860757
0
LINE
8
Layer 1
10
9.697683
20
166.860757
11
9.619100
21
167.250000
0
LINE
8
Layer 1
10
9.619100
20
167.250000
11
9.697683
21
167.639243
0
LINE
8
Layer 1
10
9.697683
20
167.639243
11
9.911987
21
167.957105
0
LINE
8
Layer 1
10
9.911987
20
167.957105
11
10.229848
21
168.171414
0
LINE
8
Layer 1
10
10.229848
20
168.171414
11
10.619100
21
168.250000
0
LINE
8
Layer 1
10
10.619100
20
168.250000
11
11.008352
21
168.171414
0
LINE
8
Layer 1
10
11.008352
20
168.171414
11
11.326213
21
167.957105
0
LINE
8
Layer 1
10
11.326213
20
167.957105
11
11.540517
21
167.639243
0
LINE
8
Layer 1
10
11.540517
20
167.639243
11
11.619100
21
167.250000
0
LINE
8
Layer 1
10
35.619100
20
177.250000
11
35.540517
21
176.860748
0
LINE
8
Layer 1
10
35.540517
20
176.860748
11
35.326213
21
176.542888
0
LINE
8
Layer 1
10
35.326213
20
176.542888
11
35.008352
21
176.328583
0
LINE
8
Layer 1
10
35.008352
20
176.328583
11
34.619100
21
176.250000
0
LINE
8
Layer 1
10
34.619100
20
176.250000
11
34.229848
21
176.328583
0
LINE
8
Layer 1
10
34.229848
20
176.328583
11
33.911988
21
176.542888
0
LINE
8
Layer 1
10
33.911988
20
176.542888
11
33.697683
21
176.860748
0
LINE
8
Layer 1
10
33.697683
20
176.860748
11
33.619100
21
177.250000
0
LINE
8
Layer 1
10
33.619100
20
177.250000
11
33.697683
21
177.639252
0
LINE
8
Layer 1
10
33.697683
20
177.639252
11
33.911988
21
177.957112
0
LINE
8
Layer 1
10
33.911988
20
177.957112
11
34.229848
21
178.171417
0
LINE
8
Layer 1
10
34.229848
20
178.171417
11
34.619100
21
178.250000
0
LINE
8
Layer 1
10
34.619100
20
178.250000
11
35.008352
21
178.171417
0
LINE
8
Layer 1
10
35.008352
20
178.171417
11
35.326213
21
177.957112
0
LINE
8
Layer 1
10
35.326213
20
177.957112
11
35.540517
21
177.639252
0
LINE
8
Layer 1
10
35.540517
20
177.639252
11
35.619100
21
177.250000
0
LINE
8
Layer 1
10
14.119100
20
153.250000
11
14.040514
21
152.860748
0
LINE
8
Layer 1
10
14.040514
20
152.860748
11
13.826205
21
152.542888
0
LINE
8
Layer 1
10
13.826205
20
152.542888
11
13.508343
21
152.328583
0
LINE
8
Layer 1
10
13.508343
20
152.328583
11
13.119100
21
152.250000
0
LINE
8
Layer 1
10
13.119100
20
152.250000
11
12.729848
21
152.328583
0
LINE
8
Layer 1
10
12.729848
20
152.328583
11
12.411987
21
152.542888
0
LINE
8
Layer 1
10
12.411987
20
152.542888
11
12.197683
21
152.860748
0
LINE
8
Layer 1
10
12.197683
20
152.860748
11
12.119100
21
153.250000
0
LINE
8
Layer 1
10
12.119100
20
153.250000
11
12.197683
21
153.639243
0
LINE
8
Layer 1
10
12.197683
20
153.639243
11
12.411987
21
153.957105
0
LINE
8
Layer 1
10
12.411987
20
153.957105
11
12.729848
21
154.171414
0
LINE
8
Layer 1
10
12.729848
20
154.171414
11
13.119100
21
154.250000
0
LINE
8
Layer 1
10
13.119100
20
154.250000
11
13.508343
21
154.171414
0
LINE
8
Layer 1
10
13.508343
20
154.171414
11
13.826205
21
153.957105
0
LINE
8
Layer 1
10
13.826205
20
153.957105
11
14.040514
21
153.639243
0
LINE
8
Layer 1
10
14.040514
20
153.639243
11
14.119100
21
153.250000
0
LINE
8
Layer 1
10
11.619100
20
177.250000
11
11.540517
21
176.860748
0
LINE
8
Layer 1
10
11.540517
20
176.860748
11
11.326213
21
176.542888
0
LINE
8
Layer 1
10
11.326213
20
176.542888
11
11.008352
21
176.328583
0
LINE
8
Layer 1
10
11.008352
20
176.328583
11
10.619100
21
176.250000
0
LINE
8
Layer 1
10
10.619100
20
176.250000
11
10.229848
21
176.328583
0
LINE
8
Layer 1
10
10.229848
20
176.328583
11
9.911987
21
176.542888
0
LINE
8
Layer 1
10
9.911987
20
176.542888
11
9.697683
21
176.860748
0
LINE
8
Layer 1
10
9.697683
20
176.860748
11
9.619100
21
177.250000
0
LINE
8
Layer 1
10
9.619100
20
177.250000
11
9.697683
21
177.639252
0
LINE
8
Layer 1
10
9.697683
20
177.639252
11
9.911987
21
177.957112
0
LINE
8
Layer 1
10
9.911987
20
177.957112
11
10.229848
21
178.171417
0
LINE
8
Layer 1
10
10.229848
20
178.171417
11
10.619100
21
178.250000
0
LINE
8
Layer 1
10
10.619100
20
178.250000
11
11.008352
21
178.171417
0
LINE
8
Layer 1
10
11.008352
20
178.171417
11
11.326213
21
177.957112
0
LINE
8
Layer 1
10
11.326213
20
177.957112
11
11.540517
21
177.639252
0
LINE
8
Layer 1
10
11.540517
20
177.639252
11
11.619100
21
177.250000
0
LINE
8
Layer 1
10
74.928600
20
180.750000
11
74.928600
21
179.750000
0
LINE
8
Layer 1
10
74.928600
20
179.750000
11
91.428600
21
179.750000
0
LINE
8
Layer 1
10
91.428600
20
179.750000
11
91.428600
21
216.250000
0
LINE
8
Layer 1
10
91.428600
20
216.250000
11
82.716000
21
216.250000
0
LINE
8
Layer 1
10
82.716000
20
216.250000
11
81.471151
21
216.051647
0
LINE
8
Layer 1
10
81.471151
20
216.051647
11
80.373636
21
215.492450
0
LINE
8
Layer 1
10
80.373636
20
215.492450
11
79.497936
21
214.626203
0
LINE
8
Layer 1
10
79.497936
20
214.626203
11
78.918530
21
213.506700
0
LINE
8
Layer 1
10
78.918530
20
213.506700
11
77.783045
21
209.766891
0
LINE
8
Layer 1
10
77.783045
20
209.766891
11
76.834909
21
205.977750
0
LINE
8
Layer 1
10
76.834909
20
205.977750
11
76.075696
21
202.146309
0
LINE
8
Layer 1
10
76.075696
20
202.146309
11
75.506980
21
198.279600
0
LINE
8
Layer 1
10
75.506980
20
198.279600
11
75.200270
21
196.678067
0
LINE
8
Layer 1
10
75.200270
20
196.678067
11
74.682101
21
195.139766
0
LINE
8
Layer 1
10
74.682101
20
195.139766
11
73.961074
21
193.685467
0
LINE
8
Layer 1
10
73.961074
20
193.685467
11
73.045790
21
192.335940
0
LINE
8
Layer 1
10
73.045790
20
192.335940
11
72.475591
21
191.454511
0
LINE
8
Layer 1
10
72.475591
20
191.454511
11
72.080890
21
190.508638
0
LINE
8
Layer 1
10
72.080890
20
190.508638
11
71.860744
21
189.522090
0
LINE
8
Layer 1
10
71.860744
20
189.522090
11
71.814206
21
188.518640
0
LINE
8
Layer 1
10
71.814206
20
188.518640
11
71.940332
21
187.522058
0
LINE
8
Layer 1
10
71.940332
20
187.522058
11
72.238176
21
186.556115
0
LINE
8
Layer 1
10
72.238176
20
186.556115
11
72.706794
21
185.644582
0
LINE
8
Layer 1
10
72.706794
20
185.644582
11
73.345240
21
184.811230
0
LINE
8
Layer 1
10
73.345240
20
184.811230
11
74.022235
21
183.921082
0
LINE
8
Layer 1
10
74.022235
20
183.921082
11
74.518800
21
182.929542
0
LINE
8
Layer 1
10
74.518800
20
182.929542
11
74.824438
21
181.863547
0
LINE
8
Layer 1
10
74.824438
20
181.863547
11
74.928650
21
180.750030
0
LINE
8
Layer 1
10
79.328600
20
188.750000
11
79.195005
21
188.088277
0
LINE
8
Layer 1
10
79.195005
20
188.088277
11
78.830680
21
187.547912
0
LINE
8
Layer 1
10
78.830680
20
187.547912
11
78.290315
21
187.183592
0
LINE
8
Layer 1
10
78.290315
20
187.183592
11
77.628600
21
187.050000
0
LINE
8
Layer 1
10
77.628600
20
187.050000
11
76.966881
21
187.183592
0
LINE
8
Layer 1
10
76.966881
20
187.183592
11
76.426516
21
187.547912
0
LINE
8
Layer 1
10
76.426516
20
187.547912
11
76.062194
21
188.088277
0
LINE
8
Layer 1
10
76.062194
20
188.088277
11
75.928600
21
188.750000
0
LINE
8
Layer 1
10
75.928600
20
188.750000
11
76.062194
21
189.411715
0
LINE
8
Layer 1
10
76.062194
20
189.411715
11
76.426516
21
189.952080
0
LINE
8
Layer 1
10
76.426516
20
189.952080
11
76.966881
21
190.316405
0
LINE
8
Layer 1
10
76.966881
20
190.316405
11
77.628600
21
190.450000
0
LINE
8
Layer 1
10
77.628600
20
190.450000
11
78.290315
21
190.316405
0
LINE
8
Layer 1
10
78.290315
20
190.316405
11
78.830680
21
189.952080
0
LINE
8
Layer 1
10
78.830680
20
189.952080
11
79.195005
21
189.411715
0
LINE
8
Layer 1
10
79.195005
20
189.411715
11
79.328600
21
188.750000
0
LINE
8
Layer 1
10
80.428600
20
183.750000
11
80.350014
21
183.360748
0
LINE
8
Layer 1
10
80.350014
20
183.360748
11
80.135705
21
183.042888
0
LINE
8
Layer 1
10
80.135705
20
183.042888
11
79.817843
21
182.828583
0
LINE
8
Layer 1
10
79.817843
20
182.828583
11
79.428600
21
182.750000
0
LINE
8
Layer 1
10
79.428600
20
182.750000
11
79.039353
21
182.828583
0
LINE
8
Layer 1
10
79.039353
20
182.828583
11
78.721491
21
183.042888
0
LINE
8
Layer 1
10
78.721491
20
183.042888
11
78.507184
21
183.360748
0
LINE
8
Layer 1
10
78.507184
20
183.360748
11
78.428600
21
183.750000
0
LINE
8
Layer 1
10
78.428600
20
183.750000
11
78.507184
21
184.139252
0
LINE
8
Layer 1
10
78.507184
20
184.139252
11
78.721491
21
184.457112
0
LINE
8
Layer 1
10
78.721491
20
184.457112
11
79.039353
21
184.671417
0
LINE
8
Layer 1
10
79.039353
20
184.671417
11
79.428600
21
184.750000
0
LINE
8
Layer 1
10
79.428600
20
184.750000
11
79.817843
21
184.671417
0
LINE
8
Layer 1
10
79.817843
20
184.671417
11
80.135705
21
184.457112
0
LINE
8
Layer 1
10
80.135705
20
184.457112
11
80.350014
21
184.139252
0
LINE
8
Layer 1
10
80.350014
20
184.139252
11
80.428600
21
183.750000
0
LINE
8
Layer 1
10
82.928600
20
207.750000
11
82.850015
21
207.360757
0
LINE
8
Layer 1
10
82.850015
20
207.360757
11
82.635705
21
207.042895
0
LINE
8
Layer 1
10
82.635705
20
207.042895
11
82.317844
21
206.828586
0
LINE
8
Layer 1
10
82.317844
20
206.828586
11
81.928600
21
206.750000
0
LINE
8
Layer 1
10
81.928600
20
206.750000
11
81.539355
21
206.828586
0
LINE
8
Layer 1
10
81.539355
20
206.828586
11
81.221493
21
207.042895
0
LINE
8
Layer 1
10
81.221493
20
207.042895
11
81.007185
21
207.360757
0
LINE
8
Layer 1
10
81.007185
20
207.360757
11
80.928600
21
207.750000
0
LINE
8
Layer 1
10
80.928600
20
207.750000
11
81.007185
21
208.139252
0
LINE
8
Layer 1
10
81.007185
20
208.139252
11
81.221493
21
208.457112
0
LINE
8
Layer 1
10
81.221493
20
208.457112
11
81.539355
21
208.671417
0
LINE
8
Layer 1
10
81.539355
20
208.671417
11
81.928600
21
208.750000
0
LINE
8
Layer 1
10
81.928600
20
208.750000
11
82.317845
21
208.671417
0
LINE
8
Layer 1
10
82.317845
20
208.671417
11
82.635707
21
208.457112
0
LINE
8
Layer 1
10
82.635707
20
208.457112
11
82.850015
21
208.139252
0
LINE
8
Layer 1
10
82.850015
20
208.139252
11
82.928600
21
207.750000
0
LINE
8
Layer 1
10
80.428600
20
193.750000
11
80.350014
21
193.360757
0
LINE
8
Layer 1
10
80.350014
20
193.360757
11
80.135705
21
193.042895
0
LINE
8
Layer 1
10
80.135705
20
193.042895
11
79.817843
21
192.828586
0
LINE
8
Layer 1
10
79.817843
20
192.828586
11
79.428600
21
192.750000
0
LINE
8
Layer 1
10
79.428600
20
192.750000
11
79.039353
21
192.828586
0
LINE
8
Layer 1
10
79.039353
20
192.828586
11
78.721491
21
193.042895
0
LINE
8
Layer 1
10
78.721491
20
193.042895
11
78.507184
21
193.360757
0
LINE
8
Layer 1
10
78.507184
20
193.360757
11
78.428600
21
193.750000
0
LINE
8
Layer 1
10
78.428600
20
193.750000
11
78.507184
21
194.139243
0
LINE
8
Layer 1
10
78.507184
20
194.139243
11
78.721491
21
194.457105
0
LINE
8
Layer 1
10
78.721491
20
194.457105
11
79.039353
21
194.671414
0
LINE
8
Layer 1
10
79.039353
20
194.671414
11
79.428600
21
194.750000
0
LINE
8
Layer 1
10
79.428600
20
194.750000
11
79.817843
21
194.671414
0
LINE
8
Layer 1
10
79.817843
20
194.671414
11
80.135705
21
194.457105
0
LINE
8
Layer 1
10
80.135705
20
194.457105
11
80.350014
21
194.139243
0
LINE
8
Layer 1
10
80.350014
20
194.139243
11
80.428600
21
193.750000
0
LINE
8
Layer 1
10
81.428600
20
141.750000
11
81.428600
21
178.250000
0
LINE
8
Layer 1
10
81.428600
20
178.250000
11
64.928600
21
178.250000
0
LINE
8
Layer 1
10
64.928600
20
178.250000
11
64.928600
21
177.250000
0
LINE
8
Layer 1
10
64.928600
20
177.250000
11
64.824388
21
176.136483
0
LINE
8
Layer 1
10
64.824388
20
176.136483
11
64.518750
21
175.070487
0
LINE
8
Layer 1
10
64.518750
20
175.070487
11
64.022185
21
174.078948
0
LINE
8
Layer 1
10
64.022185
20
174.078948
11
63.345190
21
173.188800
0
LINE
8
Layer 1
10
63.345190
20
173.188800
11
62.706744
21
172.355448
0
LINE
8
Layer 1
10
62.706744
20
172.355448
11
62.238126
21
171.443915
0
LINE
8
Layer 1
10
62.238126
20
171.443915
11
61.940282
21
170.477972
0
LINE
8
Layer 1
10
61.940282
20
170.477972
11
61.814156
21
169.481390
0
LINE
8
Layer 1
10
61.814156
20
169.481390
11
61.860694
21
168.477940
0
LINE
8
Layer 1
10
61.860694
20
168.477940
11
62.080840
21
167.491392
0
LINE
8
Layer 1
10
62.080840
20
167.491392
11
62.475541
21
166.545519
0
LINE
8
Layer 1
10
62.475541
20
166.545519
11
63.045740
21
165.664090
0
LINE
8
Layer 1
10
63.045740
20
165.664090
11
63.961024
21
164.314563
0
LINE
8
Layer 1
10
63.961024
20
164.314563
11
64.682051
21
162.860264
0
LINE
8
Layer 1
10
64.682051
20
162.860264
11
65.200220
21
161.321963
0
LINE
8
Layer 1
10
65.200220
20
161.321963
11
65.506930
21
159.720430
0
LINE
8
Layer 1
10
65.506930
20
159.720430
11
66.075646
21
155.853691
0
LINE
8
Layer 1
10
66.075646
20
155.853691
11
66.834859
21
152.022254
0
LINE
8
Layer 1
10
66.834859
20
152.022254
11
67.782995
21
148.233130
0
LINE
8
Layer 1
10
67.782995
20
148.233130
11
68.918480
21
144.493330
0
LINE
8
Layer 1
10
68.918480
20
144.493330
11
69.497886
21
143.373827
0
LINE
8
Layer 1
10
69.497886
20
143.373827
11
70.373586
21
142.507580
0
LINE
8
Layer 1
10
70.373586
20
142.507580
11
71.471101
21
141.948383
0
LINE
8
Layer 1
10
71.471101
20
141.948383
11
72.715950
21
141.750030
0
LINE
8
Layer 1
10
72.715950
20
141.750030
11
81.428600
21
141.750000
0
LINE
8
Layer 1
10
69.328600
20
169.250000
11
69.195005
21
168.588285
0
LINE
8
Layer 1
10
69.195005
20
168.588285
11
68.830680
21
168.047920
0
LINE
8
Layer 1
10
68.830680
20
168.047920
11
68.290315
21
167.683595
0
LINE
8
Layer 1
10
68.290315
20
167.683595
11
67.628600
21
167.550000
0
LINE
8
Layer 1
10
67.628600
20
167.550000
11
66.966881
21
167.683595
0
LINE
8
Layer 1
10
66.966881
20
167.683595
11
66.426516
21
168.047920
0
LINE
8
Layer 1
10
66.426516
20
168.047920
11
66.062194
21
168.588285
0
LINE
8
Layer 1
10
66.062194
20
168.588285
11
65.928600
21
169.250000
0
LINE
8
Layer 1
10
65.928600
20
169.250000
11
66.062194
21
169.911723
0
LINE
8
Layer 1
10
66.062194
20
169.911723
11
66.426516
21
170.452088
0
LINE
8
Layer 1
10
66.426516
20
170.452088
11
66.966881
21
170.816408
0
LINE
8
Layer 1
10
66.966881
20
170.816408
11
67.628600
21
170.950000
0
LINE
8
Layer 1
10
67.628600
20
170.950000
11
68.290315
21
170.816408
0
LINE
8
Layer 1
10
68.290315
20
170.816408
11
68.830680
21
170.452088
0
LINE
8
Layer 1
10
68.830680
20
170.452088
11
69.195005
21
169.911723
0
LINE
8
Layer 1
10
69.195005
20
169.911723
11
69.328600
21
169.250000
0
LINE
8
Layer 1
10
72.928600
20
150.250000
11
72.850015
21
149.860748
0
LINE
8
Layer 1
10
72.850015
20
149.860748
11
72.635705
21
149.542888
0
LINE
8
Layer 1
10
72.635705
20
149.542888
11
72.317844
21
149.328583
0
LINE
8
Layer 1
10
72.317844
20
149.328583
11
71.928600
21
149.250000
0
LINE
8
Layer 1
10
71.928600
20
149.250000
11
71.539355
21
149.328583
0
LINE
8
Layer 1
10
71.539355
20
149.328583
11
71.221493
21
149.542888
0
LINE
8
Layer 1
10
71.221493
20
149.542888
11
71.007185
21
149.860748
0
LINE
8
Layer 1
10
71.007185
20
149.860748
11
70.928600
21
150.250000
0
LINE
8
Layer 1
10
70.928600
20
150.250000
11
71.007185
21
150.639243
0
LINE
8
Layer 1
10
71.007185
20
150.639243
11
71.221493
21
150.957105
0
LINE
8
Layer 1
10
71.221493
20
150.957105
11
71.539355
21
151.171414
0
LINE
8
Layer 1
10
71.539355
20
151.171414
11
71.928600
21
151.250000
0
LINE
8
Layer 1
10
71.928600
20
151.250000
11
72.317845
21
151.171414
0
LINE
8
Layer 1
10
72.317845
20
151.171414
11
72.635707
21
150.957105
0
LINE
8
Layer 1
10
72.635707
20
150.957105
11
72.850015
21
150.639243
0
LINE
8
Layer 1
10
72.850015
20
150.639243
11
72.928600
21
150.250000
0
LINE
8
Layer 1
10
70.428600
20
164.250000
11
70.350014
21
163.860757
0
LINE
8
Layer 1
10
70.350014
20
163.860757
11
70.135705
21
163.542895
0
LINE
8
Layer 1
10
70.135705
20
163.542895
11
69.817843
21
163.328586
0
LINE
8
Layer 1
10
69.817843
20
163.328586
11
69.428600
21
163.250000
0
LINE
8
Layer 1
10
69.428600
20
163.250000
11
69.039353
21
163.328586
0
LINE
8
Layer 1
10
69.039353
20
163.328586
11
68.721491
21
163.542895
0
LINE
8
Layer 1
10
68.721491
20
163.542895
11
68.507184
21
163.860757
0
LINE
8
Layer 1
10
68.507184
20
163.860757
11
68.428600
21
164.250000
0
LINE
8
Layer 1
10
68.428600
20
164.250000
11
68.507184
21
164.639243
0
LINE
8
Layer 1
10
68.507184
20
164.639243
11
68.721491
21
164.957105
0
LINE
8
Layer 1
10
68.721491
20
164.957105
11
69.039353
21
165.171414
0
LINE
8
Layer 1
10
69.039353
20
165.171414
11
69.428600
21
165.250000
0
LINE
8
Layer 1
10
69.428600
20
165.250000
11
69.817843
21
165.171414
0
LINE
8
Layer 1
10
69.817843
20
165.171414
11
70.135705
21
164.957105
0
LINE
8
Layer 1
10
70.135705
20
164.957105
11
70.350014
21
164.639243
0
LINE
8
Layer 1
10
70.350014
20
164.639243
11
70.428600
21
164.250000
0
LINE
8
Layer 1
10
70.428600
20
174.250000
11
70.350014
21
173.860748
0
LINE
8
Layer 1
10
70.350014
20
173.860748
11
70.135705
21
173.542888
0
LINE
8
Layer 1
10
70.135705
20
173.542888
11
69.817843
21
173.328583
0
LINE
8
Layer 1
10
69.817843
20
173.328583
11
69.428600
21
173.250000
0
LINE
8
Layer 1
10
69.428600
20
173.250000
11
69.039353
21
173.328583
0
LINE
8
Layer 1
10
69.039353
20
173.328583
11
68.721491
21
173.542888
0
LINE
8
Layer 1
10
68.721491
20
173.542888
11
68.507184
21
173.860748
0
LINE
8
Layer 1
10
68.507184
20
173.860748
11
68.428600
21
174.250000
0
LINE
8
Layer 1
10
68.428600
20
174.250000
11
68.507184
21
174.639252
0
LINE
8
Layer 1
10
68.507184
20
174.639252
11
68.721491
21
174.957112
0
LINE
8
Layer 1
10
68.721491
20
174.957112
11
69.039353
21
175.171417
0
LINE
8
Layer 1
10
69.039353
20
175.171417
11
69.428600
21
175.250000
0
LINE
8
Layer 1
10
69.428600
20
175.250000
11
69.817843
21
175.171417
0
LINE
8
Layer 1
10
69.817843
20
175.171417
11
70.135705
21
174.957112
0
LINE
8
Layer 1
10
70.135705
20
174.957112
11
70.350014
21
174.639252
0
LINE
8
Layer 1
10
70.350014
20
174.639252
11
70.428600
21
174.250000
0
LINE
8
Layer 1
10
69.507000
20
117.507000
11
69.200290
21
115.905473
0
LINE
8
Layer 1
10
69.200290
20
115.905473
11
68.682121
21
114.367175
0
LINE
8
Layer 1
10
68.682121
20
114.367175
11
67.961094
21
112.912877
0
LINE
8
Layer 1
10
67.961094
20
112.912877
11
67.045810
21
111.563350
0
LINE
8
Layer 1
10
67.045810
20
111.563350
11
66.475602
21
110.681920
0
LINE
8
Layer 1
10
66.475602
20
110.681920
11
66.080898
21
109.736044
0
LINE
8
Layer 1
10
66.080898
20
109.736044
11
65.860751
21
108.749495
0
LINE
8
Layer 1
10
65.860751
20
108.749495
11
65.814215
21
107.746044
0
LINE
8
Layer 1
10
65.814215
20
107.746044
11
65.940344
21
106.749464
0
LINE
8
Layer 1
10
65.940344
20
106.749464
11
66.238192
21
105.783529
0
LINE
8
Layer 1
10
66.238192
20
105.783529
11
66.706813
21
104.872010
0
LINE
8
Layer 1
10
66.706813
20
104.872010
11
67.345260
21
104.038680
0
LINE
8
Layer 1
10
67.345260
20
104.038680
11
68.022255
21
103.148489
0
LINE
8
Layer 1
10
68.022255
20
103.148489
11
68.518820
21
102.156939
0
LINE
8
Layer 1
10
68.518820
20
102.156939
11
68.824458
21
101.090956
0
LINE
8
Layer 1
10
68.824458
20
101.090956
11
68.928670
21
99.977470
0
LINE
8
Layer 1
10
68.928670
20
99.977470
11
68.928600
21
98.977100
0
LINE
8
Layer 1
10
68.928600
20
98.977100
11
79.428600
21
98.977100
0
LINE
8
Layer 1
10
79.428600
20
98.977100
11
79.428600
21
118.023000
0
LINE
8
Layer 1
10
79.428600
20
118.023000
11
79.192845
21
119.190733
0
LINE
8
Layer 1
10
79.192845
20
119.190733
11
78.549919
21
120.144307
0
LINE
8
Layer 1
10
78.549919
20
120.144307
11
77.596334
21
120.787221
0
LINE
8
Layer 1
10
77.596334
20
120.787221
11
76.428600
21
121.022970
0
LINE
8
Layer 1
10
76.428600
20
121.022970
11
73.477600
21
121.023000
0
LINE
8
Layer 1
10
73.477600
20
121.023000
11
72.038518
21
120.755853
0
LINE
8
Layer 1
10
72.038518
20
120.755853
11
70.825706
21
120.017587
0
LINE
8
Layer 1
10
70.825706
20
120.017587
11
69.946181
21
118.902968
0
LINE
8
Layer 1
10
69.946181
20
118.902968
11
69.506960
21
117.506760
0
LINE
8
Layer 1
10
73.328600
20
107.977000
11
73.195006
21
107.315281
0
LINE
8
Layer 1
10
73.195006
20
107.315281
11
72.830681
21
106.774916
0
LINE
8
Layer 1
10
72.830681
20
106.774916
11
72.290317
21
106.410594
0
LINE
8
Layer 1
10
72.290317
20
106.410594
11
71.628600
21
106.277000
0
LINE
8
Layer 1
10
71.628600
20
106.277000
11
70.966882
21
106.410594
0
LINE
8
Layer 1
10
70.966882
20
106.410594
11
70.426518
21
106.774916
0
LINE
8
Layer 1
10
70.426518
20
106.774916
11
70.062194
21
107.315281
0
LINE
8
Layer 1
10
70.062194
20
107.315281
11
69.928600
21
107.977000
0
LINE
8
Layer 1
10
69.928600
20
107.977000
11
70.062194
21
108.638715
0
LINE
8
Layer 1
10
70.062194
20
108.638715
11
70.426516
21
109.179080
0
LINE
8
Layer 1
10
70.426516
20
109.179080
11
70.966881
21
109.543405
0
LINE
8
Layer 1
10
70.966881
20
109.543405
11
71.628600
21
109.677000
0
LINE
8
Layer 1
10
71.628600
20
109.677000
11
72.290317
21
109.543405
0
LINE
8
Layer 1
10
72.290317
20
109.543405
11
72.830681
21
109.179081
0
LINE
8
Layer 1
10
72.830681
20
109.179081
11
73.195006
21
108.638716
0
LINE
8
Layer 1
10
73.195006
20
108.638716
11
73.328600
21
107.977000
0
LINE
8
Layer 1
10
74.428600
20
112.977000
11
74.350014
21
112.587753
0
LINE
8
Layer 1
10
74.350014
20
112.587753
11
74.135705
21
112.269891
0
LINE
8
Layer 1
10
74.135705
20
112.269891
11
73.817843
21
112.055584
0
LINE
8
Layer 1
10
73.817843
20
112.055584
11
73.428600
21
111.977000
0
LINE
8
Layer 1
10
73.428600
20
111.977000
11
73.039355
21
112.055584
0
LINE
8
Layer 1
10
73.039355
20
112.055584
11
72.721493
21
112.269891
0
LINE
8
Layer 1
10
72.721493
20
112.269891
11
72.507185
21
112.587753
0
LINE
8
Layer 1
10
72.507185
20
112.587753
11
72.428600
21
112.977000
0
LINE
8
Layer 1
10
72.428600
20
112.977000
11
72.507185
21
113.366243
0
LINE
8
Layer 1
10
72.507185
20
113.366243
11
72.721493
21
113.684105
0
LINE
8
Layer 1
10
72.721493
20
113.684105
11
73.039355
21
113.898414
0
LINE
8
Layer 1
10
73.039355
20
113.898414
11
73.428600
21
113.977000
0
LINE
8
Layer 1
10
73.428600
20
113.977000
11
73.817845
21
113.898414
0
LINE
8
Layer 1
10
73.817845
20
113.898414
11
74.135707
21
113.684105
0
LINE
8
Layer 1
10
74.135707
20
113.684105
11
74.350015
21
113.366243
0
LINE
8
Layer 1
10
74.350015
20
113.366243
11
74.428600
21
112.977000
0
LINE
8
Layer 1
10
74.428600
20
102.977000
11
74.350014
21
102.587753
0
LINE
8
Layer 1
10
74.350014
20
102.587753
11
74.135705
21
102.269891
0
LINE
8
Layer 1
10
74.135705
20
102.269891
11
73.817843
21
102.055584
0
LINE
8
Layer 1
10
73.817843
20
102.055584
11
73.428600
21
101.977000
0
LINE
8
Layer 1
10
73.428600
20
101.977000
11
73.039355
21
102.055584
0
LINE
8
Layer 1
10
73.039355
20
102.055584
11
72.721493
21
102.269891
0
LINE
8
Layer 1
10
72.721493
20
102.269891
11
72.507185
21
102.587753
0
LINE
8
Layer 1
10
72.507185
20
102.587753
11
72.428600
21
102.977000
0
LINE
8
Layer 1
10
72.428600
20
102.977000
11
72.507185
21
103.366243
0
LINE
8
Layer 1
10
72.507185
20
103.366243
11
72.721493
21
103.684105
0
LINE
8
Layer 1
10
72.721493
20
103.684105
11
73.039355
21
103.898414
0
LINE
8
Layer 1
10
73.039355
20
103.898414
11
73.428600
21
103.977000
0
LINE
8
Layer 1
10
73.428600
20
103.977000
11
73.817845
21
103.898414
0
LINE
8
Layer 1
10
73.817845
20
103.898414
11
74.135707
21
103.684105
0
LINE
8
Layer 1
10
74.135707
20
103.684105
11
74.350015
21
103.366243
0
LINE
8
Layer 1
10
74.350015
20
103.366243
11
74.428600
21
102.977000
0
LINE
8
Layer 1
10
69.731200
20
210.507000
11
69.292003
21
211.903078
0
LINE
8
Layer 1
10
69.292003
20
211.903078
11
68.412500
21
213.017625
0
LINE
8
Layer 1
10
68.412500
20
213.017625
11
67.199697
21
213.755859
0
LINE
8
Layer 1
10
67.199697
20
213.755859
11
65.760600
21
214.023000
0
LINE
8
Layer 1
10
65.760600
20
214.023000
11
62.809600
21
214.023000
0
LINE
8
Layer 1
10
62.809600
20
214.023000
11
61.641866
21
213.787251
0
LINE
8
Layer 1
10
61.641866
20
213.787251
11
60.688281
21
213.144338
0
LINE
8
Layer 1
10
60.688281
20
213.144338
11
60.045355
21
212.190763
0
LINE
8
Layer 1
10
60.045355
20
212.190763
11
59.809600
21
211.023030
0
LINE
8
Layer 1
10
59.809600
20
211.023030
11
59.809600
21
191.977000
0
LINE
8
Layer 1
10
59.809600
20
191.977000
11
70.309600
21
191.977000
0
LINE
8
Layer 1
10
70.309600
20
191.977000
11
70.309600
21
192.977000
0
LINE
8
Layer 1
10
70.309600
20
192.977000
11
70.413812
21
194.090486
0
LINE
8
Layer 1
10
70.413812
20
194.090486
11
70.719450
21
195.156469
0
LINE
8
Layer 1
10
70.719450
20
195.156469
11
71.216015
21
196.148019
0
LINE
8
Layer 1
10
71.216015
20
196.148019
11
71.893010
21
197.038210
0
LINE
8
Layer 1
10
71.893010
20
197.038210
11
72.531446
21
197.871551
0
LINE
8
Layer 1
10
72.531446
20
197.871551
11
73.000056
21
198.783120
0
LINE
8
Layer 1
10
73.000056
20
198.783120
11
73.297894
21
199.749125
0
LINE
8
Layer 1
10
73.297894
20
199.749125
11
73.424014
21
200.745776
0
LINE
8
Layer 1
10
73.424014
20
200.745776
11
73.377470
21
201.749281
0
LINE
8
Layer 1
10
73.377470
20
201.749281
11
73.157317
21
202.735847
0
LINE
8
Layer 1
10
73.157317
20
202.735847
11
72.762609
21
203.681684
0
LINE
8
Layer 1
10
72.762609
20
203.681684
11
72.192400
21
204.563000
0
LINE
8
Layer 1
10
72.192400
20
204.563000
11
71.277147
21
205.912359
0
LINE
8
Layer 1
10
71.277147
20
205.912359
11
70.556125
21
207.366625
0
LINE
8
Layer 1
10
70.556125
20
207.366625
11
70.037941
21
208.905078
0
LINE
8
Layer 1
10
70.037941
20
208.905078
11
69.731200
21
210.507000
0
LINE
8
Layer 1
10
69.309600
20
200.977000
11
69.176006
21
200.315281
0
LINE
8
Layer 1
10
69.176006
20
200.315281
11
68.811684
21
199.774916
0
LINE
8
Layer 1
10
68.811684
20
199.774916
11
68.271319
21
199.410594
0
LINE
8
Layer 1
10
68.271319
20
199.410594
11
67.609600
21
199.277000
0
LINE
8
Layer 1
10
67.609600
20
199.277000
11
66.947883
21
199.410594
0
LINE
8
Layer 1
10
66.947883
20
199.410594
11
66.407518
21
199.774916
0
LINE
8
Layer 1
10
66.407518
20
199.774916
11
66.043194
21
200.315281
0
LINE
8
Layer 1
10
66.043194
20
200.315281
11
65.909600
21
200.977000
0
LINE
8
Layer 1
10
65.909600
20
200.977000
11
66.043194
21
201.638715
0
LINE
8
Layer 1
10
66.043194
20
201.638715
11
66.407518
21
202.179080
0
LINE
8
Layer 1
10
66.407518
20
202.179080
11
66.947883
21
202.543405
0
LINE
8
Layer 1
10
66.947883
20
202.543405
11
67.609600
21
202.677000
0
LINE
8
Layer 1
10
67.609600
20
202.677000
11
68.271318
21
202.543405
0
LINE
8
Layer 1
10
68.271318
20
202.543405
11
68.811682
21
202.179081
0
LINE
8
Layer 1
10
68.811682
20
202.179081
11
69.176006
21
201.638716
0
LINE
8
Layer 1
10
69.176006
20
201.638716
11
69.309600
21
200.977000
0
LINE
8
Layer 1
10
66.809600
20
205.977000
11
66.731015
21
205.587753
0
LINE
8
Layer 1
10
66.731015
20
205.587753
11
66.516707
21
205.269891
0
LINE
8
Layer 1
10
66.516707
20
205.269891
11
66.198845
21
205.055584
0
LINE
8
Layer 1
10
66.198845
20
205.055584
11
65.809600
21
204.977000
0
LINE
8
Layer 1
10
65.809600
20
204.977000
11
65.420355
21
205.055584
0
LINE
8
Layer 1
10
65.420355
20
205.055584
11
65.102493
21
205.269891
0
LINE
8
Layer 1
10
65.102493
20
205.269891
11
64.888185
21
205.587753
0
LINE
8
Layer 1
10
64.888185
20
205.587753
11
64.809600
21
205.977000
0
LINE
8
Layer 1
10
64.809600
20
205.977000
11
64.888186
21
206.366243
0
LINE
8
Layer 1
10
64.888186
20
206.366243
11
65.102495
21
206.684105
0
LINE
8
Layer 1
10
65.102495
20
206.684105
11
65.420357
21
206.898414
0
LINE
8
Layer 1
10
65.420357
20
206.898414
11
65.809600
21
206.977000
0
LINE
8
Layer 1
10
65.809600
20
206.977000
11
66.198845
21
206.898414
0
LINE
8
Layer 1
10
66.198845
20
206.898414
11
66.516707
21
206.684105
0
LINE
8
Layer 1
10
66.516707
20
206.684105
11
66.731015
21
206.366243
0
LINE
8
Layer 1
10
66.731015
20
206.366243
11
66.809600
21
205.977000
0
LINE
8
Layer 1
10
66.809600
20
195.977000
11
66.731015
21
195.587753
0
LINE
8
Layer 1
10
66.731015
20
195.587753
11
66.516707
21
195.269891
0
LINE
8
Layer 1
10
66.516707
20
195.269891
11
66.198845
21
195.055584
0
LINE
8
Layer 1
10
66.198845
20
195.055584
11
65.809600
21
194.977000
0
LINE
8
Layer 1
10
65.809600
20
194.977000
11
65.420355
21
195.055584
0
LINE
8
Layer 1
10
65.420355
20
195.055584
11
65.102493
21
195.269891
0
LINE
8
Layer 1
10
65.102493
20
195.269891
11
64.888185
21
195.587753
0
LINE
8
Layer 1
10
64.888185
20
195.587753
11
64.809600
21
195.977000
0
LINE
8
Layer 1
10
64.809600
20
195.977000
11
64.888186
21
196.366243
0
LINE
8
Layer 1
10
64.888186
20
196.366243
11
65.102495
21
196.684105
0
LINE
8
Layer 1
10
65.102495
20
196.684105
11
65.420357
21
196.898414
0
LINE
8
Layer 1
10
65.420357
20
196.898414
11
65.809600
21
196.977000
0
LINE
8
Layer 1
10
65.809600
20
196.977000
11
66.198845
21
196.898414
0
LINE
8
Layer 1
10
66.198845
20
196.898414
11
66.516707
21
196.684105
0
LINE
8
Layer 1
10
66.516707
20
196.684105
11
66.731015
21
196.366243
0
LINE
8
Layer 1
10
66.731015
20
196.366243
11
66.809600
21
195.977000
0
LINE
8
Layer 1
10
39.655100
20
198.245000
11
41.002000
21
196.085720
0
LINE
8
Layer 1
10
41.002000
20
196.085720
11
41.572205
21
195.204290
0
LINE
8
Layer 1
10
41.572205
20
195.204290
11
41.966902
21
194.258414
0
LINE
8
Layer 1
10
41.966902
20
194.258414
11
42.187038
21
193.271865
0
LINE
8
Layer 1
10
42.187038
20
193.271865
11
42.233562
21
192.268414
0
LINE
8
Layer 1
10
42.233562
20
192.268414
11
42.107423
21
191.271834
0
LINE
8
Layer 1
10
42.107423
20
191.271834
11
41.809567
21
190.305899
0
LINE
8
Layer 1
10
41.809567
20
190.305899
11
41.340944
21
189.394380
0
LINE
8
Layer 1
10
41.340944
20
189.394380
11
40.702500
21
188.561050
0
LINE
8
Layer 1
10
40.702500
20
188.561050
11
40.025498
21
187.670974
0
LINE
8
Layer 1
10
40.025498
20
187.670974
11
39.528937
21
186.679381
0
LINE
8
Layer 1
10
39.528937
20
186.679381
11
39.223308
21
185.613360
0
LINE
8
Layer 1
10
39.223308
20
185.613360
11
39.119100
21
184.500000
0
LINE
8
Layer 1
10
39.119100
20
184.500000
11
39.119100
21
183.500000
0
LINE
8
Layer 1
10
39.119100
20
183.500000
11
6.119100
21
183.500000
0
LINE
8
Layer 1
10
6.119100
20
183.500000
11
6.119100
21
184.500000
0
LINE
8
Layer 1
10
6.119100
20
184.500000
11
6.014892
21
185.613505
0
LINE
8
Layer 1
10
6.014892
20
185.613505
11
5.709263
21
186.679499
0
LINE
8
Layer 1
10
5.709263
20
186.679499
11
5.212702
21
187.671053
0
LINE
8
Layer 1
10
5.212702
20
187.671053
11
4.535700
21
188.561240
0
LINE
8
Layer 1
10
4.535700
20
188.561240
11
3.897256
21
189.394570
0
LINE
8
Layer 1
10
3.897256
20
189.394570
11
3.428633
21
190.306089
0
LINE
8
Layer 1
10
3.428633
20
190.306089
11
3.130777
21
191.272024
0
LINE
8
Layer 1
10
3.130777
20
191.272024
11
3.004638
21
192.268604
0
LINE
8
Layer 1
10
3.004638
20
192.268604
11
3.051162
21
193.272055
0
LINE
8
Layer 1
10
3.051162
20
193.272055
11
3.271298
21
194.258604
0
LINE
8
Layer 1
10
3.271298
20
194.258604
11
3.665995
21
195.204480
0
LINE
8
Layer 1
10
3.665995
20
195.204480
11
4.236200
21
196.085910
0
LINE
8
Layer 1
10
4.236200
20
196.085910
11
5.583100
21
198.245190
0
LINE
8
Layer 1
10
5.583100
20
198.245190
11
6.212063
21
199.179190
0
LINE
8
Layer 1
10
6.212063
20
199.179190
11
7.058750
21
199.889649
0
LINE
8
Layer 1
10
7.058750
20
199.889649
11
8.067438
21
200.341581
0
LINE
8
Layer 1
10
8.067438
20
200.341581
11
9.182400
21
200.500000
0
LINE
8
Layer 1
10
9.182400
20
200.500000
11
36.055800
21
200.500000
0
LINE
8
Layer 1
10
36.055800
20
200.500000
11
37.170762
21
200.341618
0
LINE
8
Layer 1
10
37.170762
20
200.341618
11
38.179450
21
199.889746
0
LINE
8
Layer 1
10
38.179450
20
199.889746
11
39.026137
21
199.179299
0
LINE
8
Layer 1
10
39.026137
20
199.179299
11
39.655100
21
198.245190
0
LINE
8
Layer 1
10
11.619100
20
190.883000
11
11.619100
21
194.117000
0
LINE
8
Layer 1
10
11.619100
20
194.117000
11
8.819100
21
195.733580
0
LINE
8
Layer 1
10
8.819100
20
195.733580
11
6.019100
21
194.117000
0
LINE
8
Layer 1
10
6.019100
20
194.117000
11
6.019100
21
190.883000
0
LINE
8
Layer 1
10
6.019100
20
190.883000
11
8.819100
21
189.266420
0
LINE
8
Layer 1
10
8.819100
20
189.266420
11
11.619100
21
190.883000
0
LINE
8
Layer 1
10
39.219100
20
190.883000
11
39.219100
21
194.117000
0
LINE
8
Layer 1
10
39.219100
20
194.117000
11
36.419100
21
195.733580
0
LINE
8
Layer 1
10
36.419100
20
195.733580
11
33.619100
21
194.117000
0
LINE
8
Layer 1
10
33.619100
20
194.117000
11
33.619100
21
190.883000
0
LINE
8
Layer 1
10
33.619100
20
190.883000
11
36.419100
21
189.266420
0
LINE
8
Layer 1
10
36.419100
20
189.266420
11
39.219100
21
190.883000
0
LINE
8
Layer 1
10
11.619100
20
197.500000
11
11.540517
21
197.110757
0
LINE
8
Layer 1
10
11.540517
20
197.110757
11
11.326213
21
196.792895
0
LINE
8
Layer 1
10
11.326213
20
196.792895
11
11.008352
21
196.578586
0
LINE
8
Layer 1
10
11.008352
20
196.578586
11
10.619100
21
196.500000
0
LINE
8
Layer 1
10
10.619100
20
196.500000
11
10.229848
21
196.578586
0
LINE
8
Layer 1
10
10.229848
20
196.578586
11
9.911987
21
196.792895
0
LINE
8
Layer 1
10
9.911987
20
196.792895
11
9.697683
21
197.110757
0
LINE
8
Layer 1
10
9.697683
20
197.110757
11
9.619100
21
197.500000
0
LINE
8
Layer 1
10
9.619100
20
197.500000
11
9.697683
21
197.889243
0
LINE
8
Layer 1
10
9.697683
20
197.889243
11
9.911987
21
198.207105
0
LINE
8
Layer 1
10
9.911987
20
198.207105
11
10.229848
21
198.421414
0
LINE
8
Layer 1
10
10.229848
20
198.421414
11
10.619100
21
198.500000
0
LINE
8
Layer 1
10
10.619100
20
198.500000
11
11.008352
21
198.421414
0
LINE
8
Layer 1
10
11.008352
20
198.421414
11
11.326213
21
198.207105
0
LINE
8
Layer 1
10
11.326213
20
198.207105
11
11.540517
21
197.889243
0
LINE
8
Layer 1
10
11.540517
20
197.889243
11
11.619100
21
197.500000
0
LINE
8
Layer 1
10
35.619100
20
197.500000
11
35.540517
21
197.110757
0
LINE
8
Layer 1
10
35.540517
20
197.110757
11
35.326213
21
196.792895
0
LINE
8
Layer 1
10
35.326213
20
196.792895
11
35.008352
21
196.578586
0
LINE
8
Layer 1
10
35.008352
20
196.578586
11
34.619100
21
196.500000
0
LINE
8
Layer 1
10
34.619100
20
196.500000
11
34.229848
21
196.578586
0
LINE
8
Layer 1
10
34.229848
20
196.578586
11
33.911988
21
196.792895
0
LINE
8
Layer 1
10
33.911988
20
196.792895
11
33.697683
21
197.110757
0
LINE
8
Layer 1
10
33.697683
20
197.110757
11
33.619100
21
197.500000
0
LINE
8
Layer 1
10
33.619100
20
197.500000
11
33.697683
21
197.889243
0
LINE
8
Layer 1
10
33.697683
20
197.889243
11
33.911988
21
198.207105
0
LINE
8
Layer 1
10
33.911988
20
198.207105
11
34.229848
21
198.421414
0
LINE
8
Layer 1
10
34.229848
20
198.421414
11
34.619100
21
198.500000
0
LINE
8
Layer 1
10
34.619100
20
198.500000
11
35.008352
21
198.421414
0
LINE
8
Layer 1
10
35.008352
20
198.421414
11
35.326213
21
198.207105
0
LINE
8
Layer 1
10
35.326213
20
198.207105
11
35.540517
21
197.889243
0
LINE
8
Layer 1
10
35.540517
20
197.889243
11
35.619100
21
197.500000
0
LINE
8
Layer 1
10
11.619100
20
187.500000
11
11.540517
21
187.110757
0
LINE
8
Layer 1
10
11.540517
20
187.110757
11
11.326213
21
186.792895
0
LINE
8
Layer 1
10
11.326213
20
186.792895
11
11.008352
21
186.578586
0
LINE
8
Layer 1
10
11.008352
20
186.578586
11
10.619100
21
186.500000
0
LINE
8
Layer 1
10
10.619100
20
186.500000
11
10.229848
21
186.578586
0
LINE
8
Layer 1
10
10.229848
20
186.578586
11
9.911987
21
186.792895
0
LINE
8
Layer 1
10
9.911987
20
186.792895
11
9.697683
21
187.110757
0
LINE
8
Layer 1
10
9.697683
20
187.110757
11
9.619100
21
187.500000
0
LINE
8
Layer 1
10
9.619100
20
187.500000
11
9.697683
21
187.889243
0
LINE
8
Layer 1
10
9.697683
20
187.889243
11
9.911987
21
188.207105
0
LINE
8
Layer 1
10
9.911987
20
188.207105
11
10.229848
21
188.421414
0
LINE
8
Layer 1
10
10.229848
20
188.421414
11
10.619100
21
188.500000
0
LINE
8
Layer 1
10
10.619100
20
188.500000
11
11.008352
21
188.421414
0
LINE
8
Layer 1
10
11.008352
20
188.421414
11
11.326213
21
188.207105
0
LINE
8
Layer 1
10
11.326213
20
188.207105
11
11.540517
21
187.889243
0
LINE
8
Layer 1
10
11.540517
20
187.889243
11
11.619100
21
187.500000
0
LINE
8
Layer 1
10
35.619100
20
187.500000
11
35.540517
21
187.110757
0
LINE
8
Layer 1
10
35.540517
20
187.110757
11
35.326213
21
186.792895
0
LINE
8
Layer 1
10
35.326213
20
186.792895
11
35.008352
21
186.578586
0
LINE
8
Layer 1
10
35.008352
20
186.578586
11
34.619100
21
186.500000
0
LINE
8
Layer 1
10
34.619100
20
186.500000
11
34.229848
21
186.578586
0
LINE
8
Layer 1
10
34.229848
20
186.578586
11
33.911988
21
186.792895
0
LINE
8
Layer 1
10
33.911988
20
186.792895
11
33.697683
21
187.110757
0
LINE
8
Layer 1
10
33.697683
20
187.110757
11
33.619100
21
187.500000
0
LINE
8
Layer 1
10
33.619100
20
187.500000
11
33.697683
21
187.889243
0
LINE
8
Layer 1
10
33.697683
20
187.889243
11
33.911988
21
188.207105
0
LINE
8
Layer 1
10
33.911988
20
188.207105
11
34.229848
21
188.421414
0
LINE
8
Layer 1
10
34.229848
20
188.421414
11
34.619100
21
188.500000
0
LINE
8
Layer 1
10
34.619100
20
188.500000
11
35.008352
21
188.421414
0
LINE
8
Layer 1
10
35.008352
20
188.421414
11
35.326213
21
188.207105
0
LINE
8
Layer 1
10
35.326213
20
188.207105
11
35.540517
21
187.889243
0
LINE
8
Layer 1
10
35.540517
20
187.889243
11
35.619100
21
187.500000
0
LINE
8
Layer 1
10
36.655100
20
407.495000
11
38.002000
21
405.335700
0
LINE
8
Layer 1
10
38.002000
20
405.335700
11
38.572205
21
404.454278
0
LINE
8
Layer 1
10
38.572205
20
404.454278
11
38.966902
21
403.508408
0
LINE
8
Layer 1
10
38.966902
20
403.508408
11
39.187038
21
402.521862
0
LINE
8
Layer 1
10
39.187038
20
402.521862
11
39.233562
21
401.518413
0
LINE
8
Layer 1
10
39.233562
20
401.518413
11
39.107423
21
400.521830
0
LINE
8
Layer 1
10
39.107423
20
400.521830
11
38.809567
21
399.555886
0
LINE
8
Layer 1
10
38.809567
20
399.555886
11
38.340944
21
398.644352
0
LINE
8
Layer 1
10
38.340944
20
398.644352
11
37.702500
21
397.811000
0
LINE
8
Layer 1
10
37.702500
20
397.811000
11
37.025498
21
396.920953
0
LINE
8
Layer 1
10
37.025498
20
396.920953
11
36.528937
21
395.929375
0
LINE
8
Layer 1
10
36.528937
20
395.929375
11
36.223308
21
394.863359
0
LINE
8
Layer 1
10
36.223308
20
394.863359
11
36.119100
21
393.750000
0
LINE
8
Layer 1
10
36.119100
20
393.750000
11
36.119100
21
382.250000
0
LINE
8
Layer 1
10
36.119100
20
382.250000
11
32.319100
21
382.250000
0
LINE
8
Layer 1
10
32.319100
20
382.250000
11
32.119100
21
382.450000
0
LINE
8
Layer 1
10
32.119100
20
382.450000
11
31.919100
21
382.250000
0
LINE
8
Layer 1
10
31.919100
20
382.250000
11
32.119100
21
382.050000
0
LINE
8
Layer 1
10
32.119100
20
382.050000
11
32.119100
21
365.450000
0
LINE
8
Layer 1
10
32.119100
20
365.450000
11
31.919100
21
365.250000
0
LINE
8
Layer 1
10
31.919100
20
365.250000
11
32.119100
21
365.050000
0
LINE
8
Layer 1
10
32.119100
20
365.050000
11
32.319100
21
365.250000
0
LINE
8
Layer 1
10
32.319100
20
365.250000
11
35.919100
21
365.250000
0
LINE
8
Layer 1
10
35.919100
20
365.250000
11
36.119100
21
365.250000
0
LINE
8
Layer 1
10
36.119100
20
365.250000
11
36.119100
21
348.250000
0
LINE
8
Layer 1
10
36.119100
20
348.250000
11
32.319100
21
348.250000
0
LINE
8
Layer 1
10
32.319100
20
348.250000
11
32.119100
21
348.450000
0
LINE
8
Layer 1
10
32.119100
20
348.450000
11
31.919100
21
348.250000
0
LINE
8
Layer 1
10
31.919100
20
348.250000
11
32.119100
21
348.050000
0
LINE
8
Layer 1
10
32.119100
20
348.050000
11
32.119100
21
331.450000
0
LINE
8
Layer 1
10
32.119100
20
331.450000
11
31.919100
21
331.250000
0
LINE
8
Layer 1
10
31.919100
20
331.250000
11
32.119100
21
331.050000
0
LINE
8
Layer 1
10
32.119100
20
331.050000
11
32.319100
21
331.250000
0
LINE
8
Layer 1
10
32.319100
20
331.250000
11
35.919100
21
331.250000
0
LINE
8
Layer 1
10
35.919100
20
331.250000
11
36.119100
21
331.250000
0
LINE
8
Layer 1
10
36.119100
20
331.250000
11
36.119100
21
314.250000
0
LINE
8
Layer 1
10
36.119100
20
314.250000
11
32.319100
21
314.250000
0
LINE
8
Layer 1
10
32.319100
20
314.250000
11
32.119100
21
314.450000
0
LINE
8
Layer 1
10
32.119100
20
314.450000
11
31.919100
21
314.250000
0
LINE
8
Layer 1
10
31.919100
20
314.250000
11
32.119100
21
314.050000
0
LINE
8
Layer 1
10
32.119100
20
314.050000
11
32.119100
21
297.450000
0
LINE
8
Layer 1
10
32.119100
20
297.450000
11
31.919100
21
297.250000
0
LINE
8
Layer 1
10
31.919100
20
297.250000
11
32.119100
21
297.050000
0
LINE
8
Layer 1
10
32.119100
20
297.050000
11
32.319100
21
297.250000
0
LINE
8
Layer 1
10
32.319100
20
297.250000
11
35.919100
21
297.250000
0
LINE
8
Layer 1
10
35.919100
20
297.250000
11
36.119100
21
297.250000
0
LINE
8
Layer 1
10
36.119100
20
297.250000
11
36.119100
21
285.750000
0
LINE
8
Layer 1
10
36.119100
20
285.750000
11
35.981100
21
285.019008
0
LINE
8
Layer 1
10
35.981100
20
285.019008
11
35.600700
21
284.406563
0
LINE
8
Layer 1
10
35.600700
20
284.406563
11
35.028300
21
283.968211
0
LINE
8
Layer 1
10
35.028300
20
283.968211
11
34.314300
21
283.759500
0
LINE
8
Layer 1
10
34.314300
20
283.759500
11
32.334222
21
283.485067
0
LINE
8
Layer 1
10
32.334222
20
283.485067
11
30.385501
21
283.054138
0
LINE
8
Layer 1
10
30.385501
20
283.054138
11
28.477380
21
282.469139
0
LINE
8
Layer 1
10
28.477380
20
282.469139
11
26.619100
21
281.732500
0
LINE
8
Layer 1
10
26.619100
20
281.732500
11
24.920612
21
281.083895
0
LINE
8
Layer 1
10
24.920612
20
281.083895
11
23.177970
21
280.620606
0
LINE
8
Layer 1
10
23.177970
20
280.620606
11
21.405894
21
280.342633
0
LINE
8
Layer 1
10
21.405894
20
280.342633
11
19.619100
21
280.249975
0
LINE
8
Layer 1
10
19.619100
20
280.249975
11
17.832306
21
280.342633
0
LINE
8
Layer 1
10
17.832306
20
280.342633
11
16.060230
21
280.620606
0
LINE
8
Layer 1
10
16.060230
20
280.620606
11
14.317588
21
281.083895
0
LINE
8
Layer 1
10
14.317588
20
281.083895
11
12.619100
21
281.732500
0
LINE
8
Layer 1
10
12.619100
20
281.732500
11
10.760820
21
282.469139
0
LINE
8
Layer 1
10
10.760820
20
282.469139
11
8.852699
21
283.054138
0
LINE
8
Layer 1
10
8.852699
20
283.054138
11
6.903978
21
283.485067
0
LINE
8
Layer 1
10
6.903978
20
283.485067
11
4.923900
21
283.759500
0
LINE
8
Layer 1
10
4.923900
20
283.759500
11
4.209900
21
283.968211
0
LINE
8
Layer 1
10
4.209900
20
283.968211
11
3.637500
21
284.406563
0
LINE
8
Layer 1
10
3.637500
20
284.406563
11
3.257100
21
285.019008
0
LINE
8
Layer 1
10
3.257100
20
285.019008
11
3.119100
21
285.750000
0
LINE
8
Layer 1
10
3.119100
20
285.750000
11
3.119100
21
297.250000
0
LINE
8
Layer 1
10
3.119100
20
297.250000
11
3.319100
21
297.250000
0
LINE
8
Layer 1
10
3.319100
20
297.250000
11
6.919100
21
297.250000
0
LINE
8
Layer 1
10
6.919100
20
297.250000
11
7.119100
21
297.050000
0
LINE
8
Layer 1
10
7.119100
20
297.050000
11
7.319100
21
297.250000
0
LINE
8
Layer 1
10
7.319100
20
297.250000
11
7.119100
21
297.450000
0
LINE
8
Layer 1
10
7.119100
20
297.450000
11
7.119100
21
314.050000
0
LINE
8
Layer 1
10
7.119100
20
314.050000
11
7.319100
21
314.250000
0
LINE
8
Layer 1
10
7.319100
20
314.250000
11
7.119100
21
314.450000
0
LINE
8
Layer 1
10
7.119100
20
314.450000
11
6.919100
21
314.250000
0
LINE
8
Layer 1
10
6.919100
20
314.250000
11
3.119100
21
314.250000
0
LINE
8
Layer 1
10
3.119100
20
314.250000
11
3.119100
21
331.250000
0
LINE
8
Layer 1
10
3.119100
20
331.250000
11
3.319100
21
331.250000
0
LINE
8
Layer 1
10
3.319100
20
331.250000
11
6.919100
21
331.250000
0
LINE
8
Layer 1
10
6.919100
20
331.250000
11
7.119100
21
331.050000
0
LINE
8
Layer 1
10
7.119100
20
331.050000
11
7.319100
21
331.250000
0
LINE
8
Layer 1
10
7.319100
20
331.250000
11
7.119100
21
331.450000
0
LINE
8
Layer 1
10
7.119100
20
331.450000
11
7.119100
21
348.050000
0
LINE
8
Layer 1
10
7.119100
20
348.050000
11
7.319100
21
348.250000
0
LINE
8
Layer 1
10
7.319100
20
348.250000
11
7.119100
21
348.450000
0
LINE
8
Layer 1
10
7.119100
20
348.450000
11
6.919100
21
348.250000
0
LINE
8
Layer 1
10
6.919100
20
348.250000
11
3.119100
21
348.250000
0
LINE
8
Layer 1
10
3.119100
20
348.250000
11
3.119100
21
365.250000
0
LINE
8
Layer 1
10
3.119100
20
365.250000
11
3.319100
21
365.250000
0
LINE
8
Layer 1
10
3.319100
20
365.250000
11
6.919100
21
365.250000
0
LINE
8
Layer 1
10
6.919100
20
365.250000
11
7.119100
21
365.050000
0
LINE
8
Layer 1
10
7.119100
20
365.050000
11
7.319100
21
365.250000
0
LINE
8
Layer 1
10
7.319100
20
365.250000
11
7.119100
21
365.450000
0
LINE
8
Layer 1
10
7.119100
20
365.450000
11
7.119100
21
382.050000
0
LINE
8
Layer 1
10
7.119100
20
382.050000
11
7.319100
21
382.250000
0
LINE
8
Layer 1
10
7.319100
20
382.250000
11
7.119100
21
382.450000
0
LINE
8
Layer 1
10
7.119100
20
382.450000
11
6.919100
21
382.250000
0
LINE
8
Layer 1
10
6.919100
20
382.250000
11
3.119100
21
382.250000
0
LINE
8
Layer 1
10
3.119100
20
382.250000
11
3.119100
21
393.750000
0
LINE
8
Layer 1
10
3.119100
20
393.750000
11
3.014892
21
394.863517
0
LINE
8
Layer 1
10
3.014892
20
394.863517
11
2.709262
21
395.929512
0
LINE
8
Layer 1
10
2.709262
20
395.929512
11
2.212702
21
396.921052
0
LINE
8
Layer 1
10
2.212702
20
396.921052
11
1.535700
21
397.811200
0
LINE
8
Layer 1
10
1.535700
20
397.811200
11
0.897256
21
398.644552
0
LINE
8
Layer 1
10
0.897256
20
398.644552
11
0.428633
21
399.556086
0
LINE
8
Layer 1
10
0.428633
20
399.556086
11
0.130777
21
400.522030
0
LINE
8
Layer 1
10
0.130777
20
400.522030
11
0.004638
21
401.518613
0
LINE
8
Layer 1
10
0.004638
20
401.518613
11
0.051162
21
402.522062
0
LINE
8
Layer 1
10
0.051162
20
402.522062
11
0.271298
21
403.508608
0
LINE
8
Layer 1
10
0.271298
20
403.508608
11
0.665995
21
404.454478
0
LINE
8
Layer 1
10
0.665995
20
404.454478
11
1.236200
21
405.335900
0
LINE
8
Layer 1
10
1.236200
20
405.335900
11
2.583100
21
407.495200
0
LINE
8
Layer 1
10
2.583100
20
407.495200
11
3.212063
21
408.429320
0
LINE
8
Layer 1
10
3.212063
20
408.429320
11
4.058750
21
409.139762
0
LINE
8
Layer 1
10
4.058750
20
409.139762
11
5.067438
21
409.591623
0
LINE
8
Layer 1
10
5.067438
20
409.591623
11
6.182400
21
409.750000
0
LINE
8
Layer 1
10
6.182400
20
409.750000
11
33.055800
21
409.750000
0
LINE
8
Layer 1
10
33.055800
20
409.750000
11
34.170762
21
409.591623
0
LINE
8
Layer 1
10
34.170762
20
409.591623
11
35.179450
21
409.139762
0
LINE
8
Layer 1
10
35.179450
20
409.139762
11
36.026137
21
408.429320
0
LINE
8
Layer 1
10
36.026137
20
408.429320
11
36.655100
21
407.495200
0
LINE
8
Layer 1
10
13.619100
20
285.750000
11
13.619100
21
289.750000
0
LINE
8
Layer 1
10
13.619100
20
289.750000
11
25.619100
21
289.750000
0
LINE
8
Layer 1
10
25.619100
20
289.750000
11
25.619100
21
285.750000
0
LINE
8
Layer 1
10
25.619100
20
285.750000
11
13.619100
21
285.750000
0
LINE
8
Layer 1
10
7.519100
20
401.750000
11
7.385508
21
401.088277
0
LINE
8
Layer 1
10
7.385508
20
401.088277
11
7.021187
21
400.547912
0
LINE
8
Layer 1
10
7.021187
20
400.547912
11
6.480823
21
400.183592
0
LINE
8
Layer 1
10
6.480823
20
400.183592
11
5.819100
21
400.050000
0
LINE
8
Layer 1
10
5.819100
20
400.050000
11
5.157377
21
400.183592
0
LINE
8
Layer 1
10
5.157377
20
400.183592
11
4.617012
21
400.547912
0
LINE
8
Layer 1
10
4.617012
20
400.547912
11
4.252692
21
401.088277
0
LINE
8
Layer 1
10
4.252692
20
401.088277
11
4.119100
21
401.750000
0
LINE
8
Layer 1
10
4.119100
20
401.750000
11
4.252692
21
402.411723
0
LINE
8
Layer 1
10
4.252692
20
402.411723
11
4.617012
21
402.952088
0
LINE
8
Layer 1
10
4.617012
20
402.952088
11
5.157377
21
403.316408
0
LINE
8
Layer 1
10
5.157377
20
403.316408
11
5.819100
21
403.450000
0
LINE
8
Layer 1
10
5.819100
20
403.450000
11
6.480823
21
403.316408
0
LINE
8
Layer 1
10
6.480823
20
403.316408
11
7.021187
21
402.952088
0
LINE
8
Layer 1
10
7.021187
20
402.952088
11
7.385508
21
402.411723
0
LINE
8
Layer 1
10
7.385508
20
402.411723
11
7.519100
21
401.750000
0
LINE
8
Layer 1
10
35.119100
20
401.750000
11
34.985508
21
401.088277
0
LINE
8
Layer 1
10
34.985508
20
401.088277
11
34.621188
21
400.547912
0
LINE
8
Layer 1
10
34.621188
20
400.547912
11
34.080823
21
400.183592
0
LINE
8
Layer 1
10
34.080823
20
400.183592
11
33.419100
21
400.050000
0
LINE
8
Layer 1
10
33.419100
20
400.050000
11
32.757377
21
400.183592
0
LINE
8
Layer 1
10
32.757377
20
400.183592
11
32.217013
21
400.547912
0
LINE
8
Layer 1
10
32.217013
20
400.547912
11
31.852692
21
401.088277
0
LINE
8
Layer 1
10
31.852692
20
401.088277
11
31.719100
21
401.750000
0
LINE
8
Layer 1
10
31.719100
20
401.750000
11
31.852692
21
402.411723
0
LINE
8
Layer 1
10
31.852692
20
402.411723
11
32.217013
21
402.952088
0
LINE
8
Layer 1
10
32.217013
20
402.952088
11
32.757377
21
403.316408
0
LINE
8
Layer 1
10
32.757377
20
403.316408
11
33.419100
21
403.450000
0
LINE
8
Layer 1
10
33.419100
20
403.450000
11
34.080823
21
403.316408
0
LINE
8
Layer 1
10
34.080823
20
403.316408
11
34.621188
21
402.952088
0
LINE
8
Layer 1
10
34.621188
20
402.952088
11
34.985508
21
402.411723
0
LINE
8
Layer 1
10
34.985508
20
402.411723
11
35.119100
21
401.750000
0
LINE
8
Layer 1
10
8.619100
20
406.750000
11
8.540517
21
406.360748
0
LINE
8
Layer 1
10
8.540517
20
406.360748
11
8.326213
21
406.042888
0
LINE
8
Layer 1
10
8.326213
20
406.042888
11
8.008352
21
405.828583
0
LINE
8
Layer 1
10
8.008352
20
405.828583
11
7.619100
21
405.750000
0
LINE
8
Layer 1
10
7.619100
20
405.750000
11
7.229848
21
405.828583
0
LINE
8
Layer 1
10
7.229848
20
405.828583
11
6.911988
21
406.042888
0
LINE
8
Layer 1
10
6.911988
20
406.042888
11
6.697683
21
406.360748
0
LINE
8
Layer 1
10
6.697683
20
406.360748
11
6.619100
21
406.750000
0
LINE
8
Layer 1
10
6.619100
20
406.750000
11
6.697683
21
407.139252
0
LINE
8
Layer 1
10
6.697683
20
407.139252
11
6.911988
21
407.457112
0
LINE
8
Layer 1
10
6.911988
20
407.457112
11
7.229848
21
407.671417
0
LINE
8
Layer 1
10
7.229848
20
407.671417
11
7.619100
21
407.750000
0
LINE
8
Layer 1
10
7.619100
20
407.750000
11
8.008352
21
407.671417
0
LINE
8
Layer 1
10
8.008352
20
407.671417
11
8.326213
21
407.457112
0
LINE
8
Layer 1
10
8.326213
20
407.457112
11
8.540517
21
407.139252
0
LINE
8
Layer 1
10
8.540517
20
407.139252
11
8.619100
21
406.750000
0
LINE
8
Layer 1
10
8.619100
20
396.750000
11
8.540517
21
396.360748
0
LINE
8
Layer 1
10
8.540517
20
396.360748
11
8.326213
21
396.042888
0
LINE
8
Layer 1
10
8.326213
20
396.042888
11
8.008352
21
395.828583
0
LINE
8
Layer 1
10
8.008352
20
395.828583
11
7.619100
21
395.750000
0
LINE
8
Layer 1
10
7.619100
20
395.750000
11
7.229848
21
395.828583
0
LINE
8
Layer 1
10
7.229848
20
395.828583
11
6.911988
21
396.042888
0
LINE
8
Layer 1
10
6.911988
20
396.042888
11
6.697683
21
396.360748
0
LINE
8
Layer 1
10
6.697683
20
396.360748
11
6.619100
21
396.750000
0
LINE
8
Layer 1
10
6.619100
20
396.750000
11
6.697683
21
397.139252
0
LINE
8
Layer 1
10
6.697683
20
397.139252
11
6.911988
21
397.457112
0
LINE
8
Layer 1
10
6.911988
20
397.457112
11
7.229848
21
397.671417
0
LINE
8
Layer 1
10
7.229848
20
397.671417
11
7.619100
21
397.750000
0
LINE
8
Layer 1
10
7.619100
20
397.750000
11
8.008352
21
397.671417
0
LINE
8
Layer 1
10
8.008352
20
397.671417
11
8.326213
21
397.457112
0
LINE
8
Layer 1
10
8.326213
20
397.457112
11
8.540517
21
397.139252
0
LINE
8
Layer 1
10
8.540517
20
397.139252
11
8.619100
21
396.750000
0
LINE
8
Layer 1
10
32.619100
20
406.750000
11
32.540517
21
406.360748
0
LINE
8
Layer 1
10
32.540517
20
406.360748
11
32.326213
21
406.042888
0
LINE
8
Layer 1
10
32.326213
20
406.042888
11
32.008352
21
405.828583
0
LINE
8
Layer 1
10
32.008352
20
405.828583
11
31.619100
21
405.750000
0
LINE
8
Layer 1
10
31.619100
20
405.750000
11
31.229848
21
405.828583
0
LINE
8
Layer 1
10
31.229848
20
405.828583
11
30.911988
21
406.042888
0
LINE
8
Layer 1
10
30.911988
20
406.042888
11
30.697683
21
406.360748
0
LINE
8
Layer 1
10
30.697683
20
406.360748
11
30.619100
21
406.750000
0
LINE
8
Layer 1
10
30.619100
20
406.750000
11
30.697683
21
407.139252
0
LINE
8
Layer 1
10
30.697683
20
407.139252
11
30.911988
21
407.457112
0
LINE
8
Layer 1
10
30.911988
20
407.457112
11
31.229848
21
407.671417
0
LINE
8
Layer 1
10
31.229848
20
407.671417
11
31.619100
21
407.750000
0
LINE
8
Layer 1
10
31.619100
20
407.750000
11
32.008352
21
407.671417
0
LINE
8
Layer 1
10
32.008352
20
407.671417
11
32.326213
21
407.457112
0
LINE
8
Layer 1
10
32.326213
20
407.457112
11
32.540517
21
407.139252
0
LINE
8
Layer 1
10
32.540517
20
407.139252
11
32.619100
21
406.750000
0
LINE
8
Layer 1
10
32.619100
20
396.750000
11
32.540517
21
396.360748
0
LINE
8
Layer 1
10
32.540517
20
396.360748
11
32.326213
21
396.042888
0
LINE
8
Layer 1
10
32.326213
20
396.042888
11
32.008352
21
395.828583
0
LINE
8
Layer 1
10
32.008352
20
395.828583
11
31.619100
21
395.750000
0
LINE
8
Layer 1
10
31.619100
20
395.750000
11
31.229848
21
395.828583
0
LINE
8
Layer 1
10
31.229848
20
395.828583
11
30.911988
21
396.042888
0
LINE
8
Layer 1
10
30.911988
20
396.042888
11
30.697683
21
396.360748
0
LINE
8
Layer 1
10
30.697683
20
396.360748
11
30.619100
21
396.750000
0
LINE
8
Layer 1
10
30.619100
20
396.750000
11
30.697683
21
397.139252
0
LINE
8
Layer 1
10
30.697683
20
397.139252
11
30.911988
21
397.457112
0
LINE
8
Layer 1
10
30.911988
20
397.457112
11
31.229848
21
397.671417
0
LINE
8
Layer 1
10
31.229848
20
397.671417
11
31.619100
21
397.750000
0
LINE
8
Layer 1
10
31.619100
20
397.750000
11
32.008352
21
397.671417
0
LINE
8
Layer 1
10
32.008352
20
397.671417
11
32.326213
21
397.457112
0
LINE
8
Layer 1
10
32.326213
20
397.457112
11
32.540517
21
397.139252
0
LINE
8
Layer 1
10
32.540517
20
397.139252
11
32.619100
21
396.750000
0
LINE
8
Layer 1
10
9.619100
20
21.800000
11
9.619100
21
10.500000
0
LINE
8
Layer 1
10
9.619100
20
10.500000
11
33.619100
21
10.500000
0
LINE
8
Layer 1
10
33.619100
20
10.500000
11
33.619100
21
21.800000
0
LINE
8
Layer 1
10
33.619100
20
21.800000
11
33.419100
21
22.000000
0
LINE
8
Layer 1
10
33.419100
20
22.000000
11
33.619100
21
22.200000
0
LINE
8
Layer 1
10
33.619100
20
22.200000
11
33.819100
21
22.000000
0
LINE
8
Layer 1
10
33.819100
20
22.000000
11
37.419100
21
22.000000
0
LINE
8
Layer 1
10
37.419100
20
22.000000
11
37.619100
21
22.000000
0
LINE
8
Layer 1
10
37.619100
20
22.000000
11
37.619100
21
39.000000
0
LINE
8
Layer 1
10
37.619100
20
39.000000
11
37.419100
21
39.000000
0
LINE
8
Layer 1
10
37.419100
20
39.000000
11
33.819100
21
39.000000
0
LINE
8
Layer 1
10
33.819100
20
39.000000
11
33.619100
21
38.800000
0
LINE
8
Layer 1
10
33.619100
20
38.800000
11
33.419100
21
39.000000
0
LINE
8
Layer 1
10
33.419100
20
39.000000
11
33.619100
21
39.200000
0
LINE
8
Layer 1
10
33.619100
20
39.200000
11
33.619100
21
55.800000
0
LINE
8
Layer 1
10
33.619100
20
55.800000
11
33.419100
21
56.000000
0
LINE
8
Layer 1
10
33.419100
20
56.000000
11
33.619100
21
56.200000
0
LINE
8
Layer 1
10
33.619100
20
56.200000
11
33.819100
21
56.000000
0
LINE
8
Layer 1
10
33.819100
20
56.000000
11
37.419100
21
56.000000
0
LINE
8
Layer 1
10
37.419100
20
56.000000
11
37.619100
21
56.000000
0
LINE
8
Layer 1
10
37.619100
20
56.000000
11
37.619100
21
73.000000
0
LINE
8
Layer 1
10
37.619100
20
73.000000
11
37.419100
21
73.000000
0
LINE
8
Layer 1
10
37.419100
20
73.000000
11
33.819100
21
73.000000
0
LINE
8
Layer 1
10
33.819100
20
73.000000
11
33.619100
21
72.800000
0
LINE
8
Layer 1
10
33.619100
20
72.800000
11
33.419100
21
73.000000
0
LINE
8
Layer 1
10
33.419100
20
73.000000
11
33.619100
21
73.200000
0
LINE
8
Layer 1
10
33.619100
20
73.200000
11
33.619100
21
89.800000
0
LINE
8
Layer 1
10
33.619100
20
89.800000
11
33.419100
21
90.000000
0
LINE
8
Layer 1
10
33.419100
20
90.000000
11
33.619100
21
90.200000
0
LINE
8
Layer 1
10
33.619100
20
90.200000
11
33.819100
21
90.000000
0
LINE
8
Layer 1
10
33.819100
20
90.000000
11
37.419100
21
90.000000
0
LINE
8
Layer 1
10
37.419100
20
90.000000
11
37.619100
21
90.000000
0
LINE
8
Layer 1
10
37.619100
20
90.000000
11
37.619100
21
107.000000
0
LINE
8
Layer 1
10
37.619100
20
107.000000
11
37.419100
21
107.000000
0
LINE
8
Layer 1
10
37.419100
20
107.000000
11
33.819100
21
107.000000
0
LINE
8
Layer 1
10
33.819100
20
107.000000
11
33.619100
21
106.800000
0
LINE
8
Layer 1
10
33.619100
20
106.800000
11
33.419100
21
107.000000
0
LINE
8
Layer 1
10
33.419100
20
107.000000
11
33.619100
21
107.200000
0
LINE
8
Layer 1
10
33.619100
20
107.200000
11
33.619100
21
117.500000
0
LINE
8
Layer 1
10
33.619100
20
117.500000
11
9.619100
21
117.500000
0
LINE
8
Layer 1
10
9.619100
20
117.500000
11
9.619100
21
107.200000
0
LINE
8
Layer 1
10
9.619100
20
107.200000
11
9.819100
21
107.000000
0
LINE
8
Layer 1
10
9.819100
20
107.000000
11
9.619100
21
106.800000
0
LINE
8
Layer 1
10
9.619100
20
106.800000
11
9.419100
21
107.000000
0
LINE
8
Layer 1
10
9.419100
20
107.000000
11
5.819100
21
107.000000
0
LINE
8
Layer 1
10
5.819100
20
107.000000
11
5.619100
21
107.000000
0
LINE
8
Layer 1
10
5.619100
20
107.000000
11
5.619100
21
90.000000
0
LINE
8
Layer 1
10
5.619100
20
90.000000
11
5.819100
21
90.000000
0
LINE
8
Layer 1
10
5.819100
20
90.000000
11
9.419100
21
90.000000
0
LINE
8
Layer 1
10
9.419100
20
90.000000
11
9.619100
21
90.200000
0
LINE
8
Layer 1
10
9.619100
20
90.200000
11
9.819100
21
90.000000
0
LINE
8
Layer 1
10
9.819100
20
90.000000
11
9.619100
21
89.800000
0
LINE
8
Layer 1
10
9.619100
20
89.800000
11
9.619100
21
73.200000
0
LINE
8
Layer 1
10
9.619100
20
73.200000
11
9.819100
21
73.000000
0
LINE
8
Layer 1
10
9.819100
20
73.000000
11
9.619100
21
72.800000
0
LINE
8
Layer 1
10
9.619100
20
72.800000
11
9.419100
21
73.000000
0
LINE
8
Layer 1
10
9.419100
20
73.000000
11
5.819100
21
73.000000
0
LINE
8
Layer 1
10
5.819100
20
73.000000
11
5.619100
21
73.000000
0
LINE
8
Layer 1
10
5.619100
20
73.000000
11
5.619100
21
56.000000
0
LINE
8
Layer 1
10
5.619100
20
56.000000
11
5.819100
21
56.000000
0
LINE
8
Layer 1
10
5.819100
20
56.000000
11
9.419100
21
56.000000
0
LINE
8
Layer 1
10
9.419100
20
56.000000
11
9.619100
21
56.200000
0
LINE
8
Layer 1
10
9.619100
20
56.200000
11
9.819100
21
56.000000
0
LINE
8
Layer 1
10
9.819100
20
56.000000
11
9.619100
21
55.800000
0
LINE
8
Layer 1
10
9.619100
20
55.800000
11
9.619100
21
39.200000
0
LINE
8
Layer 1
10
9.619100
20
39.200000
11
9.819100
21
39.000000
0
LINE
8
Layer 1
10
9.819100
20
39.000000
11
9.619100
21
38.800000
0
LINE
8
Layer 1
10
9.619100
20
38.800000
11
9.419100
21
39.000000
0
LINE
8
Layer 1
10
9.419100
20
39.000000
11
5.819100
21
39.000000
0
LINE
8
Layer 1
10
5.819100
20
39.000000
11
5.619100
21
39.000000
0
LINE
8
Layer 1
10
5.619100
20
39.000000
11
5.619100
21
22.000000
0
LINE
8
Layer 1
10
5.619100
20
22.000000
11
5.819100
21
22.000000
0
LINE
8
Layer 1
10
5.819100
20
22.000000
11
9.419100
21
22.000000
0
LINE
8
Layer 1
10
9.419100
20
22.000000
11
9.619100
21
22.200000
0
LINE
8
Layer 1
10
9.619100
20
22.200000
11
9.819100
21
22.000000
0
LINE
8
Layer 1
10
9.819100
20
22.000000
11
9.619100
21
21.800000
0
LINE
8
Layer 1
10
63.619100
20
314.200000
11
63.619100
21
325.500000
0
LINE
8
Layer 1
10
63.619100
20
325.500000
11
87.619100
21
325.500000
0
LINE
8
Layer 1
10
87.619100
20
325.500000
11
87.619100
21
314.200000
0
LINE
8
Layer 1
10
87.619100
20
314.200000
11
87.419100
21
314.000000
0
LINE
8
Layer 1
10
87.419100
20
314.000000
11
87.619100
21
313.800000
0
LINE
8
Layer 1
10
87.619100
20
313.800000
11
87.819100
21
314.000000
0
LINE
8
Layer 1
10
87.819100
20
314.000000
11
91.419100
21
314.000000
0
LINE
8
Layer 1
10
91.419100
20
314.000000
11
91.619100
21
314.000000
0
LINE
8
Layer 1
10
91.619100
20
314.000000
11
91.619100
21
297.000000
0
LINE
8
Layer 1
10
91.619100
20
297.000000
11
91.419100
21
297.000000
0
LINE
8
Layer 1
10
91.419100
20
297.000000
11
87.819100
21
297.000000
0
LINE
8
Layer 1
10
87.819100
20
297.000000
11
87.619100
21
297.200000
0
LINE
8
Layer 1
10
87.619100
20
297.200000
11
87.419100
21
297.000000
0
LINE
8
Layer 1
10
87.419100
20
297.000000
11
87.619100
21
296.800000
0
LINE
8
Layer 1
10
87.619100
20
296.800000
11
87.619100
21
280.200000
0
LINE
8
Layer 1
10
87.619100
20
280.200000
11
87.419100
21
280.000000
0
LINE
8
Layer 1
10
87.419100
20
280.000000
11
87.619100
21
279.800000
0
LINE
8
Layer 1
10
87.619100
20
279.800000
11
87.819100
21
280.000000
0
LINE
8
Layer 1
10
87.819100
20
280.000000
11
91.419100
21
280.000000
0
LINE
8
Layer 1
10
91.419100
20
280.000000
11
91.619100
21
280.000000
0
LINE
8
Layer 1
10
91.619100
20
280.000000
11
91.619100
21
263.000000
0
LINE
8
Layer 1
10
91.619100
20
263.000000
11
91.419100
21
263.000000
0
LINE
8
Layer 1
10
91.419100
20
263.000000
11
87.819100
21
263.000000
0
LINE
8
Layer 1
10
87.819100
20
263.000000
11
87.619100
21
263.200000
0
LINE
8
Layer 1
10
87.619100
20
263.200000
11
87.419100
21
263.000000
0
LINE
8
Layer 1
10
87.419100
20
263.000000
11
87.619100
21
262.800000
0
LINE
8
Layer 1
10
87.619100
20
262.800000
11
87.619100
21
246.200000
0
LINE
8
Layer 1
10
87.619100
20
246.200000
11
87.419100
21
246.000000
0
LINE
8
Layer 1
10
87.419100
20
246.000000
11
87.619100
21
245.800000
0
LINE
8
Layer 1
10
87.619100
20
245.800000
11
87.819100
21
246.000000
0
LINE
8
Layer 1
10
87.819100
20
246.000000
11
91.419100
21
246.000000
0
LINE
8
Layer 1
10
91.419100
20
246.000000
11
91.619100
21
246.000000
0
LINE
8
Layer 1
10
91.619100
20
246.000000
11
91.619100
21
229.000000
0
LINE
8
Layer 1
10
91.619100
20
229.000000
11
91.419100
21
229.000000
0
LINE
8
Layer 1
10
91.419100
20
229.000000
11
87.819100
21
229.000000
0
LINE
8
Layer 1
10
87.819100
20
229.000000
11
87.619100
21
229.200000
0
LINE
8
Layer 1
10
87.619100
20
229.200000
11
87.419100
21
229.000000
0
LINE
8
Layer 1
10
87.419100
20
229.000000
11
87.619100
21
228.800000
0
LINE
8
Layer 1
10
87.619100
20
228.800000
11
87.619100
21
218.500000
0
LINE
8
Layer 1
10
87.619100
20
218.500000
11
63.619100
21
218.500000
0
LINE
8
Layer 1
10
63.619100
20
218.500000
11
63.619100
21
228.800000
0
LINE
8
Layer 1
10
63.619100
20
228.800000
11
63.819100
21
229.000000
0
LINE
8
Layer 1
10
63.819100
20
229.000000
11
63.619100
21
229.200000
0
LINE
8
Layer 1
10
63.619100
20
229.200000
11
63.419100
21
229.000000
0
LINE
8
Layer 1
10
63.419100
20
229.000000
11
59.819100
21
229.000000
0
LINE
8
Layer 1
10
59.819100
20
229.000000
11
59.619100
21
229.000000
0
LINE
8
Layer 1
10
59.619100
20
229.000000
11
59.619100
21
246.000000
0
LINE
8
Layer 1
10
59.619100
20
246.000000
11
59.819100
21
246.000000
0
LINE
8
Layer 1
10
59.819100
20
246.000000
11
63.419100
21
246.000000
0
LINE
8
Layer 1
10
63.419100
20
246.000000
11
63.619100
21
245.800000
0
LINE
8
Layer 1
10
63.619100
20
245.800000
11
63.819100
21
246.000000
0
LINE
8
Layer 1
10
63.819100
20
246.000000
11
63.619100
21
246.200000
0
LINE
8
Layer 1
10
63.619100
20
246.200000
11
63.619100
21
262.800000
0
LINE
8
Layer 1
10
63.619100
20
262.800000
11
63.819100
21
263.000000
0
LINE
8
Layer 1
10
63.819100
20
263.000000
11
63.619100
21
263.200000
0
LINE
8
Layer 1
10
63.619100
20
263.200000
11
63.419100
21
263.000000
0
LINE
8
Layer 1
10
63.419100
20
263.000000
11
59.819100
21
263.000000
0
LINE
8
Layer 1
10
59.819100
20
263.000000
11
59.619100
21
263.000000
0
LINE
8
Layer 1
10
59.619100
20
263.000000
11
59.619100
21
280.000000
0
LINE
8
Layer 1
10
59.619100
20
280.000000
11
59.819100
21
280.000000
0
LINE
8
Layer 1
10
59.819100
20
280.000000
11
63.419100
21
280.000000
0
LINE
8
Layer 1
10
63.419100
20
280.000000
11
63.619100
21
279.800000
0
LINE
8
Layer 1
10
63.619100
20
279.800000
11
63.819100
21
280.000000
0
LINE
8
Layer 1
10
63.819100
20
280.000000
11
63.619100
21
280.200000
0
LINE
8
Layer 1
10
63.619100
20
280.200000
11
63.619100
21
296.800000
0
LINE
8
Layer 1
10
63.619100
20
296.800000
11
63.819100
21
297.000000
0
LINE
8
Layer 1
10
63.819100
20
297.000000
11
63.619100
21
297.200000
0
LINE
8
Layer 1
10
63.619100
20
297.200000
11
63.419100
21
297.000000
0
LINE
8
Layer 1
10
63.419100
20
297.000000
11
59.819100
21
297.000000
0
LINE
8
Layer 1
10
59.819100
20
297.000000
11
59.619100
21
297.000000
0
LINE
8
Layer 1
10
59.619100
20
297.000000
11
59.619100
21
314.000000
0
LINE
8
Layer 1
10
59.619100
20
314.000000
11
59.819100
21
314.000000
0
LINE
8
Layer 1
10
59.819100
20
314.000000
11
63.419100
21
314.000000
0
LINE
8
Layer 1
10
63.419100
20
314.000000
11
63.619100
21
313.800000
0
LINE
8
Layer 1
10
63.619100
20
313.800000
11
63.819100
21
314.000000
0
LINE
8
Layer 1
10
63.819100
20
314.000000
11
63.619100
21
314.200000
0
LINE
8
Layer 1
10
63.119100
20
407.950000
11
63.119100
21
405.750000
0
LINE
8
Layer 1
10
63.119100
20
405.750000
11
64.619100
21
405.750000
0
LINE
8
Layer 1
10
64.619100
20
405.750000
11
64.619100
21
405.250000
0
LINE
8
Layer 1
10
64.619100
20
405.250000
11
64.607680
21
405.183400
0
LINE
8
Layer 1
10
64.607680
20
405.183400
11
64.319102
21
403.500000
0
LINE
8
Layer 1
10
64.319102
20
403.500000
11
64.607680
21
401.816600
0
LINE
8
Layer 1
10
64.607680
20
401.816600
11
64.619100
21
401.750000
0
LINE
8
Layer 1
10
64.619100
20
401.750000
11
64.619100
21
377.750000
0
LINE
8
Layer 1
10
64.619100
20
377.750000
11
64.607680
21
377.683400
0
LINE
8
Layer 1
10
64.607680
20
377.683400
11
64.319102
21
376.000000
0
LINE
8
Layer 1
10
64.319102
20
376.000000
11
64.607680
21
374.316600
0
LINE
8
Layer 1
10
64.607680
20
374.316600
11
64.619100
21
374.250000
0
LINE
8
Layer 1
10
64.619100
20
374.250000
11
64.574690
21
374.124300
0
LINE
8
Layer 1
10
64.574690
20
374.124300
11
64.326945
21
373.535300
0
LINE
8
Layer 1
10
64.326945
20
373.535300
11
64.431550
21
372.904900
0
LINE
8
Layer 1
10
64.431550
20
372.904900
11
64.856265
21
372.427375
0
LINE
8
Layer 1
10
64.856265
20
372.427375
11
65.470190
21
372.250000
0
LINE
8
Layer 1
10
65.470190
20
372.250000
11
66.619100
21
372.250000
0
LINE
8
Layer 1
10
66.619100
20
372.250000
11
66.619100
21
382.250000
0
LINE
8
Layer 1
10
66.619100
20
382.250000
11
66.794836
21
382.674264
0
LINE
8
Layer 1
10
66.794836
20
382.674264
11
67.219100
21
382.850000
0
LINE
8
Layer 1
10
67.219100
20
382.850000
11
67.643364
21
382.674264
0
LINE
8
Layer 1
10
67.643364
20
382.674264
11
67.819100
21
382.250000
0
LINE
8
Layer 1
10
67.819100
20
382.250000
11
67.819100
21
372.250000
0
LINE
8
Layer 1
10
67.819100
20
372.250000
11
70.619100
21
372.250000
0
LINE
8
Layer 1
10
70.619100
20
372.250000
11
73.419100
21
372.250000
0
LINE
8
Layer 1
10
73.419100
20
372.250000
11
73.419100
21
382.250000
0
LINE
8
Layer 1
10
73.419100
20
382.250000
11
73.594836
21
382.674264
0
LINE
8
Layer 1
10
73.594836
20
382.674264
11
74.019100
21
382.850000
0
LINE
8
Layer 1
10
74.019100
20
382.850000
11
74.443364
21
382.674264
0
LINE
8
Layer 1
10
74.443364
20
382.674264
11
74.619100
21
382.250000
0
LINE
8
Layer 1
10
74.619100
20
382.250000
11
74.619100
21
372.250000
0
LINE
8
Layer 1
10
74.619100
20
372.250000
11
75.768000
21
372.250000
0
LINE
8
Layer 1
10
75.768000
20
372.250000
11
76.381925
21
372.427375
0
LINE
8
Layer 1
10
76.381925
20
372.427375
11
76.806640
21
372.904900
0
LINE
8
Layer 1
10
76.806640
20
372.904900
11
76.911245
21
373.535300
0
LINE
8
Layer 1
10
76.911245
20
373.535300
11
76.663500
21
374.124300
0
LINE
8
Layer 1
10
76.663500
20
374.124300
11
76.619090
21
374.250000
0
LINE
8
Layer 1
10
76.619090
20
374.250000
11
76.630510
21
374.316600
0
LINE
8
Layer 1
10
76.630510
20
374.316600
11
76.919088
21
376.000000
0
LINE
8
Layer 1
10
76.919088
20
376.000000
11
76.630510
21
377.683400
0
LINE
8
Layer 1
10
76.630510
20
377.683400
11
76.619090
21
377.750000
0
LINE
8
Layer 1
10
76.619090
20
377.750000
11
76.619100
21
401.750000
0
LINE
8
Layer 1
10
76.619100
20
401.750000
11
76.630520
21
401.816600
0
LINE
8
Layer 1
10
76.630520
20
401.816600
11
76.630500
21
401.817000
0
LINE
8
Layer 1
10
76.630500
20
401.817000
11
76.919086
21
403.500400
0
LINE
8
Layer 1
10
76.919086
20
403.500400
11
76.630510
21
405.183800
0
LINE
8
Layer 1
10
76.630510
20
405.183800
11
76.630500
21
405.183000
0
LINE
8
Layer 1
10
76.630500
20
405.183000
11
76.619100
21
405.250000
0
LINE
8
Layer 1
10
76.619100
20
405.250000
11
76.619100
21
405.750000
0
LINE
8
Layer 1
10
76.619100
20
405.750000
11
78.119100
21
405.750000
0
LINE
8
Layer 1
10
78.119100
20
405.750000
11
78.119100
21
407.950000
0
LINE
8
Layer 1
10
78.119100
20
407.950000
11
78.319100
21
408.150000
0
LINE
8
Layer 1
10
78.319100
20
408.150000
11
78.884786
21
408.384325
0
LINE
8
Layer 1
10
78.884786
20
408.384325
11
79.119100
21
408.950000
0
LINE
8
Layer 1
10
79.119100
20
408.950000
11
78.884786
21
409.515675
0
LINE
8
Layer 1
10
78.884786
20
409.515675
11
78.319100
21
409.750000
0
LINE
8
Layer 1
10
78.319100
20
409.750000
11
70.619100
21
409.750000
0
LINE
8
Layer 1
10
70.619100
20
409.750000
11
62.919100
21
409.750000
0
LINE
8
Layer 1
10
62.919100
20
409.750000
11
62.353414
21
409.515675
0
LINE
8
Layer 1
10
62.353414
20
409.515675
11
62.119100
21
408.950000
0
LINE
8
Layer 1
10
62.119100
20
408.950000
11
62.353414
21
408.384325
0
LINE
8
Layer 1
10
62.353414
20
408.384325
11
62.919100
21
408.150000
0
LINE
8
Layer 1
10
62.919100
20
408.150000
11
63.119100
21
407.950000
0
LINE
8
Layer 1
10
62.119100
20
366.950000
11
62.119100
21
364.750000
0
LINE
8
Layer 1
10
62.119100
20
364.750000
11
63.619100
21
364.750000
0
LINE
8
Layer 1
10
63.619100
20
364.750000
11
63.619100
21
364.250000
0
LINE
8
Layer 1
10
63.619100
20
364.250000
11
63.607680
21
364.183400
0
LINE
8
Layer 1
10
63.607680
20
364.183400
11
63.319102
21
362.500000
0
LINE
8
Layer 1
10
63.319102
20
362.500000
11
63.607680
21
360.816600
0
LINE
8
Layer 1
10
63.607680
20
360.816600
11
63.619100
21
360.750000
0
LINE
8
Layer 1
10
63.619100
20
360.750000
11
63.619100
21
336.750000
0
LINE
8
Layer 1
10
63.619100
20
336.750000
11
63.607680
21
336.683400
0
LINE
8
Layer 1
10
63.607680
20
336.683400
11
63.319102
21
335.000000
0
LINE
8
Layer 1
10
63.319102
20
335.000000
11
63.607680
21
333.316600
0
LINE
8
Layer 1
10
63.607680
20
333.316600
11
63.619100
21
333.250000
0
LINE
8
Layer 1
10
63.619100
20
333.250000
11
63.574690
21
333.124300
0
LINE
8
Layer 1
10
63.574690
20
333.124300
11
63.326945
21
332.535300
0
LINE
8
Layer 1
10
63.326945
20
332.535300
11
63.431550
21
331.904900
0
LINE
8
Layer 1
10
63.431550
20
331.904900
11
63.856265
21
331.427375
0
LINE
8
Layer 1
10
63.856265
20
331.427375
11
64.470190
21
331.250000
0
LINE
8
Layer 1
10
64.470190
20
331.250000
11
65.619100
21
331.250000
0
LINE
8
Layer 1
10
65.619100
20
331.250000
11
65.619100
21
341.250000
0
LINE
8
Layer 1
10
65.619100
20
341.250000
11
65.794836
21
341.674264
0
LINE
8
Layer 1
10
65.794836
20
341.674264
11
66.219100
21
341.850000
0
LINE
8
Layer 1
10
66.219100
20
341.850000
11
66.643364
21
341.674264
0
LINE
8
Layer 1
10
66.643364
20
341.674264
11
66.819100
21
341.250000
0
LINE
8
Layer 1
10
66.819100
20
341.250000
11
66.819100
21
331.250000
0
LINE
8
Layer 1
10
66.819100
20
331.250000
11
69.619100
21
331.250000
0
LINE
8
Layer 1
10
69.619100
20
331.250000
11
72.419100
21
331.250000
0
LINE
8
Layer 1
10
72.419100
20
331.250000
11
72.419100
21
341.250000
0
LINE
8
Layer 1
10
72.419100
20
341.250000
11
72.594836
21
341.674264
0
LINE
8
Layer 1
10
72.594836
20
341.674264
11
73.019100
21
341.850000
0
LINE
8
Layer 1
10
73.019100
20
341.850000
11
73.443364
21
341.674264
0
LINE
8
Layer 1
10
73.443364
20
341.674264
11
73.619100
21
341.250000
0
LINE
8
Layer 1
10
73.619100
20
341.250000
11
73.619100
21
331.250000
0
LINE
8
Layer 1
10
73.619100
20
331.250000
11
74.768000
21
331.250000
0
LINE
8
Layer 1
10
74.768000
20
331.250000
11
75.381925
21
331.427375
0
LINE
8
Layer 1
10
75.381925
20
331.427375
11
75.806640
21
331.904900
0
LINE
8
Layer 1
10
75.806640
20
331.904900
11
75.911245
21
332.535300
0
LINE
8
Layer 1
10
75.911245
20
332.535300
11
75.663500
21
333.124300
0
LINE
8
Layer 1
10
75.663500
20
333.124300
11
75.619090
21
333.250000
0
LINE
8
Layer 1
10
75.619090
20
333.250000
11
75.630510
21
333.316600
0
LINE
8
Layer 1
10
75.630510
20
333.316600
11
75.919088
21
335.000000
0
LINE
8
Layer 1
10
75.919088
20
335.000000
11
75.630510
21
336.683400
0
LINE
8
Layer 1
10
75.630510
20
336.683400
11
75.619090
21
336.750000
0
LINE
8
Layer 1
10
75.619090
20
336.750000
11
75.619100
21
360.750000
0
LINE
8
Layer 1
10
75.619100
20
360.750000
11
75.630520
21
360.816600
0
LINE
8
Layer 1
10
75.630520
20
360.816600
11
75.630500
21
360.817000
0
LINE
8
Layer 1
10
75.630500
20
360.817000
11
75.919086
21
362.500400
0
LINE
8
Layer 1
10
75.919086
20
362.500400
11
75.630510
21
364.183800
0
LINE
8
Layer 1
10
75.630510
20
364.183800
11
75.630500
21
364.183000
0
LINE
8
Layer 1
10
75.630500
20
364.183000
11
75.619100
21
364.250000
0
LINE
8
Layer 1
10
75.619100
20
364.250000
11
75.619100
21
364.750000
0
LINE
8
Layer 1
10
75.619100
20
364.750000
11
77.119100
21
364.750000
0
LINE
8
Layer 1
10
77.119100
20
364.750000
11
77.119100
21
366.950000
0
LINE
8
Layer 1
10
77.119100
20
366.950000
11
77.319100
21
367.150000
0
LINE
8
Layer 1
10
77.319100
20
367.150000
11
77.884786
21
367.384325
0
LINE
8
Layer 1
10
77.884786
20
367.384325
11
78.119100
21
367.950000
0
LINE
8
Layer 1
10
78.119100
20
367.950000
11
77.884786
21
368.515675
0
LINE
8
Layer 1
10
77.884786
20
368.515675
11
77.319100
21
368.750000
0
LINE
8
Layer 1
10
77.319100
20
368.750000
11
69.619100
21
368.750000
0
LINE
8
Layer 1
10
69.619100
20
368.750000
11
61.919100
21
368.750000
0
LINE
8
Layer 1
10
61.919100
20
368.750000
11
61.353414
21
368.515675
0
LINE
8
Layer 1
10
61.353414
20
368.515675
11
61.119100
21
367.950000
0
LINE
8
Layer 1
10
61.119100
20
367.950000
11
61.353414
21
367.384325
0
LINE
8
Layer 1
10
61.353414
20
367.384325
11
61.919100
21
367.150000
0
LINE
8
Layer 1
10
61.919100
20
367.150000
11
62.119100
21
366.950000
 0 
ENDSEC
 0 
EOF